<svg width="376" height="507" viewBox="0 0 376 507" fill="none" xmlns="http://www.w3.org/2000/svg">
<g opacity="0.2" clip-path="url(#clip0)">
<path d="M0.0929565 470.931C0.902466 471.524 1.7345 472.095 2.57397 472.658C5.67072 474.736 8.9035 476.604 12.2505 478.249C29.8345 487.029 51.4959 491.315 72.6028 494.227C119.936 500.771 168.266 502.039 216.393 503.285C346.415 506.67 476.781 510.039 606.473 502.249C657.711 499.172 710.096 493.994 756.537 478.234C763.188 475.977 769.714 473.491 776.115 470.774C789.052 465.258 801.479 458.556 811.815 450.571C821.559 443.066 829.399 434.435 834.106 424.634C843.925 404.206 838.731 381.263 827.525 361.248C822.841 353.125 817.581 345.35 811.785 337.982C803.15 326.71 793.624 315.79 784.914 304.533C753.943 264.442 733.736 213.807 762.323 172.74C770.568 160.942 782.418 150.585 789.112 138.27C797.664 122.51 796.997 105.016 794.276 87.9873C793.931 85.8409 793.526 83.7095 793.159 81.5781C788.489 56.3842 779.795 29.2315 752.879 13.5013C724.922 -2.84434 685.234 -2.0188 650.523 3.8275C596.556 12.9234 546.772 31.9183 496.501 49.0744C446.23 66.2306 393.575 81.9008 338.29 83.5969C289.48 85.0979 232.538 73.9381 200.143 44.9768C168.663 16.8485 109.525 14.7096 66.8763 31.7006C37.6446 43.3632 15.7957 64.3694 6.58398 87.9873C4.72211 92.716 3.37762 97.6329 2.57397 102.652C1.82654 107.222 1.5752 111.859 1.82446 116.483C1.95184 118.735 2.19922 121.024 2.57397 123.238C9.69452 169.866 60.97 206.639 92.1356 248.292C107.366 268.637 118.122 293.073 107.651 315.01C91.6785 348.437 36.1306 360.317 2.57397 385.203C-3.69513 389.682 -9.25421 395.081 -13.9158 401.219C-30.1431 423.373 -24.1394 453.272 0.0929565 470.931Z" fill="#CFF3FF"/>
<path opacity="0.1" d="M436.276 495.217C324.657 495.217 234.172 492.14 234.172 488.343C234.172 484.546 324.657 481.468 436.276 481.468C547.895 481.468 638.38 484.546 638.38 488.343C638.38 492.14 547.895 495.217 436.276 495.217Z" fill="#6C63FF"/>
<path d="M326.061 483.765C326.061 483.765 282.588 428.626 285.953 373.818C287.37 350.808 281.711 327.903 269.066 308.638C263.052 299.512 256.212 290.958 248.634 283.084" stroke="#535461" stroke-width="2" stroke-miterlimit="10"/>
<path d="M250.56 248.524C253.633 256.194 248.694 283.992 248.694 283.992C248.694 283.992 225.916 267.339 222.843 259.676C222.111 257.853 221.746 255.903 221.767 253.939C221.788 251.974 222.196 250.033 222.966 248.226C223.736 246.419 224.855 244.781 226.257 243.407C227.66 242.033 229.319 240.948 231.14 240.216C232.961 239.484 234.908 239.118 236.87 239.139C238.832 239.16 240.771 239.568 242.576 240.34C244.381 241.111 246.016 242.231 247.388 243.635C248.761 245.04 249.844 246.701 250.575 248.524H250.56Z" fill="#C7FFB4"/>
<path d="M290.503 281.763C288.921 289.868 269.681 310.514 269.681 310.514C269.681 310.514 259.6 284.142 261.181 276.037C261.98 272.183 264.263 268.8 267.537 266.621C270.81 264.442 274.809 263.642 278.667 264.395C282.526 265.149 285.932 267.395 288.147 270.646C290.363 273.897 291.209 277.891 290.503 281.763Z" fill="#C7FFB4"/>
<path d="M318.603 354.711C313.154 360.91 286.141 368.97 286.141 368.97C286.141 368.97 290.735 341.112 296.184 334.913C297.48 333.439 299.053 332.235 300.814 331.37C302.574 330.505 304.488 329.995 306.445 329.87C308.402 329.746 310.365 330.008 312.22 330.643C314.076 331.278 315.789 332.272 317.261 333.57C318.733 334.867 319.936 336.442 320.8 338.205C321.664 339.968 322.173 341.883 322.297 343.843C322.422 345.803 322.16 347.768 321.526 349.626C320.892 351.484 319.899 353.199 318.603 354.673V354.711Z" fill="#C7FFB4"/>
<path d="M327.462 414.697C323.138 421.729 297.871 434.285 297.871 434.285C297.871 434.285 297.698 406.044 302.023 399.012C303.044 397.324 304.389 395.855 305.98 394.69C307.57 393.525 309.376 392.686 311.291 392.222C313.207 391.759 315.196 391.679 317.142 391.989C319.089 392.298 320.955 392.99 322.633 394.025C324.312 395.06 325.769 396.417 326.921 398.018C328.073 399.619 328.897 401.433 329.346 403.354C329.795 405.276 329.86 407.268 329.536 409.214C329.213 411.161 328.508 413.025 327.462 414.697Z" fill="#C7FFB4"/>
<path d="M241.138 323.708C248.776 326.838 276.569 322.079 276.569 322.079C276.569 322.079 260.079 299.16 252.464 296.03C248.812 294.597 244.744 294.659 241.138 296.204C237.532 297.749 234.677 300.651 233.19 304.285C231.703 307.919 231.703 311.993 233.19 315.627C234.677 319.261 237.532 322.164 241.138 323.708Z" fill="#C7FFB4"/>
<path d="M252.382 393.729C260.626 394.434 285.706 381.563 285.706 381.563C285.706 381.563 263.137 364.632 254.923 363.927C252.95 363.725 250.957 363.918 249.06 364.495C247.163 365.072 245.4 366.022 243.873 367.289C242.346 368.555 241.087 370.113 240.167 371.872C239.248 373.631 238.688 375.556 238.519 377.534C238.351 379.512 238.577 381.504 239.185 383.394C239.793 385.283 240.771 387.033 242.061 388.54C243.351 390.047 244.929 391.282 246.7 392.173C248.472 393.064 250.404 393.593 252.382 393.729Z" fill="#C7FFB4"/>
<path d="M272.679 460.289C280.661 462.368 307.57 453.933 307.57 453.933C307.57 453.933 288.187 433.429 280.204 431.343C276.412 430.468 272.429 431.109 269.102 433.13C265.774 435.151 263.366 438.393 262.39 442.164C261.413 445.936 261.945 449.941 263.872 453.326C265.799 456.711 268.97 459.209 272.709 460.289H272.679Z" fill="#C7FFB4"/>
<path opacity="0.25" d="M250.56 248.524C253.633 256.194 248.694 283.992 248.694 283.992C248.694 283.992 225.916 267.339 222.843 259.676C222.111 257.853 221.746 255.903 221.767 253.939C221.788 251.974 222.196 250.033 222.966 248.226C223.736 246.419 224.855 244.781 226.257 243.407C227.66 242.033 229.319 240.948 231.14 240.216C232.961 239.484 234.908 239.118 236.87 239.139C238.832 239.16 240.771 239.568 242.576 240.34C244.381 241.111 246.016 242.231 247.388 243.635C248.761 245.04 249.844 246.701 250.575 248.524H250.56Z" fill="#2B2949"/>
<path opacity="0.25" d="M290.503 281.763C288.921 289.868 269.681 310.514 269.681 310.514C269.681 310.514 259.6 284.142 261.181 276.037C261.98 272.183 264.263 268.8 267.537 266.621C270.81 264.442 274.809 263.642 278.667 264.395C282.526 265.149 285.932 267.395 288.147 270.646C290.363 273.897 291.209 277.891 290.503 281.763Z" fill="#2B2949"/>
<path opacity="0.25" d="M318.603 354.711C313.154 360.91 286.141 368.97 286.141 368.97C286.141 368.97 290.735 341.112 296.184 334.913C297.48 333.439 299.053 332.235 300.814 331.37C302.574 330.505 304.488 329.995 306.445 329.87C308.402 329.746 310.365 330.008 312.22 330.643C314.076 331.278 315.789 332.272 317.261 333.57C318.733 334.867 319.936 336.442 320.8 338.205C321.664 339.968 322.173 341.883 322.297 343.843C322.422 345.803 322.16 347.768 321.526 349.626C320.892 351.484 319.899 353.199 318.603 354.673V354.711Z" fill="#2B2949"/>
<path opacity="0.25" d="M327.462 414.697C323.138 421.729 297.871 434.285 297.871 434.285C297.871 434.285 297.698 406.044 302.023 399.012C303.044 397.324 304.389 395.855 305.98 394.69C307.57 393.525 309.376 392.686 311.291 392.222C313.207 391.759 315.196 391.679 317.142 391.989C319.089 392.298 320.955 392.99 322.633 394.025C324.312 395.06 325.769 396.417 326.921 398.018C328.073 399.619 328.897 401.433 329.346 403.354C329.795 405.276 329.86 407.268 329.536 409.214C329.213 411.161 328.508 413.025 327.462 414.697Z" fill="#2B2949"/>
<path opacity="0.25" d="M241.138 323.708C248.776 326.838 276.569 322.079 276.569 322.079C276.569 322.079 260.079 299.16 252.464 296.03C248.812 294.597 244.744 294.659 241.138 296.204C237.532 297.749 234.677 300.651 233.19 304.285C231.703 307.919 231.703 311.993 233.19 315.627C234.677 319.261 237.532 322.164 241.138 323.708Z" fill="#2B2949"/>
<path opacity="0.25" d="M252.382 393.729C260.626 394.434 285.706 381.563 285.706 381.563C285.706 381.563 263.137 364.632 254.923 363.927C252.95 363.725 250.957 363.918 249.06 364.495C247.163 365.072 245.4 366.022 243.873 367.289C242.346 368.555 241.087 370.113 240.167 371.872C239.248 373.631 238.688 375.556 238.519 377.534C238.351 379.512 238.577 381.504 239.185 383.394C239.793 385.283 240.771 387.033 242.061 388.54C243.351 390.047 244.929 391.282 246.7 392.173C248.472 393.064 250.404 393.593 252.382 393.729Z" fill="#2B2949"/>
<path opacity="0.25" d="M272.679 460.289C280.661 462.368 307.57 453.933 307.57 453.933C307.57 453.933 288.187 433.429 280.204 431.343C276.412 430.468 272.429 431.109 269.102 433.13C265.774 435.151 263.366 438.393 262.39 442.164C261.413 445.936 261.945 449.941 263.872 453.326C265.799 456.711 268.97 459.209 272.709 460.289H272.679Z" fill="#2B2949"/>
<path d="M325.686 481.461C325.686 481.461 263.625 448.702 244.527 397.226C236.507 375.612 222.041 356.97 202.71 344.489C193.514 338.586 183.797 333.539 173.681 329.412" stroke="#535461" stroke-width="2" stroke-miterlimit="10"/>
<path d="M161.463 297.028C167.369 302.784 174.108 330.207 174.108 330.207C174.108 330.207 146.547 324.203 140.634 318.47C137.856 315.69 136.283 311.928 136.255 307.996C136.228 304.064 137.747 300.279 140.485 297.461C143.223 294.642 146.959 293.017 150.885 292.936C154.811 292.855 158.612 294.325 161.463 297.028Z" fill="#90EB71"/>
<path d="M211.427 311.22C213.263 319.273 204.029 345.953 204.029 345.953C204.029 345.953 184.144 325.937 182.293 317.884C181.811 315.954 181.719 313.947 182.021 311.981C182.324 310.014 183.016 308.128 184.055 306.433C185.095 304.737 186.462 303.267 188.076 302.107C189.691 300.947 191.52 300.121 193.457 299.678C195.394 299.234 197.4 299.182 199.357 299.525C201.314 299.867 203.184 300.598 204.856 301.672C206.528 302.747 207.969 304.145 209.095 305.785C210.22 307.424 211.008 309.272 211.412 311.22H211.427Z" fill="#90EB71"/>
<path d="M266.623 366.508C264.149 374.388 242.728 392.775 242.728 392.775C242.728 392.775 235.652 365.443 238.125 357.563C238.681 355.649 239.614 353.866 240.868 352.319C242.122 350.771 243.672 349.49 245.427 348.55C247.182 347.611 249.107 347.032 251.089 346.848C253.071 346.664 255.069 346.878 256.967 347.479C258.865 348.079 260.624 349.052 262.141 350.343C263.658 351.633 264.902 353.214 265.8 354.992C266.698 356.77 267.232 358.711 267.371 360.699C267.509 362.687 267.25 364.682 266.608 366.568L266.623 366.508Z" fill="#90EB71"/>
<path d="M299.017 417.759C297.908 425.94 279.897 447.666 279.897 447.666C279.897 447.666 268.309 421.924 269.403 413.737C269.667 411.79 270.311 409.915 271.299 408.217C272.287 406.52 273.598 405.034 275.16 403.845C276.721 402.655 278.501 401.785 280.398 401.284C282.295 400.783 284.271 400.662 286.215 400.926C288.159 401.19 290.032 401.835 291.728 402.824C293.423 403.813 294.907 405.126 296.095 406.689C297.283 408.252 298.152 410.034 298.652 411.934C299.152 413.833 299.274 415.813 299.01 417.759H299.017Z" fill="#90EB71"/>
<path d="M183.312 369.578C191.557 369.345 215.047 353.713 215.047 353.713C215.047 353.713 190.71 339.453 182.465 339.678C178.543 339.845 174.845 341.551 172.169 344.427C169.494 347.303 168.056 351.117 168.168 355.046C168.279 358.975 169.93 362.702 172.764 365.421C175.598 368.141 179.387 369.634 183.312 369.578Z" fill="#90EB71"/>
<path d="M221.928 429.032C229.723 426.337 247.465 404.393 247.465 404.393C247.465 404.393 219.987 398.066 212.184 400.761C208.523 402.118 205.538 404.857 203.868 408.39C202.198 411.924 201.977 415.971 203.25 419.667C204.524 423.362 207.192 426.411 210.683 428.162C214.173 429.912 218.21 430.224 221.928 429.032Z" fill="#90EB71"/>
<path d="M267.372 481.648C275.512 480.312 296.709 461.685 296.709 461.685C296.709 461.685 270.685 450.796 262.545 452.132C258.692 452.834 255.269 455.022 253.012 458.227C250.755 461.431 249.845 465.395 250.478 469.264C251.11 473.134 253.236 476.6 256.395 478.916C259.555 481.232 263.497 482.213 267.372 481.648Z" fill="#90EB71"/>
<path d="M269.887 486.039H276.536L325.165 234.678L331.402 486.039H338.462L346.362 235.098L393.748 486.039H401.228L369.021 227.683L367.971 219.285L304.793 212.208L302.829 227.683L269.887 486.039Z" fill="#464353"/>
<path d="M210.982 150.901L186.667 141.069H181.338C180.56 141.069 179.815 141.378 179.265 141.929C178.716 142.479 178.407 143.225 178.407 144.004V212.568C178.407 213.346 178.716 214.093 179.265 214.643C179.815 215.193 180.56 215.503 181.338 215.503H186.667L210.982 205.364V150.901Z" fill="#464353"/>
<path d="M210.982 154.023H260.698V202.242H210.982V154.023Z" fill="#464353"/>
<path d="M314.994 63.4537H347V69.2775H314.994V63.4537Z" fill="#514E7F"/>
<path d="M293.43 70.9963H383.517V136.852H293.43V70.9963Z" fill="#514E7F"/>
<path opacity="0.1" d="M293.43 129.054H383.517V136.859H293.43V129.054Z" fill="#2B2949"/>
<path opacity="0.1" d="M259.454 154.023H261.471V202.242H259.454V154.023Z" fill="#2B2949"/>
<path opacity="0.1" d="M302.83 227.683H369.021L367.972 219.285L304.793 212.208L302.83 227.683Z" fill="#2B2949"/>
<path d="M268.726 130.3H408.544C412.973 130.3 416.564 133.895 416.564 138.33V218.4C416.564 222.835 412.973 226.43 408.544 226.43H268.726C264.297 226.43 260.706 222.835 260.706 218.4V138.33C260.706 133.895 264.297 130.3 268.726 130.3Z" fill="#514E7F"/>
<path d="M211.454 150.901H210.982V205.364H211.454C212.485 205.364 213.475 204.953 214.205 204.223C214.934 203.492 215.344 202.502 215.344 201.469V154.796C215.344 153.763 214.934 152.772 214.205 152.042C213.475 151.311 212.485 150.901 211.454 150.901Z" fill="#514E7F"/>
<path d="M186.667 141.092H181.623C180.77 141.092 179.952 141.431 179.349 142.035C178.746 142.638 178.407 143.457 178.407 144.311V212.321C178.407 213.174 178.746 213.993 179.349 214.597C179.952 215.201 180.77 215.54 181.623 215.54H186.667V141.092Z" fill="#514E7F"/>
<path d="M383.517 115.943C358.725 115.943 338.627 95.8197 338.627 70.9963C338.627 46.1729 358.725 26.0496 383.517 26.0496C408.309 26.0496 428.406 46.1729 428.406 70.9963C428.406 95.8197 408.309 115.943 383.517 115.943Z" fill="#464353"/>
<path d="M383.516 104.708C364.922 104.708 349.847 89.6146 349.847 70.996C349.847 52.3774 364.922 37.2841 383.516 37.2841C402.111 37.2841 417.186 52.3774 417.186 70.996C417.186 89.6146 402.111 104.708 383.516 104.708Z" fill="#3F3D56"/>
<path d="M300.289 104.708C282.211 104.708 267.557 90.0346 267.557 71.9342C267.557 53.8337 282.211 39.1603 300.289 39.1603C318.366 39.1603 333.021 53.8337 333.021 71.9342C333.021 90.0346 318.366 104.708 300.289 104.708Z" fill="#464353"/>
<path d="M300.289 96.513C286.732 96.513 275.742 85.5088 275.742 71.9345C275.742 58.3601 286.732 47.356 300.289 47.356C313.846 47.356 324.836 58.3601 324.836 71.9345C324.836 85.5088 313.846 96.513 300.289 96.513Z" fill="#3F3D56"/>
<path d="M302.83 148.919C300.449 148.919 298.52 146.987 298.52 144.604C298.52 142.221 300.449 140.289 302.83 140.289C305.21 140.289 307.14 142.221 307.14 144.604C307.14 146.987 305.21 148.919 302.83 148.919Z" fill="#6C63FF"/>
<path opacity="0.5" d="M289.12 148.919C286.74 148.919 284.811 146.987 284.811 144.604C284.811 142.221 286.74 140.289 289.12 140.289C291.501 140.289 293.43 142.221 293.43 144.604C293.43 146.987 291.501 148.919 289.12 148.919Z" fill="#6C63FF"/>
<path d="M343.364 159.494L343.671 158.886C341.771 159.518 339.946 160.359 338.23 161.392C338.979 154.871 363.961 136.559 368.458 136.559C372.956 136.559 377.955 128.784 377.955 128.784C377.955 128.784 390.944 126.78 392.946 124.656C394.947 122.532 408.438 123.77 411.684 124.521C414.929 125.271 419.929 122.517 419.929 122.517C419.929 122.517 422.68 118.014 426.172 118.014C429.665 118.014 433.405 113.001 433.405 113.001C433.405 113.001 436.666 109.999 439.664 109.489C442.662 108.978 446.41 105.736 448.164 103.222C449.918 100.708 458.657 99.4697 463.649 100.22C468.641 100.971 482.14 99.1995 482.14 99.1995C476.646 96.6928 475.319 90.6739 475.319 90.6739C480.236 90.4188 493.158 79.5517 493.158 79.5517C493.158 79.5517 492.626 83.064 492.011 87.9647L492.843 86.8915L492.956 86.9815C493.22 83.4854 493.257 79.9757 493.068 76.4747C493.068 76.2045 493.023 75.9343 493.008 75.6567C489.808 72.8496 487.435 69.2202 486.146 65.1608C484.857 61.1014 484.7 56.7663 485.693 52.6242C485.828 52.0538 485.985 51.4984 486.165 50.9506C485.209 51.3489 484.198 51.6019 483.167 51.7011H482.635C482.015 51.7052 481.401 51.5775 480.834 51.3265C480.266 51.0756 479.759 50.707 479.344 50.2451C479.204 50.0673 479.081 49.8763 478.977 49.6748C478.952 49.6364 478.929 49.5963 478.91 49.5547C478.82 49.3705 478.745 49.1798 478.685 48.9843C478.664 48.9152 478.646 48.8451 478.632 48.7742C478.594 48.6207 478.564 48.4654 478.542 48.3089C478.542 48.1813 478.542 48.0462 478.542 47.9111C478.542 47.776 478.542 47.716 478.542 47.6184C478.573 46.4646 478.828 45.3278 479.292 44.2712C480.079 42.335 481.211 40.4212 481.128 38.3274C481.128 38.1548 481.091 37.9896 481.068 37.8245C480.858 36.181 479.996 34.6575 479.479 33.0739V33.0064C479.404 32.7738 479.344 32.5411 479.292 32.3085C479.267 32.2398 479.247 32.1696 479.232 32.0983C479.176 31.8234 479.139 31.5451 479.119 31.2653C479.119 31.2653 479.119 31.2278 479.119 31.2052C478.925 28.0682 481.451 25.3289 484.314 24.0606C486.877 22.9198 489.808 22.6121 492.154 21.0586C494.83 19.295 496.299 16.2405 498.278 13.7114C501.156 10.034 505.66 7.28717 510.27 7.81251C513.111 8.13522 515.689 9.62869 518.515 10.2066C522.81 11.0997 527.352 9.80131 531.624 10.7995C532.662 10.972 533.606 11.5031 534.293 12.3004C534.58 12.7028 534.765 13.169 534.832 13.6588C534.892 14.1121 534.892 14.5714 534.832 15.0247V15.0622C534.784 15.4948 534.706 15.9236 534.6 16.3456L534.532 16.6082C534.532 16.6983 534.495 16.7808 534.472 16.8709C534.45 16.961 534.375 17.2236 534.33 17.3962C534.248 17.6889 534.18 17.9816 534.105 18.2818V18.3869C534.038 18.6946 533.97 19.0023 533.918 19.3175C533.797 19.9673 533.717 20.624 533.678 21.2838C533.502 23.1407 533.902 25.0068 534.825 26.6273C536.699 29.6292 540.679 30.9576 542.41 34.0871C542.819 34.8422 543.074 35.6714 543.16 36.5262C543.191 36.8103 543.203 37.0961 543.197 37.3818V37.4943C543.197 37.742 543.197 37.9896 543.13 38.2448C543.133 38.3048 543.133 38.3649 543.13 38.4249C543.091 38.6475 543.041 38.868 542.98 39.0854C542.98 39.1604 542.942 39.228 542.92 39.2955C542.837 39.5523 542.737 39.803 542.62 40.046C541.818 41.7196 540.304 43.1005 539.989 44.9167C539.989 44.9692 539.989 45.0217 539.952 45.0818C539.779 46.4477 540.341 47.7835 540.634 49.1269C540.672 49.2903 540.702 49.4557 540.724 49.6222C540.724 49.6748 540.724 49.7273 540.724 49.7798C540.724 49.8324 540.724 50.005 540.724 50.125C540.724 50.2451 540.724 50.2526 540.724 50.3202C540.724 50.3877 540.724 50.5228 540.724 50.6204C540.728 50.6904 540.728 50.7605 540.724 50.8305C540.724 50.9281 540.724 51.0256 540.724 51.1157C540.724 51.2058 540.724 51.2508 540.724 51.3183C540.724 51.3859 540.679 51.5059 540.649 51.596L540.596 51.7836C540.561 51.8732 540.521 51.9609 540.476 52.0463L540.394 52.2114C540.339 52.3024 540.279 52.3901 540.214 52.4741C540.186 52.5159 540.156 52.556 540.124 52.5942C540.022 52.7147 539.906 52.823 539.779 52.9169C538.745 53.6674 537.133 53.4722 536.286 54.4178C536.191 54.5324 536.11 54.6584 536.047 54.7931L536.002 54.8831C535.94 55.0153 535.892 55.1537 535.859 55.2959C535.739 55.86 535.739 56.443 535.859 57.007C536.159 58.508 536.796 59.8739 537.133 61.3449C537.201 61.6451 537.246 61.9527 537.283 62.2604C537.283 62.403 537.283 62.5381 537.321 62.6732V62.7633C537.321 62.8909 537.321 63.0259 537.321 63.1535C537.321 63.2811 537.321 63.2211 537.321 63.2586C537.321 63.4462 537.321 63.6413 537.276 63.829C537.231 64.0166 537.276 64.0091 537.231 64.0916L537.186 64.3093C537.186 64.4068 537.133 64.5044 537.103 64.602L537.036 64.7896C536.998 64.8947 536.946 64.9997 536.901 65.1048C536.879 65.1538 536.854 65.2015 536.826 65.2474C536.75 65.4009 536.66 65.5467 536.556 65.6827C535.649 66.9135 534.158 67.3262 532.584 67.3337C531.691 67.3287 530.802 67.2281 529.93 67.0335C529.735 67.4913 529.533 67.9492 529.316 68.3919C528.229 70.5826 526.805 72.5884 525.096 74.3358C525.096 74.5685 525.141 74.7936 525.171 75.0338C525.343 76.7449 525.553 78.5836 525.793 80.4373C527.734 79.5442 529.233 79.199 529.825 79.8444C532.336 82.6062 529.825 92.1374 529.825 92.1374C529.825 92.1374 542.08 92.1374 545.078 94.8917C548.077 97.646 553.571 94.8917 553.571 94.8917C553.571 94.8917 564.814 96.1525 564.064 98.4115C563.315 100.67 570.06 98.4115 570.06 98.4115C570.06 98.4115 574.812 98.9143 574.558 102.164C574.303 105.414 581.805 106.922 580.809 109.181C579.812 111.44 585.306 112.933 585.306 112.933C585.306 112.933 590.8 112.686 588.799 115.935C588.799 115.935 591.797 122.96 594.293 123.44C596.789 123.921 600.042 129.707 600.042 129.707C600.042 129.707 609.666 131.463 609.231 134.472C608.796 137.482 624.027 159.013 624.027 159.013C624.027 159.013 629.026 169.333 625.526 176.86C622.025 184.387 619.529 189.401 618.78 192.155C618.03 194.909 608.946 207.037 609.021 209.296C609.021 210.002 606.772 213.799 603.707 218.617L604.606 219.548L606.578 221.582C606.578 221.582 612.829 237.132 605.333 237.882C599 238.513 594.45 238.97 592.142 238.34C591.767 238.253 591.411 238.097 591.092 237.882L591.002 237.815C588.274 241.845 586.34 244.659 586.34 244.659C586.34 244.659 586.07 244.261 585.591 243.578L584.841 244.652C584.841 244.652 584.241 243.796 583.222 242.4C583.552 249.222 583.597 255.947 583.597 255.947C583.597 255.947 580.344 255.444 581.843 270.491C583.342 285.538 572.849 297.824 572.849 297.824V320.151C572.849 320.151 572.849 320.714 572.744 321.652C572.466 324.856 571.552 332.414 568.854 337.412C565.353 343.926 568.854 360.985 568.854 360.985C568.854 360.985 569.086 374.899 568.246 392.25C568.246 392.723 568.194 393.211 568.171 393.691C583.327 406.374 599.584 423.185 599.584 423.185C598.788 423.408 598.03 423.75 597.336 424.199L598.243 425.362L602.373 430.458L605.566 434.405L600.506 450.008L594.982 447.846C594.982 447.846 591.984 453.047 592.614 456.575C592.709 457.212 592.968 457.814 593.363 458.323C593.554 458.579 593.687 458.874 593.753 459.186C595.2 464.837 589.166 489.206 579.594 490.264C579.594 490.264 576.349 491.337 575.307 488.41C574.805 486.999 574.812 484.658 575.937 480.853C575.937 480.853 580.996 474.744 577.721 468.162C575.802 464.312 572.631 459.156 570.338 455.516L569.393 454.015C567.332 456.62 566.065 458.293 566.065 458.293L558.705 450.368C558.547 450.706 558.39 451.036 558.225 451.351C557.674 452.455 557.038 453.514 556.321 454.518L551.329 474.339L549.313 473.888C549.358 474.369 549.388 474.879 549.418 475.389C549.583 478.947 549.418 483.562 547.777 486.857C546.547 489.378 544.471 491.135 541.083 491.052C529.466 490.767 526.093 484.47 526.093 484.47V468.71L522.098 467.817C522.098 467.817 522.39 433.189 523.417 413.879C523.417 413.452 523.462 413.039 523.484 412.633C523.484 412.573 523.484 412.513 523.484 412.461L497.828 384.835L495.857 384.047C479.367 377.526 479.112 360.722 479.112 360.722C479.112 360.722 479.112 351.446 477.118 343.671C475.124 335.896 476.863 295.512 480.611 285.486C484.359 275.459 485.61 264.157 485.61 264.157C485.61 264.157 481.863 258.903 485.61 254.528C486.669 253.218 487.551 251.775 488.234 250.235L483.354 249.432L480.544 248.967L479.045 248.712C479.794 255.346 479.921 260.442 478.145 261.658C472.644 265.41 454.16 252.877 454.16 252.877C460.906 252.877 464.653 202.467 463.282 201.213C461.91 199.96 459.864 174.699 461.655 170.196C463.447 165.693 455.367 145.587 455.367 145.587L454.123 143.741C454.123 143.741 424.636 156.627 421.39 159.096C418.145 161.565 407.899 153.092 406.152 156.372C404.406 159.651 393.41 164.537 393.41 164.537C393.41 164.537 377.168 162.893 375.422 166.909C373.675 170.924 363.174 180.327 363.174 180.327C363.169 178.123 363.036 175.92 362.777 173.73C362.56 174.248 362.35 174.774 362.125 175.307C357.148 187.097 348.866 202.024 341.19 193.994C332.496 184.868 339.114 167.997 343.364 159.494ZM565.593 212.778V212.921L565.653 212.861L565.593 212.778ZM571.409 154.931L574.587 188.485L580.831 194.962L581.581 195.757L588.034 188.725C588.034 188.725 591.287 187.224 588.034 184.462C584.781 181.701 593.528 175.457 593.528 175.457C593.528 175.457 593.783 170.954 590.53 169.693C587.277 168.432 583.035 160.162 583.035 160.162L571.29 154.158L571.409 154.931ZM529.616 326.673C529.388 326.461 529.136 326.277 528.866 326.125C527.464 325.329 526.565 326.2 526.1 327.731C525.488 330.297 525.674 332.989 526.632 335.446C528.379 339.461 524.129 355.514 524.129 355.514C524.129 355.514 529.631 358.013 530.627 362.786C530.775 363.373 531.03 363.927 531.377 364.422C531.444 364.002 531.504 363.597 531.564 363.206C532.051 360.204 532.314 358.268 532.314 358.268C533.21 354.406 533.38 350.41 532.816 346.485C532.022 341.66 530.417 331.858 529.818 328.143C529.668 327.243 529.586 326.703 529.578 326.643L529.616 326.673Z" fill="url(#paint0_linear)"/>
<path opacity="0.1" d="M343.364 161.002C350.042 158.916 360.273 158.856 362.162 176.762C364.958 170.143 366.712 164.507 366.712 164.507L346.205 155.816C346.205 155.816 344.946 157.828 343.364 161.002Z" fill="#2B2949"/>
</g>
<defs>
<linearGradient id="paint0_linear" x1="481.743" y1="491.135" x2="481.743" y2="7.72246" gradientUnits="userSpaceOnUse">
<stop stop-color="#808080" stop-opacity="0.25"/>
<stop offset="0.54" stop-color="#808080" stop-opacity="0.12"/>
<stop offset="1" stop-color="#808080" stop-opacity="0.1"/>
</linearGradient>
<clipPath id="clip0">
<rect width="376" height="507" fill="white" transform="matrix(-1 0 0 1 376 0)"/>
</clipPath>
</defs>
</svg>
