<svg width="30" height="31" viewBox="0 0 30 31" fill="none" xmlns="http://www.w3.org/2000/svg">
<path d="M3.27175 6.17461H0.621094V27.3799C0.621094 28.8378 1.81389 30.0306 3.27175 30.0306H24.477V27.3799H3.27175V6.17461ZM17.8504 19.4279H20.501V6.17461H15.1997V8.82527H17.8504V19.4279ZM27.1277 0.873291H8.57308C7.11521 0.873291 5.92241 2.06609 5.92241 3.52395V22.0786C5.92241 23.5364 7.11521 24.7292 8.57308 24.7292H27.1277C28.5856 24.7292 29.7784 23.5364 29.7784 22.0786V3.52395C29.7784 2.06609 28.5856 0.873291 27.1277 0.873291ZM27.1277 22.0786H8.57308V3.52395H27.1277V22.0786Z" fill="#2B2949"/>
</svg>
