<svg width="661" height="554" viewBox="0 0 661 554" fill="none" xmlns="http://www.w3.org/2000/svg">
<path d="M228.276 58.4892C249.028 40.0404 281.536 36.2455 311.15 37.72C404.184 42.3428 488.121 87.2713 560.742 138.031C587.033 156.426 612.92 176.246 629.986 201.578C664.729 253.135 654.423 324.562 606.118 367.037C589.679 381.486 569.756 392.568 549.33 402.388C512.962 419.846 473.718 433.865 432.439 437.853C403 440.699 373.235 438.391 343.941 434.421C262.179 423.326 181.922 398.768 114.653 356.837C85.1539 338.436 57.3463 315.552 45.1793 285.779C33.0123 256.006 40.7752 218.304 70.9027 200.684C83.3597 193.396 98.2573 190.109 112.841 187.015C134.311 182.464 156.126 177.95 175.494 168.729C195.503 159.175 219.196 140.702 215.239 119.558C210.968 96.8432 207.573 76.9381 228.276 58.4892Z" fill="#CFF3FF"/>
<path d="M386.269 554C494.175 554 581.65 540.76 581.65 524.428C581.65 508.096 494.175 494.857 386.269 494.857C278.363 494.857 190.889 508.096 190.889 524.428C190.889 540.76 278.363 554 386.269 554Z" fill="#3F3D56"/>
<path d="M480.592 99.5702C481.133 89.1853 485.626 79.405 493.142 72.2463C500.658 65.0877 510.625 61.0968 520.988 61.0966C522.217 61.0966 523.431 61.1609 524.632 61.2687C529.358 53.1103 536.133 46.3388 544.283 41.6306C552.432 36.9224 561.669 34.4422 571.072 34.4378C580.476 34.4333 589.715 36.9047 597.869 41.6052C606.023 46.3057 612.805 53.0707 617.538 61.2246C618.551 61.1482 619.572 61.0966 620.605 61.0966C630.967 61.0968 640.934 65.0878 648.451 72.2464C655.967 79.405 660.459 89.1853 661.001 99.5702" fill="white"/>
<path d="M187.146 291.224C187.688 280.959 192.18 271.291 199.696 264.215C207.213 257.138 217.18 253.193 227.542 253.193C228.772 253.193 229.986 253.257 231.187 253.363C235.913 245.299 242.688 238.605 250.837 233.951C258.987 229.297 268.224 226.845 277.627 226.841C287.03 226.836 296.27 229.279 304.424 233.926C312.577 238.572 319.359 245.259 324.092 253.32C325.106 253.244 326.127 253.193 327.16 253.193C337.522 253.193 347.489 257.138 355.005 264.215C362.522 271.291 367.014 280.959 367.555 291.224" fill="white"/>
<path d="M101.807 89.0892C102.346 78.7043 106.819 68.924 114.305 61.7654C121.79 54.6068 131.715 50.6158 142.035 50.6156C143.259 50.6156 144.468 50.68 145.665 50.7877C150.37 42.6293 157.118 35.8579 165.233 31.1497C173.349 26.4414 182.548 23.9613 191.912 23.9568C201.276 23.9523 210.477 26.4238 218.597 31.1242C226.717 35.8247 233.471 42.5897 238.184 50.7437C239.194 50.6673 240.21 50.6156 241.239 50.6156C251.558 50.6158 261.484 54.6068 268.969 61.7654C276.454 68.924 280.928 78.7043 281.467 89.0892" fill="white"/>
<path d="M279.223 171.059C279.223 171.059 351.937 207.457 364.976 202.402C378.014 197.347 382.527 152.354 382.527 152.354L328.869 142.243L279.223 171.059Z" fill="#2945FF"/>
<path opacity="0.1" d="M279.223 171.059C279.223 171.059 351.937 207.457 364.976 202.402C378.014 197.347 382.527 152.354 382.527 152.354L328.869 142.243L279.223 171.059Z" fill="#2B2949"/>
<path d="M429.688 116.789H382.527V158.714H429.688V116.789Z" fill="#FF6584"/>
<path opacity="0.1" d="M429.688 116.789H382.527V158.714H429.688V116.789Z" fill="#2B2949"/>
<path d="M339.212 294.219C339.212 294.219 337.256 337.879 350.459 336.875C363.662 335.871 350.459 295.725 350.459 295.725L339.212 294.219Z" fill="#FBBEBE"/>
<path d="M394.815 123.527C394.815 123.527 397.825 142.493 392.306 144.988C386.787 147.484 383.275 149.48 383.275 149.48L395.818 157.965L418.897 159.462L424.917 154.97L430.436 149.979C430.436 149.979 421.405 147.983 421.405 143.491C421.405 138.999 420.904 125.524 420.904 125.524L394.815 123.527Z" fill="#FBBEBE"/>
<path opacity="0.1" d="M394.815 123.527C394.815 123.527 397.825 142.493 392.306 144.988C386.787 147.484 383.275 149.48 383.275 149.48L395.818 157.965L418.897 159.462L424.917 154.97L430.436 149.979C430.436 149.979 421.405 147.983 421.405 143.491C421.405 138.999 420.904 125.524 420.904 125.524L394.815 123.527Z" fill="#2B2949"/>
<path d="M364.545 273.086C364.545 273.086 348.491 348.108 348.491 382.16C348.491 382.16 334.566 397 325.614 462.783L319.646 499.339L328.101 502.343L334.566 496.835C334.566 496.835 338 483.5 343.02 467.79C351 446 364.405 413.207 364.405 413.207C364.405 413.207 404.19 329.079 402.698 317.061C390.956 256.508 364.545 273.086 364.545 273.086Z" fill="#FBBEBE"/>
<path d="M447.653 261.525C447.653 261.525 461.127 295.359 447.653 375.469C447.653 375.469 452.5 375.469 448.651 457.582L447.653 486.622H437.173L435.176 483.617C435.176 483.617 432.293 460 431.184 450.572C428 423.5 424.696 403.007 424.696 403.007C424.696 403.007 413.006 320.509 416.499 313.5C420.857 231.253 447.653 261.525 447.653 261.525Z" fill="#FBBEBE"/>
<path d="M318.148 491.114C318.148 491.114 321.641 499.135 328.129 497.129C334.617 495.124 336.114 495.124 336.114 495.124C336.114 495.124 331.622 518.185 333.12 529.214C334.617 540.244 332.122 547.262 322.14 547.262C312.159 547.262 310.662 535.23 310.662 535.23L315.154 506.655L318.148 491.114Z" fill="#EAF0FC"/>
<path d="M433.43 478.387C433.43 478.387 436.849 485.428 442.222 483.919C447.595 482.41 449.549 479.895 449.549 479.895C449.549 479.895 449.06 495.487 451.014 502.528C452.968 509.569 457.364 529.687 447.107 530.693C444.289 531.045 441.437 530.452 438.973 529.003C436.509 527.553 434.565 525.324 433.43 522.646V478.386L433.43 478.387Z" fill="#EAF0FC"/>
<path d="M408.353 136.254C420.549 136.254 430.436 126.366 430.436 114.169C430.436 101.972 420.549 92.0837 408.353 92.0837C396.157 92.0837 386.27 101.972 386.27 114.169C386.27 126.366 396.157 136.254 408.353 136.254Z" fill="#FBBEBE"/>
<path d="M448.706 153.992C448.706 153.992 431.223 147.151 424.916 148.072C422.198 150.374 419.03 152.088 415.614 153.107C412.197 154.126 408.605 154.428 405.065 153.992C393.027 152.493 388.319 146.735 388.319 146.735C388.319 146.735 355.907 153.992 357.914 156.992C359.92 159.991 368.949 208.981 368.949 208.981C368.949 208.981 374.969 251.472 367.946 265.969C360.923 280.466 364.936 271.75 367.946 273.75C370.956 275.75 397.04 317.459 401.052 319.958C405.065 322.458 413 319.5 413 319.5L416 318.5C419.511 316.5 445.841 260.355 444.838 256.856C443.834 253.357 443.188 247.973 438.673 239.475C434.159 230.977 437.67 212.98 440.178 209.481C442.686 205.982 447.702 201.983 448.706 191.985C449.709 181.987 448.706 153.992 448.706 153.992Z" fill="#FA0026"/>
<path d="M358.861 155.719C358.861 155.719 354.746 158.765 353.242 165.267C351.737 171.768 349.731 223.781 349.731 223.781C349.731 223.781 331.173 295.298 335.185 296.799C339.198 298.299 350.734 301.3 352.238 299.799C353.743 298.299 370.796 237.784 369.292 231.283C367.787 224.781 371.298 205.776 371.298 205.776L358.861 155.719Z" fill="#FA0026"/>
<path d="M451.634 248.7C451.634 248.7 424.652 235.127 421.654 244.175C418.656 253.224 450.135 262.776 450.135 262.776C450.135 262.776 461.128 258.754 461.128 256.241C461.128 253.727 451.634 248.7 451.634 248.7Z" fill="#FBBEBE"/>
<path d="M442.849 155.724L448.363 153.716C448.363 153.716 451.37 151.708 454.878 159.238C458.387 166.769 496.48 210.948 489.463 225.005C482.446 239.062 459.389 267.678 458.387 265.67C457.385 263.662 445.856 248.601 447.861 247.094C449.866 245.588 472.922 225.005 469.915 221.993C466.908 218.98 454.377 193.377 447.36 192.373C440.343 191.368 442.849 155.724 442.849 155.724Z" fill="#FA0026"/>
<path d="M383.661 113.486C383.661 113.486 307.34 82.7481 241.274 53.1699C241.274 53.1699 206.739 44.6474 188.721 60.6898C188.721 60.6898 203.736 58.6845 203.736 67.207C203.736 67.207 216.749 84.2521 176.209 87.2601C147.975 89.3549 136.734 106.282 132.51 116.366C129.213 124.461 123.418 131.287 115.971 135.846C106.212 141.688 92.0694 145.985 75.6074 138.395C75.6074 138.395 76.5433 139.836 78.3185 142.238C110.103 185.231 228.463 222.648 270.26 189.342C296.09 168.76 337.039 142.745 366.394 155.848C412.44 176.402 420.949 167.378 420.949 167.378L422.951 161.864C422.951 161.864 378.406 149.832 377.405 134.291C376.404 118.75 383.661 113.486 383.661 113.486Z" fill="#2945FF"/>
<path d="M428.7 117.538C428.7 117.538 439.458 121.828 441.459 135.958C441.459 135.958 452.967 158.669 439.958 164.22C426.949 169.771 424.447 168.257 424.447 168.257V165.734C424.447 165.734 438.457 157.155 435.455 150.594C432.453 144.033 428.7 117.538 428.7 117.538Z" fill="#2945FF"/>
<path d="M408.727 181.173C408.727 181.173 412.269 172.335 411.257 172.335C410.245 172.335 415.374 166.899 417.363 168.881C419.353 170.862 422.895 176.754 418.847 178.227C414.799 179.7 408.727 181.173 408.727 181.173Z" fill="#2945FF"/>
<path d="M433.431 175.932C433.431 175.932 424.662 172.912 424.703 173.88C424.744 174.849 419.232 170.168 421.086 168.182C422.941 166.196 428.55 162.561 430.15 166.372C431.75 170.184 433.431 175.932 433.431 175.932Z" fill="#2945FF"/>
<path d="M418.719 162.521C418.719 162.521 423.288 159.926 426.008 164.009C428.728 168.093 422.723 175.184 418.719 175.184C414.715 175.184 414.715 166.573 414.715 166.573L418.719 162.521Z" fill="#2945FF"/>
<path opacity="0.1" d="M418.719 162.521C418.719 162.521 423.288 159.926 426.008 164.009C428.728 168.093 422.723 175.184 418.719 175.184C414.715 175.184 414.715 166.573 414.715 166.573L418.719 162.521Z" fill="#2B2949"/>
<path d="M389.214 78.4831C386.59 80.6629 384.101 83.1057 382.469 86.1124C381.613 87.7987 380.898 89.5537 380.33 91.3592C378.317 97.1961 373.314 103.108 375.431 108.907C376.036 110.562 376.978 112.306 376.436 113.983C375.955 115.472 374.47 116.341 373.396 117.473C371.091 119.902 370.704 123.547 370.563 126.905C370.305 133.054 373.661 140.301 377.716 144.904C378.596 145.77 379.412 146.701 380.156 147.688C380.658 148.475 380.986 149.362 381.118 150.288C381.25 151.214 381.182 152.158 380.92 153.056L386.828 151.813C387.041 154.011 387.107 156.22 387.027 158.426C388.428 158.582 389.838 158.245 391.022 157.475C392.205 156.704 393.089 155.546 393.524 154.196C393.858 155.769 394.404 157.289 395.147 158.714C396.88 156.53 398.209 154.05 399.07 151.393C400.201 147.989 400.443 144.349 399.775 140.823C399.149 138.248 398.298 135.734 397.231 133.31C395.144 127.995 393.44 122.537 391.737 117.085C390.853 114.253 389.958 111.329 390.226 108.373L392.325 108.143C392.348 106.975 392.572 105.82 392.987 104.73C394.218 104.992 395.401 105.441 396.498 106.061L398.917 99.8745C400.514 101.543 402.806 102.299 405.001 102.995L413.342 105.641L413.392 103.978C416.913 107.118 420.923 109.653 425.262 111.48C425.017 111.181 424.838 110.834 424.737 110.461C424.636 110.087 424.615 109.697 424.676 109.315C426.731 113.025 425.909 117.647 424.641 121.699C423.372 125.752 421.689 129.877 422.2 134.095C422.582 137.25 424.186 140.267 423.888 143.431C423.742 144.989 423.137 146.471 422.949 148.025C422.501 151.73 424.434 155.258 426.3 158.482L429.929 153.46C431.257 151.623 432.626 149.745 434.507 148.489C436.437 147.199 438.83 146.62 440.512 145.016C443.515 142.153 443.134 137.274 442.157 133.226C441.638 131.074 441.01 128.892 441.201 126.686C441.525 122.946 444.104 119.851 445.557 116.394C446.592 113.873 447.041 111.147 446.869 108.425C446.696 105.702 445.908 103.056 444.563 100.688C442.76 97.5725 440.037 95.0636 438.338 91.8896C436.647 88.73 436.002 84.9706 433.685 82.2437C432.554 81.0028 431.238 79.9465 429.785 79.1126C423.2 75.1262 415.804 72.695 408.152 72.0016C400.896 71.2373 394.775 73.8647 389.214 78.4831Z" fill="#2B2949"/>
</svg>
