<svg width="40" height="41" viewBox="0 0 40 41" fill="none" xmlns="http://www.w3.org/2000/svg">
<path fill-rule="evenodd" clip-rule="evenodd" d="M20 40.8713C31.0457 40.8713 40 31.917 40 20.8713C40 9.82564 31.0457 0.871338 20 0.871338C8.9543 0.871338 0 9.82564 0 20.8713C0 31.917 8.9543 40.8713 20 40.8713ZM20 16.5927C21.0747 15.3165 22.6607 14.5838 24.3291 14.5927C27.461 14.5927 30 17.1316 30 20.2635C30 25.7066 20.6329 30.8711 20.2532 31.0737C20.0999 31.1761 19.9001 31.1761 19.7468 31.0737C19.3671 30.8711 10 25.6307 10 20.2635C10 17.1316 12.5389 14.5927 15.6709 14.5927C17.3416 14.573 18.932 15.3078 20 16.5927Z" fill="white" fill-opacity="0.8"/>
</svg>
