<svg width="34" height="32" viewBox="0 0 34 32" fill="none" xmlns="http://www.w3.org/2000/svg">
<path d="M26.7363 0.470117C25.2516 0.658976 23.8999 1.43022 22.8416 2.48853L7.11085 18.2192C6.4175 18.9126 5.88725 19.7836 5.72807 20.7512C5.23248 23.7642 7.81017 26.3453 10.825 25.857C11.7927 25.7003 12.6647 25.1719 13.3578 24.4788L27.7107 10.1259C27.9874 9.8492 27.9874 9.40076 27.7107 9.12411L26.7092 8.12257C26.4325 7.84592 25.9841 7.84592 25.7075 8.12257L11.2116 22.6185C10.9113 22.918 10.5122 23.0834 10.0868 23.0834C9.21174 23.0834 8.49993 22.3702 8.49993 21.4937C8.49993 21.0704 8.66529 20.672 8.96478 20.3717L25.0344 4.30209C25.713 3.62355 26.6151 3.25002 27.5745 3.25002C29.555 3.25002 31.1667 4.86176 31.1667 6.89127C31.1667 7.82786 30.8084 8.71465 30.1568 9.38841L13.4067 26.7167C12.3928 27.7655 11.0774 28.5287 9.62924 28.7043C5.78883 29.17 2.53911 26.0152 2.85454 22.1081C2.97414 20.6267 3.70374 19.2579 4.75462 18.207L20.3342 2.62746C20.6108 2.35081 20.6108 1.90237 20.3342 1.62572L19.3327 0.624179C19.056 0.347531 18.6076 0.347531 18.3309 0.624179L2.6002 16.3549C0.923844 18.0312 0.000464971 20.2593 1.27218e-07 22.7047C-0.00039831 24.9963 0.935133 27.2238 2.54289 28.8569C6.40429 32.7791 12.0578 32.1875 15.2603 28.8759L32.1939 11.3571C33.3588 10.1528 34 8.5667 34 6.84219C34 3.02337 30.6514 -0.0279965 26.7363 0.470117Z" fill="#EAF0FC"/>
</svg>
