<svg width="40" height="40" viewBox="0 0 40 40" fill="none" xmlns="http://www.w3.org/2000/svg">
<circle cx="20" cy="20" r="20" fill="white"/>
<g clip-path="url(#clip0)">
<path d="M29.5533 12.079C29.5138 11.7953 29.3097 11.562 29.0338 11.4853L20.1917 9.02631C20.0656 8.99123 19.9325 8.99123 19.8063 9.02631L10.9641 11.4853C10.6882 11.562 10.4842 11.7952 10.4447 12.079C10.3934 12.4478 9.2234 21.1611 12.2243 25.4957C15.2217 29.8252 19.6434 30.9347 19.8302 30.9798C19.8857 30.9932 19.9422 30.9999 19.999 30.9999C20.0557 30.9999 20.1123 30.9931 20.1678 30.9798C20.3546 30.9347 24.7764 29.8252 27.7737 25.4957C30.7746 21.1612 29.6046 12.4479 29.5533 12.079ZM25.7011 17.1659L19.6698 23.1972C19.5295 23.3375 19.3454 23.4078 19.1615 23.4078C18.9775 23.4078 18.7934 23.3376 18.6531 23.1972L14.924 19.4681C14.7892 19.3333 14.7134 19.1504 14.7134 18.9598C14.7134 18.7691 14.7893 18.5862 14.924 18.4514L15.6645 17.711C15.9452 17.4303 16.4005 17.4302 16.6812 17.711L19.1615 20.1913L23.9439 15.4087C24.0787 15.2738 24.2616 15.1981 24.4523 15.1981C24.643 15.1981 24.8259 15.2738 24.9606 15.4087L25.7011 16.1491C25.9818 16.4299 25.9818 16.8852 25.7011 17.1659Z" fill="#90EB71"/>
</g>
<defs>
<clipPath id="clip0">
<rect width="22" height="22" fill="white" transform="translate(9 9)"/>
</clipPath>
</defs>
</svg>
