<svg width="811" height="610" viewBox="0 0 811 610" fill="none" xmlns="http://www.w3.org/2000/svg">
<g style="mix-blend-mode:darken">
<path d="M489.749 150.326C442.878 141.52 400.318 119.43 360.005 96.214C319.692 72.9977 280.049 48.0474 235.407 32.2037C206.689 22.0137 172.981 16.0646 146.728 28.3468C121.481 40.1412 110.027 65.4698 102.316 89.385C96.5114 107.375 91.7976 126.505 97.3761 145.045C101.256 157.906 109.851 169.527 115.109 182.077C133.389 225.748 108.686 272.42 76.3287 307.42C61.1846 323.849 44.1336 339.12 31.6143 357.15C19.095 375.18 11.2742 396.842 16.6092 417.988C21.905 438.955 39.402 456.758 59.2127 470.42C99.4544 498.171 149.745 512.017 199.16 523.039C308.547 547.437 420.179 561.061 531.512 574.633C572.716 579.652 614.098 584.686 655.421 584.463C678.36 584.341 702.343 582.254 720.664 571.189C743.931 557.144 753.477 528.822 742.917 505.144C725.206 465.472 662.39 446.73 652.069 405.472C646.386 382.763 659.176 360.369 675.165 342.546C709.467 304.297 761.802 274.126 771.646 225.948C778.411 192.856 761.057 156.042 728.774 134.989C694.929 112.916 644.202 107.329 613.211 130.627C581.32 154.642 531.133 158.103 489.749 150.326Z" fill="#DDF7FF"/>
</g>
<g opacity="0.7">
<path opacity="0.7" d="M523.097 264.668C523.158 246.064 518.707 227.723 510.124 211.22C506.049 203.47 502.333 198.652 499.441 195.697C498.35 194.54 496.926 193.752 495.366 193.444C493.807 193.136 492.19 193.323 490.742 193.979C489.584 194.388 488.539 195.062 487.689 195.949C483.82 199.958 480.325 205.257 477.273 210.899C468.244 227.788 463.557 246.66 463.636 265.814V277.313H456.265V143.692C456.265 115.685 450 88.0521 437.729 63.5194C431.915 51.9058 426.611 44.6903 422.529 40.2541C421.539 39.1263 420.321 38.2228 418.955 37.6038C417.589 36.9848 416.107 36.6646 414.608 36.6646C413.108 36.6646 411.626 36.9848 410.26 37.6038C408.894 38.2228 407.676 39.1263 406.687 40.2541C401.162 46.2632 396.179 54.2041 391.822 62.6489C378.918 87.6856 372.363 116.097 372.363 144.936V277.313H365.991V265.264C366.07 246.11 361.383 227.238 352.354 210.349C349.302 204.714 345.807 199.415 341.938 195.399C340.824 194.226 339.367 193.436 337.776 193.145C336.185 192.854 334.543 193.077 333.086 193.78L333.353 193.926C332.419 194.339 331.574 194.93 330.866 195.666C328.004 198.621 324.288 203.439 320.182 211.189C311.6 227.693 307.148 246.034 307.21 264.638V464.412H329.95L327.47 480.836V529.94H346.059V480.836L343.579 464.412H365.991V282.482H372.363V463.595H390.524L387.914 480.828V529.94H406.511V480.836L403.901 463.603H428.374L425.764 480.836V529.94H444.361V480.836L441.751 463.603H456.25V282.482H463.621V464.687H469.596V464.412H489.353L486.873 480.836V529.94H505.469V480.836L502.989 464.412H523.097V264.668Z" fill="url(#paint0_linear)"/>
</g>
<path d="M349.761 471.261H332.156L335.3 449.875H346.617L349.761 471.261Z" fill="#9B9EC6"/>
<g opacity="0.1">
<path opacity="0.1" d="M334.422 458.365H347.494L346.616 452.386H335.299L334.422 458.365Z" fill="#2B2949"/>
</g>
<path d="M500.669 471.261H483.064L486.208 449.875H497.525L500.669 471.261Z" fill="#9B9EC6"/>
<g opacity="0.1">
<path opacity="0.1" d="M485.332 458.365H498.404L497.526 452.386H486.21L485.332 458.365Z" fill="#2B2949"/>
</g>
<path d="M406.985 471.261H389.373L392.517 449.875H403.841L406.985 471.261Z" fill="#9B9EC6"/>
<g opacity="0.1">
<path opacity="0.1" d="M391.639 458.365H404.718L403.841 452.386H392.516L391.639 458.365Z" fill="#2B2949"/>
</g>
<path d="M442.819 471.261H425.215L428.359 449.875H439.675L442.819 471.261Z" fill="#9B9EC6"/>
<g opacity="0.1">
<path opacity="0.1" d="M427.482 458.365H440.562L439.677 452.386H428.36L427.482 458.365Z" fill="#2B2949"/>
</g>
<path d="M475.52 273.075H349.762V278.107H475.52V273.075Z" fill="#9B9EC6"/>
<path d="M494.961 193.567C494.297 192.833 493.486 192.246 492.581 191.845C491.676 191.443 490.697 191.236 489.708 191.236C488.718 191.236 487.739 191.443 486.834 191.845C485.929 192.246 485.118 192.833 484.454 193.567C480.791 197.469 477.487 202.63 474.594 208.12C466.036 224.63 461.608 242.97 461.691 261.568V455.273H517.343V260.767C517.413 242.678 513.2 224.831 505.05 208.685C501.188 201.141 497.67 196.445 494.961 193.567Z" fill="#DDDCE4"/>
<path d="M335.376 193.567C336.041 192.833 336.852 192.246 337.756 191.845C338.661 191.443 339.64 191.236 340.63 191.236C341.62 191.236 342.599 191.443 343.504 191.845C344.409 192.246 345.219 192.833 345.884 193.567C349.547 197.469 352.851 202.63 355.743 208.12C364.302 224.63 368.729 242.97 368.647 261.568V455.273H312.979V260.767C312.909 242.678 317.122 224.831 325.273 208.685C329.126 201.141 332.644 196.445 335.376 193.567Z" fill="#DDDCE4"/>
<path d="M313.293 264.897L326.495 264.959V281.253H313.293V264.897Z" fill="#9B9EC6"/>
<path d="M355.424 264.897L368.625 264.959V281.253H355.424V264.897Z" fill="#9B9EC6"/>
<path d="M461.684 264.897L474.893 264.959V281.253H461.684V264.897Z" fill="#9B9EC6"/>
<path d="M503.814 264.897L517.024 264.959V281.253H503.814V264.897Z" fill="#9B9EC6"/>
<g opacity="0.1">
<path opacity="0.1" d="M355.72 207.868C352.836 202.378 349.524 197.216 345.861 193.315C344.826 192.171 343.445 191.397 341.93 191.112C340.414 190.826 338.847 191.045 337.467 191.734C338.262 192.131 338.98 192.666 339.588 193.315C343.251 197.216 346.555 202.378 349.447 207.868C358.006 224.377 362.434 242.718 362.351 261.316V455.005H368.639V261.339C368.721 242.732 364.287 224.383 355.72 207.868Z" fill="#2B2949"/>
</g>
<g opacity="0.1">
<path opacity="0.1" d="M479.601 208.403C482.485 202.913 485.797 197.751 489.46 193.85C490.146 193.111 490.974 192.519 491.894 192.109C490.534 191.513 489.021 191.36 487.569 191.672C486.117 191.985 484.8 192.747 483.805 193.85C480.142 197.751 476.838 202.913 473.946 208.403C465.388 224.912 460.96 243.253 461.042 261.851V455.54H466.704V261.882C466.615 243.274 471.04 224.922 479.601 208.403Z" fill="#2B2949"/>
</g>
<path d="M349.761 471.261H332.156V519.075H349.761V471.261Z" fill="url(#paint1_linear)"/>
<path d="M406.978 471.261H389.373V519.075H406.978V471.261Z" fill="url(#paint2_linear)"/>
<path d="M442.819 471.261H425.215V519.075H442.819V471.261Z" fill="url(#paint3_linear)"/>
<path d="M500.669 471.261H483.064V519.075H500.669V471.261Z" fill="url(#paint4_linear)"/>
<path d="M422.14 41.6972C421.22 40.6034 420.072 39.7241 418.777 39.1209C417.482 38.5176 416.071 38.2051 414.642 38.2051C413.214 38.2051 411.803 38.5176 410.507 39.1209C409.212 39.7241 408.065 40.6034 407.145 41.6972C401.918 47.5459 397.225 55.2807 393.073 63.5117C380.864 87.8994 374.652 115.578 374.652 143.646V454.478H454.083V142.394C454.083 115.12 448.154 88.1819 436.532 64.3516C431.03 53.0435 426.009 46.0188 422.14 41.6972Z" fill="#EEEEEE"/>
<path d="M426.145 76.2251H401.49C396.854 76.2251 393.096 79.9855 393.096 84.6241V86.8308C393.096 91.4694 396.854 95.2298 401.49 95.2298H426.145C430.781 95.2298 434.539 91.4694 434.539 86.8308V84.6241C434.539 79.9855 430.781 76.2251 426.145 76.2251Z" fill="#2945FF"/>
<g opacity="0.7">
<path opacity="0.7" d="M599.407 513.852C596.8 498.127 588.367 483.962 575.789 474.181C563.211 464.4 547.411 459.721 531.538 461.076C515.666 462.431 500.886 469.722 490.146 481.494C479.406 493.266 473.494 508.656 473.588 524.595C473.588 524.908 473.588 525.213 473.588 525.526C471.245 525.881 468.926 526.379 466.644 527.015C463.72 515.367 457.25 504.916 448.128 497.11C439.007 489.304 427.685 484.529 415.731 483.447C403.777 482.364 391.783 485.026 381.408 491.066C371.034 497.106 362.793 506.224 357.826 517.158C352.707 515.182 347.331 513.953 341.862 513.508C340.99 508.553 339.527 503.721 337.505 499.115C336.556 484.582 330.165 470.941 319.609 460.914C309.052 450.887 295.105 445.211 280.551 445.018C265.997 444.825 251.905 450.13 241.087 459.874C230.268 469.618 223.519 483.085 222.186 497.588C219.19 503.937 217.276 510.742 216.524 517.723C203.278 523.237 192.549 533.476 186.418 546.455C180.286 559.433 179.188 574.227 183.337 587.969H646.978C649.395 579.954 650.046 571.509 648.887 563.218C647.729 554.926 644.787 546.984 640.266 539.939C635.744 532.895 629.75 526.914 622.696 522.411C615.643 517.907 607.697 514.987 599.407 513.852Z" fill="url(#paint5_linear)"/>
</g>
<path d="M285.104 559.054C315.797 559.054 340.68 534.157 340.68 503.445C340.68 472.732 315.797 447.835 285.104 447.835C254.41 447.835 229.527 472.732 229.527 503.445C229.527 534.157 254.41 559.054 285.104 559.054Z" fill="url(#paint6_linear)"/>
<path d="M284.829 585.19C318.44 585.19 345.686 557.927 345.686 524.297C345.686 490.667 318.44 463.404 284.829 463.404C251.219 463.404 223.973 490.667 223.973 524.297C223.973 557.927 251.219 585.19 284.829 585.19Z" fill="url(#paint7_linear)"/>
<path d="M532.148 585.19C565.758 585.19 593.005 557.927 593.005 524.297C593.005 490.667 565.758 463.404 532.148 463.404C498.538 463.404 471.291 490.667 471.291 524.297C471.291 557.927 498.538 585.19 532.148 585.19Z" fill="url(#paint8_linear)"/>
<path d="M529.088 585.19C559.782 585.19 584.664 560.293 584.664 529.581C584.664 498.869 559.782 473.972 529.088 473.972C498.394 473.972 473.512 498.869 473.512 529.581C473.512 560.293 498.394 585.19 529.088 585.19Z" fill="url(#paint9_linear)"/>
<path d="M466.286 540.148C466.295 548.942 464.216 557.612 460.22 565.445C456.224 573.277 450.425 580.047 443.301 585.198H378.11C370.394 579.617 364.24 572.148 360.236 563.505C356.232 554.863 354.513 545.336 355.244 535.838C355.975 526.34 359.131 517.189 364.411 509.262C369.69 501.334 376.915 494.896 385.394 490.564C393.873 486.231 403.321 484.15 412.835 484.519C422.348 484.889 431.607 487.696 439.725 492.673C447.843 497.649 454.548 504.628 459.197 512.941C463.847 521.254 466.285 530.622 466.278 540.148H466.286Z" fill="url(#paint10_linear)"/>
<path d="M535.209 580.189C535.209 581.854 535.135 583.5 534.988 585.129C534.993 585.152 534.993 585.175 534.988 585.198H424.278C424.125 583.549 424.049 581.876 424.049 580.197C424.039 566.89 428.804 554.022 437.475 543.932C446.147 533.843 458.149 527.204 471.3 525.221C474.048 524.808 476.823 524.599 479.602 524.595C481.021 524.595 482.433 524.649 483.83 524.748C493.791 525.51 503.363 528.943 511.541 534.685C519.718 540.428 526.199 548.268 530.302 557.382C530.531 557.886 530.752 558.397 530.958 558.909C533.765 565.652 535.209 572.885 535.209 580.189Z" fill="url(#paint11_linear)"/>
<path d="M640.248 569.064C640.254 574.527 639.452 579.962 637.867 585.19H531.492C528.92 576.639 528.431 567.596 530.065 558.817C530.156 558.336 530.248 557.847 530.355 557.374C533.033 544.941 539.887 533.802 549.776 525.812C559.665 517.822 571.992 513.463 584.702 513.462C586.45 513.462 588.167 513.539 589.868 513.707C590.632 513.768 591.395 513.859 592.158 513.959C605.478 515.772 617.69 522.354 626.532 532.486C635.374 542.618 640.247 555.613 640.248 569.064Z" fill="url(#paint12_linear)"/>
<path d="M298.846 585.198C299.029 584.617 299.19 584.037 299.35 583.449C301.88 573.981 301.866 564.013 299.31 554.552C296.753 545.091 291.745 536.474 284.792 529.571C277.838 522.669 269.187 517.726 259.711 515.243C250.236 512.761 240.274 512.826 230.832 515.432C228.621 516.039 226.452 516.789 224.338 517.677C211.61 522.976 201.301 532.814 195.411 545.285C189.52 557.756 188.467 571.971 192.456 585.175H298.846V585.198Z" fill="url(#paint13_linear)"/>
<g opacity="0.7">
<path opacity="0.7" d="M619.125 470.826C624.755 470.826 629.32 466.259 629.32 460.625C629.32 454.991 624.755 450.424 619.125 450.424C613.494 450.424 608.93 454.991 608.93 460.625C608.93 466.259 613.494 470.826 619.125 470.826Z" fill="url(#paint14_linear)"/>
</g>
<path d="M619.125 470.078C624.342 470.078 628.572 465.846 628.572 460.625C628.572 455.404 624.342 451.172 619.125 451.172C613.907 451.172 609.678 455.404 609.678 460.625C609.678 465.846 613.907 470.078 619.125 470.078Z" fill="url(#paint15_linear)"/>
<g opacity="0.7">
<path opacity="0.7" d="M665.812 570.179C671.952 570.179 676.93 565.198 676.93 559.054C676.93 552.91 671.952 547.929 665.812 547.929C659.671 547.929 654.693 552.91 654.693 559.054C654.693 565.198 659.671 570.179 665.812 570.179Z" fill="url(#paint16_linear)"/>
</g>
<path d="M665.811 569.621C671.644 569.621 676.372 564.89 676.372 559.054C676.372 553.218 671.644 548.486 665.811 548.486C659.978 548.486 655.25 553.218 655.25 559.054C655.25 564.89 659.978 569.621 665.811 569.621Z" fill="url(#paint17_linear)"/>
<g opacity="0.7">
<path opacity="0.7" d="M190.067 507.881C196.814 507.881 202.284 502.408 202.284 495.657C202.284 488.905 196.814 483.432 190.067 483.432C183.319 483.432 177.85 488.905 177.85 495.657C177.85 502.408 183.319 507.881 190.067 507.881Z" fill="url(#paint18_linear)"/>
</g>
<path d="M190.068 507.331C196.512 507.331 201.736 502.104 201.736 495.657C201.736 489.209 196.512 483.982 190.068 483.982C183.624 483.982 178.4 489.209 178.4 495.657C178.4 502.104 183.624 507.331 190.068 507.331Z" fill="url(#paint19_linear)"/>
<g opacity="0.4">
<path opacity="0.4" d="M650.328 13.339C647.62 9.7584 644.227 6.75275 640.347 4.49708C635.895 1.93747 630.916 0.435403 625.792 0.106776C620.668 -0.221852 615.538 0.631754 610.796 2.60172C606.054 4.57169 601.828 7.60535 598.444 11.4686C595.06 15.3319 592.608 19.9215 591.278 24.8832C589.947 29.845 589.774 35.0462 590.771 40.0856C591.768 45.125 593.909 49.8679 597.028 53.9482C600.148 58.0285 604.162 61.3371 608.762 63.6188C613.362 65.9005 618.425 67.0943 623.559 67.1079C624.268 67.1079 624.978 67.1079 625.68 67.0392C631.721 66.658 637.545 64.6467 642.535 61.2191C647.525 57.7915 651.494 53.0756 654.02 47.5722C656.546 42.0688 657.535 35.9836 656.883 29.9628C656.23 23.942 653.96 18.2105 650.313 13.3771L650.328 13.339Z" fill="url(#paint20_linear)"/>
</g>
<path opacity="0.2" d="M655.249 33.5349C655.25 41.5937 652.183 49.3501 646.671 55.2265C641.16 61.103 633.618 64.658 625.58 65.1686C624.916 65.2144 624.245 65.2373 623.573 65.2373C618.716 65.2345 613.925 64.1139 609.569 61.9624C605.214 59.8109 601.412 56.686 598.456 52.8294C595.5 48.9727 593.47 44.4875 592.524 39.7207C591.577 34.9539 591.738 30.033 592.996 25.3385C594.253 20.6441 596.572 16.3018 599.774 12.6475C602.976 8.99308 606.976 6.12449 611.463 4.26345C615.95 2.40241 620.804 1.59878 625.651 1.91469C630.498 2.2306 635.207 3.65759 639.415 6.08534C643.085 8.21785 646.294 11.06 648.855 14.4462C653.014 19.939 655.26 26.6438 655.249 33.5349Z" fill="#6C63FF"/>
<path opacity="0.05" d="M615.776 13.431C614.139 14.1373 612.56 14.9695 611.052 15.9201C610.045 16.4789 609.181 17.2628 608.526 18.2108C608.207 18.6862 608.031 19.2438 608.02 19.8167C608.009 20.3896 608.164 20.9534 608.465 21.4406C609.228 22.4943 610.755 22.6623 612.029 22.731C613.2 22.9799 614.416 22.9131 615.553 22.5374C616.69 22.1618 617.707 21.4908 618.5 20.593L621.224 18.1191C622.171 17.264 623.208 16.0805 622.796 14.8741C622.483 13.9502 621.446 13.4997 620.507 13.347C618.166 12.8859 615.736 13.3132 613.692 14.5457" fill="#F55F44"/>
<path opacity="0.05" d="M604.398 47.7143C605.317 47.7143 606.061 46.9691 606.061 46.0498C606.061 45.1305 605.317 44.3853 604.398 44.3853C603.479 44.3853 602.734 45.1305 602.734 46.0498C602.734 46.9691 603.479 47.7143 604.398 47.7143Z" fill="#F55F44"/>
<path opacity="0.05" d="M638.302 41.5982C641.678 41.5982 644.414 38.86 644.414 35.4822C644.414 32.1044 641.678 29.3662 638.302 29.3662C634.926 29.3662 632.189 32.1044 632.189 35.4822C632.189 38.86 634.926 41.5982 638.302 41.5982Z" fill="#F55F44"/>
<path opacity="0.05" d="M648.864 14.4386C648.84 16.0366 648.357 17.5942 647.474 18.926C646.591 20.2578 645.345 21.3079 643.883 21.9514C642.42 22.5949 640.804 22.8049 639.227 22.5562C637.649 22.3075 636.175 21.6108 634.982 20.5487C633.788 19.4866 632.924 18.104 632.493 16.565C632.062 15.0261 632.082 13.3957 632.549 11.8675C633.017 10.3394 633.914 8.9778 635.133 7.94467C636.351 6.91154 637.841 6.2503 639.424 6.03955C643.098 8.18327 646.307 11.0387 648.864 14.4386Z" fill="#F55F44"/>
<path opacity="0.05" d="M649.473 51.7916C646.748 55.6714 643.186 58.8882 639.05 61.2038C634.914 63.5194 630.311 64.8746 625.581 65.1689C625.542 64.7337 625.52 64.2908 625.52 63.848C625.521 61.0659 626.294 58.3387 627.753 55.9706C629.213 53.6025 631.301 51.6866 633.784 50.4364C636.268 49.1862 639.051 48.6508 641.821 48.8901C644.591 49.1294 647.24 50.1339 649.473 51.7916Z" fill="#F55F44"/>
<path opacity="0.25" d="M628.571 267.104C630.721 267.104 632.463 265.361 632.463 263.21C632.463 261.059 630.721 259.316 628.571 259.316C626.422 259.316 624.68 261.059 624.68 263.21C624.68 265.361 626.422 267.104 628.571 267.104Z" fill="#9B9EC6"/>
<path opacity="0.25" d="M109.667 369.42C111.817 369.42 113.559 367.676 113.559 365.525C113.559 363.375 111.817 361.631 109.667 361.631C107.518 361.631 105.775 363.375 105.775 365.525C105.775 367.676 107.518 369.42 109.667 369.42Z" fill="#9B9EC6"/>
<path opacity="0.25" d="M778.902 391.562C781.051 391.562 782.793 389.819 782.793 387.668C782.793 385.517 781.051 383.774 778.902 383.774C776.752 383.774 775.01 385.517 775.01 387.668C775.01 389.819 776.752 391.562 778.902 391.562Z" fill="#9B9EC6"/>
<path opacity="0.25" d="M297.327 207.044C299.477 207.044 301.219 205.3 301.219 203.149C301.219 200.999 299.477 199.255 297.327 199.255C295.178 199.255 293.436 200.999 293.436 203.149C293.436 205.3 295.178 207.044 297.327 207.044Z" fill="#9B9EC6"/>
<path opacity="0.25" d="M284.546 117.51C286.695 117.51 288.438 115.766 288.438 113.616C288.438 111.465 286.695 109.722 284.546 109.722C282.397 109.722 280.654 111.465 280.654 113.616C280.654 115.766 282.397 117.51 284.546 117.51Z" fill="#9B9EC6"/>
<path opacity="0.25" d="M174.501 294.905C176.651 294.905 178.393 293.161 178.393 291.011C178.393 288.86 176.651 287.117 174.501 287.117C172.352 287.117 170.609 288.86 170.609 291.011C170.609 293.161 172.352 294.905 174.501 294.905Z" fill="#9B9EC6"/>
<path opacity="0.25" d="M725.005 295.584H721.54V292.125H720.129V295.584H716.664V297.005H720.129V300.463H721.54V297.005H725.005V295.584Z" fill="#9B9EC6"/>
<path opacity="0.25" d="M783.001 175.707H779.536V172.249H778.125V175.707H774.66V177.128H778.125V180.586H779.536V177.128H783.001V175.707Z" fill="#9B9EC6"/>
<path opacity="0.25" d="M536.04 108.737H532.575V105.27H531.164V108.737H527.699V110.149H531.164V113.616H532.575V110.149H536.04V108.737Z" fill="#9B9EC6"/>
<path opacity="0.25" d="M687.208 276.121H683.744V272.663H682.332V276.121H678.875V277.542H682.332V281.001H683.744V277.542H687.208V276.121Z" fill="#9B9EC6"/>
<path opacity="0.25" d="M560.489 391.234H557.032V387.775H555.621V391.234H552.156V392.654H555.621V396.113H557.032V392.654H560.489V391.234Z" fill="#9B9EC6"/>
<path opacity="0.25" d="M205.909 153.778H202.445V150.319H201.033V153.778H197.568V155.191H201.033V158.657H202.445V155.191H205.909V153.778Z" fill="#9B9EC6"/>
<path opacity="0.25" d="M85.3406 198.828H81.8762V195.369H80.4645V198.828H77V200.24H80.4645V203.707H81.8762V200.24H85.3406V198.828Z" fill="#9B9EC6"/>
<path opacity="0.25" d="M253.702 340.633H250.238V337.167H248.826V340.633H245.369V342.046H248.826V345.513H250.238V342.046H253.702V340.633Z" fill="#9B9EC6"/>
<path d="M665.811 569.621C671.644 569.621 676.372 564.89 676.372 559.054C676.372 553.218 671.644 548.486 665.811 548.486C659.978 548.486 655.25 553.218 655.25 559.054C655.25 564.89 659.978 569.621 665.811 569.621Z" fill="url(#paint21_linear)"/>
<g opacity="0.4">
<path opacity="0.4" d="M282.243 265.959C280.954 264.252 279.338 262.819 277.489 261.744C275.369 260.509 272.993 259.78 270.545 259.613C268.098 259.446 265.645 259.845 263.377 260.78C261.109 261.715 259.086 263.161 257.467 265.004C255.848 266.848 254.675 269.04 254.039 271.411C253.404 273.782 253.323 276.267 253.803 278.675C254.283 281.082 255.311 283.346 256.807 285.291C258.303 287.236 260.227 288.81 262.429 289.891C264.632 290.972 267.054 291.53 269.507 291.522C269.843 291.522 270.186 291.522 270.514 291.522C273.39 291.338 276.162 290.379 278.537 288.746C280.911 287.113 282.8 284.868 284.003 282.248C285.205 279.628 285.676 276.731 285.367 273.864C285.057 270.998 283.977 268.269 282.243 265.966V265.959Z" fill="url(#paint22_linear)"/>
</g>
<path opacity="0.2" d="M284.585 275.579C284.585 279.418 283.124 283.112 280.498 285.91C277.873 288.709 274.281 290.402 270.453 290.644C270.14 290.644 269.819 290.644 269.499 290.644C267.186 290.642 264.905 290.107 262.831 289.082C260.758 288.057 258.947 286.569 257.54 284.732C256.133 282.895 255.167 280.759 254.717 278.489C254.266 276.219 254.343 273.876 254.942 271.641C255.541 269.406 256.645 267.338 258.17 265.598C259.695 263.858 261.599 262.492 263.735 261.605C265.872 260.719 268.183 260.335 270.491 260.485C272.799 260.635 275.042 261.314 277.046 262.469C278.792 263.485 280.32 264.837 281.54 266.447C283.529 269.075 284.599 272.284 284.585 275.579Z" fill="#6C63FF"/>
<path opacity="0.1" d="M265.782 266.005C264.989 266.339 264.224 266.734 263.493 267.188C263.014 267.45 262.601 267.818 262.287 268.265C262.142 268.493 262.064 268.758 262.064 269.028C262.064 269.299 262.142 269.564 262.287 269.792C262.509 270.01 262.775 270.177 263.067 270.282C263.36 270.388 263.671 270.429 263.981 270.403C264.534 270.516 265.107 270.482 265.643 270.304C266.179 270.125 266.658 269.809 267.033 269.387L268.331 268.211C268.781 267.799 269.277 267.242 269.094 266.684C268.992 266.473 268.837 266.292 268.644 266.159C268.452 266.025 268.228 265.943 267.995 265.921C266.88 265.703 265.724 265.907 264.752 266.493" fill="#F55F44"/>
<path opacity="0.1" d="M260.364 282.329C260.802 282.329 261.158 281.973 261.158 281.535C261.158 281.096 260.802 280.741 260.364 280.741C259.926 280.741 259.57 281.096 259.57 281.535C259.57 281.973 259.926 282.329 260.364 282.329Z" fill="#F55F44"/>
<path opacity="0.1" d="M276.511 279.42C278.121 279.42 279.426 278.114 279.426 276.503C279.426 274.892 278.121 273.586 276.511 273.586C274.901 273.586 273.596 274.892 273.596 276.503C273.596 278.114 274.901 279.42 276.511 279.42Z" fill="#F55F44"/>
<path opacity="0.1" d="M281.539 266.516C281.53 267.277 281.302 268.018 280.883 268.653C280.464 269.288 279.872 269.789 279.177 270.097C278.482 270.404 277.713 270.506 276.962 270.389C276.21 270.272 275.509 269.941 274.94 269.437C274.371 268.933 273.959 268.275 273.752 267.543C273.546 266.811 273.554 266.035 273.776 265.307C273.998 264.58 274.424 263.931 275.003 263.439C275.583 262.947 276.291 262.631 277.045 262.53C278.792 263.548 280.32 264.903 281.539 266.516Z" fill="#F55F44"/>
<path opacity="0.1" d="M281.837 284.276C280.54 286.125 278.843 287.658 276.874 288.761C274.904 289.865 272.712 290.511 270.459 290.652C270.459 290.446 270.459 290.232 270.459 290.018C270.455 288.687 270.822 287.381 271.519 286.247C272.216 285.113 273.215 284.196 274.405 283.6C275.594 283.003 276.926 282.75 278.251 282.87C279.576 282.989 280.842 283.476 281.905 284.276H281.837Z" fill="#F55F44"/>
<g opacity="0.1">
<path opacity="0.1" d="M453.655 154.275H375.057V157.329H453.655V154.275Z" fill="#2B2949"/>
</g>
<defs>
<linearGradient id="paint0_linear" x1="415.157" y1="529.94" x2="415.157" y2="36.6883" gradientUnits="userSpaceOnUse">
<stop stop-color="#5C5796" stop-opacity="0.25"/>
<stop offset="0.54" stop-color="#5C5796" stop-opacity="0.12"/>
<stop offset="1" stop-color="#5C5796" stop-opacity="0.1"/>
</linearGradient>
<linearGradient id="paint1_linear" x1="340.955" y1="471.261" x2="340.955" y2="519.082" gradientUnits="userSpaceOnUse">
<stop stop-color="#E0E0E0"/>
<stop offset="0.31" stop-color="#FCCC63"/>
<stop offset="0.77" stop-color="#F55F44"/>
</linearGradient>
<linearGradient id="paint2_linear" x1="7798.98" y1="29981.6" x2="7798.98" y2="32976.2" gradientUnits="userSpaceOnUse">
<stop stop-color="#E0E0E0"/>
<stop offset="0.31" stop-color="#FCCC63"/>
<stop offset="0.77" stop-color="#F55F44"/>
</linearGradient>
<linearGradient id="paint3_linear" x1="8661.7" y1="29981.6" x2="8661.7" y2="32976.2" gradientUnits="userSpaceOnUse">
<stop stop-color="#E0E0E0"/>
<stop offset="0.31" stop-color="#FCCC63"/>
<stop offset="0.77" stop-color="#F55F44"/>
</linearGradient>
<linearGradient id="paint4_linear" x1="10054.2" y1="29981.6" x2="10054.2" y2="32976.2" gradientUnits="userSpaceOnUse">
<stop stop-color="#E0E0E0"/>
<stop offset="0.31" stop-color="#FCCC63"/>
<stop offset="0.77" stop-color="#F55F44"/>
</linearGradient>
<linearGradient id="paint5_linear" x1="272216" y1="119821" x2="272216" y2="93050.9" gradientUnits="userSpaceOnUse">
<stop stop-color="#5C5796" stop-opacity="0.25"/>
<stop offset="0.54" stop-color="#5C5796" stop-opacity="0.12"/>
<stop offset="1" stop-color="#5C5796" stop-opacity="0.1"/>
</linearGradient>
<linearGradient id="paint6_linear" x1="285.104" y1="447.835" x2="285.104" y2="559.054" gradientUnits="userSpaceOnUse">
<stop stop-color="#F2F2F2"/>
<stop offset="0.31" stop-color="#E6E6E6"/>
<stop offset="0.77" stop-color="#CCCCCC"/>
</linearGradient>
<linearGradient id="paint7_linear" x1="33372.7" y1="74376.4" x2="33372.7" y2="93801.2" gradientUnits="userSpaceOnUse">
<stop stop-color="#F2F2F2"/>
<stop offset="0.31" stop-color="#E6E6E6"/>
<stop offset="0.77" stop-color="#CCCCCC"/>
</linearGradient>
<linearGradient id="paint8_linear" x1="73067.4" y1="74376.4" x2="73067.4" y2="93801.2" gradientUnits="userSpaceOnUse">
<stop stop-color="#F2F2F2"/>
<stop offset="0.31" stop-color="#E6E6E6"/>
<stop offset="0.77" stop-color="#CCCCCC"/>
</linearGradient>
<linearGradient id="paint9_linear" x1="66324.6" y1="69512.7" x2="66324.6" y2="85712.8" gradientUnits="userSpaceOnUse">
<stop stop-color="#F2F2F2"/>
<stop offset="0.31" stop-color="#E6E6E6"/>
<stop offset="0.77" stop-color="#CCCCCC"/>
</linearGradient>
<linearGradient id="paint10_linear" x1="64267.3" y1="70942.3" x2="64267.3" y2="84220.2" gradientUnits="userSpaceOnUse">
<stop stop-color="#F2F2F2"/>
<stop offset="0.31" stop-color="#E6E6E6"/>
<stop offset="0.77" stop-color="#CCCCCC"/>
</linearGradient>
<linearGradient id="paint11_linear" x1="74348.8" y1="46096.6" x2="74348.8" y2="50907.8" gradientUnits="userSpaceOnUse">
<stop stop-color="#EEEEF7"/>
<stop offset="0.31" stop-color="#E6E6E6"/>
<stop offset="0.77" stop-color="#CCCCCC"/>
</linearGradient>
<linearGradient id="paint12_linear" x1="89731.1" y1="53406.1" x2="89731.1" y2="60145.6" gradientUnits="userSpaceOnUse">
<stop stop-color="#F2F2F2"/>
<stop offset="0.31" stop-color="#E6E6E6"/>
<stop offset="0.77" stop-color="#CCCCCC"/>
</linearGradient>
<linearGradient id="paint13_linear" x1="40031.3" y1="53436.9" x2="40031.3" y2="60180.4" gradientUnits="userSpaceOnUse">
<stop stop-color="#F2F2F2"/>
<stop offset="0.31" stop-color="#E6E6E6"/>
<stop offset="0.77" stop-color="#CCCCCC"/>
</linearGradient>
<linearGradient id="paint14_linear" x1="15094.5" y1="13030.9" x2="15094.5" y2="12485.8" gradientUnits="userSpaceOnUse">
<stop stop-color="#5C5796" stop-opacity="0.25"/>
<stop offset="0.54" stop-color="#5C5796" stop-opacity="0.12"/>
<stop offset="1" stop-color="#5C5796" stop-opacity="0.1"/>
</linearGradient>
<linearGradient id="paint15_linear" x1="14032.7" y1="11622.2" x2="14032.7" y2="12090.3" gradientUnits="userSpaceOnUse">
<stop stop-color="#F2F2F2"/>
<stop offset="0.31" stop-color="#E6E6E6"/>
<stop offset="0.77" stop-color="#CCCCCC"/>
</linearGradient>
<linearGradient id="paint16_linear" x1="17812.7" y1="17162.9" x2="17812.7" y2="16514.8" gradientUnits="userSpaceOnUse">
<stop stop-color="#5C5796" stop-opacity="0.25"/>
<stop offset="0.54" stop-color="#5C5796" stop-opacity="0.12"/>
<stop offset="1" stop-color="#808080" stop-opacity="0.1"/>
<stop offset="1" stop-color="#5C5796" stop-opacity="0.1"/>
</linearGradient>
<linearGradient id="paint17_linear" x1="665.811" y1="548.486" x2="665.811" y2="569.621" gradientUnits="userSpaceOnUse">
<stop stop-color="#F2F2F2"/>
<stop offset="0.31" stop-color="#E0E0E0"/>
<stop offset="0.77" stop-color="#B3B3B3"/>
</linearGradient>
<linearGradient id="paint18_linear" x1="3798.28" y1="16745.8" x2="3798.28" y2="15962.9" gradientUnits="userSpaceOnUse">
<stop stop-color="#5C5796" stop-opacity="0.25"/>
<stop offset="0.54" stop-color="#5C5796" stop-opacity="0.12"/>
<stop offset="1" stop-color="#5C5796" stop-opacity="0.1"/>
</linearGradient>
<linearGradient id="paint19_linear" x1="3636.01" y1="15284.2" x2="3636.01" y2="15998.4" gradientUnits="userSpaceOnUse">
<stop stop-color="#F2F2F2"/>
<stop offset="0.31" stop-color="#E6E6E6"/>
<stop offset="0.77" stop-color="#CCCCCC"/>
</linearGradient>
<linearGradient id="paint20_linear" x1="57739.3" y1="10247.6" x2="57739.3" y2="4356.23" gradientUnits="userSpaceOnUse">
<stop stop-color="#5C5796" stop-opacity="0.25"/>
<stop offset="0.54" stop-color="#5C5796" stop-opacity="0.12"/>
<stop offset="1" stop-color="#5C5796" stop-opacity="0.1"/>
</linearGradient>
<linearGradient id="paint21_linear" x1="16953.5" y1="15730.6" x2="16953.5" y2="16315.6" gradientUnits="userSpaceOnUse">
<stop stop-color="#F2F2F2"/>
<stop offset="0.31" stop-color="#E6E6E6"/>
<stop offset="0.77" stop-color="#CCCCCC"/>
</linearGradient>
<linearGradient id="paint22_linear" x1="12709.3" y1="14533.1" x2="12709.3" y2="13196.4" gradientUnits="userSpaceOnUse">
<stop stop-color="#5C5796" stop-opacity="0.25"/>
<stop offset="0.54" stop-color="#5C5796" stop-opacity="0.12"/>
<stop offset="1" stop-color="#5C5796" stop-opacity="0.1"/>
</linearGradient>
</defs>
</svg>
