<svg width="40" height="24" viewBox="0 0 40 24" fill="none" xmlns="http://www.w3.org/2000/svg">
<path d="M37.4432 11.2217C37.3177 11.1953 37.1991 11.1705 37.0937 11.1431C35.8984 10.8322 35.3529 10.6619 34.9495 9.8831L33.4216 6.7898C32.9306 5.84187 31.6627 5.07062 30.5952 5.07062H27.8751V1.49864C27.8751 0.857284 27.3532 0.335449 26.7117 0.335449L7.76603 0.354475C7.1418 0.354475 6.67108 0.850538 6.67108 1.50841V2.56419H1.81769C0.815442 2.56427 0 3.37963 0 4.38196C0 5.38429 0.815442 6.19965 1.81769 6.19965H6.67099V7.94183H3.49337C2.49112 7.94183 1.67568 8.75728 1.67568 9.75952C1.67568 10.7618 2.49112 11.5772 3.49337 11.5772H6.67099V13.3194H5.16905C4.16681 13.3194 3.35136 14.1348 3.35136 15.1371C3.35136 16.1393 4.16681 16.9548 5.16905 16.9548H6.67099V18.777C6.67099 19.4183 7.19282 19.9401 7.83418 19.9401H9.80494C10.1119 22.0436 11.9274 23.6644 14.115 23.6644C16.3027 23.6644 18.1183 22.0436 18.4253 19.9401H26.4011C26.4425 19.9401 26.485 19.9374 26.5273 19.9346C26.8319 22.0408 28.6486 23.6644 30.8381 23.6644C33.0258 23.6644 34.8414 22.0436 35.1484 19.9401H37.9792C39.0935 19.9401 40.0001 19.0336 40.0001 17.9194V14.4905C40 11.7581 38.4613 11.4353 37.4432 11.2217ZM30.8381 17.725C31.7115 17.725 32.4222 18.4353 32.4222 19.3086C32.4222 20.1818 31.7115 20.8921 30.8381 20.8921C29.9649 20.8921 29.2546 20.1818 29.2546 19.3086C29.2546 18.4353 29.9649 17.725 30.8381 17.725ZM27.8751 10.9754V6.75763H29.9538C30.7527 6.75763 31.7383 7.35713 32.1041 8.063L33.4637 10.8156C33.4925 10.8713 33.5224 10.9244 33.5534 10.9753H27.8751V10.9754ZM15.6991 19.3085C15.6991 20.1816 14.9884 20.892 14.115 20.892C13.2418 20.892 12.5316 20.1817 12.5316 19.3085C12.5316 18.4353 13.2418 17.7249 14.115 17.7249C14.9884 17.725 15.6991 18.4353 15.6991 19.3085Z" fill="#90EB71"/>
</svg>
