<svg width="23" height="20" viewBox="0 0 23 20" fill="none" xmlns="http://www.w3.org/2000/svg">
<path fill-rule="evenodd" clip-rule="evenodd" d="M10.6148 0.422262C10.4842 0.28987 10.3304 0.18497 10.162 0.113572C9.99366 0.0421728 9.8141 0.00567875 9.63364 0.00617728C9.45317 0.00667582 9.27533 0.0441572 9.11032 0.116477C8.9453 0.188797 8.79635 0.294533 8.67199 0.427629L0.639083 9.00285C0.514396 9.13561 0.416689 9.29319 0.351555 9.46655C0.286422 9.63992 0.255143 9.82566 0.259512 10.0132C0.26388 10.2006 0.30381 10.3862 0.377013 10.5592C0.450216 10.7322 0.555254 10.8892 0.686111 11.0212L9.11756 19.551C9.38143 19.8179 9.73435 19.9673 10.0987 19.9663C10.463 19.9653 10.809 19.814 11.0604 19.5456C11.3118 19.2772 11.448 18.9138 11.4392 18.5353C11.4304 18.1568 11.2772 17.7942 11.0133 17.5272L3.57404 10.004L10.6618 2.44065C10.7865 2.30789 10.8842 2.15031 10.9493 1.97695C11.0145 1.80358 11.0458 1.61783 11.0414 1.43034C11.037 1.24285 10.9971 1.0573 10.9239 0.884316C10.8507 0.711333 10.7456 0.554317 10.6148 0.422262Z" fill="#3D4C61"/>
<path fill-rule="evenodd" clip-rule="evenodd" d="M22.2439 9.96399C22.2353 9.59435 22.0823 9.24023 21.8185 8.97953C21.5547 8.71883 21.2018 8.57291 20.8373 8.57387L2.97339 8.62087C2.60894 8.62183 2.26283 8.76959 2.01121 9.03165C1.75959 9.2937 1.62306 9.64858 1.63165 10.0182C1.64025 10.3879 1.79327 10.742 2.05705 11.0027C2.32083 11.2634 2.67377 11.4093 3.03822 11.4084L20.9022 11.3613C21.2666 11.3604 21.6127 11.2126 21.8643 10.9506C22.116 10.6885 22.2525 10.3336 22.2439 9.96399Z" fill="#3D4C61"/>
</svg>
