<svg width="195" height="195" viewBox="0 0 195 195" fill="none" xmlns="http://www.w3.org/2000/svg">
<path d="M174.688 45.2762H162.779V39.8125C162.767 28.5994 153.68 19.5127 142.467 19.5H20.3125C9.09937 19.5127 0.0126953 28.5994 0 39.8125V129.748C0.0126953 140.961 9.09937 150.047 20.3125 150.06H30.072V155.524C30.0847 166.737 39.1714 175.824 50.3845 175.836H174.688C185.901 175.824 194.987 166.737 195 155.524V65.5887C194.987 54.3756 185.901 45.2889 174.688 45.2762ZM20.3125 27.625H142.467C149.195 27.6329 154.648 33.084 154.654 39.8125V107.331L134.935 79.3917C131.609 74.623 126.169 71.7729 120.355 71.7555H120.188C114.432 71.7253 109.015 74.4723 105.639 79.1362L81.8387 111.631C78.7046 115.929 72.7362 116.981 68.3214 114.013L50.5289 102.105C44.5002 98.0602 36.6323 98.03 30.5735 102.029C30.5449 102.048 30.5148 102.07 30.4878 102.088L8.125 117.646V39.8125C8.13293 33.084 13.584 27.6329 20.3125 27.625ZM8.125 129.748V127.543L35.0819 108.789C38.4081 106.617 42.7102 106.644 46.0094 108.858L63.8035 120.766C71.8333 126.164 82.6925 124.251 88.3927 116.432L112.195 83.9366C114.05 81.3738 117.027 79.863 120.191 79.8789H120.283C123.479 79.8884 126.469 81.4563 128.297 84.0779L154.656 121.421V125.685V125.728L154.696 129.619C154.73 132.874 153.461 136.006 151.173 138.32C148.883 140.634 145.763 141.935 142.508 141.935H20.3125C13.584 141.927 8.13293 136.475 8.125 129.748ZM186.875 155.524C186.867 162.251 181.416 167.703 174.688 167.711H50.3845C43.656 167.703 38.205 162.251 38.197 155.524V150.06H142.51C147.934 150.06 153.134 147.891 156.949 144.035C160.764 140.18 162.879 134.958 162.822 129.533L162.781 125.665V53.4012H174.688C181.416 53.4076 186.867 58.8602 186.875 65.5887V155.524Z" fill="white"/>
<path d="M64.5651 85.9425C76.4733 85.9425 86.1249 76.2909 86.1249 64.3843C86.1249 52.4761 76.4733 42.8245 64.5667 42.8245C52.6584 42.8245 43.0068 52.4761 43.0068 64.3827C43.0195 76.2845 52.6648 85.9282 64.5651 85.9425ZM64.5651 50.9495C71.9855 50.9495 77.9999 56.9639 77.9999 64.3827C77.9999 71.8031 71.9855 77.8175 64.5667 77.8175C57.1462 77.8175 51.1318 71.8031 51.1318 64.3827C51.1398 56.967 57.1494 50.9574 64.5651 50.9495Z" fill="white"/>
</svg>
