<svg width="33" height="33" viewBox="0 0 33 33" fill="none" xmlns="http://www.w3.org/2000/svg">
<g clip-path="url(#clip0)">
<path d="M10.6992 21.3342H28.1663C28.5988 21.3342 28.9782 21.0482 29.0953 20.6328L32.9627 7.0974C33.0458 6.8056 32.9889 6.49215 32.8059 6.24969C32.6226 6.008 32.3376 5.86524 32.0335 5.86524H8.46728L7.77617 2.75538C7.67798 2.31252 7.28522 1.99805 6.83203 1.99805H0.966797C0.432541 1.99805 0 2.4306 0 2.96485C0 3.49936 0.432541 3.93165 0.966797 3.93165H6.05608L9.54737 19.6421C8.52015 20.0887 7.79883 21.1112 7.79883 22.301C7.79883 23.9003 9.09998 25.2014 10.6992 25.2014H28.1663C28.7008 25.2014 29.1331 24.7691 29.1331 24.2346C29.1331 23.7004 28.7008 23.2678 28.1663 23.2678H10.6992C10.1667 23.2678 9.73242 22.8345 9.73242 22.301C9.73242 21.7675 10.1667 21.3342 10.6992 21.3342Z" fill="#2B2949"/>
<path d="M9.7323 28.1018C9.7323 29.7013 11.0334 31.0022 12.6329 31.0022C14.2322 31.0022 15.5333 29.7013 15.5333 28.1018C15.5333 26.5026 14.2322 25.2014 12.6329 25.2014C11.0334 25.2014 9.7323 26.5026 9.7323 28.1018Z" fill="#2B2949"/>
<path d="M23.3323 28.1018C23.3323 29.7013 24.6334 31.0022 26.2327 31.0022C27.8322 31.0022 29.1331 29.7013 29.1331 28.1018C29.1331 26.5026 27.8322 25.2014 26.2327 25.2014C24.6334 25.2014 23.3323 26.5026 23.3323 28.1018Z" fill="#2B2949"/>
</g>
<defs>
<clipPath id="clip0">
<rect width="33" height="33" fill="white"/>
</clipPath>
</defs>
</svg>
