<svg width="355" height="752" viewBox="0 0 355 752" fill="none" xmlns="http://www.w3.org/2000/svg">
<path d="M0 22.7543C0 10.1874 10.1874 0 22.7543 0H332.246C344.813 0 355 10.1874 355 22.7543V729.246C355 741.812 344.813 752 332.246 752H22.7543C10.1875 752 0 741.812 0 729.246V22.7543Z" fill="url(#paint0_linear)"/>
<mask id="mask0" mask-type="alpha" maskUnits="userSpaceOnUse" x="0" y="0" width="355" height="740">
<path d="M0 22.7543C0 10.1874 10.1874 0 22.7543 0H332.246C344.813 0 355 10.1874 355 22.7543V717.246C355 729.813 344.813 740 332.246 740H22.7543C10.1875 740 0 729.813 0 717.246V22.7543Z" fill="url(#paint1_linear)"/>
</mask>
<g mask="url(#mask0)">
<path d="M336.735 720C261.072 720 199.735 711.531 199.735 701.084C199.735 690.637 261.072 682.167 336.735 682.167C412.398 682.167 473.735 690.637 473.735 701.084C473.735 711.531 412.398 720 336.735 720Z" fill="#3F3D56"/>
<path d="M309.662 72.9081L322.471 65.3816C322.471 65.3816 360.9 69.1449 356.242 77.9258C351.584 86.7066 324.8 79.1802 324.8 79.1802L309.662 84.1978V72.9081Z" fill="#FBBEBE"/>
<path d="M281.589 638.65L280.424 662.484L255.97 659.974L258.299 636.141L281.589 638.65Z" fill="#FBBEBE"/>
<path d="M375.915 611.053L374.75 634.886L350.296 632.378L352.625 608.544L375.915 611.053Z" fill="#FBBEBE"/>
<path d="M264.703 314.384L353.207 330.691L359.029 503.8L382.32 614.189L345.055 631.751L308.955 522.617L296.145 426.027L286.829 522.617L285.664 644.295L228.603 640.532L242.245 402.257C244 371.606 251.648 341.683 264.703 314.384V314.384Z" fill="#2F2E41"/>
<path d="M278.095 653.703C278.095 653.703 286.247 643.667 286.247 647.431C286.247 651.194 290.905 687.572 290.905 687.572C290.905 687.572 259.463 697.607 259.463 703.879C259.463 710.151 214.046 720.187 215.211 707.643C216.375 695.099 255.969 647.431 255.969 647.431C255.969 647.431 272.273 644.922 278.095 653.703Z" fill="#2F2E41"/>
<path d="M371.004 626.257C371.004 626.257 373.486 613.193 375.213 616.465C376.94 619.736 397.679 648.881 397.679 648.881C397.679 648.881 374.95 674.344 377.828 679.797C380.705 685.249 345.827 718.152 341.084 706.627C336.341 695.102 348.892 632.584 348.892 632.584C348.892 632.584 361.914 621.723 371.004 626.257Z" fill="#2F2E41"/>
<path d="M372.79 176.1L308.318 182.74L286.828 119.657L348.548 103.642L372.79 176.1Z" fill="#2F2E41"/>
<path d="M320.018 163.226C302.01 163.226 287.411 147.5 287.411 128.102C287.411 108.704 302.01 92.9784 320.018 92.9784C338.026 92.9784 352.624 108.704 352.624 128.102C352.624 147.5 338.026 163.226 320.018 163.226Z" fill="#FBBEBE"/>
<path d="M338.65 149.427C338.65 149.427 338.65 173.261 356.118 183.296C373.586 193.332 314.195 204.622 314.195 204.622L308.373 183.296C308.373 183.296 325.84 174.516 310.702 154.445L338.65 149.427Z" fill="#FBBEBE"/>
<path d="M310.702 177.025C310.702 177.025 332.03 191.255 349.897 178.495L357.283 177.025L379.409 182.042L389.889 224.692L350.296 331.318C350.296 331.318 281.589 343.862 267.615 316.265L275.766 203.367L297.892 174.516L310.702 177.025Z" fill="#FFD967"/>
<path d="M300.221 178.279C300.221 178.279 261.292 123.576 261.5 113C261.708 102.424 315.36 86.7063 315.36 86.7063V69.1447C315.36 69.1447 240 85.5 232.058 100.735C224.116 115.97 278.095 208.385 278.095 208.385L300.221 178.279Z" fill="#FFD967"/>
<path d="M345.049 94.2025C345.049 94.2025 360.017 99.5768 360.777 120.801C360.854 124.196 360.505 127.586 359.738 130.88C358.895 134.727 358.354 143.006 364.885 153.825C369.259 160.967 373.254 168.37 376.852 175.999L376.899 176.1L360.46 178.313L356.965 148.962C355.27 134.731 351.64 120.847 346.191 107.756L346.077 107.483C346.077 107.483 338.885 121.87 324.501 121.87L329.638 116.337C329.638 116.337 307.035 126.297 298.816 126.297C298.816 126.297 292.652 130.724 298.816 137.364C304.98 144.005 317.309 159.499 310.118 171.673C302.926 183.847 309.09 187.167 309.09 187.167L297.789 180.526L292.652 177.206V181.633L265.939 178.313C265.939 178.313 258.747 177.206 274.158 158.392C274.158 158.392 278.228 151.086 276.447 144.784C274.984 139.995 274.6 134.9 275.326 129.919C278.778 109.172 292.324 67.9238 345.049 94.2025Z" fill="#2F2E41"/>
<path d="M72.8028 316.567C70.9032 317.758 68.3996 317.187 67.2109 315.291C66.0222 313.395 66.5986 310.893 68.4982 309.702C70.3979 308.511 72.9015 309.082 74.0902 310.978C75.2788 312.874 74.7025 315.376 72.8028 316.567Z" fill="#D0CDE1"/>
<path d="M179.407 27.1403C177.507 28.3314 175.018 27.7834 173.848 25.9164C172.677 24.0494 173.268 21.5704 175.168 20.3794C177.068 19.1883 179.556 19.7363 180.727 21.6033C181.898 23.4702 181.307 25.9493 179.407 27.1403Z" fill="#D0CDE1"/>
<path d="M36.7982 233.964C36.792 233.294 36.2449 232.756 35.5761 232.762C34.9074 232.768 34.3703 233.316 34.3765 233.986C34.3827 234.656 34.9298 235.195 35.5986 235.188C36.2673 235.182 36.8044 234.634 36.7982 233.964Z" fill="#D0CDE1"/>
<path d="M80.7311 73.9922C80.7249 73.3221 80.1778 72.7839 79.509 72.7901C78.8403 72.7963 78.3031 73.3445 78.3093 74.0146C78.3155 74.6847 78.8627 75.2229 79.5314 75.2167C80.2002 75.2105 80.7373 74.6623 80.7311 73.9922Z" fill="#D0CDE1"/>
<path d="M141.493 32.3203C141.486 31.6502 140.939 31.112 140.271 31.1182C139.602 31.1244 139.065 31.6726 139.071 32.3427C139.077 33.0128 139.624 33.551 140.293 33.5448C140.962 33.5387 141.499 32.9904 141.493 32.3203Z" fill="#D0CDE1"/>
<path d="M79.7744 36.8341C79.7682 36.164 79.2211 35.6258 78.5523 35.632C77.8836 35.6382 77.3465 36.1864 77.3527 36.8565C77.3589 37.5266 77.906 38.0648 78.5748 38.0586C79.2435 38.0524 79.7806 37.5042 79.7744 36.8341Z" fill="#D0CDE1"/>
<path d="M6.10993 51.0492C7.33631 50.172 7.62082 48.4687 6.74541 47.2448C5.87 46.0209 4.16617 45.7399 2.93979 46.617C1.71342 47.4942 1.4289 49.1975 2.30431 50.4214C3.17972 51.6453 4.88356 51.9264 6.10993 51.0492Z" fill="#D0CDE1"/>
<path d="M32.4248 79.4966C32.9698 79.1068 33.0962 78.3498 32.7072 77.8058C32.3181 77.2619 31.5609 77.1369 31.0158 77.5268C30.4708 77.9166 30.3443 78.6736 30.7334 79.2176C31.1225 79.7615 31.8797 79.8865 32.4248 79.4966Z" fill="#D0CDE1"/>
<path d="M17.2449 167.772C17.7899 167.382 17.9164 166.625 17.5273 166.081C17.1382 165.537 16.381 165.412 15.8359 165.802C15.2909 166.192 15.1644 166.949 15.5535 167.493C15.9425 168.037 16.6998 168.162 17.2449 167.772Z" fill="#D0CDE1"/>
<path d="M173.441 111.881C173.986 111.491 174.113 110.734 173.723 110.19C173.334 109.646 172.577 109.521 172.032 109.911C171.487 110.301 171.361 111.058 171.75 111.602C172.139 112.146 172.896 112.271 173.441 111.881Z" fill="#D0CDE1"/>
<path d="M255.296 18.3298C255.892 18.6369 256.623 18.404 256.93 17.8095C257.236 17.2151 257.002 16.4843 256.406 16.1772C255.811 15.8701 255.079 16.1031 254.773 16.6975C254.466 17.292 254.701 18.0228 255.296 18.3298Z" fill="#D0CDE1"/>
<path d="M169.821 45.1071C170.417 45.4141 171.148 45.1812 171.455 44.5868C171.761 43.9923 171.527 43.2615 170.931 42.9545C170.336 42.6474 169.604 42.8803 169.298 43.4747C168.991 44.0692 169.226 44.8 169.821 45.1071Z" fill="#D0CDE1"/>
<path d="M290.834 158.585C291.429 158.892 292.161 158.659 292.467 158.064C292.773 157.47 292.539 156.739 291.943 156.432C291.348 156.125 290.616 156.358 290.31 156.952C290.004 157.547 290.238 158.278 290.834 158.585Z" fill="#D0CDE1"/>
<path d="M299.353 231.769C299.949 232.076 300.68 231.843 300.987 231.248C301.293 230.654 301.059 229.923 300.463 229.616C299.868 229.309 299.136 229.542 298.83 230.136C298.523 230.731 298.758 231.462 299.353 231.769Z" fill="#D0CDE1"/>
<path d="M324.148 175.07C324.744 175.377 325.475 175.144 325.782 174.55C326.088 173.955 325.854 173.224 325.258 172.917C324.662 172.61 323.931 172.843 323.625 173.438C323.318 174.032 323.553 174.763 324.148 175.07Z" fill="#D0CDE1"/>
<path d="M308.496 113.287C308.587 113.951 309.198 114.416 309.86 114.326C310.523 114.235 310.987 113.624 310.896 112.96C310.805 112.296 310.195 111.831 309.532 111.921C308.87 112.012 308.406 112.623 308.496 113.287Z" fill="#D0CDE1"/>
<path d="M237.492 58.6851C237.583 59.3491 238.194 59.814 238.856 59.7236C239.519 59.6332 239.983 59.0216 239.892 58.3576C239.801 57.6937 239.191 57.2287 238.528 57.3191C237.865 57.4096 237.402 58.0211 237.492 58.6851Z" fill="#D0CDE1"/>
<path d="M214.076 222.919C214.167 223.583 214.777 224.048 215.44 223.957C216.103 223.867 216.566 223.255 216.476 222.592C216.385 221.928 215.774 221.463 215.112 221.553C214.449 221.643 213.985 222.255 214.076 222.919Z" fill="#D0CDE1"/>
<path d="M298.149 46.4271C298.24 47.091 298.85 47.556 299.513 47.4656C300.176 47.3751 300.639 46.7635 300.549 46.0996C300.458 45.4356 299.848 44.9707 299.185 45.0611C298.522 45.1515 298.059 45.7631 298.149 46.4271Z" fill="#D0CDE1"/>
</g>
<defs>
<linearGradient id="paint0_linear" x1="464.643" y1="636.067" x2="-58.5625" y2="403.288" gradientUnits="userSpaceOnUse">
<stop stop-color="#C1F0FF"/>
<stop offset="0.162552" stop-color="#BBE8FB"/>
<stop offset="0.215265" stop-color="#ABD4F2"/>
<stop offset="0.981573" stop-color="#030094"/>
</linearGradient>
<linearGradient id="paint1_linear" x1="464.643" y1="625.917" x2="-55.751" y2="390.634" gradientUnits="userSpaceOnUse">
<stop stop-color="#C1F0FF"/>
<stop offset="0.162552" stop-color="#BBE8FB"/>
<stop offset="0.215265" stop-color="#ABD4F2"/>
<stop offset="0.981573" stop-color="#030094"/>
</linearGradient>
</defs>
</svg>
