<svg width="985" height="1200" viewBox="0 0 985 1200" fill="none" xmlns="http://www.w3.org/2000/svg">
<rect x="20" width="960" height="1200" rx="30" fill="url(#paint0_linear)"/>
<path d="M670.254 228.003C665.86 228.242 662.491 231.99 662.729 236.375C662.967 240.76 666.722 244.122 671.116 243.883C675.51 243.644 678.88 239.896 678.641 235.511C678.403 231.126 674.648 227.764 670.254 228.003Z" fill="#D0CDE1"/>
<path d="M650.027 116.729C648.074 116.835 646.577 118.501 646.683 120.45C646.789 122.399 648.458 123.893 650.41 123.787C652.363 123.681 653.861 122.015 653.755 120.066C653.649 118.117 651.98 116.623 650.027 116.729Z" fill="#D0CDE1"/>
<path d="M846.967 102.498C845.014 102.604 843.517 104.27 843.623 106.219C843.729 108.168 845.397 109.662 847.35 109.556C849.303 109.45 850.801 107.784 850.695 105.835C850.589 103.886 848.92 102.392 846.967 102.498Z" fill="#D0CDE1"/>
<path d="M200.254 230.003C195.86 230.242 192.491 233.99 192.729 238.375C192.967 242.76 196.722 246.122 201.117 245.883C205.511 245.644 208.88 241.896 208.642 237.511C208.403 233.126 204.648 229.764 200.254 230.003Z" fill="#D0CDE1"/>
<path d="M180.027 118.729C178.074 118.835 176.577 120.501 176.683 122.45C176.789 124.399 178.458 125.893 180.41 125.787C182.363 125.681 183.861 124.015 183.755 122.066C183.649 120.117 181.98 118.623 180.027 118.729Z" fill="#D0CDE1"/>
<path d="M376.967 104.498C375.014 104.604 373.517 106.27 373.623 108.219C373.729 110.168 375.397 111.662 377.35 111.556C379.303 111.45 380.801 109.784 380.695 107.835C380.589 105.886 378.92 104.392 376.967 104.498Z" fill="#D0CDE1"/>
<path d="M362.266 237.628C359.547 234.168 354.544 233.562 351.091 236.275C347.637 238.988 347.042 243.992 349.76 247.453C352.478 250.913 357.482 251.519 360.935 248.806C364.388 246.093 364.984 241.089 362.266 237.628Z" fill="#D0CDE1"/>
<path d="M441.751 157.173C440.543 155.635 438.319 155.366 436.784 156.571C435.25 157.777 434.985 160.001 436.193 161.539C437.401 163.077 439.625 163.346 441.16 162.141C442.694 160.935 442.959 158.711 441.751 157.173Z" fill="#D0CDE1"/>
<path d="M701.113 189.843C699.905 188.305 697.681 188.035 696.147 189.241C694.612 190.447 694.347 192.671 695.555 194.209C696.763 195.747 698.987 196.016 700.522 194.811C702.057 193.605 702.322 191.381 701.113 189.843Z" fill="#D0CDE1"/>
<path d="M566.489 310.236C565.281 308.698 563.057 308.428 561.523 309.634C559.988 310.84 559.723 313.064 560.931 314.602C562.139 316.14 564.363 316.409 565.898 315.203C567.433 313.998 567.697 311.774 566.489 310.236Z" fill="#D0CDE1"/>
<path d="M579.476 315.5C521.902 313.242 466.993 318.856 415.164 295.839C363.336 272.823 312.055 247.333 256.116 235.136C220.132 227.293 178.782 226.187 149.076 248.115C120.505 269.18 110.494 305.652 104.767 339.453C100.454 364.88 97.6197 391.621 107.055 415.456C113.613 431.987 125.648 445.884 133.814 461.714C162.211 516.805 139.444 584.748 105.762 638.535C90.0059 663.773 71.7889 687.842 59.4203 714.699C47.0517 741.556 42.2216 811.445 51.7496 838.842C61.2041 866.005 83.3217 898.21 109.124 912.556C161.538 941.698 223.962 950.045 284.919 954.767C419.855 965.218 537.04 957.541 672.714 953.008C722.926 951.326 765.506 947.952 815.086 939.183C842.609 934.317 875.022 923.367 895.385 904.704C921.246 881.013 960.505 838.333 935.285 768.306C909.947 709.031 829.977 706.109 811.492 652.638C801.315 623.208 813.365 590.415 829.929 563.126C865.466 504.563 923.845 453.187 928.551 386.26C931.786 340.29 905.514 294.247 863.646 272.499C819.751 249.698 758.021 252.567 724.253 290.308C689.51 329.2 630.311 317.497 579.476 315.5Z" fill="#DDF7FF"/>
<path d="M96.2727 919.071C97.8635 920.069 99.96 919.59 100.955 918.003C101.951 916.415 101.468 914.32 99.8774 913.322C98.2866 912.325 96.1901 912.803 95.1947 914.391C94.1993 915.978 94.682 918.074 96.2727 919.071Z" fill="#D0CDE1"/>
<path d="M22.7126 368.708C24.2108 368.87 25.5564 367.789 25.7182 366.294C25.8799 364.799 24.7966 363.456 23.2984 363.293C21.8003 363.131 20.4547 364.212 20.2929 365.707C20.1312 367.202 21.2145 368.546 22.7126 368.708Z" fill="#D0CDE1"/>
<path d="M427.679 433.73C426.412 432.24 424.18 432.057 422.693 433.321C421.206 434.585 421.027 436.818 422.294 438.308C423.56 439.798 425.793 439.982 427.28 438.717C428.767 437.453 428.946 435.22 427.679 433.73Z" fill="#D0CDE1"/>
<path d="M970.016 894.586C969.286 898.186 930.958 897.883 931.016 894.586C931.746 890.986 970.074 891.288 970.016 894.586Z" fill="#3F3D56"/>
<path d="M965.289 879.28C965.398 890.517 958.756 894.505 950.516 894.586C950.325 894.588 950.134 894.587 949.945 894.585C949.563 894.58 949.185 894.567 948.811 894.544C941.369 894.09 935.55 890.022 935.448 879.571C935.343 868.756 949.032 854.973 950.059 853.954L950.06 853.953C950.099 853.914 950.119 853.895 950.119 853.895C950.119 853.895 965.179 868.044 965.289 879.28Z" fill="#90EB71"/>
<path d="M818.516 915.895C884.514 915.895 938.016 908.508 938.016 899.395C938.016 890.282 884.514 882.895 818.516 882.895C752.518 882.895 699.016 890.282 699.016 899.395C699.016 908.508 752.518 915.895 818.516 915.895Z" fill="#3F3D56"/>
<path d="M909.544 581.999L908.403 580.86C915.584 573.669 919.98 564.162 920.807 554.032C921.634 543.903 918.839 533.809 912.919 525.549C912.403 524.829 911.863 524.122 911.324 523.416C909.72 521.473 908.347 519.351 907.231 517.091C905.907 514.131 905.331 509.848 907.686 506.705L908.975 507.671C907.04 510.255 907.565 513.891 908.703 516.433C909.766 518.579 911.075 520.594 912.604 522.437C913.154 523.157 913.703 523.877 914.229 524.61C920.371 533.181 923.271 543.654 922.413 554.164C921.555 564.674 916.994 574.538 909.544 581.999L909.544 581.999Z" fill="#9698B4"/>
<path d="M947.072 502.736C937.967 513.421 924.411 516.217 915.166 509.913C915.034 509.826 914.902 509.734 914.775 509.641L914.495 510.167C914.485 510.187 914.474 510.206 914.461 510.224C914.296 510.535 914.06 510.803 913.771 511.005C913.482 511.207 913.15 511.338 912.801 511.385C912.451 511.433 912.096 511.397 911.764 511.28C911.432 511.162 911.132 510.968 910.89 510.712L908.655 508.457C908.401 508.199 908.203 507.891 908.071 507.554C907.939 507.216 907.878 506.855 907.89 506.493C907.901 506.131 907.987 505.775 908.14 505.446C908.294 505.118 908.512 504.824 908.782 504.583L908.83 504.544L909.383 504.08L909.507 503.974C903.549 494.402 905.222 479.931 914.116 469.493C924.207 457.65 939.763 455.491 948.864 464.672C957.966 473.852 957.163 490.893 947.072 502.736Z" fill="#FA0026"/>
<path d="M842.131 351.46L830.958 344.895C830.958 344.895 797.438 348.177 801.501 355.837C805.564 363.496 828.926 356.931 828.926 356.931L842.131 361.308V351.46Z" fill="#FBBEBE"/>
<path d="M866.618 844.936L867.634 865.726L888.965 863.537L886.933 842.748L866.618 844.936Z" fill="#FBBEBE"/>
<path d="M784.341 820.864L785.357 841.653L806.687 839.465L804.656 818.676L784.341 820.864Z" fill="#FBBEBE"/>
<path d="M881.347 562.09L804.148 576.314L799.07 727.311L778.754 823.6L811.259 838.918L842.748 743.724L853.921 659.472L862.047 743.724L863.063 849.86L912.836 846.577L900.936 638.739C899.405 612.003 892.735 585.902 881.347 562.09V562.09Z" fill="#2F2E41"/>
<path d="M869.666 858.066C869.666 858.066 862.555 849.313 862.555 852.595C862.555 855.878 858.492 887.609 858.492 887.609C858.492 887.609 885.918 896.362 885.918 901.833C885.918 907.304 925.533 916.058 924.517 905.116C923.501 894.174 888.965 852.595 888.965 852.595C888.965 852.595 874.744 850.407 869.666 858.066Z" fill="#2F2E41"/>
<path d="M788.624 834.126C788.624 834.126 786.459 822.731 784.953 825.585C783.447 828.439 765.356 853.861 765.356 853.861C765.356 853.861 785.182 876.071 782.672 880.827C780.162 885.583 810.585 914.283 814.722 904.23C818.859 894.177 807.912 839.645 807.912 839.645C807.912 839.645 796.554 830.172 788.624 834.126Z" fill="#2F2E41"/>
<path d="M787.067 441.471L843.303 447.263L862.048 392.237L808.212 378.268L787.067 441.471Z" fill="#2F2E41"/>
<path d="M833.098 430.241C848.806 430.241 861.539 416.524 861.539 399.604C861.539 382.683 848.806 368.967 833.098 368.967C817.39 368.967 804.656 382.683 804.656 399.604C804.656 416.524 817.39 430.241 833.098 430.241Z" fill="#FBBEBE"/>
<path d="M816.846 418.205C816.846 418.205 816.846 438.995 801.609 447.748C786.373 456.501 838.177 466.349 838.177 466.349L843.256 447.748C843.256 447.748 828.019 440.089 841.224 422.582L816.846 418.205Z" fill="#FBBEBE"/>
<path d="M841.224 442.277C841.224 442.277 822.62 454.689 807.036 443.559L800.593 442.277L781.294 446.654L772.152 483.856L806.688 576.861C806.688 576.861 866.618 587.803 878.807 563.731L871.697 465.255L852.398 440.089L841.224 442.277Z" fill="#FFD967"/>
<path d="M811.264 370.034C811.264 370.034 798.208 374.722 797.545 393.236C797.478 396.197 797.783 399.154 798.451 402.027C799.186 405.383 799.659 412.604 793.962 422.041C790.147 428.271 786.662 434.728 783.523 441.382L783.482 441.47L797.821 443.401L800.87 417.799C802.348 405.386 805.515 393.276 810.268 381.857L810.368 381.619C810.368 381.619 816.641 394.168 829.187 394.168L824.706 389.341C824.706 389.341 844.422 398.03 851.591 398.03C851.591 398.03 856.968 401.891 851.591 407.683C846.214 413.475 835.46 426.99 841.733 437.609C848.007 448.228 842.63 451.124 842.63 451.124L852.488 445.332L856.968 442.436V446.297L880.269 443.401C880.269 443.401 886.542 442.436 873.099 426.025C873.099 426.025 869.55 419.652 871.103 414.155C872.379 409.978 872.714 405.533 872.081 401.189C869.07 383.092 857.254 347.112 811.264 370.034Z" fill="#2F2E41"/>
<path d="M850.366 443.371L883.886 393.039L880.839 387.568L837.161 363.496V348.177L905.217 367.873L909.822 375.733L869.665 469.632L850.366 443.371Z" fill="#FFD967"/>
<path d="M783.325 447.748L781.294 446.654L730.505 444.466L769.104 408.357L756.915 391.944L699.016 438.994V449.936L781.294 487.138L783.325 447.748Z" fill="#FFD967"/>
<path d="M756.407 396.868L763.518 392.492C763.518 392.492 778.754 370.608 784.849 379.362C790.944 388.115 770.628 404.528 770.628 404.528L759.455 408.905L756.407 396.868Z" fill="#FBBEBE"/>
<path opacity="0.2" d="M977.884 755.897C981.586 753.566 983.953 750.505 983.169 749.061C982.385 747.617 978.748 748.336 975.046 750.668C971.343 753 968.977 756.061 969.761 757.505C970.545 758.949 974.182 758.229 977.884 755.897Z" fill="white"/>
<path d="M962.739 722.812C964.396 723.851 966.58 723.353 967.617 721.699C968.654 720.046 968.151 717.863 966.494 716.824C964.837 715.785 962.653 716.283 961.616 717.937C960.579 719.591 961.082 721.773 962.739 722.812Z" fill="#D0CDE1"/>
<path d="M557.547 308.222C556.28 306.732 554.047 306.549 552.56 307.813C551.073 309.077 550.895 311.31 552.162 312.8C553.428 314.29 555.661 314.473 557.148 313.209C558.635 311.945 558.813 309.712 557.547 308.222Z" fill="#D0CDE1"/>
<path d="M955.748 311.539C957.405 312.577 959.576 312.1 960.597 310.471C961.618 308.843 961.102 306.68 959.445 305.641C957.788 304.602 955.617 305.08 954.596 306.709C953.575 308.337 954.091 310.5 955.748 311.539Z" fill="#D0CDE1"/>
<path d="M702.097 366.109C703.754 367.148 705.925 366.67 706.946 365.042C707.967 363.413 707.452 361.251 705.795 360.212C704.138 359.173 701.967 359.651 700.946 361.279C699.924 362.908 700.44 365.07 702.097 366.109Z" fill="#D0CDE1"/>
<path d="M137.5 911C203.498 911 257 903.613 257 894.5C257 885.387 203.498 878 137.5 878C71.502 878 18 885.387 18 894.5C18 903.613 71.502 911 137.5 911Z" fill="#3F3D56"/>
<path d="M58.9999 890.688C57.8393 896.411 -3.09223 895.931 -2.9999 890.688C-1.83928 884.965 59.0922 885.446 58.9999 890.688Z" fill="#3F3D56"/>
<path d="M51.4842 866.356C51.6584 884.22 41.0993 890.56 28.0001 890.688C27.6959 890.691 27.393 890.69 27.0916 890.687C26.4843 890.679 25.8834 890.658 25.2885 890.621C13.4579 889.899 4.2079 883.432 4.04583 866.819C3.87811 849.626 25.6401 827.714 27.2724 826.094L27.2753 826.093C27.3373 826.031 27.3691 826 27.3691 826C27.3691 826 51.3099 848.493 51.4842 866.356Z" fill="#90EB71"/>
<path d="M52.4602 408.818L46.608 414.22C46.608 414.22 39.8554 425.925 40.7557 431.327C41.6561 436.729 21.8485 518.21 29.9516 520.911C38.0547 523.612 57.4121 537.117 59.663 540.719C61.9138 544.32 67.3159 550.623 70.9173 552.423C74.5187 554.224 78.12 557.375 80.3709 555.574C82.6218 553.774 87.5737 516.86 83.9723 515.509C80.3709 514.159 76.7695 510.107 73.1682 510.107C69.5668 510.107 67.3159 506.506 67.3159 503.354C67.3159 500.203 70.017 481.296 70.017 481.296L75.8692 436.729L52.4602 408.818Z" fill="#2F2E41"/>
<path d="M149.361 354.182C149.361 354.182 144.86 378.041 148.011 379.842C150.556 381.442 152.965 383.249 155.214 385.244L147.111 396.498L127.753 400.55L109.296 383.443V366.337C109.296 366.337 114.698 357.784 113.798 352.381C112.897 346.979 149.361 354.182 149.361 354.182Z" fill="#FBBEBE"/>
<path opacity="0.1" d="M149.361 354.182C149.361 354.182 144.86 378.041 148.011 379.842C150.556 381.442 152.965 383.249 155.214 385.244L147.111 396.498L127.753 400.55L109.296 383.443V366.337C109.296 366.337 114.698 357.784 113.798 352.381C112.897 346.979 149.361 354.182 149.361 354.182Z" fill="black"/>
<path d="M180.424 395.148L183.125 396.498C183.125 396.498 188.977 398.749 191.678 418.107C194.379 437.464 200.682 483.832 198.881 485.182C197.08 486.533 197.981 495.536 197.981 495.536L184.475 424.859L180.424 395.148Z" fill="#2F2E41"/>
<path d="M148.412 285.28C148.823 286.14 148.968 287.143 149.354 288.019C151.109 291.994 156.103 291.105 159.706 292.608C162.757 293.882 165.034 297.379 165.273 301.158C165.374 302.762 165.139 304.38 165.283 305.98C165.549 308.935 167.073 311.537 167.615 314.44C168.933 321.492 165.859 332.629 162.388 328.823C161.294 327.623 159.924 326.828 158.741 325.747C155.671 322.942 154.107 318.48 151.613 314.979C151.298 314.465 150.863 314.035 150.347 313.724C148.524 312.818 146.902 315.242 145.461 316.831C144.728 317.632 143.833 318.267 142.835 318.695C141.837 319.123 140.76 319.334 139.674 319.313C138.589 319.292 137.52 319.041 136.539 318.575C135.559 318.109 134.688 317.44 133.986 316.612C133.546 315.972 133 315.413 132.37 314.96C131.667 314.637 130.875 314.559 130.123 314.74C126.57 315.365 123.37 317.27 121.128 320.096C119.925 321.568 118.919 323.3 117.477 324.441C116.035 325.583 113.931 325.959 112.633 324.602C110.019 326.45 109.044 330.372 109.037 333.944C109.03 337.516 109.762 341.065 109.584 344.631C109.405 348.197 108.005 352.045 105.164 353.354C104.716 350.107 103.031 347.158 100.46 345.125C98.5247 343.684 96.1725 342.971 94.5357 341.09C91.2589 337.326 92.2972 331.065 92.1714 325.696C92.0161 319.072 89.7208 312.74 89.3153 306.132C89.1126 302.829 89.4538 299.288 91.1921 296.675C92.5078 294.933 94.1756 293.488 96.0868 292.434L111.538 282.521C112.225 282.014 113.002 281.645 113.829 281.435C116.104 281.026 118.416 280.494 120.573 281.435C122.371 282.072 124.274 280.203 126.173 280.014C132.171 279.851 135.337 281.178 135.337 281.178C135.337 281.178 138.257 281.319 138.68 281.178C139.103 281.037 139.554 280.997 139.995 281.062C142.407 281.445 147.092 282.527 148.412 285.28Z" fill="#2F2E41"/>
<path d="M139.908 829.114L130.455 849.822L148.912 856.125L158.365 851.173L156.114 829.114H139.908Z" fill="#FBBEBE"/>
<path d="M148.461 846.671C148.461 846.671 163.317 837.667 166.018 840.818C168.719 843.97 190.327 866.928 190.327 866.928C190.327 866.928 223.64 884.935 197.98 887.636C172.32 890.337 130.454 871.88 130.454 871.88C130.454 871.88 128.203 847.571 130.004 847.121C131.804 846.671 139.457 851.172 143.059 849.822C145.048 849.134 146.883 848.063 148.461 846.671Z" fill="#2F2E41"/>
<path d="M115.599 851.173V869.629L139.908 864.228L134.506 845.32L115.599 851.173Z" fill="#FBBEBE"/>
<path d="M140.358 857.475C140.358 857.475 115.599 853.423 113.348 865.578C111.097 877.733 105.245 895.74 111.097 900.241C116.949 904.743 147.111 910.595 147.561 902.942C148.011 895.289 144.41 880.434 144.41 880.434C144.41 880.434 142.159 868.729 143.509 865.578C144.86 862.427 140.358 857.475 140.358 857.475Z" fill="#2F2E41"/>
<path d="M189.811 553.493C189.811 553.493 210.135 682.358 193.478 745.382C176.822 808.406 165.118 845.77 165.118 845.77C165.118 845.77 136.307 837.667 136.307 832.265C136.307 826.863 147.561 746.732 150.262 739.08C152.963 731.427 157.465 728.726 153.413 722.423C149.362 716.121 142.609 675.605 142.609 675.605C142.609 675.605 127.753 742.681 126.853 744.482C125.953 746.282 136.307 849.372 136.307 849.372C136.307 849.372 106.59 870.937 104.794 854.774C104.344 850.722 84.5367 707.117 84.5367 705.317C84.5367 703.516 76.4336 565.763 89.4886 559.011C102.544 552.258 189.811 553.493 189.811 553.493Z" fill="#2F2E41"/>
<path d="M131.804 363.186C114.898 363.186 101.193 349.48 101.193 332.574C101.193 315.667 114.898 301.962 131.804 301.962C148.711 301.962 162.416 315.667 162.416 332.574C162.416 349.48 148.711 363.186 131.804 363.186Z" fill="#FBBEBE"/>
<path d="M138.557 393.347V390.196L147.561 375.34C147.561 375.34 156.564 376.241 157.915 380.292C159.265 384.344 174.571 416.756 174.571 416.756L190.777 562.162C190.777 562.162 146.21 572.966 139.458 565.313C132.705 557.66 107.045 391.096 107.045 391.096L103.444 370.839C103.444 370.839 109.628 361.835 111.037 363.186C112.447 364.536 135.856 390.646 135.856 390.646L136.306 394.698L138.557 393.347Z" fill="#FFD967"/>
<path d="M147.786 372.414C147.786 372.414 156.114 370.388 158.816 375.34C161.517 380.292 161.517 382.093 164.218 383.894C166.919 385.694 182.675 393.797 183.575 396.949C184.475 400.1 203.833 499.588 203.833 499.588C203.833 499.588 213.286 529.299 208.785 549.557C204.283 569.815 207.434 573.866 197.981 575.667C188.527 577.468 187.176 577.468 187.176 574.767C187.176 572.066 175.022 480.681 166.468 474.378C157.915 468.076 160.166 399.199 160.166 399.199C160.166 399.199 148.011 384.344 148.011 382.093C148.011 379.842 145.986 372.245 147.786 372.414Z" fill="#2F2E41"/>
<path d="M122.351 388.845C121.095 389.055 103.894 366.787 102.544 367.687C101.193 368.588 94.4406 380.292 93.5403 380.292C92.6399 380.292 54.3752 389.746 51.224 407.303C48.0728 424.859 73.2825 480.681 73.2825 480.681C73.2825 480.681 84.0866 512.643 81.8358 526.598C80.3086 537.226 80.6132 548.036 82.7361 558.56C83.6365 562.162 86.7877 566.213 85.8873 568.014C84.987 569.815 105.695 565.763 114.248 570.715C122.801 575.667 161.066 579.268 158.815 573.866C156.564 568.464 155.214 547.306 148.911 524.798C142.609 502.289 126.403 449.169 129.104 445.567C131.805 441.966 125.052 388.395 122.351 388.845Z" fill="#2F2E41"/>
<path d="M143.011 289.76C143.375 290.41 143.503 291.168 143.844 291.83C145.396 294.835 149.812 294.163 152.997 295.3C154.344 295.803 155.52 296.677 156.391 297.821C157.262 298.964 157.792 300.331 157.92 301.762C158.009 302.975 157.801 304.198 157.929 305.408C158.164 307.642 159.511 309.609 159.991 311.803C161.156 317.135 158.438 325.554 155.369 322.677C154.401 321.769 153.19 321.168 152.144 320.351C149.43 318.23 148.047 314.858 145.842 312.211C145.549 311.811 145.165 311.486 144.722 311.262C143.111 310.578 141.676 312.41 140.402 313.611C138.993 314.849 137.173 315.518 135.297 315.487C133.421 315.457 131.624 314.729 130.256 313.445C129.854 312.95 129.371 312.528 128.826 312.197C128.194 311.951 127.504 311.893 126.84 312.03C123.809 312.447 121.007 313.874 118.886 316.079C117.93 317.285 116.848 318.386 115.658 319.364C114.383 320.227 112.523 320.511 111.375 319.486C109.064 320.882 108.202 323.848 108.196 326.548C108.19 329.248 108.837 331.931 108.679 334.626C108.521 337.322 107.283 340.231 104.771 341.22C104.54 339.954 104.052 338.749 103.336 337.679C102.621 336.609 101.694 335.697 100.612 335C98.9007 333.911 96.8209 333.371 95.3737 331.95C92.4763 329.105 93.3944 324.372 93.2831 320.312C93.1458 315.305 91.1163 310.519 90.7577 305.523C90.5785 303.026 90.8802 300.349 92.4172 298.374C93.6273 297.022 95.0999 295.932 96.7451 295.168L110.407 287.674C111.03 287.285 111.715 287.007 112.433 286.853C114.444 286.544 116.183 288.157 118.089 288.868C119.697 289.352 121.381 289.526 123.054 289.382C128.358 289.26 129.85 290.14 133.416 287.186C133.713 286.94 134.057 286.759 134.428 286.653C134.799 286.547 135.187 286.52 135.569 286.572C137.701 286.86 141.844 287.679 143.011 289.76Z" fill="#2F2E41"/>
<path d="M165.628 318.516C165.745 317.286 165.17 315.008 162.215 314.634L142.973 292.741C125.949 294.791 109.232 308.477 108.024 308.659C106.514 308.886 106.851 324.796 118.126 321.038C129.402 317.28 122.96 322.369 132.401 323.521C141.842 324.674 145.994 321.474 148.132 318.578C150.27 315.681 155.808 314.847 160.918 314.592C161.394 314.568 161.825 314.585 162.215 314.634L165.628 318.516Z" fill="#2F2E41"/>
<path d="M866.182 321.08L866.721 319.562C848.338 313.039 832.866 300.203 823.062 283.34C813.258 266.477 809.759 246.682 813.188 227.482C813.485 225.822 813.84 224.132 814.183 222.497C815.141 217.935 816.131 213.217 816.014 208.449C815.868 202.489 813.454 194.937 807.117 191.616L806.369 193.043C812.087 196.039 814.269 202.986 814.404 208.489C814.516 213.069 813.545 217.694 812.606 222.166C812.26 223.812 811.903 225.515 811.602 227.198C808.106 246.774 811.674 266.956 821.669 284.149C831.665 301.342 847.439 314.43 866.182 321.08Z" fill="#575A89"/>
<path d="M721.578 162.965C738.57 192.236 769.564 205.74 794.266 196.116C794.617 195.985 794.97 195.843 795.313 195.697L795.75 197.048C795.765 197.099 795.784 197.149 795.807 197.198C796.068 198.005 796.511 198.742 797.101 199.352C797.691 199.962 798.413 200.429 799.211 200.717C800.009 201.005 800.863 201.107 801.706 201.015C802.55 200.922 803.361 200.638 804.078 200.184L810.367 196.182C811.081 195.714 811.688 195.101 812.15 194.382C812.612 193.664 812.918 192.857 813.049 192.013C813.179 191.169 813.13 190.307 812.906 189.483C812.682 188.659 812.287 187.891 811.747 187.229L811.651 187.115L810.538 185.761L810.29 185.454C828.601 166.615 830.91 132.548 814.312 103.954C795.48 71.512 759.459 58.4234 733.848 74.7205C708.238 91.0176 702.746 130.523 721.578 162.965Z" fill="#2945FF"/>
<path opacity="0.2" d="M778.686 90.9365C770.761 86.3799 765.608 80.4749 767.176 77.7475C768.745 75.02 776.44 76.5029 784.365 81.0595C792.29 85.6162 797.443 91.5211 795.875 94.2486C794.307 96.976 786.611 95.4932 778.686 90.9365Z" fill="white"/>
<path d="M795.75 197.048C795.765 197.099 795.784 197.149 795.807 197.198L811.651 187.115L810.538 185.761L794.266 196.116C794.617 195.985 794.971 195.842 795.313 195.697L795.75 197.048Z" fill="#575A89"/>
<path d="M234.642 330.629L233.253 329.812C238.399 321.048 240.268 310.742 238.527 300.729C236.785 290.716 231.546 281.647 223.742 275.136C223.064 274.57 222.365 274.023 221.667 273.475C219.625 271.996 217.762 270.286 216.115 268.377C214.09 265.844 212.458 261.843 213.948 258.21L215.439 258.822C214.214 261.807 215.635 265.196 217.374 267.371C218.943 269.182 220.717 270.805 222.661 272.207C223.372 272.765 224.083 273.322 224.775 273.899C232.871 280.654 238.307 290.065 240.114 300.454C241.921 310.843 239.982 321.536 234.642 330.629L234.642 330.629Z" fill="#9698B4"/>
<path d="M249.074 243.845C242.847 256.671 230.09 262.156 219.395 258.314C219.243 258.262 219.09 258.205 218.941 258.147L218.8 258.734C218.795 258.757 218.789 258.778 218.781 258.8C218.698 259.148 218.534 259.471 218.302 259.744C218.07 260.016 217.776 260.229 217.445 260.364C217.114 260.5 216.755 260.555 216.398 260.525C216.042 260.494 215.698 260.379 215.395 260.189L212.623 258.543C212.307 258.353 212.034 258.101 211.818 257.803C211.603 257.505 211.45 257.166 211.37 256.807C211.289 256.447 211.281 256.021 211.281 256.021C211.281 256.021 211.183 255.214 211.387 254.908L211.652 254.484L211.917 254.06L212.182 253.636C203.885 245.744 203.408 235.744 209.492 223.215C216.394 209 231.137 202.912 242.425 209.618C253.712 216.324 255.977 229.63 249.074 243.845Z" fill="#FA0026"/>
<path d="M218.809 258.931C218.804 258.953 218.797 258.975 218.788 258.996L211.917 254.06L212.182 253.636L219.26 258.24C219.11 258.186 218.96 258.346 218.96 258.346L218.809 258.931Z" fill="#575A89"/>
<defs>
<linearGradient id="paint0_linear" x1="1276.5" y1="1015" x2="226.873" y2="89.6138" gradientUnits="userSpaceOnUse">
<stop stop-color="#C1F0FF"/>
<stop offset="0.981573" stop-color="#030094"/>
</linearGradient>
</defs>
</svg>
