<svg width="37" height="32" viewBox="0 0 37 32" fill="none" xmlns="http://www.w3.org/2000/svg">
<path d="M5.13889 16.7527V16.4443H0.770858C0.205575 16.4444 0 16.9583 0 17.5236V27.0818C0 27.6471 0.205575 28.2637 0.770858 28.2637H3.85419C4.32593 28.2226 4.75912 28.5259 4.88197 28.9832L5.55004 31.9637L8.7875 28.5207C8.98246 28.3409 9.24223 28.2481 9.50692 28.2637H16.3417C16.953 28.1915 17.4272 27.6958 17.4722 27.0818V22.0971H10.3806C7.49209 21.9886 5.19141 19.6428 5.13889 16.7527Z" fill="#2B2949"/>
<path d="M34.1736 0H10.3806C8.68473 0 7.19446 1.02778 7.19446 2.72363V16.7528C7.21974 18.5191 8.61598 19.9604 10.3806 20.0417H20.7611C21.0259 20.0261 21.2856 20.1188 21.4806 20.2986L27.5444 26.825L28.9319 20.7611C29.0328 20.3116 29.4491 20.0049 29.9084 20.0417H34.1736C35.8694 20.0417 37 18.4487 37 16.7528V2.72363C36.9999 1.02778 35.8693 0 34.1736 0ZM11.7681 5.65273H24.1014C24.669 5.65273 25.1292 6.11286 25.1292 6.68051C25.1292 7.24815 24.669 7.70828 24.1014 7.70828H11.7681C11.2004 7.70828 10.7403 7.24815 10.7403 6.68051C10.7403 6.11286 11.2004 5.65273 11.7681 5.65273ZM32.3235 13.8749H11.768C11.2003 13.8749 10.7402 13.4148 10.7402 12.8472C10.7402 12.2795 11.2003 11.8194 11.768 11.8194H32.3235C32.8912 11.8194 33.3513 12.2795 33.3513 12.8472C33.3513 13.4148 32.8912 13.8749 32.3235 13.8749Z" fill="#2B2949"/>
</svg>
