<svg width="29" height="22" viewBox="0 0 29 22" fill="none" xmlns="http://www.w3.org/2000/svg">
<path fill-rule="evenodd" clip-rule="evenodd" d="M13.8179 0.446448C13.6529 0.305746 13.4571 0.194122 13.2417 0.11797C13.0262 0.0418192 12.7953 0.00263751 12.5622 0.00266715C12.3291 0.00269679 12.0984 0.0419372 11.8833 0.118143C11.6682 0.194349 11.473 0.306023 11.3087 0.446767L0.698649 9.51468C0.533968 9.65507 0.403448 9.82184 0.314562 10.0054C0.225675 10.189 0.18017 10.3858 0.180653 10.5846C0.181136 10.7834 0.227596 10.9802 0.317375 11.1637C0.407153 11.3473 0.538484 11.514 0.703846 11.6544L11.358 20.7196C11.6914 21.0033 12.1431 21.1627 12.6136 21.1626C13.0842 21.1625 13.5351 21.0031 13.8671 20.7193C14.1992 20.4355 14.3852 20.0506 14.3842 19.6494C14.3832 19.2481 14.1954 18.8633 13.8619 18.5796L4.46146 10.5841L13.8231 2.58616C13.9878 2.44577 14.1183 2.279 14.2072 2.09541C14.2961 1.91181 14.3416 1.715 14.3411 1.51624C14.3406 1.31748 14.2941 1.12067 14.2044 0.9371C14.1146 0.753528 13.9832 0.586794 13.8179 0.446448Z" fill="#2B2949"/>
<path fill-rule="evenodd" clip-rule="evenodd" d="M28.5335 10.5805C28.5325 10.1798 28.3449 9.79562 28.0119 9.51236C27.6789 9.22911 27.2279 9.07002 26.758 9.07009L3.72416 9.07352C3.25424 9.07359 2.80395 9.23282 2.47237 9.51617C2.14078 9.79952 1.95504 10.1838 1.95603 10.5844C1.95701 10.9851 2.14463 11.3693 2.4776 11.6526C2.81058 11.9358 3.26164 12.0949 3.73156 12.0948L26.7654 12.0914C27.2353 12.0913 27.6856 11.9321 28.0171 11.6488C28.3487 11.3654 28.5345 10.9811 28.5335 10.5805Z" fill="#2B2949"/>
</svg>
