<svg width="375" height="509" viewBox="0 0 375 509" fill="none" xmlns="http://www.w3.org/2000/svg">
<g opacity="0.2" clip-path="url(#clip0)">
<path d="M5.93866 472.787C6.60242 473.383 7.28461 473.955 7.9729 474.52C10.5121 476.607 13.1628 478.483 15.9072 480.134C30.3253 488.949 48.0865 493.251 65.3931 496.174C104.204 502.744 143.832 504.018 183.294 505.268C289.905 508.666 396.799 512.049 503.14 504.229C545.153 501.14 588.106 495.941 626.185 480.118C631.639 477.853 636.99 475.357 642.238 472.629C652.846 467.091 663.036 460.363 671.511 452.347C679.5 444.812 685.929 436.148 689.788 426.308C697.839 405.799 693.58 382.766 684.392 362.672C680.552 354.517 676.239 346.712 671.486 339.315C664.406 327.998 656.595 317.036 649.453 305.734C624.059 265.485 607.49 214.65 630.93 173.422C637.69 161.578 647.407 151.18 652.895 138.816C659.907 122.994 659.36 105.431 657.129 88.3352C656.847 86.1804 656.515 84.0406 656.214 81.9008C652.385 56.6077 645.256 29.3481 623.186 13.5559C600.262 -2.85407 567.72 -2.02528 539.259 3.84404C495.009 12.9758 454.189 32.0454 412.969 49.2692C371.749 66.4929 328.575 82.2248 283.243 83.9276C243.222 85.4345 196.532 74.2308 169.97 45.1554C144.158 16.9163 95.6674 14.769 60.6978 31.827C36.7291 43.5355 18.8141 64.6244 11.2609 88.3352C9.73431 93.0826 8.6319 98.0189 7.9729 103.058C7.36005 107.645 7.15399 112.301 7.35834 116.943C7.46283 119.204 7.66565 121.502 7.9729 123.724C13.8115 170.536 55.8549 207.455 81.4091 249.271C93.8973 269.697 102.717 294.229 94.1309 316.252C81.0342 349.81 35.4877 361.737 7.9729 386.722C2.83252 391.218 -1.72559 396.638 -5.54785 402.8C-18.8535 425.042 -13.9307 455.059 5.93866 472.787Z" fill="#CFF3FF"/>
<path d="M656.831 446.233C626.605 441.809 597.537 437.996 569.627 434.793L580.663 416.946C576.943 415.848 560.594 426.022 560.594 426.022L575.082 374.137C556.369 375.938 546.848 428.94 546.848 428.94L525.944 410.909L536.062 431.119C450.639 422.308 376.864 418.847 314.811 418.447L324.257 403.173C320.536 402.074 304.188 412.248 304.188 412.248L318.676 360.363C299.963 362.165 290.441 415.167 290.441 415.167L269.537 397.136L280.255 418.541C228.233 419.171 185.809 421.946 153.064 425.181C162.62 401.362 195.072 378.816 195.072 378.816C170.29 384.868 157.29 395.14 150.496 404.741C149.977 375.275 153.47 320.663 179.426 260.304C179.426 260.304 128.19 353.317 134.717 415.94L135.497 427.059C92.0718 432.06 70.2391 437.371 70.2391 437.371L656.831 446.233Z" fill="#3F3D56"/>
<path d="M382.15 41.4093V417.267C382.145 421.745 380.363 426.037 377.193 429.202C374.024 432.367 369.727 434.145 365.247 434.147H212.548C210.328 434.151 208.129 433.717 206.078 432.87C204.026 432.023 202.161 430.78 200.591 429.212C199.021 427.644 197.776 425.782 196.927 423.732C196.078 421.683 195.643 419.486 195.645 417.267V41.4093C195.645 39.1911 196.082 36.9946 196.931 34.9452C197.781 32.8958 199.026 31.0337 200.595 29.4651C202.165 27.8966 204.028 26.6525 206.079 25.8037C208.13 24.9549 210.328 24.5181 212.548 24.5183H235.399V27.4465C235.399 31.135 236.865 34.6726 239.474 37.2813C242.083 39.8899 245.623 41.356 249.314 41.3571H326.978C329.949 41.3635 332.843 40.4118 335.229 38.6434C335.712 38.2928 336.169 37.9091 336.599 37.4953C337.958 36.1982 339.04 34.6387 339.778 32.9113C340.516 31.184 340.895 29.3248 340.893 27.4465V24.5183H365.247C367.467 24.5176 369.665 24.9541 371.716 25.8027C373.767 26.6513 375.631 27.8954 377.201 29.4641C378.77 31.0327 380.015 32.895 380.865 34.9446C381.714 36.9942 382.151 39.191 382.15 41.4093Z" fill="#3F3D56"/>
<path d="M382.15 41.4093V417.267C382.145 421.745 380.363 426.037 377.193 429.202C374.024 432.367 369.727 434.145 365.247 434.147H212.548C210.328 434.151 208.129 433.717 206.078 432.87C204.026 432.023 202.161 430.78 200.591 429.212C199.021 427.644 197.776 425.782 196.927 423.732C196.078 421.683 195.643 419.486 195.645 417.267V41.4093C195.645 39.1911 196.082 36.9946 196.931 34.9452C197.781 32.8958 199.026 31.0337 200.595 29.4651C202.165 27.8966 204.028 26.6525 206.079 25.8037C208.13 24.9549 210.328 24.5181 212.548 24.5183H235.399V27.4465C235.399 31.135 236.865 34.6726 239.474 37.2813C242.083 39.8899 245.623 41.356 249.314 41.3571H326.978C329.949 41.3635 332.843 40.4118 335.229 38.6434C335.712 38.2928 336.169 37.9091 336.599 37.4953C337.958 36.1982 339.04 34.6387 339.778 32.9113C340.516 31.184 340.895 29.3248 340.893 27.4465V24.5183H365.247C367.467 24.5176 369.665 24.9541 371.716 25.8027C373.767 26.6513 375.631 27.8954 377.201 29.4641C378.77 31.0327 380.015 32.895 380.865 34.9446C381.714 36.9942 382.151 39.191 382.15 41.4093Z" fill="#514E7F"/>
<path d="M238.185 91.201C240.428 91.201 242.247 89.3837 242.247 87.142C242.247 84.9003 240.428 83.0831 238.185 83.0831C235.942 83.0831 234.123 84.9003 234.123 87.142C234.123 89.3837 235.942 91.201 238.185 91.201Z" fill="#F2F2F2"/>
<path d="M336.599 37.4953C336.169 37.9091 335.712 38.2927 335.229 38.6434C340.204 47.3915 346.944 55.0111 355.021 61.0191C363.098 67.0271 372.336 71.2924 382.15 73.5445V71.7354C372.601 69.4845 363.623 65.2795 355.783 59.3861C347.943 53.4928 341.41 46.0389 336.599 37.4953Z" fill="#56D7FF"/>
<path d="M301.893 41.3571H299.989C306.746 58.5125 317.89 73.5955 332.308 85.0987C346.726 96.602 363.912 104.123 382.15 106.909V105.111C364.387 102.355 347.648 95.0278 333.576 83.8499C319.505 72.672 308.586 58.0281 301.893 41.3571Z" fill="#56D7FF"/>
<path d="M266.833 41.3571H264.999C280.336 94.5524 326.612 134.15 382.15 140.581V138.812C327.576 132.411 282.094 93.5667 266.833 41.3571Z" fill="#56D7FF"/>
<path d="M224.839 117.191H223.782V116.134H223.576V117.191H222.518V117.397H223.576V118.454H223.782V117.397H224.839V117.191Z" fill="#F2F2F2"/>
<path d="M296.212 64.4247H295.155V63.3682H294.949V64.4247H293.891V64.6311H294.949V65.6876H295.155V64.6311H296.212V64.4247Z" fill="#F2F2F2"/>
<path d="M235.283 158.94H234.226V157.884H234.02V158.94H232.962V159.146H234.02V160.203H234.226V159.146H235.283V158.94Z" fill="#F2F2F2"/>
<path d="M284.026 128.208H282.969V127.152H282.763V128.208H281.705V128.414H282.763V129.471H282.969V128.414H284.026V128.208Z" fill="#F2F2F2"/>
<path d="M353.659 147.343H352.602V146.287H352.396V147.343H351.338V147.55H352.396V148.606H352.602V147.55H353.659V147.343Z" fill="#F2F2F2"/>
<path d="M341.473 99.3187C342.755 99.3187 343.794 98.2803 343.794 96.9993C343.794 95.7184 342.755 94.6799 341.473 94.6799C340.191 94.6799 339.152 95.7184 339.152 96.9993C339.152 98.2803 340.191 99.3187 341.473 99.3187Z" fill="#FF6584"/>
<path d="M258.32 151.389L257.003 151.592C257.415 154.225 257.74 156.915 257.978 159.577L259.307 159.461C259.069 156.764 258.738 154.051 258.32 151.389Z" fill="#E6E6E6"/>
<path d="M254.717 135.536L253.44 135.925C254.212 138.476 254.902 141.091 255.488 143.695L256.794 143.399C256.196 140.766 255.494 138.122 254.717 135.536Z" fill="#E6E6E6"/>
<path d="M248.966 120.332L247.754 120.889C248.868 123.319 249.912 125.812 250.858 128.305L252.105 127.836C251.148 125.313 250.098 122.785 248.966 120.332Z" fill="#E6E6E6"/>
<path d="M241.191 106.08L240.066 106.793C241.499 109.043 242.874 111.374 244.151 113.711L245.323 113.073C244.035 110.707 242.642 108.353 241.191 106.08Z" fill="#E6E6E6"/>
<path d="M231.523 93.0159L230.508 93.8799C232.237 95.9094 233.92 98.0316 235.51 100.177L236.578 99.3827C234.976 97.214 233.276 95.0686 231.523 93.0159Z" fill="#E6E6E6"/>
<path d="M220.162 81.3841L219.274 82.3756C221.27 84.1558 223.226 86.0287 225.088 87.9364L226.046 87.0028C224.16 85.0719 222.181 83.1816 220.162 81.3841Z" fill="#E6E6E6"/>
<path d="M207.326 71.399L206.578 72.5008C208.794 73.991 210.988 75.5798 213.094 77.2207L213.918 76.1712C211.783 74.5128 209.566 72.9067 207.326 71.399Z" fill="#E6E6E6"/>
<path d="M195.645 64.4642V65.9718C197.032 66.6966 198.407 67.4562 199.753 68.2332L200.421 67.0793C198.854 66.1747 197.262 65.303 195.645 64.4642Z" fill="#E6E6E6"/>
<path d="M258.019 276.638C258.235 275.342 258.433 274.018 258.608 272.704L259.93 272.879C259.754 274.208 259.554 275.546 259.335 276.857L258.019 276.638Z" fill="#E6E6E6"/>
<path d="M254.3 292.282L255.575 292.679C256.375 290.102 257.099 287.463 257.726 284.833L256.427 284.526C255.805 287.127 255.094 289.734 254.3 292.282Z" fill="#E6E6E6"/>
<path d="M248.473 307.261L249.683 307.828C250.834 305.388 251.912 302.874 252.889 300.357L251.644 299.871C250.678 302.361 249.612 304.848 248.473 307.261Z" fill="#E6E6E6"/>
<path d="M240.633 321.312L241.752 322.038C243.227 319.777 244.643 317.433 245.961 315.075L244.798 314.422C243.497 316.755 242.092 319.072 240.633 321.312Z" fill="#E6E6E6"/>
<path d="M230.933 334.149L231.944 335.025C233.719 332.979 235.44 330.851 237.071 328.699L236.003 327.9C234.394 330.028 232.691 332.13 230.933 334.149Z" fill="#E6E6E6"/>
<path d="M219.574 345.541L220.453 346.543C222.493 344.764 224.489 342.888 226.395 340.981L225.451 340.036C223.567 341.924 221.588 343.774 219.574 345.541Z" fill="#E6E6E6"/>
<path d="M206.778 355.277L207.515 356.392C209.768 354.905 212.005 353.321 214.152 351.688L213.345 350.624C211.219 352.243 209.009 353.809 206.778 355.277Z" fill="#E6E6E6"/>
<path d="M200.571 360.628C198.958 361.538 197.31 362.419 195.645 363.254V361.758C197.084 361.028 198.511 360.257 199.91 359.474L200.571 360.628Z" fill="#E6E6E6"/>
<path d="M258.41 167.802L259.744 167.778C259.768 169.124 259.77 170.477 259.749 171.8L258.415 171.779C258.436 170.471 258.434 169.133 258.41 167.802Z" fill="#E6E6E6"/>
<path d="M376.29 199.419H239.804C229.647 199.419 219.906 203.451 212.724 210.628C205.541 217.805 201.506 227.539 201.506 237.689V242.755H337.992C348.149 242.755 357.89 238.723 365.073 231.546C372.255 224.369 376.29 214.635 376.29 204.485V199.419Z" fill="white"/>
<path d="M292.087 433.614C291.953 433.397 288.814 428.158 287.725 417.279C286.727 407.298 287.369 390.474 296.1 367.007C312.641 322.549 292.288 286.678 292.08 286.321L293.084 285.739C293.137 285.83 298.389 294.975 301.491 309.538C305.591 328.846 304.098 348.921 297.188 367.411C280.675 411.793 292.951 432.803 293.077 433.01L292.087 433.614Z" fill="#F2F2F2"/>
<path d="M285.618 283.711C289.785 283.711 293.162 280.336 293.162 276.173C293.162 272.01 289.785 268.635 285.618 268.635C281.452 268.635 278.075 272.01 278.075 276.173C278.075 280.336 281.452 283.711 285.618 283.711Z" fill="#90EB71"/>
<path d="M309.409 311.544C313.575 311.544 316.953 308.169 316.953 304.005C316.953 299.842 313.575 296.467 309.409 296.467C305.243 296.467 301.866 299.842 301.866 304.005C301.866 308.169 305.243 311.544 309.409 311.544Z" fill="#F2F2F2"/>
<path d="M293.161 330.099C297.327 330.099 300.705 326.724 300.705 322.561C300.705 318.397 297.327 315.023 293.161 315.023C288.995 315.023 285.618 318.397 285.618 322.561C285.618 326.724 288.995 330.099 293.161 330.099Z" fill="#90EB71"/>
<path d="M312.891 345.754C317.057 345.754 320.435 342.38 320.435 338.216C320.435 334.053 317.057 330.678 312.891 330.678C308.725 330.678 305.348 334.053 305.348 338.216C305.348 342.38 308.725 345.754 312.891 345.754Z" fill="#90EB71"/>
<path d="M287.359 370.108C291.525 370.108 294.903 366.733 294.903 362.57C294.903 358.407 291.525 355.032 287.359 355.032C283.193 355.032 279.816 358.407 279.816 362.57C279.816 366.733 283.193 370.108 287.359 370.108Z" fill="#F2F2F2"/>
<path d="M296.643 433.892C296.643 433.892 289.1 415.336 311.73 401.42L296.643 433.892Z" fill="#F2F2F2"/>
<path d="M287.366 433.555C287.366 433.555 283.933 413.823 257.361 413.992L287.366 433.555Z" fill="#F2F2F2"/>
<path opacity="0.2" d="M337.334 267.475C362.972 267.475 383.755 246.706 383.755 221.087C383.755 195.468 362.972 174.699 337.334 174.699C311.696 174.699 290.912 195.468 290.912 221.087C290.912 246.706 311.696 267.475 337.334 267.475Z" fill="#2945FF"/>
<path opacity="0.2" d="M337.334 253.755C355.389 253.755 370.026 239.129 370.026 221.087C370.026 203.045 355.389 188.42 337.334 188.42C319.279 188.42 304.643 203.045 304.643 221.087C304.643 239.129 319.279 253.755 337.334 253.755Z" fill="#2945FF"/>
<path d="M337.334 242.648C349.25 242.648 358.91 232.995 358.91 221.087C358.91 209.179 349.25 199.526 337.334 199.526C325.417 199.526 315.757 209.179 315.757 221.087C315.757 232.995 325.417 242.648 337.334 242.648Z" fill="#2945FF"/>
<path d="M341.257 216.437C341.257 215.775 341.09 215.124 340.771 214.545C340.451 213.965 339.99 213.476 339.431 213.122C338.871 212.769 338.231 212.562 337.57 212.523C336.909 212.483 336.249 212.611 335.651 212.895C335.053 213.178 334.537 213.609 334.15 214.146C333.763 214.683 333.519 215.309 333.44 215.966C333.36 216.622 333.448 217.289 333.696 217.902C333.944 218.516 334.343 219.057 334.856 219.474L333.411 229.581H341.257L339.812 219.474C340.264 219.107 340.628 218.644 340.878 218.119C341.128 217.593 341.258 217.019 341.257 216.437Z" fill="white"/>
<path d="M403.115 293.012C406.177 295.29 409.965 296.374 413.769 296.06C417.573 295.746 421.133 294.057 423.78 291.309C426.427 288.561 427.98 284.942 428.148 281.131C428.316 277.321 427.087 273.579 424.692 270.609C422.297 267.639 418.901 265.643 415.139 264.996C411.377 264.35 407.508 265.096 404.258 267.096C401.007 269.096 398.598 272.211 397.482 275.859C396.366 279.507 396.619 283.436 398.195 286.91L357.166 321.047L351.703 314.568L349.248 316.209L346.517 312.969L348.761 311.08L346.03 307.84L342.539 310.78L344.219 312.773L340.479 315.922L338.798 313.929L333.312 318.548L335.833 321.538L337.828 319.859L340.56 323.098L338.066 325.198L343.109 331.178L337.124 336.218L343.217 343.444L403.115 293.012ZM413.359 270.113C415.404 270.288 417.351 271.064 418.954 272.345C420.557 273.625 421.744 275.351 422.365 277.306C422.986 279.261 423.013 281.355 422.443 283.325C421.873 285.295 420.731 287.052 419.162 288.373C417.592 289.695 415.666 290.521 413.626 290.749C411.587 290.976 409.526 290.594 407.703 289.651C405.881 288.708 404.38 287.246 403.389 285.45C402.398 283.654 401.963 281.605 402.137 279.561C402.372 276.821 403.685 274.287 405.79 272.515C407.894 270.743 410.617 269.879 413.359 270.113V270.113Z" fill="#FFD967"/>
</g>
<defs>
<clipPath id="clip0">
<rect width="375" height="509" fill="white"/>
</clipPath>
</defs>
</svg>
