<svg width="12" height="16" viewBox="0 0 12 16" fill="none" xmlns="http://www.w3.org/2000/svg">
<path fill-rule="evenodd" clip-rule="evenodd" d="M0.571942 7.69713C0.500075 7.61306 0.443027 7.51322 0.404064 7.40334C0.365102 7.29346 0.344992 7.17569 0.344884 7.05678C0.344777 6.93788 0.364674 6.82017 0.403437 6.71039C0.442201 6.60062 0.499069 6.50094 0.570784 6.41707L5.19124 0.999517C5.26278 0.915431 5.34779 0.848757 5.4414 0.803315C5.53502 0.757872 5.6354 0.734554 5.7368 0.734696C5.8382 0.734838 5.93862 0.758437 6.03232 0.804141C6.12602 0.849845 6.21115 0.916756 6.28283 1.00104L10.9131 6.43152C11.058 6.60147 11.1395 6.83181 11.1398 7.07187C11.14 7.31193 11.0589 7.54204 10.9143 7.71159C10.7697 7.88113 10.5734 7.97622 10.3687 7.97594C10.164 7.97565 9.96758 7.88001 9.82267 7.71006L5.73877 2.91857L1.66353 7.69866C1.592 7.78275 1.50699 7.84942 1.41337 7.89486C1.31976 7.94031 1.21937 7.96362 1.11798 7.96348C1.01658 7.96334 0.916152 7.93974 0.822454 7.89404C0.728757 7.84833 0.643627 7.78142 0.571942 7.69713Z" fill="#2945FF"/>
<path fill-rule="evenodd" clip-rule="evenodd" d="M5.74919 15.1988C5.54479 15.1986 5.34868 15.103 5.20401 14.9333C5.05933 14.7636 4.97793 14.5336 4.97772 14.2938L4.96735 2.54303C4.96714 2.3033 5.04813 2.0735 5.19251 1.90419C5.33689 1.73488 5.53283 1.63993 5.73722 1.64022C5.94161 1.64051 6.13772 1.73602 6.2824 1.90574C6.42708 2.07546 6.50848 2.30549 6.50869 2.54522L6.51906 14.296C6.51927 14.5358 6.43828 14.7656 6.2939 14.9349C6.14952 15.1042 5.95358 15.1991 5.74919 15.1988Z" fill="#2945FF"/>
</svg>
