<svg width="12" height="16" viewBox="0 0 12 16" fill="none" xmlns="http://www.w3.org/2000/svg">
<path fill-rule="evenodd" clip-rule="evenodd" d="M10.9495 8.18704C11.0176 8.27109 11.0717 8.37091 11.1086 8.48078C11.1456 8.59065 11.1646 8.7084 11.1647 8.8273C11.1648 8.94619 11.1459 9.0639 11.1091 9.17367C11.0724 9.28344 11.0184 9.38312 10.9504 9.467L6.56778 14.885C6.49993 14.9691 6.4193 15.0357 6.33052 15.0812C6.24173 15.1266 6.14653 15.15 6.05036 15.1499C5.9542 15.1497 5.85897 15.1262 5.77011 15.0805C5.68126 15.0348 5.60053 14.9679 5.53256 14.8836L1.14211 9.45446C1.00471 9.28455 0.927418 9.05424 0.927244 8.8142C0.927071 8.57416 1.00403 8.34405 1.14118 8.1745C1.27834 8.00494 1.46446 7.90982 1.6586 7.91007C1.85274 7.91032 2.039 8.00591 2.1764 8.17582L6.04879 12.9662L9.91425 8.18572C9.9821 8.10162 10.0627 8.03494 10.1515 7.98948C10.2403 7.94403 10.3355 7.92069 10.4317 7.92082C10.5278 7.92094 10.6231 7.94452 10.7119 7.9902C10.8008 8.03588 10.8815 8.10277 10.9495 8.18704Z" fill="#2945FF"/>
<path fill-rule="evenodd" clip-rule="evenodd" d="M6.03863 0.686565C6.23247 0.686813 6.41845 0.782276 6.55565 0.951953C6.69284 1.12163 6.77001 1.35162 6.77018 1.59133L6.77868 13.3412C6.77885 13.5809 6.70201 13.8107 6.56506 13.98C6.42812 14.1493 6.24228 14.2443 6.04843 14.2441C5.85458 14.2438 5.6686 14.1484 5.53141 13.9787C5.39422 13.809 5.31704 13.579 5.31687 13.3393L5.30838 1.58946C5.3082 1.34975 5.38504 1.11996 5.52199 0.950631C5.65894 0.781305 5.84478 0.686317 6.03863 0.686565Z" fill="#2945FF"/>
</svg>
