<svg width="330" height="371" viewBox="0 0 330 371" fill="none" xmlns="http://www.w3.org/2000/svg">
<g clip-path="url(#clip0)">
<rect width="330" height="370" transform="translate(0 0.0883789)" fill="#A5D2FB"/>
<path d="M164.736 345.977C231.414 345.977 285.467 341.313 285.467 335.561C285.467 329.808 231.414 325.145 164.736 325.145C98.0581 325.145 44.0049 329.808 44.0049 335.561C44.0049 341.313 98.0581 345.977 164.736 345.977Z" fill="#3F3D56"/>
<path d="M183.295 120.454L184.52 133.325C184.52 133.325 183.907 164.584 183.295 166.423C182.765 167.887 182.152 169.319 181.458 170.713L174.724 152.326V121.68L183.295 120.454Z" fill="#FCD3D3"/>
<path d="M120.847 167.649L114.113 178.681C114.113 178.681 115.949 182.972 115.337 186.036C114.725 189.101 114.725 190.94 115.337 192.166C115.949 193.391 118.398 219.747 117.786 222.811C117.174 225.876 116.562 227.102 117.174 228.328C117.786 229.554 117.786 229.553 117.786 230.779V237.521L118.483 270.473C118.483 270.473 116.587 276.692 120.038 277.728C126.16 279.567 136.62 277.728 136.62 276.692C139.211 272.028 134.929 246.715 136.153 245.489C137.378 244.263 138.602 246.102 137.99 243.038C137.641 241.425 137.436 239.784 137.378 238.134L137.99 235.683L147.786 199.521L170.439 249.78L178.594 282.91C178.594 282.91 199.367 285.178 195.694 277.21C192.021 269.242 188.194 233.231 188.194 233.231C188.194 233.231 188.806 230.779 188.194 228.941C187.582 227.102 186.357 227.102 186.357 225.876C186.357 224.65 185.745 224.037 185.745 222.811C185.745 221.586 185.133 217.908 185.133 217.908L180.847 179.294L120.847 167.649Z" fill="#2B2949"/>
<path d="M123.908 297.587L125.133 310.459L135.541 309.232L133.092 296.361L123.908 297.587Z" fill="#FFB8B8"/>
<path d="M120.038 277.728C120.038 277.728 124.52 303.717 123.908 306.168C123.296 308.62 118.398 322.104 118.398 322.104C118.398 322.104 114.337 325.92 116.117 333.693C114.338 337.839 118.123 338.827 122.071 339.266C136.62 340.884 136.62 334.211 136.765 330.072C137.138 328.511 137.377 320.265 137.99 319.652C138.602 319.039 140.439 314.136 139.214 313.523C139.214 309.338 138.073 309.338 136.62 304.674C135.533 293.912 136.62 276.692 136.62 276.692C136.62 276.692 125.219 279.283 120.038 277.728Z" fill="#2945FF"/>
<path d="M187.581 304.457L190.997 322.717L203.194 314.417L198.315 302.797L187.581 304.457Z" fill="#FFB8B8"/>
<path d="M178.075 282.392C186.884 306.229 188.042 313.668 188.58 316.901C189.391 321.774 187.403 327.993 190.512 332.138C189.994 334.729 191.232 337.373 192.347 337.373C196.114 337.373 231.449 332.138 231.449 332.138C234.558 332.138 233.153 327.993 230.413 326.956C235.744 308.301 221.085 313.483 221.085 313.483C221.085 313.483 206.058 318.665 201.496 310.436C200.419 313.668 198.285 279.283 195.694 277.21C188.58 281.355 186.884 281.355 178.075 282.392Z" fill="#2945FF"/>
<path d="M144.392 44.0236C143.978 41.1218 146.638 34.178 148.02 31.0688H154.238L164.084 57.4966C160.975 58.0148 154.446 58.8439 153.202 58.0148C151.958 57.1857 149.92 50.4147 149.056 47.1328C148.711 50.9329 148.02 58.1185 148.02 56.4602C148.02 54.3875 144.911 47.651 144.392 44.0236Z" fill="#FBFCBD"/>
<path d="M154.52 54.2598C154.52 54.2598 155.745 64.6794 142.888 68.3569C130.031 72.0344 174.112 85.5185 177.173 78.7764C177.173 78.7764 171.663 72.0344 172.887 65.2923C174.112 58.5502 172.887 49.3564 172.887 49.3564L154.52 54.2598Z" fill="#FCD3D3"/>
<path d="M183.296 84.2925C183.296 84.2925 190.643 84.9054 191.255 88.5829C191.867 92.2604 191.255 103.293 191.255 103.293C191.255 103.293 196.153 118.003 191.255 121.68C186.357 125.358 173.5 125.971 173.5 125.971L183.296 84.2925Z" fill="white"/>
<path d="M159.938 75.115L158.902 74.0786L159.42 73.5604C163.151 73.975 169.784 63.542 172.893 58.0147L173.411 55.9419M159.938 75.115C161.838 74.2513 165.742 72.1095 166.157 70.4513C166.571 68.7931 167.02 72.524 167.193 74.5968C167.538 72.524 168.333 68.1712 168.748 67.3421C169.162 66.513 169.957 71.8331 170.302 74.5968L171.338 62.6784C172.029 66.133 173.411 73.1459 173.411 73.5604C173.411 73.975 164.429 74.7695 159.938 75.115Z" stroke="#B08989" stroke-width="1.3473" stroke-linejoin="bevel"/>
<path d="M163.092 59.7762C172.221 59.7762 179.622 52.3671 179.622 43.2275C179.622 34.0878 172.221 26.6787 163.092 26.6787C153.962 26.6787 146.561 34.0878 146.561 43.2275C146.561 52.3671 153.962 59.7762 163.092 59.7762Z" fill="#FCD3D3"/>
<path d="M167.193 42.4695C167.02 43.3332 168.126 43.9204 173.929 39.3604" stroke="#886464" stroke-width="1.03638"/>
<path d="M154.756 40.0871C155.744 39.8114 157.954 39.5908 158.902 40.9143" stroke="#886464" stroke-width="1.03638"/>
<path d="M146.234 64.7515C146.234 64.7515 151.191 78.3429 173.815 73.0795C173.815 73.0795 189.091 83.139 189.703 85.5906C190.316 88.0423 178.071 119.301 178.071 119.301L176.846 143.205C176.846 143.205 184.805 160.979 183.581 172.625C182.356 184.27 190.928 184.883 179.908 185.496C170.341 186.028 131.604 173.42 122.051 168.028C120.599 167.209 117.217 170.82 117.459 170.173C119.296 165.27 117.459 165.883 119.296 164.657C121.132 163.431 124.194 120.527 124.194 120.527C124.194 120.527 120.52 73.9452 124.806 72.7194C129.091 71.4935 146.234 64.7515 146.234 64.7515Z" fill="white"/>
<path d="M111.051 110.035L107.99 128.423L112.888 172.553L115.949 177.456L121.765 169.181L121.459 135.165L128.194 116.164L111.051 110.035Z" fill="#FCD3D3"/>
<path d="M126.969 73.873C126.969 73.873 119.622 73.2601 117.786 79.3892C115.949 85.5184 100.643 108.809 103.704 111.261C106.765 113.713 130.03 122.293 130.643 121.68C131.255 121.068 126.969 73.873 126.969 73.873Z" fill="white"/>
<path d="M174.966 55.4238L176.521 68.8968L178.075 88.5881L174.75 101.543L172.573 112.425L178.075 103.616C179.586 99.9883 182.608 91.3863 182.608 85.9971C182.608 79.2606 181.4 67.9777 178.075 62.1603C175.415 57.5063 174.86 55.5574 174.966 55.4238C174.852 55.325 174.838 55.3125 174.966 55.4238Z" fill="#FBFCBD"/>
<path d="M148.59 31.3668C149.49 31.7353 150.465 31.881 151.434 31.7915C155.623 31.7402 159.812 31.6861 164.002 31.6291C166.414 31.5963 166.853 31.2248 167.124 33.4869C167.352 35.3886 167.68 36.8753 168.797 38.5049C170.126 40.4431 171.854 42.1807 172.573 44.4181C172.907 45.6369 173.082 46.8938 173.095 48.1576C173.239 50.886 174.822 52.6954 174.966 55.4238C174.838 55.3125 174.852 55.325 174.966 55.4238C178.846 50.4637 180.662 45.1738 182.208 39.0276C182.999 35.8888 183.442 32.5589 182.608 29.4314C181.002 23.4076 174.881 19.4496 168.719 18.5468C162.557 17.6441 156.324 19.2058 150.33 20.8988L150.955 23.925L149.277 23.7982L149.272 26.2673L147.889 26.4329L148.537 28.79L147.418 28.982C147.084 29.8919 147.727 30.9267 148.59 31.3668Z" fill="#FBFCBD"/>
<path d="M121.047 135.796C121.058 135.816 121.067 135.834 121.074 135.849V167.787C119.598 167.595 117.636 167.57 115.942 168.061C114.968 168.342 114.047 168.805 113.367 169.539C113.24 169.675 113.123 169.819 113.016 169.972C112.915 169.076 112.791 167.971 112.65 166.713C112.262 163.248 111.743 158.616 111.225 153.953C110.707 149.289 110.189 144.594 109.8 141C109.606 139.202 109.444 137.681 109.331 136.578C109.274 136.026 109.23 135.579 109.2 135.255C109.194 135.192 109.189 135.133 109.184 135.079C114.582 133.419 117.582 133.712 119.2 134.348C120.026 134.672 120.507 135.09 120.777 135.408C120.913 135.568 120.998 135.705 121.047 135.796ZM121.103 135.914C121.103 135.914 121.103 135.914 121.103 135.914L121.103 135.914Z" stroke="#B08989" stroke-width="1.03638"/>
<path d="M111.746 146.626L109.156 135.225L111.746 134.189H112.265L116.928 133.671H118.483L121.074 135.744L119.519 146.108L116.928 133.671L115.374 146.108L112.265 134.189L111.746 146.626Z" fill="#B08989"/>
<path d="M113.242 157.24L112.783 169.426L114.337 168.39L115.892 167.872L119.001 167.353L121.74 167.872L121.592 164.763L119.283 156.693L119.001 167.353L116.095 157.197L115.892 167.872L113.242 157.24Z" fill="#B08989"/>
<path d="M111.229 158.026C111.838 158.026 115.496 154.341 121.592 156.798" stroke="#B08989" stroke-width="1.03638"/>
<path d="M114.856 161.135L113.819 156.99L115.892 155.953H118.483L117.965 161.135L115.892 155.953L114.856 161.135Z" fill="#B08989"/>
<path d="M111.229 158.026C111.838 158.026 115.496 154.341 121.592 156.798" stroke="#B08989" stroke-width="1.03638"/>
<path d="M114.856 161.135L113.819 156.99L115.892 155.953H118.483L117.965 161.135L115.892 155.953L114.856 161.135Z" fill="#B08989"/>
<path d="M111.229 158.026C111.838 158.026 115.496 154.341 121.592 156.798" stroke="#B08989" stroke-width="1.03638"/>
<path d="M114.856 161.135L113.819 156.99L115.892 155.953H118.483L117.965 161.135L115.892 155.953L114.856 161.135Z" fill="#B08989"/>
<path d="M110.192 148.695C110.824 148.729 114.809 145.248 121 148.033" stroke="#B08989" stroke-width="1.03638"/>
<path d="M117.101 141.443L119.001 147.144L115.374 146.625L112.265 147.662L112.956 141.443L115.374 146.625L117.101 141.443Z" fill="#B08989"/>
<path d="M115.523 122.528C115.205 123.653 114.609 124.56 113.928 125.124C113.245 125.691 112.524 125.882 111.902 125.706C111.28 125.529 110.766 124.988 110.481 124.148C110.198 123.31 110.165 122.225 110.484 121.101C110.802 119.977 111.399 119.07 112.079 118.505C112.762 117.939 113.484 117.748 114.106 117.924C114.728 118.1 115.242 118.641 115.526 119.481C115.81 120.319 115.842 121.404 115.523 122.528Z" stroke="#B08989" stroke-width="1.03638"/>
<path d="M111.229 119.161L112.783 121.752L115.374 120.198M113.819 118.125L111.747 125.38" stroke="#B08989" stroke-width="1.03638" stroke-linejoin="bevel"/>
<path d="M113.301 155.953C113.819 155.953 115.892 154.917 115.374 153.362C114.959 152.119 114.165 151.808 113.819 151.808C113.301 151.98 112.265 152.533 112.265 153.362C112.265 154.191 112.956 154.399 113.301 154.399L113.819 153.88" stroke="#B08989" stroke-width="1.03638"/>
<path d="M114.039 147.215C113.612 147.509 112.495 149.539 113.804 150.525C114.852 151.313 115.683 151.117 115.967 150.921C116.295 150.485 116.834 149.441 116.363 148.759C115.892 148.076 115.206 148.298 114.922 148.494L114.79 149.215" stroke="#B08989" stroke-width="1.03638"/>
<path d="M118.211 150.197C117.698 150.275 115.803 151.608 116.547 153.068C117.143 154.236 117.975 154.425 118.316 154.374C118.803 154.126 119.745 153.425 119.622 152.605C119.498 151.785 118.784 151.683 118.442 151.735L118.007 152.324" stroke="#B08989" stroke-width="1.03638"/>
<path d="M166.493 39.9688C164.581 39.0462 160.444 38.9972 158.615 39.088C157.924 39.0107 156.722 39.4966 157.443 42.058C158.345 45.2598 163.686 46.3 165.344 46.4855C167.003 46.6709 168.883 41.122 166.493 39.9688Z" fill="#F979BE"/>
<path d="M146.807 38.2926C148.651 37.722 152.342 38.3206 153.958 38.6912C154.585 38.7262 155.581 39.3709 154.547 41.6701C153.254 44.544 148.338 44.6908 146.833 44.6069C145.328 44.523 144.503 39.0059 146.807 38.2926Z" fill="#F979BE"/>
</g>
<defs>
<clipPath id="clip0">
<rect width="330" height="370" fill="white" transform="translate(0 0.0883789)"/>
</clipPath>
</defs>
</svg>
