<svg width="330" height="370" viewBox="0 0 330 370" fill="none" xmlns="http://www.w3.org/2000/svg">
<rect width="330" height="370" fill="#FFD967"/>
<g clip-path="url(#clip0)">
<rect width="330" height="370" rx="30" fill="#FFD967"/>
<path opacity="0.3" d="M6.10697 100.032H56.4142V168.573H9.78532C9.66635 169.282 9.54737 169.985 9.41352 170.694H56.4142V225.96C56.3349 225.96 56.2556 225.901 56.1812 225.871C54.8593 225.346 53.5373 224.789 52.2153 224.201C51.9328 224.073 51.6551 223.939 51.3676 223.815C50.0457 223.191 48.7237 222.53 47.4017 221.833C46.9407 221.59 46.4797 221.338 46.0285 221.08C38.6895 216.987 32.0193 211.797 26.2487 205.69C26.0752 205.527 25.9166 205.348 25.753 205.195C24.9499 204.323 24.1617 203.441 23.3982 202.539C23.1107 202.207 22.8331 201.87 22.5505 201.548C21.6483 200.448 20.7758 199.308 19.933 198.164C19.8041 197.99 19.6852 197.822 19.5612 197.668C16.1089 192.893 13.246 187.719 11.0346 182.258C10.9652 182.095 10.9007 181.917 10.8363 181.763C10.1522 180.029 9.5325 178.27 8.9971 176.476C8.76906 175.728 8.54599 174.99 8.35761 174.212C8.2882 173.989 8.23367 173.761 8.17418 173.538C5.38815 162.563 5.06592 151.157 5.06592 139.805C5.06592 138.484 5.06592 137.162 5.06592 135.841C5.10558 131.207 5.16011 126.577 5.22951 121.953C5.25595 120.763 5.28074 119.569 5.30387 118.37C5.37328 115.335 5.47242 112.292 5.60131 109.243C5.63106 108.401 5.67072 107.554 5.71533 106.716C5.73516 106.231 5.75995 105.745 5.7897 105.26C5.87893 103.506 5.98468 101.763 6.10697 100.032Z" fill="white"/>
<path opacity="0.4" d="M56.414 23.7174H28.8164C33.3046 16.7037 38.2061 9.96308 43.4951 3.53118C47.5998 -1.50297 51.9226 -6.4083 56.414 -11.1353V23.7174Z" fill="white"/>
<path opacity="0.4" d="M56.4142 25.8281V97.9117H6.26562C6.26562 97.7036 6.29537 97.4905 6.3152 97.2824C6.35981 96.7126 6.40443 96.1478 6.454 95.5779C6.50358 94.914 6.56802 94.25 6.63247 93.596C6.69691 92.9419 6.76136 92.1492 6.84068 91.4307C6.91999 90.7123 6.98444 89.9839 7.06376 89.2654C7.14308 88.547 7.22239 87.8285 7.31163 87.115C7.40086 86.4015 7.48017 85.6781 7.57932 84.9646C7.65368 84.375 7.72804 83.7804 7.81232 83.1858C7.92634 82.3484 8.04531 81.5111 8.16925 80.6786C8.16925 80.5498 8.20891 80.4259 8.22874 80.3021C9.13476 74.209 10.3659 68.1686 11.917 62.2069C13.5458 55.9539 15.6251 49.8269 18.1385 43.8738C20.8092 37.6363 23.9376 31.6046 27.498 25.8281H56.4142Z" fill="white"/>
<path opacity="0.4" d="M68.4307 100.032V168.573H175.886V100.032H68.4307ZM68.4307 170.694V229.558C69.0454 229.682 69.6502 229.806 70.2599 229.91C71.0779 230.068 71.9008 230.212 72.7386 230.336L73.2343 230.405C73.5615 230.46 73.8937 230.504 74.2258 230.544C75.0537 230.663 75.8816 230.752 76.7045 230.831C77.0912 230.871 77.4927 230.901 77.8843 230.935L78.8411 231.005C79.3616 231.044 79.8772 231.074 80.3928 231.094C80.71 231.094 81.0273 231.119 81.3495 231.129C81.6718 231.138 81.8453 231.129 82.103 231.129H83.04C83.4663 231.129 83.8927 231.129 84.314 231.129H84.8593C85.2857 231.129 85.712 231.129 86.1334 231.089H86.1582C86.4556 231.089 86.7481 231.089 87.0455 231.054C87.1297 231.059 87.2141 231.059 87.2984 231.054C87.5462 231.054 87.7941 231.054 88.032 231.024C88.0881 231.02 88.1445 231.02 88.2006 231.024C88.7509 230.99 89.3061 230.945 89.8663 230.896C90.4264 230.846 90.9569 230.787 91.5171 230.727L92.6424 230.588C97.2408 229.945 101.788 228.978 106.25 227.695C116.279 224.9 126.08 220.991 136.104 218.132C149.052 214.44 163.369 212.622 175.881 217.116V170.694H68.4307ZM175.886 23.7173V-67.5317C164.123 -67.661 152.391 -66.2873 140.977 -63.4439C113.766 -56.6111 89.3309 -41.7911 68.4307 -22.8635V23.7124H73.8391V25.8281H68.4307V97.9117H175.886V25.8281H95.9638V23.7074L175.886 23.7173ZM313.939 -7.10695C307.207 -7.34479 300.514 -9.47043 294.456 -12.7654C282.886 -19.0532 273.635 -28.7746 263.304 -36.97C241.839 -54.0495 215.218 -64.3606 187.908 -66.9173V23.7173H341.293L341.675 23.316L313.939 -7.10695ZM327.913 -9.5844L342.731 6.67256V-13.8605C337.744 -13.2312 333.401 -11.7695 327.913 -9.60421V-9.5844ZM342.731 244.175V170.694H311.133C311.053 170.382 310.964 170.065 310.865 169.747C310.959 170.065 311.044 170.382 311.128 170.694H187.908V223.83C189.078 224.697 190.233 225.614 191.378 226.535C192.614 227.546 193.842 228.568 195.061 229.602L196.291 230.618C196.881 231.114 197.481 231.609 198.075 232.08C199.268 233.041 200.47 233.992 201.679 234.934C202.284 235.41 202.892 235.877 203.504 236.336C213.186 243.732 223.4 250.408 234.061 256.309C236.45 257.642 238.865 258.925 241.294 260.179C242.91 261.011 244.537 261.827 246.177 262.627C248.635 263.826 251.114 264.982 253.613 266.095C276.647 276.43 301.005 283.52 325.99 287.163C331.536 287.979 337.106 288.623 342.701 289.096V244.165H343.197L342.731 244.175ZM187.908 25.8281V97.9117H342.731V25.8281H187.908ZM187.908 100.022V168.573H342.731V100.032L187.908 100.022ZM354.748 -13.9596V8.98154L373.655 -11.7645C367.389 -12.7985 361.086 -13.5301 354.748 -13.9596ZM354.748 100.032V168.573H505.327V100.032H354.748ZM504.797 249.61L505.327 170.694H354.748V289.893C364.447 290.296 374.161 290.179 383.847 289.542H384.016C388.643 289.244 393.248 288.821 397.832 288.273H397.936C422.398 285.427 446.317 279.041 468.94 269.316L504.797 249.61ZM534.377 111.29C533.806 109.969 533.219 108.647 532.618 107.326C531.497 104.849 530.317 102.44 529.098 100.037H517.349V168.573H547.048C547.024 149.16 542.106 129.34 534.377 111.29ZM517.349 170.694V238.576C525.712 230.564 532.786 221.392 537.872 210.908C543.995 198.278 546.796 184.612 547.029 170.689L517.349 170.694ZM517.349 80.0593V97.8968H527.997C524.769 91.765 521.215 85.8106 517.349 80.0593ZM415.227 -0.507057C414.444 -0.809303 413.656 -1.11155 412.868 -1.39893C404.557 -4.46892 396.063 -7.02063 387.436 -9.03935L358.495 22.7016L357.93 23.311L358.302 23.7124H461.306C446.959 13.8453 431.492 5.71526 415.227 -0.507057ZM464.33 25.8281H356.859L354.748 27.7556V97.9117H373.263H505.327V63.9212C493.386 49.4874 479.603 36.6805 464.33 25.8281Z" fill="white"/>
<path opacity="0.4" d="M6.10697 100.032H56.4142V168.573H9.78532C9.66635 169.282 9.54737 169.985 9.41352 170.694H56.4142V225.96C56.3349 225.96 56.2556 225.901 56.1812 225.871C54.8593 225.346 53.5373 224.789 52.2153 224.201C51.9328 224.073 51.6551 223.939 51.3676 223.815C50.0457 223.191 48.7237 222.53 47.4017 221.833C46.9407 221.59 46.4797 221.338 46.0285 221.08C38.6895 216.987 32.0193 211.797 26.2487 205.69C26.0752 205.527 25.9166 205.348 25.753 205.195C24.9499 204.323 24.1617 203.441 23.3982 202.539C23.1107 202.207 22.8331 201.87 22.5505 201.548C21.6483 200.448 20.7758 199.308 19.933 198.164C19.8041 197.99 19.6852 197.822 19.5612 197.668C16.1089 192.893 13.246 187.719 11.0346 182.258C10.9652 182.095 10.9007 181.917 10.8363 181.763C10.1522 180.029 9.5325 178.27 8.9971 176.476C8.76906 175.728 8.54599 174.99 8.35761 174.212C8.2882 173.989 8.23367 173.761 8.17418 173.538C5.38815 162.563 5.06592 151.157 5.06592 139.805C5.06592 138.484 5.06592 137.162 5.06592 135.841C5.10558 131.207 5.16011 126.577 5.22951 121.953C5.25595 120.763 5.28074 119.569 5.30387 118.37C5.37328 115.335 5.47242 112.292 5.60131 109.243C5.63106 108.401 5.67072 107.554 5.71533 106.716C5.73516 106.231 5.75995 105.745 5.7897 105.26C5.87893 103.506 5.98468 101.763 6.10697 100.032Z" fill="white"/>
<path opacity="0.4" d="M106.255 36.1542V97.9118H68.4258V36.1542H73.8194V15.2446H95.9589V36.1542H106.255Z" fill="white"/>
<path opacity="0.4" d="M106.25 100.027H68.4258V168.568H106.25V100.027Z" fill="white"/>
<path opacity="0.4" d="M68.4307 170.694H106.255V227.675C101.793 228.959 97.246 229.924 92.6473 230.564C92.2706 230.618 91.8988 230.663 91.522 230.702C90.9668 230.767 90.4165 230.826 89.8662 230.876L88.2055 231.01H88.037L87.3033 231.049H87.0505C86.753 231.049 86.4606 231.084 86.1631 231.089H86.1383C85.712 231.089 85.2906 231.119 84.8643 231.128H84.319C83.8976 231.128 83.4762 231.128 83.0449 231.128H82.113H81.3545C81.0323 231.128 80.715 231.128 80.3928 231.089C79.8838 231.069 79.3682 231.039 78.8461 231L77.8893 230.93C77.4927 230.901 77.0961 230.861 76.7045 230.821C75.8716 230.749 75.0454 230.654 74.2258 230.539L73.2343 230.4L72.7386 230.331C71.9107 230.207 71.0878 230.068 70.2599 229.91C69.6452 229.801 69.0404 229.677 68.4307 229.548V170.694Z" fill="white"/>
<path opacity="0.4" d="M342.726 28.8604H311.534V97.9066H342.726V28.8604Z" fill="white"/>
<path opacity="0.4" d="M342.731 100.027V168.573H187.908V139.007H270.373V156.449H311.534V100.027H342.731Z" fill="white"/>
<path opacity="0.4" d="M343.222 244.19C343.058 244.19 342.894 244.19 342.726 244.16V289.125C337.137 288.666 331.568 288.024 326.02 287.198C301.026 283.556 276.659 276.469 253.612 266.14C246.96 263.14 240.442 259.872 234.061 256.334C223.403 250.43 213.192 243.755 203.509 236.361C201.069 234.498 198.667 232.594 196.301 230.648C194.66 229.29 193.034 227.903 191.378 226.56C190.238 225.634 189.083 224.717 187.908 223.845V170.694H311.128C311.038 170.377 310.959 170.065 310.87 169.748C310.964 170.065 311.053 170.377 311.133 170.694H342.731V244.155C342.894 244.16 343.058 244.175 343.222 244.19Z" fill="white"/>
<path opacity="0.1" d="M342.731 48.0557H326.02V69.7035H342.731V48.0557Z" fill="#56D7FF"/>
<path opacity="0.1" d="M342.731 92.9272H326.02V97.9119H342.731V92.9272Z" fill="#56D7FF"/>
<path opacity="0.1" d="M342.731 100.027H326.02V114.57H342.731V100.027Z" fill="#56D7FF"/>
<path opacity="0.1" d="M342.731 137.798H326.02V159.446H342.731V137.798Z" fill="#56D7FF"/>
<path opacity="0.1" d="M342.731 182.67H326.02V204.318H342.731V182.67Z" fill="#56D7FF"/>
<path opacity="0.1" d="M342.731 244.155C342.894 244.155 343.058 244.155 343.227 244.189C343.063 244.189 342.899 244.189 342.731 244.16V249.189H326.02V227.541H342.731V244.155Z" fill="#56D7FF"/>
<path opacity="0.1" d="M342.731 272.408V289.126C337.139 288.666 331.568 288.024 326.02 287.198V272.408H342.731Z" fill="#56D7FF"/>
<path opacity="0.1" d="M259.527 166.982H187.908V168.573H259.527V166.982Z" fill="#56D7FF"/>
<path opacity="0.1" d="M259.527 170.689H187.908V176.784H259.527V170.689Z" fill="#56D7FF"/>
<path opacity="0.1" d="M259.527 196.762H187.908V206.563H259.527V196.762Z" fill="#56D7FF"/>
<path opacity="0.1" d="M259.527 226.541V236.341H203.509C201.07 234.485 198.667 232.579 196.301 230.623C194.655 229.271 193.029 227.883 191.378 226.541H259.527Z" fill="#56D7FF"/>
<path opacity="0.1" d="M259.527 256.314V266.14H253.613C246.96 263.141 240.443 259.872 234.061 256.334L259.527 256.314Z" fill="#56D7FF"/>
<path opacity="0.4" d="M92.6822 41.0146H78.5835V55.1063H92.6822V41.0146Z" fill="white"/>
<path opacity="0.4" d="M92.6822 73.7471H78.5835V87.8387H92.6822V73.7471Z" fill="white"/>
<path opacity="0.4" d="M92.6822 106.479H78.5835V120.57H92.6822V106.479Z" fill="white"/>
<path opacity="0.4" d="M92.6822 139.206H78.5835V153.297H92.6822V139.206Z" fill="white"/>
<path opacity="0.4" d="M92.6822 171.938H78.5835V186.029H92.6822V171.938Z" fill="white"/>
<path opacity="0.4" d="M92.6822 204.669H78.5835V218.761H92.6822V204.669Z" fill="white"/>
<path opacity="0.4" d="M8.16895 80.2871V88.3487H56.4139V80.2871H8.16895ZM12.9726 87.8433H9.00674V80.7975H12.9726V87.8433ZM17.7763 87.8433H13.8104V80.7975H17.7763V87.8433ZM22.5701 87.8433H18.6042V80.7975H22.5701V87.8433ZM27.3737 87.8433H23.4078V80.7975H27.3737V87.8433ZM32.1724 87.8433H28.2066V80.7975H32.1724V87.8433ZM36.9761 87.8433H33.0102V80.7975H36.9761V87.8433ZM41.7798 87.8433H37.8139V80.7975H41.7798V87.8433ZM46.5785 87.8433H42.6126V80.7975H46.5785V87.8433ZM51.3772 87.8433H47.4114V80.7975H51.3772V87.8433ZM56.1809 87.8433H52.215V80.7975H56.1809V87.8433Z" fill="white"/>
<path opacity="0.4" d="M8.16895 103.753V111.815H56.4139V103.753H8.16895ZM12.9726 111.31H9.00674V104.264H12.9726V111.31ZM17.7763 111.31H13.8104V104.264H17.7763V111.31ZM22.5701 111.31H18.6042V104.264H22.5701V111.31ZM27.3737 111.31H23.4078V104.264H27.3737V111.31ZM32.1724 111.31H28.2066V104.264H32.1724V111.31ZM36.9761 111.31H33.0102V104.264H36.9761V111.31ZM41.7798 111.31H37.8139V104.264H41.7798V111.31ZM46.5785 111.31H42.6126V104.264H46.5785V111.31ZM51.3772 111.31H47.4114V104.264H51.3772V111.31ZM56.1809 111.31H52.215V104.264H56.1809V111.31Z" fill="white"/>
<path opacity="0.4" d="M8.16895 127.225V135.281H56.4139V127.225H8.16895ZM12.9726 134.771H9.00674V127.725H12.9726V134.771ZM17.7763 134.771H13.8104V127.725H17.7763V134.771ZM22.5701 134.771H18.6042V127.725H22.5701V134.771ZM27.3737 134.771H23.4078V127.725H27.3737V134.771ZM32.1724 134.771H28.2066V127.725H32.1724V134.771ZM36.9761 134.771H33.0102V127.725H36.9761V134.771ZM41.7798 134.771H37.8139V127.725H41.7798V134.771ZM46.5785 134.771H42.6126V127.725H46.5785V134.771ZM51.3772 134.771H47.4114V127.725H51.3772V134.771ZM56.1809 134.771H52.215V127.725H56.1809V134.771Z" fill="white"/>
<path opacity="0.4" d="M8.16895 150.691V158.748H56.4139V150.691H8.16895ZM12.9726 158.242H9.00674V151.186H12.9726V158.242ZM17.7763 158.242H13.8104V151.186H17.7763V158.242ZM22.5701 158.242H18.6042V151.186H22.5701V158.242ZM27.3737 158.242H23.4078V151.186H27.3737V158.242ZM32.1724 158.242H28.2066V151.186H32.1724V158.242ZM36.9761 158.242H33.0102V151.186H36.9761V158.242ZM41.7798 158.242H37.8139V151.186H41.7798V158.242ZM46.5785 158.242H42.6126V151.186H46.5785V158.242ZM51.3772 158.242H47.4114V151.186H51.3772V158.242ZM56.1809 158.242H52.215V151.186H56.1809V158.242Z" fill="white"/>
<path opacity="0.4" d="M8.40234 174.147C8.59072 174.911 8.8138 175.664 9.04184 176.412V174.658H13.0077V181.699H10.881C10.9405 181.867 11.005 182.041 11.0744 182.194H56.4342V174.147H8.40234ZM17.8213 181.699H13.8554V174.658H17.8213V181.699ZM22.6151 181.699H18.6492V174.658H22.6151V181.699ZM27.4188 181.699H23.4529V174.658H27.4188V181.699ZM32.2175 181.699H28.2516V174.658H32.2175V181.699ZM37.0212 181.699H33.0553V174.658H37.0212V181.699ZM41.8248 181.699H37.8589V174.658H41.8248V181.699ZM46.6236 181.699H42.6577V174.658H46.6236V181.699ZM51.4223 181.699H47.4564V174.658H51.4223V181.699ZM56.226 181.699H52.2601V174.658H56.226V181.699Z" fill="white"/>
<path opacity="0.4" d="M19.5762 197.614C19.7051 197.772 19.824 197.951 19.948 198.109H22.5704V201.493L23.4181 202.484V198.089H27.384V205.195H25.753C25.9117 205.358 26.0653 205.532 26.2488 205.69H56.4044V197.614H19.5762ZM32.1976 205.195H28.2317V198.119H32.1976V205.195ZM37.0013 205.195H33.0354V198.119H37.0013V205.195ZM41.805 205.195H37.8391V198.119H41.805V205.195ZM46.6037 205.195H42.6378V198.119H46.6037V205.195ZM51.4024 205.195H47.4365V198.119H51.4024V205.195ZM56.2061 205.195H52.2402V198.119H56.2061V205.195Z" fill="white"/>
<path opacity="0.3" d="M46.0435 221.08C46.4995 221.338 46.9606 221.576 47.4216 221.828V221.581H51.3875V223.815C51.675 223.939 51.9477 224.073 52.2302 224.202V221.581H56.1961V225.871C56.2715 225.905 56.3494 225.934 56.4291 225.956V221.08H46.0435Z" fill="white"/>
<path opacity="0.1" d="M342.726 244.155H343.222H342.726ZM310.865 169.748C310.96 170.065 311.044 170.382 311.128 170.694C311.054 170.382 310.964 170.065 310.865 169.748ZM73.8394 23.7174V25.8282H95.9839V23.7075L73.8394 23.7174ZM342.731 244.155H343.227H342.731ZM310.865 169.748C310.96 170.065 311.044 170.382 311.128 170.694C311.054 170.382 310.964 170.065 310.865 169.748ZM342.726 244.155H343.222H342.726ZM310.865 169.748C310.96 170.065 311.044 170.382 311.128 170.694C311.054 170.382 310.964 170.065 310.865 169.748Z" fill="#56D7FF"/>
<path d="M241.943 139.449C241.931 139.399 241.906 139.355 241.869 139.32C241.13 138.591 231.711 125.278 231.711 125.278C231.711 125.278 231.215 123.791 230.412 121.859C230.67 121.526 230.863 121.148 230.982 120.744C231.026 120.573 231.057 120.399 231.077 120.224C231.077 120.169 231.116 120.125 231.131 120.07C231.303 119.398 231.286 118.691 231.082 118.029C231.027 118.199 230.959 118.364 230.878 118.524C230.692 117.947 230.443 117.392 230.135 116.869C228.886 114.719 227.101 112.905 225.787 110.809C223.798 107.553 223.007 103.705 223.551 99.9284C223.551 100.122 223.551 100.32 223.551 100.513C223.601 99.7641 223.7 99.0193 223.849 98.2834C224.056 97.4459 224.333 96.6271 224.677 95.8357C225.857 93.1353 227.765 90.7817 228.925 88.0714C229.314 87.1572 229.61 86.206 229.808 85.2323C230.216 83.606 230.365 81.9254 230.249 80.2526C230.249 80.649 230.184 81.0454 230.125 81.4368C229.999 77.415 228.375 73.5853 225.569 70.6996C221.519 66.6316 215.704 65.051 210.142 64.2186C207.804 63.946 205.572 63.0945 203.648 61.7412C201.511 60.3588 198.75 60.0268 196.251 60.329C193.38 60.6394 190.711 61.958 188.721 64.0502C186.079 66.9537 184.934 71.0663 181.85 73.514C179.981 75.0004 177.612 75.6941 175.435 76.7049C173.259 77.7157 171.202 79.1824 170.503 81.3526C170.503 81.3526 170.503 81.3229 170.503 81.308V81.4319L170.473 81.5112C169.749 84.0778 171.147 86.689 171.876 89.2507C172.634 91.9015 172.684 94.701 172.724 97.4411C172.778 100.791 172.828 104.145 172.773 107.499C172.748 108.817 172.704 110.15 172.605 111.463C171.431 111.818 170.292 112.276 169.199 112.831C168.088 113.554 163.934 118.039 163.934 118.039L155.809 149.066L155.918 149.19L155.809 149.611L156.221 149.517C157.371 150.756 160.806 154.283 164.514 156.483L164.861 162.568C164.861 162.568 165.278 168.672 170.894 171.194C171.023 173.31 171.425 181.902 169.566 185.306C168.278 187.793 167.673 190.576 167.811 193.372C167.811 193.372 168.46 198.535 167.722 201.251C167.29 203.065 167.258 204.952 167.627 206.78C167.627 206.78 167.627 207.38 167.627 208.411C167.627 213.906 167.692 231.515 167.627 233.507C167.533 235.861 167.627 270.669 167.627 270.669C167.627 270.669 167.166 288.065 165.689 292.777C164.212 297.489 164.584 313.092 164.584 313.092C164.584 313.092 163.657 331.678 166.933 335.345C166.933 335.508 166.904 335.677 166.899 335.84C166.899 335.914 166.899 335.999 166.899 336.073C166.859 337.485 167.132 338.986 168.346 339.447C170.825 340.399 174.102 343.253 174.721 344.07C175.341 344.888 178.945 346.924 183.645 346.379C186.589 346.048 189.551 345.913 192.513 345.973C192.513 345.973 194.367 345.636 193.768 343.332C193.381 341.895 191.933 339.685 190.902 338.233C191.091 338.283 191.274 338.323 191.448 338.357L191.626 338.392H191.765C191.841 338.396 191.917 338.396 191.993 338.392H192.092C192.184 338.399 192.277 338.399 192.37 338.392C193.614 338.273 198.254 340.433 199.082 341.86C199.91 343.287 202.83 344.372 205.031 344.645C206.339 344.803 209.641 344.536 212.412 344.179C213.808 344.035 215.19 343.783 216.547 343.426C217.201 343.178 217.34 342.385 217.151 341.494C216.929 340.361 216.323 339.339 215.436 338.6C214.633 338.03 213.572 336.529 212.789 335.3L212.581 334.968C213.964 333.65 216.462 329.339 217.221 328.447C218.143 327.362 215.734 287.679 215.734 287.679V267.785L219.427 248.956L222.01 238.992L224.226 223.949C224.226 223.949 228.102 206.379 226.908 204.655C226.908 204.62 225.916 186.53 224.875 182.184C224.424 180.247 224.538 175.887 224.806 171.645C225.085 171.368 225.28 171.016 225.368 170.632C225.456 170.248 225.433 169.847 225.301 169.475C225.227 169.221 225.131 168.974 225.014 168.737C225.014 168.663 225.014 168.583 225.014 168.509C227.155 167.524 229.393 166.764 231.691 166.24C235.385 165.516 234.463 163.613 234.463 163.613C234.463 163.613 235.295 161.983 235.846 160.987C236.396 159.991 235.94 151.202 235.846 150.478C235.811 150.186 235.583 148.57 235.32 146.737C236.505 145.895 238.047 144.849 239.727 143.858C242.925 141.966 242.206 139.969 241.943 139.449ZM193.758 265.07C193.758 265.07 190.986 272.135 192.097 273.944C193.207 275.752 191.914 282.466 191.914 282.466L190.986 292.43C190.986 292.43 188.404 310.912 189.326 315.258C190.05 318.667 190.317 328.849 190.402 333.095C190.338 333.12 190.277 333.15 190.218 333.184L190.094 333.249C190.521 331.579 190.342 328.2 188.225 321.402L188.047 293.322C188.047 293.322 187.72 260.888 190.283 257.261C192.846 253.634 193.753 247.475 193.753 247.475C193.753 247.475 193.197 256.359 192.836 258.712C192.474 261.066 193.758 265.07 193.758 265.07ZM188.597 334.864C188.572 334.923 188.543 334.983 188.523 335.037L188.384 334.859C188.455 334.866 188.526 334.868 188.597 334.864Z" fill="url(#paint0_linear)"/>
<path d="M216.859 345.993C215.426 346.543 207.658 347.479 205.487 347.217C203.315 346.954 200.44 345.854 199.622 344.417C198.804 342.98 194.219 340.81 192.989 340.949C192.485 340.964 191.982 340.893 191.502 340.741C190.654 340.484 189.825 340.166 189.023 339.789C188.911 339.165 188.93 338.524 189.078 337.906C189.106 337.782 189.143 337.66 189.187 337.54C189.476 336.727 190.075 336.061 190.853 335.687L191.031 335.602C191.375 335.454 191.734 335.344 192.102 335.275C195.998 334.527 212.075 336.029 212.075 336.029C212.075 336.029 212.526 336.836 213.146 337.837C213.919 339.076 214.97 340.587 215.763 341.157C216.642 341.908 217.238 342.935 217.454 344.07C217.642 344.947 217.503 345.75 216.859 345.993Z" fill="white"/>
<path opacity="0.1" d="M216.859 345.992C215.426 346.542 207.663 347.479 205.492 347.216C203.32 346.954 200.445 345.849 199.622 344.417C198.799 342.985 194.224 340.809 192.994 340.948C191.765 341.087 189.028 339.789 189.028 339.789C189.028 339.789 188.602 337.807 189.841 336.454L192.32 338.213C192.32 338.213 198.953 340.269 200.182 342.177C201.412 344.085 203.653 345.15 206.89 345.343C209.309 345.502 214.866 344.56 217.469 344.09C217.642 344.947 217.508 345.75 216.859 345.992Z" fill="black"/>
<path d="M193.128 348.519C190.204 348.462 187.279 348.6 184.373 348.93C179.718 349.476 176.164 347.444 175.544 346.607C174.925 345.769 171.717 342.94 169.253 341.949C168.049 341.483 167.766 339.967 167.821 338.55C167.821 338.476 167.821 338.391 167.821 338.317C167.866 337.419 167.999 336.528 168.217 335.656L187.506 335.245L189.177 337.509L189.435 337.856L190.451 339.239C190.451 339.239 190.912 339.843 191.517 340.725C192.538 342.212 193.966 344.407 194.348 345.858C194.957 348.182 193.128 348.519 193.128 348.519Z" fill="white"/>
<path opacity="0.1" d="M193.128 348.519C190.204 348.462 187.279 348.6 184.373 348.931C179.723 349.476 176.164 347.444 175.549 346.607C174.935 345.769 171.717 342.915 169.253 341.959C168.049 341.493 167.766 339.977 167.821 338.56C169.199 338.882 172.094 339.705 173.229 341.137C174.716 343.049 177.379 346.265 181.161 346.468C184.215 346.632 191.651 346.087 194.377 345.869C194.962 348.182 193.128 348.519 193.128 348.519Z" fill="black"/>
<path opacity="0.1" d="M190.833 335.666C190.61 337.321 189.921 337.767 189.425 337.866C189.304 337.89 189.179 337.89 189.058 337.866C188.993 337.862 188.928 337.852 188.865 337.837C188.865 337.837 171.544 341.662 168.044 338.565C167.955 338.485 167.872 338.399 167.796 338.307C167.842 337.41 167.974 336.519 168.192 335.647L187.482 335.235L189.152 337.5C189.442 336.687 190.04 336.021 190.818 335.647L190.833 335.666Z" fill="black"/>
<path opacity="0.1" d="M213.141 337.817C212.754 338.243 212.432 338.486 212.229 338.402C211.317 338.035 203.841 336.762 201.466 337.857C199.092 338.952 191.056 338.035 191.056 338.035C191.056 338.035 191.056 337.084 191.011 335.557C191.355 335.409 191.714 335.299 192.082 335.23C195.978 334.482 212.055 335.984 212.055 335.984C212.055 335.984 212.526 336.816 213.141 337.817Z" fill="black"/>
<path d="M224.453 225.738L222.262 240.87L219.714 250.899L216.066 269.856V289.923C216.066 289.923 218.435 329.85 217.523 330.94C216.611 332.03 213.146 338.238 212.234 337.876C211.321 337.515 203.846 336.236 201.471 337.326C199.097 338.417 191.061 337.51 191.061 337.51C191.061 337.51 190.877 322.016 189.965 317.641C189.053 313.266 191.606 294.67 191.606 294.67L192.518 284.646C192.518 284.646 193.797 277.898 192.702 276.074C191.606 274.251 194.342 267.155 194.342 267.155C194.342 267.155 193.068 263.137 193.435 260.769C193.802 258.4 194.342 249.467 194.342 249.467C194.342 249.467 193.435 255.67 190.902 259.312C188.369 262.954 188.691 295.592 188.691 295.592L188.87 323.834C193.435 338.788 188.87 337.326 188.87 337.326C188.87 337.326 171.549 341.157 168.049 338.055C164.549 334.953 165.55 315.431 165.55 315.431C165.55 315.431 165.188 299.754 166.646 295.017C168.103 290.28 168.564 272.774 168.564 272.774C168.564 272.774 168.47 237.768 168.564 235.405C168.634 233.423 168.564 215.679 168.564 210.135C168.564 209.104 168.564 208.495 168.564 208.495L170.656 203.302L195.443 200.2H207.301C207.301 200.2 225.147 204.392 226.992 206.201C227.031 206.231 227.065 206.268 227.091 206.31C228.285 208.059 224.453 225.738 224.453 225.738Z" fill="#2945FF"/>
<path opacity="0.1" d="M194.357 305.224C194.357 305.224 199.811 318.349 202.383 319.261C204.956 320.173 194.357 305.224 194.357 305.224Z" fill="black"/>
<path opacity="0.1" d="M196.375 324.548C196.375 324.548 214.787 325.46 214.604 327.466C214.42 329.473 196.375 324.548 196.375 324.548Z" fill="black"/>
<path opacity="0.1" d="M171.742 319.301C172.471 319.99 185.786 321.283 184.691 322.541C183.595 323.8 172.838 326.248 172.838 326.248L171.742 319.301Z" fill="black"/>
<path opacity="0.1" d="M169.556 296.657C169.556 297.202 172.293 314.157 173.026 314.886C173.76 315.614 179.773 316.342 179.773 316.342L169.556 296.657Z" fill="black"/>
<path d="M189.41 64.8973C186.798 67.8158 185.667 71.9531 182.624 74.4206C180.774 75.9071 178.435 76.6156 176.283 77.6264C174.132 78.6372 172 80.1782 171.36 82.4673C170.647 85.0439 172.025 87.6749 172.749 90.2514C173.497 92.9172 173.542 95.7018 173.586 98.4914C173.636 101.866 173.69 105.24 173.631 108.614C173.542 113.871 173.105 119.371 170.314 123.826C180.393 127.032 191.111 127.468 201.68 127.879C203.711 128.024 205.751 127.972 207.772 127.725C209.524 127.376 211.256 126.938 212.963 126.412C216.337 125.52 219.813 125.075 223.304 125.089C224.826 125.089 226.377 125.183 227.845 124.787C229.312 124.391 230.725 123.375 231.121 121.908C231.473 120.59 230.958 119.188 230.284 118.004C229.054 115.843 227.309 114.04 225.991 111.909C224.644 109.659 223.846 107.124 223.659 104.508C223.472 101.893 223.902 99.2702 224.915 96.8513C226.085 94.1311 227.968 91.7627 229.119 89.0375C230.297 86.1115 230.61 82.9092 230.021 79.8106C229.432 76.712 227.966 73.8473 225.797 71.5567C221.797 67.464 216.056 65.8784 210.563 65.0361C208.25 64.763 206.044 63.9109 204.148 62.5586C202.042 61.1713 199.31 60.8343 196.841 61.1415C193.993 61.4605 191.355 62.7938 189.41 64.8973Z" fill="#3F3D56"/>
<g opacity="0.1">
<path opacity="0.1" d="M225.068 93.9925C224.058 96.3801 223.625 98.9723 223.804 101.559C223.915 99.7092 224.343 97.8925 225.068 96.1875C226.233 93.4673 228.117 91.0989 229.267 88.3737C230.208 86.0981 230.603 83.6345 230.422 81.1792C230.32 82.9002 229.93 84.5918 229.267 86.1836C228.117 88.9088 226.233 91.2723 225.068 93.9925Z" fill="black"/>
<path opacity="0.1" d="M173.735 97.8175C173.765 99.7598 173.794 101.707 173.799 103.649C173.799 100.974 173.775 98.3031 173.735 95.6324C173.695 92.8627 173.646 90.0582 172.897 87.3875C172.401 85.6929 171.668 83.9736 171.41 82.2642C170.969 84.6921 172.223 87.1546 172.897 89.5776C173.646 92.2235 173.695 95.0478 173.735 97.8175Z" fill="black"/>
<path opacity="0.1" d="M228.013 121.953C226.526 122.354 224.999 122.265 223.477 122.255C219.99 122.233 216.515 122.669 213.141 123.553C211.434 124.077 209.702 124.514 207.951 124.861C205.928 125.112 203.886 125.165 201.853 125.02C191.641 124.619 181.285 124.187 171.504 121.269C171.214 121.917 170.883 122.546 170.513 123.152C180.591 126.353 191.309 126.794 201.873 127.205C203.906 127.351 205.948 127.297 207.971 127.046C209.715 126.702 211.441 126.267 213.141 125.743C216.507 124.856 219.976 124.415 223.457 124.43C224.979 124.43 226.526 124.524 227.993 124.123C229.461 123.722 230.874 122.716 231.27 121.249C231.437 120.57 231.42 119.858 231.221 119.188C230.779 120.575 229.416 121.542 228.013 121.953Z" fill="black"/>
</g>
<path d="M213.329 116.081C212.962 116.904 211.416 124.009 211.049 124.737C210.682 125.466 208.679 137.125 208.496 137.779C208.312 138.433 195.294 135.044 195.294 135.044L187.457 128.478L179.401 120.466C179.401 120.466 179.163 113.237 185.097 110.918C185.501 110.76 185.915 110.631 186.337 110.532C193.535 108.803 192.811 86.9268 192.811 86.9268L207.584 93.3037C207.584 93.3037 204.847 106.067 204.941 108.53C204.966 109.357 205.616 109.873 206.463 110.185C207.774 110.558 209.139 110.705 210.499 110.621C210.499 110.621 213.696 115.264 213.329 116.081Z" fill="#FBBEBE"/>
<path d="M239.777 140.053L241.874 140.603C241.874 140.603 243.426 142.961 239.777 145.156C237.46 146.563 235.236 148.117 233.119 149.809L222.337 153.089L220.26 146.574L230.293 138.963L239.777 140.053Z" fill="#6C63FF"/>
<path opacity="0.1" d="M239.777 140.053L241.874 140.603C241.874 140.603 243.426 142.961 239.777 145.156C237.46 146.563 235.236 148.117 233.119 149.809L222.337 153.089L220.26 146.574L230.293 138.963L239.777 140.053Z" fill="black"/>
<path d="M161.088 146.345L156.895 150.448C156.895 150.448 164.459 159.198 170.279 159.743C176.099 160.288 179.852 153.089 179.852 153.089L174.815 145.161L161.088 146.345Z" fill="#6C63FF"/>
<path opacity="0.1" d="M161.088 146.345L156.895 150.448C156.895 150.448 164.459 159.198 170.279 159.743C176.099 160.288 179.852 153.089 179.852 153.089L174.815 145.161L161.088 146.345Z" fill="black"/>
<path opacity="0.1" d="M200.926 101.222C208.983 101.222 215.515 94.6929 215.515 86.6393C215.515 78.5858 208.983 72.0571 200.926 72.0571C192.868 72.0571 186.336 78.5858 186.336 86.6393C186.336 94.6929 192.868 101.222 200.926 101.222Z" fill="black"/>
<path d="M200.926 100.126C208.983 100.126 215.515 93.5977 215.515 85.5441C215.515 77.4906 208.983 70.9619 200.926 70.9619C192.868 70.9619 186.336 77.4906 186.336 85.5441C186.336 93.5977 192.868 100.126 200.926 100.126Z" fill="#FBBEBE"/>
<path opacity="0.1" d="M227.101 207.964C223.779 208.344 220.507 209.077 217.34 210.149C211.887 211.963 169.154 210.179 168.56 210.149C168.56 209.119 168.56 208.509 168.56 208.509L170.652 203.317L195.438 200.215H207.296C207.296 200.215 225.143 204.407 226.987 206.215C227.061 207.305 227.101 207.964 227.101 207.964Z" fill="black"/>
<path opacity="0.1" d="M213.329 116.081C212.962 116.904 211.416 124.009 211.049 124.738C210.682 125.466 208.679 137.125 208.496 137.779C208.312 138.433 195.294 135.044 195.294 135.044L187.457 128.478L179.401 120.466C179.401 120.466 179.163 113.237 185.097 110.918L199.83 127.849L206.463 110.185C207.774 110.558 209.139 110.705 210.499 110.621C210.499 110.621 213.696 115.264 213.329 116.081Z" fill="black"/>
<path d="M199.83 128.394L184.75 111.052C183.867 110.489 182.858 110.154 181.814 110.077C180.77 110 179.722 110.183 178.767 110.611C175.391 112.073 171.197 113.257 170.101 113.985C169.006 114.714 164.901 119.223 164.901 119.223L177.126 151.186L171.742 172.24C171.742 172.24 172.565 182.997 170.468 186.916C169.191 189.422 168.593 192.218 168.733 195.027C168.733 195.027 169.372 200.225 168.644 202.955C168.218 204.78 168.186 206.676 168.549 208.514C168.549 208.514 211.872 210.338 217.34 208.514C220.506 207.439 223.778 206.706 227.101 206.329C227.101 206.329 226.109 188.095 225.118 183.72C224.126 179.345 225.941 162.667 225.941 162.667L224.756 144.8L231.865 126.467C231.865 126.467 228.013 114.714 223.998 113.529C223.998 113.529 216.705 111.795 215.154 110.978C213.602 110.16 209.041 109.427 209.041 109.427L206.647 110.229L199.83 128.394Z" fill="#2945FF"/>
<path opacity="0.1" d="M220.87 144.196L189.137 142.04C188.334 141.985 187.639 142.592 187.584 143.394L184.177 193.472C184.123 194.274 184.73 194.969 185.533 195.024L217.266 197.18C218.069 197.235 218.764 196.629 218.819 195.826L222.226 145.749C222.28 144.946 221.673 144.251 220.87 144.196Z" fill="black"/>
<path d="M221.963 143.109L190.23 140.952C189.427 140.898 188.732 141.504 188.677 142.307L185.27 192.384C185.216 193.187 185.822 193.882 186.625 193.936L218.359 196.093C219.162 196.148 219.857 195.541 219.912 194.739L223.318 144.661C223.373 143.859 222.766 143.164 221.963 143.109Z" fill="#3F3D56"/>
<path d="M220.916 147.034L190.736 144.983L187.634 190.572L217.814 192.623L220.916 147.034Z" fill="white"/>
<path opacity="0.1" d="M218.21 158.671L193.557 156.946L193.076 163.813L217.729 165.538L218.21 158.671Z" fill="black"/>
<path opacity="0.1" d="M217.318 185.961L213.406 185.695L213.162 189.274L217.075 189.54L217.318 185.961Z" fill="black"/>
<path opacity="0.1" d="M213.459 177.323L193.433 175.962L193.19 179.541L213.216 180.902L213.459 177.323Z" fill="black"/>
<path d="M217.181 145.33L196.329 143.913L195.954 149.415L216.806 150.832L217.181 145.33Z" fill="#3F3D56"/>
<path opacity="0.1" d="M217.181 145.33L196.329 143.913L195.954 149.415L216.806 150.832L217.181 145.33Z" fill="black"/>
<path opacity="0.1" d="M201.655 206.958C201.655 206.958 201.471 233.943 194.357 249.437C194.357 249.437 202.934 229.018 202.934 228.2C202.934 227.383 207.673 218.811 206.404 216.259C205.135 213.707 201.655 206.958 201.655 206.958Z" fill="black"/>
<path opacity="0.1" d="M202.042 81.8977C201.769 79.5093 202.354 77.1018 203.692 75.1045C203.533 77.1065 204.1 79.0988 205.288 80.718C206.477 82.3371 208.208 83.4751 210.167 83.9242C210 83.7792 209.88 83.5871 209.825 83.3731C209.769 83.159 209.779 82.9331 209.854 82.7251C210.871 83.8746 211.649 85.2372 212.799 86.248C213.949 87.2588 215.674 87.8633 217.028 87.1449C218.867 86.1539 218.887 83.5427 218.411 81.5112C217.389 77.1848 215.294 73.1854 212.318 69.8821C211.576 68.8836 210.612 68.0705 209.502 67.5066C208.393 66.9426 207.168 66.6432 205.923 66.6317C203.107 66.4137 200.183 66.6614 197.659 67.9249C196.239 68.6993 194.909 69.6282 193.693 70.6947L186.753 76.3531C186.085 76.834 185.514 77.4357 185.068 78.127C184.77 78.7049 184.591 79.3368 184.542 79.9851C184.365 81.8382 184.708 83.7041 185.533 85.3732C186.358 87.0423 187.632 88.4486 189.212 89.434C189.178 87.9693 189.582 86.5278 190.37 85.2926C191.158 84.0575 192.296 83.0844 193.639 82.4972C193.849 82.673 194.019 82.8917 194.138 83.1387C194.257 83.3857 194.322 83.6552 194.328 83.9292L195.79 81.3229C196.008 80.8486 196.351 80.4426 196.782 80.1486C197.684 79.6531 198.809 80.2378 199.578 80.9364C200.346 81.635 201.095 82.5071 202.126 82.6161L202.165 78.7364" fill="black"/>
<path d="M202.041 81.3523C201.768 78.9623 202.353 76.5531 203.692 74.5542C203.246 78.5181 206.235 82.6109 210.171 83.3739C210.004 83.2302 209.884 83.0389 209.829 82.8255C209.773 82.6122 209.783 82.387 209.859 82.1798C210.875 83.3293 211.653 84.6869 212.803 85.7027C213.954 86.7184 215.679 87.318 217.032 86.5946C218.871 85.6036 218.891 82.9924 218.415 80.9658C217.394 76.6395 215.299 72.64 212.323 69.3367C211.399 68.2117 210.236 67.3076 208.917 66.6908C207.962 66.3379 206.959 66.1341 205.942 66.0863C203.127 65.8683 200.202 66.1111 197.679 67.3746C196.26 68.1525 194.93 69.0829 193.713 70.1493L186.772 75.8078C186.104 76.2874 185.532 76.8893 185.087 77.5817C184.788 78.1594 184.61 78.7913 184.561 79.4397C184.385 81.2922 184.728 83.1572 185.553 84.8255C186.378 86.4937 187.651 87.8991 189.231 88.8837C189.199 87.4193 189.603 85.9783 190.391 84.7434C191.179 83.5085 192.316 82.5352 193.658 81.9469C193.868 82.1233 194.038 82.3422 194.156 82.589C194.275 82.8359 194.34 83.1051 194.347 83.3789L195.805 80.7825C196.021 80.3074 196.364 79.9011 196.796 79.6082C197.698 79.1127 198.824 79.6974 199.592 80.396C200.361 81.0947 201.109 81.9618 202.14 82.0757L202.18 78.1911" fill="#3F3D56"/>
<path d="M208.952 173.33C207.678 172.686 186.609 175.971 186.609 175.971C186.609 175.971 183.139 174.98 174.751 173.602C166.363 172.225 165.828 164.03 165.828 164.03L164.911 147.624L167.741 145.146L179.867 153.074C179.867 153.074 180.055 157.083 179.867 157.806C179.748 158.302 179.431 158.891 179.46 159.293C179.47 159.401 179.515 159.504 179.588 159.585C179.662 159.665 179.76 159.719 179.867 159.739C180.69 159.947 191.903 161.76 191.903 161.76C191.903 161.76 217.895 159.981 224.374 168.732C224.888 169.374 225.276 170.107 225.519 170.892C227.125 176.873 210.107 173.9 208.952 173.33Z" fill="#FBBEBE"/>
<path opacity="0.1" d="M225.534 170.927C224.543 171.368 223.928 171.685 223.928 171.685C223.928 171.685 214.628 171.413 209.403 169.52C204.178 167.627 197.828 167.964 197.828 167.964C197.828 167.964 176.055 164.218 179.431 159.328C179.44 159.436 179.485 159.539 179.558 159.62C179.632 159.7 179.73 159.754 179.837 159.774C180.66 159.982 191.874 161.795 191.874 161.795C191.874 161.795 217.865 160.016 224.344 168.767C224.874 169.405 225.277 170.138 225.534 170.927Z" fill="black"/>
<path d="M234.577 142.06C234.577 142.06 235.856 151.082 235.945 151.816C236.034 152.549 236.495 161.384 235.945 162.389C235.395 163.395 234.577 165.03 234.577 165.03C234.577 165.03 235.489 166.943 231.84 167.676C228.192 168.41 223.908 170.59 223.908 170.59C223.908 170.59 214.604 170.317 209.408 168.405C204.213 166.492 197.828 166.854 197.828 166.854C197.828 166.854 170.191 162.112 182.049 156.325C193.907 150.537 202.294 158.376 202.294 158.376L215.516 157.558C215.516 157.558 220.443 154.546 221.812 154.823C222.778 154.946 223.759 154.788 224.637 154.367L224.731 144.795L234.577 142.06Z" fill="#FBBEBE"/>
<path opacity="0.1" d="M167.533 119.911L164.886 119.772L156.865 150.988C156.865 150.988 165.525 148.798 169.258 150.988C172.991 153.178 179.837 153.629 179.837 153.629L177.284 128.746L167.533 119.911Z" fill="black"/>
<path d="M167.533 119.361L164.886 119.223L156.865 150.438C156.865 150.438 165.525 148.248 169.258 150.438C172.991 152.628 179.837 153.079 179.837 153.079L177.284 128.196L167.533 119.361Z" fill="#2945FF"/>
<path opacity="0.1" d="M228.197 126.199L231.84 127.022C231.84 127.022 241.145 140.4 241.874 141.148C242.603 141.896 238.404 144.617 236.674 144.617C234.944 144.617 226.462 145.607 223.998 147.897C221.534 150.186 222.56 138.666 222.56 138.403C222.56 138.14 225.619 130.872 225.619 130.872L228.197 126.199Z" fill="black"/>
<path d="M228.197 125.654L231.84 126.472C231.84 126.472 241.145 139.875 241.874 140.603C242.603 141.332 238.404 144.072 236.674 144.072C234.944 144.072 226.462 145.063 223.998 147.352C221.534 149.641 222.56 138.121 222.56 137.858C222.56 137.596 225.639 130.302 225.639 130.302L228.197 125.654Z" fill="#2945FF"/>
<g opacity="0.1">
<path opacity="0.1" d="M203.667 74.5991C203.646 74.2191 203.654 73.8381 203.692 73.4595C202.937 74.5915 202.418 75.8637 202.165 77.2004V78.3499C202.165 78.3499 202.165 78.3252 202.165 78.3103V78.5828C202.165 79.3855 202.165 80.1931 202.14 80.9958H202.071V81.3675C202.071 81.2386 202.071 81.1148 202.046 80.9859C201.055 80.8274 200.346 79.995 199.607 79.331C198.868 78.6671 197.713 78.0328 196.811 78.5432C196.379 78.8361 196.036 79.2424 195.82 79.7175L194.347 82.3138C194.341 82.0406 194.276 81.772 194.157 81.5259C194.038 81.2798 193.868 81.0619 193.658 80.8868C192.315 81.474 191.178 82.4471 190.389 83.6823C189.601 84.9174 189.198 86.359 189.231 87.8237C187.877 86.9754 186.744 85.8172 185.926 84.4447C185.108 83.0722 184.628 81.5249 184.527 79.9305C184.441 81.7108 184.831 83.4818 185.658 85.0609C186.485 86.64 187.719 87.97 189.231 88.9137C189.199 87.4493 189.603 86.0083 190.391 84.7734C191.179 83.5385 192.316 82.5652 193.658 81.9769C193.868 82.1533 194.038 82.3722 194.156 82.619C194.275 82.8659 194.34 83.1351 194.347 83.4089L195.805 80.8125C196.021 80.3374 196.364 79.9311 196.796 79.6382C197.699 79.1427 198.824 79.7274 199.592 80.426C200.361 81.1247 201.109 81.9918 202.14 82.1057C202.14 80.8373 202.154 79.5721 202.18 78.3103C202.423 76.9865 202.929 75.7247 203.667 74.5991Z" fill="black"/>
<path opacity="0.1" d="M201.992 79.5885C202.016 79.2516 202.056 78.9146 202.106 78.5975L202.16 77.23C202.011 78.0068 201.955 78.7984 201.992 79.5885Z" fill="black"/>
<path opacity="0.1" d="M217.032 85.4998C215.679 86.2232 213.954 85.6187 212.804 84.6079C211.653 83.5971 210.875 82.2345 209.859 81.085C209.784 81.293 209.773 81.5189 209.829 81.7329C209.885 81.9469 210.004 82.1391 210.171 82.284C210.072 82.284 209.978 82.2345 209.884 82.2097C210.875 83.3493 211.663 84.6872 212.804 85.6781C213.944 86.6691 215.679 87.2934 217.032 86.57C218.386 85.8466 218.772 84.152 218.653 82.5021C218.564 83.8002 218.098 84.925 217.032 85.4998Z" fill="black"/>
<path opacity="0.1" d="M209.854 82.1999C208.196 81.7483 206.716 80.801 205.612 79.485C204.508 78.1691 203.833 76.5472 203.677 74.8369C203.395 78.7265 206.329 82.626 210.171 83.3742C210.008 83.2321 209.89 83.0445 209.833 82.8354C209.777 82.6262 209.784 82.4049 209.854 82.1999Z" fill="black"/>
</g>
<path opacity="0.1" fill-rule="evenodd" clip-rule="evenodd" d="M234.636 344.491C234.636 348.774 213.01 352.246 186.332 352.246C174.616 352.246 163.874 351.576 155.511 350.462C147.447 352.939 131.289 354.63 112.672 354.63C85.9943 354.63 64.3677 351.158 64.3677 346.876C64.3677 342.593 85.9943 339.121 112.672 339.121C124.388 339.121 135.13 339.791 143.493 340.905C151.557 338.428 167.715 336.737 186.332 336.737C213.01 336.737 234.636 340.209 234.636 344.491Z" fill="#6C63FF"/>
<path d="M114.228 198.324H111.12V268.272H114.228V198.324Z" fill="#535461"/>
<path d="M133.765 268.063L133.567 271.214L133.294 275.674L133.18 277.527L132.903 281.986L132.784 283.84L132.511 288.299L129.373 338.873C129.239 341.049 128.28 343.092 126.691 344.586C125.102 346.079 123.003 346.911 120.822 346.91H104.527C102.34 346.911 100.235 346.075 98.6448 344.575C97.0546 343.074 96.0995 341.021 95.9754 338.839L92.8374 288.264L92.5647 283.805L92.4507 281.952L92.1681 277.492L92.0541 275.639L91.7815 271.18L91.5832 268.028C91.5489 267.424 91.6379 266.82 91.8448 266.251C92.0517 265.683 92.3723 265.162 92.7869 264.721C93.2014 264.281 93.7014 263.929 94.2564 263.687C94.8114 263.446 95.4097 263.319 96.015 263.316H129.338C129.946 263.32 130.547 263.447 131.104 263.691C131.661 263.935 132.162 264.291 132.577 264.735C132.991 265.18 133.31 265.704 133.515 266.276C133.719 266.849 133.804 267.457 133.765 268.063Z" fill="#3F3D56"/>
<path d="M133.567 271.21L133.289 275.659H92.0541L91.7765 271.21H133.567Z" fill="#9D9CB5"/>
<path d="M133.175 277.512L132.903 281.962H92.4458L92.1682 277.512H133.175Z" fill="#9D9CB5"/>
<path d="M132.784 283.82L132.511 288.264H92.8375L92.5599 283.82H132.784Z" fill="#9D9CB5"/>
<path d="M87.0522 224.545C105.156 237.636 112.697 258.109 112.697 258.109C112.697 258.109 90.8842 257.361 72.775 244.27C54.6658 231.179 47.1157 210.721 47.1157 210.721C47.1157 210.721 68.9281 211.454 87.0522 224.545Z" fill="#2945FF"/>
<path d="M47.1157 210.721C47.1157 210.721 69.756 223.281 77.0185 233.682C84.281 244.082 112.677 258.119 112.677 258.119" stroke="#535461" stroke-width="2" stroke-miterlimit="10"/>
<path d="M98.7168 198.175C108.572 205.295 112.677 216.439 112.677 216.439C112.677 216.439 100.779 216.032 90.9487 208.912C81.1182 201.792 76.9887 190.644 76.9887 190.644C76.9887 190.644 88.8666 191.05 98.7168 198.175Z" fill="#2945FF"/>
<path d="M76.9887 190.644C76.9887 190.644 89.3127 197.481 93.2687 203.14C97.2247 208.798 112.677 216.439 112.677 216.439" stroke="#535461" stroke-width="2" stroke-miterlimit="10"/>
<path d="M126.994 215.874C115.676 228.305 113.282 244.552 113.282 244.552C113.282 244.552 129.239 240.638 140.547 228.201C151.855 215.765 154.259 199.522 154.259 199.522C154.259 199.522 138.311 203.442 126.994 215.874Z" fill="#2945FF"/>
<path d="M154.269 199.527C154.269 199.527 139.526 212.271 135.778 221.051C132.03 229.831 113.282 244.552 113.282 244.552" stroke="#535461" stroke-width="2" stroke-miterlimit="10"/>
</g>
<defs>
<linearGradient id="paint0_linear" x1="199.003" y1="346.468" x2="199.003" y2="60.2498" gradientUnits="userSpaceOnUse">
<stop stop-color="#808080" stop-opacity="0.25"/>
<stop offset="0.54" stop-color="#808080" stop-opacity="0.12"/>
<stop offset="1" stop-color="#808080" stop-opacity="0.1"/>
</linearGradient>
<clipPath id="clip0">
<rect width="330" height="370" rx="30" fill="white"/>
</clipPath>
</defs>
</svg>
