<svg width="330" height="371" viewBox="0 0 330 371" fill="none" xmlns="http://www.w3.org/2000/svg">
<rect y="0.0883789" width="330" height="370" fill="#C7F9CC"/>
<path d="M306.75 179.124C311.849 181.47 323.723 196.613 323.723 196.613C321.429 197.509 319.074 198.234 316.678 198.783L316.312 194L314.376 199.218C313.139 199.418 311.887 199.501 310.636 199.467L310.074 192.106L307.57 198.853C307.534 198.837 307.497 198.823 307.462 198.806C302.364 196.46 298.071 190.152 297.875 184.717C297.678 179.282 301.652 176.778 306.75 179.124Z" fill="white"/>
<path d="M215.805 285.878C220.903 288.224 232.777 303.367 232.777 303.367C230.484 304.263 228.129 304.988 225.732 305.537L225.367 300.754L223.43 305.972C222.193 306.172 220.941 306.255 219.69 306.221L219.128 298.859L216.624 305.607C216.588 305.591 216.552 305.576 216.517 305.56C211.418 303.214 207.126 296.906 206.929 291.471C206.733 286.035 210.706 283.532 215.805 285.878Z" fill="white"/>
<path d="M189.66 120.689C194.203 123.446 205.926 138.709 205.926 138.709C204.084 139.258 202.196 139.638 200.288 139.843L199.417 135.429L198.413 139.963C197.374 139.994 196.335 139.92 195.313 139.74L193.974 132.947L192.675 138.809C192.643 138.791 192.611 138.773 192.58 138.754C188.037 135.996 183.701 129.717 182.894 124.728C182.088 119.74 185.118 117.931 189.66 120.689Z" fill="white"/>
<path d="M67.2554 199.515C69.3919 201.448 71.9106 207.103 73.8365 212.087L71.777 215.942L74.5629 214.007C75.9507 217.753 76.887 220.716 76.887 220.716C76.887 220.716 63.8466 221.405 59.7381 217.689C55.6296 213.972 53.9819 206.89 56.0577 201.872C58.1336 196.853 63.147 195.798 67.2554 199.515Z" fill="white"/>
<path d="M81.9886 303.787C83.9979 305.756 86.4373 311.434 88.3164 316.432L86.4991 320.22L89.026 318.357C90.3832 322.112 91.308 325.079 91.308 325.079C91.308 325.079 79.3053 325.48 75.4414 321.694C71.5776 317.909 69.9109 310.831 71.7189 305.887C73.5269 300.942 78.1248 300.002 81.9886 303.787Z" fill="white"/>
<path d="M16.3911 45.0581C21.4895 47.4046 33.3639 62.5467 33.3639 62.5467C31.0702 63.443 28.7155 64.1685 26.3188 64.7172L25.9534 59.9338L24.0168 65.1523C22.7796 65.3521 21.5275 65.4355 20.2768 65.4015L19.7145 58.0396L17.2105 64.7868C17.1749 64.7712 17.1384 64.7566 17.1033 64.7405C12.0049 62.3941 7.71243 56.0859 7.51576 50.6508C7.31908 45.2156 11.2927 42.7117 16.3911 45.0581Z" fill="white"/>
<ellipse cx="173.905" cy="344.556" rx="100.373" ry="6.15493" fill="#758B7C"/>
<path d="M168.37 93.1126C179.151 93.1126 187.892 84.3622 187.892 73.568C187.892 62.7738 179.151 54.0234 168.37 54.0234C157.588 54.0234 148.847 62.7738 148.847 73.568C148.847 84.3622 157.588 93.1126 168.37 93.1126Z" fill="#2F2E41"/>
<path d="M196.12 191.96L199.08 197.886C199.08 197.886 208.551 213.295 202.039 215.073C195.528 216.851 193.456 203.516 193.456 203.516L192.272 196.405L196.12 191.96Z" fill="#FCCCCC"/>
<path d="M184.281 161.735L191.68 181.292L199.08 194.923L189.904 200.849L182.505 187.811L173.626 167.365L184.281 161.735Z" fill="#2945FF"/>
<path d="M163.266 253.297L148.467 269.002L122.421 313.153L111.174 309.598L124.493 283.225C124.493 283.225 132.189 263.076 136.036 260.409C139.884 257.742 146.395 240.259 146.395 240.259L153.499 234.629L163.266 253.297Z" fill="#FCCCCC"/>
<path d="M193.751 261.891L194.935 266.928C194.935 266.928 198.783 282.633 204.703 289.745L218.909 314.339L229.565 310.783L208.55 261.002L193.751 261.891Z" fill="#FCCCCC"/>
<path d="M171.701 96.3978C180.528 96.3978 187.684 89.2338 187.684 80.3967C187.684 71.5595 180.528 64.3955 171.701 64.3955C162.874 64.3955 155.718 71.5595 155.718 80.3967C155.718 89.2338 162.874 96.3978 171.701 96.3978Z" fill="#FCCCCC"/>
<path d="M159.121 88.249L157.049 105.435L170.368 111.954C170.368 111.954 170.368 97.1385 173.92 93.2864L159.121 88.249Z" fill="#FCCCCC"/>
<path d="M117.39 199.071L115.91 204.109C115.91 204.109 106.142 223.369 114.43 223.369C122.717 223.369 124.197 205.59 124.197 205.59L125.085 201.146L117.39 199.071Z" fill="#FCCCCC"/>
<path d="M185.464 178.922L183.393 193.441L208.551 246.482L210.031 261.891L162.97 267.817L152.611 239.074L136.036 260.409L145.508 238.482C145.508 238.482 148.467 223.666 147.579 219.814C146.692 215.962 148.171 196.701 150.835 191.96C153.499 187.219 185.464 178.922 185.464 178.922Z" fill="#2F2E41"/>
<path d="M124.197 313.154L109.99 308.413L105.55 315.524C105.55 315.524 96.9669 317.895 97.2629 324.117C97.5588 330.34 95.783 341.008 95.783 341.008L101.998 341.6L104.366 329.451L116.501 343.971C116.501 343.971 138.108 345.156 138.996 341.6C139.883 338.044 123.605 334.192 123.605 334.192L120.941 321.451L124.197 313.154Z" fill="#2F2E41"/>
<path d="M230.453 309.005L217.43 313.154V316.117C217.43 316.117 213.582 322.043 214.174 327.081C214.766 332.118 217.43 344.267 217.43 344.267H224.237L223.941 333.007L237.556 344.267C237.556 344.267 261.826 342.489 261.826 338.637C261.826 334.785 243.18 332.118 243.18 332.118L230.453 309.005Z" fill="#2F2E41"/>
<path d="M171.256 108.399C171.256 108.399 159.121 96.2495 153.498 99.2127V104.546C153.498 104.546 145.21 108.399 144.914 114.325C144.618 120.251 136.035 174.181 136.035 174.181L115.909 244.408C115.909 244.408 122.124 254.187 144.914 243.223L159.121 194.923C159.121 194.923 144.026 249.446 151.426 248.557C158.825 247.668 187.831 180.107 187.831 180.107L185.759 148.105C185.759 148.105 190.495 134.178 181.024 124.696L171.256 108.399Z" fill="#2945FF"/>
<path d="M150.538 110.176C150.538 110.176 145.506 111.954 141.955 119.658C138.403 127.363 120.644 181.589 120.644 181.589L115.909 200.849L129.228 204.109L135.739 184.256L160.009 139.215C160.009 139.215 163.857 115.51 150.538 110.176Z" fill="#2945FF"/>
<path d="M151.709 67.6314C152.008 63.9737 153.757 60.2246 156.992 58.4984C155.368 55.232 153.916 51.5039 154.987 48.0161C155.421 46.663 156.208 45.4501 157.266 44.5023C158.324 43.5545 159.615 42.906 161.006 42.6236C162.56 42.4096 164.136 42.4301 165.683 42.6842L172.976 43.5124C175.342 43.781 177.8 44.0808 179.812 45.3552C180.86 46.0186 181.737 46.9189 182.373 47.9837C183.01 49.0484 183.388 50.248 183.477 51.4857C183.566 52.7234 183.363 53.9647 182.886 55.1097C182.408 56.2548 181.668 57.2716 180.727 58.0783C185.829 62.1644 189.239 65.2663 191.561 71.3811C187.306 67.952 183.234 66.7376 177.78 66.4421C174.366 66.2571 171.014 67.4123 168.437 69.6623C165.86 71.9124 164.261 75.0798 163.98 78.4915C163.839 80.1978 164.027 81.9548 163.531 83.5934C163.035 85.2319 161.541 86.7671 159.847 86.5277C160.082 86.5609 161.528 82.2144 160.51 80.2082L160.494 80.1759C160.27 79.7612 159.901 79.4441 159.458 79.2855C159.062 79.1337 158.639 79.0679 158.216 79.0924C157.793 79.117 157.38 79.2313 157.005 79.4279C156.63 79.6245 156.301 79.8988 156.039 80.2326C155.778 80.5664 155.591 80.952 155.49 81.3638C154.924 83.5408 154.018 86.3185 153.226 85.5812C152.19 84.6156 152.626 76.1015 152.346 74.7816C151.788 72.4418 151.574 70.0331 151.709 67.6314Z" fill="#2F2E41"/>
<path d="M157.072 58.4399C157.072 58.4399 173.112 59.4873 180.784 58.0908L157.072 58.4399Z" fill="#D0CDE1"/>
<path d="M157.982 56.2909C156.358 53.0246 154.906 49.2965 155.977 45.8087C156.477 44.2364 157.455 42.8597 158.775 41.8711C157.767 42.3351 156.866 43.0037 156.13 43.8345C155.393 44.6654 154.837 45.6404 154.497 46.6977C153.426 50.1854 154.878 53.9136 156.502 57.1799C157.791 56.9873 154.747 58.0172 157.982 56.2909Z" fill="#2F2E41"/>
<path opacity="0.2" d="M163.118 139.363L140.031 180.255L131.152 202.479L143.583 181.144L163.118 139.363Z" fill="black"/>
</svg>
