<svg width="331" height="371" viewBox="0 0 331 371" fill="none" xmlns="http://www.w3.org/2000/svg">
<g clip-path="url(#clip0)">
<rect width="330" height="370" transform="translate(0.975342 0.354004)" fill="#FFAAAA"/>
<ellipse cx="162.722" cy="351.065" rx="80.961" ry="3.78765" fill="#3F3D56"/>
<path d="M103.012 174.162C103.012 174.162 87.2619 192.792 90.5722 194.009C93.8825 195.225 109.338 181.913 108.344 177.207L103.012 174.162Z" fill="#F4D8DC"/>
<path d="M187.416 204.437C188.422 207.498 190.685 196.019 190.685 196.019L189.176 184.029L187.416 198.059V204.437Z" fill="#EFCBD0"/>
<path d="M211.955 331.444C217.902 322.941 220.52 314.462 217.801 312.506C215.082 310.549 208.057 315.856 202.109 324.359C196.162 332.862 193.544 341.34 196.263 343.297C198.982 345.254 206.007 339.947 211.955 331.444Z" fill="#2F2E41"/>
<path d="M126.302 80.4618C122.681 82.0944 109.033 143.725 102.661 174.336L107.943 177.907L122.53 134.031V130.46L134.35 100.359V86.0739L137.368 76.3804C135.188 77.0606 129.924 78.8293 126.302 80.4618Z" fill="#F4D8DC"/>
<path d="M148.583 341.738C156.396 334.964 160.974 327.389 158.808 324.819C156.642 322.249 148.552 325.657 140.739 332.431C132.926 339.205 128.349 346.78 130.515 349.35C132.681 351.92 140.77 348.512 148.583 341.738Z" fill="#2F2E41"/>
<path d="M201.035 52.4629C199.623 50.4378 197.886 48.6681 196.396 46.7014C192.961 42.167 191.773 36.1251 187.163 32.6479C182.602 29.2072 175.364 25.8206 169.656 26.0919C162.134 26.4495 156.166 32.3687 150.981 37.9076C147.018 42.1403 143.055 46.373 139.092 50.6057C136.225 53.6678 133.252 56.9186 132.219 61.0092C131.226 64.9408 132.195 69.1644 134.013 72.7797C135.903 76.4471 138.553 79.6558 141.781 82.1851C145.761 76.627 151.336 68.9524 151.336 68.9524L152.634 88.042C159.376 90.3084 166.619 90.754 173.724 90.253L175.828 82.4262L178.037 89.8195C186.527 88.6778 195.057 85.7042 200.313 78.9838C206.124 71.5538 206.433 60.2065 201.035 52.4629Z" fill="#F5BAFF"/>
<path d="M168.553 69.4932C177.165 69.4932 184.146 62.4123 184.146 53.6775C184.146 44.9428 177.165 37.8618 168.553 37.8618C159.942 37.8618 152.961 44.9428 152.961 53.6775C152.961 62.4123 159.942 69.4932 168.553 69.4932Z" fill="#F4D8DC"/>
<path d="M158.493 61.3301C158.493 61.3301 159.499 73.5745 152.961 74.5949C146.422 75.6152 139.38 74.5949 139.38 78.6763C139.38 82.7578 144.41 120.001 144.41 120.001L156.984 118.981L174.589 101.635L184.146 82.7578C184.146 82.7578 172.577 77.656 177.607 62.3504L158.493 61.3301Z" fill="#F4D8DC"/>
<path d="M180.186 52.1947C182.615 51.225 187.54 49.1563 187.805 48.6392" stroke="#3E455C" stroke-width="0.761896"/>
<path d="M150.949 112.859L145.919 99.0838L146.925 80.207C146.925 80.207 157.969 78.6765 157.728 69.4932L149.44 73.0645L130.326 76.1256V93.982C130.326 93.982 123.787 104.696 131.332 115.41L134.853 137.858L171.068 135.307L182.637 120.001L197.224 90.9209L182.134 79.6968L184.146 76.6357L176.45 71.5445L177.607 81.2274L174.086 87.3496C174.086 87.3496 157.991 90.4107 150.949 112.859Z" fill="#E8E6F3"/>
<path d="M110.458 170.281L104.171 168.214L103.416 171.758L109.452 173.826L110.458 170.281Z" fill="#2945FF"/>
<path d="M173.975 131.46C173.975 131.46 139.883 125.103 132.338 131.225C133.037 132.083 133.396 133.175 133.344 134.286C133.344 136.327 134.35 133.776 133.344 136.327C132.338 138.878 130.326 136.837 132.338 138.878C134.35 140.919 134.853 140.409 133.847 141.939C132.841 143.47 133.847 146.021 133.847 146.021C133.847 146.021 128.314 172.55 133.344 191.427C138.374 210.304 180.122 343.462 191.188 339.891C202.254 336.319 229.918 319.993 228.409 314.381C226.9 308.769 176.098 231.221 176.098 231.221C176.098 231.221 197.224 164.387 172.074 142.96C172.074 142.96 173.583 140.919 173.08 139.388C172.577 137.858 172.074 139.388 172.577 137.858C173.08 136.327 175.595 136.327 174.086 134.797C172.577 133.266 173.975 131.46 173.975 131.46Z" fill="#2F2E41"/>
<path d="M180.901 218.542C183.102 203.728 191.11 182.276 205.536 214.987" stroke="#2945FF" stroke-width="3.04758"/>
<path d="M150.949 186.325C150.949 186.325 116.745 341.421 123.787 343.972C130.829 346.523 157.991 347.033 160.003 343.972C162.015 340.911 176.098 231.221 176.098 231.221L150.949 186.325Z" fill="#2F2E41"/>
<path d="M147.931 51.8916C147.931 51.8916 157.236 48.8305 182.385 40.1574V36.076L165.787 30.9741L147.931 51.8916Z" fill="#F5BAFF"/>
<path d="M195.641 110.956C198.052 92.7113 196.646 91.0543 195.641 92.5063C189.615 87.7914 183.89 104.55 181.781 113.518V140.937L180.877 144.524L188.711 192.698L193.231 193.723L195.641 191.929L192.628 144.524L192.026 142.474C192.226 139.57 193.231 129.201 195.641 110.956Z" fill="#F4D8DC"/>
<path d="M195.463 191.682C195.463 191.682 198.5 203.845 190.936 203.672C185.493 202.546 185.672 196.096 189.238 192.921L195.463 191.682Z" fill="#F4D8DC"/>
<path d="M106.356 170.682C105.841 172.618 104.495 173.932 103.35 173.619C103.001 173.523 101.968 173.24 101.968 173.24L103.489 166.136C103.489 166.136 104.072 166.296 105.217 166.61C106.361 166.923 106.872 168.747 106.356 170.682Z" fill="#142281"/>
<ellipse rx="2.14948" ry="3.62669" transform="matrix(0.964448 0.264272 -0.25737 0.966313 102.901 169.737)" fill="#2945FF"/>
<path d="M168.203 35.4327C160.482 35.8391 157.536 38.4803 154.489 42.2898C157.282 36.1946 159.06 32.9058 168.203 31.8772C173.214 31.3134 177.123 31.9182 180.101 33.218C182.268 28.3075 188.468 20.7297 199.694 22.2265C196.153 25.8429 188.173 32.6779 181.877 34.138C187.134 37.3346 188.701 42.9813 188.012 47.1151C185.759 37.7184 177.853 34.9248 168.203 35.4327Z" fill="#2945FF"/>
<path d="M181.155 34.163C184.117 32.8931 191.415 30.9122 196.9 33.1471C195.377 34.9249 190.094 37.6169 181.155 34.163Z" fill="#2945FF"/>
<path d="M173.535 232.51C173.874 228.108 172.774 221.082 173.535 218.288C175.821 214.987 204.773 213.971 208.837 213.717C212.9 213.463 213.154 230.478 213.154 235.05C213.154 239.621 175.821 243.177 173.535 240.129C171.707 237.691 172.773 234.034 173.535 232.51Z" fill="#2945FF"/>
<path d="M192.075 228.955L190.298 225.145H195.631L194.869 228.955H192.075Z" fill="#3E4DAC"/>
<path d="M178.361 226.415C178.768 224.18 175.822 220.574 174.298 219.05C173.688 218.401 174.044 227.753 174.298 232.51L172.774 237.589L174.298 240.637H176.33C177.007 239.452 178.209 236.523 177.599 234.288C176.837 231.494 178.361 230.224 179.631 229.208C180.647 228.396 199.694 227.007 209.091 226.415L210.615 217.018L208.329 224.891C198.171 226.33 177.955 228.65 178.361 226.415Z" fill="#3E4DAC"/>
<path d="M181.917 218.796C181.104 219.609 179.885 218.796 179.377 218.288L179.631 216.256H179.377C178.954 216.68 178.311 217.831 179.123 219.05C179.936 220.269 181.494 219.727 182.171 219.304C182.425 218.796 182.73 217.983 181.917 218.796Z" fill="#3E4DAC"/>
<path d="M206.522 214.645C206.239 215.759 204.776 215.683 204.08 215.506L203.26 213.63L203.042 213.76C202.894 214.34 202.929 215.658 204.251 216.291C205.572 216.923 206.634 215.662 207 214.952C206.959 214.385 206.806 213.531 206.522 214.645Z" fill="#3E4DAC"/>
<path d="M163.412 56.0516C164.892 54.4258 164.774 53.5926 164.21 51.4673C161.986 50.0154 157.835 47.9897 153.714 49.1182C152.618 50.5701 152.856 52.8184 153.947 54.7146C158.125 56.0516 158.994 56.3939 163.412 56.0516Z" fill="#2945FF"/>
<mask id="mask0" mask-type="alpha" maskUnits="userSpaceOnUse" x="153" y="48" width="12" height="9">
<path d="M163.411 56.0516C164.891 54.4258 164.773 53.5926 164.209 51.4673C161.985 50.0154 157.834 47.9897 153.713 49.1182C152.617 50.5701 152.855 52.8184 153.946 54.7146C158.124 56.0516 158.993 56.3939 163.411 56.0516Z" fill="#2945FF"/>
</mask>
<g mask="url(#mask0)">
<path d="M154.647 51.4683C151.749 51.1785 154.647 50.8887 156.676 49.1499V48.5703C157.449 48.7635 159.342 49.1499 160.733 49.1499C162.124 49.1499 163.244 50.5023 163.631 51.1785C161.989 52.1445 157.951 54.1924 154.937 54.6561C151.17 55.2357 155.227 53.7867 157.545 52.3377C159.864 50.8887 157.545 51.7581 154.647 51.4683Z" fill="#56D7FF" fill-opacity="0.3"/>
</g>
<path d="M169.799 57.0599C168.452 55.3011 168.642 54.4748 169.39 52.3893C171.747 51.1221 176.088 49.4436 180.128 50.9291C181.104 52.4805 180.673 54.7172 179.416 56.5276C175.107 57.5124 174.205 57.7817 169.799 57.0599Z" fill="#2945FF"/>
<mask id="mask1" mask-type="alpha" maskUnits="userSpaceOnUse" x="168" y="50" width="13" height="8">
<path d="M169.799 57.0599C168.452 55.3011 168.642 54.4748 169.39 52.3893C171.747 51.1221 176.088 49.4436 180.128 50.9291C181.104 52.4805 180.673 54.7172 179.416 56.5276C175.107 57.5124 174.205 57.7817 169.799 57.0599Z" fill="#2945FF"/>
</mask>
<g mask="url(#mask1)">
<path d="M172.702 52.9165C169.804 52.6267 172.702 52.337 174.731 50.5982V50.0186C175.503 50.2118 177.397 50.5982 178.788 50.5982C180.179 50.5982 181.299 51.9506 181.686 52.6267C180.044 53.5927 176.006 55.6407 172.992 56.1043C169.224 56.6839 173.282 55.2349 175.6 53.7859C177.918 52.337 175.6 53.2063 172.702 52.9165Z" fill="#56D7FF" fill-opacity="0.3"/>
</g>
<path d="M163.932 53.008C164.814 52.7379 167.167 52.4004 169.519 53.2106" stroke="#3E455C" stroke-width="0.761896"/>
</g>
<defs>
<clipPath id="clip0">
<rect width="330" height="370" fill="white" transform="translate(0.975342 0.354004)"/>
</clipPath>
</defs>
</svg>
