<svg width="331" height="370" viewBox="0 0 331 370" fill="none" xmlns="http://www.w3.org/2000/svg">
<g clip-path="url(#clip0)">
<rect width="330" height="370" transform="translate(0.973633)" fill="#C1F1FF"/>
<g clip-path="url(#clip1)">
<path d="M214.34 83.6032C208.755 93.9908 201.523 97.0249 192.918 101.49L194.06 109.839L200.394 118.472L199.507 108.228L214.09 129.454L214.088 113.133L238.376 128.73L226.525 111.147L250.811 110.423L230.668 97.5032L257.557 93.2102L235.699 89.0956L255.346 77.0565L232.826 80.6518L250.293 53.9378L234.087 67.2822L240.741 45.6328L239.3 35.1057C237.765 42.7077 219.925 73.2155 214.34 83.6032Z" fill="#2945FF"/>
<path d="M140.264 81.3318C147.792 91.5369 156.008 93.5566 165.91 96.8786V106.047L160.375 116.412L159.821 105.25L147.275 130.563L144.877 113.023L121.077 133.952L131.224 113.023L105.025 116.412L124.767 99.0711H95.2471L118.125 90.8991L95.2471 81.3318H119.97L97.2766 55.6199L116.649 67.1803L106.317 45.056V33.4956C109.084 41.4019 132.737 71.1268 140.264 81.3318Z" fill="#2945FF"/>
<path d="M155.968 356.924C227.931 356.924 286.268 352.329 286.268 346.66C286.268 340.992 227.931 336.396 155.968 336.396C84.0047 336.396 25.6671 340.992 25.6671 346.66C25.6671 352.329 84.0047 356.924 155.968 356.924Z" fill="#3F3D56"/>
<path d="M191.901 51.561H150.03V105.486H191.901V51.561Z" fill="#F0AB6C"/>
<path d="M186.839 300.989L185.018 327.466H196.554V302.975L186.839 300.989Z" fill="#FFB8B8"/>
<path d="M149.078 134.75V150.534L172.552 154.479L192.852 145.93L189.046 136.065L149.078 134.75Z" fill="#FFB8B8"/>
<path d="M183.971 321.516C183.971 321.516 195.39 320.781 197.294 322.793C199.197 324.805 198.563 334.669 198.563 334.669C198.563 334.669 199.831 352.425 189.681 352.425C179.53 352.425 182.068 340.588 182.068 340.588L183.971 321.516Z" fill="#2F2E41"/>
<path d="M172.552 76.8794C181.311 76.8794 188.412 69.5186 188.412 60.4387C188.412 51.3588 181.311 43.998 172.552 43.998C163.792 43.998 156.691 51.3588 156.691 60.4387C156.691 69.5186 163.792 76.8794 172.552 76.8794Z" fill="#FFB8B8"/>
<path d="M172.552 76.8794C181.311 76.8794 188.412 69.5186 188.412 60.4387C188.412 51.3588 181.311 43.998 172.552 43.998C163.792 43.998 156.691 51.3588 156.691 60.4387C156.691 69.5186 163.792 76.8794 172.552 76.8794Z" fill="#FFB8B8"/>
<path d="M162.083 70.6318C162.083 70.6318 170.965 81.8115 153.201 90.3606C135.438 98.9098 165.89 134.422 165.89 134.422C165.89 134.422 201.417 120.611 198.245 93.6488C198.245 93.6488 176.675 89.703 181.75 71.2895L162.083 70.6318Z" fill="#FFB8B8"/>
<path d="M194.561 92.6086C194.561 92.6086 208.396 92.3338 209.03 102.856C208.59 107.299 203.084 124.16 202.143 133.173L206.108 149.547H196.976L189.998 127.188L194.561 92.6086Z" fill="#FFB8B8"/>
<path d="M152.21 246.673C151.922 256.329 132.502 301.833 122.828 323.377L114.896 330.386C111.892 328.05 107.073 323.377 111.832 323.377C116.591 323.377 134.605 234.343 143.017 189.825L149.867 139.208L195.653 148.163C195.653 148.163 204.306 153.809 205.748 177.95C207.19 202.09 199.529 222.566 197.817 251.345C196.489 273.663 196.555 308.582 196.555 308.582H187.001C187.001 308.582 181.577 273.803 181.413 251.345C181.399 249.52 181.413 248.444 181.413 246.673C181.413 244.901 177.387 211.111 175.644 194.303H171.318L152.21 246.673Z" fill="#FFB8B8"/>
<path d="M144.279 219.222C141.683 219.845 139.112 218.898 138.691 217.081L141.755 194.692L148.605 143.102L152.932 147.579C150.408 162.31 146.082 187.878 147.163 190.993C150.228 194.692 150.348 206.308 149.867 211.24C149.715 212.798 147.524 218.444 144.279 219.222Z" fill="#DEB5B5"/>
<path d="M188.262 182.233C187.397 195.471 199.559 185.672 205.748 179.118V173.667C202.864 172.109 197.924 167.203 201.241 160.039C205.387 151.084 194.211 146.801 193.67 148.942C197.095 152.252 199.018 157.119 200.16 161.402L196.554 168.994L187.181 174.835C188.479 178.884 194.331 174.575 197.095 171.915L188.262 182.233Z" fill="#DEB5B5"/>
<path d="M113.551 323.49C113.551 323.49 110.379 320.859 109.11 321.517C107.841 322.174 94.5182 339.93 94.5182 339.93C94.5182 339.93 80.561 351.11 90.7117 352.425C100.862 353.74 128.777 339.273 128.777 335.984C128.777 332.696 122.911 324.461 122.911 324.461C122.911 324.461 118.626 328.093 113.551 323.49Z" fill="#2F2E41"/>
<path d="M155.422 62.7405C156.298 62.7405 157.008 61.5628 157.008 60.11C157.008 58.6572 156.298 57.4795 155.422 57.4795C154.546 57.4795 153.836 58.6572 153.836 60.11C153.836 61.5628 154.546 62.7405 155.422 62.7405Z" fill="#FFB8B8"/>
<path d="M154.37 89.703C154.37 89.703 139.778 87.7301 139.144 100.225C138.509 112.72 139.144 142.971 139.144 142.971C139.144 142.971 132.8 169.276 135.972 192.293C135.972 192.293 132.165 219.255 142.316 217.94C152.467 216.625 144.854 190.32 144.854 190.32L149.295 147.574V116.43L155.639 96.9369L154.37 89.703Z" fill="#FFB8B8"/>
<path d="M149.779 86.4492L147.875 108.151C147.875 108.151 138.994 117.358 149.144 129.853V145.265C149.144 145.265 167.225 193.009 171.666 194.324C176.107 195.64 176.071 194.324 176.071 194.324C176.071 194.324 173.367 159.671 195.9 148.574C189.771 141.955 194.188 131.168 194.188 131.168C194.188 131.168 200.532 121.961 198.629 108.151C196.725 94.3407 198.629 89.7374 198.629 89.7374L194.188 89.0797C194.188 89.0797 191.333 109.137 171.666 111.11C171.666 111.11 147.241 113.412 154.22 86.4492L149.779 86.4492Z" fill="#2F2E41"/>
<path d="M200.09 192.547L184.114 166.415C184.114 163.226 187.516 163.02 189.217 163.315L204.75 189.447C204.75 193.167 201.644 193.064 200.09 192.547Z" fill="#2945FF"/>
<path d="M189.217 163.315C187.516 163.02 184.114 163.226 184.114 166.415C185.653 166.575 188.829 166.178 189.217 163.315Z" fill="#7587FD"/>
<path d="M186.517 164.853C180.432 153.179 155.619 149.979 140.631 172.077C112.201 213.991 173.99 242.843 155.619 289.817C128.72 358.596 43.7583 307.567 75.481 262.117C102.201 223.834 135.861 264.088 116.769 275.943" stroke="#2945FF" stroke-width="1.94682"/>
<path d="M198.563 146.588L196.916 149.526L201.1 159.74C201.1 159.74 193.31 170.746 187.143 174.866C189.539 176.838 195.391 171.577 195.391 171.577C195.391 171.577 184.117 181.454 189.705 186.71C196.195 189.047 205.541 176.838 205.541 176.838C205.541 176.838 213.789 167.632 209.982 159.083C207.874 154.487 206.109 149.73 204.705 144.855C204.705 144.855 199.197 144.615 198.563 146.588Z" fill="#FFB8B8"/>
<path d="M174.138 33.8048C174.138 33.8048 157.643 32.7448 153.836 43.3773C150.03 54.0099 143.368 59.5919 143.368 59.5919C143.368 59.5919 132.875 67.1528 138.122 80.6501C138.122 80.6501 121.798 92.021 132.583 102.122C132.583 102.122 131.949 112.223 138.293 119.134C138.293 119.134 143.368 121.792 141.465 123.387C139.562 124.982 154.154 123.918 152.885 109.565C151.616 95.2107 160.18 85.0997 160.18 85.0997C160.18 85.0997 151.933 66.4894 155.74 60.1099C158.051 56.2366 159.043 53.3482 160.962 51.6765C162.03 50.7675 163.021 49.7651 163.923 48.6804C164.774 47.5631 165.933 46.7379 167.246 46.3132C168.56 45.8886 169.967 45.8844 171.283 46.3012C176.992 47.8961 178.261 52.6807 178.261 52.6807C178.261 52.6807 182.385 64.1106 189.364 69.4269C196.342 74.7432 183.971 84.0466 183.971 84.0466C183.971 84.0466 186.121 95 191.708 101.485C197.294 107.97 190.098 113.622 189.681 114.349C188.729 116.008 184.929 126.484 200.627 126.53C200.627 126.53 204.272 118.602 209.348 113.818C214.423 109.033 210.616 95.2107 210.616 95.2107C210.616 95.2107 218.229 90.4261 209.982 78.7303C209.982 78.7303 212.52 68.0978 205.541 61.1867C205.541 61.1867 195.708 30.0834 174.138 33.8048Z" fill="#FFC38C"/>
<path fill-rule="evenodd" clip-rule="evenodd" d="M156.537 60.946C156.537 63.4189 159.454 65.4236 163.052 65.4236C165.51 65.4236 167.651 64.4878 168.76 63.1061C170.207 62.515 171.964 62.3682 174.457 63.6631C175.647 64.7333 177.524 65.4237 179.636 65.4237C183.234 65.4237 186.151 63.419 186.151 60.946C186.151 58.4731 183.234 56.4683 179.636 56.4683C178.055 56.4683 176.606 56.8553 175.477 57.499C173.528 58.0845 170.621 58.4936 167.605 57.7432C166.431 56.9544 164.824 56.4683 163.052 56.4683C159.454 56.4683 156.537 58.473 156.537 60.946Z" fill="#2945FF"/>
<path d="M158.926 60.7011C160.25 59.5637 163.739 57.9713 167.103 60.7011C165.779 61.9143 162.29 63.6128 158.926 60.7011Z" fill="#FFB8B8"/>
<path d="M174.722 60.7011C176.046 59.5637 179.535 57.9713 182.899 60.7011C181.575 61.9143 178.086 63.6128 174.722 60.7011Z" fill="#FFB8B8"/>
<path d="M190.483 176.665L188.536 173.55L192.797 169.377L194.766 172.576L190.483 176.665Z" fill="#2945FF"/>
</g>
</g>
<defs>
<clipPath id="clip0">
<rect width="330" height="370" fill="white" transform="translate(0.973633)"/>
</clipPath>
<clipPath id="clip1">
<rect width="260.401" height="343.729" fill="white" transform="translate(25.6671 33.4956)"/>
</clipPath>
</defs>
</svg>
