<svg width="30" height="30" viewBox="0 0 30 30" fill="none" xmlns="http://www.w3.org/2000/svg">
<path d="M24.6118 0H5.38822C2.41705 0 0 2.41705 0 5.38822V24.6117C0 27.583 2.41705 30 5.38822 30H24.6118C27.5829 30 30 27.5829 30 24.6118V5.38822C30 2.41705 27.5829 0 24.6118 0ZM25.3529 23.4118H15.7382C14.8932 25.9131 11.3433 25.917 10.4971 23.4118H4.64707C3.47977 23.4118 3.47947 21.6471 4.64707 21.6471H10.4971C11.3421 19.1457 14.892 19.1419 15.7382 21.6471H25.3529C26.5202 21.6471 26.5206 23.4118 25.3529 23.4118ZM25.3529 15.8824H23.2676C22.4226 18.3837 18.8728 18.3875 18.0264 15.8824H4.64707C3.47977 15.8824 3.47947 14.1176 4.64707 14.1176H18.0265C18.8715 11.6163 22.4214 11.6125 23.2677 14.1176H25.353C26.5202 14.1176 26.5206 15.8824 25.3529 15.8824ZM25.3529 8.35295H11.9735C11.1285 10.8543 7.57863 10.8581 6.73236 8.35295H4.64707C3.47977 8.35295 3.47947 6.58822 4.64707 6.58822H6.73236C7.57734 4.08686 11.1272 4.08305 11.9735 6.58822H25.3529C26.5202 6.58822 26.5206 8.35295 25.3529 8.35295Z" fill="#9698B4"/>
</svg>
