<svg width="202" height="211" viewBox="0 0 202 211" fill="none" xmlns="http://www.w3.org/2000/svg">
<path d="M129.672 157.644L150.415 93.1099H108.929L129.672 157.644Z" fill="#A6E9FF"/>
<path d="M156.548 93.1099L130.378 174.526L202 93.1099H156.548Z" fill="#56D7FF"/>
<path d="M103.452 93.1101H58L129.622 174.527L103.452 93.1101Z" fill="#56D7FF"/>
<path d="M199.596 88.7423L181.954 51.7998L158.205 88.7423H199.596Z" fill="#56D7FF"/>
<path d="M82.0693 49L105.706 85.7685L129.343 49H82.0693Z" fill="white"/>
<path d="M130.655 49L154.292 85.7685L177.929 49H130.655Z" fill="#56D7FF"/>
<path d="M110.988 88.7423H148.353L129.67 59.6812L110.988 88.7423Z" fill="#A6E9FF"/>
<path d="M76.731 51.7998L59.0889 88.7423H100.48L76.731 51.7998Z" fill="#56D7FF"/>
<path d="M40.8132 200.867L52.6253 164.118H29.001L40.8132 200.867Z" fill="#A6E9FF"/>
<path d="M56.1171 164.118L41.2148 210.48L81.9998 164.118H56.1171Z" fill="#56D7FF"/>
<path d="M25.8827 164.118H0L40.7848 210.481L25.8827 164.118Z" fill="#56D7FF"/>
<path d="M80.6312 161.631L70.585 140.594L57.0615 161.631H80.6312Z" fill="#56D7FF"/>
<path d="M13.7061 139L27.166 159.938L40.6259 139H13.7061Z" fill="white"/>
<path d="M41.373 139L54.833 159.938L68.2929 139H41.373Z" fill="#56D7FF"/>
<path d="M30.1738 161.631H51.4508L40.8123 145.082L30.1738 161.631Z" fill="#A6E9FF"/>
<path d="M10.6663 140.594L0.620117 161.631H24.1898L10.6663 140.594Z" fill="#56D7FF"/>
<path d="M58.2519 42.8258L66.4286 17.3875H50.0752L58.2519 42.8258Z" fill="#A6E9FF"/>
<path d="M68.846 17.3875L58.5303 49.4805L86.7626 17.3875H68.846Z" fill="#56D7FF"/>
<path d="M47.9167 17.3875H30L58.2322 49.4805L47.9167 17.3875Z" fill="#56D7FF"/>
<path d="M85.8146 15.6657L78.8603 1.10352L69.499 15.6657H85.8146Z" fill="#56D7FF"/>
<path d="M39.4873 0L48.8046 14.4936L58.1219 0H39.4873Z" fill="white"/>
<path d="M58.6396 0L67.957 14.4936L77.2743 0H58.6396Z" fill="#56D7FF"/>
<path d="M50.8867 15.6657H65.6152L58.251 4.21021L50.8867 15.6657Z" fill="#A6E9FF"/>
<path d="M37.3829 1.10376L30.4287 15.6659H46.7443L37.3829 1.10376Z" fill="#56D7FF"/>
</svg>
