<svg width="33" height="29" viewBox="0 0 33 29" fill="none" xmlns="http://www.w3.org/2000/svg">
<path d="M4.46862 14.9807V14.7126H0.670314C0.178762 14.7127 0 15.1595 0 15.651V23.9626C0 24.4542 0.178762 24.9904 0.670314 24.9904H3.35149C3.7617 24.9546 4.13838 25.2183 4.24521 25.6159L4.82614 28.2077L7.64134 25.2138C7.81087 25.0574 8.03676 24.9768 8.26692 24.9904H14.2102C14.7418 24.9276 15.1541 24.4965 15.1933 23.9626V19.628H9.02662C6.51489 19.5337 4.51429 17.4938 4.46862 14.9807Z" fill="white"/>
<path d="M29.7161 0.413086H9.02641C7.55176 0.413086 6.25586 1.30681 6.25586 2.78147V14.9808C6.27784 16.5167 7.49197 17.77 9.02641 17.8407H18.053C18.2833 17.8271 18.5091 17.9078 18.6786 18.0642L23.9516 23.7393L25.1581 18.4663C25.2458 18.0754 25.6078 17.8088 26.0072 17.8407H29.7161C31.1907 17.8407 32.1739 16.4555 32.1739 14.9808V2.78147C32.1738 1.30681 31.1907 0.413086 29.7161 0.413086ZM10.2329 5.32852H20.9576C21.4512 5.32852 21.8513 5.72864 21.8513 6.22225C21.8513 6.71585 21.4512 7.11597 20.9576 7.11597H10.2329C9.73932 7.11597 9.3392 6.71585 9.3392 6.22225C9.3392 5.72864 9.73932 5.32852 10.2329 5.32852ZM28.1073 12.4783H10.2328C9.73924 12.4783 9.33912 12.0782 9.33912 11.5846C9.33912 11.091 9.73924 10.6909 10.2328 10.6909H28.1073C28.6009 10.6909 29.001 11.091 29.001 11.5846C29.001 12.0782 28.6009 12.4783 28.1073 12.4783Z" fill="white"/>
</svg>
