<svg width="30" height="18" viewBox="0 0 30 18" fill="none" xmlns="http://www.w3.org/2000/svg">
<path d="M15 0.0586548C9.26818 0.0586548 4.07027 3.19459 0.234735 8.28817C-0.0782449 8.70548 -0.0782449 9.28848 0.234735 9.70579C4.07027 14.8055 9.26818 17.9414 15 17.9414C20.7318 17.9414 25.9297 14.8055 29.7653 9.71192C30.0782 9.29461 30.0782 8.71162 29.7653 8.29431C25.9297 3.19459 20.7318 0.0586548 15 0.0586548ZM15.4112 15.2965C11.6063 15.5358 8.46425 12.3999 8.70359 8.58888C8.89997 5.44681 11.4468 2.90002 14.5888 2.70364C18.3937 2.4643 21.5357 5.60023 21.2964 9.41122C21.0939 12.5471 18.5471 15.0939 15.4112 15.2965ZM15.2209 12.3876C13.1712 12.5165 11.4774 10.8288 11.6125 8.77912C11.7168 7.08535 13.0914 5.71683 14.7852 5.60637C16.8349 5.47749 18.5287 7.16513 18.3937 9.21484C18.2832 10.9147 16.9086 12.2833 15.2209 12.3876Z" fill="white" fill-opacity="0.8"/>
</svg>
