<svg width="28" height="24" viewBox="0 0 28 24" fill="none" xmlns="http://www.w3.org/2000/svg">
<path d="M3.76784 12.3472V12.1212H0.565194C0.150728 12.1212 0 12.498 0 12.9124V19.9206C0 20.335 0.150728 20.7872 0.565194 20.7872H2.8259C3.17178 20.757 3.48939 20.9793 3.57947 21.3146L4.0693 23.5L6.44301 20.9755C6.58595 20.8437 6.77641 20.7757 6.97049 20.7872H11.9817C12.4299 20.7342 12.7776 20.3707 12.8107 19.9206V16.2657H7.61104C5.49321 16.1862 3.80635 14.4662 3.76784 12.3472Z" fill="white"/>
<path d="M25.0562 0.0641479H7.61112C6.36773 0.0641479 5.27505 0.817716 5.27505 2.06111V12.3473C5.29359 13.6424 6.31731 14.6991 7.61112 14.7588H15.2222C15.4163 14.7473 15.6067 14.8153 15.7496 14.9471L20.1957 19.7323L21.213 15.2862C21.287 14.9567 21.5922 14.7318 21.9289 14.7588H25.0562C26.2996 14.7588 27.1285 13.5907 27.1285 12.3473V2.06111C27.1285 0.817716 26.2995 0.0641479 25.0562 0.0641479ZM8.62843 4.20874H17.6712C18.0874 4.20874 18.4248 4.54611 18.4248 4.9623C18.4248 5.3785 18.0874 5.71587 17.6712 5.71587H8.62843C8.21223 5.71587 7.87486 5.3785 7.87486 4.9623C7.87486 4.54611 8.21223 4.20874 8.62843 4.20874ZM23.6997 10.2373H8.62836C8.21216 10.2373 7.87479 9.89991 7.87479 9.48371C7.87479 9.06752 8.21216 8.73014 8.62836 8.73014H23.6997C24.1159 8.73014 24.4533 9.06752 24.4533 9.48371C24.4533 9.89991 24.1159 10.2373 23.6997 10.2373Z" fill="white"/>
</svg>
