<svg width="40" height="40" viewBox="0 0 40 40" fill="none" xmlns="http://www.w3.org/2000/svg">
<circle cx="20" cy="20" r="20" fill="#90EB71"/>
<path d="M31.9683 10.7542L31.2752 10.125C30.1249 9.08015 28.3962 9.19661 27.3805 10.3869L15.7869 23.9732L12.2874 20.7877C11.1382 19.7417 9.40926 19.8558 8.3924 21.0449L7.77964 21.7615C7.28272 22.3423 7.0247 23.1084 7.06217 23.891C7.10001 24.6732 7.43017 25.4075 7.98055 25.9325L14.3954 32.141C14.9508 32.6922 15.6952 32.9797 16.456 32.937C17.2168 32.8945 17.9281 32.5251 18.425 31.9147L32.2649 14.9191C32.7484 14.3253 32.9888 13.5529 32.933 12.7719C32.8774 11.9903 32.5304 11.2647 31.9683 10.7542Z" fill="white"/>
</svg>
