<svg width="10" height="9" viewBox="0 0 10 9" fill="none" xmlns="http://www.w3.org/2000/svg">
<path d="M8.93986 0.513489L8.7008 0.272793C8.304 -0.126845 7.70772 -0.0822987 7.35739 0.373001L3.35836 5.56974L2.15124 4.35129C1.75485 3.9512 1.15848 3.99485 0.807733 4.44966L0.59637 4.72377C0.424964 4.94592 0.335966 5.23897 0.34889 5.53832C0.361943 5.83749 0.475825 6.11836 0.665671 6.31916L2.87839 8.69393C3.06996 8.90477 3.32671 9.01473 3.58913 8.99841C3.85156 8.98213 4.09691 8.84083 4.26833 8.60737L9.04216 2.10654C9.20894 1.87941 9.29186 1.58397 9.27264 1.28524C9.25343 0.986304 9.13376 0.708742 8.93986 0.513489Z" fill="#90EB71"/>
</svg>
