<svg width="706" height="589" viewBox="0 0 706 589" fill="none" xmlns="http://www.w3.org/2000/svg">
<g clip-path="url(#clip0)">
<path d="M214.158 137.979C236.648 120.67 271.879 117.11 303.973 118.493C404.802 122.83 495.77 164.982 574.475 212.604C602.969 229.861 631.024 248.457 649.52 272.222C687.173 320.593 676.004 387.604 623.651 427.454C605.836 441.009 584.243 451.407 562.107 460.619C522.692 476.998 480.161 490.151 435.423 493.892C403.518 496.563 371.26 494.397 339.512 490.672C250.901 480.263 163.92 457.223 91.0162 417.884C59.0458 400.621 28.9086 379.151 15.7223 351.219C2.53608 323.286 10.9493 287.915 43.6007 271.383C57.1012 264.546 73.2468 261.462 89.052 258.559C112.321 254.29 135.963 250.055 156.954 241.404C178.639 232.441 204.317 215.11 200.029 195.273C195.4 173.962 191.72 155.287 214.158 137.979Z" fill="#CFF3FF"/>
<path d="M198.419 536.892C198.419 536.892 166.345 534.961 170.11 557.443C170.11 557.443 169.364 561.416 172.962 563.222C172.962 563.222 173.018 561.555 176.253 562.12C177.405 562.309 178.574 562.365 179.739 562.287C181.315 562.178 182.813 561.559 184.006 560.524C184.006 560.524 193.022 556.801 196.557 542.065C196.557 542.065 199.158 538.844 199.053 538.021L193.635 540.329C193.635 540.329 195.483 544.24 194.033 547.481C194.033 547.481 193.859 540.51 192.813 540.642C192.604 540.642 190.024 541.995 190.024 541.995C190.024 541.995 193.21 548.799 190.805 553.741C190.805 553.741 191.718 545.376 189.027 542.483L185.171 544.707C185.171 544.707 188.887 551.74 186.363 557.47C186.363 557.47 187.012 548.673 184.369 545.25L180.883 547.948C180.883 547.948 184.369 554.87 182.277 559.625C182.277 559.625 181.998 549.391 180.185 548.617C180.185 548.617 177.166 551.28 176.699 552.375C176.699 552.375 179.098 557.401 177.613 560.043C177.613 560.043 176.699 553.218 175.953 553.19C175.953 553.19 172.941 557.708 172.627 560.803C172.627 560.803 172.76 556.195 175.221 552.758C175.221 552.758 172.313 553.253 170.612 555.142C170.612 555.142 171.079 551.949 175.967 551.657C175.967 551.657 178.456 548.227 179.119 548.018C179.119 548.018 174.238 547.613 171.316 548.917C171.316 548.917 173.91 545.906 180.011 547.272L183.421 544.484C183.421 544.484 177.027 543.605 174.315 544.574C174.315 544.574 177.431 541.911 184.341 543.877L188.05 541.66C188.05 541.66 182.598 540.482 179.349 540.907C179.349 540.907 182.779 539.06 189.11 541.061L191.795 539.876C191.795 539.876 187.799 539.095 186.628 538.969C185.457 538.844 185.401 538.523 185.401 538.523C187.931 538.102 190.528 538.391 192.903 539.36C192.903 539.36 198.537 537.248 198.419 536.892Z" fill="#90EB71"/>
<path opacity="0.1" d="M176.337 569.021C188.879 569.021 199.046 567.301 199.046 565.18C199.046 563.059 188.879 561.339 176.337 561.339C163.794 561.339 153.627 563.059 153.627 565.18C153.627 567.301 163.794 569.021 176.337 569.021Z" fill="#2B2949"/>
<path d="M259.998 477.659C259.998 477.659 241.905 476.565 244.038 489.238C243.927 489.882 244.022 490.544 244.31 491.13C244.599 491.716 245.065 492.196 245.642 492.501C245.642 492.501 245.642 491.56 247.497 491.88C248.147 491.984 248.806 492.014 249.463 491.971C250.351 491.911 251.196 491.564 251.868 490.981C251.868 490.981 256.951 488.89 258.932 480.566C258.932 480.566 260.396 478.754 260.326 478.294L257.272 479.597C257.272 479.597 258.311 481.793 257.495 483.627C257.495 483.627 257.391 479.674 256.798 479.765C256.679 479.765 255.215 480.532 255.215 480.532C255.215 480.532 257.007 484.366 255.654 487.154C255.654 487.154 256.17 482.428 254.65 480.81L252.503 482.065C252.503 482.065 254.595 486.025 253.2 489.259C253.2 489.259 253.563 484.296 252.071 482.365L250.125 483.885C250.125 483.885 252.098 487.788 250.892 490.472C250.892 490.472 250.739 484.7 249.7 484.261C248.964 484.876 248.306 485.578 247.741 486.352C247.741 486.352 249.086 489.183 248.25 490.681C248.25 490.681 247.741 486.833 247.315 486.819C247.315 486.819 245.621 489.364 245.447 491.107C245.528 489.493 246.031 487.928 246.904 486.568C245.926 486.757 245.024 487.227 244.31 487.921C244.31 487.921 244.568 486.115 247.322 485.955C247.322 485.955 248.717 484.024 249.1 483.906C249.1 483.906 246.367 483.682 244.701 484.414C244.701 484.414 246.165 482.713 249.581 483.487L251.506 481.919C251.506 481.919 247.901 481.424 246.374 481.968C246.374 481.968 248.131 480.469 252.022 481.563L254.114 480.308C252.512 479.957 250.871 479.817 249.233 479.89C249.233 479.89 251.164 478.845 254.755 479.974L256.247 479.277C256.247 479.277 253.995 478.831 253.34 478.761C252.684 478.691 252.642 478.51 252.642 478.51C254.07 478.273 255.535 478.437 256.875 478.984C256.875 478.984 260.047 477.834 259.998 477.659Z" fill="#90EB71"/>
<path opacity="0.1" d="M247.532 495.77C254.602 495.77 260.334 494.803 260.334 493.609C260.334 492.416 254.602 491.448 247.532 491.448C240.462 491.448 234.73 492.416 234.73 493.609C234.73 494.803 240.462 495.77 247.532 495.77Z" fill="#2B2949"/>
<path d="M153.215 488.653C153.215 488.653 131.37 487.342 133.943 502.644C133.811 503.42 133.927 504.218 134.275 504.924C134.623 505.63 135.185 506.208 135.881 506.575C135.881 506.575 135.923 505.439 138.127 505.823C138.909 505.955 139.705 505.995 140.497 505.941C141.57 505.872 142.589 505.45 143.398 504.742C143.398 504.742 149.541 502.205 151.925 492.194C151.925 492.194 153.696 490.005 153.627 489.406L149.938 490.981C149.938 490.981 151.2 493.637 150.21 495.861C150.21 495.861 150.085 491.093 149.38 491.204C149.234 491.204 147.463 492.125 147.463 492.125C147.463 492.125 149.631 496.76 147.993 500.12C147.993 500.12 148.613 494.418 146.787 492.452L144.193 493.965C144.193 493.965 146.724 498.754 145.008 502.658C145.008 502.658 145.448 496.67 143.649 494.334L141.299 496.168C141.299 496.168 143.677 500.887 142.226 504.122C142.226 504.122 142.031 497.151 140.783 496.628C140.783 496.628 138.726 498.44 138.412 499.186C138.412 499.186 140.044 502.609 139.033 504.414C139.033 504.414 138.412 499.772 137.903 499.751C137.903 499.751 135.854 502.825 135.644 504.937C135.74 502.983 136.349 501.089 137.408 499.444C136.226 499.666 135.135 500.231 134.271 501.068C134.271 501.068 134.592 498.893 137.917 498.698C137.917 498.698 139.605 496.37 140.065 496.224C140.065 496.224 136.753 495.952 134.752 496.837C134.752 496.837 136.516 494.788 140.665 495.715L142.986 493.867C142.986 493.867 138.636 493.268 136.788 493.93C136.788 493.93 138.914 492.111 143.614 493.435L146.145 491.922C146.145 491.922 142.429 491.128 140.218 491.414C140.218 491.414 142.554 490.159 146.884 491.518L148.69 490.709C148.69 490.709 145.971 490.173 145.204 490.089C144.437 490.005 144.36 489.782 144.36 489.782C146.084 489.497 147.853 489.695 149.471 490.354C149.471 490.354 153.278 488.897 153.215 488.653Z" fill="#90EB71"/>
<path opacity="0.1" d="M138.161 510.527C146.699 510.527 153.619 509.357 153.619 507.913C153.619 506.469 146.699 505.299 138.161 505.299C129.624 505.299 122.703 506.469 122.703 507.913C122.703 509.357 129.624 510.527 138.161 510.527Z" fill="#2B2949"/>
<path d="M337.276 134.729C331.503 136.966 324.983 140.013 323.484 146.015C323.006 148.331 323.131 150.731 323.847 152.986C324.695 155.899 326.111 158.616 328.014 160.98C329.916 163.344 332.268 165.309 334.933 166.76C341.564 170.322 349.799 170.518 355.851 174.951C359.552 177.685 362.067 181.73 362.879 186.258C363.207 188.154 363.235 190.127 363.932 191.926C365.794 196.742 371.651 198.618 376.81 198.897C379.293 199.043 382.012 199.05 383.909 200.66C384.667 201.376 385.311 202.204 385.819 203.114C389.835 209.52 393.991 216.359 394.033 223.936C394.033 229.876 391.523 235.522 388.587 240.667C384.759 247.38 380.053 253.974 379.174 261.649C378.142 270.712 382.66 279.453 383.246 288.537C383.526 293.375 382.705 298.214 380.845 302.69C378.986 307.166 376.135 311.162 372.508 314.378" stroke="#444053" stroke-miterlimit="10"/>
<path d="M313.911 55.4406C318.345 87.7302 317.592 128.336 288.593 132.317C259.595 136.297 213.339 102.139 208.876 69.8566C204.414 37.5739 224.355 8.17029 253.354 4.18985C282.353 0.209417 309.476 23.1579 313.911 55.4406Z" fill="#2945FF"/>
<path d="M305.098 143.609C305.098 143.609 300.356 145.756 299.638 141.142C299.58 140.731 299.552 140.316 299.555 139.901C299.535 138.472 299.268 137.056 298.767 135.718C298.59 135.244 298.39 134.778 298.167 134.324C297.163 132.266 295.811 130.396 294.172 128.796L305.328 120.277C305.328 120.277 303.362 127.151 305.237 128.803C305.512 129.039 305.865 129.163 306.227 129.151C306.566 129.149 306.902 129.086 307.217 128.963C307.601 128.831 307.95 128.726 308.27 128.643C312.042 127.681 311.757 130.086 311.757 130.086C314.734 135.3 305.098 143.609 305.098 143.609Z" fill="#6C63FF"/>
<path d="M306.228 129.11L298.781 135.697C298.605 135.223 298.405 134.758 298.182 134.303C300.197 132.825 303.286 130.358 305.238 128.782C305.516 129.01 305.869 129.127 306.228 129.11Z" fill="#444053"/>
<path d="M305.098 143.61C305.098 143.61 300.357 145.757 299.639 141.142C301.552 140.439 303.31 139.369 304.812 137.991C306.799 135.976 308.724 131.424 308.257 128.601C312.029 127.639 311.743 130.044 311.743 130.044C314.734 135.3 305.098 143.61 305.098 143.61Z" fill="#6C63FF"/>
<path opacity="0.1" d="M305.098 143.61C305.098 143.61 300.357 145.757 299.639 141.142C301.552 140.439 303.31 139.369 304.812 137.991C306.799 135.976 308.724 131.424 308.257 128.601C312.029 127.639 311.743 130.044 311.743 130.044C314.734 135.3 305.098 143.61 305.098 143.61Z" fill="#2B2949"/>
<path opacity="0.1" d="M232.757 21.5615C232.757 21.5615 218.7 28.665 220.785 39.7698C220.785 39.7698 223.198 37.4833 225.666 36.9395C226.907 36.7324 228.083 36.2356 229.096 35.4896C229.096 35.4896 227.89 29.3551 232.757 21.5615Z" fill="white"/>
<path d="M324.879 215.794C324.314 219.586 323.21 223.279 321.602 226.759C321.176 227.735 320.709 228.725 320.207 229.701C307.078 254.894 270.591 279.502 243.342 275.807C217.899 272.357 198.251 254.846 192.958 233.403C192.7 232.357 192.47 231.312 192.261 230.224C191.399 225.319 191.3 220.311 191.968 215.376C195.162 191.925 214.978 174.386 239.563 170.88C241.733 170.56 243.918 170.36 246.11 170.28C247.17 170.232 248.244 170.218 249.324 170.232C252.086 170.249 254.844 170.444 257.58 170.817C259.093 171.026 260.641 171.242 262.189 171.514C262.321 171.514 262.447 171.563 262.579 171.577C271.997 172.973 281.285 175.137 290.351 178.046C293.14 178.973 295.838 179.963 298.432 181.093C300.238 181.852 301.995 182.668 303.689 183.532C311.296 187.394 317.523 192.225 321.281 198.255C321.658 198.855 321.978 199.461 322.327 200.095L322.473 200.388C323.757 202.918 324.59 205.652 324.935 208.468C325.237 210.902 325.219 213.365 324.879 215.794Z" fill="#2945FF"/>
<path opacity="0.1" d="M324.879 215.794C324.314 219.586 323.21 223.279 321.602 226.759C321.176 227.735 320.709 228.725 320.207 229.701C307.078 254.894 270.591 279.502 243.342 275.807C217.899 272.357 198.251 254.846 192.958 233.403C192.7 232.357 192.47 231.312 192.261 230.224C191.399 225.319 191.3 220.311 191.968 215.376C195.162 191.925 214.978 174.386 239.563 170.88C241.733 170.56 243.918 170.36 246.11 170.28C247.17 170.232 248.244 170.218 249.324 170.232C252.086 170.249 254.844 170.444 257.58 170.817C259.093 171.026 260.641 171.242 262.189 171.514C262.321 171.514 262.447 171.563 262.579 171.577C271.997 172.973 281.285 175.137 290.351 178.046C293.14 178.973 295.838 179.963 298.432 181.093C300.238 181.852 301.995 182.668 303.689 183.532C311.296 187.394 317.523 192.225 321.281 198.255C321.658 198.855 321.978 199.461 322.327 200.095L322.473 200.388C323.757 202.918 324.59 205.652 324.935 208.468C325.237 210.902 325.219 213.365 324.879 215.794Z" fill="#2B2949"/>
<path d="M336.341 207.491C335.928 207.45 335.519 207.369 335.121 207.247C333.735 206.879 332.296 206.759 330.868 206.892C330.348 206.922 329.831 206.987 329.32 207.087C327.806 207.355 326.33 207.809 324.927 208.439C324.245 208.732 323.581 209.067 322.94 209.443L319.335 200.471L319.286 200.339L317.725 196.449C318.861 197.13 320.048 197.724 321.274 198.227C322.989 198.924 324.892 199.461 325.903 198.812C326.199 198.604 326.412 198.298 326.503 197.948C326.595 197.619 326.624 197.276 326.587 196.937C326.587 196.533 326.552 196.17 326.552 195.829C326.65 191.953 328.902 192.852 328.902 192.852C331.488 192.218 333.999 194.121 335.986 196.414C336.279 196.763 336.557 197.111 336.815 197.446C338.107 199.154 339.237 200.979 340.19 202.897C340.19 202.897 340.985 208.056 336.341 207.491Z" fill="#2945FF"/>
<path d="M330.896 206.892C330.376 206.923 329.859 206.988 329.348 207.087C328.651 205.115 327.396 202.208 326.42 199.97C326.357 199.803 326.287 199.656 326.224 199.496C326.162 199.336 326.015 199.022 325.932 198.799C326.228 198.591 326.44 198.285 326.531 197.935L327.187 199.287L327.445 199.824L330.896 206.892Z" fill="#444053"/>
<path d="M336.343 207.491C336.174 205.459 335.611 203.479 334.683 201.663C334.033 200.621 333.232 199.682 332.306 198.875C332.035 198.627 331.751 198.394 331.455 198.178C330.055 196.992 328.375 196.183 326.574 195.829C326.672 191.953 328.924 192.852 328.924 192.852C331.511 192.218 334.021 194.121 336.008 196.414C336.301 196.763 336.58 197.111 336.838 197.446C338.13 199.154 339.26 200.979 340.212 202.897C340.212 202.897 340.986 208.056 336.343 207.491Z" fill="#2945FF"/>
<path opacity="0.1" d="M336.343 207.491C336.174 205.459 335.611 203.479 334.683 201.663C334.033 200.621 333.232 199.682 332.306 198.875C332.035 198.627 331.751 198.394 331.455 198.178C330.055 196.992 328.375 196.183 326.574 195.829C326.672 191.953 328.924 192.852 328.924 192.852C331.511 192.218 334.021 194.121 336.008 196.414C336.301 196.763 336.58 197.111 336.838 197.446C338.13 199.154 339.26 200.979 340.212 202.897C340.212 202.897 340.986 208.056 336.343 207.491Z" fill="#2B2949"/>
<path opacity="0.1" d="M203.188 239.893C203.188 239.893 206.262 255.34 217.523 256.302C217.523 256.302 215.968 253.367 216.129 250.872C216.267 249.618 216.105 248.349 215.654 247.17C215.654 247.17 209.393 246.675 203.188 239.893Z" fill="white"/>
<path d="M365.486 79.3433C359.817 92.2885 352.503 106.049 343.836 116.541C337.192 124.62 329.731 130.74 321.615 133.069C318.111 134.087 314.427 134.325 310.821 133.766C308.385 133.392 306.012 132.688 303.765 131.675C287.931 124.738 273.909 103.337 267.766 80.7863C263.52 65.1504 263.045 49.0125 268.4 36.7854C281.481 6.97746 313.813 -7.69648 340.657 4.04267C367.501 15.7818 378.56 49.4935 365.486 79.3433Z" fill="#2945FF"/>
<path opacity="0.1" d="M365.486 79.3433C359.817 92.2885 352.503 106.049 343.836 116.541C337.192 124.62 329.731 130.74 321.615 133.069C318.111 134.087 314.427 134.325 310.821 133.766C308.385 133.392 306.012 132.688 303.765 131.675C287.931 124.738 273.909 103.337 267.766 80.7863C263.52 65.1504 263.045 49.0125 268.4 36.7854C281.481 6.97746 313.813 -7.69648 340.657 4.04267C367.501 15.7818 378.56 49.4935 365.486 79.3433Z" fill="#2B2949"/>
<path d="M324.711 141.866C324.502 147.889 311.945 149.96 311.945 149.96C311.945 149.96 306.778 149.304 308.591 145.003C308.75 144.622 308.939 144.254 309.156 143.902C309.895 142.664 310.414 141.308 310.69 139.893C310.787 139.385 310.871 138.883 310.92 138.381C311.061 136.844 311.029 135.296 310.822 133.766C310.728 133.03 310.586 132.301 310.397 131.584L324.342 130.12C323.367 131.04 322.456 132.025 321.616 133.069C320.465 134.533 319.468 136.213 319.81 137.349C319.866 137.524 319.957 137.687 320.077 137.827C320.196 137.967 320.343 138.081 320.507 138.165C320.794 138.346 321.114 138.469 321.448 138.527C321.806 138.597 322.16 138.688 322.508 138.799C326.196 139.942 324.711 141.866 324.711 141.866Z" fill="#6C63FF"/>
<path d="M320.478 138.165L310.717 139.894C310.814 139.385 310.898 138.883 310.947 138.381C313.422 138.165 317.348 137.684 319.837 137.35C319.938 137.694 320.168 137.986 320.478 138.165Z" fill="#444053"/>
<path d="M324.711 141.866C324.502 147.889 311.945 149.959 311.945 149.959C311.945 149.959 306.778 149.304 308.591 145.003C310.591 145.399 312.65 145.399 314.65 145.003C317.383 144.306 321.406 141.455 322.48 138.799C326.196 139.942 324.711 141.866 324.711 141.866Z" fill="#6C63FF"/>
<path opacity="0.1" d="M324.711 141.866C324.502 147.889 311.945 149.959 311.945 149.959C311.945 149.959 306.778 149.304 308.591 145.003C310.591 145.399 312.65 145.399 314.65 145.003C317.383 144.306 321.406 141.455 322.48 138.799C326.196 139.942 324.711 141.866 324.711 141.866Z" fill="#2B2949"/>
<path opacity="0.1" d="M313.966 8.09288C313.966 8.09288 298.271 6.81022 294.248 17.3782C294.248 17.3782 297.497 16.6811 299.868 17.4898C301.035 17.9685 302.3 18.1597 303.556 18.0475C303.556 18.0475 305.739 12.1709 313.966 8.09288Z" fill="white"/>
<g opacity="0.1">
<path opacity="0.1" d="M153.585 208.538C153.459 211.027 155.021 213.954 155.021 213.954C143.767 212.999 140.686 197.559 140.686 197.559C146.891 204.334 153.111 204.836 153.111 204.836C153.562 206.015 153.724 207.284 153.585 208.538Z" fill="#2B2949"/>
<path opacity="0.1" d="M260.474 167.102L255.266 154.108C256.402 154.789 257.589 155.384 258.815 155.886C260.769 158.98 262.014 162.467 262.461 166.098C261.779 166.393 261.116 166.728 260.474 167.102Z" fill="#2B2949"/>
<path opacity="0.1" d="M262.566 171.549C262.517 172.17 262.454 172.818 262.371 173.459C261.802 177.25 260.693 180.94 259.08 184.418C258.654 185.394 258.18 186.383 257.685 187.366C246.432 208.976 218.011 230.147 192.938 233.375C191.479 227.481 191.148 221.365 191.962 215.348C195.155 191.898 214.971 174.359 239.557 170.852C245.53 169.994 251.594 169.973 257.574 170.789C259.219 171.047 260.893 171.277 262.566 171.549Z" fill="#2B2949"/>
<path opacity="0.1" d="M273.847 165.15C273.431 165.109 273.02 165.028 272.62 164.906C271.237 164.538 269.799 164.418 268.374 164.551C267.854 164.58 267.337 164.645 266.826 164.746C264.579 165.164 262.419 165.96 260.439 167.102L255.23 154.108C256.367 154.789 257.553 155.383 258.779 155.886C260.488 156.583 262.391 157.12 263.402 156.471C263.698 156.262 263.913 155.956 264.009 155.607C264.095 155.277 264.121 154.935 264.086 154.596C264.086 154.192 264.086 153.836 264.086 153.495C264.183 149.619 266.428 150.511 266.428 150.511C272.278 149.075 277.717 160.556 277.717 160.556C277.717 160.556 278.484 165.708 273.847 165.15Z" fill="#2B2949"/>
<path opacity="0.1" d="M268.374 164.55C267.854 164.58 267.337 164.645 266.826 164.745C265.961 162.417 264.399 158.785 263.402 156.471C263.698 156.261 263.913 155.956 264.009 155.606L268.374 164.55Z" fill="#2B2949"/>
<path opacity="0.1" d="M273.848 165.15C273.673 163.118 273.107 161.14 272.182 159.322C270.787 156.876 266.903 153.801 264.059 153.495C264.156 149.619 266.401 150.511 266.401 150.511C272.251 149.075 277.69 160.556 277.69 160.556C277.69 160.556 278.485 165.708 273.848 165.15Z" fill="#2B2949"/>
<path opacity="0.1" d="M273.848 165.15C273.673 163.118 273.107 161.14 272.182 159.322C270.787 156.876 266.903 153.801 264.059 153.495C264.156 149.619 266.401 150.511 266.401 150.511C272.251 149.075 277.69 160.556 277.69 160.556C277.69 160.556 278.485 165.708 273.848 165.15Z" fill="#2B2949"/>
<path opacity="0.1" d="M155.021 213.954C143.767 212.999 140.686 197.559 140.686 197.559C146.891 204.334 153.111 204.836 153.111 204.836C153.562 206.015 153.724 207.284 153.585 208.538C153.459 211.027 155.021 213.954 155.021 213.954Z" fill="#2B2949"/>
</g>
<path d="M262.376 170.197C262.313 170.622 262.244 171.047 262.181 171.487C261.543 174.826 260.501 178.075 259.078 181.162C258.946 181.455 258.813 181.762 258.667 182.055C258.36 182.752 258.018 183.449 257.656 184.104C246.291 205.909 217.459 227.261 192.225 230.224C188.429 230.712 184.586 230.712 180.79 230.224C148.494 225.839 125.505 198.778 129.431 169.793C132.624 146.342 152.44 128.803 177.032 125.297C177.792 125.185 178.559 125.088 179.34 125.004C184.564 124.448 189.837 124.525 195.042 125.234C205.843 126.684 217.389 128.963 227.813 132.435C230.012 133.169 232.155 133.955 234.242 134.791C234.8 135.007 235.351 135.251 235.888 135.488C236.899 135.914 237.896 136.374 238.872 136.827C239.653 137.182 240.399 137.559 241.152 137.935C248.759 141.797 254.978 146.628 258.744 152.658C260.697 155.749 261.943 159.234 262.39 162.863C262.707 165.298 262.702 167.764 262.376 170.197Z" fill="#2945FF"/>
<path d="M273.847 161.894C273.431 161.853 273.02 161.772 272.62 161.65C271.236 161.284 269.799 161.161 268.374 161.288C267.854 161.323 267.337 161.39 266.826 161.49C265.31 161.759 263.833 162.211 262.426 162.835C261.745 163.134 261.081 163.471 260.439 163.846L255.23 150.852C256.369 151.53 257.555 152.124 258.779 152.63C260.488 153.327 262.391 153.864 263.402 153.215C263.698 153.006 263.913 152.701 264.009 152.351C264.095 152.021 264.121 151.679 264.086 151.34C264.086 150.936 264.086 150.573 264.086 150.232C264.183 146.356 266.428 147.255 266.428 147.255C272.278 145.819 277.717 157.3 277.717 157.3C277.717 157.3 278.484 162.445 273.847 161.894Z" fill="#6C63FF"/>
<path d="M268.374 161.288C267.854 161.324 267.337 161.391 266.826 161.491C265.961 159.155 264.399 155.53 263.402 153.216C263.698 153.007 263.913 152.701 264.009 152.352L268.374 161.288Z" fill="#444053"/>
<path d="M273.846 161.894C273.672 159.862 273.106 157.883 272.18 156.066C270.785 153.62 266.901 150.545 264.057 150.232C264.154 146.356 266.399 147.255 266.399 147.255C272.249 145.819 277.688 157.3 277.688 157.3C277.688 157.3 278.483 162.445 273.846 161.894Z" fill="#6C63FF"/>
<path opacity="0.1" d="M273.846 161.894C273.672 159.862 273.106 157.883 272.18 156.066C270.785 153.62 266.901 150.545 264.057 150.232C264.154 146.356 266.399 147.255 266.399 147.255C272.249 145.819 277.688 157.3 277.688 157.3C277.688 157.3 278.483 162.445 273.846 161.894Z" fill="#2B2949"/>
<path opacity="0.1" d="M140.678 194.296C140.678 194.296 143.76 209.737 155.02 210.706C155.02 210.706 153.458 207.771 153.591 205.275C153.729 204.021 153.567 202.752 153.117 201.574C153.117 201.574 146.89 201.086 140.678 194.296Z" fill="white"/>
<g opacity="0.1">
<path opacity="0.1" d="M161.213 62.6553C160.493 63.6933 159.537 64.5461 158.424 65.1439C156.291 66.4475 154.743 69.3823 154.743 69.3823C149.165 59.5462 160.216 48.2881 160.216 48.2881C158.117 57.2458 161.213 62.6553 161.213 62.6553Z" fill="#2B2949"/>
<path opacity="0.1" d="M235.923 135.461C237.736 136.227 239.491 137.043 241.187 137.907C239.046 138.456 236.871 138.859 234.675 139.113C217.083 141.205 194.555 135.705 177.096 125.283C183.067 124.425 189.129 124.403 195.106 125.22C205.906 126.67 217.453 128.95 227.877 132.421C230.631 133.348 233.336 134.338 235.923 135.461Z" fill="#2B2949"/>
<path opacity="0.1" d="M261.255 122.257C259.802 125.613 257.632 128.608 254.896 131.034C254.27 130.632 253.618 130.273 252.943 129.96L260.732 118.298C260.809 119.629 260.984 120.952 261.255 122.257Z" fill="#2B2949"/>
<path opacity="0.1" d="M268.061 140.493C268.061 140.493 264.268 144.063 262.099 139.929C261.909 139.555 261.746 139.169 261.611 138.772C261.132 137.422 260.425 136.166 259.52 135.056C259.192 134.652 258.822 134.261 258.495 133.899C257.415 132.8 256.205 131.837 254.89 131.034C254.264 130.632 253.612 130.273 252.938 129.96L260.726 118.298C260.808 119.629 260.987 120.952 261.263 122.257C261.639 124.084 262.288 125.938 263.396 126.44C263.732 126.559 264.099 126.559 264.435 126.44C264.759 126.333 265.06 126.165 265.321 125.945C265.641 125.701 265.934 125.478 266.213 125.297C269.469 123.205 269.992 125.541 269.992 125.541C274.483 129.535 268.061 140.493 268.061 140.493Z" fill="#2B2949"/>
<path opacity="0.1" d="M264.429 126.412L259.513 135.056C259.186 134.652 258.816 134.261 258.488 133.899C259.918 131.863 262.037 128.524 263.369 126.412C263.711 126.536 264.087 126.536 264.429 126.412Z" fill="#2B2949"/>
<path opacity="0.1" d="M268.061 140.493C268.061 140.493 264.268 144.062 262.1 139.929C263.681 138.639 264.997 137.055 265.976 135.265C267.204 132.728 267.559 127.792 266.206 125.269C269.463 123.177 269.986 125.513 269.986 125.513C274.483 129.535 268.061 140.493 268.061 140.493Z" fill="#2B2949"/>
<path opacity="0.1" d="M268.061 140.493C268.061 140.493 264.268 144.062 262.1 139.929C263.681 138.639 264.997 137.055 265.976 135.265C267.204 132.728 267.559 127.792 266.206 125.269C269.463 123.177 269.986 125.513 269.986 125.513C274.483 129.535 268.061 140.493 268.061 140.493Z" fill="#2B2949"/>
<path opacity="0.1" d="M161.213 62.6553C160.493 63.6933 159.537 64.5461 158.424 65.1439C156.291 66.4475 154.743 69.3823 154.743 69.3823C149.165 59.5462 160.216 48.2881 160.216 48.2881C158.117 57.2458 161.213 62.6553 161.213 62.6553Z" fill="#2B2949"/>
</g>
<path d="M261.254 120.626C259.803 123.982 257.633 126.978 254.895 129.402C253.051 131.037 250.997 132.418 248.787 133.508C245.661 135.044 242.343 136.15 238.921 136.798C237.526 137.091 236.132 137.3 234.654 137.496C234.556 137.496 234.472 137.496 234.375 137.53C217.599 139.468 196.388 134.498 179.382 124.983C167.801 118.521 158.179 109.967 153.207 100.054C138.614 70.9156 147.978 36.6741 174.125 23.5617C200.272 10.4493 233.336 23.4362 247.922 52.6028C252.803 62.3622 257.454 73.1533 260.473 83.7214C260.752 84.6833 261.01 85.6244 261.254 86.5725C264.559 99.197 265.354 111.313 261.254 120.626Z" fill="#2945FF"/>
<path opacity="0.1" d="M261.254 120.626C259.803 123.982 257.633 126.978 254.895 129.402C253.051 131.037 250.997 132.418 248.787 133.508C245.661 135.044 242.343 136.15 238.921 136.798C237.526 137.091 236.132 137.3 234.654 137.496C234.556 137.496 234.472 137.496 234.375 137.53C217.599 139.468 196.388 134.498 179.382 124.983C167.801 118.521 158.179 109.967 153.207 100.054C138.614 70.9156 147.978 36.6741 174.125 23.5617C200.272 10.4493 233.336 23.4362 247.922 52.6028C252.803 62.3622 257.454 73.1533 260.473 83.7214C260.752 84.6833 261.01 85.6244 261.254 86.5725C264.559 99.197 265.354 111.313 261.254 120.626Z" fill="#2B2949"/>
<path d="M268.059 138.869C268.059 138.869 264.266 142.432 262.097 138.298C261.906 137.925 261.742 137.538 261.609 137.141C261.129 135.792 260.421 134.536 259.518 133.425C259.196 133.024 258.854 132.64 258.493 132.275C257.413 131.174 256.203 130.209 254.888 129.403C254.261 129.004 253.608 128.645 252.936 128.329L260.724 116.674C260.806 118.003 260.986 119.324 261.261 120.626C261.637 122.453 262.286 124.307 263.394 124.809C263.73 124.932 264.098 124.932 264.433 124.809C264.756 124.702 265.056 124.536 265.319 124.321C265.64 124.077 265.932 123.847 266.211 123.666C269.467 121.574 269.99 123.91 269.99 123.91C274.481 127.89 268.059 138.869 268.059 138.869Z" fill="#6C63FF"/>
<path d="M264.427 124.78L259.511 133.424C259.19 133.023 258.848 132.64 258.486 132.274C259.916 130.239 262.035 126.899 263.367 124.78C263.709 124.908 264.085 124.908 264.427 124.78Z" fill="#444053"/>
<path d="M268.059 138.869C268.059 138.869 264.266 142.432 262.098 138.298C263.679 137.011 264.995 135.429 265.974 133.641C267.202 131.097 267.557 126.168 266.204 123.638C269.461 121.546 269.984 123.882 269.984 123.882C274.481 127.89 268.059 138.869 268.059 138.869Z" fill="#6C63FF"/>
<path opacity="0.1" d="M268.059 138.869C268.059 138.869 264.266 142.432 262.098 138.298C263.679 137.011 264.995 135.429 265.974 133.641C267.202 131.097 267.557 126.168 266.204 123.638C269.461 121.546 269.984 123.882 269.984 123.882C274.481 127.89 268.059 138.869 268.059 138.869Z" fill="#2B2949"/>
<path opacity="0.1" d="M160.207 46.6572C160.207 46.6572 149.191 57.9154 154.748 67.7584C154.748 67.7584 156.289 64.8097 158.429 63.5131C159.543 62.9188 160.499 62.0681 161.218 61.0314C161.218 61.0314 158.109 55.615 160.207 46.6572Z" fill="white"/>
<path d="M469.321 140.674C465.675 169.715 436.502 189.931 404.149 185.895C388.447 183.929 371.155 180.276 357.942 173.703C350.272 169.89 343.997 165.114 340.19 159.105C338.202 156.037 336.912 152.57 336.411 148.949C336.09 146.505 336.09 144.031 336.411 141.587C337.289 134.568 340.594 127.143 345.545 119.977C361.073 97.5377 392.846 77.6704 417.362 80.7585C449.694 84.8156 472.975 111.64 469.321 140.674Z" fill="#2945FF"/>
<path d="M343.775 160.87C342.625 160.196 341.427 159.606 340.191 159.106C338.462 158.409 336.559 157.907 335.562 158.569C335.408 158.67 335.276 158.8 335.173 158.952C335.071 159.104 334.999 159.275 334.962 159.455C334.88 159.778 334.851 160.112 334.878 160.444C334.878 160.849 334.927 161.225 334.927 161.553C334.878 165.443 332.612 164.564 332.612 164.564C326.783 166.063 321.226 154.617 321.226 154.617C321.226 154.617 320.382 149.486 325.026 149.988C325.438 150.034 325.846 150.111 326.246 150.218C327.638 150.58 329.083 150.691 330.513 150.546C331.029 150.505 331.541 150.433 332.047 150.329C333.551 150.035 335.016 149.567 336.412 148.935C337.101 148.63 337.769 148.281 338.413 147.89L343.775 160.87Z" fill="#6C63FF"/>
<path d="M335.562 158.562C335.408 158.663 335.277 158.793 335.174 158.945C335.071 159.097 334.999 159.268 334.962 159.447L330.514 150.538C331.029 150.498 331.541 150.426 332.048 150.322C332.94 152.658 334.537 156.275 335.562 158.562Z" fill="#444053"/>
<path d="M334.927 161.553C334.878 165.442 332.612 164.564 332.612 164.564C326.783 166.063 321.226 154.616 321.226 154.616C321.226 154.616 320.382 149.486 325.026 149.988C325.214 152.015 325.799 153.986 326.748 155.788C328.171 158.227 332.075 161.274 334.927 161.553Z" fill="#6C63FF"/>
<path opacity="0.1" d="M334.927 161.553C334.878 165.442 332.612 164.564 332.612 164.564C326.783 166.063 321.226 154.616 321.226 154.616C321.226 154.616 320.382 149.486 325.026 149.988C325.214 152.015 325.799 153.986 326.748 155.788C328.171 158.227 332.075 161.274 334.927 161.553Z" fill="#2B2949"/>
<path opacity="0.1" d="M457.866 116.276C457.866 116.276 454.631 100.863 443.363 100.006C443.363 100.006 444.946 102.927 444.841 105.429C444.718 106.684 444.895 107.951 445.357 109.124C445.357 109.124 451.584 109.556 457.866 116.276Z" fill="white"/>
<path opacity="0.1" d="M357.943 173.703C350.274 169.89 343.998 165.115 340.191 159.106C338.462 158.409 336.559 157.907 335.561 158.569C335.408 158.67 335.276 158.8 335.173 158.952C335.071 159.104 334.999 159.275 334.962 159.455C334.88 159.778 334.851 160.112 334.878 160.444C334.878 160.849 334.927 161.225 334.927 161.553C334.878 165.443 332.612 164.564 332.612 164.564C326.783 166.063 321.226 154.617 321.226 154.617C321.226 154.617 320.382 149.486 325.026 149.988C325.438 150.034 325.846 150.111 326.246 150.218C327.638 150.58 329.083 150.691 330.513 150.546C331.029 150.505 331.541 150.433 332.047 150.33C333.551 150.035 335.016 149.567 336.412 148.935C336.091 146.492 336.091 144.017 336.412 141.574C337.291 134.554 340.596 127.13 345.546 119.964C353.857 137.858 360.467 158.151 357.943 173.703Z" fill="#2B2949"/>
<path opacity="0.1" d="M335.986 196.415C334.514 197.099 333 197.688 331.453 198.178C330.042 198.626 328.608 199.001 327.158 199.301L326.196 199.496C324.941 199.726 323.637 199.921 322.319 200.068C321.322 200.193 320.318 200.277 319.286 200.339C299.972 201.594 275.75 194.4 258.695 182.054C253.988 178.712 249.753 174.752 246.102 170.28C244.191 167.903 242.532 165.333 241.152 162.612C237.208 154.795 234.898 146.256 234.361 137.517C234.312 136.59 234.277 135.69 234.277 134.777C234.005 114.561 243.746 95.7397 261.268 86.5449C264.559 99.1973 265.34 111.313 261.268 120.626C261.644 122.452 262.293 124.307 263.401 124.809C263.737 124.931 264.105 124.931 264.44 124.809C264.763 124.701 265.063 124.536 265.326 124.321C265.647 124.077 265.939 123.847 266.218 123.665C269.474 121.574 269.997 123.909 269.997 123.909C274.495 127.932 268.073 138.897 268.073 138.897C268.073 138.897 264.28 142.459 262.111 138.325C261.92 137.953 261.756 137.566 261.623 137.168C261.142 135.82 260.435 134.563 259.532 133.453C259.21 133.052 258.868 132.668 258.507 132.303C257.427 131.201 256.217 130.237 254.902 129.43C253.058 131.066 251.004 132.446 248.794 133.536C245.668 135.072 242.35 136.179 238.928 136.827C239.709 137.182 240.455 137.559 241.208 137.935C248.815 141.797 255.034 146.628 258.799 152.658C260.508 153.355 262.411 153.892 263.422 153.243C263.718 153.034 263.933 152.729 264.029 152.379C264.115 152.049 264.141 151.707 264.106 151.368C264.106 150.964 264.106 150.601 264.106 150.26C264.203 146.384 266.448 147.283 266.448 147.283C272.298 145.847 277.737 157.328 277.737 157.328C277.737 157.328 278.532 162.473 273.895 161.922C273.479 161.881 273.068 161.8 272.668 161.678C271.284 161.312 269.847 161.189 268.422 161.316C267.902 161.351 267.385 161.418 266.874 161.518C265.358 161.787 263.881 162.239 262.474 162.863C262.781 165.309 262.765 167.784 262.425 170.225C262.362 170.65 262.293 171.075 262.23 171.514C262.362 171.514 262.488 171.563 262.62 171.577C272.038 172.973 281.327 175.137 290.392 178.046C293.181 178.973 295.879 179.963 298.473 181.092C300.279 181.852 302.036 182.668 303.731 183.532C311.338 187.394 317.564 192.225 321.322 198.255C323.038 198.952 324.941 199.489 325.952 198.841C326.248 198.633 326.461 198.326 326.552 197.976C326.644 197.648 326.673 197.305 326.635 196.965C326.635 196.561 326.601 196.199 326.601 195.857C326.698 191.981 328.95 192.88 328.95 192.88C331.488 192.218 333.998 194.114 335.986 196.415Z" fill="#2B2949"/>
<g opacity="0.1">
<path opacity="0.1" d="M254.051 118.687C253.33 119.721 252.374 120.569 251.262 121.162C249.129 122.466 247.581 125.414 247.581 125.414C242.003 115.578 253.054 104.327 253.054 104.327C250.955 113.285 254.051 118.687 254.051 118.687Z" fill="#2B2949"/>
<path opacity="0.1" d="M340.789 110.239C341.814 112.288 342.838 114.422 343.836 116.513C337.191 124.592 329.73 130.713 321.614 133.041C320.464 134.505 319.466 136.185 319.808 137.321C319.865 137.497 319.956 137.659 320.075 137.799C320.195 137.939 320.341 138.054 320.505 138.137C320.792 138.318 321.112 138.441 321.447 138.499C321.805 138.569 322.159 138.66 322.507 138.771C326.223 139.915 324.738 141.839 324.738 141.839C324.529 147.861 311.971 149.932 311.971 149.932C311.971 149.932 306.804 149.277 308.617 144.975C308.776 144.594 308.965 144.226 309.182 143.874C309.921 142.637 310.44 141.28 310.716 139.866C310.814 139.357 310.897 138.855 310.946 138.353C311.088 136.816 311.055 135.268 310.848 133.738C308.412 133.364 306.039 132.661 303.792 131.647C287.958 124.711 273.936 103.31 267.793 80.7587C293.794 68.3852 326.327 81.4 340.789 110.239Z" fill="#2B2949"/>
<path opacity="0.1" d="M354.08 178.276C352.631 181.637 350.463 184.64 347.728 187.073C347.101 186.67 346.449 186.309 345.775 185.992L353.564 174.337C353.645 175.66 353.818 176.976 354.08 178.276Z" fill="#2B2949"/>
<path opacity="0.1" d="M360.877 196.533C360.877 196.533 357.084 200.095 354.916 195.961C354.721 195.59 354.558 195.202 354.428 194.804C353.953 193.455 353.245 192.199 352.336 191.095C352.02 190.688 351.678 190.301 351.311 189.938C350.23 188.841 349.019 187.879 347.706 187.073C347.08 186.67 346.428 186.309 345.754 185.992L353.542 174.337C353.624 175.66 353.796 176.976 354.058 178.276C354.449 180.102 355.104 181.97 356.213 182.458C356.547 182.588 356.917 182.588 357.252 182.458C357.573 182.353 357.871 182.187 358.13 181.97C358.418 181.738 358.718 181.522 359.03 181.322C362.286 179.189 362.809 181.566 362.809 181.566C367.327 185.574 360.877 196.533 360.877 196.533Z" fill="#2B2949"/>
<path opacity="0.1" d="M357.28 182.444L352.35 191.082C352.031 190.683 351.691 190.301 351.332 189.938C352.761 187.889 354.888 184.557 356.213 182.438C356.554 182.577 356.936 182.579 357.28 182.444Z" fill="#2B2949"/>
<path opacity="0.1" d="M360.877 196.533C360.877 196.533 357.084 200.095 354.916 195.961C356.496 194.684 357.811 193.109 358.786 191.326C360.02 188.781 360.369 183.853 359.023 181.322C362.279 179.231 362.809 181.566 362.809 181.566C367.327 185.568 360.877 196.533 360.877 196.533Z" fill="#2B2949"/>
<path opacity="0.1" d="M360.877 196.533C360.877 196.533 357.084 200.095 354.916 195.961C356.496 194.684 357.811 193.109 358.786 191.326C360.02 188.781 360.369 183.853 359.023 181.322C362.279 179.231 362.809 181.566 362.809 181.566C367.327 185.568 360.877 196.533 360.877 196.533Z" fill="#2B2949"/>
<path opacity="0.1" d="M254.051 118.687C253.33 119.721 252.374 120.569 251.262 121.162C249.129 122.466 247.581 125.414 247.581 125.414C242.003 115.578 253.054 104.327 253.054 104.327C250.955 113.285 254.051 118.687 254.051 118.687Z" fill="#2B2949"/>
</g>
<path d="M339.166 113.494C353.774 142.626 366.157 181.315 339.996 194.427C313.835 207.54 259.024 190.119 244.416 160.967C229.809 131.814 239.18 97.5864 265.334 84.474C291.488 71.3615 324.559 84.3625 339.166 113.494Z" fill="#2945FF"/>
<path d="M359.266 200.105C359.266 200.105 355.473 203.66 353.305 199.526C353.12 199.154 352.959 198.769 352.824 198.376C352.349 197.023 351.641 195.763 350.732 194.654C350.412 194.251 350.07 193.867 349.707 193.503C348.088 191.878 346.201 190.543 344.129 189.558L351.924 177.909C351.924 177.909 352.28 185.041 354.588 186.003C354.926 186.136 355.302 186.136 355.641 186.003C355.96 185.89 356.257 185.722 356.519 185.508C356.84 185.257 357.14 185.041 357.412 184.859C360.668 182.733 361.198 185.096 361.198 185.096C365.702 189.132 359.266 200.105 359.266 200.105Z" fill="#2945FF"/>
<path d="M355.649 185.707L350.726 194.344C350.406 193.942 350.064 193.558 349.701 193.194C351.096 191.152 353.257 187.813 354.582 185.693C354.923 185.835 355.305 185.84 355.649 185.707Z" fill="#444053"/>
<path d="M359.268 199.796C359.268 199.796 355.475 203.351 353.307 199.217C354.892 197.932 356.211 196.351 357.19 194.56C358.418 192.016 358.773 187.087 357.42 184.564C360.677 182.438 361.207 184.801 361.207 184.801C365.704 188.823 359.268 199.796 359.268 199.796Z" fill="#2945FF"/>
<path opacity="0.1" d="M359.268 199.796C359.268 199.796 355.475 203.351 353.307 199.217C354.892 197.932 356.211 196.351 357.19 194.56C358.418 192.016 358.773 187.087 357.42 184.564C360.677 182.438 361.207 184.801 361.207 184.801C365.704 188.823 359.268 199.796 359.268 199.796Z" fill="#2B2949"/>
<path opacity="0.1" d="M251.408 107.576C251.408 107.576 240.392 118.834 245.949 128.677C245.949 128.677 247.497 125.736 249.631 124.432C250.744 123.838 251.7 122.987 252.42 121.95C252.42 121.95 249.317 116.534 251.408 107.576Z" fill="white"/>
<path d="M352.623 191.222C348.14 194.38 347.847 201.95 352.072 205.456C357.281 209.771 365.062 207.067 371.791 207.792C378.519 208.517 384.425 212.922 388.699 218.199C392.706 223.217 395.571 229.048 397.093 235.285C398.615 241.523 398.758 248.017 397.512 254.316C396.195 260.736 393.44 266.801 392.192 273.235C390.7 280.945 391.432 288.906 392.374 296.707C393.071 302.521 393.935 308.481 396.773 313.604C401.284 321.74 410.077 326.536 418.841 329.638C427.606 332.74 436.879 334.657 445.044 339.111C450.609 342.195 455.49 346.374 459.393 351.397C463.296 356.419 466.141 362.181 467.754 368.334C468.089 369.277 468.114 370.303 467.824 371.261C467.44 372.182 466.213 372.795 465.411 372.21" stroke="#444053" stroke-miterlimit="10"/>
<path d="M329.182 204.863C328.756 206.864 330.214 208.948 332.138 209.638C333.118 209.932 334.151 210.004 335.162 209.847C336.173 209.69 337.136 209.309 337.981 208.732C340.073 207.401 341.948 205.163 344.445 205.247C346.257 205.295 347.784 206.606 348.914 208.035C350.044 209.464 350.95 211.081 352.358 212.218C353.58 213.139 354.989 213.782 356.486 214.1C358.247 214.606 360.102 214.694 361.904 214.358C365.753 213.514 368.577 210.085 372.363 208.99C377.369 207.547 382.543 210.503 386.552 213.828C391.356 217.808 395.679 222.674 397.673 228.586C398.998 232.496 399.249 236.665 399.765 240.757C400.281 244.849 401.201 249.038 403.6 252.392C405.998 255.745 410.231 258.094 414.254 257.188" stroke="#444053" stroke-miterlimit="10"/>
<path d="M642.345 211.207C642.345 211.207 620.277 198.798 618.429 197.537C616.582 196.275 618.429 194.511 618.429 194.511C614.894 192.239 607.559 196.909 607.559 196.909C607.559 196.909 610.23 197.571 612.754 198.373C603.592 195.982 588.266 191.5 580.457 186.46C574.398 182.549 569.099 183.671 565.424 185.623L565.34 185.393C564.406 182.486 564.56 179.307 563.43 176.463C562.035 172.978 558.668 170.517 554.972 169.785C552.88 169.367 552.511 169.583 551.27 167.993C549.792 166.097 548.627 165.407 546.166 164.877C543.377 164.285 540.588 163.692 537.715 163.888C534.843 164.083 531.97 165.184 530.276 167.373C529.327 168.621 528.804 170.127 527.877 171.388C523.415 177.432 512.774 174.686 507.092 179.677C503.606 182.758 503.041 187.805 502.26 192.336C501.479 196.867 499.638 201.977 495.176 203.49C493.049 204.187 490.727 203.943 488.482 204.096C486.237 204.25 483.755 205.03 482.772 206.996C482.408 207.785 482.25 208.653 482.311 209.52C482.308 209.575 482.308 209.631 482.311 209.687V209.778C482.406 211.071 482.585 212.356 482.848 213.626C482.848 213.577 482.848 213.528 482.848 213.479C483.099 215.173 483.106 216.742 481.886 217.885C479.404 220.227 474.021 218.087 472.473 221.091C472.259 221.523 472.165 222.005 472.201 222.486C472.213 223.132 472.355 223.769 472.62 224.358C472.885 224.948 473.267 225.477 473.742 225.915C474.92 227.1 476.427 228.007 477.396 229.338C477.796 229.898 478.089 230.526 478.26 231.192C478.271 231.129 478.285 231.066 478.302 231.004C478.554 232.055 478.51 233.155 478.177 234.183C470.012 233.855 457.956 233.103 455.495 231.464C451.73 228.941 434.075 224.675 434.075 224.675L433.873 224.549L433.294 224.214L432.75 223.915L432.646 223.859C432.437 223.747 432.214 223.629 431.949 223.51H431.9L431.203 223.162L431.077 223.106L430.268 222.751L430.129 222.688C429.871 222.583 429.606 222.479 429.334 222.381L429.243 222.346C428.957 222.242 428.665 222.151 428.379 222.06L428.225 222.019C427.659 221.854 427.077 221.744 426.489 221.691H426.419H426.078H425.903H425.611L425.394 221.726C425.319 221.736 425.245 221.75 425.171 221.768C425.031 221.803 424.893 221.849 424.76 221.907C424.469 222.084 424.244 222.351 424.118 222.667L422.863 222.186L401.004 213.744C401.004 213.744 398.369 212.35 397.204 211.472C393.458 209.438 389.445 207.94 385.281 207.024L385.128 206.919V206.989C380.317 206.125 376.231 206.989 377.667 213.047C380.693 225.818 397.337 224.305 397.337 224.305L420.925 234.357L422.473 235.02C422.334 242.074 423.031 249.512 424.795 250.495C425.081 250.658 425.377 250.805 425.68 250.934L425.869 251.025C426.154 251.15 426.44 251.262 426.719 251.353H426.782C427.061 251.45 427.333 251.527 427.591 251.597H427.709C427.988 251.673 428.267 251.729 428.525 251.778C429.407 251.945 430.305 252.015 431.203 251.987H431.426H431.509L431.377 243.538C431.648 243.64 431.911 243.761 432.165 243.901C433.03 244.384 433.854 244.939 434.626 245.56C436.718 247.198 450.593 248.836 450.593 248.836C450.593 248.836 463.841 253.751 464.615 254.768C465.389 255.786 503.299 256.908 503.299 256.908C503.299 256.908 498.111 268.508 512.516 280.115C512.516 280.115 514.978 295.242 513.423 299.404C512.447 302.018 512.231 306.821 512.21 310.027C507.475 311.7 496.173 315.96 493.3 319.515C489.605 324.053 486.683 324.053 486.683 324.053C486.683 324.053 482.981 331.024 478.504 332.753C474.028 334.482 459.616 342.212 458.249 344.29C456.882 346.367 444.813 353.352 444.813 353.352C444.813 353.352 432.346 363.188 430.01 366.778C427.674 370.368 411.317 377.186 411.317 377.186C411.317 377.186 406.84 383.46 408.2 390.047C409.56 396.635 397.17 393.073 407.942 404.233C410.473 406.854 415.047 409.643 420.744 412.64C420.339 412.884 419.935 413.1 419.538 413.296C418.902 413.617 418.236 413.876 417.55 414.069C411.122 415.77 392.819 445.083 392.819 445.083C392.819 445.083 381.614 459.151 372.947 464.275C372.654 464.449 372.361 464.609 372.075 464.763C371.378 463.117 368.694 461.493 365.96 460.238C362.866 458.848 359.572 457.952 356.199 457.582C353.989 457.318 351.172 456.683 349.38 455.177C347.764 453.813 345.917 452.749 343.927 452.033C341.222 451.183 338.991 451.887 340.092 457.011C341.135 462.102 343.116 466.955 345.935 471.322C345.935 471.322 357.949 481.848 359.051 485.571C360.152 489.293 365.152 493.455 365.933 492.946C366.184 492.779 367.494 491.984 369.147 490.855C372.522 488.617 377.333 485.097 377.612 483.082C377.612 483.034 377.054 483.138 376.217 483.194C376.329 482.985 376.461 482.741 376.621 482.455C378.204 479.667 382.144 473.344 386.781 471.169L405.286 453.435C405.286 453.435 424.955 443.222 428.295 435.659C429.69 432.501 434.57 427.893 439.842 423.599L440.999 422.658C456.673 430.382 473.247 439.388 480.68 450.033C491.369 465.369 515.494 471.022 526.803 472.87C526.873 473.748 526.929 474.592 526.964 475.379C527.159 478.667 526.984 481.967 526.441 485.215C525.855 488.617 526.008 515.1 526.008 515.1C526.008 515.1 527.222 528.714 523.714 533.064C521.915 535.302 520.521 540.635 519.594 545.284C519.538 545.563 519.489 545.842 519.433 546.121C517.809 546.86 516.505 548.47 515.794 551.356C515.794 551.356 512.809 553.308 513.527 561.06C513.702 562.935 513.758 564.545 513.841 565.94C514.113 570.338 514.594 572.43 519.37 572.381C525.646 572.318 538.775 565.891 538.775 565.891C538.855 564.574 538.808 563.253 538.636 561.945C538.38 559.416 537.517 556.986 536.119 554.863L536.167 554.73L536.314 554.389C536.439 554.082 536.558 553.74 536.669 553.392L536.711 553.301C536.981 552.503 537.132 551.669 537.157 550.826V541.966C537.157 541.966 537.548 529.105 540.644 522.294C543.154 516.808 549.833 491.183 550.294 478.168C550.35 476.948 550.327 475.725 550.224 474.508C550.606 474.394 550.941 474.161 551.179 473.842C551.418 473.523 551.547 473.136 551.549 472.737C551.354 467.816 547.463 470.088 549.408 460.44C551.354 450.793 552.72 438.879 556.22 433.205C558.685 429.021 560.834 424.659 562.649 420.155C562.649 420.155 570.047 395.185 573.164 389.134C576.28 383.083 588.162 343.739 569.273 325.391L568.241 321.397C568.241 321.397 568.241 321.334 568.304 321.265C568.415 321.021 568.722 320.337 569.12 319.389C569.454 318.609 569.817 317.64 570.235 316.601C570.458 316.002 570.674 315.374 570.891 314.74C571.204 313.799 571.483 312.837 571.699 311.951L571.804 311.491C577.842 312.886 581.489 308.577 582.96 306.312C583.776 305.845 584.111 305.399 583.699 305.008C581.363 302.736 583.448 297.821 583.448 297.821L583.567 276.385C583.567 276.385 586.293 275.877 586.948 268.313C587.312 263.804 589.227 259.56 592.366 256.302C598.209 249.882 614.427 242.911 614.427 242.911C626.099 239.091 643.517 222.388 643.517 222.388C652.86 214.692 642.345 211.207 642.345 211.207ZM616.77 219.858C613.137 220.61 604.958 224.668 604.958 224.668C604.958 224.668 600.036 225.908 595.608 227.575C591.181 229.241 585.484 226.71 585.484 226.71C582.5 222.702 572.376 228.453 570.033 229.84C568.262 230.893 566.784 230.537 565.096 229.066C564.494 228.525 563.932 227.94 563.416 227.317C562.926 226.743 562.341 226.257 561.687 225.881C562.449 224.544 563.408 223.329 564.532 222.277C566.993 219.879 569.907 217.948 572.39 215.563C574.872 213.179 576.985 210.175 577.208 206.794C577.208 206.648 577.208 206.501 577.208 206.355C577.267 204.24 576.744 202.149 575.695 200.311C577.746 200.756 579.823 201.07 581.914 201.252C587.848 201.615 595.162 204.591 599.527 206.648L600.426 207.073L599.945 207.24L600.12 207.463L599.945 207.519L599.987 207.575L600.336 208.028L600.384 208.084C600.552 208.3 600.761 208.565 601.012 208.871L601.089 208.962C601.347 209.276 601.64 209.617 601.96 209.98L602.044 210.077C602.372 210.447 602.741 210.83 603.097 211.214L603.194 211.311C603.529 211.653 603.892 212.008 604.233 212.329C604.714 212.775 605.216 213.196 605.739 213.591L605.795 213.626C606.2 213.927 606.624 214.202 607.064 214.448L607.19 214.518C607.386 214.622 607.589 214.715 607.796 214.797C611.283 216.191 613.116 212.908 613.116 212.908C613.617 213.046 614.1 213.237 614.56 213.479C618.123 215.257 619.991 219.209 616.77 219.858Z" fill="url(#paint0_linear)"/>
<path d="M615.794 200.779V204.662L599.478 209.186C599.478 209.186 597.986 208.343 595.664 207.234C591.383 205.178 584.292 202.187 578.505 201.825C569.587 201.246 540.274 192.428 549.094 190.441C557.915 188.454 557.224 190.441 557.224 190.441C557.224 190.441 565.794 179.517 577.089 187.011C585.665 192.714 603.55 197.698 611.652 199.768C614.218 200.389 615.794 200.779 615.794 200.779Z" fill="#EFB7B9"/>
<path d="M543.67 165.366C540.964 164.773 538.203 164.173 535.442 164.369C532.681 164.564 529.864 165.672 528.184 167.896C527.263 169.144 526.754 170.684 525.848 171.918C521.504 177.983 511.129 175.229 505.593 180.235C502.176 183.323 501.653 188.384 500.893 192.929C500.133 197.474 498.334 202.598 493.983 204.117C491.892 204.814 489.647 204.57 487.464 204.717C485.282 204.863 482.862 205.658 481.886 207.624C480.234 211.026 483.783 215.919 481.063 218.554C478.637 220.896 473.394 218.749 471.887 221.768C471.148 223.246 471.978 225.051 473.122 226.243C474.265 227.435 475.736 228.334 476.685 229.673C477.291 230.538 477.652 231.551 477.729 232.604C477.807 233.657 477.599 234.712 477.127 235.656C476.655 236.601 475.936 237.401 475.047 237.971C474.158 238.541 473.131 238.861 472.076 238.896C470.158 238.958 467.99 238.136 466.456 239.3C466.002 239.717 465.651 240.234 465.431 240.81C465.21 241.385 465.127 242.004 465.187 242.618C465.33 244.736 466.286 246.716 467.856 248.145C469.426 249.574 471.487 250.341 473.61 250.286C476.866 250.077 479.613 247.93 482.297 246.104C484.982 244.277 488.224 242.562 491.362 243.392C492.822 243.889 494.196 244.611 495.434 245.532C499.233 247.955 503.401 249.744 507.775 250.83C511.624 251.785 516.003 252.092 519.273 249.847C522.975 247.31 524.363 242.116 528.337 240.088C532.521 237.961 537.478 240.206 541.787 242.074C546.096 243.943 551.737 245.204 554.979 241.809C558.466 238.15 556.45 231.994 558.256 227.268C559.003 225.495 560.115 223.898 561.52 222.583C563.918 220.171 566.756 218.234 569.189 215.849C571.623 213.465 573.673 210.447 573.882 207.052C574.147 202.967 571.727 199.217 569.12 196.059C566.512 192.901 563.542 189.848 562.321 185.937C561.415 183.023 561.561 179.837 560.46 176.986C559.746 175.276 558.62 173.769 557.182 172.6C555.743 171.431 554.038 170.637 552.218 170.287C550.126 169.869 549.82 170.085 548.606 168.482C548.048 167.645 547.32 166.935 546.47 166.398C545.619 165.861 544.665 165.51 543.67 165.366Z" fill="#FF8C67"/>
<g opacity="0.1">
<path opacity="0.1" d="M481.593 208.893C481.21 210.566 481.705 212.483 481.977 214.281C482.395 212.713 481.865 210.789 481.593 208.893Z" fill="#2B2949"/>
<path opacity="0.1" d="M476.699 230.008C477.09 230.572 477.373 231.203 477.535 231.869C477.751 231.043 477.788 230.18 477.644 229.339C477.499 228.498 477.177 227.696 476.699 226.989C475.75 225.637 474.286 224.752 473.136 223.56C472.676 223.086 472.299 222.54 472.02 221.942C471.977 222 471.937 222.061 471.902 222.124C471.162 223.601 471.992 225.407 473.136 226.599C474.279 227.791 475.75 228.655 476.699 230.008Z" fill="#2B2949"/>
<path opacity="0.1" d="M569.224 213.145C566.805 215.536 563.967 217.467 561.554 219.879C560.15 221.197 559.038 222.795 558.291 224.57C556.485 229.297 558.507 235.445 555.014 239.105C551.772 242.5 546.131 241.238 541.822 239.37C537.513 237.501 532.555 235.257 528.372 237.383C524.377 239.418 522.989 244.619 519.308 247.142C516.037 249.387 511.638 249.08 507.81 248.125C503.436 247.04 499.268 245.25 495.469 242.827C494.231 241.906 492.857 241.184 491.397 240.687C488.245 239.858 485.01 241.559 482.332 243.406C479.655 245.253 476.901 247.393 473.644 247.588C469.886 247.832 466.267 244.932 465.41 241.315C465.268 241.839 465.204 242.382 465.222 242.925C465.366 245.042 466.323 247.021 467.893 248.45C469.462 249.879 471.523 250.646 473.644 250.593C476.901 250.384 479.648 248.237 482.332 246.41C485.017 244.584 488.259 242.869 491.397 243.699C492.857 244.193 494.231 244.913 495.469 245.832C499.266 248.26 503.435 250.052 507.81 251.137C511.659 252.085 516.037 252.391 519.308 250.154C523.01 247.616 524.398 242.423 528.372 240.394C532.555 238.261 537.513 240.506 541.822 242.374C546.131 244.242 551.772 245.504 555.014 242.109C558.5 238.456 556.485 232.301 558.291 227.575C559.04 225.801 560.152 224.203 561.554 222.883C563.953 220.478 566.791 218.54 569.224 216.156C571.658 213.772 573.707 210.747 573.917 207.359C573.963 206.644 573.927 205.926 573.812 205.219C573.331 208.272 571.448 210.97 569.224 213.145Z" fill="#2B2949"/>
</g>
<path d="M574.015 305.371L580.214 305.873C580.214 305.873 575.542 316.42 565.571 311.213C555.601 306.005 574.015 305.371 574.015 305.371Z" fill="#4C4981"/>
<path opacity="0.1" d="M574.015 305.371L580.214 305.873C580.214 305.873 575.542 316.42 565.571 311.213C555.601 306.005 574.015 305.371 574.015 305.371Z" fill="#2B2949"/>
<path d="M455.008 413.442C455.008 413.442 447.213 418.852 440.066 424.868C434.948 429.176 430.165 433.797 428.819 436.962C425.563 444.554 406.403 454.829 406.403 454.829L388.372 472.668C383.86 474.85 380.005 481.172 378.478 483.989C378.011 484.846 377.78 485.383 377.78 485.383H369.623L364.693 480.447C364.693 480.447 362.036 468.499 370.383 467.551C372.008 467.272 373.557 466.654 374.929 465.738C383.379 460.601 394.291 446.492 394.291 446.492C394.291 446.492 412.127 417.088 418.389 415.38C419.059 415.187 419.708 414.928 420.327 414.606C426.519 411.483 434.711 401.912 434.711 401.912L455.008 413.442Z" fill="#EFB7B9"/>
<path d="M547.68 479.597C547.234 492.647 540.707 518.349 538.281 523.849C535.241 530.68 534.864 543.584 534.864 543.584V552.5C534.807 553.734 534.528 554.947 534.041 556.083C533.785 556.739 533.489 557.379 533.156 558L516.422 555.156C516.422 555.156 516.868 551.342 517.719 546.923C518.625 542.252 519.985 536.906 521.735 534.668C525.151 530.304 523.966 516.641 523.966 516.641C523.966 516.641 523.82 490.081 524.391 486.666C524.922 483.406 525.093 480.098 524.9 476.802C524.824 475.031 524.663 473.016 524.391 470.73C523.443 462.762 524.391 451.002 524.391 451.002L543.559 451.95L546.78 472.821C547.554 474.034 547.798 476.439 547.68 479.597Z" fill="#EFB7B9"/>
<path opacity="0.1" d="M378.478 483.954C378.011 484.812 377.78 485.348 377.78 485.348H369.623L364.693 480.413C364.693 480.413 362.036 468.465 370.383 467.517C372.008 467.237 373.557 466.62 374.929 465.704C376.079 469.19 372.412 472.766 372.412 472.766C372.412 472.766 370.892 474.216 372.028 479.848C372.767 483.668 376.309 484.045 378.478 483.954Z" fill="#2B2949"/>
<path d="M379.453 484.582C379.181 486.603 374.488 490.158 371.204 492.375C369.593 493.484 368.317 494.278 368.073 494.466C367.313 494.975 362.44 490.8 361.366 487.07C360.292 483.341 348.585 472.78 348.585 472.78C345.833 468.38 343.905 463.517 342.896 458.426C341.822 453.289 343.997 452.578 346.626 453.428C348.572 454.153 350.372 455.223 351.939 456.586C353.689 458.099 356.436 458.733 358.591 458.998C361.878 459.373 365.084 460.272 368.087 461.661C370.751 462.923 373.393 464.547 374.042 466.199C375.436 469.81 371.615 473.54 371.615 473.54C371.615 473.54 370.095 474.99 371.232 480.622C372.368 486.255 379.48 484.393 379.453 484.582Z" fill="#444053"/>
<path opacity="0.1" d="M371.204 492.375C369.593 493.484 368.317 494.278 368.073 494.466C367.313 494.975 362.44 490.8 361.366 487.07C360.292 483.341 348.585 472.78 348.585 472.78C345.833 468.38 343.905 463.517 342.896 458.426C341.822 453.289 343.997 452.578 346.626 453.428C347.574 457.485 349.666 465.349 352.322 469.238C355.481 473.846 367.85 488.43 371.204 492.375Z" fill="#2B2949"/>
<path opacity="0.1" d="M533.853 555.797L534.041 556.083C533.785 556.739 533.489 557.379 533.156 558L516.422 555.156C516.422 555.156 516.868 551.343 517.719 546.923C523.848 544.302 534.397 554.229 534.397 554.229L533.853 555.797Z" fill="#2B2949"/>
<path opacity="0.1" d="M536.441 567.613C536.441 567.613 523.667 574.061 517.538 574.124C512.881 574.172 512.413 572.074 512.148 567.668C513.816 568.721 515.684 569.417 517.634 569.712C519.584 570.007 521.574 569.895 523.479 569.383C528.037 568.183 532.37 566.25 536.308 563.66C536.477 564.971 536.521 566.294 536.441 567.613Z" fill="#2B2949"/>
<path d="M560.482 234.037L558.279 257.641L557.825 262.521L548.294 265.009L538.47 267.582L527.083 265.058C527.083 265.058 522.705 255.124 524.197 247.038C524.627 244.171 526.12 241.57 528.38 239.753C529.09 239.206 529.725 238.569 530.27 237.857C530.9 237.035 531.383 236.111 531.699 235.125C532.078 233.91 532.233 232.637 532.159 231.367C531.894 225.093 527.111 218.889 527.111 218.889C527.111 218.889 549.124 208.014 547.987 213.312C547.248 216.756 551.243 222.061 554.137 225.358C555.713 227.15 556.926 228.356 556.926 228.356L560.482 234.037Z" fill="#EFB7B9"/>
<path opacity="0.1" d="M535.938 228.125C547.083 228.125 556.117 219.093 556.117 207.951C556.117 196.81 547.083 187.777 535.938 187.777C524.794 187.777 515.76 196.81 515.76 207.951C515.76 219.093 524.794 228.125 535.938 228.125Z" fill="#2B2949"/>
<path d="M535.938 227.366C547.083 227.366 556.117 218.333 556.117 207.192C556.117 196.05 547.083 187.018 535.938 187.018C524.794 187.018 515.76 196.05 515.76 207.192C515.76 218.333 524.794 227.366 535.938 227.366Z" fill="#EFB7B9"/>
<path d="M568.966 310.279C568.59 314.817 565.159 322.318 565.159 322.318L538.113 332.837L515.445 314.622C515.445 314.622 515.445 314.58 515.445 314.496C515.807 312.461 520.207 286.835 513.904 281.482C507.322 275.905 507.189 257.836 507.189 257.836C507.189 257.836 515.668 245.037 517.341 242.005C519.015 238.973 531.705 235.097 531.705 235.097C531.161 236.052 530.687 236.965 530.276 237.829C529.146 240.091 528.37 242.513 527.975 245.009C527.417 248.941 528.484 251.248 529.195 252.308C529.577 252.859 529.889 253.457 530.122 254.086C533.546 263.357 543.321 260.715 547.163 259.251C548.146 258.875 548.746 258.554 548.746 258.554L558.312 257.62L564.309 257.041C564.309 257.041 567.725 304.444 568.862 308.132C569.033 308.834 569.068 309.563 568.966 310.279Z" fill="#444053"/>
<path d="M530.255 237.851C530.255 237.851 530.255 237.851 530.255 237.885C529.816 238.794 529.425 239.725 529.084 240.674H518.736C520.445 239.558 522.265 238.624 524.168 237.885L530.255 237.851Z" fill="#925978"/>
<path d="M528.471 242.535C528.237 243.366 528.06 244.211 527.941 245.066C527.941 245.163 527.941 245.261 527.906 245.358H515.355C516.053 244.222 516.68 243.232 517.071 242.535H528.471Z" fill="white"/>
<path d="M528.136 250.042H512.357C512.971 249.094 513.592 248.132 514.17 247.254H527.781C527.78 248.195 527.9 249.132 528.136 250.042Z" fill="white"/>
<path d="M530.311 254.762H509.289C509.847 253.926 510.474 252.957 511.144 251.974H528.917C529.007 252.134 529.098 252.287 529.189 252.42C529.573 252.968 529.884 253.563 530.116 254.19C530.165 254.344 530.242 254.539 530.311 254.762Z" fill="white"/>
<path d="M507.219 257.871V259.419H534.203C533.032 258.714 532.042 257.748 531.309 256.596H508.062L507.219 257.871Z" fill="white"/>
<path d="M564.477 259.418H546.822L547.129 259.307C548.112 258.923 548.712 258.61 548.712 258.61L558.278 257.675L564.275 257.09C564.275 257.09 564.337 257.954 564.477 259.418Z" fill="#925978"/>
<path d="M564.79 264.103H507.615C507.504 263.071 507.42 262.123 507.357 261.314H564.532C564.644 262.123 564.714 263.071 564.79 264.103Z" fill="white"/>
<path d="M565.175 268.794H508.313C508.139 267.825 507.986 266.884 507.867 266.006H564.938C565.007 266.87 565.07 267.811 565.175 268.794Z" fill="white"/>
<path d="M565.508 273.48H509.428C509.156 272.552 508.912 271.604 508.73 270.656H565.32C565.362 271.576 565.438 272.518 565.508 273.48Z" fill="white"/>
<path d="M565.872 278.163H511.326C510.84 277.264 510.416 276.332 510.057 275.375H565.656C565.725 276.274 565.802 277.215 565.872 278.163Z" fill="white"/>
<path d="M566.254 282.855H515.061C514.758 282.352 514.377 281.9 513.932 281.517C513.417 281.074 512.949 280.579 512.537 280.039H566.03C566.093 280.98 566.17 281.949 566.254 282.855Z" fill="white"/>
<path d="M566.645 287.526H516.693C516.52 286.578 516.271 285.645 515.947 284.737H566.408C566.484 285.657 566.568 286.606 566.645 287.526Z" fill="white"/>
<path d="M567.043 292.224H517.224C517.169 291.255 517.099 290.314 516.98 289.436H566.806C566.883 290.363 566.959 291.304 567.043 292.224Z" fill="#925978"/>
<path d="M567.468 296.915H517.266C517.266 295.967 517.266 295.026 517.266 294.127H567.182C567.266 295.068 567.384 296.009 567.468 296.915Z" fill="#925978"/>
<path d="M567.962 301.6H517.062C517.132 300.68 517.181 299.732 517.23 298.812H567.648C567.746 299.78 567.844 300.722 567.962 301.6Z" fill="#925978"/>
<path d="M568.479 306.284H516.631C516.728 305.385 516.819 304.444 516.91 303.496H568.13C568.263 304.57 568.374 305.518 568.479 306.284Z" fill="#925978"/>
<path d="M568.967 310.328C568.967 310.544 568.925 310.753 568.89 310.976H516.031C516.157 310.146 516.282 309.191 516.401 308.188H568.813C568.814 308.204 568.814 308.22 568.813 308.236C568.995 308.918 569.047 309.627 568.967 310.328Z" fill="white"/>
<path d="M568.541 312.844C568.325 313.757 568.053 314.726 567.753 315.667H516.7L515.445 314.656C515.445 314.656 515.445 314.607 515.445 314.524C515.487 314.28 515.585 313.701 515.724 312.844H568.541Z" fill="white"/>
<path d="M567.112 317.501C566.735 318.561 566.352 319.53 566.024 320.289H522.529L519.043 317.501H567.112Z" fill="white"/>
<path d="M565.229 322.22L565.159 322.373L558.291 325.036H528.365L524.879 322.248L565.229 322.22Z" fill="white"/>
<path d="M553.488 326.904L546.222 329.721H534.195L530.688 326.904H553.488Z" fill="#925978"/>
<path d="M541.397 331.596L538.106 332.871L536.523 331.596H541.397Z" fill="#925978"/>
<path opacity="0.1" d="M568.968 310.279C564.568 311.318 560.482 312.077 560.482 312.077L537.354 314.225L534.168 290.189C534.168 290.189 538.596 284.877 542.647 282.862C546.468 280.945 550.644 276.093 548.294 264.981C548.162 264.347 548.008 263.685 547.827 263.002C547.501 261.771 547.268 260.517 547.13 259.251C546.161 250.489 550.365 244.989 551.571 243.615C551.767 243.385 551.878 243.274 551.878 243.274L553.342 225.337C553.598 225.322 553.854 225.322 554.109 225.337C555.685 227.129 556.898 228.335 556.898 228.335L560.447 234.03L558.244 257.634L564.24 257.055C564.24 257.055 567.657 304.458 568.794 308.146C568.987 308.839 569.046 309.563 568.968 310.279Z" fill="#2B2949"/>
<path d="M588.693 257.062C585.606 260.344 583.732 264.581 583.38 269.073C582.746 276.657 580.089 277.166 580.089 277.166L579.964 298.679C579.964 298.679 577.935 303.614 580.215 305.887C582.495 308.159 561.242 312.091 561.242 312.091L538.114 314.238L534.928 290.202C534.928 290.202 539.355 284.89 543.399 282.876C547.444 280.861 551.878 275.535 548.587 263.015C545.714 252.071 550.958 245.19 552.331 243.629C552.527 243.399 552.638 243.287 552.638 243.287L554.102 225.351C554.102 225.351 558.077 225.072 560.482 227.979C560.985 228.606 561.533 229.195 562.121 229.743C563.766 231.241 565.203 231.569 566.932 230.516C569.212 229.122 579.078 223.35 581.986 227.373C584.893 231.395 588.693 257.062 588.693 257.062Z" fill="#4C4981"/>
<path d="M617.752 217.205L579.304 225.841C577.144 240.091 575.848 266.432 587.944 257.795C600.04 249.159 612.856 242.97 617.752 240.955L648.423 217.205V212.886L621.207 199.5L619.479 194.75C613.432 195.038 602.545 195.873 607.384 196.909C612.222 197.945 609.4 205.114 607.384 208.568L617.752 217.205Z" fill="#4C4981"/>
<path d="M562.12 229.729L559.735 241.977L552.33 243.608C552.525 243.378 552.637 243.267 552.637 243.267L554.101 225.33C554.101 225.33 558.075 225.052 560.481 227.959C560.983 228.588 561.531 229.179 562.12 229.729Z" fill="#4C4981"/>
<path opacity="0.1" d="M562.12 229.729L559.735 241.977L552.33 243.608C552.525 243.378 552.637 243.267 552.637 243.267L554.101 225.33C554.101 225.33 558.075 225.052 560.481 227.959C560.983 228.588 561.531 229.179 562.12 229.729Z" fill="#2B2949"/>
<path opacity="0.1" d="M615.794 200.778V204.661L599.478 209.185C599.478 209.185 597.986 208.342 595.664 207.234C597.428 206.606 605.426 203.748 609.553 201.817C611.08 201.12 612.091 200.548 612.091 200.269C612.091 200.116 611.931 199.949 611.652 199.768C614.218 200.388 615.794 200.778 615.794 200.778Z" fill="#2B2949"/>
<path d="M619.811 210.51L608.927 213.549C608.927 213.549 607.156 216.84 603.746 215.446C600.336 214.051 596.076 208.112 596.076 208.112C596.076 208.112 605.629 204.731 610.314 202.577L619.811 210.51Z" fill="#4C4981"/>
<path opacity="0.1" d="M619.811 210.224L608.927 213.263C608.927 213.263 607.156 216.554 603.746 215.159C600.336 213.765 596.076 207.826 596.076 207.826C596.076 207.826 605.629 204.445 610.314 202.291L619.811 210.224Z" fill="white"/>
<path opacity="0.1" d="M434.675 401.85L455.007 413.442C455.007 413.442 447.212 418.852 440.065 424.868C432.66 421.159 425.687 417.743 420.318 414.565C426.482 411.442 434.675 401.85 434.675 401.85Z" fill="#2B2949"/>
<path opacity="0.1" d="M547.68 479.597C542.304 479.994 533.734 478.133 533.734 478.133C533.734 478.133 530.248 477.826 524.942 476.802C524.865 475.031 524.705 473.016 524.433 470.73C523.485 462.762 524.433 451.002 524.433 451.002L543.601 451.95L546.822 472.821C547.554 474.034 547.798 476.439 547.68 479.597Z" fill="#2B2949"/>
<path d="M569.964 390.299C566.931 396.371 559.721 421.411 559.721 421.411C557.951 425.922 555.854 430.297 553.446 434.502C550.029 440.191 548.697 452.139 546.801 461.815C544.904 471.49 548.697 469.218 548.893 474.146C549.088 479.075 530.673 475.094 530.673 475.094C530.673 475.094 493.67 471.874 479.823 451.393C465.975 430.912 419.496 416.664 408.988 405.475C398.481 394.287 410.571 397.884 409.239 391.247C407.908 384.611 412.273 378.344 412.273 378.344C412.273 378.344 428.212 371.512 430.492 367.887C432.772 364.263 444.918 354.447 444.918 354.447C444.918 354.447 456.688 347.428 458.012 345.343C459.337 343.259 473.352 335.479 477.745 333.771C482.137 332.063 485.687 325.037 485.687 325.037C485.687 325.037 488.538 325.037 492.143 320.485C495.748 315.933 512.635 310.237 512.635 310.237C545.107 328.069 565.174 322.318 565.174 322.318L566.185 326.361C584.578 344.765 573.004 384.227 569.964 390.299Z" fill="#3F3D56"/>
<path opacity="0.1" d="M566.171 326.361C566.171 326.361 541.698 338.128 512.664 310.237C545.107 328.069 565.174 322.318 565.174 322.318L566.171 326.361Z" fill="#2B2949"/>
<path opacity="0.1" d="M524.035 346.66C524.035 346.66 496.145 400.727 494.242 402.818C492.338 404.91 522.146 346.284 524.035 346.66Z" fill="#2B2949"/>
<path opacity="0.1" d="M539.416 340.784C539.416 340.784 520.444 380.812 521.58 385.747C521.58 385.747 539.988 347.232 539.416 340.784Z" fill="#2B2949"/>
<path opacity="0.1" d="M554.597 349.128C554.597 349.128 552.903 370.355 561.047 381.195L554.597 349.128Z" fill="#2B2949"/>
<path opacity="0.1" d="M563.898 349.128C563.898 349.128 566.52 366.96 569.002 370.376L563.898 349.128Z" fill="#2B2949"/>
<path opacity="0.1" d="M503.55 340.784L473.568 357.291H485.331L503.55 340.784Z" fill="#2B2949"/>
<path opacity="0.1" d="M547.701 194.365C546.251 195.62 545.163 197.474 543.308 197.969C541.99 198.318 540.61 197.885 539.299 197.509C535.98 196.554 532.278 195.961 529.161 197.46C524.719 199.6 522.886 205.282 518.444 207.457C517.355 207.995 516.16 208.286 514.945 208.31C513.731 208.334 512.526 208.09 511.416 207.596C509.453 206.708 507.92 205.082 507.149 203.072C505.852 199.642 507.079 195.634 509.477 192.859C511.876 190.085 515.278 188.377 518.723 187.122C527.731 183.846 537.472 183.281 547.052 182.751C547.828 182.635 548.62 182.739 549.339 183.051C550.922 183.929 554.095 189.011 553.816 190.914C553.446 193.417 547.701 192.302 547.701 194.365Z" fill="#2B2949"/>
<path d="M547.701 193.606C546.251 194.867 545.163 196.715 543.308 197.21C541.99 197.565 540.61 197.133 539.299 196.75C535.98 195.795 532.278 195.202 529.161 196.701C524.719 198.841 522.886 204.529 518.444 206.697C517.082 207.367 515.563 207.651 514.051 207.52C513.14 207.438 512.248 207.203 511.416 206.823C509.453 205.935 507.92 204.309 507.149 202.299C505.852 198.869 507.079 194.861 509.477 192.093C511.876 189.326 515.278 187.604 518.723 186.349C527.731 183.073 537.472 182.508 547.052 181.978C547.828 181.864 548.621 181.97 549.339 182.285C550.922 183.163 554.095 188.238 553.816 190.141C553.446 192.72 547.701 191.542 547.701 193.606Z" fill="#FF8C67"/>
<path d="M427.271 224.299L425.876 236.909L421.63 235.055L398.621 224.968C398.621 224.968 382.402 226.488 379.453 213.675C376.504 200.862 397.386 211.207 398.523 212.065C399.659 212.922 402.225 214.33 402.225 214.33L423.527 222.8L427.271 224.299Z" fill="#EFB7B9"/>
<path opacity="0.1" d="M427.272 224.298L425.877 236.909L421.631 235.055C421.784 229.408 422.468 224.145 423.555 222.813L427.272 224.298Z" fill="#2B2949"/>
<path opacity="0.1" d="M542.897 290.446L541.886 316.496L515.474 314.475C515.837 312.439 520.237 286.814 513.933 281.46C507.351 275.883 507.219 257.815 507.219 257.815C507.219 257.815 515.67 245.037 517.343 242.004C519.016 238.972 531.706 235.096 531.706 235.096C532.085 233.882 532.241 232.609 532.167 231.339C532.701 232.154 533.152 233.02 533.512 233.925C534.084 238.582 532.648 242.011 527.976 245.009C527.565 245.274 527.132 245.532 526.672 245.79C525.926 246.201 525.117 246.612 524.232 247.01L523.834 247.191C515.865 250.732 514.721 255.919 514.721 255.919C512.317 260.116 511.595 265.068 512.699 269.777C514.561 277.564 542.897 290.446 542.897 290.446Z" fill="#2B2949"/>
<path d="M541.377 290.446L540.366 316.497L510.635 314.225C510.635 314.225 510.259 304.465 511.772 300.283C513.285 296.1 510.893 280.938 510.893 280.938C496.851 269.296 501.906 257.662 501.906 257.662C501.906 257.662 464.951 256.526 464.212 255.515C463.473 254.504 450.553 249.562 450.553 249.562C450.553 249.562 437.012 247.923 434.99 246.278C434.243 245.653 433.44 245.097 432.591 244.619C432.347 244.479 432.093 244.356 431.832 244.25L431.957 252.726C431.86 252.733 431.762 252.733 431.664 252.726H431.504C429.368 252.799 427.252 252.299 425.375 251.276C422.091 249.38 422.586 223.825 425.375 222.57C425.904 222.353 426.48 222.274 427.048 222.34C429.328 222.5 432.347 224.111 433.728 224.905L434.286 225.24L434.488 225.365C434.488 225.365 451.689 229.645 455.357 232.176C459.024 234.706 484.99 235.097 484.99 235.097C484.99 235.097 496.753 236.31 498.022 234.476C499.291 232.643 516.36 227.714 518.131 229.994C519.902 232.274 523.918 231.388 523.918 231.388C526.351 227.708 528.506 228.732 529.97 230.461C530.814 231.515 531.493 232.69 531.985 233.947C532.613 239.014 530.856 242.625 525.145 245.797C524.288 246.271 523.346 246.738 522.307 247.191C514.338 250.733 513.201 255.919 513.201 255.919C510.793 260.115 510.068 265.068 511.172 269.777C513.041 277.564 541.377 290.446 541.377 290.446Z" fill="#4C4981"/>
<path opacity="0.1" d="M427.048 222.305C426.732 222.324 426.422 222.402 426.135 222.535C423.346 223.789 422.851 249.345 426.135 251.241C427.777 252.173 429.617 252.701 431.503 252.782H431.664C431.761 252.789 431.859 252.789 431.957 252.782L431.831 244.305C432.092 244.411 432.346 244.535 432.591 244.675V244.305C431.411 241.205 430.95 237.877 431.245 234.573C431.54 231.269 432.582 228.075 434.292 225.233L427.048 222.305Z" fill="#2B2949"/>
<path d="M431.832 244.305L431.957 252.782C429.663 252.935 427.374 252.411 425.375 251.276C422.091 249.38 422.586 223.824 425.375 222.57C427.571 221.566 431.964 223.887 433.742 224.905C431.946 227.771 430.838 231.014 430.507 234.381C430.175 237.747 430.629 241.144 431.832 244.305Z" fill="#4C4981"/>
<path opacity="0.1" d="M431.832 244.305L431.957 252.782C429.663 252.935 427.374 252.411 425.375 251.276C422.091 249.38 422.586 223.824 425.375 222.57C427.571 221.566 431.964 223.887 433.742 224.905C431.946 227.771 430.838 231.014 430.507 234.381C430.175 237.747 430.629 241.144 431.832 244.305Z" fill="white"/>
<path d="M525.117 245.79L520.445 242.423L529.942 230.454C530.786 231.508 531.465 232.683 531.957 233.94C532.584 238.994 530.827 242.605 525.117 245.79Z" fill="#4C4981"/>
<path opacity="0.1" d="M525.117 245.518L520.445 242.151L529.942 230.182C530.784 231.236 531.463 232.411 531.957 233.667C532.584 238.728 530.827 242.332 525.117 245.518Z" fill="#2B2949"/>
<path opacity="0.1" d="M547.7 192.092C546.25 193.347 545.155 195.194 543.308 195.689C541.99 196.045 540.609 195.613 539.298 195.236C535.972 194.274 532.27 193.682 529.153 195.187C524.719 197.328 522.878 203.009 518.436 205.184C517.075 205.848 515.56 206.129 514.051 205.999C512.526 205.874 511.068 205.319 509.846 204.398C508.624 203.478 507.689 202.23 507.148 200.799C506.883 200.091 506.719 199.35 506.66 198.596C506.542 199.856 506.709 201.126 507.148 202.312C507.917 204.324 509.451 205.951 511.415 206.836C512.248 207.217 513.139 207.452 514.051 207.533C515.56 207.664 517.077 207.38 518.436 206.711C522.864 204.543 524.712 198.854 529.153 196.714C532.27 195.215 535.972 195.808 539.298 196.763C540.609 197.146 541.99 197.579 543.308 197.223C545.155 196.728 546.25 194.881 547.7 193.619C547.7 191.528 553.446 192.699 553.815 190.168C553.846 189.788 553.805 189.405 553.697 189.039C552.811 191.047 547.7 190.147 547.7 192.092Z" fill="#2B2949"/>
<path opacity="0.1" d="M538.113 251.876C538.113 251.876 541.265 258.038 538.615 260.596C538.615 260.596 540.707 251.618 542.604 251.534" fill="#2B2949"/>
<path d="M386.739 207.533C386.739 207.533 403.277 218.457 392.805 221.921C382.332 225.386 386.739 207.533 386.739 207.533Z" fill="#EFB7B9"/>
<path d="M536.44 567.613C536.44 567.613 523.666 574.061 517.537 574.124C512.879 574.172 512.412 572.074 512.147 567.669C512.071 566.274 512.008 564.622 511.84 562.74C511.143 554.967 514.051 552.981 514.051 552.981C517.404 538.941 534.431 554.96 534.431 554.96L533.853 556.529C535.22 558.67 536.061 561.104 536.307 563.632C536.477 564.952 536.522 566.285 536.44 567.613Z" fill="#444053"/>
</g>
<defs>
<linearGradient id="paint0_linear" x1="493.607" y1="572.423" x2="493.607" y2="163.846" gradientUnits="userSpaceOnUse">
<stop stop-color="#808080" stop-opacity="0.25"/>
<stop offset="0.54" stop-color="#808080" stop-opacity="0.12"/>
<stop offset="1" stop-color="#808080" stop-opacity="0.1"/>
</linearGradient>
<clipPath id="clip0">
<rect width="705.015" height="589" fill="white"/>
</clipPath>
</defs>
</svg>
