<svg width="23" height="20" viewBox="0 0 23 20" fill="none" xmlns="http://www.w3.org/2000/svg">
<path fill-rule="evenodd" clip-rule="evenodd" d="M10.6145 0.422323C10.4839 0.289931 10.3301 0.185031 10.1617 0.113633C9.99336 0.0422339 9.8138 0.00573979 9.63333 0.00623832C9.45286 0.00673685 9.27503 0.0442182 9.11001 0.116538C8.945 0.188858 8.79605 0.294594 8.67169 0.42769L0.638778 9.00291C0.514091 9.13567 0.416383 9.29325 0.35125 9.46661C0.286117 9.63998 0.254838 9.82573 0.259207 10.0132C0.263575 10.2007 0.303505 10.3863 0.376708 10.5592C0.449911 10.7322 0.554949 10.8892 0.685806 11.0213L9.11726 19.551C9.38112 19.818 9.73405 19.9674 10.0984 19.9664C10.4627 19.9654 10.8087 19.814 11.0601 19.5457C11.3114 19.2773 11.4477 18.9139 11.4389 18.5354C11.4301 18.1568 11.2769 17.7942 11.013 17.5273L3.57374 10.0041L10.6615 2.44071C10.7862 2.30795 10.8839 2.15037 10.949 1.97701C11.0142 1.80364 11.0455 1.61789 11.0411 1.4304C11.0367 1.24291 10.9968 1.05736 10.9236 0.884377C10.8504 0.711394 10.7453 0.554378 10.6145 0.422323Z" fill="#3D4C61"/>
<path fill-rule="evenodd" clip-rule="evenodd" d="M22.2434 9.96405C22.2348 9.59441 22.0817 9.24029 21.818 8.97959C21.5542 8.71889 21.2012 8.57297 20.8368 8.57393L2.97284 8.62093C2.60839 8.62189 2.26229 8.76965 2.01066 9.03171C1.75904 9.29376 1.62251 9.64865 1.6311 10.0183C1.6397 10.3879 1.79272 10.7421 2.0565 11.0028C2.32028 11.2635 2.67322 11.4094 3.03767 11.4084L20.9016 11.3614C21.2661 11.3605 21.6122 11.2127 21.8638 10.9506C22.1154 10.6886 22.2519 10.3337 22.2434 9.96405Z" fill="#3D4C61"/>
</svg>
