<svg width="110" height="20" viewBox="0 0 110 20" fill="none" xmlns="http://www.w3.org/2000/svg">
<g clip-path="url(#clip0)">
<path d="M28.3033 17.0125H21.796V2.88123H19.4354V19.375H28.3033C28.6164 19.375 28.9166 19.2492 29.138 19.0253C29.3593 18.8015 29.4837 18.4978 29.4837 18.1812C29.4837 17.8646 29.3593 17.561 29.138 17.3371C28.9166 17.1132 28.6164 16.9875 28.3033 16.9875V17.0125Z" fill="#030094" stroke="#030094" stroke-width="1.13771" stroke-miterlimit="10"/>
<path d="M41.3612 17.0125H34.9466V12.3375H41.1635C41.4798 12.3375 41.7831 12.2104 42.0068 11.9842C42.2305 11.758 42.3561 11.4511 42.3561 11.1312C42.3561 10.8113 42.2305 10.5045 42.0068 10.2783C41.7831 10.0521 41.4798 9.92498 41.1635 9.92498H34.9466V5.26873H41.3365C41.6495 5.26873 41.9498 5.14296 42.1711 4.91908C42.3925 4.69521 42.5168 4.39158 42.5168 4.07498C42.5168 3.75837 42.3925 3.45474 42.1711 3.23087C41.9498 3.007 41.6495 2.88123 41.3365 2.88123H32.5674V19.375H41.3612C41.6742 19.375 41.9745 19.2492 42.1958 19.0253C42.4172 18.8015 42.5415 18.4978 42.5415 18.1812C42.5415 17.8646 42.4172 17.561 42.1958 17.3371C41.9745 17.1132 41.6742 16.9875 41.3612 16.9875V17.0125Z" fill="#030094" stroke="#030094" stroke-width="1.13771" stroke-miterlimit="10"/>
<path d="M59.6163 13.2061C59.4047 13.2065 59.1977 13.2686 59.0201 13.385C58.8425 13.5014 58.7019 13.6672 58.6151 13.8623C58.2286 14.7032 57.6446 15.4356 56.9141 15.996C56.1836 16.5563 55.3288 16.9275 54.424 17.0772C53.5192 17.227 52.5919 17.1507 51.7229 16.8551C50.8539 16.5595 50.0696 16.0534 49.4382 15.3811C48.3592 14.244 47.7566 12.729 47.7566 11.153C47.7566 9.57693 48.3592 8.06193 49.4382 6.92484C49.9539 6.36921 50.5759 5.92536 51.2664 5.62023C51.9569 5.31511 52.7015 5.15507 53.455 5.14984C54.4991 5.10791 55.5321 5.37851 56.4247 5.92773C57.3173 6.47696 58.0299 7.28038 58.473 8.23734C58.5665 8.42624 58.7104 8.58491 58.8884 8.69536C59.0664 8.80582 59.2715 8.86367 59.4803 8.86234C59.672 8.86118 59.8603 8.81075 60.0274 8.71579C60.1946 8.62083 60.3351 8.48446 60.4358 8.31949C60.5365 8.15452 60.5941 7.96636 60.6032 7.77269C60.6122 7.57902 60.5725 7.3862 60.4876 7.21234C59.8681 5.86154 58.8719 4.72317 57.6214 3.93707C56.371 3.15096 54.9208 2.75136 53.4489 2.78734C52.3918 2.7932 51.3466 3.01362 50.3753 3.43554C49.404 3.85746 48.5264 4.47229 47.7944 5.24359C46.2941 6.83687 45.4572 8.95276 45.4572 11.153C45.4572 13.3532 46.2941 15.4691 47.7944 17.0623C48.6858 18.0071 49.7942 18.7146 51.0209 19.122C52.2477 19.5295 53.555 19.6242 54.8267 19.3979C56.0984 19.1716 57.2951 18.6312 58.3107 17.8247C59.3263 17.0182 60.1292 15.9706 60.6483 14.7748C60.7213 14.6029 60.7507 14.4154 60.7339 14.2291C60.7172 14.0428 60.6547 13.8636 60.5522 13.7079C60.4498 13.5521 60.3105 13.4247 60.1471 13.3371C59.9837 13.2494 59.8012 13.2044 59.6163 13.2061Z" fill="#030094" stroke="#030094" stroke-width="1.13771" stroke-miterlimit="10"/>
<path d="M74.0091 2.86255H64.1215C63.8208 2.88448 63.5394 3.02076 63.3341 3.24397C63.1287 3.46719 63.0146 3.76077 63.0146 4.06567C63.0146 4.37057 63.1287 4.66415 63.3341 4.88737C63.5394 5.11058 63.8208 5.24686 64.1215 5.2688H67.8849V19.4188H70.2456V5.2688H73.9844C74.1478 5.28072 74.3119 5.25845 74.4665 5.20339C74.621 5.14833 74.7627 5.06165 74.8826 4.94876C75.0026 4.83588 75.0983 4.6992 75.1637 4.54727C75.2291 4.39533 75.2629 4.23139 75.2629 4.06567C75.2629 3.89995 75.2291 3.73601 75.1637 3.58408C75.0983 3.43214 75.0026 3.29546 74.8826 3.18258C74.7627 3.06969 74.621 2.98301 74.4665 2.92795C74.3119 2.87289 74.1478 2.85062 73.9844 2.86255H74.0091Z" fill="#030094" stroke="#030094" stroke-width="1.13771" stroke-miterlimit="10"/>
<path d="M85.4417 17.0125H83.5878V5.24373H85.4417C85.7515 5.24373 86.0486 5.11927 86.2676 4.89775C86.4867 4.67622 86.6097 4.37576 86.6097 4.06248C86.6097 3.74919 86.4867 3.44873 86.2676 3.22721C86.0486 3.00568 85.7515 2.88123 85.4417 2.88123H79.3423C79.0325 2.88123 78.7354 3.00568 78.5164 3.22721C78.2974 3.44873 78.1743 3.74919 78.1743 4.06248C78.1743 4.37576 78.2974 4.67622 78.5164 4.89775C78.7354 5.11927 79.0325 5.24373 79.3423 5.24373H81.1962V17.0125H79.3423C79.0292 17.0125 78.729 17.1382 78.5077 17.3621C78.2863 17.586 78.162 17.8896 78.162 18.2062C78.162 18.5228 78.2863 18.8265 78.5077 19.0503C78.729 19.2742 79.0292 19.4 79.3423 19.4H85.417C85.7301 19.4 86.0303 19.2742 86.2516 19.0503C86.473 18.8265 86.5974 18.5228 86.5974 18.2062C86.5974 17.8896 86.473 17.586 86.2516 17.3621C86.0303 17.1382 85.7301 17.0125 85.417 17.0125H85.4417Z" fill="#030094" stroke="#030094" stroke-width="1.13771" stroke-miterlimit="10"/>
<path d="M15.1035 8.08755H1.42143V10.2751H15.1035V8.08755Z" fill="white"/>
<path d="M11.7417 10.8751L14.1147 8.08755H11.9518L11.958 8.09381L9.59113 10.8751H11.7417Z" fill="black"/>
<path d="M8.43552 10.8751L10.8086 8.08755H8.65181L8.65799 8.09381L6.29114 10.8751H8.43552Z" fill="black"/>
<path d="M5.16011 10.8751L7.53315 8.08755H5.37023L5.37641 8.09381L3.00955 10.8751H5.16011Z" fill="black"/>
<path d="M1.88492 10.8751L4.25795 8.08755H1.42143V10.8751H1.88492Z" fill="black"/>
<path d="M15.1036 10.8749V8.36865L12.9654 10.8749H15.1036Z" fill="black"/>
<path d="M12.9776 12.8187C14.1394 12.8187 15.0787 12.6437 15.0787 11.4687V11.0062H1.42143V19.8812H13.5153C13.9365 19.8812 14.3404 19.712 14.6383 19.4108C14.9361 19.1096 15.1035 18.701 15.1035 18.275V18.1625C15.1035 17.7365 14.9361 17.3279 14.6383 17.0267C14.3404 16.7255 13.9365 16.5562 13.5153 16.5562H4.72761V12.8062L12.9776 12.8187Z" fill="#030094"/>
<path d="M14.0318 2.29598L0.844238 5.98225L1.42043 8.09071L14.608 4.40443L14.0318 2.29598Z" fill="white"/>
<path d="M10.6293 2.62498L13.6512 4.66874L11.5686 5.24998L11.5748 5.24374L8.55908 3.19998L10.6293 2.62498Z" fill="black"/>
<path d="M7.44654 3.51247L10.4684 5.55622L8.38586 6.14372L8.39204 6.13122L5.37631 4.09372L7.44654 3.51247Z" fill="black"/>
<path d="M4.28254 4.39973L7.30445 6.44348L5.22186 7.02473L5.22804 7.01848L2.21231 4.97473L4.28254 4.39973Z" fill="black"/>
<path d="M1.13102 5.28116L4.15294 7.32491L1.41529 8.08741L0.679901 5.40616L1.13102 5.28116Z" fill="black"/>
<path d="M13.88 1.71266L14.5289 4.13766L11.8098 2.29391L13.88 1.71266Z" fill="black"/>
<path d="M0.170975 3.53407L12.0839 0.204107C12.4229 0.111048 12.7846 0.157584 13.0898 0.333534C13.3951 0.509484 13.6189 0.800526 13.7125 1.14299L13.8343 1.58878L0.646748 5.27505L0.170975 3.53407Z" fill="#030094"/>
<path d="M13.9003 1.57354L0.575668 5.29811L0.646458 5.55715L13.9711 1.83258L13.9003 1.57354Z" fill="white"/>
<path d="M15.1838 10.8752H1.41525V11.1439H15.1838V10.8752Z" fill="white"/>
<path d="M108.727 17.8059H102.683C102.838 17.6684 102.998 17.5246 103.147 17.3746C104.349 16.1377 105.163 14.5698 105.489 12.867C105.814 11.1643 105.636 9.4023 104.977 7.80144C104.317 6.20058 103.205 4.83193 101.781 3.86668C100.356 2.90143 98.6817 2.38243 96.9669 2.37461C95.8173 2.372 94.6787 2.60113 93.6176 3.04862C92.5566 3.49611 91.5944 4.15298 90.7872 4.98086C89.1603 6.62848 88.2466 8.86176 88.2466 11.1902C88.2466 13.5187 89.1603 15.752 90.7872 17.3996C91.5918 18.2309 92.5536 18.89 93.6152 19.3378C94.6769 19.7855 95.8167 20.0127 96.9669 20.0059H97.2203H108.733C108.881 20.0172 109.029 19.9976 109.169 19.9482C109.309 19.8989 109.437 19.8209 109.546 19.7191C109.654 19.6173 109.741 19.4939 109.8 19.3566C109.859 19.2194 109.89 19.0712 109.89 18.9215C109.89 18.7717 109.859 18.6236 109.8 18.4863C109.741 18.3491 109.654 18.2257 109.546 18.1239C109.437 18.0221 109.309 17.9441 109.169 17.8947C109.029 17.8454 108.881 17.8258 108.733 17.8371L108.727 17.8059ZM100.669 6.87461C100.874 6.75346 101.101 6.67448 101.336 6.64221C101.572 6.60994 101.811 6.62502 102.041 6.68657C102.27 6.74813 102.486 6.85495 102.674 7.00091C102.863 7.14686 103.022 7.32909 103.141 7.53711C103.264 7.74374 103.345 7.97329 103.378 8.21214C103.412 8.45098 103.398 8.69424 103.337 8.92746C103.276 9.16067 103.169 9.37908 103.022 9.56971C102.876 9.76033 102.694 9.91928 102.485 10.0371C102.07 10.2784 101.578 10.3442 101.115 10.2202C100.652 10.0961 100.256 9.79222 100.014 9.37461C99.8913 9.16775 99.8111 8.93823 99.7779 8.69957C99.7447 8.46091 99.759 8.21793 99.82 7.98496C99.8811 7.75198 99.9876 7.53372 100.133 7.34303C100.279 7.15233 100.461 6.99307 100.669 6.87461ZM100.007 12.9371C100.257 12.5268 100.652 12.2292 101.112 12.1058C101.573 11.9825 102.062 12.0429 102.479 12.2746C102.686 12.3937 102.868 12.5533 103.013 12.744C103.158 12.9348 103.264 13.1529 103.325 13.3856C103.386 13.6184 103.401 13.8611 103.368 14.0996C103.335 14.338 103.256 14.5675 103.134 14.7746C102.892 15.1922 102.496 15.4961 102.033 15.6202C101.57 15.7442 101.078 15.6784 100.662 15.4371C100.458 15.318 100.279 15.1593 100.135 14.97C99.9915 14.7807 99.8863 14.5646 99.8254 14.3341C99.7646 14.1035 99.7493 13.8631 99.7805 13.6266C99.8118 13.3901 99.8888 13.1622 100.007 12.9559V12.9371ZM96.9175 3.93711C97.2724 3.94081 97.6182 4.05061 97.9115 4.2527C98.2048 4.45478 98.4324 4.74011 98.5656 5.07275C98.6989 5.40539 98.7319 5.77048 98.6604 6.12203C98.589 6.47359 98.4162 6.79591 98.164 7.04839C97.9118 7.30088 97.5913 7.47224 97.243 7.54091C96.8947 7.60958 96.5341 7.57249 96.2066 7.4343C95.879 7.29611 95.5993 7.063 95.4025 6.76433C95.2057 6.46566 95.1007 6.11477 95.1006 5.75586C95.1088 5.27126 95.3065 4.80968 95.6506 4.47228C95.9946 4.13488 96.4569 3.94917 96.936 3.95586L96.9175 3.93711ZM97.9804 11.1434C97.9829 11.358 97.9221 11.5685 97.8058 11.7481C97.6896 11.9277 97.5231 12.0682 97.3276 12.1518C97.1322 12.2353 96.9165 12.2582 96.7081 12.2174C96.4998 12.1766 96.3081 12.074 96.1576 11.9226C96.0071 11.7713 95.9045 11.5781 95.863 11.3676C95.8214 11.1571 95.8427 10.9389 95.9242 10.7407C96.0057 10.5425 96.1437 10.3733 96.3206 10.2547C96.4975 10.1361 96.7053 10.0734 96.9175 10.0746C97.0597 10.0721 97.2009 10.0985 97.3328 10.1521C97.4648 10.2058 97.5847 10.2857 97.6856 10.3871C97.7864 10.4885 97.8661 10.6094 97.9199 10.7425C97.9738 10.8756 98.0006 11.0183 97.999 11.1621L97.9804 11.1434ZM93.1787 15.4184C92.9735 15.5395 92.7467 15.6185 92.5113 15.6508C92.2758 15.683 92.0364 15.668 91.8067 15.6064C91.577 15.5448 91.3616 15.438 91.1729 15.2921C90.9841 15.1461 90.8258 14.9639 90.7068 14.7559C90.5837 14.5492 90.5028 14.3197 90.4691 14.0808C90.4355 13.842 90.4496 13.5987 90.5107 13.3655C90.5718 13.1323 90.6786 12.9139 90.8249 12.7233C90.9711 12.5326 91.1537 12.3737 91.3619 12.2559C91.7771 12.0145 92.2697 11.9487 92.7326 12.0728C93.1955 12.1969 93.5912 12.5007 93.8338 12.9184C93.9598 13.1248 94.0434 13.3549 94.0796 13.5947C94.1158 13.8346 94.1038 14.0794 94.0444 14.3144C93.985 14.5495 93.8794 14.7701 93.7338 14.963C93.5883 15.1559 93.4058 15.3171 93.1973 15.4371L93.1787 15.4184ZM93.84 9.35586C93.5908 9.76615 93.1952 10.0638 92.735 10.1871C92.2748 10.3105 91.7854 10.25 91.3681 10.0184C91.1611 9.89928 90.9798 9.7397 90.8345 9.54894C90.6892 9.35818 90.583 9.14006 90.522 8.90732C90.461 8.67458 90.4465 8.43189 90.4793 8.19341C90.5121 7.95493 90.5915 7.72544 90.713 7.51836C90.9555 7.10075 91.3513 6.79687 91.8142 6.6728C92.2771 6.54874 92.7697 6.61453 93.1849 6.85586C93.3959 6.97329 93.5813 7.13252 93.73 7.32403C93.8788 7.51555 93.9879 7.73542 94.0508 7.97052C94.1136 8.20561 94.129 8.45112 94.096 8.69236C94.0629 8.9336 93.9822 9.16564 93.8585 9.37461L93.84 9.35586ZM96.9299 18.3559C96.5747 18.3534 96.2282 18.2446 95.9341 18.0433C95.64 17.8419 95.4115 17.557 95.2773 17.2245C95.143 16.892 95.1092 16.5267 95.18 16.1747C95.2507 15.8227 95.423 15.4998 95.675 15.2467C95.927 14.9936 96.2474 14.8216 96.5959 14.7524C96.9444 14.6833 97.3053 14.72 97.6332 14.858C97.9611 14.996 98.2412 15.2292 98.4383 15.528C98.6353 15.8268 98.7405 16.1779 98.7405 16.5371C98.7413 16.7776 98.6953 17.0159 98.6051 17.2384C98.5148 17.4609 98.3821 17.6632 98.2146 17.8338C98.047 18.0045 97.8478 18.14 97.6285 18.2328C97.4091 18.3256 97.1738 18.3738 96.936 18.3746L96.9299 18.3559Z" fill="#030094"/>
</g>
<defs>
<clipPath id="clip0">
<rect width="110" height="20" fill="white"/>
</clipPath>
</defs>
</svg>
