<svg width="57" height="57" viewBox="0 0 57 57" fill="none" xmlns="http://www.w3.org/2000/svg">
<circle cx="28.5" cy="28.5" r="28.5" fill="white" fill-opacity="0.4"/>
<path d="M36 22.9896H23.0621L28.8559 17.1903C29.1759 16.8699 29.1759 16.3505 28.8559 16.0301L27.3878 14.5606C26.641 13.8131 25.4302 13.8131 24.6834 14.5606L23.1738 16.0716L22.4011 15.2982C21.549 14.4452 20.1625 14.4453 19.3104 15.2982L16.2969 18.3145C15.4448 19.1675 15.4448 20.5553 16.2969 21.4083L17.0696 22.1817L15.5601 23.6927C14.8133 24.4402 14.8133 25.6521 15.5601 26.3997L17.0282 27.8692C17.3482 28.1896 17.8671 28.1896 18.1872 27.8692L20.2644 25.79V38.4452C20.2644 40.4084 21.8544 42 23.8158 42H32.4486C34.41 42 36 40.4084 36 38.4452V22.9896ZM18.2287 21.0215L17.456 20.2481C17.243 20.0349 17.243 19.6879 17.456 19.4746L20.4694 16.4583C20.6825 16.245 21.0292 16.2451 21.2421 16.4583L22.0148 17.2317L18.2287 21.0215ZM25.3055 37.406C25.3055 37.8591 24.9386 38.2264 24.4859 38.2264C24.0333 38.2264 23.6664 37.8591 23.6664 37.406V27.5836C23.6664 27.1305 24.0333 26.7632 24.4859 26.7632C24.9386 26.7632 25.3055 27.1305 25.3055 27.5836V37.406ZM28.9518 37.406C28.9518 37.8591 28.5848 38.2264 28.1322 38.2264C27.6796 38.2264 27.3126 37.8591 27.3126 37.406V27.5836C27.3126 27.1305 27.6796 26.7632 28.1322 26.7632C28.5848 26.7632 28.9518 27.1305 28.9518 27.5836V37.406ZM32.598 37.406C32.598 37.8591 32.2311 38.2264 31.7785 38.2264C31.3258 38.2264 30.9589 37.8591 30.9589 37.406V27.5836C30.9589 27.1305 31.3258 26.7632 31.7785 26.7632C32.2311 26.7632 32.598 27.1305 32.598 27.5836V37.406Z" fill="#2B2949" fill-opacity="0.3"/>
</svg>
