<svg width="439" height="345" viewBox="0 0 439 345" fill="none" xmlns="http://www.w3.org/2000/svg">
<g opacity="0.2" clip-path="url(#clip0)">
<path d="M12.8304 320.455C13.2801 320.859 13.7422 321.247 14.2086 321.63C15.9288 323.044 17.7246 324.315 19.5838 325.434C29.3516 331.409 41.3843 334.325 53.1089 336.307C79.402 340.76 106.249 341.623 132.983 342.471C205.209 344.774 277.626 347.067 349.669 341.766C378.131 339.672 407.231 336.148 433.028 325.424C436.723 323.889 440.348 322.197 443.904 320.348C451.09 316.594 457.993 312.034 463.735 306.6C469.148 301.493 473.503 295.621 476.117 288.951C481.572 275.05 478.686 259.439 472.462 245.819C469.86 240.292 466.938 235.001 463.718 229.988C458.922 222.317 453.63 214.887 448.792 207.226C431.588 179.946 420.363 145.49 436.243 117.545C440.823 109.517 447.405 102.47 451.123 94.0894C455.874 83.365 455.503 71.461 453.992 59.8736C453.801 58.413 453.576 56.9627 453.372 55.5123C450.778 38.3687 445.948 19.8921 430.997 9.18821C415.466 -1.93449 393.42 -1.37274 374.139 2.60549C344.161 8.79498 316.506 21.7204 288.581 33.3946C260.656 45.0689 231.406 55.7319 200.696 56.8861C173.582 57.9075 141.952 50.3136 123.957 30.6063C106.47 11.4659 73.6188 10.0104 49.928 21.5723C33.69 29.5083 21.5531 43.8024 16.4361 59.8736C15.4019 63.0914 14.655 66.4372 14.2086 69.8524C13.7933 72.962 13.6537 76.1177 13.7922 79.2643C13.863 80.7963 14.0004 82.3539 14.2086 83.8604C18.164 115.589 46.6471 140.613 63.9593 168.956C72.4197 182.8 78.3945 199.428 72.5779 214.355C63.7053 237.101 32.849 245.185 14.2086 262.12C10.7261 265.167 7.63812 268.841 5.04865 273.018C-3.96552 288.093 -0.630493 308.439 12.8304 320.455Z" fill="#CFF3FF"/>
<path d="M453.79 302.457C433.313 299.458 413.62 296.873 394.712 294.702L402.188 282.606C399.668 281.862 388.593 288.757 388.593 288.757L398.408 253.59C385.73 254.811 379.279 290.736 379.279 290.736L365.118 278.514L371.973 292.212C314.101 286.24 264.121 283.894 222.082 283.623L228.481 273.27C225.961 272.526 214.885 279.422 214.885 279.422L224.7 244.254C212.023 245.475 205.572 281.4 205.572 281.4L191.41 269.178L198.671 283.687C163.428 284.114 134.687 285.995 112.504 288.188C118.977 272.043 140.963 256.761 140.963 256.761C124.174 260.863 115.366 267.826 110.764 274.334C110.412 254.361 112.778 217.346 130.362 176.434C130.362 176.434 95.6521 239.478 100.074 281.924L100.602 289.46C71.1829 292.85 56.392 296.45 56.392 296.45L453.79 302.457Z" fill="#3F3D56"/>
<path d="M267.702 28.0671V282.824C267.699 285.858 266.491 288.768 264.344 290.913C262.197 293.058 259.286 294.263 256.25 294.264H152.802C151.298 294.267 149.808 293.973 148.418 293.399C147.028 292.825 145.765 291.983 144.701 290.92C143.638 289.857 142.794 288.595 142.219 287.205C141.644 285.816 141.349 284.327 141.35 282.824V28.0671C141.35 26.5636 141.646 25.0748 142.222 23.6857C142.797 22.2967 143.641 21.0345 144.704 19.9714C145.768 18.9082 147.03 18.0649 148.419 17.4896C149.809 16.9143 151.298 16.6183 152.802 16.6184H168.283V18.6032C168.283 21.1032 169.275 23.501 171.043 25.2691C172.811 27.0373 175.209 28.031 177.71 28.0317H230.324C232.337 28.036 234.298 27.391 235.914 26.1924C236.241 25.9547 236.551 25.6947 236.842 25.4142C237.763 24.535 238.496 23.478 238.996 22.3072C239.496 21.1364 239.753 19.8762 239.751 18.6032V16.6184H256.25C257.754 16.6179 259.244 16.9138 260.633 17.489C262.023 18.0641 263.285 18.9074 264.349 19.9706C265.412 21.0338 266.256 22.2961 266.831 23.6853C267.406 25.0746 267.702 26.5635 267.702 28.0671Z" fill="#3F3D56"/>
<path d="M267.702 28.0671V282.824C267.699 285.858 266.491 288.768 264.344 290.913C262.197 293.058 259.286 294.263 256.25 294.264H152.802C151.298 294.267 149.808 293.973 148.418 293.399C147.028 292.825 145.765 291.983 144.701 290.92C143.638 289.857 142.794 288.595 142.219 287.205C141.644 285.816 141.349 284.327 141.35 282.824V28.0671C141.35 26.5636 141.646 25.0748 142.222 23.6857C142.797 22.2967 143.641 21.0345 144.704 19.9714C145.768 18.9082 147.03 18.0649 148.419 17.4896C149.809 16.9143 151.298 16.6183 152.802 16.6184H168.283V18.6032C168.283 21.1032 169.275 23.501 171.043 25.2691C172.811 27.0373 175.209 28.031 177.71 28.0317H230.324C232.337 28.036 234.298 27.391 235.914 26.1924C236.241 25.9547 236.551 25.6947 236.842 25.4142C237.763 24.535 238.496 23.478 238.996 22.3072C239.496 21.1364 239.753 19.8762 239.751 18.6032V16.6184H256.25C257.754 16.6179 259.244 16.9138 260.633 17.489C262.023 18.0641 263.285 18.9074 264.349 19.9706C265.412 21.0338 266.256 22.2961 266.831 23.6853C267.406 25.0746 267.702 26.5635 267.702 28.0671Z" fill="#514E7F"/>
<path d="M170.17 61.816C171.69 61.816 172.922 60.5843 172.922 59.0649C172.922 57.5455 171.69 56.3137 170.17 56.3137C168.65 56.3137 167.418 57.5455 167.418 59.0649C167.418 60.5843 168.65 61.816 170.17 61.816Z" fill="#F2F2F2"/>
<path d="M236.842 25.4143C236.551 25.6948 236.241 25.9548 235.915 26.1925C239.285 32.1219 243.851 37.2865 249.323 41.3587C254.795 45.431 261.053 48.322 267.702 49.8484V48.6222C261.233 47.0965 255.151 44.2465 249.839 40.2519C244.528 36.2574 240.102 31.2052 236.842 25.4143Z" fill="#56D7FF"/>
<path d="M213.33 28.0317H212.041C216.618 39.6597 224.168 49.8829 233.935 57.6798C243.703 65.4767 255.346 70.5742 267.702 72.4628V71.2444C255.668 69.3761 244.328 64.4097 234.795 56.8333C225.262 49.257 217.865 39.3313 213.33 28.0317Z" fill="#56D7FF"/>
<path d="M189.578 28.0317H188.336C198.726 64.0875 230.077 90.9269 267.702 95.2855V94.0868C230.729 89.7479 199.917 63.4194 189.578 28.0317Z" fill="#56D7FF"/>
<path d="M161.129 79.4319H160.412V78.7158H160.273V79.4319H159.556V79.5718H160.273V80.2879H160.412V79.5718H161.129V79.4319Z" fill="#F2F2F2"/>
<path d="M209.482 43.667H208.765V42.9509H208.626V43.667H207.909V43.8069H208.626V44.523H208.765V43.8069H209.482V43.667Z" fill="#F2F2F2"/>
<path d="M168.204 107.73H167.488V107.013H167.348V107.73H166.632V107.869H167.348V108.586H167.488V107.869H168.204V107.73Z" fill="#F2F2F2"/>
<path d="M201.226 86.8994H200.51V86.1833H200.37V86.8994H199.654V87.0394H200.37V87.7554H200.51V87.0394H201.226V86.8994Z" fill="#F2F2F2"/>
<path d="M248.4 99.8692H247.684V99.1531H247.544V99.8692H246.828V100.009H247.544V100.725H247.684V100.009H248.4V99.8692Z" fill="#F2F2F2"/>
<path d="M240.145 67.3182C241.013 67.3182 241.717 66.6144 241.717 65.7462C241.717 64.8779 241.013 64.1741 240.145 64.1741C239.276 64.1741 238.572 64.8779 238.572 65.7462C238.572 66.6144 239.276 67.3182 240.145 67.3182Z" fill="#FF6584"/>
<path d="M183.811 102.612L182.919 102.749C183.198 104.533 183.418 106.357 183.579 108.161L184.48 108.082C184.318 106.255 184.094 104.416 183.811 102.612Z" fill="#E6E6E6"/>
<path d="M181.37 91.8665L180.505 92.1298C181.028 93.8591 181.496 95.6316 181.893 97.3963L182.777 97.1958C182.372 95.4115 181.897 93.6193 181.37 91.8665Z" fill="#E6E6E6"/>
<path d="M177.474 81.5613L176.652 81.9386C177.407 83.5853 178.115 85.2753 178.756 86.9653L179.601 86.647C178.952 84.9373 178.241 83.2238 177.474 81.5613Z" fill="#E6E6E6"/>
<path d="M172.207 71.9009L171.444 72.3843C172.415 73.9092 173.347 75.4892 174.212 77.073L175.006 76.6407C174.133 75.0372 173.19 73.4415 172.207 71.9009Z" fill="#E6E6E6"/>
<path d="M165.657 63.0461L164.969 63.6317C166.141 65.0073 167.281 66.4458 168.358 67.9L169.081 67.3615C167.996 65.8916 166.844 64.4374 165.657 63.0461Z" fill="#E6E6E6"/>
<path d="M157.96 55.1621L157.358 55.8342C158.711 57.0408 160.036 58.3102 161.297 59.6033L161.946 58.9705C160.668 57.6617 159.328 56.3804 157.96 55.1621Z" fill="#E6E6E6"/>
<path d="M149.264 48.3943L148.757 49.141C150.259 50.1511 151.745 51.228 153.172 52.3402L153.73 51.6288C152.283 50.5048 150.782 49.4162 149.264 48.3943Z" fill="#E6E6E6"/>
<path d="M141.35 43.6938V44.7157C142.29 45.207 143.222 45.7218 144.134 46.2485L144.586 45.4664C143.524 44.8532 142.446 44.2624 141.35 43.6938Z" fill="#E6E6E6"/>
<path d="M183.607 187.505C183.754 186.627 183.888 185.729 184.006 184.839L184.902 184.957C184.782 185.858 184.647 186.765 184.499 187.654L183.607 187.505Z" fill="#E6E6E6"/>
<path d="M181.087 198.109L181.951 198.378C182.493 196.631 182.984 194.842 183.409 193.059L182.528 192.851C182.107 194.615 181.625 196.381 181.087 198.109Z" fill="#E6E6E6"/>
<path d="M177.14 208.261L177.96 208.645C178.74 206.992 179.469 205.288 180.132 203.582L179.288 203.253C178.634 204.94 177.912 206.626 177.14 208.261Z" fill="#E6E6E6"/>
<path d="M171.828 217.786L172.586 218.278C173.586 216.745 174.545 215.156 175.438 213.558L174.65 213.115C173.769 214.696 172.817 216.267 171.828 217.786Z" fill="#E6E6E6"/>
<path d="M165.257 226.486L165.942 227.08C167.145 225.693 168.31 224.251 169.416 222.792L168.692 222.251C167.602 223.693 166.448 225.117 165.257 226.486Z" fill="#E6E6E6"/>
<path d="M157.562 234.207L158.157 234.887C159.539 233.681 160.891 232.409 162.183 231.117L161.543 230.477C160.266 231.756 158.926 233.01 157.562 234.207Z" fill="#E6E6E6"/>
<path d="M148.893 240.806L149.392 241.562C150.918 240.555 152.434 239.481 153.888 238.374L153.342 237.653C151.902 238.75 150.404 239.812 148.893 240.806Z" fill="#E6E6E6"/>
<path d="M144.688 244.433C143.595 245.05 142.479 245.648 141.35 246.214V245.2C142.325 244.704 143.292 244.182 144.24 243.651L144.688 244.433Z" fill="#E6E6E6"/>
<path d="M183.872 113.736L184.775 113.72C184.792 114.632 184.793 115.549 184.779 116.446L183.876 116.432C183.889 115.545 183.888 114.638 183.872 113.736Z" fill="#E6E6E6"/>
<path d="M145.321 135.166H237.786C244.667 135.166 251.267 137.899 256.133 142.764C260.998 147.628 263.732 154.226 263.732 161.106V164.539H171.267C164.386 164.539 157.786 161.806 152.921 156.942C148.055 152.077 145.321 145.479 145.321 138.6V135.166Z" fill="white"/>
<path d="M206.687 293.903C206.597 293.756 204.469 290.205 203.732 282.831C203.055 276.066 203.49 264.663 209.406 248.757C220.612 218.624 206.823 194.311 206.682 194.068L207.362 193.674C207.398 193.735 210.956 199.934 213.058 209.805C215.835 222.892 214.824 236.499 210.143 249.031C198.956 279.113 207.273 293.353 207.358 293.494L206.687 293.903Z" fill="#F2F2F2"/>
<path d="M202.305 192.299C205.127 192.299 207.415 190.012 207.415 187.19C207.415 184.368 205.127 182.081 202.305 182.081C199.482 182.081 197.194 184.368 197.194 187.19C197.194 190.012 199.482 192.299 202.305 192.299Z" fill="#90EB71"/>
<path d="M218.422 211.164C221.245 211.164 223.533 208.877 223.533 206.055C223.533 203.233 221.245 200.946 218.422 200.946C215.6 200.946 213.312 203.233 213.312 206.055C213.312 208.877 215.6 211.164 218.422 211.164Z" fill="#F2F2F2"/>
<path d="M207.415 223.741C210.237 223.741 212.525 221.453 212.525 218.632C212.525 215.81 210.237 213.522 207.415 213.522C204.592 213.522 202.304 215.81 202.304 218.632C202.304 221.453 204.592 223.741 207.415 223.741Z" fill="#90EB71"/>
<path d="M220.781 234.352C223.604 234.352 225.892 232.065 225.892 229.243C225.892 226.421 223.604 224.134 220.781 224.134C217.959 224.134 215.671 226.421 215.671 229.243C215.671 232.065 217.959 234.352 220.781 234.352Z" fill="#90EB71"/>
<path d="M203.484 250.859C206.306 250.859 208.595 248.572 208.595 245.75C208.595 242.928 206.306 240.641 203.484 240.641C200.662 240.641 198.374 242.928 198.374 245.75C198.374 248.572 200.662 250.859 203.484 250.859Z" fill="#F2F2F2"/>
<path d="M209.774 294.091C209.774 294.091 204.663 281.515 219.995 272.082L209.774 294.091Z" fill="#F2F2F2"/>
<path d="M203.489 293.863C203.489 293.863 201.163 280.489 183.161 280.604L203.489 293.863Z" fill="#F2F2F2"/>
<path opacity="0.2" d="M183.143 181.294C200.512 181.294 214.592 167.217 214.592 149.853C214.592 132.488 200.512 118.411 183.143 118.411C165.774 118.411 151.693 132.488 151.693 149.853C151.693 167.217 165.774 181.294 183.143 181.294Z" fill="#2945FF"/>
<path opacity="0.2" d="M183.143 171.995C195.375 171.995 205.29 162.081 205.29 149.853C205.29 137.624 195.375 127.711 183.143 127.711C170.911 127.711 160.996 137.624 160.996 149.853C160.996 162.081 170.911 171.995 183.143 171.995Z" fill="#2945FF"/>
<path d="M183.143 164.467C191.216 164.467 197.76 157.924 197.76 149.853C197.76 141.782 191.216 135.239 183.143 135.239C175.07 135.239 168.525 141.782 168.525 149.853C168.525 157.924 175.07 164.467 183.143 164.467Z" fill="#2945FF"/>
<path d="M185.801 146.701C185.801 146.252 185.687 145.811 185.471 145.418C185.255 145.026 184.943 144.694 184.563 144.454C184.184 144.215 183.751 144.075 183.303 144.048C182.855 144.021 182.408 144.108 182.003 144.3C181.598 144.492 181.248 144.784 180.986 145.148C180.724 145.512 180.558 145.936 180.505 146.381C180.451 146.827 180.511 147.278 180.678 147.694C180.846 148.11 181.116 148.477 181.464 148.76L180.485 155.61H185.801L184.822 148.76C185.128 148.511 185.375 148.197 185.544 147.841C185.713 147.485 185.801 147.095 185.801 146.701Z" fill="white"/>
<path d="M323.408 37.5667C323.408 37.5667 314.641 29.7083 302.85 44.5184C291.06 59.3284 272.618 66.5824 268.386 72.325C268.386 72.325 285.921 65.0711 291.967 62.0487C298.013 59.0262 297.711 59.6307 297.711 59.6307C297.711 59.6307 289.548 65.3734 288.037 71.116C286.525 76.8587 287.734 81.6947 285.014 87.4374C282.293 93.18 337.013 91.3666 337.013 91.3666C337.013 91.3666 342.454 81.997 340.943 72.3251C339.431 62.6532 340.338 38.7757 323.408 37.5667Z" fill="#FF64AE"/>
<path d="M313.46 62.2883C313.46 62.2883 315.366 75.6301 307.196 78.6252C299.026 81.6203 302.021 85.7045 302.021 85.7045L314.277 91.6947L327.35 87.6105L331.707 81.0758C331.707 81.0758 324.626 79.4421 326.533 74.541C328.439 69.6399 328.4 65.8092 328.4 65.8092L313.46 62.2883Z" fill="#FFB9B9"/>
<path opacity="0.1" d="M313.46 62.2883C313.46 62.2883 315.366 75.6301 307.196 78.6252C299.026 81.6203 302.021 85.7045 302.021 85.7045L314.277 91.6947L327.35 87.6105L331.707 81.0758C331.707 81.0758 324.626 79.4421 326.533 74.541C328.439 69.6399 328.732 65.4768 328.732 65.4768L313.46 62.2883Z" fill="black"/>
<path d="M347.776 100.408C347.776 100.408 345.869 125.458 346.414 126.547C346.959 127.636 346.414 165.483 346.414 165.483C346.414 165.483 350.227 185.904 345.325 186.993C340.422 188.082 341.512 164.122 341.512 164.122L336.61 132.537L337.154 101.225L347.776 100.408Z" fill="#FFB9B9"/>
<path opacity="0.1" d="M347.776 100.408C347.776 100.408 345.869 125.458 346.414 126.547C346.959 127.636 346.414 165.483 346.414 165.483C346.414 165.483 350.227 185.904 345.325 186.993C340.422 188.082 341.512 164.122 341.512 164.122L336.61 132.537L337.154 101.225L347.776 100.408Z" fill="black"/>
<path d="M294.668 175.83C294.668 175.83 285.681 209.865 285.953 226.474C286.225 243.083 289.766 266.227 289.766 266.227C289.766 266.227 290.311 276.302 289.493 277.391C288.676 278.48 293.579 283.109 293.579 283.109L298.753 280.114L300.66 277.935V276.029C300.66 276.029 297.664 266.772 300.115 259.42C302.566 252.069 303.928 233.554 301.477 227.836L318.362 177.736L294.668 175.83Z" fill="#FFB9B9"/>
<path d="M294.123 278.752C294.123 278.752 290.855 274.668 288.677 276.029C286.498 277.391 282.957 286.648 282.957 286.648C282.957 286.648 270.702 298.357 279.417 298.901C288.132 299.446 291.945 296.451 293.034 294.272C294.123 292.094 304.2 286.376 304.2 286.376C304.2 286.376 303.111 276.029 301.477 275.757C299.843 275.485 297.392 279.841 297.392 279.841L294.123 278.752Z" fill="#35334D"/>
<path d="M324.354 178.008V211.771C324.385 215.868 324.658 219.959 325.171 224.024C325.988 230.014 320.541 274.668 320.541 274.668L321.085 282.564L327.894 282.02L328.711 275.213L338.516 245.262C338.516 245.262 341.784 227.019 340.15 220.212C338.516 213.405 348.593 169.84 348.593 169.84L324.354 178.008Z" fill="#FFB9B9"/>
<path d="M318.907 280.658L320.924 280.22C320.924 280.22 322.448 276.846 324.354 277.663C325.696 278.282 326.967 279.043 328.145 279.934L328.984 281.475C328.984 281.475 330.89 285.559 333.342 288.282C335.793 291.005 338.516 296.995 334.431 297.54C330.346 298.084 324.899 298.357 323.265 296.995C321.631 295.634 322.72 293.456 321.086 292.911C319.452 292.366 318.09 290.733 318.363 290.188C318.635 289.644 318.907 280.658 318.907 280.658Z" fill="#35334D"/>
<path d="M319.046 71.6668C325.731 71.6668 331.151 66.2489 331.151 59.5656C331.151 52.8822 325.731 47.4644 319.046 47.4644C312.361 47.4644 306.942 52.8822 306.942 59.5656C306.942 66.2489 312.361 71.6668 319.046 71.6668Z" fill="#FFB9B9"/>
<path d="M301.477 80.8035L305.074 79.5479C305.074 79.5479 303.655 81.8926 311.281 83.254C318.907 84.6155 326.804 85.0974 330.345 80.6361C330.345 80.6361 331.707 79.9867 333.614 81.8926C335.52 83.7986 336.61 83.2541 336.61 83.2541L335.248 90.3334L332.524 103.403L328.984 113.205L318.907 111.027L308.013 103.131L303.928 92.5116V82.7095L301.477 80.8035Z" fill="#2945FF"/>
<path d="M334.703 84.6156L337.427 82.7096C337.427 82.7096 346.686 84.3433 347.231 88.6998L340.15 102.314C341.594 106.102 341.497 110.305 339.878 114.022C337.154 120.284 337.427 121.646 337.427 121.646L335.52 129.814L300.932 132.537C300.932 132.537 299.57 129.27 299.026 128.725C298.481 128.181 298.481 126.275 299.026 126.275C299.57 126.275 299.026 125.458 298.481 124.641C297.936 123.824 297.664 123.552 298.481 122.463C299.298 121.374 297.119 111.571 297.119 111.571V100.952L287.859 88.6998C287.859 88.6998 291.128 83.7987 292.762 83.2542C294.396 82.7096 302.169 80.562 302.169 80.562L303.928 83.1512L306.379 102.858L309.92 114.839L324.827 112.307L330.618 102.586L334.431 91.1503L334.703 84.6156Z" fill="#2945FF"/>
<path d="M345.052 87.0659L347.231 88.6996C347.231 88.6996 349.137 103.947 348.593 105.036C348.048 106.126 338.516 107.215 338.243 106.67C337.971 106.126 345.052 87.0659 345.052 87.0659Z" fill="#2945FF"/>
<path d="M300.115 79.4422L302.838 97.4128C302.838 97.4128 300.387 124.096 300.932 129.542L301.476 131.176C301.476 131.176 300.387 130.631 300.115 131.72C299.842 132.809 300.115 136.349 300.115 136.349C300.115 136.349 298.481 137.983 297.936 146.968C297.391 155.953 290.855 177.464 293.306 178.28C295.757 179.097 310.464 183.181 318.362 182.365C326.26 181.548 354.584 172.018 354.312 169.567C354.039 167.117 340.422 132.537 340.422 132.537C340.422 132.537 337.971 128.453 337.971 127.908C337.971 127.364 341.239 125.185 340.422 123.007C339.605 120.829 335.248 97.9573 335.248 97.9573L338.243 81.6204L334.158 80.5313L331.162 96.3236C331.162 96.3236 319.451 102.042 307.196 96.8682L304.472 78.353L300.115 79.4422Z" fill="#3F3D56"/>
<path d="M331.31 49.3184C331.31 49.3184 311.156 63.2048 305.709 56.9423C300.262 50.6798 315.241 45.2342 315.241 45.2342L327.769 43.8728L331.31 49.3184Z" fill="#FF64AE"/>
<path d="M281.905 198.604C283.979 200.148 286.546 200.882 289.123 200.669C291.7 200.457 294.112 199.312 295.905 197.449C297.698 195.586 298.75 193.134 298.864 190.551C298.978 187.968 298.146 185.432 296.523 183.419C294.901 181.405 292.599 180.053 290.051 179.615C287.502 179.176 284.881 179.682 282.679 181.038C280.477 182.393 278.845 184.505 278.089 186.977C277.333 189.45 277.504 192.113 278.572 194.468L250.776 217.606L247.075 213.214L245.412 214.326L243.562 212.13L245.082 210.85L243.232 208.654L240.866 210.646L242.005 211.997L239.471 214.132L238.332 212.781L234.616 215.912L236.324 217.939L237.675 216.8L239.526 218.996L237.836 220.419L241.253 224.473L237.198 227.888L241.326 232.786L281.905 198.604ZM288.845 183.083C290.23 183.201 291.549 183.727 292.636 184.595C293.722 185.463 294.526 186.633 294.947 187.958C295.367 189.283 295.386 190.702 294.999 192.038C294.613 193.373 293.839 194.564 292.776 195.459C291.713 196.355 290.408 196.915 289.026 197.069C287.644 197.223 286.248 196.965 285.014 196.325C283.779 195.686 282.762 194.695 282.091 193.478C281.419 192.26 281.124 190.872 281.243 189.487C281.401 187.629 282.292 185.911 283.717 184.71C285.143 183.509 286.988 182.924 288.845 183.083V183.083Z" fill="#FFD967"/>
<path d="M285.953 103.675C285.953 103.675 287.86 128.725 287.315 129.814C286.77 130.903 287.315 168.751 287.315 168.751C287.315 168.751 283.502 189.172 288.404 190.261C293.307 191.35 292.217 167.389 292.217 167.389L297.119 135.805L296.575 104.492L285.953 103.675Z" fill="#FFB9B9"/>
<path d="M290.038 87.8828L287.859 88.6997C287.859 88.6997 283.774 105.853 284.864 105.853C285.953 105.853 299.026 107.487 299.026 106.943C299.026 106.398 296.575 93.0562 296.575 93.0562L290.038 87.8828Z" fill="#2945FF"/>
</g>
<defs>
<clipPath id="clip0">
<rect width="439" height="345" fill="white"/>
</clipPath>
</defs>
</svg>
