<svg width="581" height="580" viewBox="0 0 581 580" fill="none" xmlns="http://www.w3.org/2000/svg">
<g opacity="0.3">
<path d="M21.5894 538.736C22.3461 539.414 23.1237 540.067 23.9084 540.711C26.8029 543.089 29.8247 545.226 32.9531 547.107C49.3891 557.152 69.6362 562.054 89.365 565.385C133.608 572.872 178.782 574.323 223.767 575.748C345.3 579.62 467.154 583.475 588.379 574.563C636.271 571.043 685.236 565.119 728.645 547.09C734.861 544.508 740.961 541.664 746.944 538.556C759.037 532.246 770.653 524.579 780.314 515.444C789.422 506.859 796.75 496.985 801.15 485.773C810.327 462.403 805.472 436.158 794.998 413.26C790.62 403.969 785.703 395.074 780.286 386.646C772.215 373.75 763.31 361.259 755.169 348.38C726.221 302.517 707.333 244.591 734.053 197.612C741.76 184.116 752.836 172.268 759.093 158.179C767.087 140.15 766.463 120.137 763.92 100.657C763.598 98.2016 763.219 95.7634 762.876 93.3251C758.511 64.5039 750.384 33.4419 725.226 15.4468C699.094 -3.25218 661.997 -2.30779 629.553 4.38025C579.11 14.7858 532.576 36.5154 485.587 56.1417C438.598 75.7679 389.381 93.6943 337.705 95.6346C292.082 97.3517 238.858 84.5851 208.578 51.454C179.153 19.2759 123.876 16.8291 84.0125 36.2665C56.6892 49.6082 36.2669 73.6388 27.6566 100.657C25.9163 106.067 24.6595 111.691 23.9084 117.433C23.2097 122.661 22.9748 127.966 23.2078 133.256C23.3268 135.831 23.5581 138.45 23.9084 140.983C30.564 194.324 78.4918 236.392 107.623 284.041C121.859 307.316 131.912 335.271 122.125 360.366C107.195 398.605 55.274 412.196 23.9084 440.665C18.0486 445.788 12.8525 451.965 8.4953 458.986C-6.67261 484.33 -1.06085 518.535 21.5894 538.736Z" fill="#CFF3FF"/>
<path d="M763.579 508.478C729.123 503.437 695.987 499.092 664.17 495.442L676.751 475.106C672.51 473.854 653.874 485.447 653.874 485.447L670.389 426.325C649.057 428.378 638.203 488.773 638.203 488.773L614.373 468.227L625.908 491.255C528.529 481.215 444.429 477.271 373.691 476.816L384.459 459.411C380.218 458.159 361.582 469.752 361.582 469.752L378.097 410.63C356.765 412.683 345.911 473.078 345.911 473.078L322.081 452.532L334.298 476.923C274.995 477.641 226.634 480.803 189.307 484.489C200.2 457.348 237.194 431.657 237.194 431.657C208.943 438.553 194.123 450.258 186.379 461.198C185.787 427.622 189.769 365.392 219.357 296.614C219.357 296.614 160.951 402.601 168.391 473.959L169.281 486.629C119.778 492.327 94.8892 498.379 94.8892 498.379L763.579 508.478Z" fill="#3F3D56"/>
<path d="M450.455 47.1855V475.472C450.45 480.574 448.417 485.465 444.804 489.071C441.191 492.677 436.293 494.704 431.186 494.706H257.116C254.585 494.71 252.079 494.216 249.74 493.251C247.401 492.286 245.275 490.869 243.485 489.083C241.695 487.296 240.276 485.174 239.308 482.838C238.341 480.503 237.844 477.999 237.847 475.472V47.1855C237.846 44.6579 238.345 42.1549 239.313 39.8197C240.281 37.4844 241.701 35.3625 243.49 33.5752C245.279 31.7879 247.404 30.3702 249.742 29.403C252.079 28.4359 254.585 27.9382 257.116 27.9384H283.165V31.2751C283.165 35.478 284.835 39.5091 287.81 42.4816C290.785 45.4542 294.82 47.1248 299.027 47.126H387.561C390.948 47.1332 394.246 46.0488 396.967 44.0338C397.517 43.6342 398.039 43.1971 398.528 42.7255C400.078 41.2475 401.311 39.4704 402.152 37.5021C402.994 35.5338 403.426 33.4153 403.423 31.2751V27.9384H431.186C433.716 27.9376 436.222 28.4349 438.56 29.4019C440.899 30.3689 443.023 31.7866 444.813 33.574C446.602 35.3614 448.021 37.4835 448.989 39.819C449.958 42.1545 450.455 44.6577 450.455 47.1855Z" fill="#3F3D56"/>
<path d="M450.455 47.1855V475.472C450.45 480.574 448.417 485.465 444.804 489.071C441.191 492.677 436.293 494.704 431.186 494.706H257.116C254.585 494.71 252.079 494.216 249.74 493.251C247.401 492.286 245.275 490.869 243.485 489.083C241.695 487.296 240.276 485.174 239.308 482.838C238.341 480.503 237.844 477.999 237.847 475.472V47.1855C237.846 44.6579 238.345 42.1549 239.313 39.8197C240.281 37.4844 241.701 35.3625 243.49 33.5752C245.279 31.7879 247.404 30.3702 249.742 29.403C252.079 28.4359 254.585 27.9382 257.116 27.9384H283.165V31.2751C283.165 35.478 284.835 39.5091 287.81 42.4816C290.785 45.4542 294.82 47.1248 299.027 47.126H387.561C390.948 47.1332 394.246 46.0488 396.967 44.0338C397.517 43.6342 398.039 43.1971 398.528 42.7255C400.078 41.2475 401.311 39.4704 402.152 37.5021C402.994 35.5338 403.426 33.4153 403.423 31.2751V27.9384H431.186C433.716 27.9376 436.222 28.4349 438.56 29.4019C440.899 30.3689 443.023 31.7866 444.813 33.574C446.602 35.3614 448.021 37.4835 448.989 39.819C449.958 42.1545 450.455 44.6577 450.455 47.1855Z" fill="#514E7F"/>
<path d="M286.34 103.922C288.898 103.922 290.971 101.852 290.971 99.2973C290.971 96.743 288.898 94.6722 286.34 94.6722C283.783 94.6722 281.71 96.743 281.71 99.2973C281.71 101.852 283.783 103.922 286.34 103.922Z" fill="#F2F2F2"/>
<path d="M398.528 42.7255C398.038 43.1971 397.517 43.6342 396.967 44.0338C402.638 54.0021 410.321 62.6846 419.528 69.5307C428.736 76.3767 439.267 81.237 450.454 83.8032V81.7417C439.569 79.1768 429.335 74.3854 420.397 67.6699C411.46 60.9545 404.013 52.4609 398.528 42.7255Z" fill="#56D7FF"/>
<path d="M358.965 47.126H356.795C364.497 66.6744 377.201 83.8613 393.637 96.9691C410.072 110.077 429.664 118.647 450.455 121.822V119.773C430.206 116.632 411.123 108.283 395.083 95.546C379.042 82.8089 366.595 66.1223 358.965 47.126Z" fill="#56D7FF"/>
<path d="M318.998 47.126H316.907C334.39 107.741 387.144 152.863 450.454 160.19V158.175C388.242 150.881 336.395 106.618 318.998 47.126Z" fill="#56D7FF"/>
<path d="M271.126 133.538H269.921V132.334H269.686V133.538H268.48V133.773H269.686V134.977H269.921V133.773H271.126V133.538Z" fill="#F2F2F2"/>
<path d="M352.489 73.4112H351.284V72.2074H351.049V73.4112H349.843V73.6464H351.049V74.8503H351.284V73.6464H352.489V73.4112Z" fill="#F2F2F2"/>
<path d="M283.032 181.11H281.827V179.907H281.592V181.11H280.386V181.346H281.592V182.549H281.827V181.346H283.032V181.11Z" fill="#F2F2F2"/>
<path d="M338.598 146.092H337.392V144.888H337.158V146.092H335.952V146.327H337.158V147.531H337.392V146.327H338.598V146.092Z" fill="#F2F2F2"/>
<path d="M417.976 167.896H416.771V166.692H416.536V167.896H415.33V168.131H416.536V169.335H416.771V168.131H417.976V167.896Z" fill="#F2F2F2"/>
<path d="M404.085 113.173C405.546 113.173 406.731 111.989 406.731 110.53C406.731 109.07 405.546 107.887 404.085 107.887C402.624 107.887 401.439 109.07 401.439 110.53C401.439 111.989 402.624 113.173 404.085 113.173Z" fill="#FF6584"/>
<path d="M309.294 172.506L307.792 172.738C308.262 175.737 308.633 178.803 308.904 181.836L310.419 181.704C310.147 178.631 309.77 175.539 309.294 172.506Z" fill="#E6E6E6"/>
<path d="M305.186 154.442L303.73 154.885C304.61 157.792 305.397 160.772 306.066 163.738L307.554 163.402C306.873 160.402 306.072 157.389 305.186 154.442Z" fill="#E6E6E6"/>
<path d="M298.631 137.118L297.248 137.752C298.518 140.52 299.709 143.362 300.787 146.203L302.209 145.667C301.118 142.793 299.92 139.912 298.631 137.118Z" fill="#E6E6E6"/>
<path d="M289.768 120.877L288.484 121.69C290.118 124.253 291.686 126.909 293.141 129.572L294.477 128.845C293.009 126.15 291.421 123.467 289.768 120.877Z" fill="#E6E6E6"/>
<path d="M278.746 105.991L277.589 106.975C279.56 109.288 281.478 111.706 283.291 114.151L284.508 113.245C282.682 110.774 280.744 108.33 278.746 105.991Z" fill="#E6E6E6"/>
<path d="M265.795 92.7363L264.783 93.8662C267.058 95.8946 269.287 98.0288 271.411 100.203L272.502 99.1388C270.352 96.9385 268.097 94.7845 265.795 92.7363Z" fill="#E6E6E6"/>
<path d="M251.163 81.3585L250.31 82.6139C252.836 84.3119 255.337 86.1223 257.738 87.9922L258.677 86.7963C256.243 84.9066 253.716 83.0764 251.163 81.3585Z" fill="#E6E6E6"/>
<path d="M237.847 73.4562V75.1741C239.428 76 240.995 76.8655 242.53 77.7509L243.291 76.4361C241.505 75.4053 239.69 74.412 237.847 73.4562Z" fill="#E6E6E6"/>
<path d="M308.95 315.226C309.197 313.749 309.423 312.24 309.621 310.743L311.129 310.943C310.928 312.457 310.7 313.982 310.451 315.476L308.95 315.226Z" fill="#E6E6E6"/>
<path d="M304.71 333.052L306.164 333.505C307.076 330.568 307.901 327.561 308.616 324.564L307.135 324.214C306.427 327.178 305.616 330.149 304.71 333.052Z" fill="#E6E6E6"/>
<path d="M298.068 350.12L299.448 350.766C300.76 347.986 301.988 345.121 303.102 342.253L301.683 341.7C300.582 344.537 299.367 347.371 298.068 350.12Z" fill="#E6E6E6"/>
<path d="M289.131 366.132L290.406 366.959C292.089 364.383 293.703 361.711 295.205 359.024L293.879 358.281C292.396 360.939 290.795 363.579 289.131 366.132Z" fill="#E6E6E6"/>
<path d="M278.073 380.76L279.226 381.757C281.25 379.426 283.212 377.001 285.071 374.549L283.853 373.639C282.02 376.063 280.077 378.458 278.073 380.76Z" fill="#E6E6E6"/>
<path d="M265.125 393.74L266.127 394.882C268.453 392.855 270.727 390.717 272.901 388.544L271.825 387.468C269.676 389.619 267.421 391.727 265.125 393.74Z" fill="#E6E6E6"/>
<path d="M250.537 404.834L251.377 406.105C253.946 404.411 256.496 402.605 258.943 400.745L258.024 399.532C255.6 401.377 253.081 403.162 250.537 404.834Z" fill="#E6E6E6"/>
<path d="M243.463 410.931C241.624 411.969 239.745 412.973 237.847 413.924V412.22C239.487 411.387 241.114 410.509 242.709 409.617L243.463 410.931Z" fill="#E6E6E6"/>
<path d="M309.396 191.209L310.916 191.181C310.944 192.715 310.946 194.257 310.923 195.764L309.402 195.74C309.425 194.25 309.423 192.725 309.396 191.209Z" fill="#E6E6E6"/>
<path d="M244.528 227.236H400.116C411.695 227.236 422.8 231.83 430.987 240.009C439.175 248.187 443.774 259.279 443.774 270.844V276.617H288.186C276.607 276.617 265.503 272.022 257.315 263.844C249.128 255.666 244.528 244.574 244.528 233.008V227.236Z" fill="white"/>
<path d="M347.786 494.099C347.634 493.851 344.055 487.881 342.814 475.485C341.676 464.111 342.408 444.941 352.361 418.2C371.217 367.541 348.015 326.667 347.778 326.26L348.923 325.597C348.983 325.7 354.97 336.121 358.507 352.716C363.18 374.716 361.478 397.592 353.601 418.661C334.777 469.233 348.772 493.174 348.915 493.41L347.786 494.099Z" fill="#F2F2F2"/>
<path d="M340.413 323.285C345.162 323.285 349.012 319.44 349.012 314.696C349.012 309.952 345.162 306.106 340.413 306.106C335.664 306.106 331.813 309.952 331.813 314.696C331.813 319.44 335.664 323.285 340.413 323.285Z" fill="#90EB71"/>
<path d="M367.533 355C372.283 355 376.133 351.155 376.133 346.411C376.133 341.667 372.283 337.821 367.533 337.821C362.784 337.821 358.934 341.667 358.934 346.411C358.934 351.155 362.784 355 367.533 355Z" fill="#F2F2F2"/>
<path d="M349.011 376.144C353.76 376.144 357.61 372.298 357.61 367.554C357.61 362.81 353.76 358.965 349.011 358.965C344.262 358.965 340.412 362.81 340.412 367.554C340.412 372.298 344.262 376.144 349.011 376.144Z" fill="#90EB71"/>
<path d="M371.503 393.984C376.252 393.984 380.102 390.138 380.102 385.394C380.102 380.65 376.252 376.805 371.503 376.805C366.753 376.805 362.903 380.65 362.903 385.394C362.903 390.138 366.753 393.984 371.503 393.984Z" fill="#90EB71"/>
<path d="M342.397 421.734C347.146 421.734 350.996 417.889 350.996 413.145C350.996 408.401 347.146 404.555 342.397 404.555C337.648 404.555 333.798 408.401 333.798 413.145C333.798 417.889 337.648 421.734 342.397 421.734Z" fill="#F2F2F2"/>
<path d="M352.98 494.415C352.98 494.415 344.381 473.271 370.179 457.414L352.98 494.415Z" fill="#F2F2F2"/>
<path d="M342.405 494.031C342.405 494.031 338.491 471.547 308.2 471.74L342.405 494.031Z" fill="#F2F2F2"/>
<path opacity="0.2" d="M308.169 304.785C337.395 304.785 361.088 281.119 361.088 251.926C361.088 222.733 337.395 199.068 308.169 199.068C278.943 199.068 255.25 222.733 255.25 251.926C255.25 281.119 278.943 304.785 308.169 304.785Z" fill="#2945FF"/>
<path opacity="0.2" d="M308.17 289.151C328.751 289.151 345.436 272.485 345.436 251.926C345.436 231.368 328.751 214.702 308.17 214.702C287.588 214.702 270.903 231.368 270.903 251.926C270.903 272.485 287.588 289.151 308.17 289.151Z" fill="#2945FF"/>
<path d="M308.169 276.494C321.753 276.494 332.765 265.495 332.765 251.926C332.765 238.358 321.753 227.358 308.169 227.358C294.585 227.358 283.573 238.358 283.573 251.926C283.573 265.495 294.585 276.494 308.169 276.494Z" fill="#2945FF"/>
<path d="M312.642 246.627C312.642 245.873 312.451 245.132 312.087 244.471C311.723 243.811 311.198 243.253 310.56 242.851C309.922 242.448 309.192 242.213 308.439 242.167C307.686 242.122 306.933 242.268 306.251 242.591C305.57 242.914 304.981 243.405 304.54 244.017C304.099 244.629 303.821 245.342 303.73 246.09C303.64 246.839 303.74 247.598 304.022 248.297C304.305 248.996 304.76 249.613 305.345 250.089L303.698 261.605H312.642L310.995 250.089C311.51 249.671 311.925 249.143 312.21 248.544C312.495 247.945 312.642 247.29 312.642 246.627Z" fill="white"/>
<path d="M544.19 63.1554C544.19 63.1554 529.437 49.9441 509.598 74.8422C489.758 99.7403 458.727 111.935 451.605 121.59C451.605 121.59 481.11 109.395 491.284 104.313C501.459 99.2322 500.95 100.248 500.95 100.248C500.95 100.248 487.215 109.903 484.671 119.557C482.128 129.212 484.163 137.342 479.584 146.996C475.006 156.65 567.081 153.602 567.081 153.602C567.081 153.602 576.238 137.85 573.695 121.59C571.151 105.33 572.677 65.1879 544.19 63.1554Z" fill="#FF64AE"/>
<path d="M527.45 104.717C527.45 104.717 530.658 127.146 516.91 132.182C503.162 137.217 508.203 144.083 508.203 144.083L528.825 154.154L550.822 147.287L558.155 136.301C558.155 136.301 546.24 133.555 549.448 125.315C552.655 117.076 552.59 110.636 552.59 110.636L527.45 104.717Z" fill="#FFB9B9"/>
<path opacity="0.1" d="M527.45 104.717C527.45 104.717 530.658 127.146 516.91 132.182C503.162 137.217 508.203 144.083 508.203 144.083L528.825 154.154L550.822 147.287L558.155 136.301C558.155 136.301 546.24 133.555 549.448 125.315C552.655 117.076 553.148 110.077 553.148 110.077L527.45 104.717Z" fill="black"/>
<path d="M585.193 168.802C585.193 168.802 581.985 210.914 582.901 212.745C583.818 214.576 582.901 278.204 582.901 278.204C582.901 278.204 589.317 312.535 581.068 314.366C572.82 316.197 574.653 275.915 574.653 275.915L566.404 222.816L567.32 170.175L585.193 168.802Z" fill="#FFB9B9"/>
<path opacity="0.1" d="M585.193 168.802C585.193 168.802 581.985 210.914 582.901 212.745C583.818 214.576 582.901 278.204 582.901 278.204C582.901 278.204 589.317 312.535 581.068 314.366C572.82 316.197 574.653 275.915 574.653 275.915L566.404 222.816L567.32 170.175L585.193 168.802Z" fill="black"/>
<path d="M495.83 295.598C495.83 295.598 480.707 352.817 481.165 380.739C481.623 408.662 487.581 447.571 487.581 447.571C487.581 447.571 488.497 464.507 487.123 466.338C485.748 468.169 493.997 475.951 493.997 475.951L502.704 470.916L505.912 467.254V464.05C505.912 464.05 500.871 448.486 504.995 436.127C509.119 423.768 511.411 392.641 507.286 383.028L535.699 298.802L495.83 295.598Z" fill="#FFB9B9"/>
<path d="M494.913 468.627C494.913 468.627 489.414 461.761 485.748 464.05C482.082 466.338 476.124 481.902 476.124 481.902C476.124 481.902 455.502 501.585 470.167 502.501C484.831 503.416 491.247 498.381 493.08 494.719C494.913 491.057 511.869 481.444 511.869 481.444C511.869 481.444 510.036 464.05 507.287 463.592C504.537 463.134 500.413 470.458 500.413 470.458L494.913 468.627Z" fill="#35334D"/>
<path d="M545.781 299.26V356.021C545.834 362.908 546.293 369.786 547.156 376.62C548.531 386.69 539.365 461.761 539.365 461.761L540.282 475.036L551.739 474.12L553.113 462.676L569.611 412.324C569.611 412.324 575.11 381.655 572.361 370.211C569.611 358.767 586.567 285.528 586.567 285.528L545.781 299.26Z" fill="#FFB9B9"/>
<path d="M536.616 471.831L540.01 471.094C540.01 471.094 542.574 465.423 545.782 466.796C548.039 467.836 550.178 469.116 552.16 470.614L553.572 473.205C553.572 473.205 556.78 480.071 560.905 484.648C565.029 489.226 569.612 499.296 562.738 500.212C555.864 501.127 546.698 501.585 543.949 499.296C541.199 497.008 543.032 493.346 540.283 492.43C537.533 491.515 535.242 488.768 535.7 487.853C536.158 486.937 536.616 471.831 536.616 471.831Z" fill="#35334D"/>
<path d="M536.851 120.483C548.099 120.483 557.218 111.375 557.218 100.139C557.218 88.9035 548.099 79.7952 536.851 79.7952C525.602 79.7952 516.483 88.9035 516.483 100.139C516.483 111.375 525.602 120.483 536.851 120.483Z" fill="#FFB9B9"/>
<path d="M507.287 135.844L513.34 133.733C513.34 133.733 510.953 137.675 523.784 139.963C536.616 142.252 549.905 143.062 555.863 135.562C555.863 135.562 558.155 134.47 561.363 137.675C564.571 140.879 566.404 139.963 566.404 139.963L564.112 151.865L559.53 173.837L553.572 190.316L536.616 186.654L518.285 173.379L511.411 155.527V139.048L507.287 135.844Z" fill="#2945FF"/>
<path d="M563.196 142.252L567.778 139.048C567.778 139.048 583.36 141.794 584.276 149.118L572.361 172.006C574.791 178.374 574.627 185.44 571.903 191.689C567.32 202.217 567.778 204.506 567.778 204.506L564.57 218.238L506.37 222.816C506.37 222.816 504.079 217.323 503.162 216.407C502.246 215.492 502.246 212.288 503.162 212.288C504.079 212.288 503.162 210.914 502.246 209.541C501.329 208.168 500.871 207.71 502.246 205.879C503.62 204.048 499.954 187.569 499.954 187.569V169.717L484.373 149.118C484.373 149.118 489.872 140.879 492.622 139.963C495.372 139.048 508.451 135.437 508.451 135.437L511.411 139.79L515.535 172.921L521.493 193.062L546.577 188.805L556.322 172.464L562.737 153.238L563.196 142.252Z" fill="#2945FF"/>
<path d="M580.61 146.372L584.276 149.118C584.276 149.118 587.484 174.752 586.567 176.583C585.651 178.414 569.611 180.245 569.153 179.33C568.695 178.414 580.61 146.372 580.61 146.372Z" fill="#2945FF"/>
<path d="M504.995 133.555L509.578 163.766C509.578 163.766 505.453 208.626 506.37 217.781L507.286 220.527C507.286 220.527 505.453 219.612 504.995 221.443C504.537 223.274 504.995 229.224 504.995 229.224C504.995 229.224 502.245 231.971 501.329 247.077C500.412 262.182 489.414 298.344 493.538 299.718C497.663 301.091 522.409 307.957 535.699 306.584C548.989 305.211 596.649 289.19 596.191 285.07C595.733 280.95 572.819 222.816 572.819 222.816C572.819 222.816 568.695 215.95 568.695 215.034C568.695 214.119 574.194 210.457 572.819 206.795C571.444 203.133 564.112 164.682 564.112 164.682L569.153 137.217L562.279 135.386L557.238 161.935C557.238 161.935 537.532 171.548 516.91 162.851L512.327 131.724L504.995 133.555Z" fill="#3F3D56"/>
<path d="M557.486 82.9122C557.486 82.9122 523.574 106.257 514.408 95.7292C505.243 85.2009 530.448 76.046 530.448 76.046L551.528 73.7572L557.486 82.9122Z" fill="#FF64AE"/>
<path d="M474.354 333.885C477.844 336.48 482.163 337.715 486.499 337.357C490.836 337 494.893 335.075 497.911 331.943C500.928 328.812 502.699 324.688 502.89 320.346C503.082 316.004 501.681 311.741 498.951 308.356C496.221 304.972 492.349 302.698 488.061 301.961C483.772 301.224 479.362 302.074 475.657 304.353C471.951 306.632 469.205 310.182 467.932 314.339C466.66 318.495 466.949 322.972 468.745 326.931L421.974 365.83L415.746 358.447L412.948 360.316L409.835 356.625L412.393 354.472L409.279 350.78L405.299 354.13L407.216 356.402L402.951 359.99L401.035 357.719L394.781 362.982L397.656 366.39L399.93 364.476L403.043 368.167L400.201 370.559L405.949 377.374L399.127 383.116L406.073 391.351L474.354 333.885ZM486.032 307.791C488.363 307.99 490.582 308.875 492.41 310.334C494.237 311.793 495.591 313.76 496.299 315.987C497.007 318.214 497.037 320.601 496.387 322.846C495.737 325.091 494.435 327.093 492.646 328.598C490.857 330.104 488.661 331.046 486.336 331.305C484.011 331.564 481.662 331.129 479.584 330.054C477.507 328.979 475.796 327.313 474.666 325.267C473.537 323.22 473.04 320.885 473.239 318.557C473.507 315.435 475.004 312.547 477.403 310.528C479.802 308.509 482.906 307.524 486.032 307.791V307.791Z" fill="#FFD967"/>
<path d="M481.165 174.295C481.165 174.295 484.373 216.407 483.457 218.238C482.54 220.069 483.457 283.697 483.457 283.697C483.457 283.697 477.041 318.028 485.29 319.859C493.539 321.69 491.706 281.408 491.706 281.408L499.954 228.309L499.038 175.668L481.165 174.295Z" fill="#FFB9B9"/>
<path d="M488.039 147.745L484.373 149.118C484.373 149.118 477.499 177.957 479.332 177.957C481.165 177.957 503.162 180.703 503.162 179.788C503.162 178.872 499.038 156.442 499.038 156.442L488.039 147.745Z" fill="#2945FF"/>
</g>
</svg>
