<svg width="30" height="19" viewBox="0 0 30 19" fill="none" xmlns="http://www.w3.org/2000/svg">
<g clip-path="url(#clip0)">
<path d="M15 1.05859C9.26818 1.05859 4.07027 4.19453 0.234735 9.28811C-0.0782449 9.70542 -0.0782449 10.2884 0.234735 10.7057C4.07027 15.8054 9.26818 18.9414 15 18.9414C20.7318 18.9414 25.9297 15.8054 29.7653 10.7119C30.0782 10.2946 30.0782 9.71156 29.7653 9.29425C25.9297 4.19453 20.7318 1.05859 15 1.05859ZM15.4112 16.2964C11.6063 16.5357 8.46425 13.3998 8.70359 9.58882C8.89997 6.44675 11.4468 3.89996 14.5888 3.70358C18.3937 3.46424 21.5357 6.60017 21.2964 10.4112C21.0939 13.5471 18.5471 16.0939 15.4112 16.2964ZM15.2209 13.3875C13.1712 13.5164 11.4774 11.8288 11.6125 9.77906C11.7168 8.08529 13.0914 6.71677 14.7852 6.60631C16.8349 6.47743 18.5287 8.16507 18.3937 10.2148C18.2832 11.9147 16.9086 13.2832 15.2209 13.3875Z" fill="#9698B4"/>
</g>
<defs>
<clipPath id="clip0">
<rect width="30" height="19" fill="white"/>
</clipPath>
</defs>
</svg>
