<svg width="178" height="32" viewBox="0 0 178 32" fill="none" xmlns="http://www.w3.org/2000/svg">
<g clip-path="url(#clip0)">
<path d="M45.7999 27.22H35.27V4.61H31.45V31H45.7999C46.3065 31 46.7923 30.7988 47.1505 30.4406C47.5087 30.0824 47.7099 29.5966 47.7099 29.09C47.7099 28.5834 47.5087 28.0976 47.1505 27.7394C46.7923 27.3812 46.3065 27.18 45.7999 27.18V27.22Z" fill="#030094" stroke="#030094" stroke-width="1.5" stroke-miterlimit="10"/>
<path d="M66.93 27.22H56.5499V19.74H66.61C67.1218 19.74 67.6127 19.5367 67.9747 19.1747C68.3366 18.8128 68.54 18.3219 68.54 17.81C68.54 17.2981 68.3366 16.8072 67.9747 16.4453C67.6127 16.0833 67.1218 15.88 66.61 15.88H56.5499V8.43H66.8899C67.3965 8.43 67.8823 8.22877 68.2405 7.87058C68.5987 7.51238 68.8 7.02657 68.8 6.52C68.8 6.01344 68.5987 5.52762 68.2405 5.16943C67.8823 4.81123 67.3965 4.61 66.8899 4.61H52.7V31H66.93C67.4365 31 67.9223 30.7988 68.2805 30.4406C68.6387 30.0824 68.8399 29.5966 68.8399 29.09C68.8399 28.5834 68.6387 28.0976 68.2805 27.7394C67.9223 27.3812 67.4365 27.18 66.93 27.18V27.22Z" fill="#030094" stroke="#030094" stroke-width="1.5" stroke-miterlimit="10"/>
<path d="M96.47 21.13C96.1276 21.1307 95.7926 21.2301 95.5053 21.4163C95.218 21.6025 94.9904 21.8677 94.85 22.18C94.2245 23.5253 93.2795 24.6973 92.0975 25.5938C90.9154 26.4903 89.532 27.0843 88.0679 27.3238C86.6038 27.5634 85.1033 27.4414 83.6971 26.9684C82.2909 26.4954 81.0217 25.6858 80 24.61C78.2539 22.7907 77.279 20.3667 77.279 17.845C77.279 15.3233 78.2539 12.8993 80 11.08C80.8346 10.191 81.8411 9.48083 82.9584 8.99263C84.0758 8.50443 85.2807 8.24837 86.5 8.24C88.1894 8.17291 89.8611 8.60587 91.3055 9.48462C92.7499 10.3634 93.9029 11.6489 94.62 13.18C94.7712 13.4822 95.0041 13.7361 95.2922 13.9128C95.5802 14.0896 95.912 14.1821 96.25 14.18C96.5602 14.1781 96.8649 14.0975 97.1353 13.9455C97.4058 13.7936 97.6332 13.5754 97.7962 13.3114C97.9591 13.0475 98.0523 12.7464 98.067 12.4366C98.0817 12.1267 98.0173 11.8182 97.88 11.54C96.8774 9.37872 95.2654 7.55733 93.242 6.29956C91.2186 5.04179 88.8718 4.40243 86.49 4.46C84.7795 4.46938 83.0882 4.82205 81.5165 5.49712C79.9448 6.17219 78.5245 7.15592 77.34 8.39C74.9122 10.9392 73.5581 14.3247 73.5581 17.845C73.5581 21.3653 74.9122 24.7508 77.34 27.3C78.7825 28.8116 80.576 29.9436 82.5612 30.5955C84.5463 31.2474 86.6617 31.399 88.7196 31.0369C90.7774 30.6748 92.714 29.8102 94.3574 28.5198C96.0008 27.2294 97.3001 25.5532 98.14 23.64C98.2581 23.365 98.3057 23.0648 98.2786 22.7667C98.2514 22.4687 98.1504 22.182 97.9846 21.9328C97.8188 21.6837 97.5935 21.4797 97.329 21.3396C97.0646 21.1994 96.7693 21.1273 96.47 21.13Z" fill="#030094" stroke="#030094" stroke-width="1.5" stroke-miterlimit="10"/>
<path d="M119.76 4.58H103.76C103.274 4.61509 102.818 4.83314 102.486 5.19029C102.154 5.54743 101.969 6.01717 101.969 6.505C101.969 6.99284 102.154 7.46257 102.486 7.81972C102.818 8.17686 103.274 8.39491 103.76 8.43H109.85V31.07H113.67V8.43H119.72C119.985 8.44907 120.25 8.41345 120.5 8.32535C120.75 8.23725 120.98 8.09857 121.174 7.91795C121.368 7.73733 121.523 7.51865 121.629 7.27555C121.734 7.03245 121.789 6.77015 121.789 6.505C121.789 6.23985 121.734 5.97755 121.629 5.73445C121.523 5.49135 121.368 5.27267 121.174 5.09205C120.98 4.91143 120.75 4.77275 120.5 4.68465C120.25 4.59655 119.985 4.56093 119.72 4.58H119.76Z" fill="#030094" stroke="#030094" stroke-width="1.5" stroke-miterlimit="10"/>
<path d="M138.26 27.22H135.26V8.39H138.26C138.761 8.39 139.242 8.19088 139.596 7.83643C139.951 7.48199 140.15 7.00126 140.15 6.5C140.15 5.99874 139.951 5.51801 139.596 5.16357C139.242 4.80913 138.761 4.61 138.26 4.61H128.39C127.889 4.61 127.408 4.80913 127.054 5.16357C126.699 5.51801 126.5 5.99874 126.5 6.5C126.5 7.00126 126.699 7.48199 127.054 7.83643C127.408 8.19088 127.889 8.39 128.39 8.39H131.39V27.22H128.39C127.883 27.22 127.398 27.4212 127.039 27.7794C126.681 28.1376 126.48 28.6234 126.48 29.13C126.48 29.6366 126.681 30.1224 127.039 30.4806C127.398 30.8388 127.883 31.04 128.39 31.04H138.22C138.727 31.04 139.212 30.8388 139.571 30.4806C139.929 30.1224 140.13 29.6366 140.13 29.13C140.13 28.6234 139.929 28.1376 139.571 27.7794C139.212 27.4212 138.727 27.22 138.22 27.22H138.26Z" fill="#030094" stroke="#030094" stroke-width="1.5" stroke-miterlimit="10"/>
<path d="M24.4401 12.94H2.30005V16.44H24.4401V12.94Z" fill="white"/>
<path d="M19 17.4L22.84 12.94H19.34L19.35 12.95L15.52 17.4H19Z" fill="black"/>
<path d="M13.6502 17.4L17.4902 12.94H14.0002L14.0102 12.95L10.1802 17.4H13.6502Z" fill="black"/>
<path d="M8.35012 17.4L12.1901 12.94H8.69012L8.70012 12.95L4.87012 17.4H8.35012Z" fill="black"/>
<path d="M3.05005 17.4L6.89005 12.94H2.30005V17.4H3.05005Z" fill="black"/>
<path d="M24.44 17.4V13.39L20.98 17.4H24.44Z" fill="black"/>
<path d="M21 20.51C22.88 20.51 24.4 20.23 24.4 18.35V17.61H2.30005V31.81H21.8701C22.5517 31.81 23.2053 31.5392 23.6873 31.0573C24.1693 30.5753 24.4401 29.9216 24.4401 29.24V29.06C24.4401 28.3784 24.1693 27.7247 23.6873 27.2427C23.2053 26.7608 22.5517 26.49 21.8701 26.49H7.65005V20.49L21 20.51Z" fill="#030094"/>
<path d="M22.7059 3.67396L1.36597 9.572L2.29836 12.9455L23.6383 7.04748L22.7059 3.67396Z" fill="white"/>
<path d="M17.2001 4.2L22.0901 7.47L18.7201 8.4L18.7301 8.39L13.8501 5.12L17.2001 4.2Z" fill="black"/>
<path d="M12.05 5.62L16.94 8.89L13.57 9.83L13.58 9.81L8.69995 6.55L12.05 5.62Z" fill="black"/>
<path d="M6.93008 7.04L11.8201 10.31L8.45008 11.24L8.46008 11.23L3.58008 7.96L6.93008 7.04Z" fill="black"/>
<path d="M1.8301 8.45L6.7201 11.72L2.2901 12.94L1.1001 8.65L1.8301 8.45Z" fill="black"/>
<path d="M22.4601 2.74L23.5101 6.62L19.1101 3.67L22.4601 2.74Z" fill="black"/>
<path d="M0.276611 5.65498L19.5539 0.327029C20.1025 0.178135 20.6878 0.252593 21.1817 0.534113C21.6756 0.815633 22.0379 1.2813 22.1893 1.82924L22.3864 2.5425L1.0465 8.44054L0.276611 5.65498Z" fill="#030094"/>
<path d="M22.4933 2.51779L0.931641 8.4771L1.04619 8.89156L22.6078 2.93225L22.4933 2.51779Z" fill="white"/>
<path d="M24.57 17.4H2.29004V17.83H24.57V17.4Z" fill="white"/>
<path d="M175.94 28.49H166.16C166.41 28.27 166.67 28.04 166.91 27.8C168.855 25.8209 170.173 23.3123 170.7 20.5879C171.227 17.8635 170.938 15.0443 169.871 12.4829C168.804 9.92156 167.005 7.73171 164.7 6.18731C162.394 4.64291 159.685 3.81252 156.91 3.8C155.05 3.79582 153.207 4.16243 151.49 4.87842C149.773 5.5944 148.216 6.6454 146.91 7.97C144.277 10.6062 142.799 14.1794 142.799 17.905C142.799 21.6306 144.277 25.2038 146.91 27.84C148.212 29.1701 149.768 30.2247 151.486 30.941C153.204 31.6574 155.049 32.0209 156.91 32.01H157.32H175.95C176.189 32.0282 176.429 31.9968 176.655 31.9178C176.881 31.8388 177.089 31.714 177.265 31.5511C177.44 31.3882 177.581 31.1908 177.676 30.9712C177.772 30.7516 177.822 30.5146 177.822 30.275C177.822 30.0354 177.772 29.7984 177.676 29.5788C177.581 29.3592 177.44 29.1618 177.265 28.9989C177.089 28.836 176.881 28.7112 176.655 28.6322C176.429 28.5532 176.189 28.5219 175.95 28.54L175.94 28.49ZM162.9 11C163.232 10.8062 163.599 10.6798 163.98 10.6282C164.361 10.5765 164.749 10.6007 165.12 10.6991C165.492 10.7976 165.84 10.9685 166.146 11.2021C166.451 11.4356 166.708 11.7272 166.9 12.06C167.099 12.3906 167.23 12.7579 167.285 13.14C167.339 13.5222 167.316 13.9114 167.217 14.2846C167.118 14.6577 166.946 15.0072 166.709 15.3122C166.472 15.6172 166.177 15.8715 165.84 16.06C165.168 16.4461 164.371 16.5514 163.622 16.3529C162.873 16.1544 162.232 15.6682 161.84 15C161.642 14.669 161.512 14.3018 161.459 13.9199C161.405 13.5381 161.428 13.1493 161.527 12.7766C161.626 12.4038 161.798 12.0546 162.034 11.7495C162.27 11.4444 162.564 11.1895 162.9 11ZM161.83 20.7C162.233 20.0435 162.873 19.5673 163.618 19.37C164.363 19.1726 165.155 19.2693 165.83 19.64C166.165 19.8305 166.458 20.0858 166.693 20.3911C166.928 20.6963 167.1 21.0453 167.199 21.4177C167.298 21.79 167.321 22.1784 167.268 22.5599C167.215 22.9415 167.087 23.3087 166.89 23.64C166.498 24.3082 165.857 24.7944 165.108 24.9929C164.359 25.1914 163.562 25.0861 162.89 24.7C162.559 24.5095 162.269 24.2555 162.037 23.9526C161.804 23.6498 161.634 23.304 161.536 22.9351C161.437 22.5663 161.412 22.1816 161.463 21.8032C161.513 21.4248 161.638 21.0601 161.83 20.73V20.7ZM156.83 6.3C157.404 6.30592 157.964 6.48161 158.438 6.80494C158.913 7.12827 159.281 7.5848 159.497 8.11702C159.713 8.64925 159.766 9.23339 159.65 9.79588C159.535 10.3584 159.255 10.8741 158.847 11.2781C158.439 11.682 157.92 11.9562 157.357 12.0661C156.793 12.176 156.21 12.1166 155.68 11.8955C155.15 11.6744 154.697 11.3014 154.378 10.8236C154.06 10.3457 153.89 9.78426 153.89 9.21C153.903 8.43464 154.223 7.69612 154.78 7.15628C155.337 6.61643 156.085 6.3193 156.86 6.33L156.83 6.3ZM158.55 17.83C158.554 18.1734 158.456 18.5102 158.268 18.7976C158.079 19.0849 157.81 19.3097 157.494 19.4435C157.177 19.5772 156.828 19.6137 156.491 19.5484C156.154 19.4831 155.844 19.319 155.6 19.0768C155.357 18.8347 155.191 18.5255 155.124 18.1888C155.056 17.852 155.091 17.5028 155.223 17.1857C155.355 16.8686 155.578 16.5979 155.864 16.4081C156.15 16.2183 156.487 16.118 156.83 16.12C157.06 16.116 157.289 16.1582 157.502 16.244C157.716 16.3299 157.91 16.4578 158.073 16.62C158.236 16.7823 158.365 16.9756 158.452 17.1886C158.539 17.4016 158.583 17.6299 158.58 17.86L158.55 17.83ZM150.78 24.67C150.448 24.8638 150.081 24.9902 149.7 25.0418C149.319 25.0935 148.931 25.0693 148.56 24.9709C148.188 24.8724 147.84 24.7015 147.534 24.4679C147.229 24.2344 146.972 23.9428 146.78 23.61C146.581 23.2794 146.45 22.9121 146.395 22.53C146.341 22.1478 146.364 21.7586 146.463 21.3854C146.561 21.0123 146.734 20.6628 146.971 20.3578C147.208 20.0528 147.503 19.7985 147.84 19.61C148.512 19.2239 149.309 19.1186 150.058 19.3171C150.807 19.5156 151.448 20.0018 151.84 20.67C152.044 21.0003 152.179 21.3684 152.238 21.7522C152.296 22.136 152.277 22.5276 152.181 22.9037C152.085 23.2799 151.914 23.6328 151.678 23.9414C151.443 24.25 151.147 24.508 150.81 24.7L150.78 24.67ZM151.85 14.97C151.447 15.6265 150.807 16.1027 150.062 16.3C149.317 16.4974 148.525 16.4007 147.85 16.03C147.515 15.8395 147.222 15.5842 146.987 15.2789C146.752 14.9737 146.58 14.6247 146.481 14.2523C146.382 13.88 146.359 13.4916 146.412 13.1101C146.465 12.7285 146.593 12.3613 146.79 12.03C147.182 11.3618 147.823 10.8756 148.572 10.6771C149.321 10.4786 150.118 10.5839 150.79 10.97C151.131 11.1579 151.431 11.4127 151.672 11.7191C151.913 12.0255 152.089 12.3773 152.191 12.7535C152.293 13.1296 152.318 13.5224 152.264 13.9084C152.211 14.2944 152.08 14.6656 151.88 15L151.85 14.97ZM156.85 29.37C156.275 29.3661 155.715 29.192 155.239 28.8699C154.763 28.5477 154.393 28.0919 154.176 27.5598C153.959 27.0278 153.904 26.4433 154.018 25.8801C154.133 25.317 154.412 24.8003 154.819 24.3954C155.227 23.9904 155.746 23.7152 156.31 23.6045C156.874 23.4939 157.458 23.5527 157.988 23.7735C158.519 23.9943 158.972 24.3673 159.291 24.8454C159.61 25.3235 159.78 25.8853 159.78 26.46C159.781 26.8448 159.707 27.226 159.561 27.582C159.415 27.938 159.2 28.2618 158.929 28.5348C158.658 28.8078 158.335 29.0247 157.98 29.1731C157.626 29.3216 157.245 29.3987 156.86 29.4L156.85 29.37Z" fill="#030094"/>
</g>
<defs>
<clipPath id="clip0">
<rect width="178" height="32" fill="white"/>
</clipPath>
</defs>
</svg>
