<svg width="796" height="503" viewBox="0 0 796 503" fill="none" xmlns="http://www.w3.org/2000/svg">
<g clip-path="url(#clip0)">
<path d="M22.9296 467.216C23.7334 467.804 24.5595 468.37 25.3931 468.929C28.4679 470.991 31.6778 472.844 35.001 474.476C52.4606 483.187 73.9686 487.439 94.9261 490.328C141.924 496.82 189.912 498.078 237.698 499.314C366.799 502.672 496.243 506.016 625.016 498.287C675.892 495.234 727.906 490.097 774.018 474.461C780.622 472.222 787.101 469.755 793.457 467.06C806.302 461.587 818.642 454.938 828.905 447.016C838.58 439.57 846.364 431.008 851.038 421.284C860.787 401.017 855.63 378.255 844.504 358.398C839.853 350.339 834.63 342.626 828.875 335.316C820.301 324.133 810.842 313.299 802.194 302.131C771.443 262.356 751.379 212.12 779.763 171.377C787.95 159.673 799.716 149.398 806.362 137.179C814.854 121.543 814.191 104.187 811.49 87.2932C811.147 85.1637 810.745 83.0491 810.381 80.9346C805.744 55.9394 797.111 29.001 770.386 13.3949C742.626 -2.82182 703.22 -2.0028 668.755 3.79738C615.17 12.8215 565.739 31.6665 515.823 48.6874C465.908 65.7082 413.626 81.2547 358.732 82.9375C310.268 84.4266 253.729 73.3549 221.564 44.622C190.306 16.7156 131.587 14.5936 89.2402 31.4506C60.2154 43.0212 38.5212 63.8616 29.3747 87.2932C27.526 91.9846 26.191 96.8627 25.3931 101.842C24.6509 106.376 24.4014 110.977 24.6489 115.564C24.7754 117.798 25.0209 120.069 25.3931 122.265C32.4632 168.525 83.3757 205.009 114.321 246.333C129.443 266.518 140.123 290.761 129.726 312.525C113.867 345.688 58.7121 357.474 25.3931 382.164C19.1683 386.607 13.6486 391.964 9.02008 398.053C-7.09241 420.033 -1.13123 449.696 22.9296 467.216Z" fill="#CFF3FF"/>
<path opacity="0.1" d="M456.025 491.31C345.196 491.31 255.352 488.257 255.352 484.49C255.352 480.723 345.196 477.67 456.025 477.67C566.854 477.67 656.698 480.723 656.698 484.49C656.698 488.257 566.854 491.31 456.025 491.31Z" fill="#6C63FF"/>
<path d="M346.59 479.948C346.59 479.948 303.425 425.245 306.766 370.869C308.173 348.041 302.554 325.316 289.999 306.203C284.027 297.149 277.236 288.662 269.711 280.851" stroke="#535461" stroke-width="2" stroke-miterlimit="10"/>
<path d="M271.623 246.564C274.674 254.173 269.77 281.752 269.77 281.752C269.77 281.752 247.153 265.23 244.102 257.628C243.375 255.819 243.012 253.885 243.034 251.935C243.055 249.986 243.459 248.06 244.224 246.267C244.989 244.475 246.1 242.85 247.492 241.487C248.885 240.123 250.532 239.048 252.34 238.321C254.148 237.595 256.082 237.232 258.03 237.253C259.978 237.274 261.903 237.678 263.695 238.444C265.487 239.209 267.111 240.32 268.474 241.713C269.837 243.107 270.912 244.755 271.638 246.564H271.623Z" fill="#C7FFB4"/>
<path d="M311.283 279.54C309.713 287.582 290.608 308.065 290.608 308.065C290.608 308.065 280.599 281.901 282.169 273.859C282.962 270.036 285.229 266.679 288.479 264.517C291.73 262.355 295.701 261.562 299.531 262.31C303.362 263.057 306.744 265.285 308.944 268.511C311.144 271.736 311.984 275.699 311.283 279.54Z" fill="#C7FFB4"/>
<path d="M339.185 351.912C333.774 358.062 306.952 366.059 306.952 366.059C306.952 366.059 311.514 338.421 316.925 332.271C318.211 330.808 319.773 329.614 321.521 328.756C323.27 327.897 325.169 327.392 327.113 327.268C329.056 327.144 331.005 327.405 332.847 328.034C334.69 328.664 336.391 329.651 337.852 330.938C339.314 332.225 340.508 333.788 341.366 335.537C342.224 337.285 342.729 339.186 342.853 341.13C342.977 343.075 342.716 345.024 342.087 346.868C341.457 348.711 340.471 350.413 339.185 351.875V351.912Z" fill="#C7FFB4"/>
<path d="M347.981 411.426C343.687 418.402 318.599 430.859 318.599 430.859C318.599 430.859 318.428 402.841 322.722 395.864C323.736 394.19 325.071 392.732 326.65 391.576C328.23 390.42 330.022 389.588 331.925 389.128C333.827 388.668 335.801 388.589 337.734 388.896C339.667 389.203 341.52 389.89 343.186 390.916C344.853 391.943 346.299 393.289 347.443 394.878C348.587 396.467 349.406 398.266 349.851 400.172C350.297 402.079 350.361 404.055 350.04 405.986C349.719 407.917 349.019 409.766 347.981 411.426Z" fill="#C7FFB4"/>
<path d="M262.269 321.154C269.852 324.259 297.448 319.539 297.448 319.539C297.448 319.539 281.075 296.799 273.514 293.695C269.888 292.273 265.849 292.335 262.268 293.867C258.687 295.4 255.853 298.279 254.376 301.885C252.9 305.49 252.9 309.532 254.377 313.137C255.853 316.742 258.688 319.622 262.269 321.154Z" fill="#C7FFB4"/>
<path d="M273.432 390.622C281.619 391.322 306.521 378.553 306.521 378.553C306.521 378.553 284.112 361.756 275.955 361.056C273.997 360.855 272.018 361.047 270.134 361.62C268.251 362.192 266.5 363.134 264.984 364.391C263.468 365.648 262.217 367.194 261.304 368.939C260.392 370.684 259.836 372.593 259.668 374.556C259.501 376.518 259.725 378.494 260.329 380.369C260.933 382.244 261.904 383.979 263.185 385.475C264.466 386.97 266.032 388.196 267.791 389.079C269.551 389.963 271.468 390.488 273.432 390.622Z" fill="#C7FFB4"/>
<path d="M293.586 456.658C301.512 458.721 328.229 450.352 328.229 450.352C328.229 450.352 308.984 430.01 301.058 427.94C297.292 427.072 293.337 427.708 290.034 429.713C286.73 431.718 284.339 434.934 283.369 438.676C282.4 442.418 282.928 446.391 284.841 449.749C286.755 453.108 289.903 455.586 293.615 456.658H293.586Z" fill="#C7FFB4"/>
<path opacity="0.25" d="M271.623 246.564C274.674 254.173 269.77 281.752 269.77 281.752C269.77 281.752 247.153 265.23 244.102 257.628C243.375 255.819 243.012 253.885 243.034 251.935C243.055 249.986 243.459 248.06 244.224 246.267C244.989 244.475 246.1 242.85 247.492 241.487C248.885 240.123 250.532 239.048 252.34 238.321C254.148 237.595 256.082 237.232 258.03 237.253C259.978 237.274 261.903 237.678 263.695 238.444C265.487 239.209 267.111 240.32 268.474 241.713C269.837 243.107 270.912 244.755 271.638 246.564H271.623Z" fill="#2B2949"/>
<path opacity="0.25" d="M311.283 279.54C309.713 287.582 290.608 308.065 290.608 308.065C290.608 308.065 280.599 281.901 282.169 273.859C282.962 270.036 285.229 266.679 288.479 264.517C291.73 262.355 295.701 261.562 299.531 262.31C303.362 263.057 306.744 265.285 308.944 268.511C311.144 271.736 311.984 275.699 311.283 279.54Z" fill="#2B2949"/>
<path opacity="0.25" d="M339.185 351.912C333.774 358.062 306.952 366.059 306.952 366.059C306.952 366.059 311.514 338.421 316.925 332.271C318.211 330.808 319.773 329.614 321.521 328.756C323.27 327.897 325.169 327.392 327.113 327.268C329.056 327.144 331.005 327.405 332.847 328.034C334.69 328.664 336.391 329.651 337.852 330.938C339.314 332.225 340.508 333.788 341.366 335.537C342.224 337.285 342.729 339.186 342.853 341.13C342.977 343.075 342.716 345.024 342.087 346.868C341.457 348.711 340.471 350.413 339.185 351.875V351.912Z" fill="#2B2949"/>
<path opacity="0.25" d="M347.981 411.426C343.687 418.402 318.599 430.859 318.599 430.859C318.599 430.859 318.428 402.841 322.722 395.864C323.736 394.19 325.071 392.732 326.65 391.576C328.23 390.42 330.022 389.588 331.925 389.128C333.827 388.668 335.801 388.589 337.734 388.896C339.667 389.203 341.52 389.89 343.186 390.916C344.853 391.943 346.299 393.289 347.443 394.878C348.587 396.467 349.406 398.266 349.851 400.172C350.297 402.079 350.361 404.055 350.04 405.986C349.719 407.917 349.019 409.766 347.981 411.426Z" fill="#2B2949"/>
<path opacity="0.25" d="M262.269 321.154C269.852 324.259 297.448 319.539 297.448 319.539C297.448 319.539 281.075 296.799 273.514 293.695C269.888 292.273 265.849 292.335 262.268 293.867C258.687 295.4 255.853 298.279 254.376 301.885C252.9 305.49 252.9 309.532 254.377 313.137C255.853 316.742 258.688 319.622 262.269 321.154Z" fill="#2B2949"/>
<path opacity="0.25" d="M273.432 390.622C281.619 391.322 306.521 378.553 306.521 378.553C306.521 378.553 284.112 361.756 275.955 361.056C273.997 360.855 272.018 361.047 270.134 361.62C268.251 362.192 266.5 363.134 264.984 364.391C263.468 365.648 262.217 367.194 261.304 368.939C260.392 370.684 259.836 372.593 259.668 374.556C259.501 376.518 259.725 378.494 260.329 380.369C260.933 382.244 261.904 383.979 263.185 385.475C264.466 386.97 266.032 388.196 267.791 389.079C269.551 389.963 271.468 390.488 273.432 390.622Z" fill="#2B2949"/>
<path opacity="0.25" d="M293.586 456.658C301.512 458.721 328.229 450.352 328.229 450.352C328.229 450.352 308.984 430.01 301.058 427.94C297.292 427.072 293.337 427.708 290.034 429.713C286.73 431.718 284.339 434.934 283.369 438.676C282.4 442.418 282.928 446.391 284.841 449.749C286.755 453.108 289.903 455.586 293.615 456.658H293.586Z" fill="#2B2949"/>
<path d="M346.217 477.662C346.217 477.662 284.595 445.162 265.632 394.092C257.669 372.649 243.305 354.153 224.111 341.771C214.98 335.915 205.332 330.908 195.288 326.813" stroke="#535461" stroke-width="2" stroke-miterlimit="10"/>
<path d="M183.157 294.685C189.021 300.396 195.712 327.602 195.712 327.602C195.712 327.602 168.347 321.646 162.475 315.957C159.717 313.2 158.155 309.467 158.127 305.566C158.1 301.665 159.609 297.91 162.327 295.114C165.046 292.318 168.756 290.705 172.654 290.625C176.552 290.545 180.325 292.003 183.157 294.685Z" fill="#90EB71"/>
<path d="M232.767 308.765C234.59 316.754 225.421 343.223 225.421 343.223C225.421 343.223 205.677 323.366 203.839 315.376C203.361 313.461 203.269 311.47 203.57 309.519C203.87 307.569 204.557 305.697 205.589 304.015C206.621 302.333 207.978 300.874 209.581 299.723C211.184 298.573 213.001 297.753 214.924 297.313C216.847 296.874 218.839 296.822 220.782 297.162C222.726 297.502 224.582 298.226 226.242 299.292C227.903 300.359 229.333 301.746 230.451 303.372C231.569 304.999 232.351 306.832 232.752 308.765H232.767Z" fill="#90EB71"/>
<path d="M287.572 363.617C285.116 371.435 263.846 389.677 263.846 389.677C263.846 389.677 256.82 362.56 259.276 354.742C259.828 352.843 260.754 351.074 261.999 349.539C263.244 348.004 264.783 346.733 266.526 345.801C268.269 344.869 270.18 344.295 272.148 344.112C274.116 343.929 276.1 344.142 277.985 344.737C279.869 345.333 281.616 346.299 283.122 347.579C284.628 348.859 285.863 350.427 286.755 352.192C287.646 353.956 288.177 355.881 288.314 357.853C288.452 359.825 288.195 361.805 287.557 363.676L287.572 363.617Z" fill="#90EB71"/>
<path d="M319.738 414.463C318.636 422.579 300.753 444.135 300.753 444.135C300.753 444.135 289.247 418.596 290.334 410.473C290.595 408.541 291.235 406.681 292.216 404.997C293.196 403.313 294.499 401.839 296.049 400.659C297.599 399.479 299.366 398.615 301.25 398.119C303.133 397.622 305.096 397.501 307.027 397.763C308.957 398.025 310.817 398.665 312.5 399.646C314.183 400.627 315.656 401.93 316.836 403.481C318.015 405.032 318.878 406.8 319.375 408.684C319.872 410.569 319.992 412.532 319.731 414.463H319.738Z" fill="#90EB71"/>
<path d="M204.852 366.662C213.038 366.431 236.362 350.922 236.362 350.922C236.362 350.922 212.197 336.775 204.011 336.999C200.117 337.164 196.445 338.857 193.788 341.71C191.131 344.563 189.704 348.347 189.814 352.245C189.925 356.143 191.564 359.84 194.378 362.538C197.192 365.236 200.955 366.718 204.852 366.662Z" fill="#90EB71"/>
<path d="M243.194 425.647C250.934 422.974 268.55 401.203 268.55 401.203C268.55 401.203 241.266 394.926 233.519 397.599C229.884 398.946 226.92 401.663 225.262 405.168C223.604 408.674 223.384 412.69 224.648 416.356C225.913 420.022 228.562 423.047 232.028 424.784C235.494 426.52 239.502 426.83 243.194 425.647Z" fill="#90EB71"/>
<path d="M288.316 477.848C296.399 476.523 317.445 458.043 317.445 458.043C317.445 458.043 291.606 447.239 283.523 448.565C279.698 449.261 276.299 451.433 274.058 454.612C271.817 457.791 270.913 461.723 271.541 465.562C272.17 469.401 274.28 472.84 277.417 475.138C280.555 477.436 284.469 478.409 288.316 477.848Z" fill="#90EB71"/>
<path d="M290.814 482.204H297.415L345.7 232.826L351.892 482.204H358.903L366.747 233.243L413.797 482.204H421.225L389.245 225.887L388.203 217.555L325.472 210.534L323.523 225.887L290.814 482.204Z" fill="#464353"/>
<path d="M424.067 160.544H463.995V185.315H424.067V160.544Z" fill="#464353"/>
<path d="M232.325 149.71L208.182 139.956H202.891C202.119 139.956 201.379 140.263 200.833 140.809C200.288 141.355 199.981 142.096 199.981 142.868V210.891C199.981 211.663 200.288 212.404 200.833 212.95C201.379 213.496 202.119 213.803 202.891 213.803H208.182L232.325 203.743V149.71Z" fill="#464353"/>
<path d="M232.325 152.808H281.689V200.646H232.325V152.808Z" fill="#464353"/>
<path d="M335.601 62.9532H367.38V68.731H335.601V62.9532Z" fill="#514E7F"/>
<path d="M314.19 70.4361H403.639V135.772H314.19V70.4361Z" fill="#514E7F"/>
<path opacity="0.1" d="M314.19 128.036H403.639V135.779H314.19V128.036Z" fill="#2B2949"/>
<path opacity="0.1" d="M280.454 152.808H282.456V200.646H280.454V152.808Z" fill="#2B2949"/>
<path opacity="0.1" d="M424.068 160.544H437.688V185.315H424.068V160.544Z" fill="#2B2949"/>
<path opacity="0.1" d="M323.522 225.887H389.245L388.203 217.555L325.472 210.534L323.522 225.887Z" fill="#2B2949"/>
<path d="M289.66 129.272H428.488C432.886 129.272 436.451 132.839 436.451 137.239V216.677C436.451 221.077 432.886 224.643 428.488 224.643H289.66C285.262 224.643 281.697 221.077 281.697 216.677V137.239C281.697 132.839 285.262 129.272 289.66 129.272Z" fill="#514E7F"/>
<path d="M232.794 149.71H232.325V203.743H232.794C233.818 203.743 234.801 203.336 235.525 202.612C236.249 201.887 236.656 200.904 236.656 199.879V153.575C236.656 152.55 236.249 151.567 235.525 150.842C234.801 150.117 233.818 149.71 232.794 149.71Z" fill="#514E7F"/>
<path d="M208.183 139.979H203.174C202.327 139.979 201.515 140.315 200.916 140.914C200.318 141.513 199.981 142.326 199.981 143.173V210.646C199.981 211.493 200.318 212.305 200.916 212.904C201.515 213.503 202.327 213.84 203.174 213.84H208.183V139.979Z" fill="#514E7F"/>
<path opacity="0.1" d="M456.873 160.544H463.995V185.315H456.873V160.544Z" fill="#2B2949"/>
<path d="M463.474 152.808H466.682C469.641 152.808 472.04 155.208 472.04 158.168V189.559C472.04 192.52 469.641 194.92 466.682 194.92H463.474C460.515 194.92 458.116 192.52 458.116 189.559V158.168C458.116 155.208 460.515 152.808 463.474 152.808Z" fill="#514E7F"/>
<path d="M403.638 115.028C379.022 115.028 359.066 95.0636 359.066 70.4361C359.066 45.8085 379.022 25.8439 403.638 25.8439C428.254 25.8439 448.21 45.8085 448.21 70.4361C448.21 95.0636 428.254 115.028 403.638 115.028Z" fill="#464353"/>
<path d="M403.639 103.882C385.175 103.882 370.208 88.9078 370.208 70.4361C370.208 51.9644 385.175 36.9901 403.639 36.9901C422.102 36.9901 437.069 51.9644 437.069 70.4361C437.069 88.9078 422.102 103.882 403.639 103.882Z" fill="#3F3D56"/>
<path d="M321 103.882C303.05 103.882 288.499 89.3244 288.499 71.3668C288.499 53.4091 303.05 38.8515 321 38.8515C338.949 38.8515 353.5 53.4091 353.5 71.3668C353.5 89.3244 338.949 103.882 321 103.882Z" fill="#464353"/>
<path d="M321 95.7514C307.538 95.7514 296.626 84.834 296.626 71.3668C296.626 57.8996 307.538 46.9822 321 46.9822C334.461 46.9822 345.373 57.8996 345.373 71.3668C345.373 84.834 334.461 95.7514 321 95.7514Z" fill="#3F3D56"/>
<path d="M323.523 147.745C321.16 147.745 319.244 145.828 319.244 143.463C319.244 141.099 321.16 139.182 323.523 139.182C325.887 139.182 327.803 141.099 327.803 143.463C327.803 145.828 325.887 147.745 323.523 147.745Z" fill="#6C63FF"/>
<path opacity="0.5" d="M309.91 147.745C307.547 147.745 305.631 145.828 305.631 143.463C305.631 141.099 307.547 139.182 309.91 139.182C312.274 139.182 314.189 141.099 314.189 143.463C314.189 145.828 312.274 147.745 309.91 147.745Z" fill="#6C63FF"/>
<path d="M363.77 158.235L364.075 157.632C362.188 158.26 360.376 159.094 358.672 160.119C359.416 153.649 384.221 135.481 388.687 135.481C393.152 135.481 398.116 127.768 398.116 127.768C398.116 127.768 411.013 125.78 413.001 123.673C414.988 121.566 428.384 122.794 431.606 123.539C434.829 124.283 439.793 121.551 439.793 121.551C439.793 121.551 442.524 117.083 445.992 117.083C449.46 117.083 453.174 112.11 453.174 112.11C453.174 112.11 456.411 109.131 459.388 108.625C462.365 108.119 466.086 104.902 467.828 102.408C469.569 99.9135 478.247 98.685 483.203 99.4295C488.16 100.174 501.563 98.4169 501.563 98.4169C496.108 95.9301 494.791 89.9586 494.791 89.9586C499.673 89.7055 512.504 78.9241 512.504 78.9241C512.504 78.9241 511.975 82.4087 511.365 87.2707L512.191 86.206L512.303 86.2954C512.565 82.8268 512.602 79.3448 512.414 75.8714C512.414 75.6034 512.37 75.3353 512.355 75.0598C509.177 72.275 506.821 68.6742 505.541 64.6468C504.261 60.6194 504.105 56.3185 505.091 52.2091C505.225 51.6432 505.381 51.0922 505.56 50.5487C504.61 50.9439 503.607 51.1948 502.583 51.2933H502.055C501.439 51.2973 500.829 51.1707 500.266 50.9217C499.703 50.6727 499.199 50.307 498.787 49.8488C498.648 49.6724 498.526 49.4829 498.423 49.2829C498.398 49.2449 498.375 49.205 498.356 49.1638C498.267 48.981 498.193 48.7919 498.133 48.5979C498.112 48.5294 498.094 48.4598 498.08 48.3894C498.043 48.2372 498.013 48.0831 497.991 47.9278C497.991 47.8012 497.991 47.6672 497.991 47.5332C497.991 47.3992 497.991 47.3396 497.991 47.2428C498.022 46.0981 498.275 44.9703 498.735 43.922C499.517 42.0011 500.641 40.1024 500.559 38.0251C500.559 37.8538 500.522 37.69 500.499 37.5262C500.291 35.8956 499.435 34.3841 498.921 32.8131V32.7461C498.847 32.5153 498.788 32.2844 498.735 32.0536C498.711 31.9855 498.691 31.9158 498.676 31.8452C498.62 31.5724 498.583 31.2963 498.564 31.0187C498.564 31.0187 498.564 30.9815 498.564 30.9591C498.371 27.8468 500.879 25.1292 503.722 23.8708C506.267 22.7391 509.177 22.4338 511.506 20.8926C514.163 19.1428 515.622 16.1124 517.587 13.6033C520.444 9.95488 524.917 7.22975 529.494 7.75095C532.315 8.07111 534.875 9.55281 537.681 10.1261C541.945 11.0122 546.455 9.72406 550.697 10.7143C551.727 10.8855 552.665 11.4125 553.347 12.2035C553.632 12.6027 553.816 13.0651 553.883 13.5511C553.942 14.0009 553.942 14.4565 553.883 14.9062V14.9435C553.835 15.3726 553.758 15.798 553.652 16.2167L553.585 16.4773C553.585 16.5666 553.548 16.6485 553.525 16.7379C553.503 16.8272 553.429 17.0878 553.384 17.2591C553.302 17.5495 553.235 17.8398 553.161 18.1377V18.2419C553.094 18.5472 553.027 18.8525 552.975 19.1652C552.855 19.8098 552.775 20.4613 552.736 21.1159C552.561 22.9582 552.959 24.8096 553.875 26.4173C555.736 29.3955 559.688 30.7134 561.407 33.8183C561.813 34.5674 562.066 35.39 562.151 36.2381C562.182 36.5199 562.194 36.8035 562.188 37.0869V37.1986C562.188 37.4443 562.188 37.69 562.121 37.9432C562.125 38.0027 562.125 38.0623 562.121 38.1219C562.083 38.3427 562.033 38.5614 561.972 38.7771C561.972 38.8515 561.935 38.9185 561.913 38.9856C561.831 39.2403 561.731 39.4891 561.615 39.7301C560.819 41.3905 559.315 42.7605 559.003 44.5624C559.003 44.6145 559.003 44.6666 558.966 44.7262C558.794 46.0813 559.353 47.4066 559.643 48.7394C559.681 48.9015 559.711 49.0656 559.732 49.2308C559.732 49.2829 559.732 49.335 559.732 49.3872C559.732 49.4393 559.732 49.6105 559.732 49.7297C559.732 49.8488 559.732 49.8562 559.732 49.9232C559.732 49.9903 559.732 50.1243 559.732 50.2211C559.736 50.2905 559.736 50.3601 559.732 50.4296C559.732 50.5263 559.732 50.6231 559.732 50.7125C559.732 50.8018 559.732 50.8465 559.732 50.9135C559.732 50.9805 559.688 51.0997 559.658 51.189L559.606 51.3752C559.57 51.464 559.531 51.551 559.487 51.6358L559.405 51.7995C559.35 51.8898 559.291 51.9768 559.226 52.0602C559.199 52.1016 559.169 52.1414 559.137 52.1793C559.035 52.2989 558.921 52.4063 558.794 52.4994C557.767 53.244 556.167 53.0504 555.326 53.9886C555.232 54.1022 555.152 54.2273 555.088 54.3609L555.044 54.4502C554.982 54.5814 554.935 54.7186 554.902 54.8597C554.783 55.4193 554.783 55.9977 554.902 56.5573C555.2 58.0465 555.832 59.4016 556.167 60.8609C556.234 61.1588 556.279 61.464 556.316 61.7693C556.316 61.9108 556.316 62.0448 556.353 62.1788V62.2682C556.353 62.3948 556.353 62.5288 556.353 62.6553C556.353 62.7819 556.353 62.7224 556.353 62.7596C556.353 62.9457 556.353 63.1393 556.309 63.3255C556.264 63.5116 556.309 63.5042 556.264 63.5861L556.219 63.802C556.219 63.8988 556.167 63.9956 556.138 64.0924L556.071 64.2785C556.033 64.3827 555.981 64.487 555.937 64.5912C555.915 64.6399 555.89 64.6871 555.862 64.7327C555.787 64.885 555.697 65.0297 555.594 65.1645C554.694 66.3856 553.213 66.7951 551.65 66.8026C550.764 66.7976 549.88 66.6977 549.015 66.5048C548.822 66.9589 548.621 67.4131 548.405 67.8524C547.326 70.0258 545.912 72.0158 544.215 73.7494C544.215 73.9802 544.26 74.2036 544.29 74.4418C544.461 76.1395 544.669 77.9636 544.907 79.8027C546.835 78.9167 548.323 78.5742 548.911 79.2145C551.404 81.9545 548.911 91.4105 548.911 91.4105C548.911 91.4105 561.079 91.4105 564.056 94.1431C567.033 96.8757 572.488 94.1431 572.488 94.1431C572.488 94.1431 583.652 95.394 582.907 97.6351C582.163 99.8763 588.861 97.6351 588.861 97.6351C588.861 97.6351 593.58 98.134 593.327 101.358C593.074 104.582 600.523 106.079 599.533 108.32C598.544 110.561 603.999 112.043 603.999 112.043C603.999 112.043 609.454 111.797 607.467 115.021C607.467 115.021 610.444 121.99 612.922 122.466C615.4 122.943 618.63 128.684 618.63 128.684C618.63 128.684 628.186 130.426 627.754 133.412C627.323 136.397 642.446 157.759 642.446 157.759C642.446 157.759 647.41 167.997 643.934 175.465C640.458 182.933 637.98 187.906 637.236 190.639C636.492 193.372 627.472 205.404 627.546 207.645C627.546 208.345 625.313 212.112 622.27 216.892L623.163 217.816L625.12 219.834C625.12 219.834 631.327 235.261 623.885 236.006C617.596 236.631 613.078 237.085 610.786 236.46C610.414 236.373 610.061 236.219 609.744 236.006L609.655 235.939C606.946 239.937 605.026 242.729 605.026 242.729C605.026 242.729 604.758 242.334 604.282 241.657L603.537 242.722C603.537 242.722 602.942 241.873 601.93 240.488C602.257 247.256 602.302 253.927 602.302 253.927C602.302 253.927 599.072 253.428 600.56 268.357C602.049 283.286 591.63 295.474 591.63 295.474V317.625C591.63 317.625 591.63 318.183 591.526 319.114C591.25 322.293 590.342 329.791 587.663 334.75C584.187 341.213 587.663 358.137 587.663 358.137C587.663 358.137 587.894 371.941 587.06 389.156C587.06 389.625 587.008 390.109 586.986 390.585C602.034 403.168 618.176 419.847 618.176 419.847C617.386 420.068 616.633 420.407 615.944 420.852L616.844 422.006L620.945 427.061L624.115 430.978L619.092 446.458L613.607 444.313C613.607 444.313 610.63 449.473 611.255 452.972C611.35 453.605 611.606 454.203 611.999 454.707C612.189 454.961 612.321 455.253 612.386 455.564C613.823 461.17 607.832 485.346 598.328 486.396C598.328 486.396 595.105 487.461 594.071 484.557C593.572 483.157 593.58 480.834 594.696 477.059C594.696 477.059 599.719 470.998 596.467 464.469C594.562 460.649 591.414 455.534 589.137 451.923L588.199 450.433C586.152 453.017 584.895 454.678 584.895 454.678L577.586 446.815C577.43 447.15 577.274 447.478 577.11 447.79C576.563 448.886 575.931 449.936 575.22 450.932L570.263 470.596L568.261 470.15C568.306 470.626 568.335 471.132 568.365 471.639C568.529 475.168 568.365 479.747 566.735 483.016C565.515 485.518 563.453 487.26 560.089 487.178C548.554 486.895 545.205 480.648 545.205 480.648V465.012L541.238 464.126C541.238 464.126 541.528 429.772 542.548 410.614C542.548 410.19 542.593 409.78 542.615 409.378C542.615 409.318 542.615 409.259 542.615 409.207L517.14 381.799L515.183 381.017C498.81 374.547 498.557 357.876 498.557 357.876C498.557 357.876 498.557 348.673 496.577 340.96C494.597 333.246 496.324 293.181 500.045 283.233C503.766 273.286 505.009 262.073 505.009 262.073C505.009 262.073 501.288 256.861 505.009 252.52C506.06 251.221 506.936 249.789 507.614 248.261L502.769 247.464L499.978 247.003L498.49 246.75C499.234 253.332 499.361 258.387 497.597 259.593C492.134 263.316 473.781 250.882 473.781 250.882C480.48 250.882 484.201 200.869 482.839 199.626C481.477 198.383 479.445 173.32 481.224 168.853C483.002 164.386 474.98 144.439 474.98 144.439L473.744 142.607C473.744 142.607 444.466 155.391 441.244 157.841C438.021 160.29 427.848 151.884 426.114 155.138C424.38 158.392 413.462 163.239 413.462 163.239C413.462 163.239 397.335 161.608 395.601 165.592C393.866 169.575 383.44 178.905 383.44 178.905C383.434 176.717 383.303 174.532 383.045 172.36C382.83 172.874 382.621 173.395 382.398 173.923C377.456 185.621 369.233 200.43 361.612 192.463C352.979 183.409 359.55 166.671 363.77 158.235ZM584.426 211.1V211.241L584.485 211.182L584.426 211.1ZM590.201 153.708L593.356 186.998L599.556 193.424L600.3 194.213L606.708 187.236C606.708 187.236 609.938 185.747 606.708 183.007C603.478 180.267 612.163 174.072 612.163 174.072C612.163 174.072 612.416 169.605 609.186 168.354C605.956 167.103 601.744 158.898 601.744 158.898L590.082 152.942L590.201 153.708ZM548.703 324.095C548.477 323.886 548.227 323.703 547.959 323.552C546.567 322.763 545.674 323.626 545.212 325.145C544.604 327.691 544.789 330.361 545.741 332.799C547.475 336.783 543.255 352.709 543.255 352.709C543.255 352.709 548.718 355.188 549.707 359.924C549.855 360.506 550.107 361.056 550.452 361.547C550.519 361.13 550.578 360.728 550.638 360.341C551.122 357.363 551.382 355.442 551.382 355.442C552.272 351.61 552.441 347.646 551.881 343.752C551.092 338.964 549.499 329.24 548.904 325.555C548.755 324.661 548.673 324.125 548.666 324.066L548.703 324.095Z" fill="url(#paint0_linear)"/>
<path d="M514.112 81.6791L512.504 80.6069L507.972 90.1746L509.713 92.2222H514.982C514.982 92.2222 514.796 87.0102 514.67 86.824C514.543 86.6379 514.112 81.6791 514.112 81.6791Z" fill="#464353"/>
<path d="M545.228 460.925V481.4C545.228 481.4 548.577 487.632 560.113 487.915C561.513 487.998 562.905 487.643 564.096 486.9C565.286 486.157 566.217 485.063 566.758 483.768C568.366 480.507 568.552 475.935 568.388 472.413C568.306 470.652 568.12 468.896 567.83 467.157L545.228 460.925Z" fill="#3F3D56"/>
<path opacity="0.1" d="M545.228 460.925V467.261L568.389 472.413C568.306 470.652 568.12 468.896 567.831 467.157L545.228 460.925Z" fill="#2B2949"/>
<path d="M541.261 464.893L570.286 471.348L575.242 451.736C575.952 450.742 576.584 449.694 577.133 448.602C577.453 447.976 577.765 447.314 578.063 446.621C583.466 434.254 585.87 411.947 586.897 392.968C586.949 392.007 587.001 391.054 587.046 390.116C587.879 372.946 587.649 359.172 587.649 359.172C587.649 359.172 584.173 342.293 587.649 335.845C590.328 330.871 591.236 323.395 591.511 320.209C591.585 319.263 591.615 318.72 591.615 318.72L591.079 317.312L588.891 311.52H564.823L550.832 323.366L548.703 325.168L548.941 326.657C549.544 330.335 551.137 340.059 551.918 344.809C552.478 348.693 552.309 352.647 551.42 356.469C551.42 356.469 551.129 358.36 550.675 361.361C550.564 362.105 550.437 362.895 550.296 363.751C548.517 374.756 545.183 394.852 543.761 399.654C543.367 400.972 543.017 404.278 542.757 408.753C542.697 409.646 542.645 410.577 542.593 411.552C541.551 430.628 541.261 464.893 541.261 464.893Z" fill="#3F3D56"/>
<path opacity="0.1" d="M545.227 481.192V481.4C545.227 481.4 548.576 487.632 560.112 487.915C561.513 487.998 562.904 487.643 564.095 486.9C565.285 486.157 566.216 485.063 566.758 483.768C561.585 485.041 553.191 485.86 545.227 481.192Z" fill="#2B2949"/>
<path d="M361.65 194.153C369.3 202.097 377.487 187.325 382.436 175.657C385.212 169.09 386.953 163.499 386.953 163.499L366.591 154.877C366.591 154.877 365.341 156.865 363.771 160.014C359.551 168.428 352.979 185.121 361.65 194.153Z" fill="#FBB3B2"/>
<path d="M512.392 77.5616C512.719 84.9324 512.166 92.3159 510.747 99.5561C510.747 99.5561 552.171 104.024 548.45 97.5756C546.269 93.7932 544.855 83.8085 544.067 76.1767C543.493 70.7711 543.24 66.5494 543.24 66.5494C543.24 66.5494 503.551 50.6678 509.505 64.07C511.283 68.0684 512.109 72.8038 512.392 77.5616Z" fill="#FBB3B2"/>
<path d="M508.895 184.191L514.462 250.703L488.913 246.489L493.378 191.637L491.89 176.991L508.895 184.191Z" fill="#464353"/>
<path opacity="0.1" d="M488.912 246.593L500.008 248.425L514.469 250.808L513.449 238.671L508.895 184.295L503.097 181.838L498.989 180.103L491.889 177.095L493.377 191.741L488.912 246.593Z" fill="#2B2949"/>
<path d="M596.49 465.191C599.743 471.706 594.719 477.752 594.719 477.752C593.603 481.527 593.595 483.835 594.094 485.197C595.129 488.094 598.351 487.029 598.351 487.029C608.487 485.912 614.627 458.557 612.023 455.422C609.418 452.288 613.608 445.088 613.608 445.088L619.093 447.224L624.116 431.782L620.946 427.873L616.845 422.825L614.069 419.4L586.347 448.341C586.347 448.341 587.53 450.121 589.16 452.675C591.437 456.256 594.585 461.394 596.49 465.191Z" fill="#3F3D56"/>
<path opacity="0.1" d="M542.571 411.515L577.133 448.602C583.191 436.763 585.796 413.012 586.897 392.96C580.46 387.599 574.246 382.983 569.542 380.757C569.542 380.757 553.631 369.238 550.274 363.714C548.495 374.718 545.161 394.814 543.74 399.617C543.271 401.195 542.884 405.625 542.571 411.515Z" fill="#2B2949"/>
<path opacity="0.1" d="M550.832 323.358L591.08 317.305L588.892 311.512H564.824L550.832 323.358Z" fill="#2B2949"/>
<path opacity="0.1" d="M542.705 408.715L578.033 446.621C583.466 434.254 585.87 411.947 586.897 392.968C586.949 392.007 587.001 391.054 587.046 390.116C580.549 384.696 574.26 380.035 569.542 377.786C569.542 377.786 554.694 367.042 550.653 361.331C550.542 362.076 550.415 362.865 550.274 363.721C548.495 374.726 545.161 394.822 543.739 399.624C543.345 400.935 543.017 404.241 542.705 408.715Z" fill="#2B2949"/>
<path opacity="0.1" d="M586.346 448.356C586.346 448.356 587.53 450.136 589.16 452.69C595.076 445.207 609.105 427.977 616.845 422.84L614.069 419.415L586.346 448.356Z" fill="#2B2949"/>
<path d="M496.607 342.032C498.587 349.731 498.587 358.911 498.587 358.911C498.587 358.911 498.84 375.538 515.213 381.993L517.17 382.738L584.895 455.43C584.895 455.43 609.953 422.669 618.14 420.681C618.14 420.681 585.148 386.676 569.519 379.231C569.519 379.231 550.661 365.583 549.671 360.87C548.681 356.156 543.218 353.67 543.218 353.67C543.218 353.67 547.438 337.788 545.704 333.812C544.752 331.382 544.568 328.718 545.176 326.18C545.637 324.691 546.53 323.805 547.922 324.587C548.19 324.738 548.44 324.921 548.666 325.13L591.578 318.675V296.613C591.578 296.613 601.997 284.455 600.509 269.563C599.02 254.672 602.25 255.171 602.25 255.171C602.25 255.171 602.094 230.019 599.973 227.92C597.852 225.82 577.475 216.2 577.475 216.2L513.591 227.555L510.956 239.781C510.956 239.781 508.724 249.505 505.002 253.823C501.281 258.142 505.002 263.346 505.002 263.346C505.002 263.346 503.76 274.515 500.038 284.455C496.317 294.395 494.62 334.341 496.607 342.032Z" fill="#3F3D56"/>
<path opacity="0.1" d="M509.505 64.07C511.284 68.0684 512.11 72.8336 512.393 77.5616C516.85 81.4237 522.615 83.4322 528.506 83.1746C534.396 82.9171 539.965 80.413 544.067 76.1767C543.494 70.7711 543.241 66.5494 543.241 66.5494C543.241 66.5494 503.552 50.6678 509.505 64.07Z" fill="#2B2949"/>
<path d="M504.429 59.4016C504.433 65.2869 506.683 70.9486 510.721 75.229C514.758 79.5094 520.277 82.0851 526.15 82.4297C532.022 82.7742 537.804 80.8614 542.314 77.0824C546.824 73.3034 549.72 67.9437 550.411 62.0992C551.103 56.2546 549.536 50.3667 546.032 45.6393C542.528 40.9119 537.351 37.7022 531.561 36.6664C525.77 35.6305 519.802 36.8469 514.878 40.0667C509.954 43.2865 506.445 48.2665 505.069 53.9886C504.643 55.7613 504.428 57.5783 504.429 59.4016Z" fill="#FBB3B2"/>
<path opacity="0.1" d="M523.147 99.5561C523.147 99.5561 539.728 91.8647 540.763 90.867C541.797 89.8693 576.195 178.235 576.195 178.235L585.87 222.164C585.87 222.164 534.273 244.248 523.11 241.27C511.946 238.291 510.956 241.27 510.956 241.27C510.956 241.27 499.54 177.237 495.819 171.533C492.098 165.83 499.294 107.746 499.294 107.746L512.192 90.8596L523.147 99.5561Z" fill="#2B2949"/>
<path opacity="0.1" d="M523.147 96.5778C523.147 96.5778 539.728 88.8864 540.763 87.8887C541.797 86.891 576.195 175.256 576.195 175.256L585.87 219.186C585.87 219.186 534.273 241.27 523.11 238.291C511.946 235.313 510.956 238.291 510.956 238.291C510.956 238.291 499.54 174.259 495.819 168.555C492.098 162.852 499.294 104.768 499.294 104.768L512.192 87.8813L523.147 96.5778Z" fill="#2B2949"/>
<path d="M495.863 170.044C496.608 171.228 497.731 174.906 498.989 179.999C499.867 183.543 500.82 187.765 501.795 192.307C506.186 212.805 510.994 239.788 510.994 239.788C510.994 239.788 511.299 238.88 513.45 238.567C515.191 238.314 518.153 238.455 523.124 239.788C534.288 242.766 585.893 220.675 585.893 220.675L584.404 213.974L576.218 176.745C576.218 176.745 541.73 88.3876 540.74 89.3853C540.138 89.9884 533.693 93.1081 528.781 95.4238C525.647 96.9129 523.124 98.067 523.124 98.067L512.705 89.832L512.132 89.3779L499.294 106.257C499.294 106.257 492.142 164.333 495.863 170.044Z" fill="#EAF0FC"/>
<path opacity="0.1" d="M535.307 106.756C533.819 112.482 537.287 121.893 537.287 121.893C537.287 121.893 549.194 151.184 552.67 164.721C556.146 178.257 576.024 205.538 576.024 205.538C576.024 205.538 578.941 208.464 583.027 212.537C583.481 212.991 583.957 213.46 584.434 213.951L576.247 176.723C576.247 176.723 541.76 88.3653 540.77 89.363C540.167 89.9661 533.722 93.0858 528.81 95.4014C531.884 98.201 536.297 102.966 535.307 106.756Z" fill="#2B2949"/>
<path d="M536.796 106.756C535.307 112.482 538.775 121.893 538.775 121.893C538.775 121.893 550.683 151.184 554.158 164.721C557.634 178.257 577.512 205.538 577.512 205.538C577.512 205.538 580.43 208.464 584.515 212.537C584.999 213.021 585.505 213.52 586.004 214.026C593.982 221.97 605.197 233.109 608.703 236.363C609.216 236.847 609.566 237.16 609.715 237.264C610.032 237.477 610.385 237.631 610.757 237.718C613.049 238.344 617.566 237.889 623.855 237.264C631.297 236.519 625.091 221.137 625.091 221.137L623.133 219.119L621.347 217.272L601.074 196.402L599.586 194.831L593.387 188.435L590.231 155.227L590.157 154.431C590.157 154.431 591.079 152.324 592.501 149.107C596.289 140.403 603.731 123.606 606.455 118.178C606.768 117.545 607.013 117.076 607.199 116.785C607.199 116.748 607.237 116.711 607.259 116.681C609.246 113.457 603.791 113.703 603.791 113.703C603.791 113.703 598.328 112.214 599.325 109.98C600.323 107.746 592.873 106.257 593.119 103.033C593.364 99.8093 588.653 99.3104 588.653 99.3104C588.653 99.3104 581.955 101.544 582.699 99.3104C583.444 97.0767 572.28 95.8333 572.28 95.8333C572.28 95.8333 566.825 98.5658 563.848 95.8333C560.871 93.1007 548.659 93.1082 548.659 93.1082C548.659 93.1082 551.152 83.6745 548.659 80.9419C546.165 78.2094 527.47 93.1082 527.47 93.1082C527.47 93.1082 538.284 101.038 536.796 106.756Z" fill="#464353"/>
<path opacity="0.1" d="M598.812 233.824C598.812 233.824 578.22 262.862 563.834 253.436C549.448 244.01 583.184 219.431 583.184 219.431L598.812 233.824Z" fill="#2B2949"/>
<path d="M598.812 232.335C598.812 232.335 578.22 261.373 563.834 251.947C549.448 242.521 583.184 217.942 583.184 217.942L598.812 232.335Z" fill="#FBB3B2"/>
<path opacity="0.1" d="M500.008 248.321C498.438 234.613 493.883 214.018 497.597 207.772C499.435 204.674 500.797 198.77 501.795 192.307C502.33 188.83 502.755 185.189 503.097 181.734C504.005 172.568 504.295 164.721 504.295 164.721C504.295 164.721 513.226 124.871 511.492 116.681C510.405 111.559 511.656 98.7222 512.742 89.8321L512.169 89.3779L499.331 106.257C499.331 106.257 492.142 164.333 495.863 170.044C496.607 171.228 497.731 174.906 498.989 179.999L491.889 177.021L493.377 191.667L488.912 246.519L500.008 248.321Z" fill="#2B2949"/>
<path d="M512.504 80.6069C512.504 80.6069 499.673 91.3659 494.791 91.6116C494.791 91.6116 496.109 97.5682 501.564 100.055C501.564 100.055 488.168 101.827 483.204 101.06C478.24 100.293 469.562 101.544 467.828 104.038C466.094 106.533 462.328 109.734 459.351 110.226C456.374 110.717 453.137 113.703 453.137 113.703L474.98 145.965C474.98 145.965 482.921 165.823 481.187 170.29C479.453 174.757 481.44 199.827 482.802 201.063C484.164 202.299 480.443 252.192 473.745 252.192C473.745 252.192 492.097 264.604 497.56 260.882C503.022 257.159 490.609 216.952 496.071 207.764C501.534 198.576 502.769 164.713 502.769 164.713C502.769 164.713 511.7 124.871 509.959 116.681C508.217 108.491 512.504 80.6069 512.504 80.6069Z" fill="#464353"/>
<path opacity="0.1" d="M363.77 159.732C370.402 157.662 380.56 157.603 382.436 175.368C385.212 168.801 386.953 163.209 386.953 163.209L366.591 154.587C366.591 154.587 365.341 156.583 363.77 159.732Z" fill="#2B2949"/>
<path d="M465.305 112.214L453.137 113.703C453.137 113.703 449.416 118.669 445.955 118.669C442.494 118.669 439.756 123.137 439.756 123.137C439.756 123.137 434.792 125.862 431.569 125.117C428.347 124.373 414.951 123.144 412.964 125.251C410.976 127.358 398.079 129.339 398.079 129.339C398.079 129.339 393.115 137.03 388.65 137.03C384.184 137.03 359.379 155.153 358.635 161.601C358.635 161.601 383.195 145.965 383.44 180.342C383.44 180.342 393.859 171.035 395.601 167.066C397.342 163.098 413.462 164.713 413.462 164.713C413.462 164.713 424.373 159.866 426.114 156.642C427.856 153.418 438.022 161.78 441.244 159.33C444.467 156.88 473.745 144.133 473.745 144.133L482.802 127.105L465.305 112.214Z" fill="#464353"/>
<path d="M521.412 142.369C520.249 142.369 519.306 141.425 519.306 140.262C519.306 139.098 520.249 138.154 521.412 138.154C522.576 138.154 523.519 139.098 523.519 140.262C523.519 141.425 522.576 142.369 521.412 142.369Z" fill="#3F3D56"/>
<path d="M523.519 186.365C522.356 186.365 521.413 185.422 521.413 184.258C521.413 183.094 522.356 182.151 523.519 182.151C524.682 182.151 525.625 183.094 525.625 184.258C525.625 185.422 524.682 186.365 523.519 186.365Z" fill="#3F3D56"/>
<path d="M521.412 163.209C520.249 163.209 519.306 162.266 519.306 161.102C519.306 159.938 520.249 158.995 521.412 158.995C522.576 158.995 523.519 159.938 523.519 161.102C523.519 162.266 522.576 163.209 521.412 163.209Z" fill="#3F3D56"/>
<path d="M527.493 209.521C526.33 209.521 525.387 208.578 525.387 207.414C525.387 206.25 526.33 205.307 527.493 205.307C528.657 205.307 529.6 206.25 529.6 207.414C529.6 208.578 528.657 209.521 527.493 209.521Z" fill="#3F3D56"/>
<path opacity="0.1" d="M594.057 485.235C595.091 488.131 598.314 487.066 598.314 487.066C608.45 485.949 614.59 458.594 611.985 455.459C609.381 452.325 613.608 445.088 613.608 445.088L619.093 447.224L624.116 431.782L620.946 427.873C617.79 433.346 613.273 441.216 612.209 443.226C610.188 447.395 609.229 451.999 609.418 456.628C609.589 461.468 603.977 484.609 594.057 485.235Z" fill="#2B2949"/>
<path opacity="0.1" d="M505.069 53.9588C505.575 53.7876 506.081 53.5865 506.558 53.3855C508.262 52.6931 510.056 51.8964 511.09 50.4072C512.035 49.0223 512.34 47.0716 513.814 46.2823C515.511 45.374 517.535 46.6025 519.373 47.0269C521.561 47.5407 523.839 46.9301 525.967 46.1483C529.138 44.9793 533.566 42.8275 536.818 45.0538C539.348 46.7812 538.366 50.4445 539.013 53.0579C540.018 57.1158 544.327 59.759 545.138 63.8616C545.503 65.6709 545.265 67.8822 546.731 69.0065C547.159 69.3117 547.645 69.5247 548.16 69.632C549.597 66.7209 550.404 63.5392 550.528 60.2949C550.652 57.0505 550.091 53.8165 548.881 50.804C547.67 47.7915 545.839 45.0683 543.505 42.8123C541.171 40.5563 538.388 38.8183 535.337 37.7118C532.286 36.6053 529.036 36.1552 525.799 36.3909C522.562 36.6266 519.412 37.5428 516.553 39.0797C513.694 40.6165 511.192 42.7394 509.209 45.3098C507.227 47.8801 505.808 50.84 505.047 53.9961L505.069 53.9588Z" fill="#2B2949"/>
<path d="M525.981 44.6368C523.875 45.4186 521.583 46.0292 519.388 45.508C517.52 45.0687 515.532 43.8401 513.836 44.7634C512.347 45.5601 512.049 47.5034 511.112 48.8883C510.077 50.3774 508.284 51.2114 506.572 51.8666C505.296 52.462 503.931 52.8443 502.531 52.9983C501.83 53.0669 501.123 52.9729 500.465 52.7237C499.807 52.4744 499.215 52.0767 498.735 51.5613C497.411 49.9605 497.812 47.563 498.601 45.6494C499.39 43.7359 500.506 41.8298 500.425 39.7599C500.328 37.3028 498.549 35.1659 498.4 32.7163C498.207 29.6115 500.715 26.9012 503.558 25.6429C506.103 24.5186 509.013 24.2059 511.342 22.6646C513.999 20.9223 515.458 17.8994 517.423 15.3976C520.281 11.7567 524.753 9.03905 529.33 9.56024C532.151 9.88041 534.711 11.3547 537.517 11.928C541.781 12.814 546.291 11.5259 550.533 12.5162C551.558 12.6775 552.495 13.1909 553.183 13.9681C554.225 15.3679 553.689 17.3261 553.228 19.0088C552.401 22.0392 552.052 25.4716 553.696 28.1372C555.557 31.1527 559.509 32.4259 561.228 35.5233C561.725 36.4319 562 37.4456 562.03 38.481C562.059 39.5164 561.843 40.5441 561.399 41.4798C560.58 43.1924 558.995 44.5847 558.75 46.4685C558.578 47.8236 559.137 49.1415 559.427 50.4668C559.717 51.7921 559.635 53.4451 558.541 54.1896C557.447 54.9342 555.914 54.748 555.073 55.6788C554.819 56.0484 554.651 56.4707 554.583 56.9142C554.515 57.3578 554.547 57.811 554.679 58.2401C554.976 59.7292 555.609 61.0769 555.944 62.5362C556.159 63.252 556.219 64.0053 556.12 64.746C556.021 65.4868 555.766 66.198 555.371 66.8324C553.927 68.7831 551.01 68.664 548.673 68.1428C547.998 68.0355 547.356 67.7813 546.79 67.3983C545.301 66.274 545.562 64.0626 545.197 62.2533C544.386 58.1582 540.077 55.5001 539.072 51.4496C538.425 48.8362 539.407 45.1655 536.877 43.4381C533.587 41.316 529.152 43.4678 525.981 44.6368Z" fill="#464353"/>
<path opacity="0.1" d="M529.6 313.992C529.6 313.992 506.238 328.883 505.494 334.594L529.6 313.992Z" fill="#2B2949"/>
<path opacity="0.1" d="M530.797 325.905C530.797 325.905 504.005 338.808 505.493 343.275L530.797 325.905Z" fill="#2B2949"/>
<path opacity="0.1" d="M532.576 337.319C532.576 337.319 517.439 345.263 516.449 349.977L532.576 337.319Z" fill="#2B2949"/>
<path opacity="0.1" d="M526.124 355.188C526.124 355.188 516.203 363.878 514.216 361.644C512.229 359.41 526.124 355.188 526.124 355.188Z" fill="#2B2949"/>
<path opacity="0.1" d="M540.019 360.654C540.019 360.654 532.286 373.058 536.007 373.803C539.728 374.547 540.019 360.654 540.019 360.654Z" fill="#2B2949"/>
<path opacity="0.1" d="M573.962 140.262C573.962 140.262 587.113 148.199 583.146 150.187C579.179 152.175 573.962 140.262 573.962 140.262Z" fill="#2B2949"/>
<path opacity="0.1" d="M573.962 110.97C573.962 110.97 587.358 135.541 581.159 133.806C574.96 132.071 573.962 110.97 573.962 110.97Z" fill="#2B2949"/>
<path opacity="0.1" d="M431.606 135.541C431.606 135.541 439.793 145.176 438.304 150.432L431.606 135.541Z" fill="#2B2949"/>
<path opacity="0.1" d="M410.233 140.262C410.233 140.262 422.52 151.177 420.719 152.42L410.233 140.262Z" fill="#2B2949"/>
<path opacity="0.1" d="M402.582 153.671C402.582 153.671 403.825 160.849 401.838 161.117L402.582 153.671Z" fill="#2B2949"/>
<path opacity="0.05" d="M536.669 305.109C539.832 309.204 539.832 316.464 541.261 319.442C542.042 321.08 543.784 323.909 545.198 326.202C545.659 324.713 546.552 323.827 547.944 324.609C548.859 317.781 550.474 305.995 550.995 303.62C551.739 300.269 543.553 291.334 543.553 291.334C543.553 291.334 535.552 293.01 533.506 297.105C531.459 301.2 533.506 301.021 536.669 305.109Z" fill="#2B2949"/>
<path opacity="0.1" d="M577.974 218.94C586.905 220.176 603.523 244.002 603.523 244.002C603.523 244.002 605.704 240.83 608.733 236.4C612.543 230.779 617.664 223.117 621.385 217.309L599.579 194.809L595.612 199.082C595.612 199.082 587.917 206.774 587.917 208.263C587.917 208.844 586.428 210.608 584.538 212.537C581.643 215.537 577.974 218.94 577.974 218.94Z" fill="#2B2949"/>
<path opacity="0.1" d="M606.455 118.178C606.768 117.545 607.013 117.076 607.199 116.785L597.584 117.426L592.486 149.085C596.289 140.403 603.731 123.606 606.455 118.178Z" fill="#2B2949"/>
<path opacity="0.1" d="M586.018 214.048C593.996 221.993 605.212 233.132 608.717 236.385C609.23 236.869 609.58 237.182 609.729 237.286C610.046 237.5 610.399 237.654 610.771 237.74C614.276 232.588 619.277 225.165 623.147 219.126L621.361 217.28L601.074 196.402L598.566 199.105C598.566 199.105 590.87 206.796 590.87 208.285C590.87 209 588.467 211.591 586.018 214.048Z" fill="#2B2949"/>
<path d="M596.082 117.426L607.245 116.681C607.245 116.681 610.222 123.628 612.7 124.127C615.178 124.626 618.408 130.329 618.408 130.329C618.408 130.329 627.964 132.071 627.547 135.05C627.131 138.028 642.238 159.33 642.238 159.33C642.238 159.33 647.202 169.545 643.727 176.991C640.251 184.437 637.773 189.403 637.029 192.128C636.285 194.853 627.473 206.774 627.547 209.008C627.622 211.241 605.027 244.002 605.027 244.002C605.027 244.002 588.409 220.176 579.478 218.933C579.478 218.933 589.398 209.752 589.398 208.263C589.398 206.774 597.034 199.082 597.034 199.082L606.709 188.659C606.709 188.659 609.939 187.169 606.709 184.437C603.479 181.704 612.164 175.502 612.164 175.502C612.164 175.502 612.417 171.035 609.187 169.791C605.957 168.548 601.745 160.365 601.745 160.365L590.083 154.408L596.082 117.426Z" fill="#464353"/>
<path opacity="0.1" d="M638.71 166.813C638.71 166.813 625.314 164.088 625.068 165.823C624.823 167.557 638.71 166.813 638.71 166.813Z" fill="#2B2949"/>
<path opacity="0.1" d="M627.547 180.342C627.547 180.342 616.19 181.831 616.689 184.258C617.187 186.685 627.547 180.342 627.547 180.342Z" fill="#2B2949"/>
<path opacity="0.1" d="M618.162 138.147C618.162 138.147 607.244 153.612 605.756 150.41L618.162 138.147Z" fill="#2B2949"/>
<g opacity="0.1">
<path opacity="0.1" d="M552.558 22.9178C552.491 21.1138 552.718 19.3108 553.228 17.5793C553.443 16.8469 553.607 16.1006 553.719 15.3456C553.814 16.6071 553.647 17.8748 553.228 19.0684C552.874 20.3254 552.65 21.6152 552.558 22.9178Z" fill="#2B2949"/>
<path opacity="0.1" d="M500.366 39.2983C500.076 37.0646 498.543 35.0319 498.401 32.7461C498.379 32.3658 498.393 31.9842 498.446 31.6069C498.736 33.9151 500.336 35.9626 500.425 38.308C500.435 38.6392 500.415 38.9706 500.366 39.2983Z" fill="#2B2949"/>
<path opacity="0.1" d="M498.735 50.0945C499.215 50.6099 499.807 51.0076 500.465 51.2569C501.124 51.5061 501.83 51.6001 502.531 51.5315C503.931 51.3775 505.296 50.9952 506.572 50.3998C508.284 49.7073 510.077 48.9106 511.112 47.4215C512.057 46.0366 512.362 44.0933 513.836 43.2966C515.533 42.3882 517.557 43.6168 519.395 44.0412C521.583 44.5624 523.861 43.9518 525.982 43.17C529.152 42.0011 533.588 39.8493 536.84 42.0681C539.37 43.7955 538.388 47.4662 539.035 50.0796C540.04 54.1301 544.349 56.7807 545.16 60.8833C545.525 62.6926 545.287 64.9039 546.753 66.0282C547.321 66.4125 547.966 66.6668 548.643 66.7728C551.01 67.294 553.927 67.4131 555.341 65.4624C555.75 64.9048 556.006 64.2505 556.086 63.5637C556.278 64.7466 556.012 65.9583 555.341 66.9515C553.898 68.9023 550.98 68.7831 548.643 68.2619C547.966 68.1559 547.321 67.9017 546.753 67.5174C545.264 66.3931 545.525 64.1817 545.16 62.3724C544.349 58.2773 540.04 55.6192 539.035 51.5687C538.388 48.9553 539.37 45.2846 536.84 43.5572C533.588 41.3235 529.152 43.4902 525.982 44.6592C523.875 45.441 521.583 46.0515 519.395 45.5303C517.52 45.091 515.533 43.8625 513.836 44.7857C512.347 45.5824 512.057 47.5257 511.112 48.9106C510.077 50.3998 508.284 51.2337 506.572 51.8889C505.296 52.4844 503.931 52.8667 502.531 53.0206C501.83 53.0892 501.124 52.9952 500.465 52.746C499.807 52.4968 499.215 52.099 498.735 51.5836C498.374 51.0997 498.116 50.5465 497.978 49.9585C497.84 49.3706 497.824 48.7604 497.932 48.1661C498.01 48.8725 498.289 49.5416 498.735 50.0945Z" fill="#2B2949"/>
<path opacity="0.1" d="M558.75 45.0091C558.996 43.1254 560.581 41.733 561.399 40.0205C561.707 39.3757 561.903 38.6834 561.98 37.973C562.122 39.183 561.921 40.4087 561.399 41.5097C560.603 43.17 559.1 44.54 558.787 46.3345C558.712 45.8967 558.699 45.4504 558.75 45.0091Z" fill="#2B2949"/>
<path opacity="0.1" d="M554.612 56.6393C554.506 56.2388 554.489 55.8198 554.562 55.4119C554.636 55.0041 554.798 54.6173 555.037 54.279C555.878 53.3185 557.478 53.5344 558.505 52.7899C558.777 52.5744 559.004 52.3066 559.171 52.0023C559.339 51.698 559.444 51.3633 559.48 51.0178C559.643 52.2314 559.48 53.5716 558.505 54.279C557.53 54.9863 555.878 54.8374 555.037 55.7681C554.827 56.02 554.682 56.3189 554.612 56.6393Z" fill="#2B2949"/>
</g>
</g>
<defs>
<linearGradient id="paint0_linear" x1="501.169" y1="487.26" x2="501.169" y2="7.66161" gradientUnits="userSpaceOnUse">
<stop stop-color="#808080" stop-opacity="0.25"/>
<stop offset="0.54" stop-color="#808080" stop-opacity="0.12"/>
<stop offset="1" stop-color="#808080" stop-opacity="0.1"/>
</linearGradient>
<clipPath id="clip0">
<rect width="825" height="503" fill="white" transform="matrix(-1 0 0 1 825 0)"/>
</clipPath>
</defs>
</svg>
