<svg width="673" height="610" viewBox="0 0 673 610" fill="none" xmlns="http://www.w3.org/2000/svg">
<path d="M542.664 437.673C606.266 507.871 421.895 609.036 272.918 609.036C123.941 609.036 20.8719 530.651 3.17099 437.673C-39.7477 212.234 368.849 68.9463 272.918 266.311C133.087 553.992 492.576 382.391 542.664 437.673Z" fill="#423F5F"/>
<path d="M197.365 219.2C200.357 219.2 202.783 216.779 202.783 213.792C202.783 210.806 200.357 208.385 197.365 208.385C194.372 208.385 191.946 210.806 191.946 213.792C191.946 216.779 194.372 219.2 197.365 219.2Z" fill="#D0CDE1"/>
<path d="M123.916 543.052C126.909 543.052 129.335 540.631 129.335 537.645C129.335 534.658 126.909 532.237 123.916 532.237C120.924 532.237 118.498 534.658 118.498 537.645C118.498 540.631 120.924 543.052 123.916 543.052Z" fill="#D0CDE1"/>
<path d="M206.997 295.506C208.327 295.506 209.405 294.43 209.405 293.103C209.405 291.775 208.327 290.699 206.997 290.699C205.667 290.699 204.589 291.775 204.589 293.103C204.589 294.43 205.667 295.506 206.997 295.506Z" fill="#D0CDE1"/>
<path d="M80.5693 420.481C81.8992 420.481 82.9774 419.405 82.9774 418.077C82.9774 416.75 81.8992 415.674 80.5693 415.674C79.2393 415.674 78.1611 416.75 78.1611 418.077C78.1611 419.405 79.2393 420.481 80.5693 420.481Z" fill="#D0CDE1"/>
<path d="M397.239 510.607C398.569 510.607 399.647 509.531 399.647 508.203C399.647 506.876 398.569 505.8 397.239 505.8C395.909 505.8 394.831 506.876 394.831 508.203C394.831 509.531 395.909 510.607 397.239 510.607Z" fill="#D0CDE1"/>
<path d="M72.7431 297.909C74.0731 297.909 75.1512 296.833 75.1512 295.506C75.1512 294.179 74.0731 293.103 72.7431 293.103C71.4131 293.103 70.335 294.179 70.335 295.506C70.335 296.833 71.4131 297.909 72.7431 297.909Z" fill="#D0CDE1"/>
<path d="M219.037 231.817H217.833V230.615H217.231V231.817H216.027V232.418H217.231V233.62H217.833V232.418H219.037V231.817Z" fill="#D0CDE1"/>
<path d="M126.926 251.645H125.722V250.443H125.12V251.645H123.916V252.246H125.12V253.447H125.722V252.246H126.926V251.645Z" fill="#D0CDE1"/>
<path d="M66.723 364.603H65.5191V363.4H64.9168V364.603H63.7129V365.203H64.9168V366.405H65.5191V365.203H66.723V364.603Z" fill="#D0CDE1"/>
<path d="M235.894 562.278C237.224 562.278 238.303 561.202 238.303 559.875C238.303 558.548 237.224 557.472 235.894 557.472C234.564 557.472 233.486 558.548 233.486 559.875C233.486 561.202 234.564 562.278 235.894 562.278Z" fill="#D0CDE1"/>
<path d="M228.067 439.708C229.397 439.708 230.475 438.632 230.475 437.305C230.475 435.977 229.397 434.901 228.067 434.901C226.737 434.901 225.659 435.977 225.659 437.305C225.659 438.632 226.737 439.708 228.067 439.708Z" fill="#D0CDE1"/>
<path d="M512 504C513.657 504 515 502.657 515 501C515 499.343 513.657 498 512 498C510.343 498 509 499.343 509 501C509 502.657 510.343 504 512 504Z" fill="#D0CDE1"/>
<path d="M222.047 506.401H220.843V505.199H220.242V506.401H219.037V507.002H220.242V508.203H220.843V507.002H222.047V506.401Z" fill="#D0CDE1"/>
<path d="M338.842 549.061H337.638V547.859H337.036V549.061H335.832V549.662H337.036V550.863H337.638V549.662H338.842V549.061Z" fill="#D0CDE1"/>
<path d="M43.846 442.111H42.6421V440.909H42.0398V442.111H40.8359V442.712H42.0398V443.913H42.6421V442.712H43.846V442.111Z" fill="#D0CDE1"/>
<path d="M211.21 355.59H210.006V354.389H209.404V355.59H208.2V356.191H209.404V357.393H210.006V356.191H211.21V355.59Z" fill="#D0CDE1"/>
<path d="M137.16 284.691H135.957V283.489H135.354V284.691H134.15V285.292H135.354V286.493H135.957V285.292H137.16V284.691Z" fill="#D0CDE1"/>
<path d="M186.528 403.056H185.324V401.854H184.721V403.056H183.518V403.657H184.721V404.859H185.324V403.657H186.528V403.056Z" fill="#D0CDE1"/>
<path d="M114.284 477.561H113.08V476.358H112.477V477.561H111.273V478.161H112.477V479.363H113.08V478.161H114.284V477.561Z" fill="#D0CDE1"/>
<path d="M138.966 376.018C158.583 376.018 174.486 373.597 174.486 370.611C174.486 367.624 158.583 365.203 138.966 365.203C119.349 365.203 103.446 367.624 103.446 370.611C103.446 373.597 119.349 376.018 138.966 376.018Z" fill="#FA0026"/>
<path d="M142.579 372.414C128.059 372.414 106.457 370.814 106.457 366.406C106.457 361.998 128.059 360.397 142.579 360.397C157.099 360.397 178.701 361.998 178.701 366.406C178.701 370.814 157.099 372.414 142.579 372.414Z" fill="white" fill-opacity="0.4"/>
<path d="M142.579 278.683C129.945 278.683 119.702 281.695 119.702 294.304C119.702 306.914 129.945 357.393 142.579 357.393C155.214 357.393 165.457 306.914 165.457 294.304C165.457 281.695 155.214 278.683 142.579 278.683ZM142.579 311.128C140.674 311.128 138.812 310.564 137.228 309.508C135.644 308.451 134.409 306.95 133.68 305.193C132.951 303.437 132.76 301.504 133.132 299.639C133.504 297.774 134.421 296.061 135.768 294.717C137.115 293.372 138.832 292.457 140.7 292.086C142.569 291.715 144.506 291.905 146.266 292.633C148.026 293.36 149.53 294.593 150.589 296.174C151.647 297.755 152.212 299.613 152.212 301.515C152.212 302.777 151.963 304.027 151.479 305.193C150.995 306.36 150.285 307.42 149.391 308.312C148.496 309.205 147.434 309.913 146.266 310.396C145.097 310.879 143.844 311.128 142.579 311.128Z" fill="#FA0026"/>
<path d="M570.167 416.166C520.079 360.884 160.59 532.486 300.42 244.804C362.75 116.57 212.092 132.145 110.676 220.622C208.883 153.322 327.427 151.382 270.92 267.636C131.09 555.317 490.579 383.716 540.667 438.998C563.973 464.721 553.98 494.603 524.635 522.141C575.074 489.147 600.118 449.224 570.167 416.166Z" fill="#CFF3FF"/>
<path d="M442.238 244C442.238 244 402.359 282.853 419.108 287.611C435.858 292.368 455 251.929 455 251.929L442.238 244Z" fill="#FFB9B9"/>
<path d="M482.8 375L478 397.4L514 399L508.4 375H482.8Z" fill="#FFB9B9"/>
<path d="M595.8 513L591 535.4L627 537L621.4 513H595.8Z" fill="#FFB9B9"/>
<path d="M532.707 226L535.896 238.765C535.896 238.765 447.404 221.213 452.187 265.891C456.971 310.568 477.699 353.65 477.699 353.65C477.699 353.65 476.104 368.011 479.293 370.404C482.482 372.798 479.293 380.776 479.293 380.776C479.293 380.776 508.79 384.765 509.588 377.585C510.014 372.784 509.746 367.948 508.79 363.224C508.79 363.224 510.385 363.224 508.79 355.246C507.196 347.268 500.755 282.926 495.972 274.15C495.972 274.15 538.288 306.579 560.61 302.59C560.61 302.59 557.421 334.503 570.177 376.787C582.933 419.071 582.933 423.858 582.933 423.858C582.933 423.858 598.08 504.437 594.094 514.011L593.297 518H622.794C622.794 518 620.403 475.716 622.794 470.131C625.186 464.546 625.186 416.678 611.633 392.743C602.035 375.794 603.823 326.649 609.073 307.223C613.482 290.911 614.595 278.356 612.011 261.656C609.247 243.797 600.994 234.462 590.905 226H532.707Z" fill="#FA0026"/>
<path d="M556.5 106C572.24 106 585 93.2401 585 77.5C585 61.7599 572.24 49 556.5 49C540.76 49 528 61.7599 528 77.5C528 93.2401 540.76 106 556.5 106Z" fill="#FFB9B9"/>
<path d="M549 97.895C549 97.895 557.643 123.271 556.857 128.029C556.071 132.787 582 118.513 582 118.513C582 118.513 571.786 93.137 574.929 86L549 97.895Z" fill="#FFB9B9"/>
<path d="M580.743 110L552.909 121.15L554.499 130.707C554.499 130.707 552.114 133.893 552.909 135.486C553.704 137.078 542.571 143.45 544.161 145.839C545.752 148.228 534.618 157.785 535.414 160.175C536.209 162.564 509.966 176.9 524.28 204.774C524.28 204.774 531.702 214.437 530.772 225.863C530.739 226.265 530.696 226.668 530.642 227.074C529.052 239.021 591.081 225.481 591.081 225.481V211.942C591.081 211.942 596.647 209.553 595.852 199.199C595.057 188.846 590.285 193.624 595.852 188.049C601.419 182.474 601.419 183.271 600.624 178.492C600.306 176.584 600.242 169.723 600.28 162.169C600.353 146.207 595.162 130.669 585.514 117.964L580.743 110Z" fill="#FA0026"/>
<path d="M565.64 130.375L513.786 184.616L438 244.44L454.753 258L594.359 164.674C594.359 164.674 606.325 113.624 565.64 130.375Z" fill="#FA0026"/>
<path d="M536.51 239.9C533.733 240.855 533.81 234.729 534.196 231.547C553.286 231.547 587.996 222 591.467 222C594.244 222 592.624 225.978 591.467 227.967C574.305 231.547 539.286 238.945 536.51 239.9Z" fill="#5F2B33"/>
<path d="M484.818 386.993C484.818 386.993 479.246 377.475 475.267 380.647L447.411 402.856C447.411 402.856 398.065 417.133 445.819 428.237C445.819 428.237 472.083 432.203 477.655 428.237C483.226 424.272 491.981 425.065 494.368 426.651C496.756 428.237 527 425.858 527 419.513C527 413.167 510.319 385.435 510.319 385.435C510.319 385.435 500.736 396.511 484.818 386.993Z" fill="#EAF0FC"/>
<path d="M599.818 532.993C599.818 532.993 594.246 523.475 590.267 526.647L562.411 548.856C562.411 548.856 513.065 563.133 560.819 574.237C560.819 574.237 587.083 578.203 592.655 574.237C598.226 570.272 606.981 571.065 609.368 572.651C611.756 574.237 642 571.858 642 565.513C642 559.167 625.32 531.435 625.32 531.435C625.32 531.435 615.736 542.511 599.818 532.993Z" fill="#EAF0FC"/>
<mask id="mask0" mask-type="alpha" maskUnits="userSpaceOnUse" x="539" y="525" width="104" height="51">
<path d="M599.694 532.64C599.694 532.64 594.106 523.08 590.115 526.267L562.177 548.573C562.177 548.573 512.686 562.912 560.58 574.065C560.58 574.065 586.922 578.049 592.51 574.065C598.097 570.082 606.878 570.879 609.273 572.472C611.667 574.065 642 571.676 642 565.302C642 558.929 625.271 531.075 625.271 531.075C625.271 531.075 615.658 542.2 599.694 532.64Z" fill="#EAF0FC"/>
</mask>
<g mask="url(#mask0)">
<path d="M620.162 556.127C630.843 551.951 624.612 537.372 620.162 530.604L631.192 527.704L643.383 545.686L650.929 576.43L569.075 579.33L531.341 562.508L540.629 556.127C542.564 556.127 547.131 557.404 549.918 562.508C553.401 568.889 575.461 564.829 585.33 562.508C595.199 560.188 606.809 561.348 620.162 556.127Z" fill="#C5D8FE"/>
</g>
<mask id="mask1" mask-type="alpha" maskUnits="userSpaceOnUse" x="539" y="525" width="104" height="51">
<path d="M599.694 532.64C599.694 532.64 594.106 523.08 590.115 526.267L562.177 548.573C562.177 548.573 512.686 562.912 560.58 574.065C560.58 574.065 586.922 578.049 592.51 574.065C598.097 570.082 606.878 570.879 609.273 572.472C611.667 574.065 642 571.676 642 565.302C642 558.929 625.271 531.075 625.271 531.075C625.271 531.075 615.658 542.2 599.694 532.64Z" fill="#EAF0FC"/>
</mask>
<g mask="url(#mask1)">
<path d="M620.162 556.127C630.843 551.951 624.612 537.372 620.162 530.604L631.192 527.704L643.383 545.686L650.929 576.43L569.075 579.33L531.341 562.508L540.629 556.127C542.564 556.127 547.131 557.404 549.918 562.508C553.401 568.889 575.461 564.829 585.33 562.508C595.199 560.188 606.809 561.348 620.162 556.127Z" fill="#C5D8FE"/>
</g>
<mask id="mask2" mask-type="alpha" maskUnits="userSpaceOnUse" x="424" y="380" width="104" height="51">
<path d="M484.749 387.623C484.749 387.623 479.162 378.063 475.171 381.25L447.232 403.556C447.232 403.556 397.742 417.896 445.636 429.049C445.636 429.049 471.978 433.032 477.565 429.049C483.153 425.066 491.933 425.862 494.328 427.456C496.723 429.049 527.056 426.659 527.056 420.286C527.056 413.913 510.326 386.059 510.326 386.059C510.326 386.059 500.714 397.183 484.749 387.623Z" fill="#EAF0FC"/>
</mask>
<g mask="url(#mask2)">
<path d="M505.217 411.111C515.899 406.934 509.668 392.355 505.217 385.588L516.247 382.688L528.438 400.67L535.985 431.413L454.131 434.314L416.396 417.492L425.685 411.111C427.62 411.111 432.187 412.387 434.973 417.492C438.457 423.872 460.517 419.812 470.386 417.492C480.255 415.171 491.865 416.332 505.217 411.111Z" fill="#C5D8FE"/>
</g>
<path d="M520 66.6914C520 66.6914 524.872 24.059 566.541 36.1637C566.541 36.1637 596.02 30.195 606.432 66.8446L617 105.269L612.163 102.767L610.024 107.666L602.304 109.77L598.858 103.274L597.406 111.27L544.091 122C544.091 122 562.122 101.493 561.994 71.4578L556.684 77.2636L520 66.6914Z" fill="#FF6A3A"/>
<path d="M363.526 434.901C398.77 434.901 427.341 431.135 427.341 426.489C427.341 421.843 398.77 418.077 363.526 418.077C328.281 418.077 299.71 421.843 299.71 426.489C299.71 431.135 328.281 434.901 363.526 434.901Z" fill="#2F2E41"/>
<path d="M398.194 324.778H397.438V304.123C397.438 302.553 397.129 300.999 396.527 299.549C395.925 298.098 395.042 296.78 393.93 295.67C392.818 294.56 391.497 293.68 390.044 293.079C388.591 292.478 387.033 292.169 385.46 292.169H341.614C340.041 292.169 338.483 292.478 337.03 293.079C335.577 293.68 334.256 294.56 333.144 295.67C332.032 296.78 331.149 298.098 330.547 299.549C329.946 300.999 329.636 302.553 329.636 304.123V417.436C329.636 419.006 329.946 420.56 330.547 422.011C331.149 423.461 332.032 424.779 333.144 425.889C334.256 426.999 335.577 427.88 337.03 428.48C338.483 429.081 340.041 429.39 341.614 429.39H385.46C387.033 429.39 388.591 429.081 390.044 428.48C391.497 427.88 392.818 426.999 393.93 425.889C395.042 424.779 395.925 423.461 396.527 422.011C397.129 420.56 397.438 419.006 397.438 417.436V339.48H398.194V324.778Z" fill="#3F3D56"/>
<path d="M385.661 295.562H379.938C380.201 296.206 380.301 296.904 380.23 297.596C380.159 298.288 379.919 298.952 379.53 299.529C379.141 300.106 378.616 300.579 378.001 300.907C377.386 301.234 376.7 301.405 376.003 301.405H350.884C350.187 301.405 349.501 301.234 348.886 300.907C348.271 300.579 347.746 300.106 347.357 299.529C346.968 298.952 346.728 298.288 346.656 297.596C346.585 296.904 346.686 296.206 346.949 295.562H341.603C340.429 295.562 339.265 295.792 338.18 296.241C337.095 296.69 336.109 297.347 335.278 298.176C334.448 299.005 333.789 299.989 333.339 301.073C332.89 302.156 332.658 303.316 332.658 304.489V417.635C332.658 418.808 332.89 419.968 333.339 421.052C333.789 422.135 334.448 423.119 335.278 423.948C336.109 424.777 337.095 425.434 338.18 425.883C339.265 426.332 340.429 426.563 341.603 426.563H385.661C386.836 426.563 387.999 426.332 389.084 425.883C390.169 425.434 391.156 424.777 391.986 423.948C392.817 423.119 393.476 422.135 393.925 421.052C394.375 419.968 394.606 418.808 394.606 417.635V304.489C394.606 303.316 394.375 302.156 393.925 301.073C393.476 299.989 392.817 299.005 391.986 298.176C391.156 297.347 390.169 296.69 389.084 296.241C387.999 295.792 386.836 295.562 385.661 295.562Z" fill="#56D7FF"/>
<path d="M353.893 348.38C360.875 348.38 366.535 342.731 366.535 335.762C366.535 328.794 360.875 323.145 353.893 323.145C346.91 323.145 341.25 328.794 341.25 335.762C341.25 342.731 346.91 348.38 353.893 348.38Z" fill="#EAF0FC"/>
<path d="M386.756 354.074L371.464 338.812C373.343 335.955 374.092 332.503 373.568 329.126C373.044 325.748 371.284 322.685 368.628 320.528C365.971 318.371 362.608 317.274 359.188 317.449C355.768 317.624 352.534 319.058 350.113 321.475C347.691 323.892 346.254 327.119 346.079 330.532C345.903 333.945 347.003 337.302 349.164 339.953C351.325 342.604 354.395 344.361 357.779 344.884C361.163 345.407 364.621 344.659 367.485 342.784L382.777 358.046L386.756 354.074ZM352.93 338.187C351.553 336.813 350.615 335.061 350.235 333.155C349.855 331.248 350.05 329.272 350.795 327.476C351.541 325.679 352.803 324.144 354.423 323.064C356.042 321.984 357.946 321.408 359.894 321.408C361.842 321.408 363.746 321.984 365.366 323.064C366.986 324.144 368.248 325.679 368.993 327.476C369.739 329.272 369.934 331.248 369.554 333.155C369.174 335.061 368.236 336.813 366.859 338.187C365.944 339.1 364.858 339.824 363.663 340.318C362.468 340.812 361.188 341.066 359.894 341.066C358.601 341.066 357.32 340.812 356.125 340.318C354.93 339.824 353.845 339.1 352.93 338.187Z" fill="white"/>
<path d="M388.209 368.809H338.842V374.817H388.209V368.809Z" fill="white"/>
</svg>
