<svg width="355" height="750" viewBox="0 0 355 750" fill="none" xmlns="http://www.w3.org/2000/svg">
<path d="M0 22.7543C0 10.1874 10.1874 0 22.7543 0H332.246C344.813 0 355 10.1874 355 22.7543V727.246C355 739.813 344.813 750 332.246 750H22.7543C10.1875 750 0 739.813 0 727.246V22.7543Z" fill="url(#paint0_linear)"/>
<mask id="mask0" mask-type="alpha" maskUnits="userSpaceOnUse" x="0" y="0" width="355" height="750">
<path d="M0 22.7543C0 10.1874 10.1874 0 22.7543 0H332.246C344.813 0 355 10.1874 355 22.7543V727.246C355 739.813 344.813 750 332.246 750H22.7543C10.1875 750 0 739.813 0 727.246V22.7543Z" fill="url(#paint1_linear)"/>
</mask>
<g mask="url(#mask0)">
<path d="M-636.419 538.809C9.74634 540.162 368.198 239.8 368.198 -151.385L721.57 -114.164L794 513.445L471.5 828.5C-80.5587 803.136 -1282.59 537.456 -636.419 538.809Z" fill="url(#paint2_linear)"/>
<path d="M78.1329 661.724C75.1537 661.888 72.8695 664.463 73.0309 667.477C73.1923 670.49 75.7383 672.8 78.7174 672.636C81.6966 672.472 83.9808 669.896 83.8194 666.883C83.658 663.87 81.112 661.56 78.1329 661.724Z" fill="#D0CDE1"/>
<path d="M64.4189 585.26C63.0949 585.333 62.0797 586.478 62.1514 587.817C62.2232 589.156 63.3547 590.183 64.6787 590.11C66.0027 590.037 67.0179 588.892 66.9462 587.553C66.8744 586.214 65.7429 585.187 64.4189 585.26Z" fill="#D0CDE1"/>
<path d="M183.529 452.239C182.205 452.312 181.19 453.457 181.261 454.796C181.333 456.135 182.465 457.162 183.789 457.089C185.113 457.016 186.128 455.871 186.056 454.532C185.985 453.193 184.853 452.166 183.529 452.239Z" fill="#D0CDE1"/>
<path d="M197.944 575.481C196.62 575.554 195.605 576.699 195.677 578.038C195.749 579.377 196.88 580.404 198.204 580.331C199.528 580.258 200.543 579.113 200.472 577.774C200.4 576.435 199.268 575.408 197.944 575.481Z" fill="#D0CDE1"/>
<path d="M187.977 666.964C186.134 664.586 182.742 664.17 180.4 666.034C178.059 667.898 177.655 671.337 179.498 673.715C181.341 676.093 184.733 676.509 187.075 674.645C189.416 672.781 189.82 669.342 187.977 666.964Z" fill="#D0CDE1"/>
<path d="M241.868 611.677C241.049 610.621 239.541 610.436 238.501 611.264C237.46 612.093 237.28 613.621 238.1 614.678C238.919 615.735 240.426 615.92 241.467 615.091C242.508 614.263 242.687 612.734 241.868 611.677Z" fill="#D0CDE1"/>
<path d="M278.333 34.3458C277.513 33.289 276.006 33.1039 274.965 33.9325C273.925 34.761 273.745 36.2894 274.564 37.3462C275.383 38.403 276.891 38.5881 277.932 37.7595C278.972 36.931 279.152 35.4026 278.333 34.3458Z" fill="#D0CDE1"/>
<path d="M6.10987 51.7388C7.33625 50.8498 7.62076 49.1235 6.74535 47.8831C5.86994 46.6427 4.16611 46.3578 2.93973 47.2468C1.71336 48.1359 1.42884 49.8621 2.30425 51.1026C3.17966 52.343 4.88349 52.6279 6.10987 51.7388Z" fill="#D0CDE1"/>
<path d="M32.4248 80.5707C32.9698 80.1756 33.0962 79.4084 32.7072 78.8571C32.3181 78.3058 31.5609 78.1791 31.0158 78.5743C30.4708 78.9694 30.3443 79.7366 30.7334 80.2879C31.1225 80.8392 31.8797 80.9658 32.4248 80.5707Z" fill="#D0CDE1"/>
<path d="M17.2447 170.039C17.7898 169.644 17.9162 168.877 17.5272 168.325C17.1381 167.774 16.3808 167.647 15.8358 168.043C15.2907 168.438 15.1643 169.205 15.5533 169.756C15.9424 170.308 16.6997 170.434 17.2447 170.039Z" fill="#D0CDE1"/>
<path d="M255.296 18.5775C255.892 18.8887 256.623 18.6526 256.93 18.0502C257.236 17.4477 257.002 16.707 256.406 16.3958C255.811 16.0846 255.079 16.3207 254.773 16.9231C254.466 17.5256 254.701 18.2663 255.296 18.5775Z" fill="#D0CDE1"/>
<path d="M308.496 114.818C308.587 115.491 309.198 115.962 309.86 115.871C310.523 115.779 310.987 115.159 310.896 114.486C310.805 113.813 310.195 113.342 309.532 113.434C308.87 113.526 308.406 114.145 308.496 114.818Z" fill="#D0CDE1"/>
<path d="M298.149 47.0546C298.24 47.7275 298.851 48.1987 299.513 48.1071C300.176 48.0154 300.64 47.3956 300.549 46.7226C300.458 46.0497 299.848 45.5785 299.185 45.6701C298.522 45.7618 298.059 46.3816 298.149 47.0546Z" fill="#D0CDE1"/>
</g>
<path d="M240.827 545.228C239.251 545.313 238.033 546.484 238.106 547.843C238.18 549.202 239.518 550.235 241.094 550.149C242.671 550.064 243.889 548.893 243.815 547.534C243.742 546.174 242.404 545.142 240.827 545.228Z" fill="#D0CDE1"/>
<path d="M297.385 450.293C296.685 450.331 296.143 450.851 296.176 451.455C296.209 452.059 296.803 452.518 297.504 452.48C298.205 452.442 298.746 451.921 298.713 451.317C298.681 450.713 298.086 450.255 297.385 450.293Z" fill="#D0CDE1"/>
<path d="M304.536 505.846C303.836 505.884 303.294 506.404 303.327 507.008C303.36 507.612 303.954 508.071 304.655 508.033C305.356 507.995 305.897 507.475 305.864 506.871C305.832 506.267 305.237 505.808 304.536 505.846Z" fill="#D0CDE1"/>
<path d="M37.8272 545.228C36.2507 545.313 35.0325 546.484 35.1063 547.843C35.1801 549.202 36.5179 550.235 38.0944 550.149C39.671 550.064 40.8892 548.893 40.8154 547.534C40.7416 546.174 39.4038 545.142 37.8272 545.228Z" fill="#D0CDE1"/>
<path d="M94.3853 450.293C93.6846 450.331 93.1432 450.851 93.176 451.455C93.2088 452.059 93.8034 452.518 94.504 452.48C95.2047 452.442 95.7461 451.921 95.7133 451.317C95.6805 450.713 95.0859 450.255 94.3853 450.293Z" fill="#D0CDE1"/>
<path d="M101.536 505.846C100.836 505.884 100.294 506.404 100.327 507.008C100.36 507.612 100.954 508.071 101.655 508.033C102.356 507.995 102.897 507.475 102.864 506.871C102.831 506.267 102.237 505.808 101.536 505.846Z" fill="#D0CDE1"/>
<path d="M307.134 205.939C306.388 205.979 305.832 206.905 305.892 208.006C305.952 209.107 306.605 209.967 307.351 209.927C308.097 209.886 308.653 208.961 308.594 207.859C308.534 206.758 307.881 205.898 307.134 205.939Z" fill="#D0CDE1"/>
<path d="M332.225 130.139C331.894 130.157 331.646 130.568 331.673 131.057C331.699 131.547 331.99 131.929 332.321 131.911C332.653 131.893 332.9 131.482 332.874 130.992C332.847 130.503 332.557 130.12 332.225 130.139Z" fill="#D0CDE1"/>
<path d="M336.63 175.229C336.298 175.247 336.051 175.658 336.078 176.148C336.104 176.637 336.395 177.019 336.726 177.001C337.058 176.983 337.305 176.572 337.279 176.082C337.252 175.593 336.962 175.211 336.63 175.229Z" fill="#D0CDE1"/>
<path d="M261.574 556.642L246.995 561.378L230.532 570.628L223.061 571.753L200.271 592.279L198.776 600.627L175.65 620.019L164.569 627.781L158.484 640.713L142.548 640.711C141.798 640.709 141.061 640.91 140.414 641.293C139.768 641.676 139.236 642.225 138.876 642.884C138.516 643.542 138.341 644.285 138.37 645.032C138.398 645.78 138.629 646.505 139.038 647.13C140.152 648.814 142.149 650.665 145.61 652.468C156.446 658.111 160.541 654.787 160.541 654.787C160.541 654.787 164.401 660.297 168.925 657.584C173.449 654.872 201.659 629.637 201.659 629.637L212.537 616.998L248.553 591.771L251.972 586.643L219.057 615.17L209.597 625.902L207.1 637.19L198.815 679.028L193.952 684.755C193.952 684.755 175.392 687.225 180.037 685.34C169.113 689.772 181.162 697.626 181.162 697.626L211.371 700.645L215.94 689.619L222.364 672.724L228.324 645.782L227.332 638.121L235.473 639.263L240.267 639.556L264.894 622.307L272.292 612.561L279.653 606.037L301.775 573.495C301.775 573.495 280.271 564.993 261.574 556.642Z" fill="white"/>
<path d="M343.681 449.95L341.817 449.112L326.3 483.594L328.164 484.433L343.681 449.95Z" fill="#E6E6E6"/>
<path d="M261.465 523.902L229.087 552.687L229.952 559.211L228.133 560.437L233.825 567.497L234.743 565.456L237.858 566.04L259.288 550.325L261.465 523.902Z" fill="#E6E6E6"/>
<path d="M230.037 561.309C230.037 561.309 209.731 574.316 221.913 583.14C234.096 591.964 233.143 564.796 233.143 564.796L230.037 561.309Z" fill="#E6E6E6"/>
<path d="M329.84 503.119C327.982 507.249 325.17 510.879 321.636 513.71C318.101 516.541 313.945 518.493 309.509 519.405C305.073 520.317 300.484 520.163 296.119 518.956C291.754 517.749 287.738 515.523 284.401 512.462C281.064 509.4 278.501 505.59 276.923 501.345C275.345 497.1 274.798 492.541 275.325 488.044C275.853 483.546 277.44 479.237 279.958 475.473C282.475 471.708 285.85 468.595 289.805 466.389L289.814 466.385C295.069 463.455 301.113 462.256 307.088 462.958C313.063 463.66 318.664 466.227 323.097 470.295C327.529 474.363 330.566 479.724 331.777 485.617C332.988 491.509 332.31 497.634 329.84 503.119Z" fill="url(#paint3_linear)"/>
<path d="M332.53 489.668L324.924 500.907C327.689 452.218 290.886 466.329 290.248 466.579C294.457 464.22 299.189 462.967 304.003 462.936C308.817 462.906 313.556 464.099 317.777 466.404C321.999 468.71 325.566 472.052 328.146 476.12C330.725 480.188 332.233 484.849 332.53 489.668Z" fill="white"/>
<path d="M331.169 482.581L329.133 496.615C329.133 496.615 311.718 515.574 277.108 500.934L274.553 503.611L270.331 502.952L265.374 509.403L249.582 557.277C249.582 557.277 245.521 560.824 249.092 562.017C249.092 562.017 275.043 564.6 291.422 580.238C291.422 580.238 294.748 583.802 295.424 579.559C295.424 579.559 312.957 577.114 315.954 567.715C318.951 558.315 339.719 517.64 339.719 517.64C339.719 517.64 347.183 506.531 342.272 501.013C342.272 501.013 338.965 484.228 331.169 482.581Z" fill="white"/>
<path d="M271.09 591.502L268.101 582.457L272.494 581.004C271.811 579.722 269.454 575.249 268.992 573.3C268.992 573.3 265.107 568.402 265.244 563.202C265.244 563.202 263.694 564.128 262.893 562.328C262.092 560.529 257.959 556.75 262.543 553.79L262.583 552.189C262.045 551.726 261.648 551.121 261.438 550.443C260.917 548.899 261.347 547.402 262.375 547.043C263.404 546.684 264.646 547.675 265.155 549.216C265.416 549.951 265.438 550.75 265.219 551.499L266.009 553.055C266.009 553.055 270.784 550.033 271.441 559.503C271.441 559.503 271.373 561.175 270.442 561.483C270.442 561.483 273.213 567.986 273.083 570.697C273.083 570.697 275.418 576.52 275.11 578.049L275.724 579.911L280.377 578.377L283.413 587.579C285.972 587.338 287.768 587.679 288.08 588.611C288.622 590.254 284.407 593.128 278.66 595.028C272.913 596.928 267.821 597.135 267.278 595.496C266.921 594.48 268.469 592.959 271.09 591.502Z" fill="#FFD967"/>
<path opacity="0.1" d="M263.177 549.757C263.387 550.435 263.782 551.041 264.317 551.507L264.283 553.104C259.695 556.063 263.83 559.848 264.631 561.647C264.704 561.878 264.828 562.089 264.995 562.264C265.161 562.439 265.366 562.574 265.592 562.658C265.819 562.741 266.062 562.772 266.302 562.748C266.543 562.723 266.774 562.644 266.979 562.516C266.843 567.715 270.728 572.614 270.728 572.614C271.197 574.568 273.546 579.04 274.229 580.318L272.558 580.871C271.875 579.594 269.518 575.116 269.057 573.167C269.057 573.167 265.172 568.269 265.309 563.07C265.309 563.07 263.758 563.995 262.957 562.196C262.156 560.396 258.024 556.617 262.608 553.657L262.647 552.056C262.111 551.593 261.716 550.988 261.506 550.311C260.984 548.772 261.411 547.27 262.44 546.91C262.745 546.815 263.074 546.823 263.375 546.932C263.135 547.359 262.993 547.834 262.959 548.322C262.925 548.811 262.999 549.301 263.177 549.757Z" fill="black"/>
<path opacity="0.1" d="M271.14 591.375L268.151 582.33L269.814 581.775L272.803 590.82C270.181 592.281 268.641 593.782 268.978 594.832C269.496 596.392 274.132 596.278 279.525 594.632C279.249 594.727 278.973 594.825 278.689 594.918C272.947 596.819 267.85 597.029 267.308 595.386C266.987 594.357 268.532 592.835 271.14 591.375Z" fill="black"/>
<path d="M284.752 565.758C284.752 565.758 262.134 558.188 262.735 572.862C263.336 587.535 283.941 570.254 283.941 570.254L284.752 565.758Z" fill="#E6E6E6"/>
<path d="M319.969 517.535C319.969 517.535 314.201 520.344 312.297 528.217C310.392 536.089 308.188 554.635 308.188 554.635L282.518 563.453L284.544 573.51L314.818 571.752L321.822 570.747C326.759 556.155 329.554 540.933 330.119 525.57L330.214 522.977C330.214 522.977 324.989 517.3 319.969 517.535Z" fill="#E6E6E6"/>
<path d="M323.502 504.749C327.105 506.371 331.246 504.973 332.752 501.627C334.257 498.282 332.557 494.255 328.954 492.634C325.351 491.013 321.21 492.411 319.704 495.756C318.199 499.102 319.899 503.128 323.502 504.749Z" fill="#E6E6E6"/>
<path d="M340.65 454.191C343.224 455.349 346.249 454.202 347.407 451.628C348.565 449.054 347.418 446.029 344.844 444.871C342.271 443.713 339.246 444.861 338.087 447.434C336.929 450.008 338.077 453.033 340.65 454.191Z" fill="#E6E6E6"/>
<path d="M305.409 480.208L304.135 479.635L304.708 478.361L304.459 478.249L303.886 479.523L302.613 478.95L302.501 479.199L303.774 479.772L303.201 481.045L303.45 481.157L304.023 479.884L305.297 480.457L305.409 480.208Z" fill="#F2F2F2"/>
<path d="M289.804 485.002L288.955 484.62L289.337 483.771L289.171 483.696L288.789 484.545L287.94 484.163L287.865 484.329L288.714 484.711L288.332 485.56L288.498 485.635L288.88 484.786L289.729 485.168L289.804 485.002Z" fill="#F2F2F2"/>
<path d="M329.576 118.132C328.26 118.658 327.045 118.716 326.863 118.26C326.681 117.804 327.6 117.008 328.917 116.482C330.233 115.956 331.448 115.899 331.63 116.355C331.812 116.81 330.893 117.606 329.576 118.132Z" fill="#EAF0FC"/>
<path d="M303.096 133.815C301.779 134.341 300.564 134.398 300.382 133.942C300.2 133.487 301.12 132.691 302.436 132.165C303.753 131.639 304.968 131.581 305.15 132.037C305.332 132.493 304.412 133.289 303.096 133.815Z" fill="#EAF0FC"/>
<path d="M275.97 137.443C274.653 137.969 273.439 138.027 273.257 137.571C273.074 137.115 273.994 136.319 275.311 135.793C276.627 135.267 277.842 135.21 278.024 135.666C278.206 136.121 277.286 136.917 275.97 137.443Z" fill="#EAF0FC"/>
<path d="M318.398 114.603L328.437 116.966" stroke="#EAF0FC" stroke-width="0.39068"/>
<path d="M300.305 123.404L303.585 133.183" stroke="#EAF0FC" stroke-width="0.39068"/>
<path d="M278.034 126.082L275.648 136.116" stroke="#EAF0FC" stroke-width="0.39068"/>
<path d="M302.183 124.669C285.549 131.317 270.741 133.397 269.109 129.314C267.477 125.231 279.639 116.531 296.274 109.883C312.908 103.235 327.716 101.156 329.348 105.239C330.98 109.322 318.818 118.021 302.183 124.669Z" fill="#D0CDE1"/>
<path fill-rule="evenodd" clip-rule="evenodd" d="M271.524 125.365C273.156 129.448 287.964 127.369 304.598 120.721C316.187 116.089 325.605 110.462 329.701 106.094C329.528 110.454 317.905 118.438 302.391 124.638C285.757 131.286 270.949 133.366 269.317 129.283C268.822 128.044 269.596 126.381 271.379 124.479C271.367 124.794 271.414 125.09 271.524 125.365Z" fill="white"/>
<path d="M299.227 119.713C289.343 123.663 280.222 124.092 278.855 120.671C277.488 117.251 284.392 111.275 294.276 107.325C304.16 103.375 313.281 102.946 314.648 106.367C316.015 109.787 309.111 115.763 299.227 119.713Z" fill="#D7FFEC"/>
<path fill-rule="evenodd" clip-rule="evenodd" d="M281.367 117.047C282.734 120.468 291.855 120.039 301.739 116.089C307.239 113.89 311.817 111.065 314.56 108.401C313.762 111.876 307.494 116.727 299.052 120.101C289.168 124.051 280.048 124.48 278.68 121.059C278.074 119.542 279.095 117.523 281.28 115.4C281.144 115.994 281.167 116.548 281.367 117.047Z" fill="#90EB71"/>
<path d="M44.3757 200.016C59.4948 200.016 71.7513 198.15 71.7513 195.848C71.7513 193.546 59.4948 191.681 44.3757 191.681C29.2565 191.681 17 193.546 17 195.848C17 198.15 29.2565 200.016 44.3757 200.016Z" fill="#BF001D"/>
<path d="M47.1603 197.237C35.9696 197.237 19.3206 196.004 19.3206 192.607C19.3206 189.209 35.9696 187.976 47.1603 187.976C58.351 187.976 75 189.209 75 192.607C75 196.004 58.351 197.237 47.1603 197.237ZM47.1603 188.902C39.8705 188.902 33.0207 189.334 27.8728 190.118C21.842 191.036 20.2486 192.147 20.2486 192.607C20.2486 193.066 21.842 194.178 27.8728 195.096C33.0207 195.88 39.8705 196.311 47.1603 196.311C54.4501 196.311 61.2999 195.88 66.4478 195.096C72.4786 194.178 74.072 193.066 74.072 192.607C74.072 192.147 72.4786 191.036 66.4478 190.118C61.2999 189.334 54.4501 188.902 47.1603 188.902Z" fill="#D0CDE1"/>
<path d="M47.1602 125C37.4223 125 29.5283 127.321 29.5283 137.04C29.5283 146.758 37.4224 185.661 47.1602 185.661C56.8979 185.661 64.792 146.758 64.792 137.04C64.792 127.321 56.8979 125 47.1602 125ZM47.1602 150.005C45.6918 150.005 44.2565 149.571 43.0356 148.757C41.8148 147.942 40.8632 146.785 40.3013 145.432C39.7394 144.078 39.5924 142.588 39.8789 141.151C40.1653 139.714 40.8724 138.393 41.9107 137.357C42.9489 136.321 44.2717 135.616 45.7118 135.33C47.1519 135.044 48.6447 135.191 50.0012 135.751C51.3577 136.312 52.5172 137.262 53.3329 138.48C54.1487 139.698 54.5841 141.131 54.5841 142.596C54.5841 143.569 54.3921 144.533 54.019 145.432C53.6459 146.33 53.0991 147.147 52.4097 147.835C51.7203 148.523 50.9019 149.069 50.0012 149.441C49.1005 149.814 48.1351 150.005 47.1602 150.005Z" fill="#BF001D"/>
<defs>
<linearGradient id="paint0_linear" x1="464.643" y1="634.375" x2="-58.1012" y2="401.181" gradientUnits="userSpaceOnUse">
<stop stop-color="#C1F0FF"/>
<stop offset="0.162552" stop-color="#BBE8FB"/>
<stop offset="0.215265" stop-color="#ABD4F2"/>
<stop offset="0.981573" stop-color="#030094"/>
</linearGradient>
<linearGradient id="paint1_linear" x1="464.643" y1="634.375" x2="-58.1012" y2="401.181" gradientUnits="userSpaceOnUse">
<stop stop-color="#C1F0FF"/>
<stop offset="0.162552" stop-color="#BBE8FB"/>
<stop offset="0.215265" stop-color="#ABD4F2"/>
<stop offset="0.981573" stop-color="#030094"/>
</linearGradient>
<linearGradient id="paint2_linear" x1="-20" y1="-157" x2="678.838" y2="689.439" gradientUnits="userSpaceOnUse">
<stop stop-color="#41405B"/>
<stop offset="0.94684" stop-color="#25083D"/>
</linearGradient>
<linearGradient id="paint3_linear" x1="202.499" y1="468.851" x2="308.471" y2="560.531" gradientUnits="userSpaceOnUse">
<stop stop-color="#B0ECFF"/>
<stop offset="1" stop-color="#030094"/>
</linearGradient>
</defs>
</svg>
