<svg width="980" height="1210" viewBox="0 0 980 1210" fill="none" xmlns="http://www.w3.org/2000/svg">
<rect width="960" height="1210" rx="30" fill="url(#paint0_linear)"/>
<path d="M76.2727 919.071C77.8635 920.069 79.96 919.59 80.9554 918.003C81.9508 916.415 81.4682 914.32 79.8774 913.322C78.2866 912.325 76.1901 912.803 75.1947 914.391C74.1993 915.978 74.682 918.074 76.2727 919.071Z" fill="#D0CDE1"/>
<path d="M407.679 433.73C406.412 432.24 404.18 432.057 402.693 433.321C401.206 434.585 401.027 436.818 402.294 438.308C403.56 439.798 405.793 439.982 407.28 438.717C408.767 437.453 408.946 435.22 407.679 433.73Z" fill="#D0CDE1"/>
<mask id="mask0" mask-type="alpha" maskUnits="userSpaceOnUse" x="0" y="0" width="960" height="1210">
<rect width="960" height="1210" rx="30" fill="url(#paint1_linear)"/>
</mask>
<g mask="url(#mask0)">
<path d="M-674.766 1064.3C254.792 1066.46 770.452 586.311 770.452 -39.0246L1278.8 20.4768L1383 1023.75L770.452 1290C-23.7259 1249.45 -1604.32 1062.13 -674.766 1064.3Z" fill="url(#paint2_linear)"/>
</g>
<path d="M608.254 1109C603.86 1109.24 600.491 1112.99 600.729 1117.38C600.967 1121.76 604.722 1125.12 609.116 1124.88C613.51 1124.64 616.88 1120.9 616.641 1116.51C616.403 1112.13 612.648 1108.76 608.254 1109Z" fill="#D0CDE1"/>
<path d="M588.027 997.729C586.074 997.835 584.577 999.501 584.683 1001.45C584.789 1003.4 586.458 1004.89 588.41 1004.79C590.363 1004.68 591.861 1003.01 591.755 1001.07C591.649 999.117 589.98 997.623 588.027 997.729Z" fill="#D0CDE1"/>
<path d="M763.706 804.149C761.753 804.255 760.255 805.921 760.361 807.87C760.467 809.819 762.136 811.313 764.089 811.207C766.042 811.101 767.539 809.435 767.433 807.486C767.327 805.537 765.658 804.043 763.706 804.149Z" fill="#D0CDE1"/>
<path d="M291.536 697.06C289.583 697.166 288.086 698.832 288.192 700.781C288.297 702.73 289.966 704.224 291.919 704.118C293.872 704.012 295.369 702.346 295.263 700.397C295.158 698.448 293.489 696.954 291.536 697.06Z" fill="#D0CDE1"/>
<path d="M784.967 983.498C783.014 983.604 781.517 985.27 781.623 987.219C781.728 989.168 783.397 990.662 785.35 990.555C787.303 990.449 788.8 988.784 788.695 986.835C788.589 984.886 786.92 983.392 784.967 983.498Z" fill="#D0CDE1"/>
<path d="M138.254 1111C133.86 1111.24 130.491 1114.99 130.729 1119.38C130.967 1123.76 134.722 1127.12 139.116 1126.88C143.51 1126.64 146.88 1122.9 146.641 1118.51C146.403 1114.13 142.648 1110.76 138.254 1111Z" fill="#D0CDE1"/>
<path d="M118.027 999.729C116.074 999.835 114.577 1001.5 114.683 1003.45C114.789 1005.4 116.458 1006.89 118.41 1006.79C120.363 1006.68 121.861 1005.01 121.755 1003.07C121.649 1001.12 119.98 999.623 118.027 999.729Z" fill="#D0CDE1"/>
<path d="M293.706 806.149C291.753 806.255 290.255 807.921 290.361 809.87C290.467 811.819 292.136 813.313 294.089 813.207C296.042 813.101 297.539 811.435 297.433 809.486C297.327 807.537 295.658 806.043 293.706 806.149Z" fill="#D0CDE1"/>
<path d="M314.967 985.498C313.014 985.604 311.517 987.27 311.623 989.219C311.728 991.168 313.397 992.662 315.35 992.555C317.303 992.449 318.8 990.784 318.695 988.835C318.589 986.886 316.92 985.392 314.967 985.498Z" fill="#D0CDE1"/>
<path d="M300.266 1118.63C297.547 1115.17 292.544 1114.56 289.091 1117.28C285.637 1119.99 285.042 1124.99 287.76 1128.45C290.478 1131.91 295.482 1132.52 298.935 1129.81C302.388 1127.09 302.984 1122.09 300.266 1118.63Z" fill="#D0CDE1"/>
<path d="M379.751 1038.17C378.543 1036.63 376.319 1036.37 374.785 1037.57C373.25 1038.78 372.985 1041 374.193 1042.54C375.401 1044.08 377.625 1044.35 379.16 1043.14C380.695 1041.93 380.959 1039.71 379.751 1038.17Z" fill="#D0CDE1"/>
<path d="M639.113 1070.84C637.905 1069.3 635.682 1069.04 634.147 1070.24C632.612 1071.45 632.347 1073.67 633.555 1075.21C634.763 1076.75 636.987 1077.02 638.522 1075.81C640.057 1074.6 640.322 1072.38 639.113 1070.84Z" fill="#D0CDE1"/>
<path d="M455.657 622.785C454.449 621.247 452.226 620.977 450.691 622.183C449.156 623.389 448.891 625.613 450.099 627.151C451.307 628.689 453.531 628.958 455.066 627.753C456.601 626.547 456.866 624.323 455.657 622.785Z" fill="#D0CDE1"/>
<path d="M504.489 1191.24C503.281 1189.7 501.057 1189.43 499.523 1190.63C497.988 1191.84 497.723 1194.06 498.931 1195.6C500.139 1197.14 502.363 1197.41 503.898 1196.2C505.433 1195 505.697 1192.77 504.489 1191.24Z" fill="#D0CDE1"/>
<path d="M872.32 537.524C872.28 533.124 868.687 529.59 864.295 529.63C859.904 529.671 856.377 533.271 856.418 537.671C856.458 542.072 860.051 545.606 864.443 545.565C868.834 545.525 872.361 541.925 872.32 537.524Z" fill="#D0CDE1"/>
<path d="M984.392 522.323C984.373 520.367 982.777 518.796 980.825 518.814C978.873 518.832 977.306 520.432 977.324 522.388C977.342 524.343 978.939 525.914 980.89 525.896C982.842 525.878 984.41 524.278 984.392 522.323Z" fill="#D0CDE1"/>
<path d="M891.462 67.9101C891.421 63.5098 887.828 59.9756 883.437 60.0162C879.045 60.0568 875.518 63.6568 875.559 68.0571C875.6 72.4574 879.193 75.9916 883.584 75.951C887.976 75.9104 891.502 72.3104 891.462 67.9101Z" fill="#D0CDE1"/>
<path d="M793.904 291.576C797.483 289.016 798.313 284.045 795.758 280.473C793.203 276.901 788.231 276.08 784.652 278.641C781.072 281.201 780.242 286.171 782.797 289.743C785.352 293.315 790.324 294.136 793.904 291.576Z" fill="#D0CDE1"/>
<path d="M870.703 374.599C872.294 373.461 872.663 371.252 871.527 369.665C870.392 368.077 868.182 367.712 866.591 368.85C865 369.988 864.631 372.197 865.767 373.785C866.902 375.372 869.112 375.737 870.703 374.599Z" fill="#D0CDE1"/>
<path d="M826.4 632.23C827.991 631.092 828.36 628.882 827.225 627.295C826.089 625.707 823.879 625.343 822.288 626.481C820.698 627.618 820.329 629.828 821.464 631.415C822.6 633.003 824.81 633.367 826.4 632.23Z" fill="#D0CDE1"/>
<path d="M712.185 492.327C713.775 491.189 714.144 488.98 713.009 487.392C711.873 485.804 709.663 485.44 708.073 486.578C706.482 487.715 706.113 489.925 707.248 491.512C708.384 493.1 710.594 493.464 712.185 492.327Z" fill="#D0CDE1"/>
<path d="M708.683 844.325L679.079 853.941L645.647 872.725L630.476 875.011L584.197 916.693L581.162 933.644L534.202 973.022L511.698 988.785L499.343 1015.04L466.981 1015.04C465.459 1015.04 463.962 1015.45 462.649 1016.22C461.336 1017 460.257 1018.12 459.526 1019.45C458.795 1020.79 458.44 1022.3 458.497 1023.82C458.555 1025.33 459.024 1026.81 459.854 1028.08C462.117 1031.5 466.172 1035.25 473.2 1038.91C495.204 1050.37 503.52 1043.62 503.52 1043.62C503.52 1043.62 511.357 1054.81 520.544 1049.3C529.731 1043.8 587.016 992.553 587.016 992.553L609.106 966.888L682.243 915.661L689.185 905.246L622.345 963.175L603.135 984.969L598.065 1007.89L581.242 1092.85L571.367 1104.48C571.367 1104.48 533.676 1109.49 543.109 1105.67C520.926 1114.67 545.393 1130.62 545.393 1130.62L606.737 1136.75L616.016 1114.36L629.062 1080.05L641.164 1025.34L639.149 1009.78L655.682 1012.1L665.416 1012.69L715.424 977.668L730.448 957.878L745.395 944.63L790.318 878.549C790.318 878.549 746.65 861.283 708.683 844.325Z" fill="white"/>
<path d="M875.407 627.677L871.622 625.974L840.113 695.996L843.898 697.699L875.407 627.677Z" fill="#E6E6E6"/>
<path d="M708.456 777.847L642.707 836.3L644.463 849.548L640.77 852.038L652.327 866.375L654.191 862.231L660.518 863.416L704.033 831.504L708.456 777.847Z" fill="#E6E6E6"/>
<path d="M644.635 853.809C644.635 853.809 603.401 880.22 628.139 898.14C652.878 916.059 650.944 860.89 650.944 860.89L644.635 853.809Z" fill="#E6E6E6"/>
<path d="M847.302 735.645C843.529 744.031 837.819 751.402 830.641 757.151C823.464 762.901 815.024 766.864 806.017 768.716C797.009 770.568 787.69 770.256 778.826 767.805C769.962 765.353 761.807 760.833 755.03 754.616C748.253 748.399 743.049 740.663 739.845 732.042C736.642 723.422 735.53 714.165 736.601 705.031C737.672 695.898 740.896 687.149 746.007 679.505C751.119 671.86 757.972 665.538 766.003 661.058L766.023 661.05C776.693 655.101 788.966 652.666 801.099 654.091C813.232 655.517 824.607 660.73 833.608 668.99C842.608 677.251 848.776 688.137 851.234 700.104C853.693 712.07 852.317 724.506 847.302 735.645Z" fill="url(#paint3_linear)"/>
<path d="M852.763 708.33L837.319 731.153C842.934 632.282 768.199 660.938 766.903 661.444C775.45 656.654 785.059 654.109 794.835 654.047C804.61 653.985 814.233 656.408 822.806 661.09C831.379 665.771 838.622 672.559 843.861 680.819C849.099 689.08 852.162 698.545 852.763 708.33Z" fill="white"/>
<path d="M849.999 693.939L845.866 722.438C845.866 722.438 810.501 760.936 740.22 731.207L735.031 736.645L726.458 735.305L716.393 748.404L684.325 845.621C684.325 845.621 676.079 852.824 683.33 855.247C683.33 855.247 736.027 860.492 769.287 892.248C769.287 892.248 776.041 899.484 777.415 890.869C777.415 890.869 813.017 885.903 819.104 866.816C825.19 847.729 867.363 765.133 867.363 765.133C867.363 765.133 882.52 742.572 872.546 731.369C872.546 731.369 865.83 697.284 849.999 693.939Z" fill="white"/>
<path d="M728 915.121L721.93 896.753L730.851 893.802C729.464 891.2 724.678 882.115 723.74 878.158C723.74 878.158 715.851 868.211 716.129 857.653C716.129 857.653 712.981 859.533 711.354 855.879C709.728 852.224 701.336 844.55 710.644 838.539L710.724 835.289C709.633 834.348 708.827 833.119 708.399 831.743C707.341 828.609 708.215 825.569 710.303 824.839C712.391 824.109 714.915 826.122 715.948 829.251C716.478 830.745 716.524 832.367 716.078 833.889L717.683 837.047C717.683 837.047 727.378 830.912 728.712 850.141C728.712 850.141 728.574 853.537 726.684 854.162C726.684 854.162 732.311 867.366 732.047 872.872C732.047 872.872 736.788 884.698 736.163 887.801L737.411 891.582L746.858 888.467L753.024 907.154C758.22 906.665 761.868 907.358 762.5 909.25C763.601 912.587 755.042 918.421 743.372 922.28C731.702 926.138 721.362 926.559 720.259 923.23C719.533 921.168 722.678 918.079 728 915.121Z" fill="#FFD967"/>
<path opacity="0.1" d="M711.932 830.352C712.359 831.728 713.16 832.958 714.246 833.904L714.177 837.148C704.86 843.157 713.258 850.841 714.885 854.496C715.032 854.964 715.284 855.392 715.622 855.748C715.961 856.104 716.376 856.377 716.836 856.547C717.296 856.718 717.789 856.78 718.278 856.731C718.766 856.681 719.236 856.52 719.653 856.26C719.375 866.818 727.264 876.765 727.264 876.765C728.217 880.734 732.987 889.815 734.375 892.409L730.982 893.534C729.594 890.94 724.809 881.847 723.871 877.889C723.871 877.889 715.982 867.943 716.26 857.385C716.26 857.385 713.112 859.264 711.485 855.61C709.859 851.956 701.467 844.281 710.776 838.271L710.855 835.02C709.767 834.079 708.965 832.851 708.539 831.476C707.479 828.35 708.346 825.3 710.434 824.57C711.055 824.377 711.723 824.392 712.334 824.614C711.847 825.481 711.558 826.445 711.489 827.438C711.419 828.43 711.57 829.425 711.932 830.352Z" fill="black"/>
<path opacity="0.1" d="M728.103 914.863L722.033 896.496L725.409 895.367L731.479 913.735C726.155 916.701 723.028 919.751 723.712 921.883C724.763 925.05 734.177 924.819 745.128 921.477C744.569 921.668 744.008 921.868 743.432 922.056C731.771 925.917 721.421 926.344 720.319 923.007C719.669 920.918 722.805 917.827 728.103 914.863Z" fill="black"/>
<path d="M755.743 862.844C755.743 862.844 709.813 847.472 711.034 877.269C712.254 907.066 754.095 871.973 754.095 871.973L755.743 862.844Z" fill="#E6E6E6"/>
<path d="M827.257 764.92C827.257 764.92 815.544 770.623 811.676 786.609C807.809 802.596 803.334 840.257 803.334 840.257L751.207 858.163L755.321 878.586L816.796 875.016L831.018 872.974C841.044 843.343 846.721 812.433 847.868 781.235L848.061 775.97C848.061 775.97 837.45 764.442 827.257 764.92Z" fill="#E6E6E6"/>
<path d="M834.431 738.956C841.747 742.248 850.157 739.41 853.214 732.616C856.271 725.822 852.818 717.646 845.502 714.354C838.185 711.061 829.776 713.9 826.719 720.693C823.662 727.487 827.115 735.664 834.431 738.956Z" fill="#E6E6E6"/>
<path d="M869.254 636.289C874.479 638.64 880.622 636.31 882.974 631.084C885.326 625.858 882.995 619.715 877.77 617.364C872.544 615.012 866.401 617.342 864.049 622.568C861.698 627.794 864.028 633.937 869.254 636.289Z" fill="#E6E6E6"/>
<path d="M797.689 689.12L795.103 687.956L796.267 685.37L795.762 685.143L794.598 687.729L792.012 686.565L791.784 687.071L794.371 688.234L793.207 690.82L793.712 691.048L794.876 688.462L797.462 689.625L797.689 689.12Z" fill="#F2F2F2"/>
<path d="M766.001 698.856L764.277 698.08L765.053 696.356L764.716 696.204L763.94 697.928L762.216 697.153L762.064 697.489L763.788 698.265L763.013 699.989L763.349 700.141L764.125 698.417L765.849 699.193L766.001 698.856Z" fill="#F2F2F2"/>
<path d="M852.221 138.919C848.615 141.214 845.048 142.063 844.254 140.815C843.459 139.567 845.738 136.695 849.344 134.399C852.95 132.104 856.517 131.256 857.312 132.504C858.106 133.752 855.827 136.624 852.221 138.919Z" fill="#EAF0FC"/>
<path d="M782.543 200.189C778.937 202.485 775.37 203.333 774.576 202.085C773.781 200.837 776.061 197.965 779.667 195.67C783.272 193.375 786.839 192.526 787.634 193.774C788.428 195.022 786.149 197.894 782.543 200.189Z" fill="#EAF0FC"/>
<path d="M704.212 226.112C700.606 228.407 697.039 229.255 696.245 228.008C695.451 226.76 697.73 223.887 701.336 221.592C704.942 219.297 708.509 218.448 709.303 219.696C710.097 220.944 707.818 223.817 704.212 226.112Z" fill="#EAF0FC"/>
<path d="M817.13 134.715L848.194 136.102" stroke="#EAF0FC" stroke-width="0.5"/>
<path d="M768.454 170.91L783.64 198.043" stroke="#EAF0FC" stroke-width="0.5"/>
<path d="M703.972 191.298L702.516 222.359" stroke="#EAF0FC" stroke-width="0.5"/>
<path d="M774.725 173.606C729.163 202.605 686.458 217.047 679.34 205.864C672.222 194.68 703.386 162.106 748.948 133.107C794.509 104.108 837.214 89.6659 844.333 100.849C851.451 112.033 820.286 144.607 774.725 173.606Z" fill="#D0CDE1"/>
<path fill-rule="evenodd" clip-rule="evenodd" d="M684.287 192.817C691.405 204 734.11 189.558 779.671 160.559C811.413 140.356 836.166 118.418 845.856 103.187C847.784 116.199 817.815 146.354 775.324 173.399C729.762 202.398 687.057 216.84 679.939 205.657C677.78 202.265 679.143 196.904 683.362 190.272C683.501 191.213 683.807 192.063 684.287 192.817Z" fill="white"/>
<path d="M763.194 160.576C736.122 177.807 709.342 184.18 703.378 174.811C697.414 165.441 714.526 143.877 741.598 126.646C768.67 109.415 795.451 103.042 801.415 112.412C807.378 121.782 790.267 143.346 763.194 160.576Z" fill="#D7FFEC"/>
<path fill-rule="evenodd" clip-rule="evenodd" d="M708.792 162.668C714.756 172.038 741.536 165.665 768.608 148.434C783.674 138.845 795.656 127.914 802.292 118.489C801.871 129.231 786.015 147.107 762.894 161.823C735.822 179.054 709.041 185.427 703.077 176.057C700.433 171.902 702.326 165.348 707.615 157.837C707.543 159.673 707.921 161.301 708.792 162.668Z" fill="#90EB71"/>
<defs>
<linearGradient id="paint0_linear" x1="848.736" y1="1135.27" x2="114.5" y2="228.5" gradientUnits="userSpaceOnUse">
<stop stop-color="#C1D2FF"/>
<stop offset="1" stop-color="#030094"/>
</linearGradient>
<linearGradient id="paint1_linear" x1="766.5" y1="1041.5" x2="25.3068" y2="72.2886" gradientUnits="userSpaceOnUse">
<stop stop-color="#3245F0"/>
<stop offset="1" stop-color="#030094"/>
</linearGradient>
<linearGradient id="paint2_linear" x1="212" y1="-48" x2="1345.5" y2="1187.5" gradientUnits="userSpaceOnUse">
<stop stop-color="#41405B"/>
<stop offset="0.94684" stop-color="#25083D"/>
</linearGradient>
<linearGradient id="paint3_linear" x1="588.715" y1="666.059" x2="803.908" y2="852.228" gradientUnits="userSpaceOnUse">
<stop stop-color="#B0ECFF"/>
<stop offset="1" stop-color="#030094"/>
</linearGradient>
</defs>
</svg>
