<svg width="40" height="40" viewBox="0 0 40 40" fill="none" xmlns="http://www.w3.org/2000/svg">
<g clip-path="url(#clip0)">
<path d="M24.9997 21.6671C24.0781 21.6671 23.3332 22.4138 23.3332 23.3336V30.0004C23.3332 30.9187 22.5864 31.667 21.6663 31.667H16.6664V6.66721C16.6664 5.24389 15.7597 3.97223 14.3965 3.49891L13.9031 3.33381H21.6663C22.5864 3.33381 23.3332 4.0821 23.3332 5.00067V10.0006C23.3332 10.9204 24.0781 11.6672 24.9997 11.6672C25.9214 11.6672 26.6663 10.9204 26.6663 10.0006V5.00067C26.6663 2.24404 24.423 0.000717163 21.6663 0.000717163H3.74996C3.68648 0.000717163 3.63338 0.0290983 3.57174 0.0373379C3.49148 0.0306241 3.41488 0.000717163 3.3334 0.000717163C1.49504 0.000717163 0 1.49545 0 3.33381V33.3335C0 34.7568 0.906668 36.0285 2.26987 36.5018L12.3 39.8453C12.6399 39.9503 12.9781 40.0003 13.3333 40.0003C15.1717 40.0003 16.6664 38.5053 16.6664 36.6669V35.0004H21.6663C24.423 35.0004 26.6663 32.757 26.6663 30.0004V23.3336C26.6663 22.4138 25.9214 21.6671 24.9997 21.6671Z" fill="#9698B4"/>
<path d="M39.511 15.4886L32.8442 8.82214C32.3678 8.34546 31.651 8.20203 31.0278 8.46021C30.4062 8.71869 29.9994 9.3269 29.9994 10.0004V15.0004H23.3329C22.4128 15.0004 21.666 15.7468 21.666 16.6669C21.666 17.587 22.4128 18.3335 23.3329 18.3335H29.9994V23.3334C29.9994 24.0069 30.4062 24.6151 31.0278 24.8736C31.651 25.1318 32.3678 24.9884 32.8442 24.512L39.511 17.8452C40.1625 17.1936 40.1625 16.1402 39.511 15.4886Z" fill="#9698B4"/>
</g>
<defs>
<clipPath id="clip0">
<rect width="40" height="40" fill="white"/>
</clipPath>
</defs>
</svg>
