<svg width="60" height="60" viewBox="0 0 60 60" fill="none" xmlns="http://www.w3.org/2000/svg">
<circle cx="30" cy="30" r="30" fill="#2945FF"/>
<path d="M47 18.6373C47 15.6425 44.3575 13 41.3627 13H18.6373C15.6425 13 13 15.6425 13 18.6373V41.3627C13 44.3575 15.6425 47 18.6373 47H30.0881V34.1399H25.8601V28.5026H30.0881V26.2124C30.0881 22.3368 32.9067 18.9896 36.4301 18.9896H41.0104V24.6269H36.4301C35.9016 24.6269 35.373 25.1554 35.373 26.2124V28.5026H41.0104V34.1399H35.373V47H41.3627C44.3575 47 47 44.3575 47 41.3627V18.6373Z" fill="white"/>
</svg>
