<svg width="72" height="43" viewBox="0 0 72 43" fill="none" xmlns="http://www.w3.org/2000/svg">
<rect x="0.5" width="71.25" height="43" rx="21.5" fill="#EAF0FC"/>
<path d="M50.5 22C50.5 13.7148 43.7852 7 35.5 7C27.2148 7 20.5 13.7148 20.5 22C20.5 30.2852 27.2148 37 35.5 37C35.5879 37 35.6758 37 35.7637 36.9941V25.3223H32.541V21.5664H35.7637V18.8008C35.7637 15.5957 37.7207 13.8496 40.5801 13.8496C41.9512 13.8496 43.1289 13.9492 43.4688 13.9961V17.3477H41.5C39.9473 17.3477 39.6426 18.0859 39.6426 19.1699V21.5605H43.3633L42.877 25.3164H39.6426V36.4199C45.9121 34.6211 50.5 28.8496 50.5 22Z" fill="white"/>
</svg>
