<svg width="258" height="199" viewBox="0 0 258 199" fill="none" xmlns="http://www.w3.org/2000/svg">
<path d="M93.82 182.26H47.54V37.18H14V0H93.82V182.26Z" fill="#9698B4"/>
<path d="M249.848 36.92H172.628V66.3H189.008C209.635 66.3 226.275 71.4133 238.928 81.64C251.582 91.6933 257.908 104.867 257.908 121.16C257.908 140.227 251.322 155.48 238.148 166.92C224.975 178.36 207.382 184.08 185.368 184.08C173.582 184.08 161.275 182 148.448 177.84C135.795 173.68 124.702 168.22 115.168 161.46L133.628 126.36C147.495 141.267 162.922 148.72 179.908 148.72C188.922 148.72 195.855 146.64 200.708 142.48C205.735 138.147 208.248 132.08 208.248 124.28C208.248 117.173 205.735 111.627 200.708 107.64C195.855 103.653 188.922 101.66 179.908 101.66C159.455 101.66 142.988 102.093 130.508 102.96V0.259997H249.848V36.92Z" fill="#9698B4"/>
<path d="M83.82 194.26H85.82V192.26V10V8H83.82H4H2V10V47.18V49.18H4H35.54V192.26V194.26H37.54H83.82ZM239.848 48.92H241.848V46.92V10.26V8.26H239.848H120.508H118.508V10.26V112.96V115.104L120.647 114.955C133.061 114.093 149.476 113.66 169.908 113.66C178.656 113.66 185.071 115.597 189.439 119.185L189.452 119.196L189.466 119.207C193.958 122.77 196.248 127.709 196.248 134.28C196.248 141.609 193.911 147.077 189.406 150.962C185.039 154.705 178.638 156.72 169.908 156.72C153.586 156.72 138.662 149.585 125.093 134.998L123.171 132.932L121.858 135.429L103.398 170.529L102.583 172.079L104.012 173.091C113.729 179.982 125.007 185.526 137.824 189.74L137.831 189.742C150.829 193.958 163.345 196.08 175.368 196.08C197.734 196.08 215.835 190.262 229.46 178.43C243.114 166.572 249.908 150.745 249.908 131.16C249.908 114.265 243.31 100.515 230.179 90.0789C217.084 79.4986 199.964 74.3 179.008 74.3H164.628V48.92H239.848Z" stroke="black" stroke-width="4"/>
</svg>
