<svg width="161" height="200" viewBox="0 0 161 200" fill="none" xmlns="http://www.w3.org/2000/svg">
<path d="M152.823 37.149H74.4876V66.9209H91.1043C112.029 66.9209 128.909 72.1024 141.746 82.4655C154.582 92.6529 161 106.002 161 122.513C161 141.834 154.318 157.29 140.954 168.883C127.591 180.476 109.743 186.272 87.4117 186.272C75.4547 186.272 62.9702 184.164 49.9582 179.949C37.122 175.733 25.8684 170.2 16.1973 163.35L34.924 127.782C48.9911 142.888 64.6407 150.44 81.8728 150.44C91.0164 150.44 98.0499 148.333 102.973 144.117C108.073 139.726 110.622 133.578 110.622 125.674C110.622 118.473 108.073 112.852 102.973 108.812C98.0499 104.772 91.0164 102.753 81.8728 102.753C61.1239 102.753 44.4193 103.192 31.7589 104.07V0H152.823V37.149Z" fill="#9698B4"/>
<path d="M142.626 48.6666H144.626V46.6666V9.51758V7.51758H142.626H21.5617H19.5617V9.51758V113.587V115.731L21.7001 115.583C34.2948 114.709 50.9478 114.27 71.6755 114.27C80.5535 114.27 87.069 116.234 91.5074 119.876L91.5207 119.887L91.5341 119.898C96.0991 123.514 98.425 128.527 98.425 135.192C98.425 142.626 96.0506 148.175 91.471 152.119C87.0342 155.916 80.5331 157.958 71.6755 157.958C55.1072 157.958 39.9602 150.723 26.1904 135.937L24.2699 133.874L22.9571 136.368L4.2303 171.936L3.4138 173.487L4.84399 174.5C14.699 181.48 26.1371 187.097 39.1369 191.366L39.1445 191.369C52.3275 195.64 65.0205 197.79 77.2144 197.79C99.8971 197.79 118.253 191.895 132.068 179.911C145.913 167.901 152.803 151.871 152.803 132.03C152.803 114.917 146.112 100.991 132.798 90.4214C119.52 79.705 102.16 74.4385 80.907 74.4385H66.2903V48.6666H142.626Z" stroke="#2B2949" stroke-opacity="0.8" stroke-width="4"/>
</svg>
