<svg width="50" height="50" viewBox="0 0 50 50" fill="none" xmlns="http://www.w3.org/2000/svg">
<path fill-rule="evenodd" clip-rule="evenodd" d="M25 50C38.8071 50 50 38.8071 50 25C50 11.1929 38.8071 0 25 0C11.1929 0 0 11.1929 0 25C0 38.8071 11.1929 50 25 50ZM37.1898 32.4315C37.2172 32.4586 37.2446 32.4857 37.2446 32.54C37.2446 32.6484 37.2445 32.7569 37.4634 32.9738V33.4075C37.4634 33.6244 37.354 33.7329 37.1351 33.8413C36.9163 33.9498 36.5881 34.0582 36.2598 34.0582L32.5397 34.1667H32.5396C32.3208 34.1667 32.102 34.1667 31.7738 34.0582C31.4455 33.9498 31.2267 33.8413 31.0078 33.7329L30.6796 33.516C30.4608 33.4076 30.1326 33.0822 29.695 32.6485L29.6949 32.6484L29.6946 32.6481C29.2571 32.2145 28.9289 31.8892 28.7101 31.5639C28.4913 31.2386 28.163 30.9132 27.8348 30.6963C27.616 30.4795 27.2877 30.371 27.0689 30.4795H26.9595L26.7406 30.6963C26.6312 30.8048 26.5218 30.9133 26.4124 31.1301C26.351 31.252 26.324 31.3738 26.2928 31.5148C26.2685 31.6248 26.2415 31.7466 26.1936 31.8893C26.0841 32.2146 26.0841 32.54 26.0841 32.9738V33.4075C26.0841 33.4618 26.0568 33.4889 26.0294 33.516C26.0021 33.5431 25.9747 33.5702 25.9747 33.6244L25.8653 33.7329C25.6465 33.9498 25.4276 34.0582 25.0994 34.0582H23.4582C22.8017 34.1667 22.1452 34.0582 21.3793 33.8413C20.7228 33.6244 20.0663 33.4075 19.5192 33.0822L19.5191 33.0821C18.972 32.7568 18.425 32.4315 17.9874 32.1062C17.5497 31.7809 17.2215 31.4555 17.0027 31.2387L17.0026 31.2386L16.6744 30.9132L16.2367 30.4795C16.1273 30.2626 15.799 29.8288 15.252 29.1781C14.9105 28.772 14.6117 28.3236 14.3023 27.8594C14.1159 27.5798 13.9258 27.2945 13.7201 27.0091C13.5876 26.7793 13.4351 26.5196 13.2685 26.2361C12.8849 25.5833 12.4272 24.8043 11.9695 23.9726C11.313 22.6712 10.6565 21.3699 10.1094 20.0685C10 19.8516 10 19.7431 10 19.6347V19.4178L10.1094 19.3094C10.2188 19.2009 10.4377 19.0925 10.8753 19.0925H14.8143C14.869 19.0925 14.9237 19.1196 14.9784 19.1467C15.0331 19.1738 15.0878 19.2009 15.1425 19.2009C15.252 19.2009 15.3614 19.3094 15.3614 19.3094H15.4708C15.5802 19.4178 15.6896 19.5263 15.799 19.7432C15.9085 20.0143 16.0179 20.2583 16.1273 20.5023C16.2367 20.7463 16.3461 20.9903 16.4555 21.2614C16.6744 21.8037 16.8932 22.2374 17.0026 22.4543L17.2214 22.8881C17.371 23.3328 17.5716 23.6761 17.7535 23.9874C17.8378 24.1317 17.9181 24.269 17.9874 24.4064C18.2062 24.8402 18.425 25.1655 18.6439 25.3824C18.7533 25.5993 18.9721 25.8162 19.1909 25.9247C19.3004 26.0331 19.5192 26.1416 19.6286 26.1416C19.7568 26.1416 19.8474 26.1043 19.9225 26.0735C19.9756 26.0517 20.0209 26.0331 20.0663 26.0331C20.1757 26.0331 20.1757 25.9247 20.1757 25.9247C20.2531 25.9247 20.2757 25.8704 20.321 25.762C20.3398 25.7171 20.3625 25.6628 20.3945 25.5993C20.5039 25.4909 20.6133 25.274 20.6133 24.9486C20.6133 24.8066 20.6342 24.6646 20.6577 24.5046C20.688 24.2979 20.7228 24.0613 20.7228 23.7557V22.0205C20.7228 21.5868 20.7228 21.2614 20.6133 20.9361C20.5715 20.8118 20.5457 20.7033 20.5237 20.6107C20.488 20.4608 20.4621 20.3524 20.3945 20.2854L20.2851 20.0685C20.0663 19.7431 19.6286 19.5263 19.0815 19.4178C18.9721 19.4178 18.9721 19.3094 19.1909 19.0925C19.3004 18.8756 19.5192 18.7671 19.738 18.6587L19.738 18.6587C20.1757 18.4418 21.3793 18.3333 23.1299 18.3333C23.8958 18.3333 24.5523 18.4418 25.0994 18.5502C25.1541 18.6045 25.2362 18.6316 25.3182 18.6587C25.4003 18.6858 25.4823 18.7129 25.5371 18.7671L25.8653 19.0925C25.8653 19.1467 25.8927 19.228 25.92 19.3094C25.9474 19.3907 25.9747 19.472 25.9747 19.5262V20.1769V20.9361V21.9121V23.105V23.7557V24.4064V24.9486C26.0227 25.0437 26.0496 25.1388 26.074 25.2248C26.1052 25.3349 26.1321 25.43 26.1936 25.4909L26.5218 25.8162C26.5218 25.9247 26.6312 25.9247 26.7406 25.9247C26.7406 26.0331 26.9595 25.9247 27.0689 25.8162C27.1395 25.6761 27.2558 25.5813 27.3882 25.4733C27.4609 25.414 27.5384 25.3508 27.6159 25.274C27.7762 25.1152 27.9364 24.8982 28.1396 24.6232C28.2139 24.5226 28.2939 24.4141 28.3819 24.2979C28.71 23.8643 29.0382 23.3222 29.3664 22.7801L29.3666 22.7797C29.4769 22.561 29.5872 22.3468 29.6966 22.1343C30.1298 21.2928 30.549 20.4787 30.8984 19.5262C30.8984 19.4178 30.8984 19.4178 31.0078 19.3094L31.0078 19.3094L31.1173 19.2009H31.2267H31.3361H31.5549H31.8832H36.041C36.3692 19.0925 36.6975 19.0925 36.9163 19.2009C37.1351 19.2009 37.2446 19.3094 37.354 19.4178L37.4634 19.5262C37.6822 20.1769 36.9163 21.5868 35.2751 23.7557C35.0498 23.9789 34.8761 24.2022 34.6479 24.4955C34.5435 24.6296 34.4277 24.7784 34.2903 24.9486C34.234 25.0205 34.1794 25.0899 34.1265 25.1572C33.4618 26.0033 33.0787 26.4908 32.9774 26.7922C32.8679 27.226 32.8679 27.5514 33.1962 27.9852C33.2556 28.0441 33.3232 28.1191 33.4032 28.2079C33.6177 28.4459 33.9217 28.7832 34.3997 29.1781C35.7127 30.371 36.6975 31.4555 37.1351 32.3231C37.1351 32.3773 37.1625 32.4044 37.1898 32.4315Z" fill="#55546E"/>
</svg>
