<svg width="40" height="40" viewBox="0 0 40 40" fill="none" xmlns="http://www.w3.org/2000/svg">
<circle cx="20" cy="20" r="20" fill="#EAF0FC"/>
<path d="M31.9683 10.7543L31.2752 10.125C30.1249 9.08024 28.3962 9.19671 27.3805 10.387L15.7869 23.9733L12.2874 20.7878C11.1382 19.7418 9.40926 19.8559 8.3924 21.045L7.77964 21.7616C7.28272 22.3424 7.0247 23.1085 7.06217 23.8911C7.10001 24.6733 7.43017 25.4076 7.98055 25.9325L14.3954 32.1411C14.9508 32.6923 15.6952 32.9798 16.456 32.9371C17.2168 32.8946 17.9281 32.5252 18.425 31.9148L32.2649 14.9191C32.7484 14.3254 32.9888 13.553 32.933 12.772C32.8774 11.9904 32.5304 11.2648 31.9683 10.7543Z" fill="white"/>
</svg>
