<svg width="336" height="200" viewBox="0 0 336 200" fill="none" xmlns="http://www.w3.org/2000/svg">
<path d="M61.8205 108.42H100.3V69.42H143.2V108.42H167.9V143.52H143.2V183.56H100.3V143.52H13.9805V112.58L71.4405 1.56H115.9L61.8205 108.42Z" fill="#9698B4"/>
<path d="M255.212 0C281.038 0 300.885 7.97333 314.752 23.92C328.618 39.8667 335.552 62.66 335.552 92.3C335.552 122.113 328.618 144.993 314.752 160.94C300.885 176.887 281.038 184.86 255.212 184.86C229.212 184.86 209.192 176.887 195.152 160.94C181.285 144.993 174.352 122.113 174.352 92.3C174.352 62.66 181.285 39.8667 195.152 23.92C209.192 7.97333 229.212 0 255.212 0ZM255.212 33.8C243.425 33.8 234.932 38.3933 229.732 47.58C224.532 56.5933 221.932 71.5 221.932 92.3C221.932 113.1 224.532 128.093 229.732 137.28C234.932 146.467 243.425 151.06 255.212 151.06C266.652 151.06 274.972 146.467 280.172 137.28C285.545 127.92 288.232 112.927 288.232 92.3C288.232 71.6733 285.545 56.7667 280.172 47.58C274.972 38.3933 266.652 33.8 255.212 33.8Z" fill="#9698B4"/>
<path d="M4 155.96H88.32V194V196H90.32H133.22H135.22V194V155.96H157.92H159.92V153.96V118.86V116.86H157.92H135.22V79.8599V77.8599H133.22H90.32H88.32V79.8599V116.86H55.0937L107.704 12.903L109.174 9.99994H105.92H61.46H60.2431L59.6838 11.0806L2.2238 122.101L2 122.533V123.02V153.96V155.96H4ZM183.662 172.692L183.67 172.702C198.173 189.174 218.796 197.3 245.231 197.3C271.497 197.3 291.951 189.171 306.28 172.692C320.572 156.257 327.571 132.839 327.571 102.74C327.571 72.8106 320.571 49.4813 306.28 33.0476C291.951 16.5685 271.497 8.43994 245.231 8.43994C218.796 8.43994 198.173 16.5657 183.67 33.0383L183.662 33.0476C169.372 49.4813 162.371 72.8106 162.371 102.74C162.371 132.839 169.37 156.257 183.662 172.692ZM221.484 59.0194L221.488 59.0123L221.492 59.0051C226.289 50.5294 234.063 46.2399 245.231 46.2399C256.024 46.2399 263.641 50.5072 268.451 59.0051L268.458 59.0175L268.465 59.0297C273.558 67.7372 276.251 82.1921 276.251 102.74C276.251 123.283 273.56 137.835 268.457 146.724L268.451 146.735C263.641 155.233 256.024 159.5 245.231 159.5C234.063 159.5 226.289 155.21 221.492 146.735C216.559 138.021 213.951 123.47 213.951 102.74C213.951 82.0048 216.561 67.5517 221.484 59.0194Z" stroke="black" stroke-width="4"/>
</svg>
