<svg width="50" height="50" viewBox="0 0 50 50" fill="none" xmlns="http://www.w3.org/2000/svg">
<path d="M32.451 13.3027H17.5487C15.1701 13.3027 13.2349 15.2379 13.2349 17.6166V32.5188C13.2349 34.8975 15.1701 36.8332 17.5487 36.8332H32.451C34.8296 36.8332 36.7654 34.898 36.7654 32.5188V17.6166C36.7654 15.2379 34.8302 13.3027 32.451 13.3027ZM24.9998 32.8141C20.7289 32.8141 17.254 29.3392 17.254 25.0677C17.254 20.7968 20.7289 17.3219 24.9998 17.3219C29.2713 17.3219 32.7462 20.7968 32.7462 25.0677C32.7462 29.3386 29.2708 32.8141 24.9998 32.8141ZM32.9952 18.9234C31.9842 18.9234 31.162 18.1012 31.162 17.0907C31.162 16.0802 31.9842 15.258 32.9952 15.258C34.0057 15.258 34.8279 16.0802 34.8279 17.0907C34.8279 18.1012 34.0057 18.9234 32.9952 18.9234Z" fill="white"/>
<path d="M25 20.5947C22.5345 20.5947 20.5269 22.6012 20.5269 25.0668C20.5269 27.5334 22.5345 29.5404 25 29.5404C27.4666 29.5404 29.4726 27.5334 29.4726 25.0668C29.4726 22.6018 27.4661 20.5947 25 20.5947Z" fill="white"/>
<path d="M25 0C11.1934 0 0 11.1934 0 25C0 38.8066 11.1934 50 25 50C38.8066 50 50 38.8066 50 25C50 11.1934 38.8066 0 25 0ZM40.0382 32.5185C40.0382 36.7026 36.6352 40.1056 32.4511 40.1056H17.5489C13.3654 40.1056 9.96179 36.7026 9.96179 32.5185V17.6163C9.96179 13.4328 13.3654 10.0292 17.5489 10.0292H32.4511C36.6352 10.0292 40.0382 13.4328 40.0382 17.6163V32.5185Z" fill="white"/>
</svg>
