<svg width="50" height="50" viewBox="0 0 50 50" fill="none" xmlns="http://www.w3.org/2000/svg">
<path d="M32.4512 13.3028H17.5489C15.1703 13.3028 13.2351 15.238 13.2351 17.6166V32.5189C13.2351 34.8975 15.1703 36.8333 17.5489 36.8333H32.4512C34.8298 36.8333 36.7656 34.8981 36.7656 32.5189V17.6166C36.7656 15.238 34.8304 13.3028 32.4512 13.3028ZM25.0001 32.8141C20.7291 32.8141 17.2542 29.3392 17.2542 25.0678C17.2542 20.7968 20.7291 17.3219 25.0001 17.3219C29.2716 17.3219 32.7465 20.7968 32.7465 25.0678C32.7465 29.3387 29.271 32.8141 25.0001 32.8141ZM32.9955 18.9235C31.9844 18.9235 31.1622 18.1013 31.1622 17.0908C31.1622 16.0803 31.9844 15.2581 32.9955 15.2581C34.006 15.2581 34.8282 16.0803 34.8282 17.0908C34.8282 18.1013 34.006 18.9235 32.9955 18.9235Z" fill="#2B2949" fill-opacity="0.8"/>
<path d="M25 20.5949C22.5345 20.5949 20.5269 22.6014 20.5269 25.0669C20.5269 27.5336 22.5345 29.5406 25 29.5406C27.4666 29.5406 29.4726 27.5336 29.4726 25.0669C29.4726 22.602 27.4661 20.5949 25 20.5949Z" fill="#2B2949" fill-opacity="0.8"/>
<path d="M25 0C11.1934 0 0 11.1934 0 25C0 38.8066 11.1934 50 25 50C38.8066 50 50 38.8066 50 25C50 11.1934 38.8066 0 25 0ZM40.0382 32.5185C40.0382 36.7026 36.6352 40.1056 32.4511 40.1056H17.5489C13.3654 40.1056 9.96179 36.7026 9.96179 32.5185V17.6163C9.96179 13.4328 13.3654 10.0292 17.5489 10.0292H32.4511C36.6352 10.0292 40.0382 13.4328 40.0382 17.6163V32.5185Z" fill="#2B2949" fill-opacity="0.8"/>
</svg>
