<svg width="50" height="50" viewBox="0 0 50 50" fill="none" xmlns="http://www.w3.org/2000/svg">
<path fill-rule="evenodd" clip-rule="evenodd" d="M50 25C50 38.8071 38.8071 50 25 50C11.1929 50 0 38.8071 0 25C0 11.1929 11.1929 0 25 0C38.8071 0 50 11.1929 50 25ZM26.7321 27.8825C26.7321 27.8455 26.7415 20.6519 33.9623 20.6519C41.5869 20.6519 40.5147 28.826 40.5147 28.826H30.7644C30.7644 32.3176 34.0724 32.0975 34.0724 32.0975C37.2062 32.0975 37.0966 30.0724 37.0966 30.0724H40.4046C40.4046 35.4514 33.9623 35.0851 33.9623 35.0851C26.2375 35.0851 26.7321 27.8825 26.7321 27.8825ZM34.0359 23.41C31.1307 23.41 30.7274 26.3058 30.7274 26.3058H36.9041C36.9041 26.3058 36.95 23.41 34.0359 23.41ZM25.3306 20.872C25.3306 24.2443 22.4624 24.455 22.4624 24.455C26.2468 24.455 25.9901 29.1286 25.9897 29.1286C25.9897 34.8743 20.0055 34.6907 20.0055 34.6907H10.2097V15.8594H20.0064C22.9847 15.8594 25.3306 17.5092 25.3306 20.872ZM20.006 19.204H14.5263V23.41H19.6668C20.5559 23.41 21.3349 23.1257 21.3349 21.1648C21.3349 19.204 20.006 19.204 20.006 19.204ZM14.5263 31.3461H19.7314C20.5104 31.3278 21.9855 31.0988 21.9855 28.8991C21.9949 26.2876 20.006 26.3058 20.006 26.3058H14.5263V31.3461ZM29.9118 19.2869V16.9681H37.6831V19.2869H29.9118Z" fill="white"/>
</svg>
