<svg width="50" height="50" viewBox="0 0 50 50" fill="none" xmlns="http://www.w3.org/2000/svg">
<path fill-rule="evenodd" clip-rule="evenodd" d="M50 25C50 38.8071 38.8071 50 25 50C11.1929 50 0 38.8071 0 25C0 11.1929 11.1929 0 25 0C38.8071 0 50 11.1929 50 25ZM36.8806 18.9062C38.0892 18.7627 39.2416 18.4414 40.313 17.9663C39.5122 19.1647 38.4992 20.2168 37.3307 21.0591C37.3423 21.3149 37.3481 21.5729 37.3481 21.8319C37.3481 29.7292 31.3372 38.8347 20.3457 38.8347C16.9712 38.8347 13.8294 37.8458 11.1863 36.1497C11.6529 36.2054 12.1297 36.2334 12.611 36.2334C15.4115 36.2334 17.9878 35.2784 20.0333 33.6754C17.4178 33.6268 15.2114 31.8991 14.4511 29.5255C14.8156 29.5951 15.1895 29.632 15.5755 29.632C16.1196 29.632 16.6486 29.5594 17.1495 29.4221C14.4163 28.8736 12.3557 26.4586 12.3557 23.5632C12.3557 23.5382 12.3557 23.5128 12.3561 23.4874C13.1614 23.9362 14.0834 24.2049 15.0625 24.2357C13.46 23.1643 12.4042 21.3345 12.4042 19.2618C12.4042 18.1668 12.6993 17.1396 13.2135 16.2572C16.1611 19.8737 20.5645 22.2526 25.5308 22.5017C25.4283 22.064 25.3753 21.6081 25.3753 21.1398C25.3753 17.8402 28.0514 15.1641 31.351 15.1641C33.0707 15.1641 34.6238 15.8896 35.7139 17.0505C37.0745 16.7827 38.3539 16.2858 39.5086 15.6008C39.0616 16.997 38.1146 18.1668 36.8806 18.9062Z" fill="white"/>
</svg>
