<svg width="51" height="51" viewBox="0 0 51 51" fill="none" xmlns="http://www.w3.org/2000/svg">
<path fill-rule="evenodd" clip-rule="evenodd" d="M25.6001 50.3262C39.4072 50.3262 50.6001 39.1333 50.6001 25.3262C50.6001 11.5191 39.4072 0.326172 25.6001 0.326172C11.793 0.326172 0.600098 11.5191 0.600098 25.3262C0.600098 39.1333 11.793 50.3262 25.6001 50.3262ZM37.7899 32.7577C37.8173 32.7848 37.8447 32.8119 37.8447 32.8661C37.8447 32.9746 37.8446 33.083 38.0635 33.2999V33.7337C38.0635 33.9506 37.9541 34.0591 37.7352 34.1675C37.5164 34.276 37.1882 34.3844 36.8599 34.3844L33.1398 34.4928H33.1397C32.9209 34.4928 32.7021 34.4928 32.3739 34.3844C32.0456 34.276 31.8268 34.1675 31.6079 34.0591L31.2797 33.8422C31.0609 33.7337 30.7327 33.4084 30.2951 32.9747L30.295 32.9746L30.2947 32.9743C29.8572 32.5406 29.529 32.2154 29.3102 31.8901C29.0914 31.5648 28.7631 31.2394 28.4349 31.0225C28.2161 30.8056 27.8878 30.6972 27.669 30.8056H27.5596L27.3407 31.0225C27.2313 31.131 27.1219 31.2394 27.0125 31.4563C26.951 31.5781 26.9241 31.6999 26.8929 31.8409C26.8686 31.951 26.8416 32.0728 26.7937 32.2155C26.6842 32.5408 26.6842 32.8661 26.6842 33.2999V33.7337C26.6842 33.7879 26.6569 33.815 26.6295 33.8422C26.6022 33.8693 26.5748 33.8964 26.5748 33.9506L26.4654 34.0591C26.2466 34.276 26.0277 34.3844 25.6995 34.3844H24.0583C23.4018 34.4928 22.7453 34.3844 21.9794 34.1675C21.3229 33.9506 20.6664 33.7337 20.1193 33.4084L20.1192 33.4083C19.5721 33.083 19.0251 32.7577 18.5875 32.4323C18.1498 32.107 17.8216 31.7817 17.6028 31.5648L17.6027 31.5648L17.2745 31.2394L16.8368 30.8056C16.7274 30.5887 16.3991 30.1549 15.8521 29.5043C15.5106 29.0981 15.2118 28.6498 14.9024 28.1855C14.716 27.906 14.5259 27.6206 14.3202 27.3353C14.1877 27.1055 14.0352 26.8458 13.8686 26.5623C13.485 25.9095 13.0273 25.1305 12.5696 24.2988C11.9131 22.9974 11.2566 21.696 10.7095 20.3947C10.6001 20.1778 10.6001 20.0693 10.6001 19.9609V19.744L10.7095 19.6355C10.8189 19.5271 11.0378 19.4186 11.4754 19.4186H15.4144C15.4691 19.4186 15.5238 19.4457 15.5785 19.4729C15.6332 19.5 15.6879 19.5271 15.7426 19.5271C15.8521 19.5271 15.9615 19.6355 15.9615 19.6355H16.0709C16.1803 19.744 16.2897 19.8524 16.3991 20.0693C16.5086 20.3404 16.618 20.5845 16.7274 20.8285C16.8368 21.0725 16.9462 21.3165 17.0556 21.5876C17.2745 22.1298 17.4933 22.5636 17.6027 22.7805L17.8215 23.2143C17.9711 23.659 18.1717 24.0023 18.3536 24.3136C18.4379 24.4578 18.5182 24.5952 18.5875 24.7326C18.8063 25.1663 19.0251 25.4917 19.244 25.7086C19.3534 25.9255 19.5722 26.1424 19.791 26.2508C19.9005 26.3593 20.1193 26.4677 20.2287 26.4677C20.3569 26.4677 20.4475 26.4305 20.5226 26.3997C20.5757 26.3779 20.621 26.3593 20.6664 26.3593C20.7758 26.3593 20.7758 26.2508 20.7758 26.2508C20.8531 26.2508 20.8758 26.1966 20.9211 26.0881C20.9399 26.0432 20.9626 25.989 20.9946 25.9255C21.104 25.817 21.2134 25.6001 21.2134 25.2748C21.2134 25.1328 21.2343 24.9908 21.2578 24.8307C21.2881 24.6241 21.3229 24.3874 21.3229 24.0819V22.3467C21.3229 21.9129 21.3229 21.5876 21.2134 21.2622C21.1716 21.138 21.1458 21.0295 21.1238 20.9369C21.0881 20.787 21.0622 20.6786 20.9946 20.6116L20.8852 20.3947C20.6664 20.0693 20.2287 19.8524 19.6816 19.744C19.5722 19.744 19.5722 19.6355 19.791 19.4186C19.9005 19.2017 20.1193 19.0933 20.3381 18.9849L20.3381 18.9849C20.7758 18.768 21.9794 18.6595 23.73 18.6595C24.4959 18.6595 25.1524 18.768 25.6995 18.8764C25.7542 18.9306 25.8363 18.9577 25.9183 18.9848C26.0004 19.012 26.0824 19.0391 26.1371 19.0933L26.4654 19.4186C26.4654 19.4729 26.4928 19.5542 26.5201 19.6355C26.5475 19.7169 26.5748 19.7982 26.5748 19.8524V20.5031V21.2622V22.2383V23.4312V24.0819V24.7326V25.2748C26.6228 25.3699 26.6497 25.465 26.6741 25.5509C26.7053 25.661 26.7322 25.7561 26.7937 25.817L27.1219 26.1424C27.1219 26.2508 27.2313 26.2508 27.3407 26.2508C27.3407 26.3593 27.5595 26.2508 27.669 26.1424C27.7396 26.0023 27.8559 25.9075 27.9883 25.7995C28.061 25.7402 28.1385 25.677 28.216 25.6001C28.3763 25.4413 28.5365 25.2244 28.7396 24.9494C28.814 24.8487 28.894 24.7403 28.982 24.6241C29.3101 24.1904 29.6383 23.6484 29.9665 23.1063L29.9667 23.1058C30.077 22.8872 30.1873 22.673 30.2967 22.4605C30.7299 21.619 31.1491 20.8048 31.4985 19.8524C31.4985 19.744 31.4985 19.744 31.6079 19.6356L31.6079 19.6355L31.7174 19.5271H31.8268H31.9362H32.155H32.4833H36.6411C36.9693 19.4186 37.2976 19.4186 37.5164 19.5271C37.7352 19.5271 37.8447 19.6355 37.9541 19.744L38.0635 19.8524C38.2823 20.5031 37.5164 21.9129 35.8752 24.0819C35.6499 24.3051 35.4762 24.5283 35.248 24.8216C35.1436 24.9558 35.0278 25.1046 34.8904 25.2748C34.834 25.3466 34.7795 25.4161 34.7266 25.4833C34.0619 26.3295 33.6788 26.817 33.5774 27.1184C33.468 27.5522 33.468 27.8775 33.7963 28.3113C33.8557 28.3703 33.9233 28.4452 34.0033 28.5341C34.2178 28.772 34.5218 29.1094 34.9998 29.5043C36.3128 30.6972 37.2976 31.7817 37.7352 32.6492C37.7352 32.7035 37.7626 32.7306 37.7899 32.7577Z" fill="white"/>
</svg>
