<svg width="72" height="43" viewBox="0 0 72 43" fill="none" xmlns="http://www.w3.org/2000/svg">
<rect x="0.25" width="71.25" height="43" rx="21.5" fill="#2945FF"/>
<path d="M36.1279 11.1287V33.1979H49.9704L50.7846 18.1507L49.1561 11.1287H36.1279Z" fill="#0E23B1"/>
<path d="M27.4808 15.546C27.0397 16.1631 27.0398 16.1631 27.0398 16.1631L27.0401 16.1633L27.0412 16.1641L27.0454 16.1671L27.0622 16.1791L27.1277 16.2259L27.3772 16.4043L28.2737 17.0452C29.0192 17.5782 30.0215 18.295 31.0489 19.03C33.1064 20.5021 35.2573 22.0424 35.6555 22.333L36.1015 22.6584L36.5483 22.334L36.1026 21.7203C36.5483 22.334 36.5483 22.334 36.5485 22.3339L36.549 22.3335L36.551 22.3321L36.5589 22.3263L36.5905 22.3034L36.7134 22.2141L37.1798 21.8755L38.8412 20.6692L43.8545 17.0291L48.7902 13.4457L49.6465 12.8241V22.842V33.1439L48.3409 33.4284H23.9948L22.5588 33.1355V22.5691L22.5587 12.8464C22.9664 13.1485 23.4375 13.4973 23.9176 13.8528C24.673 14.412 25.4511 14.9878 26.0402 15.4237L26.7559 15.9532L26.9579 16.1027L27.0113 16.1422L27.0251 16.1523L27.0285 16.1549L27.0294 16.1556L27.0296 16.1557L27.4808 15.546ZM27.4808 15.546L27.0397 16.1631L27.0296 16.1559L27.4808 15.546Z" stroke="white" stroke-width="1.51695"/>
<path d="M22.7129 10.8638H49.6169" stroke="white" stroke-width="1.66865"/>
<path d="M43.9031 18.2725C43.8688 18.2977 43.8277 18.3279 43.7896 18.3559C43.7648 18.3741 43.8141 18.3379 43.9031 18.2725Z" fill="#00A66C"/>
<path d="M23.9714 12.0955V34.2009H23.0411C21.4966 34.2009 20.25 32.9404 20.25 31.3789V12.5658C20.25 12.4905 20.25 12.4152 20.2686 12.34L23.9714 12.0955Z" fill="white"/>
<path d="M52.0066 12.5587V31.3783C52.0066 32.9403 50.76 34.2013 49.2155 34.2013H48.2852V13.9702L51.988 12.3329C52.0066 12.4081 52.0066 12.4834 52.0066 12.5587Z" fill="#BBD2FF"/>
<path d="M51.9872 12.6404C33.5781 26.1662 54.6234 10.6579 36.1277 24.2474C34.5124 23.0606 41.9171 28.5466 20.2682 12.6404C20.1497 11.2962 21.4671 10.0004 22.937 10.0004L28.7988 14.4461L36.1277 19.6921L42.6413 14.9477L49.6165 10.0004C51.0864 10.0004 52.0057 11.2962 51.9872 12.6404Z" fill="white"/>
<path d="M36.1279 24.1695C36.1325 24.1729 36.133 24.1732 36.1279 24.1695C37.4263 23.2156 49.8397 14.225 52.006 12.6333C52.006 11.1286 51.0867 10 49.6168 10L36.1279 19.6554V24.1695Z" fill="#EAF0FC"/>
<path d="M36.0783 11.8014L36.0781 10H49.7351L48.4223 11.7276L36.0783 11.8014Z" fill="#EAF0FC"/>
<path d="M36.0781 34.1867V32.4591H48.2605V34.1867H36.0781Z" fill="#EAF0FC"/>
</svg>
