<svg width="72" height="43" viewBox="0 0 72 43" fill="none" xmlns="http://www.w3.org/2000/svg">
<rect x="0.75" width="71.25" height="43" rx="21.5" fill="#2945FF"/>
<path d="M36.6279 11.1287V33.1979H50.4704L51.2846 18.1507L49.6561 11.1287H36.6279Z" fill="#0E23B1"/>
<path d="M27.9808 15.546C27.5397 16.1631 27.5398 16.1631 27.5398 16.1631L27.5401 16.1633L27.5412 16.1641L27.5454 16.1671L27.5622 16.1791L27.6277 16.2259L27.8772 16.4043L28.7737 17.0452C29.5192 17.5782 30.5215 18.295 31.5489 19.03C33.6064 20.5021 35.7573 22.0424 36.1555 22.333L36.6015 22.6584L37.0483 22.334L36.6026 21.7203C37.0483 22.334 37.0483 22.334 37.0485 22.3339L37.049 22.3335L37.051 22.3321L37.0589 22.3263L37.0905 22.3034L37.2134 22.2141L37.6798 21.8755L39.3412 20.6692L44.3545 17.0291L49.2902 13.4457L50.1465 12.8241V22.842V33.1439L48.8409 33.4284H24.4948L23.0588 33.1355V22.5691L23.0587 12.8464C23.4664 13.1485 23.9375 13.4973 24.4176 13.8528C25.173 14.412 25.9511 14.9878 26.5402 15.4237L27.2559 15.9532L27.4579 16.1027L27.5113 16.1422L27.5251 16.1523L27.5285 16.1549L27.5294 16.1556L27.5296 16.1557L27.9808 15.546ZM27.9808 15.546L27.5397 16.1631L27.5296 16.1559L27.9808 15.546Z" stroke="white" stroke-width="1.51695"/>
<path d="M23.2129 10.8643H50.1169" stroke="white" stroke-width="1.66865"/>
<path d="M44.4031 18.2728C44.3688 18.2979 44.3277 18.3281 44.2896 18.3561C44.2648 18.3744 44.3141 18.3381 44.4031 18.2728Z" fill="#00A66C"/>
<path d="M33.7952 21.8957C35.5447 23.179 36.5782 25.2189 36.5782 27.3886C36.5782 31.1509 33.5282 34.2009 29.7659 34.2009H23.5411C21.9966 34.2009 20.75 32.9404 20.75 31.3789V12.5658C20.75 12.4575 20.8644 12.4103 20.9517 12.4744L33.7952 21.8957Z" fill="white"/>
<path d="M52.4872 12.6403C34.0781 26.1661 55.1234 10.6578 36.6277 24.2472C35.0124 23.0604 42.4171 28.5465 20.7682 12.6403C20.6497 11.296 21.9671 10.0003 23.437 10.0003L29.2988 14.446L36.6277 19.6919L43.1413 14.9476L50.1165 10.0003C51.5864 10.0003 52.5057 11.296 52.4872 12.6403Z" fill="white"/>
<path d="M36.1992 24.3162C36.3771 24.186 36.474 24.1153 36.1992 24.3162C37.4976 23.3623 50.3402 14.225 52.5066 12.6333C52.5066 11.1286 51.5873 10 50.1173 10L36.1992 21.2823V24.3162Z" fill="#EAF0FC"/>
<path d="M36.5783 11.8014L36.5781 10H50.2351L48.9223 11.7276L36.5783 11.8014Z" fill="#EAF0FC"/>
<path d="M49.8523 11.4223H23.3057L36.1998 21.2825L49.8523 11.4223Z" fill="#1B2B96"/>
<path d="M52.5064 12.5588V31.3784C52.5064 32.9404 51.2598 34.2013 49.7154 34.2013H36.1992V24.3165L52.4878 12.3329C52.5064 12.4082 52.5064 12.4834 52.5064 12.5588Z" fill="#BBD2FF"/>
<path d="M36.1998 11.4223H23.3057L36.1998 21.2825V11.4223Z" fill="#2945FF"/>
</svg>
