<svg width="18" height="18" viewBox="0 0 18 18" fill="none" xmlns="http://www.w3.org/2000/svg">
<path fill-rule="evenodd" clip-rule="evenodd" d="M9.43035 6.23448C9.47919 6.1853 9.53715 6.14633 9.60091 6.11982C9.66466 6.09331 9.73297 6.07977 9.80191 6.07999C9.87085 6.0802 9.93907 6.09416 10.0027 6.12106C10.0663 6.14796 10.124 6.18728 10.1725 6.23677L13.3074 9.42508C13.3561 9.47445 13.3946 9.53303 13.4208 9.59747C13.447 9.66191 13.4604 9.73095 13.4602 9.80064C13.46 9.87032 13.4462 9.93928 13.4196 10.0036C13.3929 10.0678 13.354 10.1262 13.3051 10.1752L10.1506 13.3442C10.0519 13.4433 9.91823 13.4988 9.77905 13.4984C9.63987 13.498 9.50656 13.4417 9.40845 13.3419C9.31035 13.2421 9.25547 13.107 9.25591 12.9663C9.25634 12.8257 9.31204 12.6909 9.41077 12.5917L12.1941 9.79673L9.42804 6.98464C9.37939 6.93528 9.34084 6.8767 9.31462 6.81225C9.28839 6.74781 9.27501 6.67877 9.27522 6.60909C9.27543 6.5394 9.28925 6.47045 9.31587 6.40617C9.34249 6.34189 9.38139 6.28354 9.43035 6.23448Z" fill="#9698B4"/>
<path fill-rule="evenodd" clip-rule="evenodd" d="M5.07405 9.77497C5.07448 9.6345 5.13011 9.49995 5.2287 9.40093C5.32729 9.30191 5.46075 9.24652 5.59974 9.24695L12.4125 9.26794C12.5515 9.26837 12.6846 9.32458 12.7826 9.42421C12.8806 9.52384 12.9354 9.65872 12.935 9.79919C12.9345 9.93966 12.8789 10.0742 12.7803 10.1732C12.6817 10.2723 12.5483 10.3276 12.4093 10.3272L5.59648 10.3062C5.45749 10.3058 5.32437 10.2496 5.22639 10.15C5.12842 10.0503 5.07362 9.91544 5.07405 9.77497Z" fill="#9698B4"/>
</svg>
