<svg width="28" height="24" viewBox="0 0 28 24" fill="none" xmlns="http://www.w3.org/2000/svg">
<path d="M3.76784 12.3473V12.1212H0.565194C0.150728 12.1213 0 12.498 0 12.9125V19.9206C0 20.3351 0.150728 20.7872 0.565194 20.7872H2.8259C3.17178 20.757 3.48939 20.9794 3.57947 21.3147L4.0693 23.5L6.44301 20.9756C6.58595 20.8437 6.77641 20.7757 6.97049 20.7872H11.9817C12.4299 20.7342 12.7776 20.3708 12.8107 19.9206V16.2658H7.61104C5.49321 16.1862 3.80635 14.4663 3.76784 12.3473Z" fill="#9698B4"/>
<path d="M25.0562 0.0641785H7.61112C6.36773 0.0641785 5.27505 0.817747 5.27505 2.06114V12.3474C5.29359 13.6424 6.31731 14.6991 7.61112 14.7588H15.2222C15.4163 14.7473 15.6067 14.8153 15.7496 14.9472L20.1957 19.7323L21.213 15.2863C21.287 14.9567 21.5922 14.7318 21.9289 14.7588H25.0562C26.2996 14.7588 27.1285 13.5908 27.1285 12.3474V2.06114C27.1285 0.817747 26.2995 0.0641785 25.0562 0.0641785ZM8.62843 4.20877H17.6712C18.0874 4.20877 18.4248 4.54614 18.4248 4.96233C18.4248 5.37853 18.0874 5.7159 17.6712 5.7159H8.62843C8.21223 5.7159 7.87486 5.37853 7.87486 4.96233C7.87486 4.54614 8.21223 4.20877 8.62843 4.20877ZM23.6997 10.2373H8.62836C8.21216 10.2373 7.87479 9.89994 7.87479 9.48374C7.87479 9.06755 8.21216 8.73018 8.62836 8.73018H23.6997C24.1159 8.73018 24.4533 9.06755 24.4533 9.48374C24.4533 9.89994 24.1159 10.2373 23.6997 10.2373Z" fill="#9698B4"/>
</svg>
