<svg width="27" height="28" viewBox="0 0 27 28" fill="none" xmlns="http://www.w3.org/2000/svg">
<g clip-path="url(#clip0)">
<path d="M8.65043 18.217H22.7727C23.1224 18.217 23.4292 17.9858 23.5239 17.6499L26.6507 6.70641C26.7179 6.47048 26.6719 6.21705 26.5239 6.02102C26.3757 5.82561 26.1453 5.71019 25.8994 5.71019H6.84588L6.28712 3.19583C6.20773 2.83777 5.89018 2.58353 5.52377 2.58353H0.781666C0.349714 2.58353 0 2.93324 0 3.36519C0 3.79735 0.349714 4.14686 0.781666 4.14686H4.8964L7.71915 16.8489C6.88863 17.21 6.30544 18.0367 6.30544 18.9987C6.30544 20.2917 7.35743 21.3437 8.65043 21.3437H22.7727C23.2049 21.3437 23.5544 20.9942 23.5544 20.562C23.5544 20.1301 23.2049 19.7804 22.7727 19.7804H8.65043C8.21991 19.7804 7.86877 19.43 7.86877 18.9987C7.86877 18.5674 8.21991 18.217 8.65043 18.217Z" fill="#9698B4"/>
<path d="M7.8687 23.6887C7.8687 24.9819 8.92069 26.0337 10.2139 26.0337C11.5069 26.0337 12.5589 24.9819 12.5589 23.6887C12.5589 22.3957 11.5069 21.3437 10.2139 21.3437C8.92069 21.3437 7.8687 22.3957 7.8687 23.6887Z" fill="#9698B4"/>
<path d="M18.8644 23.6887C18.8644 24.9819 19.9164 26.0337 21.2094 26.0337C22.5026 26.0337 23.5544 24.9819 23.5544 23.6887C23.5544 22.3957 22.5026 21.3437 21.2094 21.3437C19.9164 21.3437 18.8644 22.3957 18.8644 23.6887Z" fill="#9698B4"/>
</g>
<defs>
<clipPath id="clip0">
<rect width="26.6809" height="26.6809" fill="white" transform="translate(0 0.968109)"/>
</clipPath>
</defs>
</svg>
