<svg width="28" height="27" viewBox="0 0 28 27" fill="none" xmlns="http://www.w3.org/2000/svg">
<path d="M3.32839 5.49993H0.677734V24.0546C0.677734 25.5124 1.87053 26.7052 3.32839 26.7052H21.883V24.0546H3.32839V5.49993ZM24.5337 0.198608H8.62972C7.17185 0.198608 5.97906 1.39141 5.97906 2.84927V18.7532C5.97906 20.2111 7.17185 21.4039 8.62972 21.4039H24.5337C25.9915 21.4039 27.1843 20.2111 27.1843 18.7532V2.84927C27.1843 1.39141 25.9915 0.198608 24.5337 0.198608ZM23.2083 12.1266H9.95505V9.47592H23.2083V12.1266ZM17.907 17.4279H9.95505V14.7772H17.907V17.4279ZM23.2083 6.82526H9.95505V4.1746H23.2083V6.82526Z" fill="#2B2949"/>
</svg>
