<svg width="362" height="331" viewBox="0 0 362 331" fill="none" xmlns="http://www.w3.org/2000/svg">
<rect width="362" height="331" rx="30" fill="#EAF0FC"/>
<rect x="148.625" y="129.875" width="63.75" height="73.125" fill="white"/>
<path d="M180.5 98C143.278 98 113 128.281 113 165.5C113 202.719 143.278 233 180.5 233C217.722 233 248 202.719 248 165.5C248 128.281 217.722 98 180.5 98ZM207.334 167.865L167.959 193.177C167.498 193.477 166.965 193.625 166.438 193.625C165.976 193.625 165.509 193.51 165.092 193.282C164.185 192.787 163.625 191.842 163.625 190.812V140.188C163.625 139.158 164.185 138.213 165.092 137.718C165.982 137.229 167.097 137.259 167.959 137.823L207.334 163.135C208.136 163.651 208.625 164.544 208.625 165.5C208.625 166.456 208.136 167.348 207.334 167.865Z" fill="#DADCE7"/>
</svg>
