<svg width="178" height="32" viewBox="0 0 178 32" fill="none" xmlns="http://www.w3.org/2000/svg">
<path d="M45.8012 27.22H35.2712V4.61005H31.4512V31H45.8012C46.3077 31 46.7936 30.7988 47.1517 30.4406C47.5099 30.0824 47.7112 29.5966 47.7112 29.09C47.7112 28.5835 47.5099 28.0977 47.1517 27.7395C46.7936 27.3813 46.3077 27.18 45.8012 27.18V27.22Z" fill="white" stroke="white" stroke-width="1.5" stroke-miterlimit="10"/>
<path d="M66.9312 27.22H56.5512V19.74H66.6112C67.123 19.74 67.6139 19.5367 67.9759 19.1748C68.3378 18.8128 68.5412 18.3219 68.5412 17.81C68.5412 17.2982 68.3378 16.8073 67.9759 16.4453C67.6139 16.0834 67.123 15.88 66.6112 15.88H56.5512V8.43005H66.8912C67.3977 8.43005 67.8836 8.22881 68.2417 7.87062C68.5999 7.51243 68.8012 7.02661 68.8012 6.52005C68.8012 6.01348 68.5999 5.52767 68.2417 5.16947C67.8836 4.81128 67.3977 4.61005 66.8912 4.61005H52.7012V31H66.9312C67.4377 31 67.9235 30.7988 68.2817 30.4406C68.6399 30.0824 68.8412 29.5966 68.8412 29.09C68.8412 28.5835 68.6399 28.0977 68.2817 27.7395C67.9235 27.3813 67.4377 27.18 66.9312 27.18V27.22Z" fill="white" stroke="white" stroke-width="1.5" stroke-miterlimit="10"/>
<path d="M96.4705 21.13C96.1281 21.1307 95.7931 21.2301 95.5058 21.4163C95.2184 21.6025 94.9909 21.8677 94.8505 22.18C94.225 23.5253 93.28 24.6972 92.098 25.5938C90.9159 26.4903 89.5325 27.0843 88.0684 27.3238C86.6043 27.5634 85.1038 27.4414 83.6976 26.9684C82.2914 26.4954 81.0222 25.6857 80.0005 24.61C78.2544 22.7906 77.2794 20.3666 77.2794 17.845C77.2794 15.3233 78.2544 12.8993 80.0005 11.08C80.835 10.191 81.8416 9.48082 82.9589 8.99262C84.0763 8.50442 85.2812 8.24836 86.5005 8.23999C88.1899 8.1729 89.8615 8.60586 91.306 9.48462C92.7504 10.3634 93.9034 11.6489 94.6205 13.18C94.7717 13.4822 95.0046 13.7361 95.2926 13.9128C95.5807 14.0896 95.9125 14.1821 96.2505 14.18C96.5607 14.1781 96.8654 14.0974 97.1358 13.9455C97.4063 13.7936 97.6337 13.5754 97.7967 13.3114C97.9596 13.0475 98.0528 12.7464 98.0675 12.4365C98.0822 12.1267 98.0178 11.8182 97.8805 11.54C96.8779 9.37871 95.2659 7.55732 93.2425 6.29955C91.219 5.04179 88.8723 4.40242 86.4905 4.45999C84.7799 4.46937 83.0887 4.82204 81.517 5.49711C79.9452 6.17218 78.525 7.15591 77.3405 8.38999C74.9127 10.9392 73.5586 14.3247 73.5586 17.845C73.5586 21.3653 74.9127 24.7508 77.3405 27.3C78.783 28.8116 80.5765 29.9436 82.5617 30.5955C84.5468 31.2474 86.6622 31.399 88.7201 31.0369C90.7779 30.6748 92.7145 29.8102 94.3579 28.5198C96.0013 27.2294 97.3006 25.5532 98.1405 23.64C98.2586 23.365 98.3062 23.0648 98.2791 22.7667C98.2519 22.4686 98.1509 22.182 97.9851 21.9328C97.8193 21.6836 97.594 21.4797 97.3295 21.3395C97.065 21.1994 96.7698 21.1273 96.4705 21.13Z" fill="white" stroke="white" stroke-width="1.5" stroke-miterlimit="10"/>
<path d="M119.76 4.58001H103.76C103.273 4.6151 102.818 4.83315 102.486 5.1903C102.153 5.54744 101.969 6.01718 101.969 6.50501C101.969 6.99285 102.153 7.46258 102.486 7.81973C102.818 8.17687 103.273 8.39492 103.76 8.43001H109.85V31.07H113.67V8.43001H119.72C119.984 8.44909 120.25 8.41346 120.5 8.32536C120.75 8.23726 120.979 8.09858 121.173 7.91796C121.368 7.73734 121.522 7.51866 121.628 7.27556C121.734 7.03246 121.789 6.77016 121.789 6.50501C121.789 6.23986 121.734 5.97756 121.628 5.73446C121.522 5.49136 121.368 5.27268 121.173 5.09206C120.979 4.91144 120.75 4.77276 120.5 4.68466C120.25 4.59656 119.984 4.56094 119.72 4.58001H119.76Z" fill="white" stroke="white" stroke-width="1.5" stroke-miterlimit="10"/>
<path d="M138.26 27.22H135.26V8.39005H138.26C138.762 8.39005 139.242 8.19092 139.597 7.83648C139.951 7.48203 140.15 7.00131 140.15 6.50005C140.15 5.99879 139.951 5.51806 139.597 5.16361C139.242 4.80917 138.762 4.61005 138.26 4.61005H128.39C127.889 4.61005 127.408 4.80917 127.054 5.16361C126.7 5.51806 126.5 5.99879 126.5 6.50005C126.5 7.00131 126.7 7.48203 127.054 7.83648C127.408 8.19092 127.889 8.39005 128.39 8.39005H131.39V27.22H128.39C127.884 27.22 127.398 27.4213 127.04 27.7795C126.682 28.1377 126.48 28.6235 126.48 29.13C126.48 29.6366 126.682 30.1224 127.04 30.4806C127.398 30.8388 127.884 31.04 128.39 31.04H138.22C138.727 31.04 139.213 30.8388 139.571 30.4806C139.929 30.1224 140.13 29.6366 140.13 29.13C140.13 28.6235 139.929 28.1377 139.571 27.7795C139.213 27.4213 138.727 27.22 138.22 27.22H138.26Z" fill="white" stroke="white" stroke-width="1.5" stroke-miterlimit="10"/>
<path d="M24.4408 12.94H2.30078V16.44H24.4408V12.94Z" fill="white"/>
<path d="M19.0015 17.4L22.8415 12.94H19.3415L19.3515 12.95L15.5215 17.4H19.0015Z" fill="#2B2949"/>
<path d="M13.6516 17.4L17.4916 12.94H14.0016L14.0116 12.95L10.1816 17.4H13.6516Z" fill="#2B2949"/>
<path d="M8.35109 17.4L12.1911 12.94H8.69109L8.70109 12.95L4.87109 17.4H8.35109Z" fill="#2B2949"/>
<path d="M3.05078 17.4L6.89078 12.94H2.30078V17.4H3.05078Z" fill="#2B2949"/>
<path d="M24.4405 17.4V13.39L20.9805 17.4H24.4405Z" fill="#2B2949"/>
<path d="M21.0008 20.51C22.8808 20.51 24.4008 20.23 24.4008 18.35V17.61H2.30078V31.81H21.8708C22.5524 31.81 23.2061 31.5393 23.688 31.0573C24.17 30.5753 24.4408 29.9217 24.4408 29.24V29.06C24.4408 28.3784 24.17 27.7247 23.688 27.2428C23.2061 26.7608 22.5524 26.49 21.8708 26.49H7.65078V20.49L21.0008 20.51Z" fill="white"/>
<path d="M22.7071 3.67398L1.36719 9.57202L2.29958 12.9455L23.6395 7.04751L22.7071 3.67398Z" fill="white"/>
<path d="M17.2016 4.20001L22.0916 7.47001L18.7216 8.40001L18.7316 8.39001L13.8516 5.12001L17.2016 4.20001Z" fill="#2B2949"/>
<path d="M12.0512 5.62L16.9412 8.89L13.5712 9.83L13.5812 9.81L8.70117 6.55L12.0512 5.62Z" fill="#2B2949"/>
<path d="M6.93008 7.04004L11.8201 10.31L8.45008 11.24L8.46008 11.23L3.58008 7.96004L6.93008 7.04004Z" fill="#2B2949"/>
<path d="M1.83156 8.45001L6.72156 11.72L2.29156 12.94L1.10156 8.65001L1.83156 8.45001Z" fill="#2B2949"/>
<path d="M22.4613 2.74005L23.5113 6.62005L19.1113 3.67005L22.4613 2.74005Z" fill="#2B2949"/>
<path d="M0.277344 5.65497L19.5546 0.327021C20.1033 0.178128 20.6885 0.252585 21.1824 0.534105C21.6763 0.815626 22.0386 1.28129 22.19 1.82924L22.3872 2.5425L1.04723 8.44053L0.277344 5.65497Z" fill="white"/>
<path d="M22.4933 2.5178L0.931641 8.47711L1.04619 8.89157L22.6078 2.93226L22.4933 2.5178Z" fill="white"/>
<path d="M24.571 17.4H2.29102V17.83H24.571V17.4Z" fill="white"/>
<path d="M175.94 28.49H166.16C166.41 28.27 166.67 28.04 166.91 27.8C168.855 25.8209 170.173 23.3123 170.7 20.5879C171.227 17.8635 170.938 15.0443 169.871 12.483C168.804 9.92158 167.005 7.73174 164.7 6.18733C162.394 4.64293 159.685 3.81254 156.91 3.80002C155.05 3.79584 153.207 4.16246 151.49 4.87844C149.773 5.59443 148.216 6.64542 146.91 7.97002C144.277 10.6062 142.799 14.1795 142.799 17.905C142.799 21.6306 144.277 25.2038 146.91 27.84C148.212 29.1701 149.768 30.2247 151.486 30.9411C153.204 31.6574 155.049 32.021 156.91 32.01H157.32H175.95C176.189 32.0282 176.429 31.9968 176.655 31.9178C176.881 31.8389 177.089 31.714 177.265 31.5511C177.44 31.3883 177.581 31.1908 177.676 30.9712C177.772 30.7517 177.822 30.5146 177.822 30.275C177.822 30.0354 177.772 29.7984 177.676 29.5788C177.581 29.3592 177.44 29.1618 177.265 28.9989C177.089 28.836 176.881 28.7112 176.655 28.6322C176.429 28.5533 176.189 28.5219 175.95 28.54L175.94 28.49ZM162.9 11C163.232 10.8062 163.599 10.6798 163.98 10.6282C164.361 10.5766 164.749 10.6007 165.12 10.6992C165.492 10.7977 165.84 10.9686 166.146 11.2021C166.451 11.4356 166.708 11.7272 166.9 12.06C167.099 12.3906 167.23 12.7579 167.285 13.1401C167.339 13.5222 167.316 13.9114 167.217 14.2846C167.118 14.6577 166.946 15.0072 166.709 15.3122C166.472 15.6172 166.177 15.8715 165.84 16.06C165.168 16.4462 164.371 16.5514 163.622 16.3529C162.873 16.1544 162.232 15.6682 161.84 15C161.642 14.6691 161.512 14.3018 161.459 13.92C161.405 13.5381 161.428 13.1493 161.527 12.7766C161.626 12.4038 161.798 12.0546 162.034 11.7495C162.27 11.4444 162.564 11.1896 162.9 11ZM161.83 20.7C162.233 20.0436 162.873 19.5673 163.618 19.37C164.363 19.1727 165.155 19.2693 165.83 19.64C166.165 19.8305 166.458 20.0859 166.693 20.3911C166.928 20.6963 167.1 21.0453 167.199 21.4177C167.298 21.7901 167.321 22.1784 167.268 22.5599C167.215 22.9415 167.087 23.3087 166.89 23.64C166.498 24.3082 165.857 24.7944 165.108 24.9929C164.359 25.1914 163.562 25.0862 162.89 24.7C162.559 24.5095 162.269 24.2555 162.037 23.9526C161.804 23.6498 161.634 23.304 161.536 22.9352C161.437 22.5663 161.412 22.1816 161.463 21.8032C161.513 21.4248 161.638 21.0601 161.83 20.73V20.7ZM156.83 6.30002C157.404 6.30594 157.964 6.48163 158.438 6.80496C158.913 7.1283 159.281 7.58482 159.497 8.11704C159.713 8.64927 159.766 9.23341 159.65 9.7959C159.535 10.3584 159.255 10.8741 158.847 11.2781C158.439 11.682 157.92 11.9562 157.357 12.0661C156.793 12.176 156.21 12.1166 155.68 11.8955C155.15 11.6744 154.697 11.3014 154.378 10.8236C154.06 10.3457 153.89 9.78428 153.89 9.21002C153.903 8.43466 154.223 7.69614 154.78 7.1563C155.337 6.61645 156.085 6.31932 156.86 6.33002L156.83 6.30002ZM158.55 17.83C158.554 18.1734 158.456 18.5103 158.268 18.7976C158.079 19.0849 157.81 19.3098 157.494 19.4435C157.177 19.5772 156.828 19.6137 156.491 19.5484C156.154 19.4832 155.844 19.319 155.6 19.0769C155.357 18.8347 155.191 18.5256 155.124 18.1888C155.056 17.852 155.091 17.5028 155.223 17.1857C155.355 16.8686 155.578 16.5979 155.864 16.4081C156.15 16.2184 156.487 16.1181 156.83 16.12C157.06 16.116 157.289 16.1582 157.502 16.2441C157.716 16.33 157.91 16.4578 158.073 16.6201C158.236 16.7823 158.365 16.9756 158.452 17.1886C158.539 17.4016 158.583 17.6299 158.58 17.86L158.55 17.83ZM150.78 24.67C150.448 24.8639 150.081 24.9902 149.7 25.0419C149.319 25.0935 148.931 25.0694 148.56 24.9709C148.188 24.8724 147.84 24.7015 147.534 24.4679C147.229 24.2344 146.972 23.9429 146.78 23.61C146.581 23.2794 146.45 22.9121 146.395 22.53C146.341 22.1478 146.364 21.7586 146.463 21.3855C146.561 21.0123 146.734 20.6629 146.971 20.3579C147.208 20.0529 147.503 19.7985 147.84 19.61C148.512 19.2239 149.309 19.1186 150.058 19.3171C150.807 19.5156 151.448 20.0018 151.84 20.67C152.044 21.0004 152.179 21.3684 152.238 21.7522C152.296 22.136 152.277 22.5276 152.181 22.9038C152.085 23.2799 151.914 23.6328 151.678 23.9414C151.443 24.25 151.147 24.508 150.81 24.7L150.78 24.67ZM151.85 14.97C151.447 15.6265 150.807 16.1027 150.062 16.3001C149.317 16.4974 148.525 16.4007 147.85 16.03C147.515 15.8395 147.222 15.5842 146.987 15.279C146.752 14.9737 146.58 14.6247 146.481 14.2524C146.382 13.88 146.359 13.4917 146.412 13.1101C146.465 12.7285 146.593 12.3614 146.79 12.03C147.182 11.3618 147.823 10.8756 148.572 10.6771C149.321 10.4786 150.118 10.5839 150.79 10.97C151.131 11.1579 151.431 11.4127 151.672 11.7191C151.913 12.0255 152.089 12.3773 152.191 12.7535C152.293 13.1296 152.318 13.5224 152.264 13.9084C152.211 14.2944 152.08 14.6657 151.88 15L151.85 14.97ZM156.85 29.37C156.275 29.3661 155.715 29.1921 155.239 28.8699C154.763 28.5478 154.393 28.0919 154.176 27.5598C153.959 27.0278 153.904 26.4433 154.018 25.8801C154.133 25.317 154.412 24.8003 154.819 24.3954C155.227 23.9904 155.746 23.7152 156.31 23.6046C156.874 23.4939 157.458 23.5527 157.988 23.7735C158.519 23.9943 158.972 24.3673 159.291 24.8454C159.61 25.3235 159.78 25.8853 159.78 26.46C159.781 26.8448 159.707 27.2261 159.561 27.582C159.415 27.938 159.2 28.2618 158.929 28.5348C158.658 28.8078 158.335 29.0247 157.98 29.1732C157.626 29.3216 157.245 29.3987 156.86 29.4L156.85 29.37Z" fill="white"/>
</svg>
