<svg width="607" height="523" viewBox="0 0 607 523" fill="none" xmlns="http://www.w3.org/2000/svg">
<g opacity="0.3" clip-path="url(#clip0)">
<path d="M23.8468 485.793C24.6827 486.405 25.5419 486.993 26.4088 487.574C29.6066 489.718 32.9449 491.645 36.4011 493.341C54.559 502.399 76.9274 506.82 98.7231 509.824C147.601 516.574 197.508 517.883 247.206 519.168C381.471 522.659 516.092 526.135 650.017 518.099C702.927 514.925 757.022 509.584 804.979 493.326C811.846 490.998 818.585 488.433 825.195 485.631C838.555 479.941 851.387 473.027 862.061 464.79C872.123 457.048 880.219 448.145 885.079 438.035C895.219 416.962 889.855 393.295 878.284 372.648C873.447 364.269 868.015 356.249 862.03 348.649C853.113 337.021 843.276 325.756 834.282 314.144C802.301 272.787 781.434 220.554 810.954 178.191C819.468 166.021 831.705 155.338 838.616 142.634C847.448 126.376 846.759 108.33 843.949 90.7641C843.593 88.5499 843.175 86.3513 842.796 84.1526C837.974 58.1637 828.996 30.1541 801.201 13.9275C772.331 -2.934 731.348 -2.08242 695.505 3.94838C639.777 13.3314 588.368 32.9257 536.456 50.6232C484.544 68.3208 430.171 84.4855 373.081 86.2352C322.679 87.7835 263.878 76.2716 230.426 46.3963C197.918 17.3803 136.85 15.1739 92.8098 32.7011C62.624 44.7318 40.0621 66.4009 30.5497 90.7641C28.6271 95.6421 27.2386 100.714 26.4088 105.891C25.637 110.606 25.3774 115.389 25.6348 120.159C25.7664 122.482 26.0218 124.843 26.4088 127.127C33.7618 175.226 86.7108 213.161 118.893 256.127C134.621 277.115 145.728 302.322 134.915 324.951C118.421 359.433 61.0606 371.688 26.4088 397.36C19.9351 401.979 14.1946 407.549 9.38092 413.88C-7.3761 436.734 -1.17645 467.577 23.8468 485.793Z" fill="#CFF3FF"/>
<path opacity="0.1" d="M474.266 510.845C359.004 510.845 265.565 507.671 265.565 503.754C265.565 499.838 359.004 496.663 474.266 496.663C589.528 496.663 682.966 499.838 682.966 503.754C682.966 507.671 589.528 510.845 474.266 510.845Z" fill="#6C63FF"/>
<path d="M360.453 499.032C360.453 499.032 315.561 442.153 319.037 385.615C320.499 361.879 314.656 338.251 301.599 318.378C295.387 308.964 288.325 300.14 280.499 292.018" stroke="#535461" stroke-width="2" stroke-miterlimit="10"/>
<path d="M282.488 256.367C285.662 264.279 280.561 292.955 280.561 292.955C280.561 292.955 257.039 275.776 253.866 267.871C253.111 265.991 252.733 263.979 252.755 261.953C252.777 259.926 253.198 257.923 253.993 256.059C254.789 254.195 255.944 252.506 257.392 251.089C258.84 249.671 260.554 248.553 262.434 247.797C264.314 247.042 266.325 246.664 268.351 246.686C270.378 246.708 272.38 247.129 274.243 247.925C276.107 248.72 277.796 249.876 279.213 251.324C280.63 252.773 281.749 254.486 282.504 256.367H282.488Z" fill="#C7FFB4"/>
<path d="M323.735 290.655C322.102 299.016 302.233 320.314 302.233 320.314C302.233 320.314 291.823 293.109 293.456 284.748C294.281 280.773 296.639 277.283 300.019 275.035C303.399 272.787 307.529 271.962 311.513 272.739C315.497 273.517 319.014 275.833 321.302 279.187C323.59 282.541 324.464 286.661 323.735 290.655Z" fill="#C7FFB4"/>
<path d="M352.752 365.905C347.125 372.3 319.23 380.614 319.23 380.614C319.23 380.614 323.975 351.877 329.602 345.482C330.94 343.962 332.564 342.72 334.382 341.827C336.2 340.935 338.176 340.409 340.197 340.281C342.218 340.152 344.245 340.423 346.161 341.077C348.078 341.732 349.847 342.758 351.367 344.096C352.887 345.435 354.128 347.06 355.021 348.878C355.913 350.696 356.438 352.673 356.567 354.694C356.696 356.716 356.425 358.743 355.77 360.66C355.116 362.577 354.09 364.346 352.752 365.866V365.905Z" fill="#C7FFB4"/>
<path d="M361.9 427.785C357.434 435.039 331.343 447.99 331.343 447.99C331.343 447.99 331.165 418.858 335.631 411.604C336.685 409.863 338.074 408.348 339.716 407.146C341.359 405.944 343.223 405.078 345.202 404.6C347.18 404.122 349.233 404.04 351.243 404.359C353.254 404.678 355.181 405.392 356.914 406.46C358.647 407.527 360.151 408.927 361.341 410.579C362.531 412.231 363.382 414.101 363.846 416.084C364.309 418.066 364.376 420.12 364.042 422.129C363.708 424.137 362.98 426.059 361.9 427.785Z" fill="#C7FFB4"/>
<path d="M272.759 333.924C280.646 337.152 309.346 332.244 309.346 332.244C309.346 332.244 292.318 308.601 284.454 305.372C280.683 303.894 276.483 303.959 272.759 305.552C269.035 307.145 266.087 310.139 264.551 313.888C263.016 317.637 263.016 321.839 264.552 325.588C266.087 329.337 269.035 332.331 272.759 333.924Z" fill="#C7FFB4"/>
<path d="M284.369 406.154C292.883 406.882 318.781 393.605 318.781 393.605C318.781 393.605 295.476 376.139 286.993 375.412C284.956 375.203 282.899 375.403 280.94 375.998C278.981 376.594 277.16 377.573 275.583 378.88C274.007 380.186 272.706 381.794 271.757 383.608C270.807 385.423 270.229 387.408 270.055 389.449C269.881 391.489 270.114 393.544 270.742 395.493C271.37 397.442 272.38 399.247 273.712 400.802C275.045 402.357 276.673 403.631 278.503 404.55C280.333 405.469 282.327 406.014 284.369 406.154Z" fill="#C7FFB4"/>
<path d="M305.329 474.815C313.572 476.96 341.358 468.258 341.358 468.258C341.358 468.258 321.343 447.108 313.1 444.956C309.184 444.053 305.07 444.715 301.635 446.799C298.199 448.884 295.712 452.228 294.704 456.119C293.695 460.009 294.245 464.14 296.235 467.632C298.225 471.124 301.499 473.701 305.36 474.815H305.329Z" fill="#C7FFB4"/>
<path opacity="0.25" d="M282.488 256.367C285.662 264.279 280.561 292.955 280.561 292.955C280.561 292.955 257.039 275.776 253.866 267.871C253.111 265.991 252.733 263.979 252.755 261.953C252.777 259.926 253.198 257.923 253.993 256.059C254.789 254.195 255.944 252.506 257.392 251.089C258.84 249.671 260.554 248.553 262.434 247.797C264.314 247.042 266.325 246.664 268.351 246.686C270.378 246.708 272.38 247.129 274.243 247.925C276.107 248.72 277.796 249.876 279.213 251.324C280.63 252.773 281.749 254.486 282.504 256.367H282.488Z" fill="#2B2949"/>
<path opacity="0.25" d="M323.735 290.655C322.102 299.016 302.233 320.314 302.233 320.314C302.233 320.314 291.823 293.109 293.456 284.748C294.281 280.773 296.639 277.283 300.019 275.035C303.399 272.787 307.529 271.962 311.513 272.739C315.497 273.517 319.014 275.833 321.302 279.187C323.59 282.541 324.464 286.661 323.735 290.655Z" fill="#2B2949"/>
<path opacity="0.25" d="M352.752 365.905C347.125 372.3 319.23 380.614 319.23 380.614C319.23 380.614 323.975 351.877 329.602 345.482C330.94 343.962 332.564 342.72 334.382 341.827C336.2 340.935 338.176 340.409 340.197 340.281C342.218 340.152 344.245 340.423 346.161 341.077C348.078 341.732 349.847 342.758 351.367 344.096C352.887 345.435 354.128 347.06 355.021 348.878C355.913 350.696 356.438 352.673 356.567 354.694C356.696 356.716 356.425 358.743 355.77 360.66C355.116 362.577 354.09 364.346 352.752 365.866V365.905Z" fill="#2B2949"/>
<path opacity="0.25" d="M361.9 427.785C357.434 435.039 331.343 447.99 331.343 447.99C331.343 447.99 331.165 418.858 335.631 411.604C336.685 409.863 338.074 408.348 339.716 407.146C341.359 405.944 343.223 405.078 345.202 404.6C347.18 404.122 349.233 404.04 351.243 404.359C353.254 404.678 355.181 405.392 356.914 406.46C358.647 407.527 360.151 408.927 361.341 410.579C362.531 412.231 363.382 414.101 363.846 416.084C364.309 418.066 364.376 420.12 364.042 422.129C363.708 424.137 362.98 426.059 361.9 427.785Z" fill="#2B2949"/>
<path opacity="0.25" d="M272.759 333.924C280.646 337.152 309.346 332.244 309.346 332.244C309.346 332.244 292.318 308.601 284.454 305.372C280.683 303.894 276.483 303.959 272.759 305.552C269.035 307.145 266.087 310.139 264.551 313.888C263.016 317.637 263.016 321.839 264.552 325.588C266.087 329.337 269.035 332.331 272.759 333.924Z" fill="#2B2949"/>
<path opacity="0.25" d="M284.369 406.154C292.883 406.882 318.781 393.605 318.781 393.605C318.781 393.605 295.476 376.139 286.993 375.412C284.956 375.203 282.899 375.403 280.94 375.998C278.981 376.594 277.16 377.573 275.583 378.88C274.007 380.186 272.706 381.794 271.757 383.608C270.807 385.423 270.229 387.408 270.055 389.449C269.881 391.489 270.114 393.544 270.742 395.493C271.37 397.442 272.38 399.247 273.712 400.802C275.045 402.357 276.673 403.631 278.503 404.55C280.333 405.469 282.327 406.014 284.369 406.154Z" fill="#2B2949"/>
<path opacity="0.25" d="M305.329 474.815C313.572 476.96 341.358 468.258 341.358 468.258C341.358 468.258 321.343 447.108 313.1 444.956C309.184 444.053 305.07 444.715 301.635 446.799C298.199 448.884 295.712 452.228 294.704 456.119C293.695 460.009 294.245 464.14 296.235 467.632C298.225 471.124 301.499 473.701 305.36 474.815H305.329Z" fill="#2B2949"/>
<path d="M360.066 496.655C360.066 496.655 295.979 462.862 276.258 409.762C267.976 387.466 253.038 368.235 233.076 355.361C223.58 349.271 213.546 344.065 203.1 339.808" stroke="#535461" stroke-width="2" stroke-miterlimit="10"/>
<path d="M190.484 306.402C196.583 312.34 203.541 340.628 203.541 340.628C203.541 340.628 175.081 334.435 168.974 328.52C166.106 325.653 164.482 321.772 164.453 317.716C164.425 313.66 165.994 309.756 168.821 306.848C171.648 303.941 175.507 302.264 179.561 302.181C183.615 302.097 187.539 303.614 190.484 306.402Z" fill="#90EB71"/>
<path d="M242.078 321.042C243.974 329.348 234.439 356.87 234.439 356.87C234.439 356.87 213.905 336.223 211.993 327.916C211.496 325.925 211.4 323.855 211.713 321.826C212.025 319.798 212.739 317.852 213.813 316.103C214.887 314.354 216.298 312.837 217.965 311.641C219.632 310.444 221.521 309.592 223.521 309.135C225.522 308.678 227.593 308.624 229.614 308.977C231.636 309.331 233.566 310.084 235.293 311.193C237.019 312.301 238.507 313.744 239.67 315.435C240.832 317.126 241.646 319.032 242.063 321.042H242.078Z" fill="#90EB71"/>
<path d="M299.075 378.075C296.521 386.204 274.4 405.171 274.4 405.171C274.4 405.171 267.094 376.976 269.648 368.847C270.222 366.873 271.185 365.034 272.48 363.437C273.775 361.841 275.375 360.519 277.188 359.55C279 358.581 280.988 357.984 283.035 357.794C285.081 357.604 287.145 357.826 289.105 358.445C291.064 359.064 292.881 360.068 294.447 361.399C296.013 362.73 297.298 364.361 298.225 366.195C299.153 368.03 299.704 370.031 299.848 372.082C299.991 374.132 299.723 376.191 299.06 378.137L299.075 378.075Z" fill="#90EB71"/>
<path d="M332.527 430.943C331.382 439.382 312.783 461.794 312.783 461.794C312.783 461.794 300.817 435.24 301.947 426.794C302.219 424.786 302.884 422.851 303.904 421.1C304.924 419.35 306.279 417.817 307.891 416.59C309.503 415.363 311.341 414.465 313.3 413.948C315.259 413.432 317.3 413.306 319.307 413.578C321.315 413.851 323.249 414.516 324.999 415.536C326.75 416.556 328.282 417.911 329.509 419.524C330.736 421.136 331.633 422.975 332.15 424.934C332.666 426.893 332.792 428.935 332.52 430.943H332.527Z" fill="#90EB71"/>
<path d="M213.046 381.241C221.559 381.001 245.816 364.875 245.816 364.875C245.816 364.875 220.685 350.166 212.171 350.398C208.121 350.57 204.302 352.33 201.539 355.297C198.776 358.263 197.292 362.198 197.407 366.251C197.522 370.304 199.227 374.148 202.153 376.953C205.08 379.759 208.993 381.299 213.046 381.241Z" fill="#90EB71"/>
<path d="M252.922 442.571C260.972 439.792 279.292 417.155 279.292 417.155C279.292 417.155 250.917 410.629 242.86 413.408C239.079 414.808 235.997 417.633 234.273 421.278C232.548 424.923 232.319 429.099 233.635 432.911C234.95 436.723 237.705 439.868 241.309 441.674C244.914 443.479 249.083 443.801 252.922 442.571Z" fill="#90EB71"/>
<path d="M299.849 496.848C308.255 495.47 330.144 476.256 330.144 476.256C330.144 476.256 303.27 465.022 294.865 466.4C290.886 467.124 287.351 469.382 285.02 472.688C282.69 475.993 281.75 480.082 282.403 484.073C283.057 488.065 285.251 491.641 288.514 494.03C291.777 496.419 295.848 497.431 299.849 496.848Z" fill="#90EB71"/>
<path d="M302.446 501.377H309.312L359.529 242.084L365.968 501.377H373.259L381.417 242.517L430.349 501.377H438.074L404.815 234.868L403.732 226.205L338.491 218.905L336.464 234.868L302.446 501.377Z" fill="#464353"/>
<path d="M441.03 166.927H482.555V192.684H441.03V166.927Z" fill="#464353"/>
<path d="M241.618 155.663L216.51 145.521H211.007C210.204 145.521 209.434 145.84 208.867 146.408C208.299 146.975 207.98 147.745 207.98 148.548V219.277C207.98 220.079 208.299 220.849 208.867 221.417C209.434 221.985 210.204 222.304 211.007 222.304H216.51L241.618 211.845V155.663Z" fill="#464353"/>
<path d="M241.618 158.883H292.958V208.624H241.618V158.883Z" fill="#464353"/>
<path d="M349.025 65.4563H382.075V71.4639H349.025V65.4563Z" fill="#514E7F"/>
<path d="M326.758 73.2367H419.784V141.17H326.758V73.2367Z" fill="#514E7F"/>
<path opacity="0.1" d="M326.758 133.127H419.784V141.178H326.758V133.127Z" fill="#2B2949"/>
<path opacity="0.1" d="M291.673 158.883H293.755V208.624H291.673V158.883Z" fill="#2B2949"/>
<path opacity="0.1" d="M441.03 166.927H455.194V192.684H441.03V166.927Z" fill="#2B2949"/>
<path opacity="0.1" d="M336.464 234.868H404.815L403.732 226.205L338.492 218.905L336.464 234.868Z" fill="#2B2949"/>
<path d="M301.247 134.412H445.628C450.202 134.412 453.91 138.121 453.91 142.695V225.292C453.91 229.867 450.202 233.576 445.628 233.576H301.247C296.673 233.576 292.965 229.867 292.965 225.292V142.695C292.965 138.121 296.673 134.412 301.247 134.412Z" fill="#514E7F"/>
<path d="M242.106 155.663H241.618V211.845H242.106C243.171 211.845 244.193 211.421 244.946 210.668C245.699 209.914 246.123 208.892 246.123 207.827V159.681C246.123 158.615 245.699 157.593 244.946 156.84C244.193 156.086 243.171 155.663 242.106 155.663Z" fill="#514E7F"/>
<path d="M216.51 145.544H211.301C210.42 145.544 209.576 145.894 208.953 146.517C208.33 147.14 207.98 147.985 207.98 148.866V219.021C207.98 219.902 208.33 220.747 208.953 221.37C209.576 221.992 210.42 222.342 211.301 222.342H216.51V145.544Z" fill="#514E7F"/>
<path opacity="0.1" d="M475.148 166.927H482.555V192.684H475.148V166.927Z" fill="#2B2949"/>
<path d="M482.013 158.883H485.349C488.427 158.883 490.922 161.379 490.922 164.457V197.097C490.922 200.175 488.427 202.671 485.349 202.671H482.013C478.935 202.671 476.44 200.175 476.44 197.097V164.457C476.44 161.379 478.935 158.883 482.013 158.883Z" fill="#514E7F"/>
<path d="M419.784 119.602C394.183 119.602 373.429 98.8435 373.429 73.2367C373.429 47.6299 394.183 26.8715 419.784 26.8715C445.385 26.8715 466.139 47.6299 466.139 73.2367C466.139 98.8435 445.385 119.602 419.784 119.602Z" fill="#464353"/>
<path d="M419.784 108.013C400.582 108.013 385.016 92.4429 385.016 73.2367C385.016 54.0305 400.582 38.4609 419.784 38.4609C438.986 38.4609 454.552 54.0305 454.552 73.2367C454.552 92.4429 438.986 108.013 419.784 108.013Z" fill="#3F3D56"/>
<path d="M333.84 108.013C315.172 108.013 300.039 92.8761 300.039 74.2044C300.039 55.5327 315.172 40.3963 333.84 40.3963C352.507 40.3963 367.64 55.5327 367.64 74.2044C367.64 92.8761 352.507 108.013 333.84 108.013Z" fill="#464353"/>
<path d="M333.84 99.5586C319.841 99.5586 308.492 88.2072 308.492 74.2044C308.492 60.2017 319.841 48.8503 333.84 48.8503C347.84 48.8503 359.188 60.2017 359.188 74.2044C359.188 88.2072 347.84 99.5586 333.84 99.5586Z" fill="#3F3D56"/>
<path d="M336.464 153.619C334.006 153.619 332.013 151.626 332.013 149.168C332.013 146.709 334.006 144.716 336.464 144.716C338.922 144.716 340.914 146.709 340.914 149.168C340.914 151.626 338.922 153.619 336.464 153.619Z" fill="#6C63FF"/>
<path opacity="0.5" d="M322.307 153.619C319.849 153.619 317.856 151.626 317.856 149.168C317.856 146.709 319.849 144.716 322.307 144.716C324.765 144.716 326.757 146.709 326.757 149.168C326.757 151.626 324.765 153.619 322.307 153.619Z" fill="#6C63FF"/>
<path d="M378.321 164.527L378.638 163.9C376.676 164.552 374.791 165.42 373.019 166.486C373.793 159.758 399.59 140.868 404.234 140.868C408.878 140.868 414.041 132.848 414.041 132.848C414.041 132.848 427.454 130.781 429.521 128.59C431.587 126.399 445.519 127.677 448.871 128.451C452.222 129.225 457.385 126.384 457.385 126.384C457.385 126.384 460.225 121.739 463.832 121.739C467.439 121.739 471.301 116.567 471.301 116.567C471.301 116.567 474.668 113.47 477.764 112.944C480.86 112.418 484.73 109.073 486.541 106.48C488.352 103.886 497.377 102.609 502.532 103.383C507.687 104.157 521.626 102.33 521.626 102.33C515.953 99.7444 514.583 93.5355 514.583 93.5355C519.66 93.2723 533.004 82.0623 533.004 82.0623C533.004 82.0623 532.455 85.6854 531.82 90.7407L532.679 89.6337L532.795 89.7266C533.068 86.1201 533.107 82.4997 532.911 78.8882C532.911 78.6095 532.865 78.3308 532.849 78.0443C529.545 75.1487 527.094 71.4048 525.763 67.2172C524.432 63.0297 524.27 58.5578 525.295 54.285C525.434 53.6966 525.597 53.1237 525.783 52.5586C524.795 52.9695 523.752 53.2304 522.687 53.3327H522.137C521.497 53.337 520.863 53.2053 520.277 52.9464C519.691 52.6875 519.167 52.3073 518.739 51.8308C518.594 51.6474 518.467 51.4504 518.36 51.2425C518.334 51.2029 518.311 51.1615 518.29 51.1186C518.198 50.9286 518.121 50.7319 518.058 50.5302C518.037 50.4589 518.018 50.3866 518.004 50.3135C517.965 50.1552 517.934 49.9949 517.911 49.8335C517.911 49.7019 517.911 49.5625 517.911 49.4232C517.911 49.2838 517.911 49.2219 517.911 49.1212C517.943 47.931 518.206 46.7584 518.685 45.6684C519.498 43.6711 520.667 41.6969 520.581 39.537C520.581 39.3589 520.543 39.1886 520.52 39.0183C520.303 37.3229 519.413 35.7513 518.879 34.1178V34.0481C518.801 33.8081 518.739 33.5681 518.685 33.3281C518.66 33.2573 518.639 33.1849 518.623 33.1114C518.566 32.8278 518.527 32.5407 518.507 32.252C518.507 32.252 518.507 32.2133 518.507 32.1901C518.306 28.9541 520.914 26.1283 523.871 24.82C526.518 23.6432 529.544 23.3258 531.967 21.7233C534.73 19.904 536.247 16.7531 538.29 14.1441C541.263 10.3507 545.914 7.51722 550.674 8.05914C553.608 8.39203 556.27 9.93264 559.188 10.5287C563.623 11.45 568.314 10.1107 572.726 11.1403C573.797 11.3184 574.772 11.8662 575.481 12.6887C575.777 13.1038 575.969 13.5846 576.038 14.0899C576.1 14.5576 576.1 15.0313 576.038 15.4989V15.5376C575.988 15.9838 575.908 16.4261 575.798 16.8615L575.729 17.1324C575.729 17.2253 575.69 17.3105 575.667 17.4034C575.644 17.4963 575.566 17.7673 575.52 17.9453C575.435 18.2472 575.365 18.5492 575.287 18.8588V18.9672C575.218 19.2846 575.148 19.6021 575.094 19.9272C574.969 20.5975 574.886 21.2749 574.846 21.9555C574.664 23.871 575.078 25.796 576.031 27.4676C577.966 30.5643 582.075 31.9346 583.863 35.1629C584.286 35.9419 584.549 36.7972 584.637 37.679C584.67 37.972 584.682 38.2668 584.676 38.5615V38.6777C584.676 38.9331 584.676 39.1886 584.606 39.4518C584.61 39.5137 584.61 39.5758 584.606 39.6376C584.567 39.8673 584.515 40.0947 584.452 40.3189C584.452 40.3963 584.413 40.466 584.39 40.5357C584.304 40.8005 584.201 41.0592 584.08 41.3098C583.252 43.0362 581.688 44.4607 581.363 46.3342C581.363 46.3884 581.363 46.4426 581.325 46.5045C581.147 47.9135 581.727 49.2916 582.029 50.6773C582.069 50.8459 582.1 51.0165 582.122 51.1883C582.122 51.2425 582.122 51.2967 582.122 51.3509C582.122 51.4051 582.122 51.5831 582.122 51.707C582.122 51.8308 582.122 51.8386 582.122 51.9083C582.122 51.9779 582.122 52.1173 582.122 52.2179C582.126 52.2901 582.126 52.3625 582.122 52.4347C582.122 52.5353 582.122 52.636 582.122 52.7289C582.122 52.8218 582.122 52.8682 582.122 52.9379C582.122 53.0076 582.075 53.1315 582.044 53.2244L581.99 53.4179C581.954 53.5103 581.912 53.6007 581.866 53.6889L581.781 53.8592C581.725 53.953 581.663 54.0435 581.596 54.1301C581.567 54.1732 581.536 54.2146 581.503 54.254C581.397 54.3784 581.278 54.4901 581.147 54.5869C580.079 55.3611 578.414 55.1598 577.54 56.1352C577.441 56.2534 577.358 56.3834 577.292 56.5223L577.246 56.6152C577.182 56.7516 577.133 56.8943 577.099 57.041C576.975 57.6229 576.975 58.2243 577.099 58.8061C577.408 60.3545 578.066 61.7635 578.414 63.2809C578.484 63.5905 578.531 63.9079 578.569 64.2253C578.569 64.3724 578.569 64.5118 578.608 64.6511V64.744C578.608 64.8757 578.608 65.015 578.608 65.1466C578.608 65.2782 578.608 65.2163 578.608 65.255C578.608 65.4485 578.608 65.6498 578.561 65.8434C578.515 66.0369 578.561 66.0292 578.515 66.1143L578.469 66.3388C578.469 66.4395 578.414 66.5401 578.383 66.6408L578.314 66.8343C578.275 66.9427 578.221 67.0511 578.174 67.1595C578.152 67.21 578.126 67.2592 578.097 67.3066C578.019 67.465 577.926 67.6153 577.818 67.7556C576.882 69.0252 575.342 69.451 573.716 69.4588C572.795 69.4535 571.876 69.3497 570.976 69.1491C570.775 69.6213 570.566 70.0936 570.342 70.5503C569.22 72.8101 567.749 74.8792 565.984 76.6818C565.984 76.9218 566.03 77.154 566.061 77.4018C566.239 79.1669 566.456 81.0636 566.704 82.9758C568.709 82.0545 570.257 81.6984 570.868 82.3642C573.461 85.2132 570.868 95.0452 570.868 95.0452C570.868 95.0452 583.523 95.0452 586.619 97.8864C589.715 100.728 595.388 97.8864 595.388 97.8864C595.388 97.8864 606.998 99.187 606.224 101.517C605.45 103.847 612.416 101.517 612.416 101.517C612.416 101.517 617.323 102.036 617.06 105.388C616.797 108.74 624.545 110.296 623.515 112.627C622.486 114.957 628.159 116.497 628.159 116.497C628.159 116.497 633.832 116.242 631.766 119.594C631.766 119.594 634.862 126.84 637.439 127.336C640.017 127.831 643.376 133.8 643.376 133.8C643.376 133.8 653.314 135.612 652.865 138.716C652.416 141.821 668.144 164.032 668.144 164.032C668.144 164.032 673.306 174.677 669.692 182.441C666.077 190.206 663.5 195.378 662.726 198.219C661.952 201.06 652.571 213.571 652.648 215.901C652.648 216.629 650.326 220.546 647.161 225.516L648.089 226.476L650.125 228.574C650.125 228.574 656.58 244.615 648.84 245.389C642.3 246.04 637.602 246.512 635.218 245.862C634.831 245.771 634.464 245.611 634.134 245.389L634.041 245.32C631.224 249.477 629.227 252.38 629.227 252.38C629.227 252.38 628.949 251.97 628.453 251.265L627.679 252.372C627.679 252.372 627.06 251.49 626.007 250.05C626.348 257.087 626.394 264.024 626.394 264.024C626.394 264.024 623.035 263.505 624.583 279.027C626.131 294.549 615.295 307.223 615.295 307.223V330.254C615.295 330.254 615.295 330.835 615.187 331.803C614.901 335.108 613.956 342.904 611.17 348.06C607.555 354.78 611.17 372.377 611.17 372.377C611.17 372.377 611.41 386.73 610.543 404.629C610.543 405.117 610.489 405.62 610.466 406.115C626.116 419.199 642.904 436.54 642.904 436.54C642.082 436.77 641.299 437.123 640.582 437.585L641.518 438.785L645.783 444.042L649.08 448.114L643.856 464.209L638.151 461.98C638.151 461.98 635.055 467.345 635.706 470.983C635.804 471.641 636.071 472.262 636.48 472.787C636.677 473.051 636.814 473.355 636.882 473.677C638.376 479.507 632.145 504.644 622.261 505.736C622.261 505.736 618.91 506.843 617.834 503.824C617.315 502.368 617.323 499.953 618.484 496.028C618.484 496.028 623.709 489.726 620.326 482.937C618.345 478.965 615.071 473.646 612.702 469.892L611.727 468.343C609.599 471.03 608.291 472.756 608.291 472.756L600.69 464.581C600.527 464.929 600.365 465.27 600.195 465.595C599.626 466.734 598.969 467.826 598.229 468.862L593.074 489.308L590.992 488.843C591.038 489.339 591.069 489.865 591.1 490.392C591.271 494.061 591.1 498.823 589.405 502.221C588.136 504.822 585.992 506.634 582.493 506.549C570.496 506.255 567.013 499.759 567.013 499.759V483.502L562.888 482.58C562.888 482.58 563.19 446.86 564.25 426.941C564.25 426.499 564.297 426.074 564.32 425.655C564.32 425.594 564.32 425.532 564.32 425.477L537.826 396.98L535.79 396.167C518.763 389.44 518.499 372.106 518.499 372.106C518.499 372.106 518.499 362.537 516.441 354.517C514.382 346.496 516.177 304.838 520.047 294.495C523.917 284.152 525.21 272.493 525.21 272.493C525.21 272.493 521.34 267.074 525.21 262.561C526.303 261.21 527.214 259.721 527.919 258.132L522.88 257.304L519.978 256.824L518.43 256.561C519.204 263.404 519.335 268.661 517.501 269.915C511.82 273.786 492.733 260.857 492.733 260.857C499.699 260.857 503.569 208.856 502.153 207.563C500.736 206.27 498.623 180.212 500.473 175.567C502.323 170.922 493.979 150.182 493.979 150.182L492.694 148.277C492.694 148.277 462.245 161.57 458.894 164.117C455.543 166.664 444.962 157.923 443.159 161.307C441.355 164.69 430.001 169.73 430.001 169.73C430.001 169.73 413.228 168.034 411.425 172.176C409.622 176.318 398.778 186.018 398.778 186.018C398.772 183.744 398.635 181.472 398.368 179.213C398.143 179.747 397.926 180.289 397.694 180.839C392.555 193.001 384.002 208.399 376.077 200.116C367.098 190.702 373.933 173.298 378.321 164.527ZM607.803 219.493V219.64L607.865 219.579L607.803 219.493ZM613.809 159.82L617.091 194.433L623.538 201.114L624.312 201.935L630.976 194.681C630.976 194.681 634.336 193.133 630.976 190.284C627.617 187.435 636.65 180.994 636.65 180.994C636.65 180.994 636.913 176.349 633.554 175.048C630.195 173.748 625.814 165.216 625.814 165.216L613.685 159.023L613.809 159.82ZM570.651 336.982C570.416 336.764 570.156 336.574 569.877 336.417C568.43 335.596 567.501 336.494 567.021 338.073C566.389 340.72 566.581 343.497 567.571 346.032C569.374 350.174 564.986 366.733 564.986 366.733C564.986 366.733 570.667 369.311 571.696 374.235C571.849 374.84 572.111 375.412 572.47 375.923C572.54 375.489 572.602 375.071 572.664 374.668C573.167 371.572 573.438 369.574 573.438 369.574C574.363 365.59 574.539 361.469 573.956 357.42C573.136 352.442 571.479 342.331 570.86 338.499C570.705 337.57 570.62 337.013 570.613 336.951L570.651 336.982Z" fill="url(#paint0_linear)"/>
<path d="M534.676 84.9267L533.005 83.8119L528.291 93.7601L530.102 95.889H535.582C535.582 95.889 535.389 90.4698 535.257 90.2763C535.125 90.0827 534.676 84.9267 534.676 84.9267Z" fill="#464353"/>
<path d="M567.037 479.252V500.541C567.037 500.541 570.52 507.021 582.516 507.315C583.973 507.401 585.421 507.033 586.659 506.26C587.897 505.488 588.865 504.35 589.428 503.003C591.1 499.612 591.294 494.859 591.123 491.197C591.038 489.365 590.844 487.54 590.543 485.731L567.037 479.252Z" fill="#3F3D56"/>
<path opacity="0.1" d="M567.037 479.252V485.84L591.124 491.197C591.039 489.365 590.845 487.54 590.544 485.731L567.037 479.252Z" fill="#2B2949"/>
<path d="M562.912 483.378L593.098 490.09L598.252 469.698C598.991 468.664 599.648 467.574 600.218 466.439C600.551 465.789 600.876 465.1 601.186 464.38C606.805 451.521 609.305 428.326 610.373 408.593C610.427 407.594 610.481 406.603 610.528 405.628C611.395 387.775 611.155 373.453 611.155 373.453C611.155 373.453 607.54 355.903 611.155 349.198C613.941 344.027 614.886 336.254 615.172 332.941C615.249 331.957 615.28 331.392 615.28 331.392L614.723 329.929L612.447 323.906H587.416L572.865 336.223L570.652 338.097L570.899 339.645C571.526 343.469 573.183 353.58 573.995 358.519C574.578 362.558 574.402 366.669 573.477 370.643C573.477 370.643 573.175 372.609 572.703 375.729C572.587 376.503 572.455 377.324 572.308 378.214C570.458 389.657 566.991 410.551 565.512 415.545C565.102 416.915 564.738 420.352 564.467 425.005C564.406 425.934 564.351 426.902 564.297 427.916C563.214 447.75 562.912 483.378 562.912 483.378Z" fill="#3F3D56"/>
<path opacity="0.1" d="M567.037 500.324V500.541C567.037 500.541 570.52 507.021 582.517 507.315C583.974 507.401 585.421 507.033 586.659 506.26C587.897 505.488 588.865 504.35 589.429 503.003C584.049 504.327 575.319 505.179 567.037 500.324Z" fill="#2B2949"/>
<path d="M376.115 201.872C384.072 210.133 392.586 194.773 397.733 182.642C400.62 175.814 402.431 170 402.431 170L381.255 161.035C381.255 161.035 379.954 163.102 378.321 166.376C373.933 175.125 367.098 192.482 376.115 201.872Z" fill="#FBB3B2"/>
<path d="M532.888 80.6455C533.228 88.3095 532.653 95.9865 531.178 103.515C531.178 103.515 574.258 108.16 570.388 101.455C568.121 97.5225 566.65 87.1409 565.829 79.2056C565.234 73.5851 564.97 69.1955 564.97 69.1955C564.97 69.1955 523.693 52.6824 529.885 66.6175C531.735 70.7748 532.594 75.6986 532.888 80.6455Z" fill="#FBB3B2"/>
<path d="M529.251 191.515L535.04 260.672L508.469 256.29L513.113 199.257L511.565 184.029L529.251 191.515Z" fill="#464353"/>
<path opacity="0.1" d="M508.469 256.398L520.009 258.303L535.048 260.78L533.987 248.161L529.251 191.623L523.221 189.068L518.949 187.265L511.565 184.137L513.113 199.365L508.469 256.398Z" fill="#2B2949"/>
<path opacity="0.1" d="M564.274 427.877L600.218 466.439C606.519 454.13 609.228 429.434 610.373 408.585C603.678 403.011 597.215 398.211 592.323 395.896C592.323 395.896 575.775 383.92 572.285 378.176C570.435 389.618 566.967 410.513 565.489 415.506C565.001 417.147 564.599 421.754 564.274 427.877Z" fill="#2B2949"/>
<path opacity="0.1" d="M572.865 336.215L614.723 329.921L612.448 323.898H587.417L572.865 336.215Z" fill="#2B2949"/>
<path opacity="0.1" d="M564.413 424.967L601.155 464.38C606.805 451.521 609.305 428.326 610.373 408.593C610.427 407.594 610.481 406.603 610.528 405.628C603.771 399.992 597.231 395.145 592.323 392.807C592.323 392.807 576.882 381.636 572.679 375.698C572.563 376.472 572.432 377.293 572.285 378.183C570.435 389.626 566.967 410.521 565.489 415.514C565.079 416.876 564.738 420.314 564.413 424.967Z" fill="#2B2949"/>
<path d="M516.472 355.632C518.531 363.637 518.531 373.182 518.531 373.182C518.531 373.182 518.794 390.469 535.822 397.182L537.858 397.956L608.291 473.538C608.291 473.538 634.352 439.475 642.866 437.408C642.866 437.408 608.555 402.051 592.301 394.309C592.301 394.309 572.688 380.119 571.658 375.218C570.629 370.318 564.948 367.732 564.948 367.732C564.948 367.732 569.336 351.219 567.533 347.085C566.543 344.558 566.351 341.789 566.983 339.15C567.463 337.601 568.392 336.68 569.839 337.493C570.118 337.65 570.378 337.84 570.613 338.058L615.242 331.346V308.407C615.242 308.407 626.078 295.765 624.53 280.281C622.982 264.798 626.341 265.317 626.341 265.317C626.341 265.317 626.178 239.165 623.973 236.982C621.767 234.799 600.575 224.797 600.575 224.797L534.135 236.603L531.395 249.315C531.395 249.315 529.073 259.425 525.203 263.915C521.333 268.406 525.203 273.817 525.203 273.817C525.203 273.817 523.91 285.43 520.04 295.765C516.17 306.1 514.406 347.635 516.472 355.632Z" fill="#3F3D56"/>
<path opacity="0.1" d="M529.886 66.6175C531.736 70.7748 532.595 75.7295 532.889 80.6455C537.524 84.6612 543.52 86.7496 549.646 86.4818C555.772 86.214 561.563 83.6104 565.83 79.2056C565.234 73.5851 564.971 69.1955 564.971 69.1955C564.971 69.1955 523.694 52.6824 529.886 66.6175Z" fill="#2B2949"/>
<path d="M524.606 61.7635C524.61 67.8828 526.951 73.7696 531.149 78.2202C535.348 82.6708 541.088 85.349 547.196 85.7072C553.303 86.0654 559.317 84.0766 564.007 80.1473C568.697 76.2181 571.709 70.6453 572.428 64.5683C573.147 58.4914 571.517 52.3694 567.873 47.454C564.229 42.5387 558.846 39.2013 552.823 38.1243C546.801 37.0473 540.595 38.312 535.473 41.6598C530.352 45.0076 526.703 50.1857 525.272 56.1353C524.829 57.9785 524.605 59.8677 524.606 61.7635Z" fill="#FBB3B2"/>
<path opacity="0.1" d="M544.072 103.515C544.072 103.515 561.317 95.5174 562.393 94.48C563.469 93.4426 599.243 185.321 599.243 185.321L609.305 230.998C609.305 230.998 555.644 253.96 544.034 250.863C532.424 247.766 531.394 250.863 531.394 250.863C531.394 250.863 519.521 184.284 515.651 178.354C511.781 172.424 519.266 112.03 519.266 112.03L532.679 94.4723L544.072 103.515Z" fill="#2B2949"/>
<path opacity="0.1" d="M544.072 100.418C544.072 100.418 561.317 92.4207 562.393 91.3833C563.469 90.3459 599.243 182.225 599.243 182.225L609.305 227.901C609.305 227.901 555.644 250.863 544.034 247.766C532.424 244.669 531.394 247.766 531.394 247.766C531.394 247.766 519.521 181.187 515.651 175.257C511.781 169.327 519.266 108.934 519.266 108.934L532.679 91.3756L544.072 100.418Z" fill="#2B2949"/>
<path d="M515.698 176.806C516.472 178.036 517.641 181.861 518.949 187.156C519.862 190.841 520.853 195.231 521.867 199.953C526.433 221.266 531.433 249.322 531.433 249.322C531.433 249.322 531.751 248.378 533.987 248.053C535.799 247.789 538.879 247.936 544.049 249.322C555.659 252.419 609.328 229.449 609.328 229.449L607.78 222.482L599.266 183.773C599.266 183.773 563.399 91.902 562.37 92.9394C561.743 93.5665 555.04 96.8103 549.932 99.2179C546.673 100.766 544.049 101.966 544.049 101.966L533.213 93.4039L532.617 92.9316L519.266 110.482C519.266 110.482 511.828 170.868 515.698 176.806Z" fill="#EAF0FC"/>
<path opacity="0.1" d="M556.72 111.001C555.172 116.954 558.778 126.74 558.778 126.74C558.778 126.74 571.162 157.196 574.777 171.27C578.391 185.345 599.065 213.71 599.065 213.71C599.065 213.71 602.099 216.753 606.348 220.988C606.82 221.46 607.316 221.948 607.811 222.459L599.297 183.75C599.297 183.75 563.43 91.8788 562.401 92.9162C561.774 93.5433 555.071 96.7871 549.963 99.1948C553.159 102.106 557.749 107.06 556.72 111.001Z" fill="#2B2949"/>
<path d="M558.267 111.001C556.719 116.954 560.326 126.74 560.326 126.74C560.326 126.74 572.71 157.196 576.325 171.27C579.939 185.345 600.613 213.71 600.613 213.71C600.613 213.71 603.647 216.753 607.896 220.988C608.399 221.491 608.925 222.009 609.444 222.536C617.741 230.796 629.405 242.378 633.051 245.761C633.585 246.264 633.949 246.589 634.103 246.698C634.433 246.92 634.8 247.08 635.187 247.17C637.571 247.82 642.269 247.348 648.809 246.698C656.549 245.924 650.094 229.929 650.094 229.929L648.059 227.831L646.201 225.911L625.117 204.211L623.569 202.578L617.122 195.928L613.84 161.4L613.763 160.571C613.763 160.571 614.723 158.38 616.201 155.036C620.14 145.986 627.88 128.52 630.713 122.877C631.038 122.219 631.294 121.731 631.487 121.429C631.487 121.39 631.526 121.352 631.549 121.321C633.616 117.968 627.942 118.224 627.942 118.224C627.942 118.224 622.261 116.676 623.298 114.353C624.336 112.031 616.588 110.482 616.843 107.13C617.099 103.778 612.199 103.259 612.199 103.259C612.199 103.259 605.233 105.582 606.007 103.259C606.781 100.937 595.171 99.6438 595.171 99.6438C595.171 99.6438 589.498 102.485 586.402 99.6438C583.306 96.8025 570.605 96.8103 570.605 96.8103C570.605 96.8103 573.198 87.0015 570.605 84.1603C568.012 81.3191 548.569 96.8103 548.569 96.8103C548.569 96.8103 559.815 105.055 558.267 111.001Z" fill="#464353"/>
<path opacity="0.1" d="M622.765 243.121C622.765 243.121 601.348 273.314 586.387 263.513C571.426 253.712 606.511 228.156 606.511 228.156L622.765 243.121Z" fill="#2B2949"/>
<path d="M622.765 241.573C622.765 241.573 601.348 271.766 586.387 261.964C571.426 252.163 606.511 226.608 606.511 226.608L622.765 241.573Z" fill="#FBB3B2"/>
<path opacity="0.1" d="M520.009 258.194C518.376 243.942 513.639 222.528 517.501 216.033C519.413 212.812 520.829 206.673 521.866 199.953C522.424 196.338 522.865 192.552 523.221 188.96C524.165 179.43 524.467 171.27 524.467 171.27C524.467 171.27 533.755 129.836 531.952 121.321C530.822 115.994 532.122 102.648 533.252 93.4039L532.656 92.9316L519.305 110.482C519.305 110.482 511.828 170.868 515.698 176.806C516.472 178.036 517.64 181.861 518.948 187.156L511.565 184.06L513.112 199.287L508.469 256.321L520.009 258.194Z" fill="#2B2949"/>
<path d="M533.004 83.8119C533.004 83.8119 519.66 94.9987 514.583 95.2542C514.583 95.2542 515.953 101.448 521.626 104.033C521.626 104.033 507.694 105.876 502.532 105.078C497.369 104.281 488.344 105.582 486.541 108.175C484.737 110.769 480.821 114.098 477.725 114.609C474.629 115.119 471.262 118.224 471.262 118.224L493.979 151.769C493.979 151.769 502.238 172.416 500.434 177.061C498.631 181.706 500.697 207.772 502.114 209.058C503.53 210.343 499.66 262.22 492.694 262.22C492.694 262.22 511.781 275.125 517.462 271.255C523.143 267.384 510.233 225.578 515.914 216.025C521.595 206.472 522.88 171.262 522.88 171.262C522.88 171.262 532.168 129.836 530.357 121.321C528.546 112.805 533.004 83.8119 533.004 83.8119Z" fill="#464353"/>
<path opacity="0.1" d="M378.321 166.083C385.218 163.931 395.783 163.869 397.733 182.341C400.62 175.513 402.431 169.699 402.431 169.699L381.255 160.734C381.255 160.734 379.954 162.809 378.321 166.083Z" fill="#2B2949"/>
<path d="M483.918 116.676L471.263 118.224C471.263 118.224 467.393 123.388 463.794 123.388C460.195 123.388 457.346 128.033 457.346 128.033C457.346 128.033 452.184 130.866 448.832 130.092C445.481 129.318 431.549 128.04 429.483 130.231C427.416 132.422 414.003 134.482 414.003 134.482C414.003 134.482 408.84 142.479 404.196 142.479C399.552 142.479 373.755 161.322 372.981 168.026C372.981 168.026 398.523 151.769 398.778 187.512C398.778 187.512 409.614 177.835 411.425 173.709C413.236 169.583 430.001 171.262 430.001 171.262C430.001 171.262 441.348 166.223 443.159 162.87C444.97 159.518 455.543 168.212 458.894 165.665C462.246 163.118 492.695 149.864 492.695 149.864L502.114 132.159L483.918 116.676Z" fill="#464353"/>
<path d="M542.27 148.03C541.06 148.03 540.079 147.049 540.079 145.839C540.079 144.629 541.06 143.648 542.27 143.648C543.479 143.648 544.46 144.629 544.46 145.839C544.46 147.049 543.479 148.03 542.27 148.03Z" fill="#3F3D56"/>
<path d="M544.459 193.775C543.25 193.775 542.269 192.794 542.269 191.584C542.269 190.374 543.25 189.394 544.459 189.394C545.669 189.394 546.65 190.374 546.65 191.584C546.65 192.794 545.669 193.775 544.459 193.775Z" fill="#3F3D56"/>
<path d="M542.27 169.699C541.06 169.699 540.079 168.718 540.079 167.508C540.079 166.298 541.06 165.317 542.27 165.317C543.479 165.317 544.46 166.298 544.46 167.508C544.46 168.718 543.479 169.699 542.27 169.699Z" fill="#3F3D56"/>
<path d="M548.593 217.852C547.383 217.852 546.402 216.871 546.402 215.661C546.402 214.451 547.383 213.47 548.593 213.47C549.803 213.47 550.783 214.451 550.783 215.661C550.783 216.871 549.803 217.852 548.593 217.852Z" fill="#3F3D56"/>
<path opacity="0.1" d="M525.272 56.1043C525.798 55.9262 526.325 55.7172 526.82 55.5082C528.593 54.7882 530.458 53.9598 531.534 52.4115C532.517 50.9715 532.834 48.9432 534.367 48.1226C536.131 47.1781 538.237 48.4555 540.148 48.8968C542.424 49.4309 544.792 48.7961 547.006 47.9832C550.303 46.7678 554.908 44.5304 558.291 46.8452C560.922 48.6413 559.901 52.4502 560.574 55.1675C561.619 59.3868 566.1 62.1351 566.944 66.4008C567.323 68.282 567.076 70.5813 568.6 71.7503C569.045 72.0676 569.551 72.2891 570.087 72.4006C571.581 69.3738 572.42 66.0656 572.549 62.6923C572.678 59.319 572.095 55.9563 570.836 52.824C569.577 49.6917 567.672 46.8602 565.245 44.5146C562.818 42.1689 559.923 40.3618 556.75 39.2113C553.577 38.0608 550.197 37.5928 546.831 37.8379C543.465 38.083 540.188 39.0356 537.215 40.6335C534.242 42.2315 531.64 44.4388 529.578 47.1113C527.516 49.7839 526.041 52.8614 525.249 56.143L525.272 56.1043Z" fill="#2B2949"/>
<path d="M547.021 46.4116C544.831 47.2245 542.447 47.8593 540.164 47.3174C538.221 46.8607 536.154 45.5833 534.39 46.5433C532.842 47.3716 532.532 49.3922 531.557 50.8322C530.481 52.3805 528.616 53.2476 526.835 53.9289C525.508 54.548 524.088 54.9455 522.633 55.1056C521.904 55.1769 521.169 55.0792 520.484 54.82C519.8 54.5609 519.184 54.1473 518.685 53.6115C517.308 51.947 517.725 49.4541 518.546 47.4645C519.366 45.4749 520.527 43.493 520.442 41.3408C520.342 38.786 518.492 36.5642 518.337 34.0171C518.136 30.7888 520.744 27.9709 523.701 26.6625C526.348 25.4935 529.374 25.1684 531.797 23.5658C534.56 21.7543 536.077 18.6111 538.12 16.0099C541.092 12.2242 545.744 9.39845 550.504 9.94037C553.438 10.2733 556.1 11.8061 559.018 12.4022C563.453 13.3235 568.144 11.9842 572.555 13.0138C573.621 13.1816 574.596 13.7154 575.311 14.5235C576.394 15.9789 575.837 18.015 575.357 19.7646C574.498 22.9155 574.134 26.4844 575.845 29.256C577.78 32.3914 581.89 33.7152 583.678 36.9358C584.195 37.8805 584.48 38.9345 584.511 40.0111C584.542 41.0877 584.318 42.1562 583.856 43.1292C583.004 44.9097 581.356 46.3575 581.1 48.3161C580.922 49.7251 581.503 51.0954 581.805 52.4734C582.106 53.8514 582.021 55.5701 580.884 56.3443C579.746 57.1185 578.151 56.9249 577.277 57.8926C577.012 58.2769 576.838 58.7161 576.767 59.1772C576.696 59.6384 576.73 60.1096 576.867 60.5558C577.176 62.1041 577.834 63.5054 578.182 65.0228C578.406 65.767 578.468 66.5502 578.365 67.3204C578.263 68.0906 577.997 68.8301 577.586 69.4897C576.085 71.5181 573.051 71.3942 570.62 70.8523C569.919 70.7407 569.25 70.4764 568.662 70.0781C567.114 68.9091 567.385 66.6098 567.006 64.7286C566.162 60.4706 561.681 57.7068 560.636 53.4953C559.962 50.778 560.984 46.9613 558.353 45.1652C554.931 42.9588 550.318 45.1962 547.021 46.4116Z" fill="#464353"/>
<path opacity="0.1" d="M550.783 326.476C550.783 326.476 526.487 341.96 525.713 347.898L550.783 326.476Z" fill="#2B2949"/>
<path opacity="0.1" d="M552.029 338.863C552.029 338.863 524.165 352.279 525.713 356.924L552.029 338.863Z" fill="#2B2949"/>
<path opacity="0.1" d="M553.879 350.731C553.879 350.731 538.136 358.992 537.107 363.892L553.879 350.731Z" fill="#2B2949"/>
<path opacity="0.1" d="M547.168 369.311C547.168 369.311 536.851 378.346 534.785 376.023C532.718 373.701 547.168 369.311 547.168 369.311Z" fill="#2B2949"/>
<path opacity="0.1" d="M561.619 374.994C561.619 374.994 553.577 387.891 557.447 388.666C561.317 389.44 561.619 374.994 561.619 374.994Z" fill="#2B2949"/>
<path opacity="0.1" d="M596.921 145.839C596.921 145.839 610.597 154.091 606.472 156.158C602.347 158.225 596.921 145.839 596.921 145.839Z" fill="#2B2949"/>
<path opacity="0.1" d="M596.92 115.383C596.92 115.383 610.852 140.93 604.405 139.127C597.958 137.323 596.92 115.383 596.92 115.383Z" fill="#2B2949"/>
<path opacity="0.1" d="M448.871 140.93C448.871 140.93 457.385 150.948 455.837 156.414L448.871 140.93Z" fill="#2B2949"/>
<path opacity="0.1" d="M426.642 145.839C426.642 145.839 439.421 157.188 437.548 158.481L426.642 145.839Z" fill="#2B2949"/>
<path opacity="0.1" d="M418.685 159.781C418.685 159.781 419.978 167.245 417.911 167.523L418.685 159.781Z" fill="#2B2949"/>
<path opacity="0.05" d="M558.136 317.24C561.425 321.498 561.425 329.047 562.911 332.143C563.724 333.846 565.535 336.788 567.006 339.173C567.486 337.624 568.414 336.703 569.862 337.516C570.814 330.417 572.493 318.162 573.035 315.692C573.809 312.208 565.295 302.918 565.295 302.918C565.295 302.918 556.975 304.66 554.846 308.918C552.718 313.176 554.846 312.99 558.136 317.24Z" fill="#2B2949"/>
<path opacity="0.1" d="M601.093 227.645C610.381 228.931 627.664 253.704 627.664 253.704C627.664 253.704 629.932 250.406 633.082 245.8C637.045 239.955 642.37 231.989 646.24 225.95L623.562 202.555L619.436 206.998C619.436 206.998 611.433 214.995 611.433 216.544C611.433 217.148 609.885 218.982 607.919 220.988C604.908 224.108 601.093 227.645 601.093 227.645Z" fill="#2B2949"/>
<path d="M619.924 122.095L631.534 121.321C631.534 121.321 634.63 128.544 637.207 129.062C639.785 129.581 643.144 135.511 643.144 135.511C643.144 135.511 653.082 137.323 652.649 140.419C652.215 143.516 667.927 165.665 667.927 165.665C667.927 165.665 673.09 176.287 669.475 184.029C665.861 191.77 663.283 196.934 662.509 199.767C661.735 202.601 652.571 214.995 652.649 217.318C652.726 219.64 629.228 253.704 629.228 253.704C629.228 253.704 611.944 228.931 602.656 227.638C602.656 227.638 612.974 218.092 612.974 216.544C612.974 214.995 620.915 206.998 620.915 206.998L630.977 196.16C630.977 196.16 634.336 194.611 630.977 191.77C627.618 188.929 636.65 182.48 636.65 182.48C636.65 182.48 636.913 177.835 633.554 176.542C630.195 175.249 625.814 166.741 625.814 166.741L613.686 160.548L619.924 122.095Z" fill="#464353"/>
<g opacity="0.1">
<path opacity="0.1" d="M574.66 23.829C574.591 21.9533 574.826 20.0786 575.357 18.2782C575.58 17.5168 575.751 16.7407 575.867 15.9557C575.967 17.2674 575.793 18.5855 575.357 19.8266C574.989 21.1336 574.756 22.4747 574.66 23.829Z" fill="#2B2949"/>
<path opacity="0.1" d="M520.38 40.8608C520.078 38.5383 518.484 36.4248 518.337 34.0481C518.313 33.6527 518.329 33.256 518.383 32.8636C518.685 35.2636 520.349 37.3925 520.442 39.8312C520.452 40.1755 520.431 40.5201 520.38 40.8608Z" fill="#2B2949"/>
<path opacity="0.1" d="M518.685 52.0863C519.184 52.6222 519.8 53.0358 520.484 53.2949C521.169 53.5541 521.904 53.6518 522.632 53.5805C524.088 53.4203 525.508 53.0228 526.835 52.4037C528.615 51.6838 530.481 50.8554 531.557 49.307C532.54 47.8671 532.857 45.8465 534.389 45.0181C536.154 44.0736 538.259 45.351 540.171 45.7923C542.447 46.3342 544.815 45.6994 547.021 44.8865C550.318 43.6711 554.931 41.4337 558.314 43.7407C560.945 45.5368 559.924 49.3535 560.597 52.0708C561.642 56.2823 566.123 59.0384 566.967 63.3041C567.346 65.1853 567.099 67.4846 568.623 68.6536C569.214 69.0532 569.885 69.3175 570.589 69.4278C573.051 69.9697 576.085 70.0936 577.555 68.0652C577.98 67.4855 578.247 66.8052 578.329 66.0911C578.529 67.321 578.252 68.5808 577.555 69.6136C576.054 71.6419 573.02 71.5181 570.589 70.9761C569.885 70.8659 569.214 70.6015 568.623 70.202C567.075 69.033 567.346 66.7337 566.967 64.8524C566.123 60.5945 561.642 57.8307 560.597 53.6192C559.924 50.9018 560.945 47.0852 558.314 45.2891C554.931 42.9666 550.318 45.2194 547.021 46.4349C544.831 47.2477 542.447 47.8826 540.171 47.3406C538.221 46.8839 536.154 45.6065 534.389 46.5665C532.841 47.3948 532.54 49.4154 531.557 50.8554C530.481 52.4037 528.615 53.2708 526.835 53.9521C525.508 54.5712 524.088 54.9687 522.632 55.1288C521.904 55.2001 521.169 55.1024 520.484 54.8433C519.8 54.5841 519.184 54.1705 518.685 53.6347C518.309 53.1315 518.041 52.5563 517.898 51.9449C517.754 51.3336 517.737 50.6992 517.849 50.0812C517.931 50.8157 518.221 51.5115 518.685 52.0863Z" fill="#2B2949"/>
<path opacity="0.1" d="M581.1 46.7987C581.355 44.8401 583.004 43.3924 583.855 41.6118C584.175 40.9413 584.379 40.2215 584.459 39.4828C584.607 40.741 584.398 42.0154 583.855 43.1601C583.027 44.8865 581.464 46.311 581.139 48.1768C581.06 47.7216 581.047 47.2576 581.1 46.7987Z" fill="#2B2949"/>
<path opacity="0.1" d="M576.796 58.8913C576.686 58.4749 576.668 58.0392 576.744 57.6152C576.82 57.1911 576.989 56.789 577.238 56.4372C578.112 55.4385 579.776 55.663 580.844 54.8888C581.128 54.6648 581.363 54.3864 581.537 54.07C581.712 53.7536 581.821 53.4055 581.858 53.0463C582.029 54.3082 581.858 55.7017 580.844 56.4372C579.831 57.1726 578.112 57.0178 577.238 57.9855C577.02 58.2475 576.868 58.5582 576.796 58.8913Z" fill="#2B2949"/>
</g>
</g>
<defs>
<linearGradient id="paint0_linear" x1="521.216" y1="506.634" x2="521.216" y2="7.96624" gradientUnits="userSpaceOnUse">
<stop stop-color="#808080" stop-opacity="0.25"/>
<stop offset="0.54" stop-color="#808080" stop-opacity="0.12"/>
<stop offset="1" stop-color="#808080" stop-opacity="0.1"/>
</linearGradient>
<clipPath id="clip0">
<rect width="858" height="523" fill="white" transform="matrix(-1 0 0 1 858 0)"/>
</clipPath>
</defs>
</svg>
