<svg width="10" height="9" viewBox="0 0 10 9" fill="none" xmlns="http://www.w3.org/2000/svg">
<path fill-rule="evenodd" clip-rule="evenodd" d="M5.43002 0.564911C5.48231 0.512489 5.54443 0.470898 5.61282 0.442521C5.68121 0.414143 5.75452 0.399536 5.82856 0.399536C5.9026 0.399536 5.97592 0.414143 6.0443 0.442521C6.11269 0.470898 6.17481 0.512489 6.2271 0.564911L9.60454 3.94235C9.65696 3.99464 9.69855 4.05675 9.72692 4.12514C9.7553 4.19353 9.76991 4.26684 9.76991 4.34089C9.76991 4.41493 9.7553 4.48824 9.72692 4.55663C9.69855 4.62502 9.65696 4.68713 9.60454 4.73942L6.2271 8.11686C6.1214 8.22256 5.97804 8.28194 5.82856 8.28194C5.67908 8.28194 5.53572 8.22256 5.43002 8.11686C5.32432 8.01116 5.26494 7.8678 5.26494 7.71832C5.26494 7.56884 5.32432 7.42548 5.43002 7.31979L8.41005 4.34089L5.43002 1.36199C5.3776 1.3097 5.33601 1.24758 5.30763 1.17919C5.27926 1.1108 5.26465 1.03749 5.26465 0.963448C5.26465 0.889407 5.27926 0.816092 5.30763 0.747705C5.33601 0.679317 5.3776 0.6172 5.43002 0.564911Z" fill="black"/>
<path fill-rule="evenodd" clip-rule="evenodd" d="M0.762207 4.33988C0.762207 4.19059 0.821513 4.04741 0.927079 3.94185C1.03264 3.83628 1.17582 3.77698 1.32511 3.77698H8.64289C8.79219 3.77698 8.93536 3.83628 9.04093 3.94185C9.1465 4.04741 9.2058 4.19059 9.2058 4.33988C9.2058 4.48918 9.1465 4.63235 9.04093 4.73792C8.93536 4.84348 8.79219 4.90279 8.64289 4.90279H1.32511C1.17582 4.90279 1.03264 4.84348 0.927079 4.73792C0.821513 4.63235 0.762207 4.48918 0.762207 4.33988Z" fill="black"/>
</svg>
