<svg width="33" height="29" viewBox="0 0 33 29" fill="none" xmlns="http://www.w3.org/2000/svg">
<path d="M4.46862 14.9807V14.7125H0.670314C0.178762 14.7126 0 15.1595 0 15.651V23.9626C0 24.4541 0.178762 24.9903 0.670314 24.9903H3.35149C3.7617 24.9546 4.13838 25.2183 4.24521 25.6159L4.82614 28.2077L7.64134 25.2137C7.81087 25.0574 8.03676 24.9767 8.26692 24.9903H14.2102C14.7418 24.9276 15.1541 24.4965 15.1933 23.9626V19.628H9.02662C6.51489 19.5336 4.51429 17.4938 4.46862 14.9807Z" fill="#7D7D91"/>
<path d="M29.7163 0.413052H9.02666C7.552 0.413052 6.2561 1.30678 6.2561 2.78143V14.9808C6.27809 16.5167 7.49221 17.77 9.02666 17.8407H18.0533C18.2835 17.8271 18.5093 17.9078 18.6789 18.0641L23.9518 23.7393L25.1583 18.4663C25.2461 18.0754 25.6081 17.8087 26.0074 17.8407H29.7163C31.191 17.8407 32.1741 16.4554 32.1741 14.9808V2.78143C32.174 1.30678 31.1909 0.413052 29.7163 0.413052ZM10.2332 5.32849H20.9579C21.4515 5.32849 21.8516 5.72861 21.8516 6.22221C21.8516 6.71582 21.4515 7.11594 20.9579 7.11594H10.2332C9.73957 7.11594 9.33945 6.71582 9.33945 6.22221C9.33945 5.72861 9.73957 5.32849 10.2332 5.32849ZM28.1076 12.4783H10.2331C9.73948 12.4783 9.33936 12.0782 9.33936 11.5846C9.33936 11.091 9.73948 10.6908 10.2331 10.6908H28.1076C28.6012 10.6908 29.0013 11.091 29.0013 11.5846C29.0013 12.0782 28.6012 12.4783 28.1076 12.4783Z" fill="#7D7D91"/>
</svg>
