<svg width="19" height="19" viewBox="0 0 19 19" fill="none" xmlns="http://www.w3.org/2000/svg">
<path fill-rule="evenodd" clip-rule="evenodd" d="M7.51461 15.0292C3.36441 15.0292 0 11.6648 0 7.51461C0 3.36441 3.36441 0 7.51461 0C11.6648 0 15.0292 3.36441 15.0292 7.51461C15.0292 11.6648 11.6648 15.0292 7.51461 15.0292ZM7.51467 13.6115C10.8818 13.6115 13.6114 10.8819 13.6114 7.51471C13.6114 4.14756 10.8818 1.41795 7.51467 1.41795C4.14752 1.41795 1.41791 4.14756 1.41791 7.51471C1.41791 10.8819 4.14752 13.6115 7.51467 13.6115ZM18.2244 18.2245C18.5012 17.9476 18.5012 17.4988 18.2244 17.2219L14.8215 13.8191C14.5447 13.5422 14.0958 13.5422 13.819 13.8191C13.5421 14.0959 13.5421 14.5448 13.819 14.8217L17.2218 18.2245C17.4987 18.5014 17.9475 18.5014 18.2244 18.2245Z" fill="white"/>
</svg>
