<svg width="20" height="20" viewBox="0 0 20 20" fill="none" xmlns="http://www.w3.org/2000/svg">
<path d="M7.06505 11.034C7.06505 10.7834 6.86184 10.5804 6.61109 10.5804H5.02695C4.7765 10.5804 4.57324 10.7834 4.57324 11.034V12.6179C4.57324 12.8688 4.7765 13.0718 5.02695 13.0718H6.61109C6.86184 13.0718 7.06505 12.8688 7.06505 12.6179V11.034Z" fill="#2945FF"/>
<path d="M11.0248 11.034C11.0248 10.7834 10.8215 10.5804 10.5713 10.5804H8.98692C8.73646 10.5804 8.5332 10.7834 8.5332 11.034V12.6179C8.5332 12.8688 8.73646 13.0718 8.98692 13.0718H10.5713C10.8215 13.0718 11.0248 12.8688 11.0248 12.6179V11.034Z" fill="#2945FF"/>
<path d="M14.983 11.034C14.983 10.7834 14.7798 10.5804 14.5293 10.5804H12.9452C12.6944 10.5804 12.4912 10.7834 12.4912 11.034V12.6179C12.4912 12.8688 12.6944 13.0718 12.9452 13.0718H14.5293C14.7798 13.0718 14.983 12.8688 14.983 12.6179V11.034Z" fill="#2945FF"/>
<path d="M7.06505 14.9933C7.06505 14.7424 6.86184 14.5396 6.61109 14.5396H5.02695C4.7765 14.5396 4.57324 14.7424 4.57324 14.9933V16.577C4.57324 16.8277 4.7765 17.0307 5.02695 17.0307H6.61109C6.86184 17.0307 7.06505 16.8276 7.06505 16.577V14.9933Z" fill="#2945FF"/>
<path d="M11.0248 14.9933C11.0248 14.7424 10.8215 14.5396 10.5713 14.5396H8.98692C8.73646 14.5396 8.5332 14.7424 8.5332 14.9933V16.577C8.5332 16.8277 8.73646 17.0307 8.98692 17.0307H10.5713C10.8215 17.0307 11.0248 16.8276 11.0248 16.577V14.9933Z" fill="#2945FF"/>
<path d="M14.983 14.9933C14.983 14.7424 14.7798 14.5396 14.5295 14.5396H12.9452C12.6944 14.5396 12.4912 14.7424 12.4912 14.9933V16.577C12.4912 16.8277 12.6944 17.0307 12.9452 17.0307H14.5295C14.7798 17.0307 14.983 16.8276 14.983 16.577V14.9933Z" fill="#2945FF"/>
<path d="M17.8159 2.22695V4.64628C17.8159 5.7398 16.9288 6.621 15.8355 6.621H14.5861C13.4927 6.621 12.5938 5.7398 12.5938 4.64628V2.21826H6.9628V4.64628C6.9628 5.7398 6.06398 6.621 4.97071 6.621H3.72114C2.62783 6.621 1.74077 5.7398 1.74077 4.64628V2.22695C0.785207 2.25575 0 3.04645 0 4.01832V18.1968C0 19.1869 0.802538 20.0001 1.79268 20.0001H17.764C18.7526 20.0001 19.5566 19.1852 19.5566 18.1968V4.01832C19.5566 3.04645 18.7715 2.25575 17.8159 2.22695ZM17.2356 17.3138C17.2356 17.7417 16.8887 18.0889 16.4606 18.0889H3.06188C2.63381 18.0889 2.28687 17.7417 2.28687 17.3138V9.99016C2.28687 9.5621 2.63377 9.21495 3.06188 9.21495H16.4606C16.8887 9.21495 17.2356 9.5621 17.2356 9.99016L17.2356 17.3138Z" fill="#2945FF"/>
<path d="M3.71632 5.32397H4.95209C5.32718 5.32397 5.63131 5.02029 5.63131 4.6452V0.679011C5.63131 0.303881 5.32718 0 4.95209 0H3.71632C3.3412 0 3.03711 0.303881 3.03711 0.679011V4.6452C3.03711 5.02029 3.3412 5.32397 3.71632 5.32397Z" fill="#2945FF"/>
<path d="M14.5698 5.32397H15.8056C16.1804 5.32397 16.4845 5.02029 16.4845 4.6452V0.679011C16.4846 0.303881 16.1804 0 15.8056 0H14.5698C14.1948 0 13.8906 0.303881 13.8906 0.679011V4.6452C13.8906 5.02029 14.1948 5.32397 14.5698 5.32397Z" fill="#2945FF"/>
</svg>
