<svg width="1123" height="1100" viewBox="0 0 1123 1100" fill="none" xmlns="http://www.w3.org/2000/svg">
<g clip-path="url(#clip0)">
<path d="M807.312 963.61C798.78 954.505 778.964 946.712 752.408 941.543V824.192H751.196V822.979H729.327V824.192H694.944C698.029 806.442 708.308 744.54 706.236 719.666C706.236 719.666 732.964 646.739 711.095 585.968C711.095 585.968 732.964 590.829 735.398 566.526C737.361 546.903 759.882 503.537 734.014 478.592C727.942 472.256 718.921 466.961 705.892 463.449L699.558 445.726C703.693 439.191 706.236 430.393 706.236 420.672C706.236 407.593 701.649 396.134 694.754 389.698C690.791 385.48 685.95 383 680.72 383C676.743 383.063 672.899 384.445 669.79 386.928C670.243 387.272 670.695 387.643 671.12 388.024C663.131 393.997 657.639 406.371 657.639 420.672C657.639 431.534 660.806 441.191 665.782 447.826L662.488 469.242C662.488 469.242 594.456 452.225 623.582 566.481C623.582 566.481 630.875 585.923 643.026 585.923C643.026 585.923 635.733 673.432 647.885 705.039C647.885 705.039 643.026 782.827 652.744 799.844V824.147H592.031V944.53C560.933 951.654 541 962.633 541 974.879C541 996.358 601.93 1013.8 677.083 1013.8C752.236 1013.8 813.157 996.386 813.157 974.879C813.157 970.978 811.103 967.186 807.312 963.61Z" fill="#899FF0"/>
<mask id="mask0" mask-type="alpha" maskUnits="userSpaceOnUse" x="148" y="30" width="888" height="1069">
<path fill-rule="evenodd" clip-rule="evenodd" d="M764.5 30L148.5 978L288.35 998.812C288.117 1000.2 288 1001.6 288 1003C288 1056.02 455.445 1099 662 1099C868.555 1099 1036 1056.02 1036 1003C1036 966.939 958.54 935.522 844 919.114V515.5V73.5V58.5L843.5 54.5L843 52L842.5 50.5L841.5 48L841 47L840.5 46L840 45L839.5 44L838.5 42.5L836.5 40L835 38.5L833 36.5L828.5 33.5L825 32L822.5 31L820 30.5L815 30H804H764.5Z" fill="#C4C4C4"/>
</mask>
<g mask="url(#mask0)">
<path d="M272 1044L775 28L847.5 31.5L837 1044H272Z" fill="url(#paint0_linear)"/>
</g>
<path d="M988.182 934.958C978.989 925.173 957.717 916.792 929.224 911.243V785.139H927.921V783.836H904.396V785.139H867.435C870.747 766.059 881.794 699.531 879.568 672.811C879.568 672.811 908.287 594.453 884.789 529.148C884.789 529.148 908.314 534.37 910.902 508.248C913.01 487.158 937.214 440.562 909.418 413.751C902.894 406.909 893.195 401.251 879.188 397.459L872.393 378.451C876.827 371.436 879.568 361.968 879.568 351.532C879.568 337.475 874.628 325.156 867.227 318.241C862.965 313.715 857.763 311 852.144 311C847.864 311.066 843.728 312.549 840.381 315.218C840.87 315.589 841.34 315.987 841.811 316.404C833.224 322.821 827.334 336.118 827.334 351.487C827.334 363.118 830.727 373.536 836.092 380.714L832.555 403.732C832.555 403.732 759.446 385.475 790.789 508.248C790.789 508.248 798.624 529.148 811.681 529.148C811.681 529.148 803.845 623.182 816.901 657.143C816.901 657.143 811.681 740.733 822.131 759.017V785.139H756.84V914.483C723.417 922.141 702 933.899 702 947.068C702 970.159 767.472 988.868 848.235 988.868C928.998 988.868 994.461 970.195 994.461 947.096C994.461 942.878 992.253 938.805 988.182 934.958Z" fill="#ACBCE8"/>
<path d="M716.914 970.728C710.58 963.94 695.795 958.138 676.016 954.291V866.891H675.111V865.985H658.825V866.891H633.219C635.517 853.666 643.172 807.55 641.634 789.049C641.634 789.049 661.539 734.74 645.253 689.483C645.253 689.483 661.539 693.104 663.349 675.001C664.815 660.383 681.59 628.088 662.317 609.505C657.793 604.762 651.08 600.843 641.371 598.227L636.666 585.003C640.027 579.366 641.751 572.902 641.643 566.339C641.643 556.6 638.222 548.064 633.083 543.267C630.133 540.126 626.532 538.28 622.642 538.28C619.678 538.329 616.814 539.36 614.498 541.212C614.842 541.466 615.168 541.737 615.494 542.027C609.54 546.471 605.45 555.686 605.45 566.339C605.45 574.404 607.812 581.627 611.531 586.596L609.07 602.554C609.07 602.554 558.4 589.882 580.116 674.965C580.116 674.965 585.545 689.447 594.593 689.447C594.593 689.447 589.164 754.617 598.212 778.151C598.212 778.151 594.593 836.08 601.831 848.752V866.854H556.591V956.463C533.428 961.767 518.589 969.923 518.589 979.092C518.589 995.094 563.965 1008.06 619.927 1008.06C675.89 1008.06 721.266 995.085 721.266 979.092C721.266 976.213 719.737 973.389 716.914 970.728Z" fill="#EBE9D4"/>
<path d="M613.892 985.554C610.146 981.553 601.451 978.132 589.797 975.86V924.358H589.263V923.824H579.663V924.358H564.571C565.928 916.564 570.443 889.383 569.529 878.476C569.529 878.476 581.292 846.461 571.665 819.787C571.665 819.787 581.265 821.923 582.332 811.252C583.192 802.644 593.081 783.609 581.726 772.656C579.012 769.86 575.094 767.551 569.376 766.013L566.598 758.229C568.582 754.908 569.597 751.099 569.529 747.231C569.529 741.492 567.512 736.46 564.49 733.654C563.723 732.762 562.779 732.04 561.719 731.534C560.658 731.027 559.503 730.747 558.328 730.712C556.582 730.743 554.896 731.351 553.532 732.441C553.734 732.591 553.927 732.751 554.111 732.921C550.61 735.537 548.203 740.968 548.203 747.249C548.106 751.499 549.353 755.672 551.768 759.17L550.32 768.574C550.32 768.574 520.462 761.107 533.256 811.252C533.256 811.252 536.459 819.787 541.788 819.787C541.788 819.787 538.594 858.201 543.923 872.068C543.923 872.068 541.788 906.219 546.059 913.704V924.376H519.403V977.209C505.749 980.331 497 985.138 497 990.523C497 999.955 523.746 1007.6 556.717 1007.6C589.688 1007.6 616.435 999.955 616.435 990.523C616.462 988.785 615.557 987.12 613.892 985.554Z" fill="#C6CFE9"/>
<path d="M364.903 989.455H1343C1343 989.455 1306.81 1087.86 1214.09 1052.82C1121.38 1017.77 1065.97 1059.6 1015.08 1078.83C964.193 1098.05 862.43 1112.77 836.426 1083.35C810.421 1053.94 786.661 1040.37 695.086 1051.67C603.51 1062.98 543.558 1086.74 532.22 1055.07C520.883 1023.4 518.648 1013.22 454.199 1018.86C389.749 1024.51 364.903 989.455 364.903 989.455Z" fill="#41405B"/>
<path d="M712.434 601.608C699.309 623.89 697.298 650.706 692.877 676.162C685.936 715.608 672.336 753.651 665.481 793.119C663.092 806.927 661.546 820.928 657.752 834.412C652.541 852.937 643.243 870.037 634.519 887.147C619.664 916.382 606.183 946.781 600.637 979.092C598.907 989.164 600.259 1002.84 610.248 1005C613.102 1005.64 616.313 1005.13 618.745 1006.75C620.173 1007.69 621.081 1009.21 622.227 1010.47C626.616 1015.31 634.173 1015.87 640.443 1014.11C646.714 1012.35 652.184 1008.49 658 1005.48C681.093 993.601 708.466 995.015 734.369 996.699C739.137 997.002 744.488 997.595 747.505 1001.31C749.029 1003.2 749.667 1005.63 750.802 1007.79C754.824 1015.61 765.44 1019.25 773.419 1015.54C776.402 1014.14 778.965 1011.91 782.067 1010.77C791.549 1007.24 801.527 1014.89 811.679 1014.94C826.274 1015.01 837.258 999.571 851.842 999.042C861.788 998.686 870.88 1005.45 880.826 1005.52C888.285 1005.52 895.161 1001.76 901.648 998.103L945.973 973.101C934.123 956.551 919.609 942.077 903.021 930.264C890.815 921.628 887.518 904.355 880.069 891.401C875.15 882.829 870.177 874.128 867.777 864.553C866.047 857.644 865.701 850.454 863.993 843.534C861.626 833.991 856.75 825.3 852.879 816.265C837.528 780.467 838.047 739.617 823.982 703.291C820.025 693.057 814.933 683.265 811.419 672.869C806.792 659.18 804.987 644.671 800.316 631.004C795.646 617.337 787.343 603.919 774.1 598.035C768.353 595.675 762.233 594.348 756.024 594.116C740.553 593.123 726.791 595.779 712.434 601.608Z" fill="#FA0026"/>
<path d="M769.86 419.884H708.377V502.209H769.86V419.884Z" fill="#0B0D24"/>
<path d="M767.876 481.583C764.745 481.097 761.551 481.583 758.388 481.583C750.606 481.486 748.394 490.909 740.633 491.677C731.167 492.607 718.043 486.603 710.131 491.904C708.684 492.914 707.153 493.798 705.555 494.544C699.079 497.4 691.167 496.34 685.242 500.224C679.316 504.107 677.147 511.778 677.147 518.875C676.998 521.414 677.365 523.957 678.226 526.35C679.057 528.373 680.439 530.126 681.27 532.149C681.853 533.577 682.155 535.102 682.64 536.573C683.963 539.942 685.782 543.093 688.037 545.921L701.745 565.037C705.339 570.057 703.903 576.266 704.486 582.422C704.918 587.15 706.019 591.823 706.008 596.562C705.997 601.3 704.702 606.298 701.173 609.544C709.289 609.046 717.381 608.3 725.447 607.304C732.096 606.482 738.723 605.498 745.404 605.022C759.435 604.026 773.531 605.314 787.498 606.601C785.188 603.723 784.141 599.71 783.569 596.064C781.669 583.969 780.471 571.301 784.443 559.725C785.718 556.264 787.214 552.889 788.923 549.621L793.186 541.02C799.219 528.86 804.854 516.397 806.138 502.874C806.62 499.402 806.207 495.864 804.94 492.597C803.073 488.41 799.036 485.467 794.686 484.039C790.27 482.778 785.654 482.374 781.087 482.849C776.834 483.055 772.128 482.232 767.876 481.583Z" fill="#FA0026"/>
<path d="M724.596 477.517C725.572 480.139 726.741 482.949 725.979 485.659C724.564 491.036 717.339 492.127 714.187 496.677C713.912 496.985 713.723 497.363 713.638 497.772C713.553 498.181 713.576 498.605 713.704 499.002C713.855 499.267 714.051 499.502 714.283 499.696C720.169 504.962 728.681 505.414 736.486 505.326C747.86 505.216 760.007 504.224 769.023 497.14C771.542 495.156 773.912 491.851 772.625 488.865C771.628 486.585 769.002 485.725 766.825 484.601C761.947 482.078 758.452 477.275 756.523 472.019C754.593 466.764 754.1 461.089 754.014 455.492C754.101 454.535 753.899 453.573 753.435 452.738C752.685 451.636 751.291 451.471 749.972 451.383C742.625 450.879 735.247 451.182 727.963 452.286C725.904 452.595 721.981 452.881 720.533 454.611C719.086 456.341 719.922 458.39 720.201 460.274C721.071 466.165 722.545 471.944 724.596 477.517Z" fill="#FBB3B2"/>
<path opacity="0.05" d="M724.596 477.517C725.572 480.139 726.741 482.949 725.979 485.659C724.564 491.036 717.339 492.127 714.187 496.677C713.912 496.985 713.723 497.363 713.638 497.772C713.553 498.181 713.576 498.605 713.704 499.002C713.855 499.267 714.051 499.502 714.283 499.696C720.169 504.962 728.681 505.414 736.486 505.326C747.86 505.216 760.007 504.224 769.023 497.14C771.542 495.156 773.912 491.851 772.625 488.865C771.628 486.585 769.002 485.725 766.825 484.601C761.947 482.078 758.452 477.275 756.523 472.019C754.593 466.764 754.1 461.089 754.014 455.492C754.101 454.535 753.899 453.573 753.435 452.738C752.685 451.636 751.291 451.471 749.972 451.383C742.625 450.879 735.247 451.182 727.963 452.286C725.904 452.595 721.981 452.881 720.533 454.611C719.086 456.341 719.922 458.39 720.201 460.274C721.071 466.165 722.545 471.944 724.596 477.517Z" fill="black"/>
<path d="M737.034 466.778C752.286 466.778 764.65 454.414 764.65 439.162C764.65 423.911 752.286 411.547 737.034 411.547C721.783 411.547 709.419 423.911 709.419 439.162C709.419 454.414 721.783 466.778 737.034 466.778Z" fill="#FFC6C6"/>
<path opacity="0.1" d="M764.773 1010.65C762.541 1011.63 760.407 1012.82 758.397 1014.2C760.884 1015.77 763.715 1016.71 766.647 1016.94C769.578 1017.17 772.522 1016.69 775.223 1015.52C777.359 1014.52 779.275 1013.1 781.323 1011.94C775.685 1010.18 770.147 1008.65 764.773 1010.65Z" fill="black"/>
<path opacity="0.1" d="M640.069 1005.75C635.375 1008.32 630.898 1011.45 626.052 1013.59C630.454 1016.39 636.34 1016.52 641.403 1014.96C647.69 1013 653.176 1008.93 658.997 1005.7C671.703 998.766 685.709 996.048 700.04 995.296C679.27 994.556 658.336 995.736 640.069 1005.75Z" fill="black"/>
<path opacity="0.1" d="M904.051 930.279C891.87 921.642 888.59 904.369 881.145 891.414C876.236 882.842 871.273 874.141 868.878 864.565C867.151 857.655 866.806 850.465 865.101 843.545C862.749 834.001 857.883 825.311 854.021 816.275C838.7 780.476 839.207 739.624 825.18 703.296C821.221 693.061 816.139 683.27 812.632 672.873C808.025 659.184 806.159 644.674 801.551 631.007C796.944 617.339 788.604 603.92 775.387 598.036C769.744 595.51 763.519 594.528 757.347 594.117C752.141 593.773 746.915 593.863 741.724 594.387C746.839 594.815 751.854 596.054 756.581 598.058C769.766 603.942 778.084 617.361 782.745 631.028C787.407 644.696 789.219 659.206 793.826 672.895C797.333 683.291 802.458 693.083 806.364 703.318C820.39 739.646 819.883 780.497 835.204 816.296C839.077 825.332 843.943 834.023 846.295 843.567C848 850.487 848.345 857.677 850.072 864.586C852.467 874.162 857.43 882.864 862.339 891.436C869.773 904.391 873.064 921.599 885.245 930.301C901.806 942.105 916.299 956.573 928.134 973.117L883.897 998.12C880.198 1000.34 876.318 1002.24 872.298 1003.8C875.428 1004.87 878.702 1005.45 882.009 1005.54C889.443 1005.54 896.305 1001.78 902.778 998.12L947.015 973.117C935.162 956.557 920.643 942.081 904.051 930.279Z" fill="black"/>
<path opacity="0.1" d="M833.977 999.285C822.302 999.717 812.88 1009.78 802.165 1014.04C805.414 1015.17 808.802 1015.81 812.228 1015.96C824.224 1015.96 833.834 1005.53 844.891 1001.14C841.383 999.882 837.691 999.256 833.977 999.285Z" fill="black"/>
<path d="M736.468 598.307V577.942H726.573C727.102 574.891 728.872 564.229 728.516 559.949C728.516 559.949 733.123 547.401 729.357 536.944C729.86 537.066 730.384 537.071 730.889 536.959C731.394 536.847 731.867 536.621 732.271 536.299C732.675 535.976 733 535.565 733.221 535.098C733.441 534.63 733.552 534.119 733.544 533.602C733.954 529.419 739.824 518.962 728.516 516.029L727.361 512.795C728.142 511.494 728.542 510 728.516 508.483C728.516 505.022 726.638 502.209 724.329 502.209C722.02 502.209 720.143 505.022 720.143 508.483C720.102 510.155 720.593 511.797 721.545 513.173L720.973 516.903C720.973 516.903 709.255 513.97 714.284 533.634C714.284 533.634 715.535 536.976 717.628 536.976C717.628 536.976 716.377 552.069 718.47 557.459C718.47 557.459 717.628 570.838 719.301 573.77V577.953H708.835V598.663C703.439 599.892 700.041 601.778 700.041 603.891C700.041 607.589 710.539 610.586 723.488 610.586C736.436 610.586 746.934 607.589 746.934 603.891C746.934 601.552 742.78 599.503 736.468 598.307Z" fill="#FFD967"/>
<path opacity="0.1" d="M724.128 507.469C724.155 508.992 723.773 510.492 723.026 511.801L724.128 515.049C735.019 517.984 729.376 528.488 728.971 532.689C728.978 533.209 728.871 533.723 728.659 534.193C728.446 534.663 728.134 535.076 727.745 535.401C727.356 535.725 726.901 535.953 726.414 536.067C725.928 536.181 725.423 536.178 724.938 536.057C728.565 546.561 724.128 559.166 724.128 559.166C724.47 563.497 722.766 574.164 722.257 577.239H725.894C726.404 574.164 728.118 563.465 727.775 559.166C727.775 559.166 732.203 546.561 728.576 536.057C729.06 536.178 729.565 536.181 730.052 536.067C730.538 535.953 730.993 535.725 731.382 535.401C731.771 535.076 732.084 534.663 732.296 534.193C732.508 533.723 732.615 533.209 732.608 532.689C733.013 528.488 738.656 517.984 727.775 515.049L726.663 511.801C727.414 510.493 727.799 508.993 727.775 507.469C727.775 503.993 725.967 501.167 723.743 501.167C723.081 501.177 722.441 501.417 721.924 501.849C722.667 502.558 723.249 503.43 723.63 504.402C724.011 505.373 724.181 506.421 724.128 507.469Z" fill="black"/>
<path opacity="0.1" d="M736.183 598.059V577.239H732.31V598.059C738.79 599.294 743.073 601.367 743.073 603.76C743.073 607.366 733.309 610.31 720.882 610.586H722.824C736.138 610.586 746.934 607.52 746.934 603.738C746.945 601.389 742.651 599.294 736.183 598.059Z" fill="black"/>
<path d="M747.35 400.374C738.664 398.217 729.328 396.566 721.055 399.878C717.257 401.549 713.765 403.835 710.719 406.641C707.907 409.068 705.172 411.753 703.673 415.151C701.882 419.25 702.088 423.888 701.98 428.353C701.871 432.819 701.274 437.608 698.288 440.941C697.127 442.235 695.618 443.292 694.869 444.867C693.783 447.024 694.499 449.689 695.563 451.878C696.627 454.068 698.05 456.139 698.538 458.533C699.2 461.845 697.908 465.275 696.074 468.122C694.239 470.97 691.85 473.429 689.95 476.244C688.051 479.059 686.574 483.093 688.3 486.189C689.386 488.184 691.622 489.425 692.751 491.388C693.294 492.326 693.566 493.416 694.141 494.333C695.737 496.846 699.092 497.461 702.056 497.763C706.8 498.259 712.087 498.41 715.768 495.39C718.297 493.319 719.578 490.094 720.197 486.89C720.816 483.687 720.838 480.418 721.413 477.183C721.826 474.874 722.499 472.566 722.303 470.236C722.032 467.13 720.219 464.401 718.797 461.607C716.654 457.728 715.653 453.329 715.909 448.912C716.332 444.533 718.656 440.207 722.542 438.126C725.278 436.626 728.655 436.249 730.978 434.178C734.658 430.942 734.105 425.204 734.767 420.361C734.855 419.282 735.209 418.241 735.798 417.33C736.949 415.777 739.055 415.356 741.009 415.173C745.558 414.784 750.39 415.27 754.2 417.783C757.732 420.274 760.177 424.007 761.04 428.224C761.877 432.416 761.799 436.738 760.812 440.898C760.964 439.075 763.787 438.579 765.09 439.819C766.392 441.06 766.457 443.195 766.088 444.986C764.568 452.536 757.685 457.929 755.373 465.264C754.456 468.286 754.34 471.493 755.036 474.573C755.732 477.653 757.217 480.502 759.346 482.845C759.918 483.54 760.668 484.07 761.518 484.377C762.386 484.545 763.275 484.588 764.156 484.506C767.619 484.506 770.594 486.869 773.232 489.112C775.87 491.356 778.66 493.761 782.178 494.031C785.695 494.3 789.484 491.151 788.442 487.861C788.064 486.878 787.458 485.999 786.673 485.294C784.501 483.072 781.657 481.324 780.159 478.606C777.542 474.044 779.138 468.338 780.788 463.344C782.439 458.35 784.045 452.633 781.364 448.092C780.104 445.935 777.998 444.317 777.021 442.03C776.483 440.707 776.199 439.294 776.185 437.867C775.957 432.646 777.271 427.329 776.185 422.238C775.538 419.783 774.405 417.48 772.853 415.465C771.3 413.45 769.358 411.763 767.141 410.502C764.891 409.142 762.445 408.127 759.889 407.493C758.901 407.245 757.403 407.299 756.708 406.565C756.013 405.832 755.774 404.527 754.895 403.707C752.767 401.895 749.944 401.01 747.35 400.374Z" fill="#434157"/>
<path opacity="0.05" d="M764.54 434.137C764.085 433.735 763.516 433.49 762.916 433.44C762.316 433.391 761.716 433.538 761.203 433.86C761.177 436.124 760.936 438.381 760.481 440.598C760.942 439.095 763.368 438.753 764.54 439.926C764.774 440.163 764.975 440.432 765.136 440.726C765.284 440.239 765.406 439.744 765.502 439.244C765.858 437.474 765.805 435.406 764.54 434.137Z" fill="black"/>
<path opacity="0.05" d="M775.092 432.075C775.119 432.528 775.202 432.981 775.34 433.431C776.147 430.316 776.322 427.179 775.864 424.052C775.249 426.718 774.991 429.397 775.092 432.075Z" fill="black"/>
<path opacity="0.05" d="M778.486 469.904C778.922 467.708 779.525 465.544 780.291 463.432C781.656 459.484 782.965 455.073 782.073 451.146C781.656 453.345 781.06 455.509 780.291 457.618C778.926 461.523 777.595 465.956 778.486 469.904Z" fill="black"/>
<path opacity="0.05" d="M760.929 428.515C761.121 429.359 761.266 430.213 761.364 431.073C761.676 428.261 761.53 425.418 760.929 422.653C760.069 418.429 757.62 414.688 754.081 412.193C750.266 409.689 745.385 409.192 740.875 409.581C738.94 409.754 736.809 410.175 735.657 411.74C735.068 412.647 734.713 413.686 734.625 414.762C733.962 419.62 734.516 425.33 730.831 428.59C728.505 430.673 725.125 431.051 722.386 432.552C718.494 434.711 716.168 439.028 715.744 443.346C715.606 444.905 715.665 446.475 715.918 448.02C716.215 446.031 716.954 444.133 718.082 442.464C719.21 440.795 720.699 439.396 722.44 438.37C725.179 436.869 728.56 436.492 730.886 434.419C734.57 431.181 734.016 425.438 734.679 420.591C734.767 419.511 735.122 418.47 735.712 417.558C736.864 416.004 738.972 415.583 740.929 415.399C745.483 415.011 750.32 415.496 754.135 418.012C757.662 420.527 760.091 424.283 760.929 428.515Z" fill="black"/>
<path opacity="0.05" d="M787.393 485.963C786.755 486.67 785.969 487.227 785.09 487.595C784.211 487.962 783.262 488.131 782.311 488.088C778.919 487.822 776.122 485.454 773.549 483.244C770.976 481.035 768.052 478.751 764.66 478.708C763.797 478.783 762.928 478.741 762.076 478.581C761.247 478.274 760.513 477.753 759.95 477.072C757.591 474.491 756.046 471.273 755.505 467.82C755.07 470.496 755.243 473.236 756.013 475.837C756.782 478.437 758.128 480.831 759.95 482.84C760.51 483.525 761.245 484.046 762.076 484.349C762.927 484.514 763.797 484.557 764.66 484.476C768.052 484.476 770.965 486.803 773.549 489.012C776.133 491.222 778.866 493.591 782.311 493.856C785.756 494.122 789.467 491.02 788.446 487.78C788.221 487.11 787.863 486.492 787.393 485.963Z" fill="black"/>
<path opacity="0.05" d="M697.543 457.399C697.991 455.737 698.076 453.982 697.791 452.278C697.326 449.768 695.964 447.588 694.962 445.283C694.756 444.813 694.57 444.336 694.405 443.852C694.405 443.92 694.332 443.988 694.301 444.068C693.269 446.339 693.95 449.144 694.962 451.449C695.947 453.364 696.809 455.352 697.543 457.399Z" fill="black"/>
<path opacity="0.05" d="M721.579 468.862C721.397 469.809 721.182 470.745 721.011 471.692C720.443 474.883 720.41 478.075 719.81 481.266C719.21 484.458 717.934 487.649 715.436 489.649C711.801 492.617 706.58 492.479 701.895 491.99C698.968 491.692 695.655 491.075 694.079 488.607C693.511 487.692 693.243 486.628 692.707 485.692C691.634 483.734 689.415 482.5 688.311 480.564C688.236 480.436 688.171 480.288 688.107 480.149C687.698 481.139 687.504 482.203 687.539 483.272C687.575 484.341 687.837 485.39 688.311 486.351C689.383 488.32 691.592 489.543 692.707 491.479C693.243 492.405 693.511 493.479 694.079 494.383C695.655 496.862 698.968 497.469 701.895 497.766C706.58 498.256 711.801 498.405 715.436 495.426C717.934 493.383 719.199 490.203 719.81 487.043C720.421 483.883 720.443 480.66 721.011 477.468C721.418 475.192 722.083 472.915 721.89 470.617C721.836 470.025 721.732 469.437 721.579 468.862Z" fill="black"/>
<path d="M681.461 509.503C681.461 509.503 676.103 512.446 672.728 539.732C669.353 567.018 667.736 595.992 667.736 595.992C667.736 595.992 667.736 620.346 690.6 621.179C690.6 621.179 699.75 622.866 702.664 624.965C705.578 627.064 751.307 612.783 729.685 609.819C708.064 606.854 700.168 608.131 700.168 608.131C700.168 608.131 688.521 600.557 688.521 593.438C688.521 586.319 700.168 543.973 700.168 543.973L681.461 509.503Z" fill="#FFC6C6"/>
<path d="M681.329 531.251C681.916 532.675 682.22 534.195 682.709 535.662C684.038 539.021 685.869 542.162 688.141 544.979C690.9 548.797 695.332 557.79 698.081 561.608C699.727 556.005 702.139 550.653 705.251 545.702L681.438 507.419C681.438 507.419 679.569 508.411 677.342 514.644C677.223 515.777 677.158 516.909 677.147 518.02C676.997 520.551 677.367 523.086 678.233 525.471C679.102 527.488 680.493 529.235 681.329 531.251Z" fill="#FA0026"/>
<path d="M762.559 454.001C762.559 453.748 762.493 453.502 762.371 453.296C762.248 453.09 762.075 452.934 761.875 452.85V451.466C762.076 451.383 762.25 451.227 762.372 451.021C762.495 450.814 762.56 450.568 762.559 450.315C762.562 450.088 762.512 449.863 762.414 449.668C762.316 449.472 762.175 449.312 762.006 449.205C761.836 449.099 761.646 449.05 761.455 449.065C761.263 449.079 761.079 449.156 760.923 449.287C760.766 449.418 760.643 449.598 760.567 449.807C760.491 450.016 760.465 450.246 760.492 450.471C760.519 450.697 760.597 450.909 760.719 451.085C760.841 451.26 761.002 451.392 761.183 451.466V452.85C760.981 452.933 760.806 453.09 760.683 453.297C760.559 453.504 760.493 453.752 760.493 454.006C760.493 454.26 760.559 454.508 760.683 454.715C760.806 454.922 760.981 455.078 761.183 455.162V456.535C760.981 456.619 760.806 456.775 760.683 456.982C760.559 457.189 760.493 457.437 760.493 457.691C760.493 457.945 760.559 458.193 760.683 458.4C760.806 458.607 760.981 458.764 761.183 458.848V460.231C760.954 460.328 760.762 460.518 760.64 460.767C760.517 461.016 760.473 461.309 760.514 461.593C760.556 461.878 760.68 462.136 760.866 462.322C761.052 462.508 761.286 462.609 761.529 462.609C761.772 462.609 762.007 462.508 762.193 462.322C762.378 462.136 762.503 461.878 762.544 461.593C762.586 461.309 762.541 461.016 762.419 460.767C762.297 460.518 762.104 460.328 761.875 460.231V458.848C762.077 458.764 762.252 458.607 762.376 458.4C762.499 458.193 762.566 457.945 762.566 457.691C762.566 457.437 762.499 457.189 762.376 456.982C762.252 456.775 762.077 456.619 761.875 456.535V455.162C762.077 455.077 762.251 454.919 762.373 454.711C762.496 454.503 762.561 454.255 762.559 454.001Z" fill="#EEEFF3"/>
<path d="M803.095 492.83C809.467 503.559 814.083 515.249 816.767 527.453C820.911 547.06 823.816 551.231 823.816 551.231C823.816 551.231 842.059 597.947 821.744 600.871C801.429 603.795 765.798 600.871 765.798 600.871C765.798 600.871 693.681 613.383 718.962 596.7C744.244 580.017 764.164 582.092 764.164 582.092C764.164 582.092 794.423 581.264 798.567 578.341L806.439 577.513L787.79 524.121L803.095 492.83Z" fill="#FFC6C6"/>
<path d="M784.449 524.28L792.853 544.934C798.532 532.879 805.067 518.106 806.275 504.713C806.388 502.234 806.337 499.749 806.12 497.278C805.198 495.261 803.982 493.409 802.517 491.788L784.449 524.28Z" fill="#FA0026"/>
</g>
<defs>
<linearGradient id="paint0_linear" x1="570.931" y1="306.137" x2="570.931" y2="1044" gradientUnits="userSpaceOnUse">
<stop stop-color="#FFF5C1"/>
<stop offset="1" stop-color="white" stop-opacity="0"/>
</linearGradient>
<clipPath id="clip0">
<rect width="1123" height="1100" fill="white"/>
</clipPath>
</defs>
</svg>
