<svg width="178" height="32" viewBox="0 0 178 32" fill="none" xmlns="http://www.w3.org/2000/svg">
<g clip-path="url(#clip0)">
<path d="M45.8002 27.2199H35.2702V4.60986H31.4502V30.9999H45.8002C46.3068 30.9999 46.7926 30.7986 47.1508 30.4404C47.509 30.0822 47.7102 29.5964 47.7102 29.0899C47.7102 28.5833 47.509 28.0975 47.1508 27.7393C46.7926 27.3811 46.3068 27.1799 45.8002 27.1799V27.2199Z" fill="white" stroke="white" stroke-width="1.5" stroke-miterlimit="10"/>
<path d="M66.9302 27.2199H56.5502V19.7399H66.6102C67.1221 19.7399 67.613 19.5365 67.9749 19.1746C68.3369 18.8126 68.5402 18.3217 68.5402 17.8099C68.5402 17.298 68.3369 16.8071 67.9749 16.4451C67.613 16.0832 67.1221 15.8799 66.6102 15.8799H56.5502V8.42986H66.8902C67.3968 8.42986 67.8826 8.22863 68.2408 7.87044C68.599 7.51224 68.8002 7.02643 68.8002 6.51986C68.8002 6.0133 68.599 5.52748 68.2408 5.16929C67.8826 4.81109 67.3968 4.60986 66.8902 4.60986H52.7002V30.9999H66.9302C67.4368 30.9999 67.9226 30.7986 68.2808 30.4404C68.639 30.0822 68.8402 29.5964 68.8402 29.0899C68.8402 28.5833 68.639 28.0975 68.2808 27.7393C67.9226 27.3811 67.4368 27.1799 66.9302 27.1799V27.2199Z" fill="white" stroke="white" stroke-width="1.5" stroke-miterlimit="10"/>
<path d="M96.4695 21.1301C96.1271 21.1308 95.7921 21.2302 95.5048 21.4164C95.2175 21.6027 94.9899 21.8678 94.8495 22.1801C94.224 23.5254 93.2791 24.6974 92.097 25.5939C90.9149 26.4904 89.5316 27.0844 88.0674 27.324C86.6033 27.5635 85.1028 27.4415 83.6966 26.9685C82.2904 26.4955 81.0212 25.6859 79.9995 24.6101C78.2535 22.7908 77.2785 20.3668 77.2785 17.8451C77.2785 15.3235 78.2535 12.8995 79.9995 11.0801C80.8341 10.1911 81.8406 9.48094 82.9579 8.99274C84.0753 8.50454 85.2802 8.24849 86.4995 8.24012C88.1889 8.17302 89.8606 8.60598 91.305 9.48474C92.7494 10.3635 93.9024 11.649 94.6195 13.1801C94.7708 13.4824 95.0036 13.7362 95.2917 13.913C95.5797 14.0897 95.9116 14.1822 96.2495 14.1801C96.5597 14.1783 96.8644 14.0976 97.1348 13.9456C97.4053 13.7937 97.6327 13.5755 97.7957 13.3115C97.9587 13.0476 98.0518 12.7465 98.0665 12.4367C98.0812 12.1268 98.0168 11.8183 97.8795 11.5401C96.877 9.37883 95.2649 7.55744 93.2415 6.29967C91.2181 5.04191 88.8713 4.40254 86.4895 4.46012C84.779 4.46949 83.0877 4.82217 81.516 5.49724C79.9443 6.17231 78.524 7.15604 77.3395 8.39012C74.9118 10.9394 73.5576 14.3248 73.5576 17.8451C73.5576 21.3654 74.9118 24.7509 77.3395 27.3001C78.7821 28.8117 80.5755 29.9437 82.5607 30.5956C84.5458 31.2475 86.6612 31.3991 88.7191 31.037C90.7769 30.6749 92.7135 29.8103 94.3569 28.5199C96.0003 27.2295 97.2996 25.5533 98.1395 23.6401C98.2576 23.3651 98.3052 23.0649 98.2781 22.7669C98.2509 22.4688 98.1499 22.1822 97.9841 21.933C97.8183 21.6838 97.593 21.4798 97.3285 21.3397C97.0641 21.1995 96.7688 21.1275 96.4695 21.1301Z" fill="white" stroke="white" stroke-width="1.5" stroke-miterlimit="10"/>
<path d="M119.76 4.57971H103.76C103.273 4.6148 102.818 4.83285 102.486 5.18999C102.153 5.54714 101.969 6.01687 101.969 6.50471C101.969 6.99254 102.153 7.46228 102.486 7.81942C102.818 8.17656 103.273 8.39462 103.76 8.42971H109.85V31.0697H113.67V8.42971H119.72C119.984 8.44878 120.25 8.41316 120.5 8.32506C120.75 8.23696 120.979 8.09828 121.173 7.91766C121.368 7.73704 121.522 7.51836 121.628 7.27526C121.734 7.03216 121.789 6.76986 121.789 6.50471C121.789 6.23956 121.734 5.97725 121.628 5.73416C121.522 5.49106 121.368 5.27238 121.173 5.09176C120.979 4.91114 120.75 4.77246 120.5 4.68436C120.25 4.59626 119.984 4.56063 119.72 4.57971H119.76Z" fill="white" stroke="white" stroke-width="1.5" stroke-miterlimit="10"/>
<path d="M138.259 27.2199H135.259V8.38986H138.259C138.761 8.38986 139.241 8.19074 139.596 7.8363C139.95 7.48185 140.149 7.00112 140.149 6.49986C140.149 5.9986 139.95 5.51787 139.596 5.16343C139.241 4.80899 138.761 4.60986 138.259 4.60986H128.389C127.888 4.60986 127.407 4.80899 127.053 5.16343C126.699 5.51787 126.499 5.9986 126.499 6.49986C126.499 7.00112 126.699 7.48185 127.053 7.8363C127.407 8.19074 127.888 8.38986 128.389 8.38986H131.389V27.2199H128.389C127.883 27.2199 127.397 27.4211 127.039 27.7793C126.681 28.1375 126.479 28.6233 126.479 29.1299C126.479 29.6364 126.681 30.1222 127.039 30.4804C127.397 30.8386 127.883 31.0399 128.389 31.0399H138.219C138.726 31.0399 139.212 30.8386 139.57 30.4804C139.928 30.1222 140.129 29.6364 140.129 29.1299C140.129 28.6233 139.928 28.1375 139.57 27.7793C139.212 27.4211 138.726 27.2199 138.219 27.2199H138.259Z" fill="white" stroke="white" stroke-width="1.5" stroke-miterlimit="10"/>
<path d="M24.4398 12.9399H2.2998V16.4399H24.4398V12.9399Z" fill="white"/>
<path d="M18.9995 17.3999L22.8395 12.9399H19.3395L19.3495 12.9499L15.5195 17.3999H18.9995Z" fill="#2B2949"/>
<path d="M13.6497 17.3999L17.4897 12.9399H13.9997L14.0097 12.9499L10.1797 17.3999H13.6497Z" fill="#2B2949"/>
<path d="M8.35012 17.3999L12.1901 12.9399H8.69012L8.70012 12.9499L4.87012 17.3999H8.35012Z" fill="#2B2949"/>
<path d="M3.0498 17.3999L6.8898 12.9399H2.2998V17.3999H3.0498Z" fill="#2B2949"/>
<path d="M24.4395 17.4001V13.3901L20.9795 17.4001H24.4395Z" fill="#2B2949"/>
<path d="M20.9998 20.5099C22.8798 20.5099 24.3998 20.2299 24.3998 18.3499V17.6099H2.2998V31.8099H21.8698C22.5514 31.8099 23.2051 31.5391 23.6871 31.0571C24.169 30.5752 24.4398 29.9215 24.4398 29.2399V29.0599C24.4398 28.3783 24.169 27.7246 23.6871 27.2426C23.2051 26.7606 22.5514 26.4899 21.8698 26.4899H7.64981V20.4899L20.9998 20.5099Z" fill="white"/>
<path d="M22.7052 3.67374L1.36523 9.57178L2.29763 12.9453L23.6376 7.04726L22.7052 3.67374Z" fill="white"/>
<path d="M17.1996 4.19971L22.0896 7.46971L18.7196 8.39971L18.7296 8.38971L13.8496 5.11971L17.1996 4.19971Z" fill="#2B2949"/>
<path d="M12.0502 5.62012L16.9402 8.89012L13.5702 9.83012L13.5802 9.81012L8.7002 6.55012L12.0502 5.62012Z" fill="#2B2949"/>
<path d="M6.93008 7.04004L11.8201 10.31L8.45008 11.24L8.46008 11.23L3.58008 7.96004L6.93008 7.04004Z" fill="#2B2949"/>
<path d="M1.82961 8.44971L6.71961 11.7197L2.28961 12.9397L1.09961 8.64971L1.82961 8.44971Z" fill="#2B2949"/>
<path d="M22.4594 2.73975L23.5094 6.61975L19.1094 3.66975L22.4594 2.73975Z" fill="#2B2949"/>
<path d="M0.276367 5.65479L19.5536 0.326838C20.1023 0.177945 20.6876 0.252402 21.1814 0.533922C21.6753 0.815442 22.0376 1.28111 22.1891 1.82905L22.3862 2.54231L1.04626 8.44035L0.276367 5.65479Z" fill="white"/>
<path d="M22.4933 2.51774L0.931641 8.47705L1.04619 8.89151L22.6078 2.9322L22.4933 2.51774Z" fill="white"/>
<path d="M24.57 17.3999H2.29004V17.8299H24.57V17.3999Z" fill="white"/>
<path d="M175.94 28.4898H166.16C166.41 28.2698 166.67 28.0398 166.91 27.7998C168.855 25.8208 170.173 23.3121 170.7 20.5877C171.227 17.8633 170.938 15.0442 169.871 12.4828C168.804 9.9214 167.005 7.73155 164.7 6.18715C162.394 4.64275 159.685 3.81236 156.91 3.79984C155.05 3.79566 153.207 4.16227 151.49 4.87826C149.773 5.59424 148.216 6.64524 146.91 7.96984C144.277 10.606 142.799 14.1793 142.799 17.9048C142.799 21.6304 144.277 25.2036 146.91 27.8398C148.212 29.1699 149.768 30.2245 151.486 30.9409C153.204 31.6572 155.049 32.0208 156.91 32.0098H157.32H175.95C176.189 32.028 176.429 31.9966 176.655 31.9176C176.881 31.8387 177.089 31.7138 177.265 31.551C177.44 31.3881 177.581 31.1907 177.676 30.9711C177.772 30.7515 177.822 30.5144 177.822 30.2748C177.822 30.0352 177.772 29.7982 177.676 29.5786C177.581 29.359 177.44 29.1616 177.265 28.9987C177.089 28.8358 176.881 28.711 176.655 28.632C176.429 28.5531 176.189 28.5217 175.95 28.5398L175.94 28.4898ZM162.9 10.9998C163.232 10.806 163.599 10.6796 163.98 10.628C164.361 10.5764 164.749 10.6005 165.12 10.699C165.492 10.7975 165.84 10.9684 166.146 11.2019C166.451 11.4354 166.708 11.727 166.9 12.0598C167.099 12.3904 167.23 12.7577 167.285 13.1399C167.339 13.522 167.316 13.9113 167.217 14.2844C167.118 14.6575 166.946 15.007 166.709 15.312C166.472 15.617 166.177 15.8713 165.84 16.0598C165.168 16.446 164.371 16.5512 163.622 16.3527C162.873 16.1542 162.232 15.668 161.84 14.9998C161.642 14.6689 161.512 14.3016 161.459 13.9198C161.405 13.5379 161.428 13.1492 161.527 12.7764C161.626 12.4036 161.798 12.0544 162.034 11.7493C162.27 11.4442 162.564 11.1894 162.9 10.9998ZM161.83 20.6998C162.233 20.0434 162.873 19.5671 163.618 19.3698C164.363 19.1725 165.155 19.2692 165.83 19.6398C166.165 19.8304 166.458 20.0857 166.693 20.3909C166.928 20.6961 167.1 21.0451 167.199 21.4175C167.298 21.7899 167.321 22.1782 167.268 22.5598C167.215 22.9413 167.087 23.3085 166.89 23.6398C166.498 24.308 165.857 24.7942 165.108 24.9927C164.359 25.1912 163.562 25.086 162.89 24.6998C162.559 24.5093 162.269 24.2553 162.037 23.9524C161.804 23.6496 161.634 23.3038 161.536 22.935C161.437 22.5661 161.412 22.1815 161.463 21.803C161.513 21.4246 161.638 21.0599 161.83 20.7298V20.6998ZM156.83 6.29984C157.404 6.30576 157.964 6.48145 158.438 6.80478C158.913 7.12811 159.281 7.58463 159.497 8.11686C159.713 8.64909 159.766 9.23323 159.65 9.79572C159.535 10.3582 159.255 10.8739 158.847 11.2779C158.439 11.6819 157.92 11.9561 157.357 12.0659C156.793 12.1758 156.21 12.1164 155.68 11.8953C155.15 11.6742 154.697 11.3013 154.378 10.8234C154.06 10.3455 153.89 9.7841 153.89 9.20984C153.903 8.43448 154.223 7.69596 154.78 7.15611C155.337 6.61627 156.085 6.31914 156.86 6.32984L156.83 6.29984ZM158.55 17.8298C158.554 18.1733 158.456 18.5101 158.268 18.7974C158.079 19.0847 157.81 19.3096 157.494 19.4433C157.177 19.577 156.828 19.6136 156.491 19.5483C156.154 19.483 155.844 19.3188 155.6 19.0767C155.357 18.8345 155.191 18.5254 155.124 18.1886C155.056 17.8518 155.091 17.5026 155.223 17.1855C155.355 16.8684 155.578 16.5977 155.864 16.408C156.15 16.2182 156.487 16.1179 156.83 16.1198C157.06 16.1158 157.289 16.158 157.502 16.2439C157.716 16.3298 157.91 16.4576 158.073 16.6199C158.236 16.7821 158.365 16.9755 158.452 17.1885C158.539 17.4014 158.583 17.6297 158.58 17.8598L158.55 17.8298ZM150.78 24.6698C150.448 24.8637 150.081 24.99 149.7 25.0417C149.319 25.0933 148.931 25.0692 148.56 24.9707C148.188 24.8722 147.84 24.7013 147.534 24.4678C147.229 24.2342 146.972 23.9427 146.78 23.6098C146.581 23.2792 146.45 22.9119 146.395 22.5298C146.341 22.1476 146.364 21.7584 146.463 21.3853C146.561 21.0121 146.734 20.6627 146.971 20.3577C147.208 20.0527 147.503 19.7984 147.84 19.6098C148.512 19.2237 149.309 19.1185 150.058 19.317C150.807 19.5155 151.448 20.0017 151.84 20.6698C152.044 21.0002 152.179 21.3682 152.238 21.752C152.296 22.1358 152.277 22.5274 152.181 22.9036C152.085 23.2797 151.914 23.6326 151.678 23.9412C151.443 24.2499 151.147 24.5079 150.81 24.6998L150.78 24.6698ZM151.85 14.9698C151.447 15.6263 150.807 16.1025 150.062 16.2999C149.317 16.4972 148.525 16.4005 147.85 16.0298C147.515 15.8393 147.222 15.584 146.987 15.2788C146.752 14.9736 146.58 14.6246 146.481 14.2522C146.382 13.8798 146.359 13.4915 146.412 13.1099C146.465 12.7283 146.593 12.3612 146.79 12.0298C147.182 11.3617 147.823 10.8755 148.572 10.677C149.321 10.4785 150.118 10.5837 150.79 10.9698C151.131 11.1577 151.431 11.4125 151.672 11.7189C151.913 12.0253 152.089 12.3771 152.191 12.7533C152.293 13.1294 152.318 13.5222 152.264 13.9082C152.211 14.2942 152.08 14.6655 151.88 14.9998L151.85 14.9698ZM156.85 29.3698C156.275 29.3659 155.715 29.1919 155.239 28.8697C154.763 28.5476 154.393 28.0917 154.176 27.5597C153.959 27.0276 153.904 26.4431 154.018 25.88C154.133 25.3168 154.412 24.8002 154.819 24.3952C155.227 23.9902 155.746 23.715 156.31 23.6044C156.874 23.4937 157.458 23.5525 157.988 23.7733C158.519 23.9941 158.972 24.3671 159.291 24.8452C159.61 25.3233 159.78 25.8851 159.78 26.4598C159.781 26.8446 159.707 27.2259 159.561 27.5819C159.415 27.9379 159.2 28.2616 158.929 28.5346C158.658 28.8076 158.335 29.0245 157.98 29.173C157.626 29.3214 157.245 29.3985 156.86 29.3998L156.85 29.3698Z" fill="white"/>
</g>
<defs>
<clipPath id="clip0">
<rect width="178" height="32" fill="white"/>
</clipPath>
</defs>
</svg>
