<svg width="1023" height="732" viewBox="0 0 1023 732" fill="none" xmlns="http://www.w3.org/2000/svg">
<g clip-path="url(#clip0)">
<path d="M939.472 607.344C931.098 598.431 911.72 590.796 885.765 585.742V470.873H884.578V469.686H863.147V470.873H829.477C832.494 453.492 842.558 392.892 840.53 368.552C840.53 368.552 866.692 297.175 845.286 237.688C845.286 237.688 866.716 242.445 869.074 218.65C870.994 199.439 893.042 156.994 867.722 132.572C861.779 126.339 852.943 121.186 840.184 117.731L833.994 100.417C838.033 94.0271 840.53 85.4028 840.53 75.8963C840.53 63.0918 836.03 51.8704 829.288 45.5712C825.406 41.4487 820.666 38.9752 815.548 38.9752C811.65 39.035 807.881 40.3863 804.833 42.8174C805.278 43.1554 805.706 43.5182 806.135 43.8975C798.313 49.7432 792.947 61.8551 792.947 75.8551C792.947 86.4499 796.038 95.9399 800.926 102.478L797.703 123.445C797.703 123.445 731.105 106.815 759.656 218.65C759.656 218.65 766.794 237.688 778.688 237.688C778.688 237.688 771.55 323.345 783.444 354.28C783.444 354.28 778.688 430.423 788.208 447.078V470.873H728.731V588.694C698.284 595.669 678.774 606.379 678.774 618.376C678.774 639.409 738.416 656.451 811.987 656.451C885.558 656.451 945.192 639.442 945.192 618.4C945.192 614.558 943.181 610.848 939.472 607.344Z" fill="#B0BCDC"/>
<path d="M470.695 619.827C462.923 611.532 444.872 604.433 420.681 599.726V492.829H419.576V491.724H399.654V492.829H368.333C371.144 476.661 380.507 420.273 378.62 397.616C378.62 397.616 402.968 331.186 383.046 275.829C383.046 275.829 402.968 280.257 405.185 258.119C406.974 240.244 427.489 200.742 403.924 178.019C398.393 172.247 390.176 167.424 378.307 164.225L372.537 148.081C376.304 142.128 378.62 134.114 378.62 125.259C378.62 113.345 374.441 102.907 368.16 97.0448C364.55 93.2026 360.14 90.9435 355.376 90.9435C351.753 91.0009 348.251 92.2594 345.42 94.5218C345.832 94.8351 346.244 95.1732 346.631 95.5194C339.353 100.961 334.35 112.232 334.35 125.259C334.35 135.153 337.235 143.951 341.768 149.994L338.768 169.502C338.768 169.502 276.794 154.001 303.326 258.078C303.326 258.078 309.969 275.788 321.039 275.788C321.039 275.788 314.395 355.501 325.465 384.292C325.465 384.292 321.039 455.15 329.891 470.65V492.788H274.585V602.446C246.256 608.935 228.098 618.936 228.098 630.092C228.098 649.657 283.602 665.545 352.063 665.545C420.524 665.545 476.02 649.682 476.02 630.092C476.02 626.538 474.149 623.084 470.695 619.827Z" fill="#B0BCDC"/>
<mask id="mask0" mask-type="alpha" maskUnits="userSpaceOnUse" x="75" y="0" width="723" height="715">
<path fill-rule="evenodd" clip-rule="evenodd" d="M662.875 628.379C668.834 633.856 672 639.592 672 645.5C672 683.884 538.357 715 373.5 715C208.643 715 75 683.884 75 645.5C75 639.846 77.8996 634.35 83.3716 629.088L625.5 0H798L662.875 628.379Z" fill="#C4C4C4"/>
</mask>
<g mask="url(#mask0)">
<path d="M-27.5 739.5L625.5 0H798L654.5 739.5H-27.5Z" fill="url(#paint0_linear)"/>
</g>
<path d="M653.075 614.245C647.305 608.061 633.837 602.776 615.819 599.272V519.658H614.995V518.834H600.159V519.658H576.833C578.926 507.612 585.899 465.604 584.498 448.751C584.498 448.751 602.631 399.282 587.795 358.057C587.795 358.057 602.631 361.355 604.28 344.865C605.615 331.549 620.896 302.131 603.34 285.204C599.219 280.883 593.103 277.313 584.259 274.931L579.973 262.885C583.035 257.749 584.605 251.862 584.506 245.883C584.506 237.012 581.391 229.237 576.709 224.867C574.022 222.006 570.742 220.324 567.197 220.324C564.497 220.368 561.888 221.308 559.779 222.995C560.092 223.226 560.389 223.474 560.686 223.737C555.262 227.786 551.537 236.179 551.537 245.883C551.537 253.23 553.688 259.809 557.076 264.336L554.834 278.872C554.834 278.872 508.677 267.329 528.458 344.832C528.458 344.832 533.404 358.024 541.646 358.024C541.646 358.024 536.701 417.388 544.943 438.825C544.943 438.825 541.646 491.592 548.24 503.135V519.625H507.028V601.251C485.928 606.082 472.41 613.511 472.41 621.863C472.41 636.441 513.746 648.247 564.725 648.247C615.704 648.247 657.039 636.432 657.039 621.863C657.039 619.241 655.646 616.669 653.075 614.245Z" fill="#899FF0"/>
<path d="M947.934 627.75C944.522 624.106 936.601 620.989 925.985 618.92V572.006H925.499V571.519H916.753V572.006H903.005C904.242 564.907 908.355 540.147 907.522 530.212C907.522 530.212 918.237 501.049 909.467 476.751C909.467 476.751 918.212 478.697 919.185 468.976C920.009 461.135 928.977 443.796 918.633 433.82C916.201 431.272 912.591 429.17 907.382 427.768L904.852 420.677C906.659 417.653 907.584 414.183 907.522 410.66C907.522 405.432 905.684 400.848 902.931 398.292C902.233 397.48 901.373 396.822 900.407 396.361C899.44 395.899 898.388 395.644 897.318 395.612C895.728 395.641 894.192 396.194 892.949 397.187C893.133 397.323 893.309 397.469 893.477 397.624C890.287 400.007 888.095 404.954 888.095 410.676C888.017 414.559 889.171 418.366 891.392 421.551L890.073 430.118C890.073 430.118 862.873 423.316 874.528 468.993C874.528 468.993 877.446 476.768 882.3 476.768C882.3 476.768 879.391 511.76 884.246 524.391C884.246 524.391 882.3 555.499 886.191 562.318V572.039H861.859V620.165C849.422 623.009 841.451 627.387 841.451 632.293C841.451 640.885 865.816 647.852 895.851 647.852C925.886 647.852 950.25 640.885 950.25 632.293C950.275 630.694 949.451 629.177 947.934 627.75Z" fill="#899FF0"/>
<path d="M280.495 627.75C277.083 624.106 269.162 620.989 258.545 618.92V572.006H258.059V571.519H249.314V572.006H235.566C236.802 564.907 240.915 540.147 240.083 530.212C240.083 530.212 250.798 501.049 242.028 476.751C242.028 476.751 250.773 478.697 251.745 468.976C252.529 461.135 261.537 443.796 251.193 433.82C248.721 431.272 245.152 429.17 239.942 427.768L237.412 420.677C239.219 417.653 240.144 414.183 240.083 410.66C240.083 405.432 238.244 400.848 235.492 398.292C234.793 397.48 233.934 396.822 232.967 396.361C232.001 395.899 230.949 395.644 229.878 395.612C228.288 395.641 226.752 396.194 225.51 397.187C225.693 397.323 225.87 397.469 226.038 397.624C222.848 400.007 220.655 404.954 220.655 410.676C220.567 414.548 221.703 418.348 223.903 421.535L222.584 430.101C222.584 430.101 195.384 423.299 207.039 468.976C207.039 468.976 209.957 476.751 214.811 476.751C214.811 476.751 211.902 511.743 216.757 524.375C216.757 524.375 214.811 555.483 218.702 562.302V572.022H194.42V620.148C181.982 622.993 174.012 627.371 174.012 632.277C174.012 640.868 198.376 647.835 228.411 647.835C258.447 647.835 282.811 640.868 282.811 632.277C282.836 630.694 282.011 629.177 280.495 627.75Z" fill="#899FF0"/>
<path d="M132 631.304H1023C1023 631.304 990.031 720.943 905.571 689.019C821.111 657.094 770.635 695.203 724.28 712.715C677.925 730.227 585.223 743.634 561.535 716.837C537.846 690.041 516.202 677.682 432.781 687.98C349.359 698.278 294.746 719.921 284.418 691.072C274.09 662.223 272.054 652.947 213.344 658.092C154.634 663.237 132 631.304 132 631.304Z" fill="#41405B"/>
<path d="M655.176 344.024C645.17 361.041 643.637 381.522 640.266 400.963C634.974 431.091 624.605 460.146 619.379 490.29C617.558 500.835 616.379 511.529 613.486 521.827C609.513 535.975 602.425 549.035 595.773 562.104C584.448 584.431 574.17 607.649 569.942 632.326C568.623 640.019 569.653 650.465 577.269 652.114C579.445 652.601 581.893 652.213 583.748 653.45C584.836 654.167 585.528 655.33 586.402 656.294C589.748 659.988 595.51 660.417 600.29 659.073C605.071 657.729 609.241 654.777 613.676 652.477C631.281 643.408 652.151 644.488 671.9 645.774C675.535 646.005 679.615 646.458 681.914 649.294C683.076 650.737 683.563 652.592 684.428 654.241C687.494 660.219 695.588 662.998 701.671 660.161C703.946 659.098 705.9 657.391 708.265 656.517C715.494 653.821 723.101 659.667 730.841 659.708C741.968 659.757 750.342 647.967 761.461 647.563C769.044 647.291 775.976 652.461 783.559 652.51C789.246 652.51 794.488 649.641 799.434 646.846L833.228 627.75C824.193 615.111 813.127 604.056 800.481 595.034C791.175 588.438 788.661 575.246 782.982 565.352C779.232 558.806 775.44 552.16 773.611 544.847C772.292 539.57 772.028 534.079 770.726 528.794C768.921 521.505 765.203 514.868 762.253 507.967C750.548 480.627 750.944 449.428 740.221 421.683C737.204 413.867 733.322 406.389 730.643 398.449C727.115 387.994 725.739 376.913 722.178 366.475C718.618 356.036 712.287 345.788 702.191 341.294C697.809 339.492 693.143 338.479 688.409 338.301C676.614 337.543 666.122 339.571 655.176 344.024Z" fill="#FA0026"/>
<path d="M699.157 205.368H652.143V268.079H699.157V205.368Z" fill="#0B0D24"/>
<path d="M697.888 254.013C695.498 253.642 693.058 254.013 690.643 254.013C684.7 253.939 683.01 261.12 677.084 261.705C669.856 262.415 659.833 257.839 653.791 261.879C652.686 262.649 651.517 263.322 650.297 263.89C645.351 266.067 639.309 265.259 634.784 268.219C630.259 271.179 628.603 277.025 628.603 282.433C628.489 284.369 628.77 286.307 629.427 288.131C630.062 289.673 631.117 291.008 631.751 292.55C632.196 293.638 632.427 294.801 632.798 295.922C633.808 298.489 635.197 300.891 636.919 303.046L647.387 317.615C650.132 321.44 649.035 326.173 649.481 330.864C649.81 334.468 650.651 338.029 650.643 341.641C650.634 345.252 649.645 349.061 646.95 351.535C653.148 351.155 659.327 350.587 665.487 349.828C670.565 349.201 675.625 348.451 680.727 348.088C691.442 347.33 702.207 348.311 712.873 349.292C711.109 347.099 710.309 344.04 709.872 341.261C708.422 332.044 707.507 322.389 710.54 313.567C711.513 310.929 712.656 308.356 713.961 305.866L717.216 299.311C721.824 290.044 726.126 280.545 727.107 270.239C727.475 267.593 727.16 264.896 726.192 262.406C724.766 259.216 721.684 256.973 718.362 255.885C714.99 254.923 711.465 254.615 707.977 254.978C704.729 255.134 701.135 254.508 697.888 254.013Z" fill="#FA0026"/>
<path d="M664.045 249.676C664.795 251.638 665.693 253.741 665.108 255.769C664.02 259.793 658.465 260.609 656.042 264.014C655.831 264.245 655.685 264.528 655.62 264.834C655.554 265.139 655.572 265.457 655.671 265.754C655.787 265.952 655.937 266.128 656.116 266.273C660.641 270.214 667.185 270.552 673.186 270.486C681.931 270.404 691.269 269.662 698.201 264.36C700.138 262.876 701.96 260.403 700.971 258.168C700.204 256.462 698.185 255.819 696.512 254.978C692.761 253.09 690.074 249.495 688.591 245.562C687.107 241.629 686.728 237.383 686.662 233.194C686.729 232.478 686.573 231.758 686.217 231.133C685.64 230.309 684.568 230.185 683.555 230.119C677.906 229.742 672.233 229.968 666.633 230.795C665.051 231.026 662.034 231.24 660.921 232.535C659.808 233.829 660.451 235.363 660.666 236.773C661.335 241.181 662.467 245.506 664.045 249.676Z" fill="#FBB3B2"/>
<path opacity="0.05" d="M664.045 249.676C664.795 251.638 665.693 253.741 665.108 255.769C664.02 259.793 658.465 260.609 656.042 264.014C655.831 264.245 655.685 264.528 655.62 264.834C655.554 265.139 655.572 265.457 655.671 265.754C655.787 265.952 655.937 266.128 656.116 266.273C660.641 270.214 667.185 270.552 673.186 270.486C681.931 270.404 691.269 269.662 698.201 264.36C700.138 262.876 701.96 260.403 700.971 258.168C700.204 256.462 698.185 255.819 696.512 254.978C692.761 253.09 690.074 249.495 688.591 245.562C687.107 241.629 686.728 237.383 686.662 233.194C686.729 232.478 686.573 231.758 686.217 231.133C685.64 230.309 684.568 230.185 683.555 230.119C677.906 229.742 672.233 229.968 666.633 230.795C665.051 231.026 662.034 231.24 660.921 232.535C659.808 233.829 660.451 235.363 660.666 236.773C661.335 241.181 662.467 245.506 664.045 249.676Z" fill="black"/>
<path d="M674.686 241.678C686.344 241.678 695.795 232.225 695.795 220.563C695.795 208.901 686.344 199.448 674.686 199.448C663.028 199.448 653.577 208.901 653.577 220.563C653.577 232.225 663.028 241.678 674.686 241.678Z" fill="#FFC6C6"/>
<path opacity="0.1" d="M694.813 656.55C693.143 657.284 691.545 658.172 690.041 659.205C691.902 660.38 694.022 661.084 696.216 661.257C698.41 661.429 700.613 661.064 702.635 660.194C704.234 659.444 705.669 658.38 707.202 657.515C702.982 656.196 698.836 655.049 694.813 656.55Z" fill="black"/>
<path opacity="0.1" d="M600.24 652.518C596.671 654.349 593.267 656.583 589.583 658.108C592.929 660.104 597.405 660.194 601.254 659.081C606.035 657.688 610.205 654.786 614.632 652.485C624.292 647.538 634.941 645.601 645.837 645.065C630.045 644.537 614.129 645.378 600.24 652.518Z" fill="black"/>
<path opacity="0.1" d="M801.429 595.026C792.123 588.43 789.617 575.238 783.93 565.344C780.18 558.797 776.388 552.152 774.559 544.839C773.24 539.562 772.976 534.071 771.674 528.786C769.877 521.497 766.16 514.86 763.209 507.959C751.505 480.618 751.892 449.419 741.177 421.675C738.152 413.859 734.27 406.381 731.591 398.441C728.072 387.986 726.646 376.905 723.126 366.467C719.607 356.028 713.235 345.78 703.139 341.286C698.828 339.357 694.072 338.607 689.357 338.293C685.38 338.03 681.388 338.099 677.422 338.499C681.33 338.826 685.161 339.772 688.772 341.303C698.844 345.796 705.199 356.045 708.76 366.483C712.321 376.921 713.705 388.002 717.225 398.457C719.904 406.397 723.819 413.875 726.802 421.691C737.517 449.436 737.13 480.635 748.834 507.975C751.793 514.876 755.511 521.514 757.307 528.802C758.61 534.087 758.873 539.578 760.192 544.855C762.022 552.169 765.813 558.814 769.564 565.361C775.243 575.254 777.757 588.397 787.062 595.042C799.714 604.058 810.785 615.107 819.826 627.742L786.032 646.837C783.206 648.531 780.242 649.981 777.171 651.174C779.563 651.99 782.064 652.437 784.59 652.502C790.269 652.502 795.511 649.633 800.456 646.837L834.25 627.742C825.195 615.095 814.104 604.039 801.429 595.026Z" fill="black"/>
<path opacity="0.1" d="M748.009 647.596C739.297 647.909 732.267 655.223 724.271 658.314C726.696 659.134 729.224 659.603 731.78 659.708C740.731 659.708 747.902 652.131 756.153 648.94C753.535 648.029 750.781 647.574 748.009 647.596Z" fill="black"/>
<path d="M673.408 341.393V325.819H665.85C666.254 323.485 667.606 315.331 667.334 312.058C667.334 312.058 670.853 302.461 667.977 294.463C668.361 294.556 668.761 294.56 669.147 294.475C669.532 294.389 669.894 294.216 670.202 293.97C670.511 293.723 670.759 293.409 670.928 293.051C671.096 292.694 671.181 292.302 671.175 291.907C671.488 288.708 675.972 280.71 667.334 278.468L666.452 275.994C667.048 274.999 667.354 273.856 667.334 272.696C667.334 270.049 665.899 267.898 664.136 267.898C662.372 267.898 660.938 270.049 660.938 272.696C660.907 273.975 661.282 275.23 662.009 276.283L661.572 279.135C661.572 279.135 652.621 276.893 656.462 291.932C656.462 291.932 657.418 294.488 659.017 294.488C659.017 294.488 658.061 306.031 659.66 310.153C659.66 310.153 659.017 320.385 660.295 322.628V325.827H652.3V341.665C648.178 342.605 645.582 344.048 645.582 345.664C645.582 348.492 653.602 350.784 663.493 350.784C673.384 350.784 681.403 348.492 681.403 345.664C681.403 343.875 678.23 342.309 673.408 341.393Z" fill="#FFD967"/>
<path opacity="0.1" d="M664.292 272.539C664.314 273.699 664.011 274.841 663.419 275.837L664.292 278.311C672.93 280.545 668.455 288.543 668.133 291.742C668.139 292.137 668.054 292.529 667.886 292.887C667.717 293.244 667.47 293.559 667.161 293.806C666.853 294.054 666.492 294.227 666.106 294.314C665.72 294.401 665.32 294.398 664.935 294.306C667.812 302.304 664.292 311.901 664.292 311.901C664.564 315.199 663.213 323.32 662.809 325.662H665.694C666.097 323.32 667.457 315.174 667.185 311.901C667.185 311.901 670.697 302.304 667.82 294.306C668.205 294.398 668.605 294.401 668.991 294.314C669.377 294.227 669.737 294.054 670.046 293.806C670.354 293.559 670.602 293.244 670.771 292.887C670.939 292.529 671.024 292.137 671.018 291.742C671.34 288.543 675.815 280.545 667.185 278.311L666.303 275.837C666.899 274.842 667.204 273.7 667.185 272.539C667.185 269.893 665.751 267.741 663.987 267.741C663.462 267.749 662.955 267.932 662.545 268.26C663.134 268.8 663.596 269.464 663.898 270.204C664.2 270.944 664.335 271.741 664.292 272.539Z" fill="black"/>
<path opacity="0.1" d="M673.252 341.228V325.662H670.375V341.228C675.189 342.152 678.37 343.702 678.37 345.491C678.37 348.187 671.117 350.389 661.886 350.595H663.328C673.219 350.595 681.239 348.303 681.239 345.475C681.247 343.718 678.057 342.152 673.252 341.228Z" fill="black"/>
<path d="M681.799 190.914C675.205 189.265 668.116 188.004 661.836 190.535C658.953 191.813 656.301 193.559 653.989 195.704C651.854 197.56 649.777 199.613 648.64 202.21C647.28 205.343 647.436 208.888 647.354 212.302C647.271 215.715 646.818 219.376 644.551 221.923C643.669 222.913 642.524 223.721 641.955 224.925C641.131 226.574 641.675 228.61 642.483 230.284C643.29 231.958 644.37 233.541 644.741 235.371C645.244 237.902 644.263 240.524 642.87 242.701C641.477 244.878 639.664 246.757 638.221 248.909C636.779 251.061 635.658 254.145 636.968 256.511C637.793 258.037 639.491 258.985 640.348 260.485C640.76 261.203 640.966 262.035 641.403 262.736C642.614 264.657 645.161 265.127 647.411 265.358C651.013 265.737 655.027 265.853 657.822 263.544C659.742 261.961 660.715 259.496 661.184 257.047C661.654 254.598 661.671 252.1 662.108 249.627C662.421 247.862 662.932 246.098 662.783 244.317C662.577 241.942 661.201 239.856 660.121 237.721C658.495 234.756 657.735 231.393 657.929 228.017C658.25 224.669 660.014 221.363 662.965 219.772C665.042 218.625 667.605 218.337 669.369 216.754C672.163 214.28 671.743 209.894 672.246 206.192C672.313 205.367 672.581 204.571 673.029 203.875C673.902 202.688 675.501 202.366 676.985 202.226C680.439 201.929 684.106 202.3 687 204.221C689.681 206.126 691.537 208.979 692.192 212.203C692.827 215.407 692.768 218.711 692.019 221.89C692.135 220.497 694.278 220.118 695.267 221.066C696.256 222.014 696.305 223.647 696.025 225.015C694.871 230.787 689.645 234.909 687.89 240.516C687.194 242.826 687.105 245.277 687.634 247.632C688.162 249.986 689.29 252.164 690.906 253.955C691.341 254.487 691.91 254.891 692.555 255.126C693.214 255.254 693.889 255.288 694.558 255.225C697.187 255.225 699.446 257.031 701.448 258.746C703.451 260.461 705.57 262.299 708.24 262.505C710.911 262.711 713.787 260.304 712.996 257.789C712.709 257.038 712.249 256.366 711.653 255.827C710.004 254.128 707.845 252.793 706.707 250.715C704.721 247.227 705.932 242.866 707.185 239.048C708.438 235.231 709.658 230.861 707.622 227.39C706.666 225.741 705.067 224.504 704.325 222.756C703.916 221.744 703.701 220.665 703.69 219.574C703.517 215.583 704.515 211.518 703.69 207.627C703.199 205.75 702.339 203.99 701.16 202.45C699.982 200.91 698.508 199.62 696.825 198.656C695.116 197.616 693.259 196.84 691.319 196.356C690.569 196.166 689.431 196.207 688.904 195.647C688.376 195.086 688.195 194.088 687.527 193.462C685.912 192.077 683.769 191.4 681.799 190.914Z" fill="#434157"/>
<path opacity="0.05" d="M695.267 216.63C694.909 216.319 694.46 216.13 693.987 216.091C693.514 216.053 693.041 216.166 692.638 216.416C692.617 218.167 692.427 219.912 692.069 221.627C692.432 220.464 694.344 220.2 695.267 221.107C695.452 221.29 695.61 221.499 695.737 221.726C695.853 221.349 695.949 220.966 696.025 220.58C696.305 219.211 696.264 217.611 695.267 216.63Z" fill="black"/>
<path opacity="0.05" d="M703.608 215.138C703.616 215.466 703.641 215.793 703.682 216.119C703.923 213.865 703.976 211.596 703.839 209.333C703.655 211.262 703.578 213.2 703.608 215.138Z" fill="black"/>
<path opacity="0.05" d="M692.069 221.627C692.045 221.716 692.028 221.807 692.02 221.899L692.069 221.627Z" fill="black"/>
<path opacity="0.05" d="M705.809 244.061C706.127 242.382 706.568 240.729 707.128 239.114C708.125 236.097 709.081 232.724 708.43 229.723C708.125 231.404 707.689 233.058 707.128 234.67C706.13 237.655 705.158 241.044 705.809 244.061Z" fill="black"/>
<path opacity="0.05" d="M692.193 212.211C692.339 212.856 692.449 213.508 692.522 214.165C692.76 212.017 692.648 209.846 692.193 207.734C691.54 204.507 689.684 201.65 687 199.744C684.107 197.832 680.406 197.452 676.986 197.749C675.518 197.881 673.903 198.203 673.029 199.398C672.582 200.091 672.313 200.884 672.246 201.707C671.743 205.417 672.164 209.779 669.37 212.269C667.606 213.86 665.042 214.148 662.965 215.294C660.015 216.943 658.251 220.241 657.929 223.539C657.825 224.73 657.869 225.93 658.061 227.11C658.286 225.59 658.847 224.141 659.702 222.866C660.557 221.59 661.686 220.522 663.007 219.739C665.084 218.592 667.647 218.304 669.411 216.721C672.205 214.247 671.785 209.861 672.287 206.159C672.354 205.334 672.623 204.538 673.07 203.842C673.944 202.655 675.543 202.333 677.027 202.193C680.48 201.896 684.148 202.267 687.041 204.188C689.716 206.11 691.558 208.979 692.193 212.211Z" fill="black"/>
<path opacity="0.05" d="M712.164 256.445C711.67 256.994 711.06 257.426 710.379 257.711C709.698 257.996 708.962 258.127 708.224 258.094C705.595 257.888 703.427 256.049 701.433 254.335C699.438 252.62 697.171 250.847 694.542 250.814C693.873 250.872 693.199 250.839 692.539 250.715C691.896 250.477 691.327 250.073 690.891 249.544C689.062 247.541 687.864 245.043 687.445 242.363C687.108 244.44 687.242 246.567 687.838 248.585C688.435 250.603 689.478 252.461 690.891 254.021C691.325 254.553 691.894 254.957 692.539 255.192C693.199 255.32 693.873 255.354 694.542 255.291C697.171 255.291 699.43 257.097 701.433 258.812C703.435 260.527 705.554 262.365 708.224 262.571C710.895 262.777 713.771 260.37 712.98 257.855C712.806 257.335 712.528 256.855 712.164 256.445Z" fill="black"/>
<path opacity="0.05" d="M644.544 234.613C644.901 233.406 644.969 232.132 644.741 230.894C644.37 229.072 643.282 227.489 642.483 225.815C642.318 225.474 642.17 225.128 642.038 224.776C642.038 224.826 641.98 224.875 641.955 224.933C641.131 226.582 641.675 228.618 642.483 230.292C643.269 231.683 643.958 233.126 644.544 234.613Z" fill="black"/>
<path opacity="0.05" d="M662.545 242.973C662.405 243.707 662.24 244.432 662.108 245.166C661.671 247.64 661.646 250.113 661.185 252.587C660.723 255.06 659.742 257.534 657.822 259.084C655.028 261.384 651.014 261.277 647.412 260.898C645.162 260.667 642.615 260.188 641.403 258.276C640.966 257.567 640.76 256.742 640.348 256.017C639.524 254.499 637.818 253.543 636.969 252.042C636.911 251.944 636.862 251.828 636.812 251.721C636.497 252.488 636.349 253.313 636.376 254.141C636.403 254.97 636.605 255.783 636.969 256.528C637.793 258.053 639.491 259.001 640.348 260.502C640.76 261.219 640.966 262.052 641.403 262.753C642.615 264.674 645.162 265.144 647.412 265.375C651.014 265.754 655.028 265.869 657.822 263.561C659.742 261.978 660.715 259.512 661.185 257.064C661.655 254.615 661.671 252.117 662.108 249.643C662.421 247.879 662.932 246.114 662.784 244.333C662.742 243.874 662.662 243.419 662.545 242.973Z" fill="black"/>
<path d="M631.834 274.304C631.834 274.304 627.713 276.546 625.116 297.34C622.52 318.134 621.275 340.214 621.275 340.214C621.275 340.214 621.275 358.774 638.865 359.409C638.865 359.409 645.904 360.695 648.146 362.294C650.387 363.894 685.566 353.011 668.933 350.751C652.3 348.492 646.225 349.465 646.225 349.465C646.225 349.465 637.266 343.694 637.266 338.268C637.266 332.843 646.225 300.572 646.225 300.572L631.834 274.304Z" fill="#FFC6C6"/>
<path d="M631.768 290.613C632.213 291.701 632.444 292.863 632.815 293.985C633.823 296.553 635.212 298.954 636.936 301.108C639.03 304.027 642.393 310.903 644.478 313.822C645.726 309.538 647.557 305.447 649.918 301.661L631.851 272.391C631.851 272.391 630.433 273.15 628.743 277.915C628.653 278.781 628.603 279.647 628.595 280.496C628.481 282.431 628.762 284.369 629.419 286.193C630.078 287.735 631.134 289.071 631.768 290.613Z" fill="#FA0026"/>
<path d="M693.718 231.315C693.717 231.118 693.656 230.926 693.542 230.765C693.429 230.604 693.268 230.482 693.083 230.416V229.336C693.269 229.271 693.43 229.149 693.544 228.988C693.658 228.827 693.718 228.634 693.718 228.437C693.72 228.259 693.673 228.084 693.583 227.931C693.492 227.778 693.361 227.653 693.204 227.57C693.047 227.487 692.87 227.449 692.692 227.461C692.515 227.472 692.344 227.532 692.199 227.634C692.053 227.737 691.939 227.877 691.868 228.04C691.798 228.203 691.774 228.383 691.799 228.559C691.824 228.735 691.897 228.901 692.01 229.038C692.123 229.175 692.272 229.278 692.44 229.336V230.416C692.253 230.481 692.091 230.603 691.976 230.765C691.861 230.927 691.8 231.12 691.8 231.319C691.8 231.517 691.861 231.71 691.976 231.872C692.091 232.034 692.253 232.156 692.44 232.221V233.293C692.253 233.359 692.091 233.481 691.976 233.643C691.861 233.804 691.8 233.998 691.8 234.196C691.8 234.394 691.861 234.588 691.976 234.75C692.091 234.911 692.253 235.033 692.44 235.099V236.179C692.228 236.255 692.049 236.403 691.936 236.598C691.822 236.792 691.781 237.021 691.819 237.243C691.858 237.465 691.973 237.666 692.146 237.812C692.318 237.957 692.536 238.036 692.762 238.036C692.987 238.036 693.205 237.957 693.377 237.812C693.55 237.666 693.665 237.465 693.704 237.243C693.742 237.021 693.701 236.792 693.587 236.598C693.474 236.403 693.295 236.255 693.083 236.179V235.099C693.27 235.033 693.432 234.911 693.547 234.75C693.662 234.588 693.724 234.394 693.724 234.196C693.724 233.998 693.662 233.804 693.547 233.643C693.432 233.481 693.27 233.359 693.083 233.293V232.221C693.27 232.155 693.431 232.032 693.545 231.869C693.659 231.707 693.719 231.513 693.718 231.315Z" fill="#EEEFF3"/>
<path d="M724.585 261.508C729.502 269.737 733.064 278.704 735.136 288.065C738.334 303.104 740.576 306.303 740.576 306.303C740.576 306.303 754.653 342.135 738.976 344.378C723.3 346.621 695.803 344.378 695.803 344.378C695.803 344.378 640.151 353.975 659.66 341.179C679.17 328.383 694.542 329.974 694.542 329.974C694.542 329.974 717.893 329.339 721.091 327.097L727.165 326.462L712.774 285.509L724.585 261.508Z" fill="#FFC6C6"/>
<path d="M709.716 285.022L716.425 300.688C720.958 291.544 726.176 280.339 727.14 270.181C727.231 268.301 727.19 266.416 727.017 264.542C726.281 263.012 725.31 261.608 724.14 260.378L709.716 285.022Z" fill="#FA0026"/>
<path d="M497.958 465.472C497.958 465.472 481.778 499.161 493.013 511.051C504.247 522.94 511.838 464.153 511.838 464.153L497.958 465.472Z" fill="#FBB3B2"/>
<path d="M412.257 623.018L394.124 645.807C394.124 645.807 357.47 660.343 391.148 662.297C391.148 662.297 407.633 660.978 410.93 658.661C414.227 656.344 416.213 651.727 422.816 654.373C429.418 657.02 437.017 651.727 437.017 651.727C437.017 651.727 438.006 625.961 431.404 622.993C424.802 620.025 412.257 623.018 412.257 623.018Z" fill="#36344A"/>
<path d="M479.952 631.271L475.657 650.102C475.657 650.102 466.08 672.562 479.952 669.256C493.823 665.949 500.755 662.322 502.074 655.717C503.393 649.113 507.02 641.841 507.02 641.841C507.02 641.841 503.055 631.601 499.428 631.271C495.802 630.941 479.952 631.271 479.952 631.271Z" fill="#36344A"/>
<path d="M391.454 403.684C391.454 403.684 379.568 485.31 387.827 529.833C396.086 574.356 405.96 620.008 405.96 620.008C405.96 620.008 394.421 646.392 433.984 628.929C433.984 628.929 431.347 563.522 423.418 538.094C415.488 512.667 427.489 478.334 430.786 477.345C430.786 477.345 443.974 543.742 456.873 565.567C469.773 587.391 476.943 638.213 476.943 638.213C476.943 638.213 504.687 641.841 504.358 634.577C504.028 627.313 499.074 565.872 482.927 544.072C482.927 544.072 469.056 507.736 477.982 470.081C486.909 432.426 468.404 419.539 468.404 419.539L439.029 384.861L409.645 378.265L391.454 403.684Z" fill="#3F3D56"/>
<path d="M478.592 263.058C478.282 264.133 477.782 265.144 477.116 266.042C476.427 266.782 475.612 267.393 474.709 267.848C471.808 269.486 468.738 270.804 465.552 271.781C464.728 273.43 466.063 275.285 467.332 276.621L471.058 280.562C473.234 282.854 475.41 285.146 477.759 287.257C482.301 291.334 487.455 294.672 493.032 297.151C495.95 298.445 499.717 299.369 502.058 297.2C504.398 295.032 503.813 291.223 505.231 288.395C505.41 288.226 505.547 288.018 505.633 287.788C505.718 287.557 505.748 287.31 505.722 287.065C505.696 286.821 505.613 286.586 505.481 286.379C505.348 286.172 505.17 285.998 504.959 285.872C503.047 283.984 502.659 280.999 503.063 278.344C503.467 275.689 504.547 273.183 505.165 270.569C505.783 267.955 505.899 265.037 504.506 262.736C503.686 261.513 502.626 260.469 501.39 259.669C498.684 257.748 495.667 256.309 492.472 255.415C490.823 254.961 489.175 254.656 487.526 254.17C486.504 253.856 483.735 251.943 482.861 252.1C481.064 252.397 479.226 261.137 478.592 263.058Z" fill="#FBB3B2"/>
<path opacity="0.1" d="M478.592 263.058C478.282 264.133 477.782 265.144 477.116 266.042C476.427 266.782 475.612 267.393 474.709 267.848C471.808 269.486 468.738 270.804 465.552 271.781C464.728 273.43 466.063 275.285 467.332 276.621L471.058 280.562C473.234 282.854 475.41 285.146 477.759 287.257C482.301 291.334 487.455 294.672 493.032 297.151C495.95 298.445 499.717 299.369 502.058 297.2C504.398 295.032 503.813 291.223 505.231 288.395C505.41 288.226 505.547 288.018 505.633 287.788C505.718 287.557 505.748 287.31 505.722 287.065C505.696 286.821 505.613 286.586 505.481 286.379C505.348 286.172 505.17 285.998 504.959 285.872C503.047 283.984 502.659 280.999 503.063 278.344C503.467 275.689 504.547 273.183 505.165 270.569C505.783 267.955 505.899 265.037 504.506 262.736C503.686 261.513 502.626 260.469 501.39 259.669C498.684 257.748 495.667 256.309 492.472 255.415C490.823 254.961 489.175 254.656 487.526 254.17C486.504 253.856 483.735 251.943 482.861 252.1C481.064 252.397 479.226 261.137 478.592 263.058Z" fill="black"/>
<path d="M474.891 268.986C474.85 268.335 474.775 267.576 474.223 267.221C473.901 267.044 473.534 266.967 473.168 266.999C465.371 266.999 459.049 273.133 454.145 279.185C443.809 291.923 435.657 306.303 428.594 321.119C424.25 330.246 420.219 340.511 423.013 350.232C423.897 353.115 425.211 355.847 426.912 358.337C429.255 361.895 432.097 365.096 435.352 367.843C436.574 369.018 438.088 369.844 439.737 370.234C442.21 370.63 444.559 369.27 446.669 367.959C450.906 365.32 455.123 362.654 459.321 359.961C466.137 355.591 472.954 351.147 478.963 345.722C484.971 340.297 490.189 333.816 493.148 326.28C494.409 323.081 495.249 319.684 496.667 316.584C498.827 311.81 502.313 307.597 503.55 302.502C504.135 300.069 504.184 297.555 504.811 295.123C505.305 293.185 506.162 291.355 506.575 289.4C506.987 287.446 506.888 285.278 505.643 283.678C503.55 281.024 499.478 281.419 496.164 282.104C491.845 282.994 484.147 285.187 480.034 282.574C476.515 280.323 475.138 272.812 474.891 268.986Z" fill="#EEEFF3"/>
<path d="M472.69 284.775L468.066 285.105L464.769 283.777L467.415 275.854C467.415 275.854 476.729 276.909 477.685 279.845C477.685 279.845 478.377 281.865 479.498 282.161C480.619 282.458 485.268 281.799 486.232 284.107C487.197 286.416 486.892 298.948 480.619 297.299L477.652 289.367L476.325 287.389C476.325 287.389 472.36 286.754 472.69 284.775Z" fill="#3F3D56"/>
<path d="M434.709 358.436C434.709 358.436 444.946 291.049 476.976 266.916C476.976 266.916 477.306 260.642 471.693 261.302C466.08 261.961 442.639 257.336 442.639 257.336L420.516 300.284C420.516 300.284 415.571 340.247 411.928 346.852C408.284 353.456 385.511 405.985 385.511 405.985C385.511 405.985 398.394 449.254 417.541 391.144C417.541 391.144 402.704 438.379 444.617 443.005C486.529 447.63 481.6 440.358 481.6 440.358L486.546 406.009V380.236L495.794 362.097L533.437 314.201C533.437 314.201 507.885 278.814 503.006 281.972C503.014 281.939 471.363 332.011 434.709 358.436Z" fill="#3F3D56"/>
<path d="M375.786 258.564C375.786 258.564 368.846 216.944 356.961 232.469C345.075 247.994 358.28 269.464 358.28 269.464L375.786 258.564Z" fill="#FBB3B2"/>
<path d="M448.5 260L442.5 255.866C442.5 255.866 428 249 414.5 272C414.5 272 402.556 282.558 394 289.5C394 289.5 378.45 263.171 378.45 255.866C378.45 255.866 359.294 268.753 355 265.446C355 265.446 369.682 321.466 391.5 317.5C413.318 313.534 422 302.5 422 302.5L448.5 260Z" fill="#3F3D56"/>
<path d="M520.899 316.155L533.444 314.168C533.444 314.168 541.374 324.738 527.172 340.264L518.583 392.784C518.583 392.784 519.572 410.289 516.605 423.505C513.638 436.722 509.006 477.345 509.006 477.345C509.006 477.345 493.823 471.73 485.564 472.72L498.109 350.867L520.899 316.155Z" fill="#3F3D56"/>
<path d="M503.896 278.006C518.668 278.006 530.642 266.027 530.642 251.251C530.642 236.475 518.668 224.496 503.896 224.496C489.124 224.496 477.149 236.475 477.149 251.251C477.149 266.027 489.124 278.006 503.896 278.006Z" fill="#FBB3B2"/>
<path d="M525.276 222.385C524.665 221.624 524.114 220.816 523.628 219.969C522.021 217.611 519.507 216.069 517.034 214.684C512.509 212.211 507.349 209.886 502.313 211.089C498.827 211.914 495.868 214.387 492.356 215.097C488.845 215.806 484.674 215.022 482.309 217.661C479.943 220.299 480.99 224.455 478.954 227.184C477.825 228.693 475.731 230.078 476.3 231.875C476.539 232.634 477.24 233.17 477.561 233.903C478.13 235.19 477.429 236.665 477.396 238.075C477.355 240.161 478.781 241.951 479.787 243.781C480.792 245.611 481.336 248.167 479.787 249.602C485.032 245.405 490.78 241.879 496.898 239.106C496.889 239.952 496.668 240.783 496.255 241.522C499.568 241.034 502.847 240.337 506.072 239.436L504.374 242.693L511.66 239.51C513.63 238.644 516.103 237.861 517.784 239.18C518.559 239.919 519.103 240.867 519.35 241.909C520.311 244.887 520.881 247.978 521.048 251.102C521.229 254.631 521.048 258.523 523.331 261.219C523.978 261.902 524.758 262.445 525.623 262.814C526.489 263.183 527.42 263.37 528.361 263.364C529.302 263.358 530.231 263.158 531.091 262.778C531.951 262.398 532.724 261.845 533.362 261.153C534.005 258.68 533.041 256.124 532.991 253.584C532.917 249.882 534.78 246.403 535.118 242.717C535.555 238.059 532.802 235.297 531.549 231.174C531.063 229.591 531.359 227.72 530.428 226.227C529.224 224.38 526.768 223.968 525.276 222.385Z" fill="#3F3D56"/>
<path d="M349.515 280.93L359.051 264.91L351.27 260.276C353.116 258.116 359.513 250.564 361.219 247.035C361.219 247.035 370.714 239.318 372.651 229.325C372.651 229.325 375.223 231.749 377.514 228.649C379.805 225.548 389.3 220.074 381.792 212.48L382.393 209.405C383.616 208.747 384.63 207.758 385.319 206.552C386.968 203.823 386.778 200.78 384.965 199.659C383.152 198.538 380.358 199.906 378.734 202.636C377.924 203.931 377.544 205.448 377.646 206.972L375.478 209.611C375.478 209.611 367.631 201.819 362.373 219.637C362.373 219.637 361.796 222.861 363.444 223.842C363.444 223.842 355.4 235.096 354.501 240.332C354.501 240.332 347.578 250.473 347.52 253.524L345.558 256.822L337.316 251.924L327.623 268.224C322.834 266.683 319.257 266.575 318.268 268.224C316.537 271.135 323.378 278.407 333.557 284.467C343.737 290.527 353.38 293.075 355.111 290.173C356.224 288.383 353.908 284.822 349.515 280.93Z" fill="#FFD967"/>
<path opacity="0.1" d="M382.287 204.507C381.598 205.713 380.588 206.704 379.369 207.368L378.759 210.435C386.276 218.029 376.772 223.512 374.481 226.612C374.245 227.022 373.918 227.373 373.526 227.637C373.134 227.901 372.686 228.072 372.217 228.137C371.749 228.201 371.272 228.157 370.822 228.009C370.373 227.86 369.964 227.611 369.626 227.28C367.689 237.273 358.194 244.99 358.194 244.99C356.471 248.527 350.092 256.08 348.246 258.232L351.205 259.996C353.051 257.844 359.447 250.283 361.153 246.755C361.153 246.755 370.648 239.037 372.585 229.044C372.585 229.044 375.157 231.468 377.448 228.368C379.74 225.268 389.235 219.793 381.726 212.2L382.328 209.124C383.548 208.465 384.559 207.477 385.246 206.272C386.894 203.551 386.713 200.5 384.899 199.379C384.355 199.067 383.724 198.943 383.103 199.024C383.38 199.942 383.451 200.909 383.31 201.857C383.169 202.806 382.819 203.711 382.287 204.507Z" fill="black"/>
<path opacity="0.1" d="M349.473 280.666L359.01 264.646L356.067 262.882L346.531 278.902C350.924 282.802 353.232 286.322 352.144 288.186C350.495 290.948 341.684 288.771 332.074 283.346C332.56 283.643 333.046 283.948 333.549 284.245C343.72 290.305 353.372 292.861 355.103 289.95C356.15 288.12 353.842 284.558 349.473 280.666Z" fill="black"/>
</g>
<defs>
<linearGradient id="paint0_linear" x1="390.25" y1="2" x2="390.25" y2="739.5" gradientUnits="userSpaceOnUse">
<stop stop-color="#FFF5C1"/>
<stop offset="1" stop-color="white" stop-opacity="0"/>
</linearGradient>
<clipPath id="clip0">
<rect width="1023" height="732" fill="white"/>
</clipPath>
</defs>
</svg>
