<svg width="355" height="752" viewBox="0 0 355 752" fill="none" xmlns="http://www.w3.org/2000/svg">
<path d="M0 22.7543C0 10.1874 10.1874 0 22.7543 0H332.246C344.813 0 355 10.1874 355 22.7543V729.246C355 741.813 344.813 752 332.246 752H22.7543C10.1875 752 0 741.813 0 729.246V22.7543Z" fill="url(#paint0_linear)"/>
<mask id="mask0" mask-type="alpha" maskUnits="userSpaceOnUse" x="0" y="0" width="355" height="752">
<path d="M0 22.7543C0 10.1874 10.1874 0 22.7543 0H332.246C344.813 0 355 10.1874 355 22.7543V729.246C355 741.812 344.813 752 332.246 752H22.7543C10.1875 752 0 741.812 0 729.246V22.7543Z" fill="url(#paint1_linear)"/>
</mask>
<g mask="url(#mask0)">
<path d="M66.9879 718.713L402.728 -34.8601L455.546 -34.4552L477.796 702.037L66.9879 718.713Z" fill="url(#paint2_linear)"/>
<path d="M320.07 678.548C314.352 672.464 301.002 667.265 283.144 663.817V585.492H282.327V584.68H267.621V585.492H244.501C246.576 573.64 253.488 532.312 252.099 515.732C252.099 515.732 270.072 467.062 255.367 426.504C255.367 426.504 270.072 429.749 271.706 413.526C273.03 400.425 288.176 371.483 270.775 354.83C266.69 350.58 260.628 347.067 251.862 344.723L247.614 332.872C250.649 327.82 252.205 322.028 252.107 316.146C252.107 307.418 249.019 299.769 244.379 295.469C241.715 292.655 238.464 291 234.951 291C232.275 291.044 229.689 291.968 227.598 293.628C227.909 293.855 228.203 294.099 228.497 294.358C223.121 298.341 219.429 306.599 219.429 316.146C219.429 323.373 221.561 329.846 224.919 334.3L222.696 348.6C222.696 348.6 176.946 337.244 196.554 413.493C196.554 413.493 201.455 426.472 209.625 426.472C209.625 426.472 204.723 484.875 212.893 505.965C212.893 505.965 209.625 557.88 216.161 569.236V585.459H175.312V665.764C154.398 670.517 141 677.826 141 686.043C141 700.384 181.971 712 232.5 712C283.029 712 324 700.376 324 686.043C324 683.463 322.619 680.933 320.07 678.548Z" fill="#3F3E67"/>
<path d="M204.808 654.568C203.051 652.676 198.974 651.057 193.51 649.982V625.616H193.26V625.363H188.759V625.616H181.682C182.319 621.929 184.436 609.069 184.007 603.909C184.007 603.909 189.522 588.762 185.008 576.142C185.008 576.142 189.509 577.153 190.01 572.104C190.413 568.031 195.05 559.026 189.726 553.844C188.453 552.521 186.616 551.429 183.935 550.701L182.633 547.018C183.563 545.447 184.039 543.645 184.007 541.815C184.007 539.1 183.061 536.719 181.644 535.392C181.285 534.97 180.842 534.628 180.345 534.389C179.847 534.149 179.306 534.017 178.755 534C177.937 534.015 177.146 534.302 176.507 534.818C176.601 534.889 176.692 534.964 176.778 535.045C175.136 536.282 174.008 538.852 174.008 541.824C173.962 543.835 174.547 545.808 175.679 547.464L175 551.913C175 551.913 161.001 548.38 166.999 572.104C166.999 572.104 168.501 576.142 171 576.142C171 576.142 169.502 594.316 172.001 600.877C172.001 600.877 171 617.034 173.002 620.575V625.624H160.504V650.62C154.102 652.097 150 654.371 150 656.919C150 661.381 162.541 665 178 665C193.459 665 206 661.381 206 656.919C206.012 656.097 205.588 655.309 204.808 654.568Z" fill="#C6CFE9"/>
<path d="M-52.8318 668.572H897.496C897.496 668.572 862.332 764.069 772.248 730.058C682.165 696.047 628.328 736.646 578.886 755.303C529.444 773.96 430.57 788.242 405.304 759.695C380.038 731.147 356.952 717.981 267.976 728.952C179.001 739.923 120.75 762.98 109.735 732.245C98.7196 701.511 96.5482 691.629 33.9285 697.11C-28.6912 702.591 -52.8318 668.572 -52.8318 668.572Z" fill="#41405B"/>
<path d="M284.832 292.191C272.08 313.814 270.127 339.837 265.831 364.54C259.087 402.82 245.873 439.738 239.213 478.04C236.892 491.439 235.39 505.027 231.703 518.112C226.64 536.089 217.606 552.683 209.129 569.288C194.697 597.658 181.598 627.159 176.21 658.515C174.529 668.289 175.842 681.563 185.548 683.658C188.321 684.276 191.441 683.784 193.804 685.355C195.191 686.266 196.073 687.744 197.186 688.969C201.451 693.663 208.793 694.207 214.886 692.5C220.978 690.792 226.293 687.042 231.944 684.119C254.381 672.595 280.977 673.967 306.145 675.602C310.777 675.895 315.977 676.471 318.908 680.075C320.389 681.908 321.008 684.265 322.111 686.361C326.019 693.956 336.334 697.487 344.086 693.883C346.985 692.531 349.475 690.363 352.489 689.252C361.701 685.826 371.396 693.254 381.26 693.307C395.44 693.369 406.112 678.388 420.282 677.875C429.946 677.529 438.78 684.098 448.444 684.161C455.692 684.161 462.372 680.515 468.675 676.963L511.741 652.7C500.228 636.64 486.126 622.594 470.009 611.131C458.15 602.75 454.946 585.987 447.709 573.416C442.929 565.098 438.097 556.654 435.765 547.361C434.085 540.657 433.749 533.679 432.089 526.964C429.789 517.703 425.051 509.27 421.291 500.501C406.375 465.762 406.879 426.119 393.213 390.867C389.369 380.935 384.422 371.433 381.008 361.344C376.512 348.061 374.758 333.98 370.22 320.717C365.682 307.454 357.615 294.432 344.748 288.723C339.164 286.433 333.218 285.145 327.185 284.92C312.153 283.956 298.782 286.533 284.832 292.191Z" fill="#EF0025"/>
<path d="M340.628 115.838H280.891V195.73H340.628V115.838Z" fill="#0B0D24"/>
<path d="M338.701 175.714C335.66 175.241 332.556 175.714 329.483 175.714C321.922 175.619 319.772 184.764 312.232 185.509C303.035 186.412 290.283 180.585 282.596 185.729C281.19 186.71 279.702 187.567 278.149 188.291C271.857 191.063 264.17 190.034 258.413 193.803C252.656 197.572 250.548 205.015 250.548 211.903C250.404 214.367 250.76 216.835 251.596 219.157C252.404 221.12 253.746 222.821 254.554 224.784C255.12 226.17 255.414 227.65 255.886 229.078C257.171 232.347 258.938 235.405 261.129 238.149L274.447 256.7C277.94 261.571 276.545 267.598 277.111 273.571C277.531 278.159 278.6 282.695 278.59 287.293C278.579 291.891 277.321 296.742 273.892 299.891C281.778 299.408 289.64 298.684 297.477 297.718C303.937 296.92 310.376 295.965 316.867 295.503C330.5 294.537 344.196 295.786 357.766 297.036C355.522 294.243 354.505 290.348 353.949 286.81C352.103 275.073 350.939 262.779 354.798 251.545C356.037 248.186 357.491 244.911 359.15 241.74L363.293 233.393C369.155 221.593 374.629 209.498 375.877 196.375C376.345 193.006 375.944 189.572 374.713 186.401C372.899 182.338 368.977 179.483 364.75 178.097C360.46 176.873 355.975 176.481 351.537 176.942C347.405 177.142 342.833 176.344 338.701 175.714Z" fill="#EF0025"/>
<path d="M296.65 171.768C297.598 174.312 298.733 177.039 297.993 179.669C296.618 184.887 289.598 185.945 286.535 190.361C286.269 190.66 286.085 191.027 286.002 191.424C285.92 191.82 285.942 192.232 286.067 192.617C286.213 192.875 286.404 193.103 286.629 193.291C292.348 198.402 300.618 198.84 308.201 198.754C319.253 198.648 331.055 197.685 339.815 190.81C342.263 188.886 344.565 185.678 343.315 182.781C342.346 180.567 339.794 179.733 337.679 178.643C332.94 176.194 329.544 171.533 327.669 166.432C325.794 161.332 325.315 155.826 325.232 150.394C325.316 149.465 325.12 148.532 324.67 147.721C323.94 146.652 322.586 146.492 321.305 146.406C314.167 145.917 306.998 146.211 299.92 147.283C297.92 147.582 294.108 147.86 292.702 149.539C291.296 151.218 292.108 153.206 292.379 155.035C293.225 160.751 294.656 166.36 296.65 171.768Z" fill="#FBB3B2"/>
<path opacity="0.05" d="M296.65 171.768C297.598 174.312 298.733 177.039 297.993 179.669C296.618 184.887 289.598 185.945 286.535 190.361C286.269 190.66 286.085 191.027 286.002 191.424C285.92 191.82 285.942 192.232 286.067 192.617C286.213 192.875 286.404 193.103 286.629 193.291C292.348 198.402 300.618 198.84 308.201 198.754C319.253 198.648 331.055 197.685 339.815 190.81C342.263 188.886 344.565 185.678 343.315 182.781C342.346 180.567 339.794 179.733 337.679 178.643C332.94 176.194 329.544 171.533 327.669 166.432C325.794 161.332 325.315 155.826 325.232 150.394C325.316 149.465 325.12 148.532 324.67 147.721C323.94 146.652 322.586 146.492 321.305 146.406C314.167 145.917 306.998 146.211 299.92 147.283C297.92 147.582 294.108 147.86 292.702 149.539C291.296 151.218 292.108 153.206 292.379 155.035C293.225 160.751 294.656 166.36 296.65 171.768Z" fill="black"/>
<path d="M308.735 161.346C323.553 161.346 335.566 149.348 335.566 134.547C335.566 119.746 323.553 107.748 308.735 107.748C293.916 107.748 281.903 119.746 281.903 134.547C281.903 149.348 293.916 161.346 308.735 161.346Z" fill="#FFC6C6"/>
<path opacity="0.1" d="M335.686 689.144C333.518 690.095 331.443 691.248 329.491 692.587C331.907 694.111 334.658 695.024 337.506 695.248C340.355 695.471 343.214 694.999 345.839 693.87C347.915 692.897 349.776 691.518 351.766 690.395C346.288 688.684 340.907 687.197 335.686 689.144Z" fill="black"/>
<path opacity="0.1" d="M214.523 684.386C209.962 686.877 205.612 689.919 200.904 691.995C205.18 694.711 210.899 694.834 215.818 693.319C221.927 691.422 227.257 687.472 232.913 684.341C245.258 677.607 258.867 674.969 272.791 674.24C252.61 673.522 232.271 674.666 214.523 684.386Z" fill="black"/>
<path opacity="0.1" d="M471.01 611.145C459.175 602.763 455.988 586.001 448.755 573.428C443.985 565.11 439.163 556.666 436.835 547.373C435.158 540.668 434.823 533.69 433.166 526.975C430.881 517.713 426.153 509.28 422.4 500.511C407.514 465.77 408.007 426.126 394.379 390.872C390.531 380.94 385.594 371.438 382.187 361.348C377.71 348.064 375.897 333.983 371.421 320.72C366.944 307.456 358.841 294.434 345.999 288.724C340.516 286.272 334.468 285.319 328.471 284.921C323.413 284.586 318.335 284.674 313.292 285.183C318.262 285.598 323.134 286.8 327.727 288.745C340.537 294.455 348.62 307.477 353.148 320.741C357.677 334.004 359.438 348.085 363.915 361.369C367.322 371.459 372.301 380.961 376.096 390.893C389.724 426.147 389.231 465.791 404.118 500.532C407.881 509.301 412.609 517.734 414.894 526.996C416.551 533.711 416.886 540.689 418.563 547.394C420.891 556.687 425.713 565.131 430.483 573.449C437.706 586.022 440.903 602.721 452.738 611.166C468.829 622.621 482.91 636.661 494.409 652.716L451.428 676.98C447.834 679.132 444.064 680.975 440.159 682.491C443.2 683.527 446.381 684.096 449.593 684.178C456.816 684.178 463.484 680.532 469.773 676.98L512.754 652.716C501.238 636.646 487.131 622.597 471.01 611.145Z" fill="black"/>
<path d="M308.184 288.987V269.224H298.571C299.084 266.264 300.804 255.917 300.458 251.763C300.458 251.763 304.934 239.586 301.276 229.438C301.764 229.556 302.273 229.561 302.764 229.453C303.255 229.344 303.714 229.125 304.107 228.812C304.499 228.499 304.815 228.1 305.029 227.646C305.244 227.193 305.351 226.696 305.343 226.195C305.742 222.135 311.445 211.987 300.458 209.142L299.336 206.003C300.095 204.741 300.484 203.291 300.458 201.818C300.458 198.46 298.634 195.73 296.39 195.73C294.146 195.73 292.322 198.46 292.322 201.818C292.283 203.441 292.76 205.034 293.685 206.369L293.13 209.989C293.13 209.989 281.744 207.144 286.63 226.226C286.63 226.226 287.846 229.469 289.88 229.469C289.88 229.469 288.663 244.116 290.697 249.347C290.697 249.347 289.88 262.33 291.505 265.176V269.235H281.335V289.332C276.093 290.525 272.791 292.355 272.791 294.406C272.791 297.994 282.992 300.903 295.572 300.903C308.153 300.903 318.354 297.994 318.354 294.406C318.354 292.136 314.317 290.148 308.184 288.987Z" fill="#FFD967"/>
<path opacity="0.1" d="M296.194 200.834C296.221 202.312 295.85 203.768 295.124 205.038L296.194 208.19C306.777 211.038 301.294 221.232 300.9 225.309C300.907 225.813 300.803 226.312 300.597 226.768C300.39 227.224 300.087 227.625 299.709 227.94C299.331 228.255 298.889 228.477 298.416 228.587C297.944 228.697 297.453 228.694 296.982 228.577C300.506 238.771 296.194 251.003 296.194 251.003C296.528 255.206 294.872 265.557 294.377 268.542H297.911C298.406 265.557 300.072 255.175 299.739 251.003C299.739 251.003 304.04 238.771 300.516 228.577C300.987 228.694 301.478 228.697 301.95 228.587C302.423 228.477 302.865 228.255 303.243 227.94C303.621 227.625 303.925 227.224 304.131 226.768C304.337 226.312 304.441 225.813 304.434 225.309C304.828 221.232 310.311 211.038 299.739 208.19L298.658 205.038C299.388 203.769 299.762 202.313 299.739 200.834C299.739 197.461 297.982 194.718 295.821 194.718C295.177 194.729 294.556 194.962 294.054 195.38C294.775 196.069 295.341 196.915 295.711 197.858C296.081 198.801 296.246 199.817 296.194 200.834Z" fill="black"/>
<path opacity="0.1" d="M307.907 288.746V268.542H304.145V288.746C310.441 289.944 314.602 291.956 314.602 294.278C314.602 297.778 305.115 300.635 293.041 300.903H294.928C307.864 300.903 318.354 297.928 318.354 294.257C318.364 291.978 314.192 289.944 307.907 288.746Z" fill="black"/>
<path d="M318.757 96.9053C310.318 94.8118 301.247 93.2103 293.209 96.4238C289.519 98.046 286.126 100.264 283.167 102.987C280.435 105.342 277.777 107.948 276.321 111.246C274.58 115.223 274.781 119.724 274.675 124.058C274.57 128.391 273.99 133.039 271.089 136.273C269.96 137.529 268.494 138.555 267.766 140.083C266.711 142.176 267.407 144.762 268.441 146.887C269.475 149.012 270.857 151.021 271.331 153.345C271.975 156.559 270.72 159.887 268.937 162.651C267.154 165.414 264.834 167.8 262.988 170.532C261.142 173.264 259.707 177.179 261.384 180.183C262.439 182.12 264.612 183.324 265.709 185.229C266.237 186.139 266.5 187.196 267.059 188.086C268.61 190.525 271.869 191.122 274.749 191.415C279.359 191.896 284.496 192.043 288.072 189.112C290.53 187.102 291.774 183.972 292.376 180.864C292.977 177.755 292.998 174.583 293.557 171.443C293.958 169.203 294.612 166.963 294.422 164.702C294.158 161.688 292.397 159.039 291.015 156.328C288.933 152.564 287.961 148.295 288.209 144.008C288.62 139.759 290.878 135.561 294.654 133.541C297.312 132.086 300.593 131.72 302.85 129.71C306.426 126.57 305.888 121.001 306.532 116.301C306.617 115.254 306.961 114.244 307.534 113.36C308.652 111.853 310.698 111.444 312.597 111.266C317.017 110.89 321.711 111.361 325.413 113.8C328.845 116.217 331.221 119.84 332.059 123.932C332.872 128 332.796 132.194 331.837 136.231C331.985 134.462 334.728 133.981 335.993 135.184C337.259 136.388 337.322 138.461 336.964 140.198C335.487 147.525 328.799 152.759 326.553 159.877C325.662 162.81 325.549 165.922 326.225 168.911C326.902 171.9 328.344 174.665 330.413 176.938C330.969 177.613 331.698 178.127 332.523 178.425C333.367 178.588 334.23 178.63 335.086 178.55C338.451 178.55 341.341 180.843 343.905 183.02C346.468 185.197 349.179 187.531 352.597 187.793C356.014 188.055 359.696 184.998 358.683 181.806C358.316 180.852 357.727 179.999 356.964 179.315C354.854 177.158 352.09 175.463 350.635 172.825C348.092 168.397 349.643 162.86 351.246 158.014C352.85 153.167 354.411 147.619 351.805 143.213C350.582 141.119 348.535 139.549 347.586 137.33C347.063 136.046 346.788 134.675 346.774 133.29C346.552 128.224 347.829 123.063 346.774 118.123C346.146 115.74 345.045 113.506 343.536 111.55C342.027 109.595 340.141 107.958 337.987 106.734C335.8 105.414 333.424 104.429 330.941 103.814C329.981 103.573 328.525 103.625 327.85 102.914C327.175 102.202 326.943 100.935 326.088 100.14C324.021 98.3812 321.278 97.5229 318.757 96.9053Z" fill="#434157"/>
<path opacity="0.05" d="M335.459 129.67C335.018 129.28 334.465 129.043 333.882 128.994C333.298 128.946 332.715 129.089 332.217 129.401C332.192 131.599 331.957 133.789 331.516 135.94C331.963 134.481 334.321 134.15 335.459 135.288C335.687 135.518 335.882 135.779 336.038 136.064C336.182 135.591 336.301 135.111 336.394 134.626C336.74 132.909 336.689 130.902 335.459 129.67Z" fill="black"/>
<path opacity="0.05" d="M345.712 127.669C345.738 128.109 345.819 128.548 345.953 128.985C346.737 125.962 346.907 122.918 346.462 119.883C345.865 122.471 345.614 125.07 345.712 127.669Z" fill="black"/>
<path opacity="0.05" d="M349.009 164.38C349.432 162.248 350.018 160.149 350.763 158.099C352.089 154.268 353.36 149.987 352.494 146.177C352.089 148.31 351.51 150.41 350.763 152.457C349.436 156.247 348.143 160.549 349.009 164.38Z" fill="black"/>
<path opacity="0.05" d="M331.95 124.214C332.137 125.033 332.278 125.862 332.373 126.697C332.677 123.968 332.534 121.209 331.95 118.526C331.115 114.426 328.735 110.796 325.297 108.375C321.59 105.945 316.848 105.463 312.466 105.84C310.586 106.008 308.516 106.416 307.396 107.935C306.823 108.816 306.479 109.824 306.393 110.868C305.749 115.582 306.287 121.124 302.707 124.287C300.447 126.309 297.163 126.676 294.501 128.132C290.721 130.227 288.461 134.417 288.049 138.607C287.915 140.12 287.971 141.644 288.218 143.143C288.506 141.213 289.224 139.371 290.32 137.751C291.416 136.131 292.863 134.774 294.554 133.778C297.216 132.322 300.5 131.955 302.76 129.944C306.34 126.801 305.802 121.228 306.446 116.525C306.531 115.477 306.876 114.466 307.449 113.581C308.569 112.073 310.617 111.664 312.518 111.486C316.943 111.109 321.643 111.581 325.35 114.021C328.777 116.463 331.137 120.108 331.95 124.214Z" fill="black"/>
<path opacity="0.05" d="M357.664 179.964C357.045 180.65 356.28 181.191 355.427 181.547C354.573 181.904 353.651 182.067 352.726 182.026C349.43 181.768 346.713 179.47 344.213 177.325C341.713 175.181 338.872 172.965 335.577 172.923C334.738 172.997 333.893 172.955 333.066 172.8C332.26 172.502 331.547 171.997 331 171.336C328.708 168.831 327.207 165.708 326.682 162.357C326.259 164.954 326.427 167.613 327.175 170.137C327.922 172.66 329.23 174.983 331 176.934C331.544 177.598 332.258 178.104 333.066 178.397C333.893 178.558 334.738 178.599 335.577 178.521C338.872 178.521 341.703 180.779 344.213 182.923C346.724 185.067 349.379 187.366 352.726 187.624C356.073 187.881 359.679 184.871 358.687 181.727C358.469 181.077 358.121 180.477 357.664 179.964Z" fill="black"/>
<path opacity="0.05" d="M270.365 152.244C270.8 150.632 270.883 148.929 270.605 147.274C270.154 144.839 268.83 142.723 267.857 140.486C267.656 140.031 267.476 139.568 267.315 139.098C267.315 139.164 267.245 139.23 267.215 139.307C266.212 141.511 266.874 144.233 267.857 146.47C268.814 148.329 269.651 150.258 270.365 152.244Z" fill="black"/>
<path opacity="0.05" d="M293.718 163.369C293.541 164.287 293.333 165.196 293.166 166.115C292.614 169.212 292.583 172.309 291.999 175.406C291.416 178.503 290.176 181.6 287.749 183.541C284.218 186.422 279.145 186.288 274.593 185.813C271.749 185.524 268.53 184.925 266.999 182.53C266.447 181.642 266.186 180.609 265.665 179.701C264.624 177.801 262.467 176.604 261.395 174.725C261.322 174.601 261.259 174.456 261.197 174.322C260.799 175.282 260.611 176.315 260.645 177.353C260.679 178.39 260.935 179.408 261.395 180.341C262.436 182.251 264.582 183.438 265.665 185.317C266.186 186.215 266.447 187.258 266.999 188.136C268.53 190.541 271.749 191.129 274.593 191.418C279.145 191.893 284.218 192.038 287.749 189.147C290.176 187.165 291.406 184.078 291.999 181.012C292.593 177.946 292.614 174.818 293.166 171.721C293.562 169.511 294.208 167.302 294.02 165.072C293.968 164.497 293.867 163.927 293.718 163.369Z" fill="black"/>
<path d="M254.739 202.809C254.739 202.809 249.534 205.664 246.255 232.144C242.976 258.623 241.404 286.74 241.404 286.74C241.404 286.74 241.404 310.374 263.619 311.182C263.619 311.182 272.509 312.82 275.341 314.857C278.172 316.894 322.602 303.035 301.595 300.158C280.587 297.281 272.915 298.52 272.915 298.52C272.915 298.52 261.599 291.171 261.599 284.262C261.599 277.354 272.915 236.259 272.915 236.259L254.739 202.809Z" fill="#FFC6C6"/>
<path d="M254.612 223.913C255.182 225.295 255.477 226.77 255.952 228.194C257.243 231.453 259.023 234.501 261.23 237.235C263.911 240.94 268.217 249.668 270.888 253.372C272.487 247.935 274.831 242.742 277.854 237.937L254.717 200.786C254.717 200.786 252.902 201.749 250.738 207.797C250.622 208.896 250.559 209.995 250.548 211.073C250.403 213.529 250.762 215.989 251.604 218.304C252.448 220.261 253.799 221.956 254.612 223.913Z" fill="#EF0025"/>
<path d="M333.535 148.947C333.535 148.702 333.47 148.463 333.352 148.263C333.233 148.063 333.065 147.912 332.871 147.83V146.487C333.065 146.406 333.234 146.255 333.353 146.055C333.472 145.855 333.536 145.615 333.535 145.37C333.538 145.149 333.489 144.932 333.394 144.742C333.299 144.552 333.162 144.396 332.997 144.293C332.833 144.19 332.647 144.143 332.462 144.157C332.276 144.171 332.097 144.245 331.945 144.372C331.793 144.5 331.673 144.674 331.599 144.877C331.525 145.08 331.5 145.303 331.526 145.522C331.552 145.74 331.629 145.946 331.747 146.117C331.866 146.287 332.022 146.415 332.198 146.487V147.83C332.002 147.911 331.832 148.063 331.712 148.264C331.592 148.465 331.527 148.705 331.527 148.952C331.527 149.198 331.592 149.439 331.712 149.64C331.832 149.841 332.002 149.992 332.198 150.074V151.406C332.002 151.487 331.832 151.639 331.712 151.84C331.592 152.041 331.527 152.282 331.527 152.528C331.527 152.775 331.592 153.015 331.712 153.216C331.832 153.417 332.002 153.569 332.198 153.65V154.993C331.976 155.087 331.789 155.271 331.67 155.513C331.551 155.755 331.508 156.039 331.548 156.315C331.588 156.591 331.709 156.841 331.89 157.022C332.07 157.202 332.298 157.301 332.534 157.301C332.77 157.301 332.998 157.202 333.179 157.022C333.359 156.841 333.48 156.591 333.52 156.315C333.561 156.039 333.517 155.755 333.399 155.513C333.28 155.271 333.093 155.087 332.871 154.993V153.65C333.067 153.569 333.236 153.417 333.356 153.216C333.477 153.015 333.541 152.775 333.541 152.528C333.541 152.282 333.477 152.041 333.356 151.84C333.236 151.639 333.067 151.487 332.871 151.406V150.074C333.066 149.991 333.235 149.838 333.354 149.636C333.473 149.434 333.536 149.193 333.535 148.947Z" fill="#EEEFF3"/>
<path d="M372.92 186.628C379.111 197.04 383.596 208.385 386.203 220.228C390.23 239.255 393.053 243.302 393.053 243.302C393.053 243.302 410.778 288.638 391.039 291.475C371.301 294.312 336.681 291.475 336.681 291.475C336.681 291.475 266.611 303.617 291.175 287.428C315.739 271.238 335.094 273.251 335.094 273.251C335.094 273.251 364.493 272.448 368.52 269.611L376.168 268.807L358.049 216.994L372.92 186.628Z" fill="#FFC6C6"/>
<path d="M354.803 217.148L362.969 237.192C368.486 225.493 374.836 211.156 376.009 198.16C376.119 195.754 376.069 193.343 375.859 190.944C374.963 188.987 373.782 187.19 372.358 185.617L354.803 217.148Z" fill="#EF0025"/>
<rect x="-73" y="-243" width="557" height="1111" fill="#131042" fill-opacity="0.45"/>
<path d="M83.3421 694.508C80.1644 694.673 77.7279 697.255 77.9001 700.276C78.0722 703.298 80.7879 705.614 83.9656 705.449C87.1434 705.285 89.5799 702.702 89.4077 699.681C89.2356 696.66 86.5199 694.344 83.3421 694.508Z" fill="#D0CDE1"/>
<path d="M68.7133 617.841C67.301 617.914 66.2182 619.062 66.2947 620.404C66.3712 621.747 67.5781 622.777 68.9904 622.704C70.4027 622.631 71.4856 621.483 71.4091 620.14C71.3325 618.797 70.1256 617.768 68.7133 617.841Z" fill="#D0CDE1"/>
<path d="M195.764 484.465C194.352 484.538 193.269 485.686 193.345 487.029C193.422 488.371 194.629 489.401 196.041 489.328C197.453 489.255 198.536 488.107 198.46 486.764C198.383 485.421 197.176 484.392 195.764 484.465Z" fill="#D0CDE1"/>
<path d="M211.14 608.036C209.728 608.109 208.645 609.257 208.722 610.599C208.798 611.942 210.005 612.972 211.418 612.899C212.83 612.825 213.913 611.678 213.836 610.335C213.76 608.992 212.553 607.963 211.14 608.036Z" fill="#D0CDE1"/>
<path d="M200.509 699.762C198.543 697.378 194.924 696.96 192.427 698.83C189.929 700.699 189.498 704.147 191.464 706.531C193.43 708.915 197.049 709.333 199.546 707.464C202.044 705.594 202.475 702.146 200.509 699.762Z" fill="#D0CDE1"/>
<path d="M257.993 644.328C257.119 643.269 255.511 643.083 254.401 643.914C253.291 644.745 253.099 646.277 253.973 647.337C254.847 648.396 256.455 648.582 257.565 647.751C258.675 646.92 258.866 645.388 257.993 644.328Z" fill="#D0CDE1"/>
<path d="M296.888 65.4574C296.015 64.3977 294.406 64.2122 293.296 65.043C292.186 65.8737 291.995 67.4062 292.869 68.4658C293.742 69.5255 295.351 69.711 296.461 68.8802C297.571 68.0495 297.762 66.517 296.888 65.4574Z" fill="#D0CDE1"/>
<path d="M42.1735 5.01668C42.1586 3.48449 40.8454 2.25388 39.2404 2.26802C37.6354 2.28215 36.3464 3.53568 36.3613 5.06787C36.3761 6.60005 37.6893 7.83067 39.2943 7.81654C40.8993 7.8024 42.1883 6.54886 42.1735 5.01668Z" fill="#D0CDE1"/>
<path d="M83.134 -0.276592C83.1274 -0.957545 82.5437 -1.50448 81.8304 -1.49819C81.1171 -1.49191 80.5442 -0.934794 80.5508 -0.253841C80.5574 0.427112 81.141 0.974033 81.8543 0.96775C82.5677 0.961468 83.1406 0.404361 83.134 -0.276592Z" fill="#D0CDE1"/>
<path d="M6.51692 82.897C7.82506 82.0056 8.12853 80.2747 7.19476 79.0309C6.26099 77.7872 4.44358 77.5016 3.13544 78.393C1.8273 79.2844 1.52381 81.0153 2.45758 82.259C3.39136 83.5027 5.20878 83.7884 6.51692 82.897Z" fill="#D0CDE1"/>
<path d="M34.5863 111.806C35.1677 111.41 35.3026 110.64 34.8876 110.088C34.4726 109.535 33.6648 109.408 33.0834 109.804C32.5021 110.2 32.3672 110.969 32.7822 111.522C33.1972 112.075 34.0049 112.202 34.5863 111.806Z" fill="#D0CDE1"/>
<path d="M18.394 201.513C18.9753 201.116 19.1102 200.347 18.6952 199.794C18.2802 199.242 17.4725 199.115 16.8911 199.511C16.3097 199.907 16.1748 200.676 16.5898 201.229C17.0048 201.782 17.8126 201.909 18.394 201.513Z" fill="#D0CDE1"/>
<path d="M286.506 12.6598C287.936 13.362 289.691 12.8294 290.427 11.4702C291.162 10.111 290.599 8.44004 289.17 7.73791C287.74 7.03578 285.985 7.56839 285.25 8.92755C284.514 10.2867 285.077 11.9577 286.506 12.6598Z" fill="#D0CDE1"/>
<path d="M272.316 49.647C272.951 49.9591 273.731 49.7224 274.058 49.1183C274.385 48.5142 274.135 47.7716 273.499 47.4595C272.864 47.1475 272.084 47.3842 271.757 47.9883C271.43 48.5923 271.68 49.335 272.316 49.647Z" fill="#D0CDE1"/>
<path d="M207.59 19.2405C208.225 19.5525 209.006 19.3158 209.332 18.7118C209.659 18.1077 209.409 17.365 208.774 17.0529C208.139 16.7409 207.359 16.9776 207.032 17.5817C206.705 18.1858 206.955 18.9284 207.59 19.2405Z" fill="#D0CDE1"/>
<path d="M329.062 146.144C329.159 146.819 329.81 147.292 330.517 147.2C331.224 147.108 331.719 146.486 331.622 145.812C331.525 145.137 330.874 144.664 330.167 144.756C329.46 144.848 328.966 145.47 329.062 146.144Z" fill="#D0CDE1"/>
<path d="M318.025 78.2C318.122 78.8747 318.773 79.3472 319.48 79.2553C320.187 79.1634 320.681 78.5419 320.585 77.8672C320.488 77.1924 319.837 76.72 319.13 76.8119C318.423 76.9038 317.928 77.5253 318.025 78.2Z" fill="#D0CDE1"/>
</g>
<defs>
<linearGradient id="paint0_linear" x1="464.643" y1="636.067" x2="-58.5625" y2="403.288" gradientUnits="userSpaceOnUse">
<stop stop-color="#C1F0FF"/>
<stop offset="0.0236053" stop-color="#ABD4F2"/>
<stop offset="0.0520543" stop-color="#BBE8FB"/>
<stop offset="0.903728" stop-color="#030094"/>
</linearGradient>
<linearGradient id="paint1_linear" x1="464.643" y1="636.067" x2="-58.5625" y2="403.288" gradientUnits="userSpaceOnUse">
<stop stop-color="#C1F0FF"/>
<stop offset="0.162552" stop-color="#BBE8FB"/>
<stop offset="0.215265" stop-color="#ABD4F2"/>
<stop offset="0.981573" stop-color="#030094"/>
</linearGradient>
<linearGradient id="paint2_linear" x1="262.56" y1="173.395" x2="284.339" y2="709.891" gradientUnits="userSpaceOnUse">
<stop stop-color="#FFF5C1"/>
<stop offset="1" stop-color="white" stop-opacity="0"/>
</linearGradient>
</defs>
</svg>
