<svg width="722" height="519" viewBox="0 0 722 519" fill="none" xmlns="http://www.w3.org/2000/svg">
<path d="M19.3394 482.076C20.0172 482.683 20.7137 483.267 21.4166 483.843C24.0095 485.971 26.7164 487.883 29.5187 489.566C44.2418 498.555 62.3788 502.942 80.0515 505.922C119.683 512.621 160.15 513.92 200.447 515.195C309.313 518.66 418.468 522.109 527.059 514.135C569.96 510.985 613.822 505.684 652.707 489.551C658.275 487.241 663.74 484.696 669.099 481.915C679.931 476.268 690.336 469.408 698.991 461.234C707.149 453.551 713.714 444.716 717.655 434.683C725.876 413.771 721.527 390.286 712.145 369.797C708.223 361.482 703.819 353.523 698.966 345.981C691.736 334.442 683.759 323.264 676.467 311.74C650.535 270.701 633.616 218.867 657.552 176.829C664.455 164.752 674.377 154.15 679.981 141.543C687.142 125.41 686.584 107.502 684.305 90.0707C684.017 87.8735 683.678 85.6917 683.37 83.5099C679.46 57.7198 672.181 29.9247 649.644 13.8223C626.235 -2.91014 593.005 -2.06507 563.942 3.91956C518.756 13.2307 477.072 32.675 434.98 50.2371C392.888 67.7992 348.801 83.8402 302.51 85.5765C261.642 87.113 213.965 75.6891 186.841 46.0425C160.482 17.2486 110.966 15.0591 75.2568 32.4522C50.7811 44.3908 32.4872 65.894 24.7742 90.0707C23.2153 94.9114 22.0895 99.9446 21.4166 105.082C20.7908 109.76 20.5804 114.508 20.7891 119.241C20.8958 121.546 21.1028 123.889 21.4166 126.155C27.3787 173.886 70.3115 211.53 96.4062 254.168C109.159 274.995 118.164 300.009 109.397 322.465C96.0234 356.683 49.5135 368.844 21.4166 394.319C16.1675 398.904 11.513 404.431 7.60986 410.714C-5.97723 433.392 -0.950317 463.999 19.3394 482.076Z" fill="#CFF3FF"/>
<g clip-path="url(#clip0)">
<path d="M684 455C653.135 450.489 623.452 446.601 594.951 443.335L606.221 425.138C602.422 424.018 585.728 434.392 585.728 434.392L600.522 381.487C581.414 383.324 571.69 437.367 571.69 437.367L550.344 418.982L560.677 439.589C473.447 430.605 398.111 427.075 334.745 426.668L344.391 411.094C340.592 409.974 323.898 420.347 323.898 420.347L338.692 367.443C319.584 369.28 309.86 423.323 309.86 423.323L288.514 404.938L299.458 426.764C246.336 427.406 203.015 430.235 169.577 433.534C179.335 409.247 212.474 386.259 212.474 386.259C187.168 392.429 173.892 402.903 166.955 412.693C166.424 382.648 169.992 326.963 196.496 265.418C196.496 265.418 144.177 360.258 150.842 424.112L151.638 435.449C107.295 440.548 85 445.963 85 445.963L684 455Z" fill="#3F3D56"/>
<path d="M403.509 42.2229V425.465C403.504 430.03 401.684 434.407 398.448 437.634C395.211 440.861 390.823 442.675 386.248 442.676H230.319C228.053 442.68 225.807 442.238 223.712 441.374C221.617 440.511 219.713 439.244 218.11 437.645C216.506 436.046 215.235 434.147 214.368 432.057C213.501 429.967 213.056 427.727 213.059 425.465V42.2229C213.058 39.9611 213.505 37.7214 214.372 35.6317C215.239 33.5421 216.511 31.6434 218.114 30.044C219.717 28.4447 221.62 27.1761 223.714 26.3106C225.808 25.4452 228.053 24.9998 230.319 25H253.654V27.9858C253.653 31.7467 255.15 35.3538 257.815 38.0137C260.48 40.6737 264.094 42.1686 267.863 42.1697H347.17C350.203 42.1761 353.159 41.2057 355.596 39.4027C356.088 39.0451 356.555 38.6539 356.994 38.232C358.382 36.9094 359.487 35.3192 360.24 33.5579C360.994 31.7966 361.381 29.9009 361.379 27.9858V25H386.248C388.515 24.9993 390.76 25.4443 392.854 26.3096C394.949 27.1749 396.852 28.4435 398.455 30.0429C400.058 31.6424 401.329 33.5413 402.196 35.6312C403.064 37.721 403.51 39.9609 403.509 42.2229Z" fill="#3F3D56"/>
<path d="M403.509 42.2229V425.465C403.504 430.03 401.684 434.407 398.448 437.634C395.211 440.861 390.823 442.675 386.248 442.676H230.319C228.053 442.68 225.807 442.238 223.712 441.374C221.617 440.511 219.713 439.244 218.11 437.645C216.506 436.046 215.235 434.147 214.368 432.057C213.501 429.967 213.056 427.727 213.059 425.465V42.2229C213.058 39.9611 213.505 37.7214 214.372 35.6317C215.239 33.5421 216.511 31.6434 218.114 30.044C219.717 28.4447 221.62 27.1761 223.714 26.3106C225.808 25.4452 228.053 24.9998 230.319 25H253.654V27.9858C253.653 31.7467 255.15 35.3538 257.815 38.0137C260.48 40.6737 264.094 42.1686 267.863 42.1697H347.17C350.203 42.1761 353.159 41.2057 355.596 39.4027C356.088 39.0451 356.555 38.6539 356.994 38.232C358.382 36.9094 359.487 35.3192 360.24 33.5579C360.994 31.7966 361.381 29.9009 361.379 27.9858V25H386.248C388.515 24.9993 390.76 25.4443 392.854 26.3096C394.949 27.1749 396.852 28.4435 398.455 30.0429C400.058 31.6424 401.329 33.5413 402.196 35.6312C403.064 37.721 403.51 39.9609 403.509 42.2229Z" fill="#514E7F"/>
<path d="M256.498 92.9927C258.789 92.9927 260.646 91.1397 260.646 88.854C260.646 86.5683 258.789 84.7153 256.498 84.7153C254.208 84.7153 252.351 86.5683 252.351 88.854C252.351 91.1397 254.208 92.9927 256.498 92.9927Z" fill="#F2F2F2"/>
<path d="M356.994 38.232C356.556 38.6539 356.088 39.0451 355.596 39.4027C360.676 48.3226 367.558 56.0919 375.806 62.218C384.054 68.344 393.488 72.6931 403.509 74.9894V73.1448C393.758 70.8496 384.59 66.5621 376.584 60.5529C368.578 54.5437 361.908 46.9435 356.994 38.232Z" fill="#56D7FF"/>
<path d="M321.554 42.1696H319.61C326.51 59.6621 337.89 75.0414 352.613 86.7706C367.335 98.4998 384.885 106.168 403.509 109.009V107.177C385.37 104.366 368.277 96.8947 353.908 85.4972C339.539 74.0997 328.389 59.1681 321.554 42.1696Z" fill="#56D7FF"/>
<path d="M285.752 42.1696H283.88C299.541 96.41 346.796 136.786 403.509 143.343V141.539C347.78 135.012 301.336 95.4049 285.752 42.1696Z" fill="#56D7FF"/>
<path d="M242.87 119.493H241.791V118.416H241.58V119.493H240.5V119.704H241.58V120.781H241.791V119.704H242.87V119.493Z" fill="#F2F2F2"/>
<path d="M315.753 65.6904H314.673V64.6131H314.463V65.6904H313.383V65.9009H314.463V66.9781H314.673V65.9009H315.753V65.6904Z" fill="#F2F2F2"/>
<path d="M253.535 162.063H252.456V160.985H252.245V162.063H251.165V162.273H252.245V163.35H252.456V162.273H253.535V162.063Z" fill="#F2F2F2"/>
<path d="M303.31 130.727H302.23V129.65H302.02V130.727H300.939V130.937H302.02V132.015H302.23V130.937H303.31V130.727Z" fill="#F2F2F2"/>
<path d="M374.415 150.238H373.335V149.161H373.125V150.238H372.045V150.448H373.125V151.526H373.335V150.448H374.415V150.238Z" fill="#F2F2F2"/>
<path d="M361.972 101.27C363.281 101.27 364.342 100.211 364.342 98.9051C364.342 97.599 363.281 96.5401 361.972 96.5401C360.663 96.5401 359.602 97.599 359.602 98.9051C359.602 100.211 360.663 101.27 361.972 101.27Z" fill="#FF6584"/>
<path d="M277.06 154.363L275.715 154.57C276.136 157.255 276.467 159.998 276.71 162.712L278.067 162.594C277.824 159.844 277.487 157.077 277.06 154.363Z" fill="#E6E6E6"/>
<path d="M273.38 138.199L272.076 138.595C272.864 141.197 273.569 143.863 274.168 146.518L275.501 146.216C274.891 143.532 274.174 140.836 273.38 138.199Z" fill="#E6E6E6"/>
<path d="M267.508 122.697L266.27 123.264C267.407 125.742 268.474 128.284 269.44 130.826L270.714 130.347C269.736 127.775 268.663 125.198 267.508 122.697Z" fill="#E6E6E6"/>
<path d="M259.568 108.164L258.419 108.891C259.883 111.185 261.287 113.562 262.59 115.945L263.787 115.294C262.472 112.882 261.05 110.482 259.568 108.164Z" fill="#E6E6E6"/>
<path d="M249.696 94.8433L248.659 95.7243C250.425 97.7936 252.143 99.9576 253.767 102.145L254.857 101.335C253.222 99.1239 251.486 96.9363 249.696 94.8433Z" fill="#E6E6E6"/>
<path d="M238.094 82.983L237.188 83.994C239.226 85.8091 241.223 87.7188 243.125 89.664L244.103 88.7121C242.177 86.7433 240.156 84.8158 238.094 82.983Z" fill="#E6E6E6"/>
<path d="M224.987 72.8018L224.223 73.9252C226.486 75.4446 228.726 77.0646 230.877 78.7378L231.718 77.6677C229.538 75.9767 227.274 74.3391 224.987 72.8018Z" fill="#E6E6E6"/>
<path d="M213.059 65.7306V67.2679C214.475 68.0069 215.879 68.7814 217.254 69.5737L217.935 68.3971C216.335 67.4747 214.71 66.5859 213.059 65.7306Z" fill="#E6E6E6"/>
<path d="M276.752 282.073C276.973 280.751 277.175 279.401 277.353 278.061L278.704 278.24C278.524 279.595 278.319 280.959 278.096 282.297L276.752 282.073Z" fill="#E6E6E6"/>
<path d="M272.954 298.024L274.256 298.429C275.073 295.802 275.812 293.11 276.453 290.429L275.126 290.116C274.491 292.768 273.765 295.426 272.954 298.024Z" fill="#E6E6E6"/>
<path d="M267.004 313.297L268.24 313.875C269.416 311.388 270.516 308.824 271.514 306.258L270.242 305.763C269.256 308.301 268.168 310.837 267.004 313.297Z" fill="#E6E6E6"/>
<path d="M258.998 327.625L260.141 328.365C261.648 326.06 263.093 323.669 264.439 321.265L263.251 320.6C261.923 322.978 260.489 325.34 258.998 327.625Z" fill="#E6E6E6"/>
<path d="M249.093 340.714L250.125 341.607C251.938 339.521 253.696 337.351 255.361 335.156L254.27 334.342C252.628 336.511 250.888 338.655 249.093 340.714Z" fill="#E6E6E6"/>
<path d="M237.494 352.329L238.391 353.351C240.475 351.538 242.512 349.624 244.459 347.68L243.496 346.717C241.571 348.641 239.551 350.528 237.494 352.329Z" fill="#E6E6E6"/>
<path d="M224.427 362.257L225.179 363.394C227.48 361.878 229.765 360.262 231.957 358.598L231.133 357.512C228.962 359.163 226.705 360.76 224.427 362.257Z" fill="#E6E6E6"/>
<path d="M218.089 367.713C216.442 368.641 214.759 369.54 213.059 370.391V368.866C214.528 368.121 215.986 367.334 217.414 366.536L218.089 367.713Z" fill="#E6E6E6"/>
<path d="M277.151 171.099L278.513 171.074C278.538 172.447 278.54 173.826 278.519 175.175L277.157 175.154C277.178 173.82 277.176 172.456 277.151 171.099Z" fill="#E6E6E6"/>
<path d="M219.044 203.337H358.417C368.789 203.337 378.736 207.448 386.07 214.766C393.404 222.084 397.525 232.01 397.525 242.359V247.524H258.152C247.78 247.524 237.833 243.413 230.498 236.095C223.164 228.777 219.044 218.852 219.044 208.502V203.337Z" fill="white"/>
<path d="M311.54 442.133C311.404 441.911 308.198 436.569 307.086 425.477C306.067 415.3 306.722 398.146 315.638 374.217C332.529 328.886 311.746 292.311 311.533 291.946L312.559 291.353C312.613 291.445 317.976 300.77 321.144 315.62C325.33 335.306 323.806 355.776 316.749 374.629C299.887 419.883 312.423 441.306 312.552 441.517L311.54 442.133Z" fill="#F2F2F2"/>
<path d="M304.936 289.285C309.19 289.285 312.639 285.843 312.639 281.598C312.639 277.354 309.19 273.912 304.936 273.912C300.681 273.912 297.232 277.354 297.232 281.598C297.232 285.843 300.681 289.285 304.936 289.285Z" fill="#90EB71"/>
<path d="M329.229 317.664C333.484 317.664 336.933 314.223 336.933 309.978C336.933 305.733 333.484 302.292 329.229 302.292C324.975 302.292 321.526 305.733 321.526 309.978C321.526 314.223 324.975 317.664 329.229 317.664Z" fill="#F2F2F2"/>
<path d="M312.638 336.584C316.892 336.584 320.341 333.143 320.341 328.898C320.341 324.653 316.892 321.212 312.638 321.212C308.383 321.212 304.935 324.653 304.935 328.898C304.935 333.143 308.383 336.584 312.638 336.584Z" fill="#90EB71"/>
<path d="M332.785 352.547C337.039 352.547 340.488 349.106 340.488 344.861C340.488 340.616 337.039 337.175 332.785 337.175C328.531 337.175 325.082 340.616 325.082 344.861C325.082 349.106 328.531 352.547 332.785 352.547Z" fill="#90EB71"/>
<path d="M306.713 377.379C310.967 377.379 314.416 373.938 314.416 369.693C314.416 365.448 310.967 362.007 306.713 362.007C302.459 362.007 299.01 365.448 299.01 369.693C299.01 373.938 302.459 377.379 306.713 377.379Z" fill="#F2F2F2"/>
<path d="M316.193 442.416C316.193 442.416 308.49 423.496 331.6 409.306L316.193 442.416Z" fill="#F2F2F2"/>
<path d="M306.72 442.073C306.72 442.073 303.214 421.953 276.08 422.126L306.72 442.073Z" fill="#F2F2F2"/>
<path opacity="0.2" d="M276.052 272.73C302.232 272.73 323.456 251.553 323.456 225.431C323.456 199.308 302.232 178.131 276.052 178.131C249.872 178.131 228.648 199.308 228.648 225.431C228.648 251.553 249.872 272.73 276.052 272.73Z" fill="#2945FF"/>
<path opacity="0.2" d="M276.053 258.74C294.49 258.74 309.436 243.827 309.436 225.431C309.436 207.034 294.49 192.121 276.053 192.121C257.616 192.121 242.67 207.034 242.67 225.431C242.67 243.827 257.616 258.74 276.053 258.74Z" fill="#2945FF"/>
<path d="M276.052 247.415C288.221 247.415 298.085 237.572 298.085 225.431C298.085 213.289 288.221 203.446 276.052 203.446C263.884 203.446 254.02 213.289 254.02 225.431C254.02 237.572 263.884 247.415 276.052 247.415Z" fill="#2945FF"/>
<path d="M280.059 220.689C280.059 220.014 279.888 219.351 279.562 218.76C279.236 218.169 278.765 217.67 278.194 217.309C277.622 216.949 276.969 216.739 276.294 216.698C275.619 216.657 274.945 216.788 274.334 217.077C273.724 217.367 273.196 217.805 272.801 218.353C272.406 218.9 272.157 219.539 272.076 220.209C271.995 220.878 272.085 221.558 272.338 222.183C272.591 222.809 272.998 223.36 273.522 223.786L272.047 234.091H280.059L278.583 223.786C279.045 223.412 279.417 222.94 279.672 222.404C279.927 221.868 280.059 221.282 280.059 220.689Z" fill="white"/>
<path d="M487.475 56.5132C487.475 56.5132 474.26 44.6914 456.488 66.9709C438.717 89.2504 410.92 100.163 404.54 108.802C404.54 108.802 430.97 97.8894 440.084 93.3426C449.197 88.7957 448.742 89.7051 448.742 89.7051C448.742 89.7051 436.438 98.3441 434.16 106.983C431.881 115.622 433.704 122.897 429.603 131.536C425.502 140.175 507.981 137.447 507.981 137.447C507.981 137.447 516.184 123.352 513.905 108.802C511.627 94.2519 512.994 58.3319 487.475 56.5132Z" fill="#FF64AE"/>
<path d="M472.48 93.7034C472.48 93.7034 475.354 113.774 463.039 118.28C450.723 122.785 455.239 128.93 455.239 128.93L473.712 137.941L493.417 131.797L499.985 121.966C499.985 121.966 489.311 119.509 492.185 112.136C495.059 104.763 495 99 495 99L472.48 93.7034Z" fill="#FFB9B9"/>
<path opacity="0.1" d="M472.48 93.7034C472.48 93.7034 475.354 113.774 463.039 118.28C450.723 122.785 455.239 128.93 455.239 128.93L473.712 137.941L493.417 131.797L499.985 121.966C499.985 121.966 489.311 119.509 492.185 112.136C495.059 104.763 495.5 98.5 495.5 98.5L472.48 93.7034Z" fill="black"/>
<path d="M524.205 151.048C524.205 151.048 521.331 188.732 522.152 190.371C522.973 192.009 522.152 248.944 522.152 248.944C522.152 248.944 527.899 279.665 520.51 281.303C513.121 282.942 514.763 246.896 514.763 246.896L507.374 199.382L508.195 152.277L524.205 151.048Z" fill="#FFB9B9"/>
<path opacity="0.1" d="M524.205 151.048C524.205 151.048 521.331 188.732 522.152 190.371C522.973 192.009 522.152 248.944 522.152 248.944C522.152 248.944 527.899 279.665 520.51 281.303C513.121 282.942 514.763 246.896 514.763 246.896L507.374 199.382L508.195 152.277L524.205 151.048Z" fill="black"/>
<path d="M444.155 264.509C444.155 264.509 430.608 315.71 431.019 340.696C431.429 365.682 436.766 400.499 436.766 400.499C436.766 400.499 437.587 415.654 436.356 417.292C435.124 418.931 442.513 425.894 442.513 425.894L450.313 421.388L453.186 418.112V415.244C453.186 415.244 448.671 401.318 452.365 390.258C456.06 379.199 458.113 351.346 454.418 342.744L479.87 267.376L444.155 264.509Z" fill="#FFB9B9"/>
<path d="M443.334 419.34C443.334 419.34 438.408 413.196 435.124 415.244C431.84 417.292 426.503 431.219 426.503 431.219C426.503 431.219 408.03 448.832 421.167 449.651C434.303 450.471 440.05 445.965 441.692 442.688C443.334 439.411 458.523 430.809 458.523 430.809C458.523 430.809 456.881 415.244 454.418 414.835C451.955 414.425 448.26 420.979 448.26 420.979L443.334 419.34Z" fill="#35334D"/>
<path d="M488.9 267.786V318.577C488.948 324.74 489.359 330.895 490.132 337.01C491.364 346.021 483.153 413.196 483.153 413.196L483.974 425.075L494.237 424.256L495.469 414.016L510.247 368.959C510.247 368.959 515.173 341.515 512.71 331.275C510.247 321.035 525.436 255.498 525.436 255.498L488.9 267.786Z" fill="#FFB9B9"/>
<path d="M480.691 422.208L483.731 421.548C483.731 421.548 486.028 416.473 488.901 417.702C490.923 418.633 492.839 419.778 494.615 421.118L495.88 423.436C495.88 423.436 498.753 429.581 502.448 433.677C506.143 437.773 510.248 446.784 504.09 447.603C497.932 448.423 489.722 448.832 487.259 446.784C484.796 444.736 486.438 441.459 483.975 440.64C481.512 439.821 479.459 437.363 479.87 436.544C480.28 435.725 480.691 422.208 480.691 422.208Z" fill="#35334D"/>
<path d="M480.901 107.812C490.977 107.812 499.145 99.6614 499.145 89.6073C499.145 79.5533 490.977 71.4029 480.901 71.4029C470.825 71.4029 462.656 79.5533 462.656 89.6073C462.656 99.6614 470.825 107.812 480.901 107.812Z" fill="#FFB9B9"/>
<path d="M454.418 121.557L459.84 119.668C459.84 119.668 457.702 123.195 469.196 125.243C480.691 127.291 492.594 128.016 497.932 121.305C497.932 121.305 499.985 120.328 502.858 123.195C505.732 126.062 507.374 125.243 507.374 125.243L505.321 135.893L501.216 155.554L495.88 170.3L480.691 167.023L464.27 155.144L458.113 139.17V124.424L454.418 121.557Z" fill="#2945FF"/>
<path d="M504.5 127.291L508.606 124.424C508.606 124.424 522.563 126.882 523.384 133.435L512.711 153.916C514.888 159.614 514.74 165.937 512.3 171.529C508.195 180.95 508.606 182.998 508.606 182.998L505.732 195.286L453.597 199.382C453.597 199.382 451.545 194.467 450.724 193.647C449.903 192.828 449.903 189.961 450.724 189.961C451.545 189.961 450.724 188.732 449.903 187.503C449.082 186.274 448.671 185.865 449.903 184.226C451.134 182.588 447.85 167.842 447.85 167.842V151.868L433.893 133.435C433.893 133.435 438.819 126.062 441.282 125.243C443.745 124.424 455.462 121.193 455.462 121.193L458.113 125.088L461.807 154.735L467.144 172.757L489.614 168.948L498.343 154.325L504.09 137.122L504.5 127.291Z" fill="#2945FF"/>
<path d="M520.099 130.978L523.384 133.435C523.384 133.435 526.257 156.373 525.436 158.012C524.615 159.65 510.247 161.288 509.837 160.469C509.426 159.65 520.099 130.978 520.099 130.978Z" fill="#2945FF"/>
<path d="M452.365 119.509L456.47 146.543C456.47 146.543 452.775 186.684 453.596 194.876L454.418 197.334C454.418 197.334 452.775 196.515 452.365 198.153C451.954 199.791 452.365 205.116 452.365 205.116C452.365 205.116 449.902 207.574 449.081 221.091C448.26 234.608 438.408 266.967 442.102 268.196C445.797 269.425 467.964 275.569 479.869 274.34C491.774 273.111 534.467 258.775 534.057 255.088C533.646 251.402 513.12 199.382 513.12 199.382C513.12 199.382 509.426 193.238 509.426 192.419C509.426 191.599 514.352 188.322 513.121 185.046C511.889 181.769 505.321 147.362 505.321 147.362L509.837 122.785L503.679 121.147L499.163 144.904C499.163 144.904 481.511 153.506 463.038 145.723L458.933 117.87L452.365 119.509Z" fill="#3F3D56"/>
<path d="M499.386 74.1921C499.386 74.1921 469.008 95.082 460.798 85.6611C452.587 76.2401 475.166 68.048 475.166 68.048L494.049 66L499.386 74.1921Z" fill="#FF64AE"/>
<path d="M424.917 298.769C428.044 301.092 431.912 302.196 435.797 301.877C439.682 301.557 443.316 299.834 446.019 297.032C448.722 294.23 450.308 290.54 450.48 286.654C450.651 282.769 449.397 278.954 446.951 275.926C444.506 272.897 441.037 270.862 437.196 270.203C433.354 269.543 429.404 270.304 426.084 272.343C422.765 274.382 420.305 277.559 419.165 281.279C418.025 284.998 418.284 289.005 419.893 292.547L377.996 327.355L372.418 320.748L369.911 322.421L367.122 319.118L369.414 317.191L366.625 313.888L363.06 316.885L364.776 318.918L360.956 322.129L359.24 320.097L353.638 324.806L356.212 327.856L358.25 326.143L361.039 329.446L358.492 331.587L363.642 337.685L357.53 342.823L363.752 350.191L424.917 298.769ZM435.378 275.42C437.466 275.598 439.454 276.39 441.091 277.695C442.729 279.001 443.941 280.761 444.575 282.754C445.209 284.747 445.237 286.883 444.655 288.892C444.072 290.9 442.906 292.691 441.303 294.039C439.701 295.386 437.734 296.229 435.651 296.461C433.568 296.693 431.464 296.303 429.603 295.341C427.742 294.38 426.209 292.889 425.197 291.058C424.185 289.227 423.741 287.137 423.919 285.054C424.158 282.26 425.5 279.675 427.649 277.869C429.798 276.062 432.578 275.181 435.378 275.42V275.42Z" fill="#FFD967"/>
<path d="M431.019 155.964C431.019 155.964 433.893 193.647 433.072 195.286C432.251 196.924 433.072 253.859 433.072 253.859C433.072 253.859 427.325 284.58 434.714 286.218C442.103 287.857 440.461 251.811 440.461 251.811L447.85 204.297L447.029 157.192L431.019 155.964Z" fill="#FFB9B9"/>
<path d="M437.177 132.206L433.893 133.435C433.893 133.435 427.735 159.24 429.377 159.24C431.019 159.24 450.724 161.698 450.724 160.879C450.724 160.06 447.029 139.989 447.029 139.989L437.177 132.206Z" fill="#2945FF"/>
</g>
<defs>
<clipPath id="clip0">
<rect width="599" height="430" fill="white" transform="translate(85 25)"/>
</clipPath>
</defs>
</svg>
