<svg width="811" height="606" viewBox="0 0 811 606" fill="none" xmlns="http://www.w3.org/2000/svg">
<g style="mix-blend-mode:darken">
<path d="M489.749 146.326C442.878 137.52 400.318 115.43 360.005 92.214C319.692 68.9977 280.049 44.0474 235.407 28.2037C206.689 18.0137 172.981 12.0646 146.728 24.3468C121.481 36.1412 110.027 61.4698 102.316 85.385C96.5114 103.375 91.7976 122.505 97.3761 141.045C101.256 153.906 109.851 165.527 115.109 178.077C133.389 221.748 108.686 268.42 76.3287 303.42C61.1846 319.849 44.1336 335.12 31.6143 353.15C19.095 371.18 11.2742 392.842 16.6092 413.988C21.9051 434.955 39.402 452.758 59.2127 466.42C99.4544 494.171 149.745 508.017 199.16 519.039C308.547 543.437 420.179 557.061 531.512 570.633C572.716 575.652 614.098 580.686 655.421 580.463C678.36 580.341 702.343 578.255 720.664 567.189C743.931 553.144 753.477 524.822 742.917 501.144C725.206 461.472 662.39 442.73 652.069 401.472C646.386 378.763 659.176 356.369 675.165 338.546C709.467 300.297 761.802 270.126 771.646 221.948C778.411 188.856 761.057 152.042 728.774 130.989C694.93 108.916 644.202 103.329 613.211 126.627C581.32 150.642 531.133 154.103 489.749 146.326Z" fill="#DDF7FF"/>
</g>
<g clip-path="url(#clip0)">
<path d="M346.622 85.0508H181.457V394.078H346.622V85.0508Z" fill="#EAF0FC"/>
<path d="M386.653 394.72H181V51H386.653V394.72ZM182.285 393.436H385.368V52.2849H182.285V393.436Z" fill="#2B2949"/>
<path d="M361.404 231.534H205.879V88.9058H361.404V231.534ZM207.164 230.249H360.119V90.1907H207.164V230.249Z" fill="#2B2949"/>
<path d="M206.975 193.717L206.066 192.809L254.538 144.352L282.998 172.803L359.985 95.8398L360.894 96.7483L282.998 174.62L254.538 146.169L206.975 193.717Z" fill="#2B2949"/>
<path d="M254.72 155.08C260.044 155.08 264.36 150.765 264.36 145.443C264.36 140.12 260.044 135.806 254.72 135.806C249.396 135.806 245.08 140.12 245.08 145.443C245.08 150.765 249.396 155.08 254.72 155.08Z" fill="#2945FF"/>
<path d="M283.64 181.421C288.964 181.421 293.28 177.106 293.28 171.784C293.28 166.462 288.964 162.147 283.64 162.147C278.316 162.147 274 166.462 274 171.784C274 177.106 278.316 181.421 283.64 181.421Z" fill="#2945FF"/>
<path d="M360.761 105.61C366.085 105.61 370.401 101.295 370.401 95.973C370.401 90.6506 366.085 86.3359 360.761 86.3359C355.437 86.3359 351.121 90.6506 351.121 95.973C351.121 101.295 355.437 105.61 360.761 105.61Z" fill="#2945FF"/>
<path d="M342.123 271.367H225.158V282.931H342.123V271.367Z" fill="#2B2949"/>
<path d="M310.632 366.452H256.648V312.484H293.28V313.769H257.934V365.167H309.347V339.468H310.632V366.452Z" fill="#2B2949"/>
<path d="M283.364 352.375L271.945 337.155L276.058 334.071L283.92 344.55L320.063 308.419L323.698 312.053L283.364 352.375Z" fill="#2945FF"/>
<path d="M474.091 541.945C541.672 541.945 596.457 537.821 596.457 532.733C596.457 527.646 541.672 523.521 474.091 523.521C406.51 523.521 351.725 527.646 351.725 532.733C351.725 537.821 406.51 541.945 474.091 541.945Z" fill="#2B2949"/>
<path d="M461.325 160.344L435.777 180.482L381.641 161.456C381.641 161.456 363.235 140.752 352.827 156.173C349.262 161.454 372.61 171.21 374.813 172.117C380.32 174.384 433.071 203.324 438.24 199.527C443.41 195.731 472.494 176.527 472.494 176.527L461.325 160.344Z" fill="#FEBDC7"/>
<path d="M548.534 125.993C524.32 116.945 501.286 112.664 482.611 125.993V82.9756C482.611 78.6471 483.464 74.361 485.12 70.362C486.777 66.363 489.205 62.7294 492.265 59.6687C495.326 56.608 498.96 54.1801 502.959 52.5237C506.958 50.8672 511.244 50.0146 515.572 50.0146H515.572C519.901 50.0146 524.187 50.8672 528.186 52.5237C532.185 54.1801 535.819 56.608 538.879 59.6687C541.94 62.7294 544.368 66.363 546.024 70.3621C547.681 74.3611 548.533 78.6472 548.533 82.9757L548.534 125.993Z" fill="#2B2949"/>
<path d="M487.693 219.964L485.714 233.814C485.714 233.814 480.768 248.654 485.714 276.354L406.076 493.503L464.939 510.321L494.123 391.606L535.179 301.086L531.221 403.972L510.446 513.783L571.782 511.31L589.656 323.017C592.546 293.259 587.384 263.271 574.711 236.192C569.752 225.662 564.421 217.363 559.584 216.158C545.072 212.544 487.693 219.964 487.693 219.964Z" fill="#FA0026"/>
<path d="M413.496 492.019L393.215 513.783C393.215 513.783 354.138 534.064 381.839 536.537C409.539 539.01 418.937 528.128 418.937 528.128C418.937 528.128 453.562 525.655 453.068 520.708C452.573 515.762 450.1 499.439 450.1 499.439L413.496 492.019Z" fill="#FFD967"/>
<path d="M523.556 497.267V512.601C523.556 512.601 524.05 519.032 523.556 520.515C523.061 521.999 515.641 540.301 540.374 536.344C565.106 532.387 555.213 517.053 555.213 517.053L549.277 494.794L523.556 497.267Z" fill="#FFD967"/>
<path d="M515.27 113.121C528.998 113.121 540.126 101.992 540.126 88.2646C540.126 74.5371 528.998 63.4087 515.27 63.4087C501.542 63.4087 490.414 74.5371 490.414 88.2646C490.414 101.992 501.542 113.121 515.27 113.121Z" fill="#FEBDC7"/>
<path d="M532.458 101.991C532.458 101.991 528.995 134.638 532.458 140.573C535.92 146.509 497.338 134.638 497.338 134.638C497.338 134.638 505.747 112.379 502.779 103.475C499.811 94.5714 532.458 101.991 532.458 101.991Z" fill="#FEBDC7"/>
<path d="M552.244 195.974L560.158 217.738L486.456 226.147C486.456 226.147 478.542 224.663 478.542 218.233C478.542 211.802 470.133 189.049 470.133 189.049C470.133 189.049 449.538 172.356 439.645 167.904C436.059 166.292 441.423 166.958 444.441 160.112C445.346 158.054 446.429 155.883 447.611 153.682C448.576 151.876 449.615 150.046 450.678 148.24C451.969 146.039 453.3 143.873 454.591 141.81C458.499 135.573 462.065 130.329 463.208 128.207C466.67 121.777 499.223 121.203 499.223 121.203C508.532 127.06 535.426 128.207 535.426 128.207C535.426 128.207 553.926 135.948 561.632 141.81C562.191 142.231 552.244 195.974 552.244 195.974Z" fill="#EAEAEA"/>
<path d="M536.244 58.4265V57.8363L535.543 57.8753C531.558 54.8406 526.934 52.7533 522.022 51.7718C517.11 50.7903 512.039 50.9403 507.194 52.2104C511.839 53.4379 516.157 55.6693 519.846 58.7473L496.021 60.0709L485.965 82.4174H492.77L498.255 72.3615V82.4174H521.272L522.837 74.5961L527.182 82.4174H531.704C531.732 82.975 531.775 83.5287 531.775 84.0933L527.306 127.11L548.535 118.172V84.0933C548.539 79.1678 547.436 74.3044 545.309 69.8619C543.182 65.4195 540.084 61.5115 536.244 58.4265Z" fill="#2B2949"/>
<path d="M569.557 172.231L568.073 211.308L564.116 286.989C564.116 286.989 569.557 319.635 555.707 319.141C541.857 318.646 552.244 280.558 552.244 280.558L548.287 220.706L552.244 178.661L569.557 172.231Z" fill="#FEBDC7"/>
<path d="M573.513 193.501C573.513 197.953 548.534 196.716 548.534 196.716L535.426 128.208C535.426 128.208 553.925 135.949 561.632 141.81C563.446 143.692 564.929 145.866 566.02 148.241C566.608 149.828 567.167 151.669 567.696 153.682C568.221 155.68 568.71 157.852 569.17 160.112C571.329 171.138 572.78 182.29 573.513 193.501Z" fill="#EAEAEA"/>
</g>
<defs>
<clipPath id="clip0">
<rect width="478" height="519" fill="white" transform="translate(118 23)"/>
</clipPath>
</defs>
</svg>
