<svg width="26" height="26" viewBox="0 0 26 26" fill="none" xmlns="http://www.w3.org/2000/svg">
<path d="M21.5086 3.36834C21.5179 2.52912 21.192 1.7209 20.6032 1.12285C20.0044 0.530704 19.1997 0.193244 18.3577 0.181182C17.5302 0.177577 16.7353 0.503322 16.1484 1.0866L20.6032 5.57756C21.2007 5.00025 21.5291 4.19895 21.5086 3.36834Z" fill="#C3C4CF"/>
<path d="M19.5894 6.5914L15.1348 2.13672L4.81292 12.4586L9.26759 16.9133L19.5894 6.5914Z" fill="#C3C4CF"/>
<path d="M4.23286 13.9077L3.21875 18.5073L7.81834 17.4932L4.23286 13.9077Z" fill="#C3C4CF"/>
<path d="M25.2751 24.0845H1.0095C0.609445 24.0845 0.285156 24.4088 0.285156 24.8088C0.285156 25.2089 0.609445 25.5332 1.0095 25.5332H25.2751C25.6752 25.5332 25.9994 25.2089 25.9994 24.8088C25.9994 24.4088 25.6752 24.0845 25.2751 24.0845Z" fill="#C3C4CF"/>
</svg>
