<svg width="20" height="26" viewBox="0 0 20 26" fill="none" xmlns="http://www.w3.org/2000/svg">
<path d="M19.5093 8.25577H7.61618L12.9421 2.92987C13.2363 2.63567 13.2363 2.15866 12.9421 1.86442L11.5925 0.51486C10.906 -0.17162 9.79303 -0.17162 9.1065 0.51486L7.71888 1.90253L7.00854 1.1922C6.22529 0.408892 4.95071 0.408942 4.1674 1.1922L1.39728 3.96232C0.61397 4.74563 0.61397 6.02021 1.39728 6.80351L2.10756 7.51385L0.719938 8.90147C0.0334582 9.58795 0.0334582 10.701 0.719938 11.3875L2.06949 12.7371C2.36364 13.0312 2.8407 13.0313 3.1349 12.7371L5.04437 10.8276V22.4497C5.04437 24.2527 6.50603 25.7143 8.30903 25.7143H16.2447C18.0477 25.7143 19.5093 24.2527 19.5093 22.4497V8.25577ZM3.17302 6.44835L2.46273 5.73806C2.26692 5.54225 2.26692 5.22359 2.46273 5.02773L5.23286 2.2576C5.42872 2.06174 5.74738 2.06179 5.94314 2.2576L6.65343 2.96794L3.17302 6.44835ZM9.67838 21.4954C9.67838 21.9114 9.34109 22.2487 8.925 22.2487C8.50892 22.2487 8.17163 21.9114 8.17163 21.4954V12.4747C8.17163 12.0587 8.50892 11.7214 8.925 11.7214C9.34109 11.7214 9.67838 12.0587 9.67838 12.4747V21.4954ZM13.0302 21.4954C13.0302 21.9114 12.6929 22.2487 12.2768 22.2487C11.8608 22.2487 11.5235 21.9114 11.5235 21.4954V12.4747C11.5235 12.0587 11.8608 11.7214 12.2768 11.7214C12.6929 11.7214 13.0302 12.0587 13.0302 12.4747V21.4954ZM16.3821 21.4954C16.3821 21.9114 16.0448 22.2487 15.6287 22.2487C15.2126 22.2487 14.8753 21.9114 14.8753 21.4954V12.4747C14.8753 12.0587 15.2126 11.7214 15.6287 11.7214C16.0448 11.7214 16.3821 12.0587 16.3821 12.4747V21.4954Z" fill="#C3C4CF"/>
<path d="M13.1165 5.70273C12.6569 5.86294 12.3345 6.2733 12.2812 6.74945H19.5098V5.49732C19.5098 4.63758 18.6638 4.03251 17.8513 4.30798L13.1321 5.69771C13.127 5.69917 13.1215 5.70117 13.1165 5.70273Z" fill="#C3C4CF"/>
</svg>
