<svg width="30" height="40" viewBox="0 0 30 40" fill="none" xmlns="http://www.w3.org/2000/svg">
<path d="M26.8315 4.7392H26.0051C25.681 3.49171 24.5587 2.56539 23.209 2.56539H19.275C18.4445 1.04577 16.8493 0 14.9988 0C13.1484 0 11.5528 1.04716 10.7223 2.56539H6.7883C5.43763 2.56539 4.3161 3.49148 3.99145 4.7392H3.16576C1.56596 4.7392 0.267578 6.03828 0.267578 7.63714V37.1021C0.267578 38.7025 1.56596 40.0002 3.16576 40.0002H26.8315C28.4306 40.0002 29.7297 38.7025 29.7297 37.1021V7.63714C29.7295 6.03456 28.4332 4.7392 26.8315 4.7392ZM14.9988 2.80592C16.1491 2.80592 17.0817 3.73921 17.0817 4.89048C17.0817 6.04083 16.1491 6.97343 14.9988 6.97343C13.8482 6.97343 12.9149 6.03944 12.9149 4.89048C12.9149 3.74153 13.8479 2.80592 14.9988 2.80592ZM6.57659 30.5799C5.77507 30.5799 5.12762 29.9318 5.12762 29.1307C5.12762 28.3299 5.77507 27.682 6.57659 27.682C7.37974 27.682 8.02556 28.3299 8.02556 29.1307C8.0258 29.9318 7.37695 30.5799 6.57659 30.5799ZM6.57659 23.3346C5.77507 23.3346 5.12762 22.6865 5.12762 21.8856C5.12762 21.0846 5.77507 20.4367 6.57659 20.4367C7.37974 20.4367 8.02556 21.0846 8.02556 21.8856C8.0258 22.6865 7.37695 23.3346 6.57659 23.3346ZM6.57659 16.0893C5.77507 16.0893 5.12762 15.4404 5.12762 14.6403C5.12762 13.8395 5.77507 13.1913 6.57659 13.1913C7.37974 13.1913 8.02556 13.8395 8.02556 14.6403C8.0258 15.4404 7.37695 16.0893 6.57659 16.0893ZM24.0649 30.5799H11.3397C10.5366 30.5799 9.89075 29.9318 9.89075 29.1307C9.89075 28.3299 10.5368 27.682 11.3397 27.682H24.0649C24.8673 27.682 25.5139 28.3299 25.5139 29.1307C25.5141 29.9318 24.8673 30.5799 24.0649 30.5799ZM24.0649 23.3346H11.3397C10.5366 23.3346 9.89075 22.6865 9.89075 21.8856C9.89075 21.0846 10.5368 20.4367 11.3397 20.4367H24.0649C24.8673 20.4367 25.5139 21.0846 25.5139 21.8856C25.5141 22.6865 24.8673 23.3346 24.0649 23.3346ZM24.0649 16.0893H11.3397C10.5366 16.0893 9.89075 15.4404 9.89075 14.6403C9.89075 13.8395 10.5368 13.1913 11.3397 13.1913H24.0649C24.8673 13.1913 25.5139 13.8395 25.5139 14.6403C25.5141 15.4404 24.8673 16.0893 24.0649 16.0893Z" fill="#9698B4"/>
</svg>
