<svg width="40" height="40" viewBox="0 0 40 40" fill="none" xmlns="http://www.w3.org/2000/svg">
<circle cx="20" cy="20" r="20" fill="#FA0026"/>
<g clip-path="url(#clip0)">
<path d="M28.3199 19.0685C27.8598 19.0685 27.4866 18.6953 27.4866 18.2352C27.4866 15.8977 26.5765 13.7011 24.924 12.0476C24.5982 11.7218 24.5982 11.1953 24.924 10.8693C25.2498 10.5436 25.7765 10.5436 26.1023 10.8693C28.0699 12.8368 29.1531 15.4528 29.1531 18.2352C29.1531 18.6953 28.7799 19.0685 28.3199 19.0685Z" fill="white"/>
<path d="M11.6536 19.0685C11.1937 19.0685 10.8203 18.6953 10.8203 18.2352C10.8203 15.4528 11.9037 12.8368 13.8712 10.8693C14.1969 10.5436 14.7237 10.5436 15.0494 10.8693C15.3754 11.1953 15.3754 11.7218 15.0494 12.0476C13.3969 13.7001 12.487 15.8977 12.487 18.2352C12.487 18.6953 12.1136 19.0685 11.6536 19.0685Z" fill="white"/>
<path d="M27.8036 24.0942C26.5435 23.0292 25.821 21.4725 25.821 19.8233V17.5C25.821 14.5676 23.6427 12.14 20.821 11.7334V10.8333C20.821 10.3725 20.4476 10 19.9877 10C19.5277 10 19.1543 10.3725 19.1543 10.8333V11.7334C16.3319 12.14 14.1543 14.5676 14.1543 17.5V19.8233C14.1543 21.4725 13.4318 23.0292 12.1644 24.1008C11.8401 24.3784 11.6543 24.7816 11.6543 25.2083C11.6543 26.0126 12.3084 26.6667 13.1127 26.6667H26.8627C27.6669 26.6667 28.321 26.0126 28.321 25.2083C28.321 24.7816 28.1352 24.3784 27.8036 24.0942Z" fill="white"/>
<path d="M19.9875 30C21.4966 30 22.7591 28.9241 23.0491 27.5H16.9258C17.2157 28.9241 18.4782 30 19.9875 30Z" fill="white"/>
</g>
<defs>
<clipPath id="clip0">
<rect width="20" height="20" fill="white" transform="translate(10 10)"/>
</clipPath>
</defs>
</svg>
