<svg width="1425" height="378" viewBox="0 0 1425 378" fill="none" xmlns="http://www.w3.org/2000/svg">
<g opacity="0.2">
<mask id="path-1-outside-1" maskUnits="userSpaceOnUse" x="-2" y="0" width="1427" height="378" fill="black">
<rect fill="white" x="-2" width="1427" height="378"/>
<path d="M247.921 313.129V362.636H10V44.7018H241.576V94.2086H68.9137V176.871H222.089V225.47H68.9137V313.129H247.921Z"/>
<path d="M285.499 25.6257H342.147V362.636H285.499V25.6257Z"/>
<path d="M621.335 242.729C621.335 246.666 621.033 252.267 620.429 259.534H430.546C433.869 277.399 442.48 291.63 456.377 302.228C470.577 312.523 488.1 317.671 508.946 317.671C535.533 317.671 557.437 308.89 574.658 291.328L605.021 326.3C594.145 339.321 580.398 349.161 563.781 355.823C547.165 362.484 528.433 365.815 507.587 365.815C481 365.815 457.586 360.516 437.344 349.918C417.101 339.321 401.391 324.635 390.213 305.862C379.336 286.786 373.898 265.287 373.898 241.367C373.898 217.749 379.185 196.553 389.759 177.78C400.636 158.704 415.591 143.867 434.624 133.269C453.658 122.671 475.109 117.372 498.976 117.372C522.542 117.372 543.539 122.671 561.969 133.269C580.7 143.564 595.202 158.25 605.474 177.326C616.048 196.099 621.335 217.9 621.335 242.729ZM498.976 162.792C480.849 162.792 465.441 168.242 452.752 179.142C440.365 189.74 432.812 203.972 430.093 221.836H567.407C564.99 204.274 557.588 190.043 545.201 179.142C532.814 168.242 517.406 162.792 498.976 162.792Z"/>
<path d="M764.12 365.815C739.044 365.815 716.536 360.516 696.596 349.918C676.656 339.321 661.096 324.635 649.918 305.862C638.739 286.786 633.15 265.287 633.15 241.367C633.15 217.446 638.739 196.099 649.918 177.326C661.096 158.552 676.504 143.867 696.142 133.269C716.082 122.671 738.741 117.372 764.12 117.372C787.987 117.372 808.834 122.217 826.659 131.907C844.786 141.596 858.381 155.524 867.445 173.692L823.94 199.127C816.991 187.923 808.229 179.597 797.655 174.146C787.383 168.393 776.053 165.517 763.666 165.517C742.518 165.517 724.995 172.481 711.097 186.409C697.2 200.035 690.251 218.354 690.251 241.367C690.251 264.379 697.049 282.849 710.644 296.778C724.542 310.404 742.216 317.217 763.666 317.217C776.053 317.217 787.383 314.491 797.655 309.041C808.229 303.288 816.991 294.81 823.94 283.606L867.445 309.041C858.079 327.209 844.333 341.289 826.206 351.281C808.38 360.97 787.685 365.815 764.12 365.815Z"/>
<path d="M1042.32 349.464C1035.68 354.914 1027.52 359.002 1017.85 361.727C1008.49 364.452 998.516 365.815 987.942 365.815C961.355 365.815 940.811 358.851 926.309 344.922C911.807 330.994 904.557 310.707 904.557 284.061V167.333H864.677V121.914H904.557V66.503H961.204V121.914H1026.01V167.333H961.204V282.698C961.204 294.507 964.074 303.591 969.815 309.95C975.555 316.005 983.863 319.033 994.74 319.033C1007.43 319.033 1018 315.703 1026.46 309.041L1042.32 349.464Z"/>
<path d="M1066.26 120.098H1122.91V362.636H1066.26V120.098ZM1094.81 80.1287C1084.54 80.1287 1075.93 76.9493 1068.98 70.5907C1062.03 63.9292 1058.56 55.7538 1058.56 46.0643C1058.56 36.3749 1062.03 28.3509 1068.98 21.9922C1075.93 15.3307 1084.54 12 1094.81 12C1105.09 12 1113.7 15.1793 1120.65 21.538C1127.6 27.5939 1131.07 35.3152 1131.07 44.7018C1131.07 54.694 1127.6 63.1722 1120.65 70.1365C1114 76.798 1105.39 80.1287 1094.81 80.1287Z"/>
<path d="M1283.37 365.815C1258.9 365.815 1236.84 360.516 1217.2 349.918C1197.56 339.321 1182.16 324.635 1170.98 305.862C1160.1 286.786 1154.66 265.287 1154.66 241.367C1154.66 217.446 1160.1 196.099 1170.98 177.326C1182.16 158.552 1197.56 143.867 1217.2 133.269C1236.84 122.671 1258.9 117.372 1283.37 117.372C1308.14 117.372 1330.35 122.671 1349.98 133.269C1369.62 143.867 1384.88 158.552 1395.76 177.326C1406.93 196.099 1412.52 217.446 1412.52 241.367C1412.52 265.287 1406.93 286.786 1395.76 305.862C1384.88 324.635 1369.62 339.321 1349.98 349.918C1330.35 360.516 1308.14 365.815 1283.37 365.815ZM1283.37 317.217C1304.21 317.217 1321.43 310.252 1335.03 296.324C1348.63 282.395 1355.42 264.076 1355.42 241.367C1355.42 218.657 1348.63 200.338 1335.03 186.409C1321.43 172.481 1304.21 165.517 1283.37 165.517C1262.52 165.517 1245.3 172.481 1231.7 186.409C1218.41 200.338 1211.76 218.657 1211.76 241.367C1211.76 264.076 1218.41 282.395 1231.7 296.324C1245.3 310.252 1262.52 317.217 1283.37 317.217Z"/>
</mask>
<path d="M247.921 313.129V362.636H10V44.7018H241.576V94.2086H68.9137V176.871H222.089V225.47H68.9137V313.129H247.921Z" stroke="white" stroke-width="24" mask="url(#path-1-outside-1)"/>
<path d="M285.499 25.6257H342.147V362.636H285.499V25.6257Z" stroke="white" stroke-width="24" mask="url(#path-1-outside-1)"/>
<path d="M621.335 242.729C621.335 246.666 621.033 252.267 620.429 259.534H430.546C433.869 277.399 442.48 291.63 456.377 302.228C470.577 312.523 488.1 317.671 508.946 317.671C535.533 317.671 557.437 308.89 574.658 291.328L605.021 326.3C594.145 339.321 580.398 349.161 563.781 355.823C547.165 362.484 528.433 365.815 507.587 365.815C481 365.815 457.586 360.516 437.344 349.918C417.101 339.321 401.391 324.635 390.213 305.862C379.336 286.786 373.898 265.287 373.898 241.367C373.898 217.749 379.185 196.553 389.759 177.78C400.636 158.704 415.591 143.867 434.624 133.269C453.658 122.671 475.109 117.372 498.976 117.372C522.542 117.372 543.539 122.671 561.969 133.269C580.7 143.564 595.202 158.25 605.474 177.326C616.048 196.099 621.335 217.9 621.335 242.729ZM498.976 162.792C480.849 162.792 465.441 168.242 452.752 179.142C440.365 189.74 432.812 203.972 430.093 221.836H567.407C564.99 204.274 557.588 190.043 545.201 179.142C532.814 168.242 517.406 162.792 498.976 162.792Z" stroke="white" stroke-width="24" mask="url(#path-1-outside-1)"/>
<path d="M764.12 365.815C739.044 365.815 716.536 360.516 696.596 349.918C676.656 339.321 661.096 324.635 649.918 305.862C638.739 286.786 633.15 265.287 633.15 241.367C633.15 217.446 638.739 196.099 649.918 177.326C661.096 158.552 676.504 143.867 696.142 133.269C716.082 122.671 738.741 117.372 764.12 117.372C787.987 117.372 808.834 122.217 826.659 131.907C844.786 141.596 858.381 155.524 867.445 173.692L823.94 199.127C816.991 187.923 808.229 179.597 797.655 174.146C787.383 168.393 776.053 165.517 763.666 165.517C742.518 165.517 724.995 172.481 711.097 186.409C697.2 200.035 690.251 218.354 690.251 241.367C690.251 264.379 697.049 282.849 710.644 296.778C724.542 310.404 742.216 317.217 763.666 317.217C776.053 317.217 787.383 314.491 797.655 309.041C808.229 303.288 816.991 294.81 823.94 283.606L867.445 309.041C858.079 327.209 844.333 341.289 826.206 351.281C808.38 360.97 787.685 365.815 764.12 365.815Z" stroke="white" stroke-width="24" mask="url(#path-1-outside-1)"/>
<path d="M1042.32 349.464C1035.68 354.914 1027.52 359.002 1017.85 361.727C1008.49 364.452 998.516 365.815 987.942 365.815C961.355 365.815 940.811 358.851 926.309 344.922C911.807 330.994 904.557 310.707 904.557 284.061V167.333H864.677V121.914H904.557V66.503H961.204V121.914H1026.01V167.333H961.204V282.698C961.204 294.507 964.074 303.591 969.815 309.95C975.555 316.005 983.863 319.033 994.74 319.033C1007.43 319.033 1018 315.703 1026.46 309.041L1042.32 349.464Z" stroke="white" stroke-width="24" mask="url(#path-1-outside-1)"/>
<path d="M1066.26 120.098H1122.91V362.636H1066.26V120.098ZM1094.81 80.1287C1084.54 80.1287 1075.93 76.9493 1068.98 70.5907C1062.03 63.9292 1058.56 55.7538 1058.56 46.0643C1058.56 36.3749 1062.03 28.3509 1068.98 21.9922C1075.93 15.3307 1084.54 12 1094.81 12C1105.09 12 1113.7 15.1793 1120.65 21.538C1127.6 27.5939 1131.07 35.3152 1131.07 44.7018C1131.07 54.694 1127.6 63.1722 1120.65 70.1365C1114 76.798 1105.39 80.1287 1094.81 80.1287Z" stroke="white" stroke-width="24" mask="url(#path-1-outside-1)"/>
<path d="M1283.37 365.815C1258.9 365.815 1236.84 360.516 1217.2 349.918C1197.56 339.321 1182.16 324.635 1170.98 305.862C1160.1 286.786 1154.66 265.287 1154.66 241.367C1154.66 217.446 1160.1 196.099 1170.98 177.326C1182.16 158.552 1197.56 143.867 1217.2 133.269C1236.84 122.671 1258.9 117.372 1283.37 117.372C1308.14 117.372 1330.35 122.671 1349.98 133.269C1369.62 143.867 1384.88 158.552 1395.76 177.326C1406.93 196.099 1412.52 217.446 1412.52 241.367C1412.52 265.287 1406.93 286.786 1395.76 305.862C1384.88 324.635 1369.62 339.321 1349.98 349.918C1330.35 360.516 1308.14 365.815 1283.37 365.815ZM1283.37 317.217C1304.21 317.217 1321.43 310.252 1335.03 296.324C1348.63 282.395 1355.42 264.076 1355.42 241.367C1355.42 218.657 1348.63 200.338 1335.03 186.409C1321.43 172.481 1304.21 165.517 1283.37 165.517C1262.52 165.517 1245.3 172.481 1231.7 186.409C1218.41 200.338 1211.76 218.657 1211.76 241.367C1211.76 264.076 1218.41 282.395 1231.7 296.324C1245.3 310.252 1262.52 317.217 1283.37 317.217Z" stroke="white" stroke-width="24" mask="url(#path-1-outside-1)"/>
</g>
</svg>
