<svg width="76" height="76" viewBox="0 0 76 76" fill="none" xmlns="http://www.w3.org/2000/svg">
<g clip-path="url(#clip0)">
<rect x="20.0342" y="18.4712" width="35.4947" height="40.7145" fill="#2945FF"/>
<path d="M37.7818 0.723755C17.0575 0.723755 0.199219 17.5837 0.199219 38.3063C0.199219 59.029 17.0575 75.8889 37.7818 75.8889C58.5061 75.8889 75.3644 59.029 75.3644 38.3063C75.3644 17.5837 58.5061 0.723755 37.7818 0.723755ZM52.7225 39.623L30.7994 53.7165C30.5425 53.8831 30.2458 53.9658 29.9521 53.9658C29.6952 53.9658 29.4352 53.9015 29.2028 53.7747C28.6981 53.4994 28.3862 52.9732 28.3862 52.3998V24.2129C28.3862 23.6394 28.6981 23.1133 29.2028 22.838C29.6983 22.5658 30.3192 22.5826 30.7994 22.8962L52.7225 36.9896C53.1691 37.2771 53.4413 37.7742 53.4413 38.3063C53.4413 38.8385 53.1691 39.3355 52.7225 39.623Z" fill="white"/>
</g>
<defs>
<clipPath id="clip0">
<rect width="75.1652" height="75.1652" fill="white" transform="translate(0.199219 0.723755)"/>
</clipPath>
</defs>
</svg>
