<svg width="24" height="22" viewBox="0 0 24 22" fill="none" xmlns="http://www.w3.org/2000/svg">
<path d="M17.1892 1.00048V1.00049H17.1949C20.3444 1.00049 23 3.73283 23 7.23369C23 8.70105 22.4033 10.2217 21.4035 11.7276C20.4071 13.2283 19.0554 14.6461 17.6587 15.8869C15.2106 18.0616 12.7138 19.6143 12.0009 20.0404C11.2914 19.6116 8.79323 18.039 6.34311 15.8521C4.94549 14.6046 3.59283 13.183 2.59582 11.6856C1.59462 10.182 1 8.67424 1 7.23369C1 3.73282 3.65559 1.00049 6.80503 1.00049V1.00057L6.81757 1.00041C8.49685 0.979344 10.1144 1.76358 11.2122 3.16746L11.9948 4.16829L12.7838 3.17246C13.8908 1.77523 15.5077 0.990926 17.1892 1.00048Z" stroke="#9698B4" stroke-width="2"/>
</svg>
