<svg width="24" height="22" viewBox="0 0 24 22" fill="none" xmlns="http://www.w3.org/2000/svg">
<path d="M1.71397 4.07206C2.22419 3.05162 3.05162 2.22419 4.07206 1.71397V1.71397C5.00315 1.24843 6.05121 1.0689 7.08416 1.19802L8.50871 1.37609C9.14055 1.45507 9.71055 1.79477 10.0807 2.31292L10.2289 2.52052C11.0844 3.71815 12.8738 3.6893 13.6902 2.46471V2.46471C13.8932 2.16018 14.1722 1.91391 14.4995 1.75023L15.0588 1.4706C15.6778 1.16112 16.3603 1 17.0523 1H17.1687C18.3504 1 19.4932 1.42274 20.3905 2.19181L20.7114 2.46692C21.8623 3.4534 22.6042 4.83342 22.7922 6.33752L22.8151 6.52094C22.9368 7.49461 22.8389 8.48318 22.5286 9.41408L22.3712 9.88632C22.1248 10.6255 21.781 11.3285 21.3488 11.9768L19.7652 14.3522C19.2575 15.1138 18.6476 15.8021 17.9526 16.3978L15.9615 18.1044C15.6545 18.3676 15.3233 18.601 14.9723 18.8016L12.9707 19.9453C12.3643 20.2918 11.6247 20.3124 11 20V20L8.82389 18.5493C8.27597 18.184 7.76547 17.7655 7.29983 17.2998L5 15L3.18221 12.8792C2.40271 11.9698 1.82219 10.9073 1.47801 9.76004L1.1982 8.82734C0.749724 7.33241 0.888657 5.72269 1.58665 4.32671L1.71397 4.07206Z" fill="#FA0026"/>
<path d="M17.1892 1.00048V1.00049H17.1949C20.3444 1.00049 23 3.73283 23 7.23369C23 8.70105 22.4033 10.2217 21.4035 11.7276C20.4071 13.2283 19.0554 14.6461 17.6587 15.8869C15.2106 18.0616 12.7138 19.6143 12.0009 20.0404C11.2914 19.6116 8.79323 18.039 6.34311 15.8521C4.94549 14.6046 3.59283 13.183 2.59582 11.6856C1.59462 10.182 1 8.67424 1 7.23369C1 3.73282 3.65559 1.00049 6.80503 1.00049V1.00057L6.81757 1.00041C8.49685 0.979348 10.1144 1.76358 11.2122 3.16746L11.9948 4.16829L12.7838 3.17246C13.8908 1.77523 15.5077 0.99093 17.1892 1.00048Z" stroke="#9698B4" stroke-width="2"/>
</svg>
