<svg width="60" height="57" viewBox="0 0 60 57" fill="none" xmlns="http://www.w3.org/2000/svg">
<path fill-rule="evenodd" clip-rule="evenodd" d="M30 57C46.5685 57 60 44.2401 60 28.5C60 12.7599 46.5685 0 30 0C13.4315 0 0 12.7599 0 28.5C0 44.2401 13.4315 57 30 57ZM30 22.4028C31.612 20.5842 33.9911 19.5401 36.4936 19.5528C41.1915 19.5528 45 23.1708 45 27.6338C45 35.3901 30.9494 42.7496 30.3797 43.0382C30.1498 43.1841 29.8501 43.1841 29.6203 43.0382C29.0506 42.7496 15 35.2819 15 27.6338C15 23.1708 18.8084 19.5528 23.5063 19.5528C26.0123 19.5247 28.398 20.5718 30 22.4028Z" fill="#EAF0FC"/>
</svg>
