<svg width="18" height="18" viewBox="0 0 18 18" fill="none" xmlns="http://www.w3.org/2000/svg">
<path d="M16.519 6.23019C16.8083 6.27046 17.0739 6.41229 17.2682 6.63035C17.7204 7.13775 17.6756 7.91565 17.1681 8.36778L13.7638 11.4033L14.4632 16.1684C14.5087 16.4733 14.4378 16.7841 14.2646 17.0391C13.8837 17.6004 13.1198 17.7465 12.5585 17.3656L9.08011 14.9979L5.60169 17.3632C5.20057 17.6412 4.67167 17.651 4.26048 17.3881C3.84343 17.1316 3.62126 16.6497 3.69703 16.166L4.39653 11.4027L0.992173 8.36721C0.774094 8.17291 0.632253 7.9074 0.591981 7.61812C0.498275 6.94499 0.968053 6.32329 1.64125 6.22959L6.15973 5.60547L7.94781 1.33329C8.07225 1.03519 8.30929 0.798206 8.60742 0.673738C9.23277 0.412671 9.9514 0.707958 10.2125 1.33329L12.0006 5.60547L16.519 6.23019Z" fill="#BFBFC8" fill-opacity="0.2"/>
</svg>
