<svg width="21" height="28" viewBox="0 0 21 28" fill="none" xmlns="http://www.w3.org/2000/svg">
<path d="M20.0645 8.94981H7.74266L13.2605 3.43195C13.5653 3.12715 13.5653 2.63295 13.2605 2.3281L11.8623 0.929901C11.1511 0.218679 9.99798 0.218679 9.2867 0.929901L7.84906 2.36759L7.11313 1.63165C6.30164 0.820114 4.98113 0.820166 4.16959 1.63165L1.29962 4.50162C0.488082 5.31316 0.488082 6.63367 1.29962 7.44521L2.03551 8.18115L0.59787 9.61879C-0.113352 10.33 -0.113352 11.4831 0.59787 12.1944L1.99607 13.5926C2.30082 13.8974 2.79507 13.8975 3.09987 13.5926L5.07817 11.6143V23.6553C5.07817 25.5233 6.5925 27.0376 8.46049 27.0376H16.6821C18.5501 27.0376 20.0645 25.5233 20.0645 23.6553V8.94981ZM3.13936 7.07724L2.40348 6.34136C2.2006 6.13849 2.2006 5.80834 2.40348 5.60542L5.27344 2.73545C5.47637 2.53253 5.80651 2.53258 6.00933 2.73545L6.74521 3.47139L3.13936 7.07724ZM9.87919 22.6666C9.87919 23.0977 9.52974 23.4471 9.09866 23.4471C8.66758 23.4471 8.31813 23.0977 8.31813 22.6666V13.3208C8.31813 12.8898 8.66758 12.5403 9.09866 12.5403C9.52974 12.5403 9.87919 12.8898 9.87919 13.3208V22.6666ZM13.3518 22.6666C13.3518 23.0977 13.0024 23.4471 12.5713 23.4471C12.1402 23.4471 11.7908 23.0977 11.7908 22.6666V13.3208C11.7908 12.8898 12.1402 12.5403 12.5713 12.5403C13.0024 12.5403 13.3518 12.8898 13.3518 13.3208V22.6666ZM16.8245 22.6666C16.8245 23.0977 16.475 23.4471 16.044 23.4471C15.6129 23.4471 15.2634 23.0977 15.2634 22.6666V13.3208C15.2634 12.8898 15.6129 12.5403 16.044 12.5403C16.475 12.5403 16.8245 12.8898 16.8245 13.3208V22.6666Z" fill="#FA0026"/>
</svg>
