<svg width="1000" height="1200" viewBox="0 0 1000 1200" fill="none" xmlns="http://www.w3.org/2000/svg">
<rect x="20" width="960" height="1200" rx="30" fill="url(#paint0_linear)"/>
<path d="M670.254 228.003C665.86 228.242 662.491 231.99 662.729 236.375C662.968 240.76 666.723 244.122 671.117 243.883C675.511 243.644 678.88 239.896 678.642 235.511C678.403 231.126 674.648 227.764 670.254 228.003Z" fill="#D0CDE1"/>
<path d="M650.027 116.729C648.074 116.835 646.577 118.501 646.683 120.45C646.789 122.399 648.458 123.893 650.41 123.787C652.363 123.681 653.861 122.015 653.755 120.066C653.649 118.117 651.98 116.623 650.027 116.729Z" fill="#D0CDE1"/>
<path d="M846.967 102.498C845.014 102.604 843.517 104.27 843.623 106.219C843.729 108.168 845.397 109.662 847.35 109.556C849.303 109.45 850.801 107.784 850.695 105.835C850.589 103.886 848.92 102.392 846.967 102.498Z" fill="#D0CDE1"/>
<path d="M200.254 230.003C195.86 230.242 192.491 233.99 192.729 238.375C192.967 242.76 196.723 246.122 201.117 245.883C205.511 245.644 208.88 241.896 208.642 237.511C208.403 233.126 204.648 229.764 200.254 230.003Z" fill="#D0CDE1"/>
<path d="M180.027 118.729C178.074 118.835 176.577 120.501 176.683 122.45C176.789 124.399 178.458 125.893 180.41 125.787C182.363 125.681 183.861 124.015 183.755 122.066C183.649 120.117 181.98 118.623 180.027 118.729Z" fill="#D0CDE1"/>
<path d="M376.967 104.498C375.014 104.604 373.517 106.27 373.623 108.219C373.729 110.168 375.397 111.662 377.35 111.556C379.303 111.45 380.801 109.784 380.695 107.835C380.589 105.886 378.92 104.392 376.967 104.498Z" fill="#D0CDE1"/>
<path d="M362.266 237.628C359.547 234.168 354.544 233.562 351.091 236.275C347.637 238.988 347.041 243.992 349.76 247.453C352.478 250.913 357.482 251.519 360.935 248.806C364.388 246.093 364.984 241.089 362.266 237.628Z" fill="#D0CDE1"/>
<path d="M441.751 157.173C440.543 155.635 438.319 155.366 436.784 156.571C435.25 157.777 434.985 160.001 436.193 161.539C437.401 163.077 439.625 163.346 441.16 162.141C442.694 160.935 442.959 158.711 441.751 157.173Z" fill="#D0CDE1"/>
<path d="M701.113 189.843C699.905 188.305 697.681 188.035 696.147 189.241C694.612 190.447 694.347 192.671 695.555 194.209C696.763 195.747 698.987 196.016 700.522 194.811C702.057 193.605 702.322 191.381 701.113 189.843Z" fill="#D0CDE1"/>
<path d="M566.489 310.236C565.281 308.698 563.057 308.428 561.522 309.634C559.988 310.84 559.723 313.064 560.931 314.602C562.139 316.14 564.363 316.409 565.898 315.203C567.433 313.998 567.697 311.774 566.489 310.236Z" fill="#D0CDE1"/>
<path d="M579.476 315.5C521.902 313.242 466.993 318.856 415.164 295.839C363.336 272.823 312.055 247.333 256.116 235.136C220.132 227.293 178.782 226.187 149.076 248.115C120.505 269.18 110.494 305.652 104.767 339.453C100.454 364.88 97.6197 391.621 107.055 415.456C113.613 431.987 125.648 445.884 133.814 461.714C162.211 516.805 139.444 584.748 105.762 638.535C90.0059 663.773 71.7889 687.842 59.4203 714.699C47.0517 741.556 42.2216 811.445 51.7496 838.842C61.2041 866.005 83.3217 898.21 109.124 912.556C161.538 941.698 223.962 950.045 284.919 954.767C419.855 965.218 537.04 957.541 672.714 953.008C722.926 951.326 765.506 947.952 815.086 939.183C842.609 934.317 875.022 923.367 895.385 904.704C921.246 881.013 960.505 838.333 935.285 768.306C909.947 709.031 829.977 706.109 811.492 652.638C801.315 623.208 813.365 590.415 829.929 563.126C865.466 504.563 923.845 453.187 928.551 386.26C931.786 340.29 905.514 294.247 863.646 272.499C819.751 249.698 758.021 252.567 724.253 290.308C689.51 329.2 630.311 317.497 579.476 315.5Z" fill="#DDF7FF"/>
<path d="M75.7362 420.636C79.3155 422.881 84.0327 421.804 86.2723 418.232C88.512 414.66 87.426 409.945 83.8467 407.701C80.2675 405.457 75.5503 406.533 73.3107 410.105C71.071 413.677 72.157 418.392 75.7362 420.636Z" fill="#D0CDE1"/>
<path d="M30.0338 519.127C31.6245 520.125 33.721 519.646 34.7164 518.059C35.7118 516.471 35.2292 514.376 33.6385 513.378C32.0477 512.381 29.9512 512.859 28.9558 514.447C27.9604 516.034 28.443 518.13 30.0338 519.127Z" fill="#D0CDE1"/>
<path d="M96.2727 919.071C97.8635 920.069 99.96 919.59 100.955 918.003C101.951 916.415 101.468 914.32 99.8774 913.322C98.2866 912.325 96.1901 912.803 95.1947 914.391C94.1993 915.978 94.682 918.074 96.2727 919.071Z" fill="#D0CDE1"/>
<path d="M22.7126 368.708C24.2108 368.87 25.5564 367.789 25.7182 366.294C25.8799 364.799 24.7966 363.456 23.2984 363.293C21.8003 363.131 20.4547 364.212 20.2929 365.707C20.1312 367.202 21.2145 368.546 22.7126 368.708Z" fill="#D0CDE1"/>
<path d="M137.234 655.864C139.1 656.066 140.777 654.72 140.979 652.857C141.18 650.994 139.83 649.32 137.964 649.118C136.097 648.916 134.42 650.263 134.219 652.126C134.017 653.989 135.367 655.663 137.234 655.864Z" fill="#D0CDE1"/>
<path d="M266.582 754.516C265.748 758.631 221.934 758.285 222 754.515C222.835 750.401 266.649 750.746 266.582 754.516Z" fill="#3F3D56"/>
<path d="M261.178 737.019C261.303 749.864 253.711 754.424 244.291 754.515C244.073 754.518 243.855 754.517 243.638 754.514C243.201 754.509 242.769 754.494 242.341 754.467C233.834 753.948 227.183 749.298 227.066 737.352C226.946 724.989 242.594 709.233 243.768 708.068L243.77 708.067C243.815 708.022 243.838 708 243.838 708C243.838 708 261.053 724.174 261.178 737.019Z" fill="#90EB71"/>
<path d="M60.3842 879.794C59.0638 886.304 -10.2569 885.758 -10.1519 879.793C-8.83144 873.283 60.4893 873.829 60.3842 879.794Z" fill="#3F3D56"/>
<path d="M51.8337 852.111C52.0319 872.435 40.019 879.648 25.1163 879.793C24.7701 879.797 24.4255 879.796 24.0826 879.792C23.3918 879.784 22.7081 879.759 22.0314 879.717C8.57187 878.896 -1.95172 871.539 -2.13611 852.638C-2.32692 833.078 22.4314 808.149 24.2884 806.306L24.2917 806.304C24.3622 806.234 24.3983 806.199 24.3983 806.199C24.3983 806.199 51.6354 831.789 51.8337 852.111Z" fill="#90EB71"/>
<path d="M222 891.5C218.48 913.062 33.7203 911.252 34.0003 891.499C37.5196 869.938 222.28 871.748 222 891.5Z" fill="#3F3D56"/>
<path d="M163 807.967L170.251 824L183.541 822.767L192 794.4L178.708 787L163 807.967Z" fill="#FFB8B8"/>
<path d="M116.279 845.197L116 856.727L136 858V844L116.279 845.197Z" fill="#FFB8B8"/>
<path d="M123.309 640.33L128.181 739.357L116 847.049L152.545 852L175.691 715.839L183 623L123.309 640.33Z" fill="#2F2E41"/>
<path d="M64.552 603.968C64.552 603.968 49.746 702.174 80.5918 734.495C111.438 766.817 153.388 824 153.388 824L183 786.706L107.736 705.904L122.542 651.206L183 622.615L173.129 554.243L84.2933 553L64.552 603.968Z" fill="#2F2E41"/>
<path d="M137.5 378C152.688 378 165 365.688 165 350.5C165 335.312 152.688 323 137.5 323C122.312 323 110 335.312 110 350.5C110 365.688 122.312 378 137.5 378Z" fill="#FFB8B8"/>
<path d="M113.56 356C113.56 356 112.285 394.196 105.907 399.125C99.5296 404.054 128.867 425 128.867 425L148 395.429V368.321L113.56 356Z" fill="#FFB8B8"/>
<path d="M126.131 407.771L111.005 385L102.458 396.592L90 431.371L99.9673 566.758L158.524 568L166 412.739L147.311 390.382L126.131 407.771Z" fill="#FFD967"/>
<path d="M189.647 418.235L199.765 417C199.765 417 202.294 418.235 203.559 426.882C204.824 435.529 220 512.118 220 512.118L199.765 606L177 576.353L190.912 524.471L177 472.588L189.647 418.235Z" fill="#2F2E41"/>
<path d="M63.0908 417H55.6356L37 516.562L54.3935 594L71.7869 565.729L66.8172 535L69.3027 507.959L78 491.979L63.0908 417Z" fill="#2F2E41"/>
<path d="M173.62 819.043C173.62 819.043 166 816.595 166 821.49C166 826.386 171.08 841.071 171.08 841.071C171.08 841.071 163.46 886.352 174.89 883.904C186.321 881.457 195.211 860.652 196.481 854.533C197.752 848.414 204.102 816.595 204.102 816.595C204.102 816.595 214.262 793.343 207.912 792.119C201.562 790.895 183.781 786 183.781 786C183.781 786 193.941 816.595 173.62 819.043Z" fill="#2F2E41"/>
<path d="M137.055 857.316C137.055 857.316 117.909 844.937 114.319 854.84C111.938 862.064 110.332 869.537 109.532 877.124C109.532 877.124 104.745 893.217 123.892 890.741C143.038 888.265 140.645 888.265 141.842 880.837C143.038 873.409 137.055 857.316 137.055 857.316Z" fill="#2F2E41"/>
<path d="M121.208 350.018L126.11 348.785C126.11 348.785 129.786 327.835 138.364 330.3C146.942 332.765 169 335.23 169 325.371C169 315.512 148.168 306.885 135.913 308.118C123.659 309.35 102.826 313.047 104.052 331.532C105.277 350.018 113.185 368 113.185 368L113.823 357.04L121.208 350.018Z" fill="#2F2E41"/>
<path d="M147.526 423L126 408.692L147.526 392L155 400.443L147.526 423Z" fill="#FFD967"/>
<path d="M107.842 421L126 408.103L111.474 387L103 397.552L107.842 421Z" fill="#FFD967"/>
<path d="M198 415.772L158.077 399.584L148.719 392.736L120.648 516.634L101.934 460.599L107.548 389L55.7727 415.772L73.2393 500.446L75.7345 532.821L68.2488 558.971C68.2488 558.971 42.049 577.649 50.7823 597.572C59.5156 617.495 69.4964 618.74 69.4964 618.74C69.4964 618.74 111.915 578.894 114.41 568.932C116.906 558.97 120.648 541.538 120.648 541.538C120.648 541.538 141.858 621.231 166.81 619.986C191.762 618.74 191.762 592.591 191.762 592.591L185.524 565.197L175.543 536.557L180.534 489.239L198 415.772Z" fill="#2F2E41"/>
<path d="M988.973 717.812C990.63 718.851 992.814 718.353 993.85 716.699C994.887 715.046 994.385 712.863 992.728 711.824C991.071 710.785 988.887 711.283 987.85 712.937C986.813 714.591 987.316 716.773 988.973 717.812Z" fill="#D0CDE1"/>
<path d="M981.981 306.539C983.638 307.577 985.809 307.1 986.83 305.471C987.851 303.843 987.336 301.68 985.679 300.641C984.022 299.602 981.851 300.08 980.83 301.709C979.809 303.337 980.324 305.5 981.981 306.539Z" fill="#D0CDE1"/>
<path d="M728.331 361.109C729.988 362.148 732.159 361.67 733.18 360.042C734.201 358.413 733.685 356.251 732.028 355.212C730.371 354.173 728.2 354.651 727.179 356.279C726.158 357.908 726.674 360.07 728.331 361.109Z" fill="#D0CDE1"/>
<path d="M1052.01 892.066C1046.85 917.497 776.083 915.362 776.493 892.065C781.651 866.635 1052.42 868.77 1052.01 892.066Z" fill="#3F3D56"/>
<path d="M901.795 456.683C912.238 456.683 920.704 448.217 920.704 437.774C920.704 427.331 912.238 418.865 901.795 418.865C891.351 418.865 882.886 427.331 882.886 437.774C882.886 448.217 891.351 456.683 901.795 456.683Z" fill="#F88600"/>
<path d="M882.912 430.086L894.747 427.185C899.265 427.185 903.727 426.181 907.809 424.245C911.891 422.309 915.491 419.49 918.35 415.991C921.208 412.493 923.253 408.403 924.337 404.017C925.421 399.631 925.516 395.059 924.616 390.632C924.616 380.066 920.418 369.932 912.947 362.461C905.476 354.99 895.343 350.793 884.777 350.793H884.776C879.545 350.793 874.364 351.823 869.531 353.825C864.697 355.827 860.305 358.762 856.606 362.461C852.907 366.161 849.972 370.552 847.97 375.386C845.968 380.219 844.937 385.4 844.937 390.632V390.632C843.413 395.963 843.315 401.601 844.654 406.981C845.993 412.362 848.721 417.296 852.566 421.291C856.411 425.286 861.238 428.201 866.563 429.745C871.889 431.288 877.527 431.406 882.912 430.086Z" fill="#F88600"/>
<path d="M959.039 551.271L929.78 509.628L913.896 539.127L932.049 560.305L959.039 551.271Z" fill="#FFD967"/>
<path d="M943.773 547.068C943.773 547.068 952.849 543.286 958.143 550.094C963.438 556.901 972.514 571.272 969.489 573.541C966.463 575.81 956.631 566.734 956.631 566.734L943.773 547.068Z" fill="#FFD967"/>
<path d="M968.806 583.974C971.746 581.63 970.54 575.229 966.114 569.676C961.687 564.123 955.715 561.521 952.776 563.865C949.836 566.208 951.041 572.61 955.468 578.162C959.894 583.715 965.866 586.317 968.806 583.974Z" fill="#FFB8B8"/>
<path d="M973.271 652.203C973.271 652.203 971.758 700.61 966.464 728.595C961.169 756.581 969.489 857.177 969.489 857.177L952.849 864.74L942.26 853.395C942.26 853.395 946.042 832.973 940.747 818.602C935.453 804.231 933.184 742.21 933.184 742.21L924.107 659.01L973.271 652.203Z" fill="#FFB8B8"/>
<path d="M911.249 666.573L863.598 753.555L820.486 832.973V849.613L798.551 842.805L806.115 825.409C806.115 825.409 809.897 757.337 837.126 730.864L860.573 663.548L911.249 666.573Z" fill="#FFB8B8"/>
<path d="M939.613 549.715H947.933C947.933 549.715 993.314 611.737 991.045 649.555L925.998 676.028L923.729 670.733C923.729 670.733 870.027 680.566 856.413 669.22L875.322 572.406L876.835 558.792L939.613 549.715Z" fill="#FA0026"/>
<path d="M960.413 856.42C960.413 856.42 949.824 842.805 962.682 842.049C975.54 841.293 975.54 849.613 975.54 849.613L1004.28 869.278C1004.28 869.278 1051.93 886.674 1017.9 891.969C1017.9 891.969 1003.53 894.994 985.373 888.187C974.47 884.093 962.975 881.794 951.336 881.38C951.336 881.38 934.696 880.623 934.696 872.303C934.696 863.984 942.814 849.613 942.814 849.613C942.814 849.613 955.874 858.689 960.413 856.42Z" fill="#FA0026"/>
<path d="M797.039 837.511C797.039 837.511 822.755 832.216 823.511 842.049C824.268 851.882 823.511 868.522 823.511 868.522C823.511 868.522 817.46 876.085 818.973 881.38C820.486 886.674 815.191 903.314 797.039 901.045C778.886 898.776 784.937 873.06 784.937 873.06L797.039 843.562V837.511Z" fill="#FA0026"/>
<path d="M879.482 419.621C893.476 419.621 904.82 408.277 904.82 394.283C904.82 380.289 893.476 368.945 879.482 368.945C865.488 368.945 854.144 380.289 854.144 394.283C854.144 408.277 865.488 419.621 879.482 419.621Z" fill="#FFB8B8"/>
<path d="M896.5 408.276L896.878 451.767L865.868 441.178C865.868 441.178 869.649 416.218 868.893 413.949L896.5 408.276Z" fill="#FFB8B8"/>
<path d="M902.173 438.909C902.173 438.909 869.649 427.563 865.868 429.076C862.086 430.589 860.573 438.909 860.573 438.909C860.573 438.909 842.42 435.127 840.151 447.229C837.882 459.331 854.522 512.276 854.522 512.276L871.162 543.287C871.162 543.287 862.842 556.145 877.213 560.683C891.584 565.221 943.773 550.85 943.773 550.85C943.773 550.85 952.849 540.261 943.773 540.261C943.773 540.261 940.747 530.428 937.722 528.159C934.696 525.89 939.991 522.108 936.965 521.352C933.94 520.596 933.94 519.083 933.94 519.083C933.94 519.083 949.067 498.661 935.453 482.021C921.838 465.381 919.947 449.876 913.14 447.607C906.333 445.338 902.173 438.909 902.173 438.909Z" fill="#FFD967"/>
<path d="M897.825 617.329C899.239 613.846 895.051 608.857 888.471 606.186C881.891 603.515 875.411 604.174 873.997 607.658C872.583 611.141 876.771 616.13 883.351 618.801C889.931 621.472 896.411 620.813 897.825 617.329Z" fill="#FFB8B8"/>
<path d="M851.497 444.96H840.833C840.833 444.96 809.897 519.839 818.973 543.287C828.049 566.734 861.329 607.577 861.329 607.577C861.329 607.577 871.918 626.486 879.482 626.486C887.046 626.486 895.366 599.257 895.366 599.257L871.162 588.668L842.42 535.723L856.035 494.879L851.497 444.96Z" fill="#FFD967"/>
<path opacity="0.2" d="M934.318 518.705L950.958 548.203L947.933 549.716L934.318 518.705Z" fill="black"/>
<path opacity="0.2" d="M902.511 585.08L901.045 585.457L923.013 670.917L924.479 670.541L902.511 585.08Z" fill="black"/>
<path d="M848.849 384.073L853.388 375.753L860.195 380.317C860.895 381.283 861.819 382.065 862.887 382.596C863.955 383.128 865.136 383.393 866.329 383.369L890.096 382.889C891.163 382.867 892.214 382.628 893.186 382.186C894.157 381.744 895.027 381.108 895.744 380.317C897.612 381.009 899.286 382.143 900.623 383.62C901.96 385.098 902.921 386.876 903.424 388.804L906.333 399.956V362.138H860.951L848.849 384.073Z" fill="#F88600"/>
<path d="M745.129 827.231C743.973 832.932 683.279 832.453 683.371 827.231C684.528 821.531 745.221 822.009 745.129 827.231Z" fill="#3F3D56"/>
<path d="M737.642 802.994C737.816 820.788 727.298 827.104 714.25 827.231C713.947 827.234 713.645 827.233 713.345 827.23C712.74 827.222 712.142 827.201 711.549 827.164C699.765 826.446 690.551 820.004 690.39 803.455C690.222 786.329 711.899 764.504 713.525 762.89L713.528 762.888C713.59 762.827 713.622 762.796 713.622 762.796C713.622 762.796 737.469 785.201 737.642 802.994Z" fill="#90EB71"/>
<defs>
<linearGradient id="paint0_linear" x1="1276.5" y1="1015" x2="226.873" y2="89.6138" gradientUnits="userSpaceOnUse">
<stop stop-color="#C1F0FF"/>
<stop offset="0.981573" stop-color="#030094"/>
</linearGradient>
</defs>
</svg>
