<svg width="355" height="752" viewBox="0 0 355 752" fill="none" xmlns="http://www.w3.org/2000/svg">
<path d="M0 22.7543C0 10.1874 10.1874 0 22.7543 0H332.246C344.813 0 355 10.1874 355 22.7543V729.246C355 741.812 344.813 752 332.246 752H22.7543C10.1875 752 0 741.812 0 729.246V22.7543Z" fill="url(#paint0_linear)"/>
<mask id="mask0" mask-type="alpha" maskUnits="userSpaceOnUse" x="0" y="0" width="355" height="740">
<path d="M0 22.7543C0 10.1874 10.1874 0 22.7543 0H332.246C344.813 0 355 10.1874 355 22.7543V717.246C355 729.813 344.813 740 332.246 740H22.7543C10.1875 740 0 729.813 0 717.246V22.7543Z" fill="url(#paint1_linear)"/>
</mask>
<g mask="url(#mask0)">
<path d="M286.665 170.011C290.777 172.589 295.657 172.214 297.563 169.174C299.47 166.133 297.682 161.578 293.569 159C289.457 156.421 284.578 156.796 282.672 159.837C280.765 162.878 282.553 167.433 286.665 170.011Z" fill="#D0CDE1"/>
<path d="M355.394 439.593C357.539 439.825 359.356 439.289 359.452 438.396C359.549 437.504 357.889 436.592 355.744 436.36C353.6 436.128 351.783 436.663 351.686 437.556C351.589 438.449 353.25 439.361 355.394 439.593Z" fill="#D0CDE1"/>
<path d="M452.291 712.555C448.248 734.167 235.981 732.352 236.302 712.554C240.346 690.944 452.613 692.758 452.291 712.555Z" fill="#3F3D56"/>
<path d="M330.83 661.242L330.51 670.746L353.488 671.795V660.255L330.83 661.242Z" fill="#FFB8B8"/>
<path d="M338.907 425.92L344.505 537.725L330.51 659.313L372.496 664.903L399.088 511.172L407.485 406.353L338.907 425.92Z" fill="#2F2E41"/>
<path d="M271.402 383.633C271.402 383.633 254.392 494.814 289.83 531.405C325.268 567.996 373.464 632.734 373.464 632.734L407.485 590.513L321.016 499.036L338.026 437.112L407.485 404.743L396.145 327.339L294.083 325.932L271.402 383.633Z" fill="#2F2E41"/>
<path d="M345.341 124.877C327.892 124.877 313.747 111.749 313.747 95.555C313.747 79.3609 327.892 66.2329 345.341 66.2329C362.79 66.2329 376.936 79.3609 376.936 95.555C376.936 111.749 362.79 124.877 345.341 124.877Z" fill="#FFB8B8"/>
<path d="M327.708 99.6023C327.708 99.6023 326.243 140.97 318.916 146.308C311.588 151.645 345.294 174.331 345.294 174.331L367.275 142.304V112.947L327.708 99.6023Z" fill="#FFB8B8"/>
<path d="M342.15 158.515L324.772 132.919L314.953 145.949L300.64 185.042L312.091 337.224L379.365 338.62L387.954 164.099L366.483 138.969L342.15 158.515Z" fill="#FFD967"/>
<path d="M269.724 169.684H261.159L239.749 281.513L259.732 368.491L279.715 336.737L274.005 302.222L276.861 271.849L286.853 253.9L269.724 169.684Z" fill="#2F2E41"/>
<path d="M354.7 674.837C354.7 674.837 332.703 662.02 328.578 672.273C325.843 679.752 323.999 687.488 323.079 695.343C323.079 695.343 317.58 712.004 339.577 709.441C361.574 706.877 358.824 706.877 360.199 699.188C361.574 691.498 354.7 674.837 354.7 674.837Z" fill="#2F2E41"/>
<path d="M364.058 94.0912L358.427 92.7687C358.427 92.7687 354.203 70.2863 344.348 72.9312C334.493 75.5762 309.151 78.2213 309.151 67.6413C309.151 57.0612 333.085 47.8038 347.164 49.1263C361.242 50.4488 385.176 54.4163 383.769 74.2537C382.361 94.0911 373.276 113.389 373.276 113.389L372.542 101.627L364.058 94.0912Z" fill="#2F2E41"/>
<path d="M366.729 172.033L341.999 157.692L366.729 140.962L375.316 149.425L366.729 172.033Z" fill="#FFD967"/>
<path d="M321.138 169.735L341.999 156.641L325.311 135.217L315.575 145.929L321.138 169.735Z" fill="#FFD967"/>
<path d="M424.718 167.746L378.851 149.467L368.101 141.734L335.851 281.64L314.35 218.366L320.8 137.515L261.316 167.746L281.383 263.361L284.25 299.92L275.65 329.448C275.65 329.448 245.549 350.539 255.583 373.037C265.616 395.534 277.083 396.94 277.083 396.94C277.083 396.94 325.817 351.945 328.684 340.696C331.551 329.448 335.851 309.762 335.851 309.762C335.851 309.762 360.218 399.752 388.885 398.346C417.552 396.94 417.552 367.412 417.552 367.412L410.385 336.478L398.918 304.138L404.652 250.706L424.718 167.746Z" fill="#2F2E41"/>
<path d="M36.7982 233.964C36.792 233.294 36.2449 232.756 35.5761 232.762C34.9074 232.768 34.3703 233.316 34.3765 233.986C34.3827 234.656 34.9298 235.195 35.5986 235.188C36.2673 235.182 36.8044 234.634 36.7982 233.964Z" fill="#D0CDE1"/>
<path d="M80.7311 73.9922C80.7249 73.3221 80.1778 72.7839 79.509 72.7901C78.8403 72.7963 78.3031 73.3445 78.3093 74.0146C78.3155 74.6847 78.8627 75.2229 79.5314 75.2167C80.2002 75.2105 80.7373 74.6623 80.7311 73.9922Z" fill="#D0CDE1"/>
<path d="M141.493 32.3203C141.486 31.6502 140.939 31.112 140.271 31.1182C139.602 31.1244 139.065 31.6726 139.071 32.3427C139.077 33.0128 139.624 33.551 140.293 33.5448C140.962 33.5387 141.499 32.9904 141.493 32.3203Z" fill="#D0CDE1"/>
<path d="M79.7744 36.8341C79.7682 36.164 79.2211 35.6258 78.5523 35.632C77.8836 35.6382 77.3465 36.1864 77.3527 36.8565C77.3589 37.5266 77.906 38.0648 78.5748 38.0586C79.2435 38.0524 79.7806 37.5042 79.7744 36.8341Z" fill="#D0CDE1"/>
<path d="M6.10993 51.0492C7.33631 50.172 7.62082 48.4687 6.74541 47.2448C5.87 46.0209 4.16617 45.7399 2.93979 46.617C1.71342 47.4942 1.4289 49.1975 2.30431 50.4214C3.17972 51.6453 4.88356 51.9264 6.10993 51.0492Z" fill="#D0CDE1"/>
<path d="M32.4248 79.4966C32.9698 79.1068 33.0962 78.3498 32.7072 77.8058C32.3181 77.2619 31.5609 77.1369 31.0158 77.5268C30.4708 77.9166 30.3443 78.6736 30.7334 79.2176C31.1225 79.7615 31.8797 79.8865 32.4248 79.4966Z" fill="#D0CDE1"/>
<path d="M17.2449 167.772C17.7899 167.382 17.9164 166.625 17.5273 166.081C17.1382 165.537 16.381 165.412 15.8359 165.802C15.2909 166.192 15.1644 166.949 15.5535 167.493C15.9425 168.037 16.6998 168.162 17.2449 167.772Z" fill="#D0CDE1"/>
<path d="M173.441 111.881C173.986 111.491 174.113 110.734 173.723 110.19C173.334 109.646 172.577 109.521 172.032 109.911C171.487 110.301 171.361 111.058 171.75 111.602C172.139 112.146 172.896 112.271 173.441 111.881Z" fill="#D0CDE1"/>
<path d="M255.296 18.3298C255.892 18.6369 256.623 18.404 256.93 17.8095C257.236 17.2151 257.002 16.4843 256.406 16.1772C255.811 15.8701 255.079 16.1031 254.773 16.6975C254.466 17.292 254.701 18.0228 255.296 18.3298Z" fill="#D0CDE1"/>
<path d="M169.821 45.1071C170.417 45.4141 171.148 45.1812 171.455 44.5868C171.761 43.9923 171.527 43.2615 170.931 42.9545C170.336 42.6474 169.604 42.8803 169.298 43.4747C168.991 44.0692 169.226 44.8 169.821 45.1071Z" fill="#D0CDE1"/>
<path d="M290.834 158.585C291.429 158.892 292.161 158.659 292.467 158.064C292.774 157.47 292.539 156.739 291.943 156.432C291.348 156.125 290.617 156.358 290.31 156.952C290.004 157.547 290.238 158.278 290.834 158.585Z" fill="#D0CDE1"/>
<path d="M299.353 231.769C299.949 232.076 300.68 231.843 300.987 231.248C301.293 230.654 301.059 229.923 300.463 229.616C299.868 229.309 299.136 229.542 298.83 230.136C298.523 230.731 298.758 231.462 299.353 231.769Z" fill="#D0CDE1"/>
<path d="M324.148 175.07C324.744 175.377 325.475 175.144 325.782 174.55C326.088 173.955 325.854 173.224 325.258 172.917C324.663 172.61 323.931 172.843 323.625 173.438C323.318 174.032 323.553 174.763 324.148 175.07Z" fill="#D0CDE1"/>
<path d="M308.496 113.287C308.587 113.951 309.198 114.416 309.86 114.326C310.523 114.235 310.987 113.624 310.896 112.96C310.805 112.296 310.195 111.831 309.532 111.921C308.869 112.012 308.406 112.623 308.496 113.287Z" fill="#D0CDE1"/>
<path d="M237.492 58.6851C237.583 59.3491 238.194 59.814 238.856 59.7236C239.519 59.6332 239.983 59.0216 239.892 58.3576C239.801 57.6937 239.191 57.2287 238.528 57.3191C237.865 57.4096 237.402 58.0211 237.492 58.6851Z" fill="#D0CDE1"/>
<path d="M214.076 222.919C214.167 223.583 214.777 224.048 215.44 223.957C216.103 223.867 216.566 223.255 216.476 222.592C216.385 221.928 215.774 221.463 215.112 221.553C214.449 221.643 213.985 222.255 214.076 222.919Z" fill="#D0CDE1"/>
<path d="M298.149 46.4271C298.24 47.091 298.85 47.556 299.513 47.4656C300.176 47.3751 300.639 46.7635 300.549 46.0996C300.458 45.4356 299.848 44.9707 299.185 45.0611C298.522 45.1515 298.059 45.7631 298.149 46.4271Z" fill="#D0CDE1"/>
</g>
<defs>
<linearGradient id="paint0_linear" x1="464.643" y1="636.067" x2="-58.5625" y2="403.288" gradientUnits="userSpaceOnUse">
<stop stop-color="#C1F0FF"/>
<stop offset="0.162552" stop-color="#BBE8FB"/>
<stop offset="0.215265" stop-color="#ABD4F2"/>
<stop offset="0.981573" stop-color="#030094"/>
</linearGradient>
<linearGradient id="paint1_linear" x1="464.643" y1="625.917" x2="-55.751" y2="390.634" gradientUnits="userSpaceOnUse">
<stop stop-color="#C1F0FF"/>
<stop offset="0.162552" stop-color="#BBE8FB"/>
<stop offset="0.215265" stop-color="#ABD4F2"/>
<stop offset="0.981573" stop-color="#030094"/>
</linearGradient>
</defs>
</svg>
