<svg width="42" height="41" viewBox="0 0 42 41" fill="none" xmlns="http://www.w3.org/2000/svg">
<g clip-path="url(#clip0)">
<path d="M21.0658 6.48792V35.5847H39.3161L40.3897 15.746L38.2426 6.48792H21.0658Z" fill="#0E23B1"/>
<path d="M9.6645 12.3119C9.08303 13.1255 9.08307 13.1255 9.08314 13.1256L9.0835 13.1258L9.0849 13.1268L9.0905 13.1308L9.11261 13.1467L9.19902 13.2084L9.52794 13.4435L10.71 14.2886C11.6928 14.9913 13.0143 15.9362 14.3688 16.9054C17.0815 18.8462 19.9174 20.877 20.4424 21.2601L21.0304 21.6892L21.6194 21.2615L21.0319 20.4523C21.6194 21.2615 21.6195 21.2614 21.6196 21.2613L21.6203 21.2609L21.6229 21.2589L21.6335 21.2513L21.675 21.2211L21.8372 21.1034L22.452 20.6569L24.6424 19.0665L31.2521 14.2674L37.7596 9.54284L38.8886 8.72336V21.9312V35.5136L37.1672 35.8886H5.06846L3.17518 35.5025V21.5715L3.17513 8.7527C3.71263 9.15096 4.33373 9.61091 4.96676 10.0796C5.9627 10.8169 6.98846 11.576 7.76522 12.1507L8.70879 12.8488L8.97518 13.0459L9.04559 13.098L9.06368 13.1114L9.06826 13.1147L9.06941 13.1156L9.0697 13.1158C9.06976 13.1159 9.0698 13.1159 9.6645 12.3119ZM9.6645 12.3119L9.08303 13.1255L9.07637 13.1208L9.0698 13.1159L9.6645 12.3119Z" stroke="white" stroke-width="2"/>
<path d="M3.37891 6.13892H38.85" stroke="white" stroke-width="2.2"/>
<path d="M31.3162 15.9069C31.271 15.94 31.2168 15.9799 31.1665 16.0168C31.1339 16.0409 31.1988 15.9931 31.3162 15.9069Z" fill="#00A66C"/>
<path d="M21 23.375V36.9071H3.81143C1.77517 36.9071 0.131592 35.2451 0.131592 33.1865V8.38261C0.131592 8.28331 0.131592 8.18409 0.156124 8.08496L21 23.375Z" fill="white"/>
<path d="M41.9744 8.48068C17.7032 26.3135 45.4501 5.86685 21.0647 23.7836C18.9351 22.2189 28.6977 29.4519 0.15505 8.48068C-0.00113274 6.70833 1.73571 5 3.67368 5L11.4022 10.8613L21.0647 17.7778L29.6525 11.5226L38.8489 5C40.7868 5 41.9989 6.70833 41.9744 8.48068Z" fill="white"/>
<path d="M20.4999 23.875C20.7345 23.7033 20.8621 23.6101 20.4999 23.875C22.2117 22.6173 39.1438 10.5704 42 8.47189C42 6.48802 40.788 5 38.8499 5L20.4999 19.875V23.875Z" fill="#EAF0FC"/>
<path d="M21 7.375L20.9998 5H39.0056L37.2748 7.27778L21 7.375Z" fill="#EAF0FC"/>
<path d="M38.5 6.875H3.5L20.5 19.875L38.5 6.875Z" fill="#1B2B96"/>
<path d="M42 8.37331V33.1857C42 35.245 40.3564 36.9076 38.3201 36.9076H20.5V23.875L41.9754 8.07556C42 8.17473 42 8.27398 42 8.37331Z" fill="#BBD2FF"/>
<path d="M20.5 6.875H3.5L20.5 19.875V6.875Z" fill="#2945FF"/>
</g>
<defs>
<clipPath id="clip0">
<rect width="42" height="41" fill="white"/>
</clipPath>
</defs>
</svg>
