<svg width="33" height="19" viewBox="0 0 33 19" fill="none" xmlns="http://www.w3.org/2000/svg">
<path d="M32.6935 17.0479C32.6935 16.9178 32.5622 16.9178 32.5622 16.7877C32.037 15.7466 30.8553 14.4452 29.2797 13.0137C28.4919 12.363 28.098 11.8425 27.8354 11.5822C27.4415 11.0616 27.4415 10.6712 27.5728 10.1507C27.7041 9.76028 28.2293 9.10958 29.1484 7.93835C29.6736 7.28766 29.9362 6.89726 30.3301 6.50685C32.2996 3.90411 33.2186 2.21232 32.9561 1.4315L32.8248 1.30137C32.6935 1.17123 32.5622 1.0411 32.2996 1.0411C32.037 0.910963 31.6431 0.910963 31.2492 1.0411H26.2598C26.1285 1.0411 26.1285 1.0411 25.8659 1.0411C25.7346 1.0411 25.6033 1.0411 25.6033 1.0411H25.472H25.3407L25.2094 1.17123C25.0781 1.30136 25.0781 1.30136 25.0781 1.4315C24.5529 2.863 23.8964 4.03424 23.2399 5.33561C22.846 5.98629 22.4521 6.63699 22.0582 7.15754C21.6643 7.67809 21.4017 8.06849 21.1391 8.32876C20.8765 8.58904 20.6139 8.71918 20.4826 8.97945C20.3513 9.10959 20.0888 9.23973 20.0888 9.10959C19.9575 9.10959 19.8261 9.10959 19.8261 8.97945C19.6948 8.84931 19.5636 8.71917 19.4323 8.58903C19.301 8.4589 19.3009 8.19862 19.1696 7.93835C19.1696 7.67807 19.1696 7.4178 19.1696 7.28766C19.1696 7.15753 19.1696 6.76713 19.1696 6.50685C19.1696 6.11644 19.1696 5.85616 19.1696 5.72602C19.1696 5.33561 19.1696 4.81508 19.1696 4.29453C19.1696 3.77398 19.1696 3.38356 19.1696 3.12328C19.1696 2.86301 19.1696 2.4726 19.1696 2.21233C19.1696 1.82191 19.1696 1.56163 19.1696 1.4315C19.1696 1.30136 19.0384 1.04109 19.0384 0.910955C18.9071 0.780818 18.7758 0.650677 18.6445 0.52054C18.5132 0.390403 18.2506 0.390407 18.1193 0.26027C17.4628 0.130133 16.675 0 15.7559 0C13.6551 0 12.2108 0.130141 11.6856 0.390415C11.423 0.520552 11.1604 0.650681 11.0291 0.910955C10.7665 1.17123 10.7665 1.30137 10.8978 1.30137C11.5543 1.43151 12.0795 1.69177 12.3421 2.08218L12.4734 2.34247C12.6047 2.47261 12.6047 2.73287 12.736 3.12328C12.8673 3.51369 12.8673 3.9041 12.8673 4.42465C12.8673 5.20547 12.8673 5.9863 12.8673 6.50685C12.8673 7.15754 12.736 7.54794 12.736 7.93835C12.736 8.32876 12.6047 8.58904 12.4734 8.71918C12.3421 8.97945 12.3421 9.10959 12.2108 9.10959C12.2108 9.10959 12.2108 9.23972 12.0795 9.23972C11.9482 9.23972 11.8169 9.36986 11.5543 9.36986C11.423 9.36986 11.1604 9.23973 11.0291 9.10959C10.7665 8.97946 10.5039 8.71918 10.3726 8.45891C10.11 8.19864 9.84743 7.80821 9.58484 7.28766C9.32224 6.76712 8.92832 6.24657 8.66573 5.46575L8.40315 4.94521C8.27185 4.68494 8.00925 4.16438 7.74666 3.5137C7.48406 2.86301 7.22145 2.34247 6.95885 1.69179C6.82755 1.43151 6.69627 1.30136 6.56497 1.17123H6.43367C6.43367 1.17123 6.30235 1.0411 6.17105 1.0411C6.03975 1.0411 5.90847 0.910955 5.77717 0.910955H1.0504C0.5252 0.910955 0.262606 1.04109 0.131307 1.17123L0 1.30137C0 1.30137 0 1.4315 0 1.56164C0 1.69178 8.0119e-06 1.82191 0.131307 2.08218C0.787802 3.64383 1.57559 5.20548 2.36339 6.76712C3.15118 8.19863 3.93898 9.50001 4.46418 10.411C5.12068 11.3219 5.64586 12.2329 6.30236 13.0137C6.95885 13.7945 7.35274 14.3151 7.48404 14.5753C7.74664 14.8356 7.87793 14.9658 8.00923 15.0959L8.40315 15.4863C8.66575 15.7466 9.05964 16.137 9.58484 16.5274C10.11 16.9178 10.7665 17.3082 11.423 17.6986C12.0795 18.089 12.8673 18.3493 13.6551 18.6096C14.5742 18.8699 15.362 19 16.1498 18.8699H18.1193C18.5132 18.8699 18.7758 18.7397 19.0384 18.4795L19.1696 18.3493C19.1696 18.2192 19.301 18.2192 19.301 18.089C19.301 17.9589 19.301 17.8288 19.301 17.5685C19.301 17.048 19.301 16.6575 19.4323 16.2671C19.5636 15.8767 19.5636 15.6165 19.6949 15.3562C19.8262 15.0959 19.9575 14.9658 20.0888 14.8356C20.2201 14.7055 20.3514 14.5753 20.3514 14.5753H20.4826C20.7452 14.4452 21.1392 14.5753 21.4018 14.8356C21.7956 15.0959 22.1895 15.4863 22.4521 15.8767C22.7147 16.2671 23.1087 16.6575 23.6339 17.1781C24.159 17.6986 24.5529 18.0891 24.8155 18.2192L25.2094 18.4795C25.472 18.6096 25.7346 18.7397 26.1285 18.8699C26.5224 19 26.785 19 27.0476 19L31.5118 18.8699C31.9057 18.8699 32.2996 18.7397 32.5622 18.6096C32.8248 18.4795 32.9561 18.3493 32.9561 18.089C32.9561 17.9589 32.9561 17.6986 32.9561 17.5685C32.6935 17.3082 32.6935 17.1781 32.6935 17.0479Z" fill="white"/>
</svg>
