<svg width="42" height="41" viewBox="0 0 42 41" fill="none" xmlns="http://www.w3.org/2000/svg">
<g clip-path="url(#clip0)">
<path d="M21.0659 6.61292V35.7097H39.3163L40.3898 15.871L38.2427 6.61292H21.0659Z" fill="#0E23B1"/>
<path d="M9.66462 12.4369C9.08315 13.2505 9.08319 13.2505 9.08327 13.2506L9.08362 13.2508L9.08502 13.2518L9.09062 13.2558L9.11274 13.2717L9.19914 13.3334L9.52806 13.5685L10.7101 14.4136C11.6929 15.1163 13.0144 16.0612 14.369 17.0304C17.0816 18.9712 19.9175 21.002 20.4425 21.3851L21.0305 21.8142L21.6195 21.3865L21.032 20.5773C21.6195 21.3865 21.6196 21.3864 21.6197 21.3863L21.6204 21.3859L21.6231 21.3839L21.6336 21.3763L21.6752 21.3461L21.8373 21.2284L22.4521 20.7819L24.6425 19.1915L31.2522 14.3924L37.7597 9.66784L38.8887 8.84836V22.0562V35.6386L37.1673 36.0136H5.06858L3.1753 35.6275V21.6965L3.17525 8.8777C3.71275 9.27596 4.33385 9.73591 4.96688 10.2046C5.96282 10.9419 6.98858 11.701 7.76534 12.2757L8.70891 12.9738L8.9753 13.1709L9.04572 13.223L9.0638 13.2364L9.06838 13.2397L9.06953 13.2406L9.06982 13.2408C9.06989 13.2409 9.06992 13.2409 9.66462 12.4369ZM9.66462 12.4369L9.08315 13.2505L9.07649 13.2458L9.06992 13.2409L9.66462 12.4369Z" stroke="white" stroke-width="2"/>
<path d="M3.37903 6.26392H38.8501" stroke="white" stroke-width="2.2"/>
<path d="M31.3164 16.0319C31.2711 16.065 31.2169 16.1049 31.1666 16.1418C31.134 16.1659 31.1989 16.1181 31.3164 16.0319Z" fill="#00A66C"/>
<path d="M5.03817 7.88751V37.0321H3.81156C1.77529 37.0321 0.131714 35.3701 0.131714 33.3115V8.50761C0.131714 8.40831 0.131714 8.3091 0.156246 8.20996L5.03817 7.88751Z" fill="white"/>
<path d="M42.0002 8.49831V33.3107C42.0002 35.37 40.3566 37.0326 38.3204 37.0326H37.0938V10.3592L41.9757 8.20056C42.0002 8.29973 42.0002 8.39898 42.0002 8.49831Z" fill="#BBD2FF"/>
<path d="M41.9745 8.60568C17.7034 26.4385 45.4502 5.99185 21.0648 23.9086C18.9352 22.3439 28.6978 29.5769 0.155172 8.60568C-0.00101067 6.83333 1.73583 5.125 3.6738 5.125L11.4023 10.9863L21.0648 17.9028L29.6526 11.6476L38.849 5.125C40.787 5.125 41.999 6.83333 41.9745 8.60568Z" fill="white"/>
<path d="M21.0659 23.8066C21.0719 23.811 21.0725 23.8114 21.0659 23.8066C22.7777 22.5489 39.1439 10.6954 42.0001 8.59689C42.0001 6.61302 40.7881 5.125 38.85 5.125L21.0659 17.855V23.8066Z" fill="#EAF0FC"/>
<path d="M21.0002 7.5L21 5.125H39.0058L37.275 7.40278L21.0002 7.5Z" fill="#EAF0FC"/>
<path d="M21 37.0139V34.7361H37.0616V37.0139H21Z" fill="#EAF0FC"/>
</g>
<defs>
<clipPath id="clip0">
<rect width="42" height="41" fill="white"/>
</clipPath>
</defs>
</svg>
