<svg width="314" height="469" viewBox="0 0 314 469" fill="none" xmlns="http://www.w3.org/2000/svg">
<g clip-path="url(#clip0)">
<path d="M208.947 468.871C151.253 468.871 104.483 465.25 104.483 460.784C104.483 456.317 151.253 452.696 208.947 452.696C266.64 452.696 313.41 456.317 313.41 460.784C313.41 465.25 266.64 468.871 208.947 468.871Z" fill="#2B2949"/>
<circle cx="254.5" cy="56.5" r="19.5" fill="#FFD967" fill-opacity="0.6"/>
<circle cx="254" cy="57" r="31" fill="#FFD967" fill-opacity="0.3"/>
<circle cx="254.5" cy="56.5" r="47.5" fill="#FFD967" fill-opacity="0.3"/>
<path opacity="0.1" d="M229.521 18.9583L229.61 18.4627L238.084 13.9748H239.413L239.922 13H257.384L261.434 13.9748H276.348L280.388 18.6898L280.43 18.9789C280.691 20.6653 286.535 60.32 271.117 72.9371L264.688 75.9244H260.53L261.343 74.3017L257.729 75.9244H246.027L245.819 75.6125L238.875 73.0128L238.696 72.8063C238.07 72.0629 223.312 54.1319 229.521 18.9583Z" fill="#6C63FF"/>
<path d="M250.646 58.7329H257.529V76.6295H250.646V58.7329Z" fill="#E6E6E6"/>
<path d="M248.237 99.6885H260.627V443.853H248.237V99.6885Z" fill="#3F3D56"/>
<path d="M245.138 93.8379H263.723V105.539H245.138V93.8379Z" fill="#3F3D56"/>
<path d="M270.605 72.4995L258.904 84.8896L263.722 93.8377L254.086 95.9027L245.137 93.8377L250.644 84.2015L239.631 72.4995H270.605Z" fill="#3F3D56"/>
<path d="M279.554 19.4979L285.061 13.9913L280.931 9.86133H228.618L224.488 14.6796L230.683 19.4979C230.683 19.4979 263.722 18.1213 279.554 19.4979Z" fill="#3F3D56"/>
<path d="M229.665 19.3193L229.755 18.8236L238.228 14.3358L242.097 12.2845L263.813 10.8872L275.99 13.7506L276.492 14.3357L280.533 19.0508L280.574 19.3399C280.836 21.0263 286.68 60.681 271.261 73.298L264.832 76.2854L259.422 78.7978L260.675 76.2854L262.733 72.1761C264.887 59.6347 269.623 26.6844 266.601 19.8011L254.115 15.7743L243.033 19.8906C242.269 24.8397 237.326 59.5384 245.986 71.9077L246.171 72.1761V76.0514L239.02 73.3738L238.841 73.1673C238.214 72.4239 223.457 54.4929 229.665 19.3193ZM240.266 71.6323L244.107 73.0778V72.8162C234.608 58.6436 240.816 20.5858 241.085 18.9613L241.181 18.3694L252.043 14.3357L254.06 13.5854L256.386 14.3357L268.033 18.094L268.233 18.445C272.658 26.3815 265.066 70.7857 264.743 72.6717L264.715 72.8231L263.896 74.4613L270.057 71.6185C283.789 60.1854 279.081 23.5731 278.578 19.9456L274.861 15.6091L269.451 14.3357L263.634 12.966L254.06 13.5854L242.675 14.322L242.647 14.3357L231.613 20.1728C226.148 52.0769 238.689 69.5949 240.266 71.6323H240.266Z" fill="#3F3D56"/>
<path d="M254.087 19.4983C243.823 19.4983 235.502 15.1839 235.502 9.86171C235.502 4.53956 243.823 0.225098 254.087 0.225098C264.351 0.225098 272.672 4.53956 272.672 9.86171C272.672 15.1839 264.351 19.4983 254.087 19.4983Z" fill="#3F3D56"/>
<path d="M263.723 426.301L274.736 461.406C274.736 461.406 257.528 471.042 234.125 461.406L245.138 426.301H263.723Z" fill="#3F3D56"/>
<path d="M254.493 62.0133C251.452 62.0133 248.987 59.5479 248.987 56.5066C248.987 53.4654 251.452 51 254.493 51C257.535 51 260 53.4654 260 56.5066C260 59.5479 257.535 62.0133 254.493 62.0133Z" fill="#FFD967"/>
<path d="M12.302 136.611C9.72796 130.534 8.44094 127.495 9.52917 124.807C10.6174 122.12 13.6559 120.833 19.7329 118.259L157.164 60.0474C163.241 57.4734 166.279 56.1864 168.967 57.2746C171.654 58.3628 172.941 61.4013 175.516 67.4783L203.833 134.332C205.212 137.588 203.69 141.345 200.434 142.724C197.178 144.103 195.657 147.861 197.036 151.117L198.465 154.492C200.871 160.172 202.074 163.012 201.861 164.848C201.492 168.033 199.005 170.56 195.826 170.98C193.994 171.222 191.135 170.065 185.417 167.75L168.264 160.804C165.612 159.73 164.286 159.193 162.893 159.204C161.501 159.215 160.184 159.773 157.549 160.889L56.0077 203.9C49.9307 206.474 46.8922 207.761 44.2047 206.672C41.5171 205.584 40.2301 202.546 37.6561 196.469L12.302 136.611Z" fill="#FA0026"/>
<path d="M116.114 146.374C115.103 148.543 112.616 149.597 110.355 148.814C96.1504 143.756 86.8172 140.522 83.6017 132.93C82.9645 131.496 82.6215 129.95 82.5929 128.381C82.5642 126.812 82.8506 125.254 83.4351 123.798C84.0195 122.342 84.8901 121.018 85.9953 119.904C87.1005 118.791 88.4179 117.91 89.8694 117.315C91.5781 116.602 93.4214 116.27 95.2715 116.34C98.1558 116.451 101.356 115.095 103.284 112.947C104.52 111.569 106.041 110.476 107.742 109.745C109.18 109.116 110.729 108.783 112.298 108.764C113.866 108.744 115.423 109.04 116.875 109.634C118.328 110.227 119.646 111.105 120.753 112.217C121.86 113.329 122.733 114.652 123.319 116.107C126.535 123.699 122.364 132.653 116.114 146.374Z" fill="white"/>
<path d="M234.673 214.641C234.673 214.641 239.047 227.765 236.617 230.682C234.187 233.598 251.199 221.932 251.199 221.932L241.964 211.239L234.673 214.641Z" fill="#F0B8C0"/>
<path d="M244.649 214.62C232.596 214.62 222.825 204.849 222.825 192.796C222.825 180.743 232.596 170.973 244.649 170.973C256.702 170.973 266.473 180.743 266.473 192.796C266.473 204.849 256.702 214.62 244.649 214.62Z" fill="#FFF5D6"/>
<path d="M159.818 362.407L170.997 371.156L177.316 360.948L166.137 353.171L159.818 362.407Z" fill="#F0B8C0"/>
<path d="M175.615 428.27L172.699 442.366L164.436 453.545C164.436 453.545 142.076 460.35 157.145 463.753C172.213 467.155 175.615 461.323 175.615 461.323L186.309 452.087V464.725H193.114L194.572 446.74C194.572 446.74 195.544 441.394 191.17 435.561L190.197 426.812L175.615 428.27Z" fill="#2F2E41"/>
<path d="M231.999 253.77L228.111 276.129C228.111 276.129 186.795 271.755 183.878 280.018C180.962 288.281 179.99 290.711 179.99 290.711L188.253 293.628L192.141 286.337C193.326 285.917 194.583 285.744 195.837 285.828C197.091 285.911 198.314 286.25 199.433 286.823C203.321 288.767 237.346 293.628 239.776 287.309C242.207 280.99 249.012 257.659 249.012 257.659L238.804 249.396L231.999 253.77Z" fill="#F0B8C0"/>
<path opacity="0.1" d="M231.999 253.77L228.111 276.129C228.111 276.129 186.795 271.755 183.878 280.018C180.962 288.281 179.99 290.711 179.99 290.711L188.253 293.628L192.141 286.337C193.326 285.917 194.583 285.744 195.837 285.828C197.091 285.911 198.314 286.25 199.433 286.823C203.321 288.767 237.346 293.628 239.776 287.309C242.207 280.99 249.012 257.659 249.012 257.659L238.804 249.396L231.999 253.77Z" fill="black"/>
<path d="M209.154 318.418L205.752 330.083L197.003 374.802C197.003 374.802 196.03 407.854 194.572 411.743C193.114 415.632 193.114 416.118 194.572 417.576C196.03 419.034 198.947 423.895 194.572 426.811C190.198 429.728 174.643 433.13 174.157 429.728C173.671 426.325 173.671 420.978 174.157 418.548C174.643 416.118 172.699 378.204 172.699 378.204L178.532 320.362L198.461 311.126L209.154 318.418Z" fill="#2F2E41"/>
<path opacity="0.1" d="M209.154 318.418L205.752 330.083L197.003 374.802C197.003 374.802 196.03 407.854 194.572 411.743C193.114 415.632 193.114 416.118 194.572 417.576C196.03 419.034 198.947 423.895 194.572 426.811C190.198 429.728 174.643 433.13 174.157 429.728C173.671 426.325 173.671 420.978 174.157 418.548C174.643 416.118 172.699 378.204 172.699 378.204L178.532 320.362L198.461 311.126L209.154 318.418Z" fill="black"/>
<path d="M188.254 272.727L177.56 293.142C177.56 293.142 116.315 320.362 121.662 331.541C127.009 342.721 156.659 363.622 156.659 363.622C156.659 363.622 158.117 371.885 162.492 369.455C166.866 367.024 177.56 354.386 176.588 352.928C175.616 351.47 172.213 348.068 170.755 348.554C169.297 349.04 152.284 335.916 152.284 335.916L181.449 328.625C181.449 328.625 216.446 327.653 218.39 311.126C220.334 294.6 218.39 291.683 218.39 291.683L220.82 286.337L200.891 274.185L188.254 272.727Z" fill="#2F2E41"/>
<path d="M173.185 353.415L183.392 362.65C183.392 362.65 192.141 358.761 197.488 360.22C202.835 361.678 212.07 362.65 212.07 362.65L210.612 370.913L198.211 368.625L208.182 382.579C208.182 382.579 208.182 404.452 201.863 404.452C195.544 404.452 197.488 391.328 197.488 391.328L178.045 376.26C178.045 376.26 168.324 372.371 167.352 372.371C166.38 372.371 173.185 353.415 173.185 353.415Z" fill="#2F2E41"/>
<path d="M236.618 218.53C227.491 218.53 220.092 211.131 220.092 202.003C220.092 192.876 227.491 185.477 236.618 185.477C245.745 185.477 253.145 192.876 253.145 202.003C253.145 211.131 245.745 218.53 236.618 218.53Z" fill="#F0B8C0"/>
<path d="M252.9 214.884C252.9 214.884 245.123 212.94 242.693 214.884C240.263 216.828 239.776 221.203 236.374 221.689C232.972 222.175 230.055 222.175 229.569 222.661C229.083 223.147 217.903 236.757 217.903 236.757C217.903 236.757 211.098 240.646 209.64 245.993C208.182 251.339 193.6 269.324 191.656 271.268C189.711 273.213 204.293 282.934 209.154 286.337C214.015 289.739 228.111 291.197 232.485 283.42C236.86 275.643 260.678 225.092 252.9 214.884Z" fill="#FFD967"/>
<path d="M234.431 246.479L230.542 268.838C230.542 268.838 189.226 264.464 186.31 272.727C183.393 280.99 182.421 283.421 182.421 283.421L190.685 286.337L194.573 279.046C195.758 278.626 197.015 278.453 198.269 278.537C199.522 278.62 200.746 278.959 201.864 279.532C205.753 281.476 239.778 286.337 242.208 280.018C244.638 273.699 251.443 250.368 251.443 250.368L241.236 242.104L234.431 246.479Z" fill="#F0B8C0"/>
<path d="M243.719 216.929C243.719 216.929 232 241.618 232.972 248.423C233.944 255.228 237.347 250.367 237.347 250.367C237.347 250.367 241.721 243.563 243.666 247.451C245.61 251.34 248.04 256.686 249.984 256.2C251.929 255.714 262.622 219.745 256.789 216.343C250.956 212.94 243.719 216.929 243.719 216.929Z" fill="#FFD967"/>
<path d="M268.292 185.885C256.239 185.885 246.468 176.114 246.468 164.061C246.468 152.009 256.239 142.238 268.292 142.238C280.344 142.238 290.115 152.009 290.115 164.061C290.115 176.114 280.344 185.885 268.292 185.885Z" fill="#FFF5D6"/>
<path d="M287.115 182.133C284.29 184.175 281.018 185.51 277.571 186.028C274.125 186.545 270.604 186.23 267.304 185.108C264.005 183.986 261.022 182.09 258.605 179.579C256.188 177.068 254.408 174.014 253.413 170.674C253.79 173.667 254.783 176.55 256.329 179.14C257.876 181.731 259.943 183.972 262.4 185.723C264.857 187.474 267.65 188.697 270.603 189.314C273.556 189.931 276.605 189.93 279.558 189.309C282.51 188.688 285.302 187.462 287.756 185.708C290.211 183.954 292.276 181.71 293.819 179.118C295.363 176.526 296.352 173.642 296.725 170.648C297.098 167.654 296.846 164.616 295.985 161.724C296.474 165.609 295.909 169.554 294.348 173.145C292.787 176.736 290.289 179.84 287.115 182.133Z" fill="#FFF5D6"/>
<path d="M250.469 212.438C241.63 212.438 234.465 205.272 234.465 196.434C234.465 187.595 241.63 180.43 250.469 180.43C259.307 180.43 266.473 187.595 266.473 196.434C266.473 205.272 259.307 212.438 250.469 212.438Z" fill="#FFF5D6"/>
<path d="M237.012 201.526C229.178 201.526 222.826 196.559 222.826 190.432C222.826 184.305 229.178 179.338 237.012 179.338C244.846 179.338 251.197 184.305 251.197 190.432C251.197 196.559 244.846 201.526 237.012 201.526Z" fill="#FFF5D6"/>
<path d="M236.376 209.295C234.631 209.295 233.216 206.792 233.216 203.705C233.216 200.618 234.631 198.115 236.376 198.115C238.121 198.115 239.535 200.618 239.535 203.705C239.535 206.792 238.121 209.295 236.376 209.295Z" fill="#F0B8C0"/>
<path d="M193.005 286.124C193.005 286.124 184.401 281.187 182.803 282.425C181.206 283.663 180.496 287.537 180.496 287.537L190.441 291.44L193.357 286.093L193.005 286.124Z" fill="#2F2E41"/>
</g>
<defs>
<clipPath id="clip0">
<rect width="312.717" height="468.401" fill="white" transform="matrix(-1 0 0 1 313.41 0.225098)"/>
</clipPath>
</defs>
</svg>
