<svg width="566" height="610" viewBox="0 0 566 610" fill="none" xmlns="http://www.w3.org/2000/svg">
<g style="mix-blend-mode:darken">
<path d="M489.75 150.326C442.879 141.52 400.319 119.43 360.006 96.214C319.693 72.9977 280.05 48.0474 235.408 32.2037C206.69 22.0137 172.982 16.0646 146.729 28.3468C121.481 40.1412 110.028 65.4698 102.317 89.385C96.5124 107.375 91.7986 126.505 97.3771 145.045C101.257 157.906 109.852 169.527 115.11 182.077C133.39 225.748 108.687 272.42 76.3297 307.42C61.1856 323.849 44.1346 339.12 31.6153 357.15C19.096 375.18 11.2752 396.842 16.6102 417.988C21.906 438.955 39.403 456.758 59.2137 470.42C99.4554 498.171 149.746 512.017 199.161 523.039C308.548 547.437 420.18 561.061 531.513 574.633C572.717 579.652 614.099 584.686 655.422 584.463C678.361 584.341 702.344 582.254 720.665 571.189C743.932 557.144 753.478 528.822 742.918 505.144C725.207 465.472 662.391 446.73 652.07 405.472C646.387 382.763 659.177 360.369 675.166 342.546C709.468 304.297 761.803 274.126 771.647 225.948C778.412 192.856 761.058 156.042 728.775 134.989C694.93 112.916 644.203 107.329 613.212 130.627C581.321 154.642 531.134 158.103 489.75 150.326Z" fill="#DDF7FF"/>
</g>
<g clip-path="url(#clip0)">
<g opacity="0.7">
<path opacity="0.7" d="M523.099 264.668C523.16 246.064 518.709 227.723 510.126 211.22C506.051 203.47 502.335 198.652 499.443 195.697C498.352 194.54 496.928 193.752 495.368 193.444C493.808 193.136 492.192 193.323 490.743 193.979C489.586 194.388 488.541 195.062 487.691 195.949C483.822 199.958 480.327 205.257 477.275 210.899C468.246 227.788 463.559 246.66 463.638 265.814V277.313H456.267V143.692C456.267 115.685 450.002 88.0522 437.731 63.5194C431.917 51.9059 426.613 44.6904 422.53 40.2542C421.541 39.1264 420.323 38.2229 418.957 37.6039C417.591 36.9848 416.109 36.6646 414.61 36.6646C413.11 36.6646 411.628 36.9848 410.262 37.6039C408.896 38.2229 407.678 39.1264 406.689 40.2542C401.164 46.2633 396.181 54.2042 391.823 62.649C378.92 87.6857 372.365 116.097 372.365 144.936V277.313H365.993V265.264C366.072 246.11 361.385 227.238 352.356 210.35C349.304 204.715 345.809 199.416 341.94 195.399C340.826 194.226 339.369 193.436 337.778 193.145C336.187 192.855 334.545 193.077 333.088 193.781L333.355 193.926C332.421 194.339 331.576 194.93 330.868 195.667C328.006 198.621 324.29 203.439 320.184 211.189C311.602 227.693 307.15 246.034 307.212 264.638V464.412H329.952L327.472 480.836V529.94H346.061V480.836L343.581 464.412H365.993V282.482H372.365V463.595H390.526L387.916 480.828V529.94H406.513V480.836L403.903 463.603H428.376L425.766 480.836V529.94H444.363V480.836L441.753 463.603H456.252V282.482H463.623V464.687H469.598V464.412H489.355L486.875 480.836V529.94H505.471V480.836L502.991 464.412H523.099V264.668Z" fill="url(#paint0_linear)"/>
</g>
<path d="M349.762 471.261H332.157L335.301 449.874H346.618L349.762 471.261Z" fill="#9B9EC6"/>
<g opacity="0.1">
<path opacity="0.1" d="M334.424 458.365H347.496L346.618 452.386H335.301L334.424 458.365Z" fill="#2B2949"/>
</g>
<path d="M500.671 471.261H483.066L486.21 449.874H497.527L500.671 471.261Z" fill="#9B9EC6"/>
<g opacity="0.1">
<path opacity="0.1" d="M485.333 458.365H498.405L497.527 452.386H486.211L485.333 458.365Z" fill="#2B2949"/>
</g>
<path d="M406.986 471.261H389.374L392.518 449.874H403.842L406.986 471.261Z" fill="#9B9EC6"/>
<g opacity="0.1">
<path opacity="0.1" d="M391.641 458.365H404.72L403.843 452.386H392.518L391.641 458.365Z" fill="#2B2949"/>
</g>
<path d="M442.821 471.261H425.217L428.361 449.874H439.677L442.821 471.261Z" fill="#9B9EC6"/>
<g opacity="0.1">
<path opacity="0.1" d="M427.483 458.365H440.563L439.678 452.386H428.361L427.483 458.365Z" fill="#2B2949"/>
</g>
<path d="M475.52 273.075H349.762V278.107H475.52V273.075Z" fill="#9B9EC6"/>
<path d="M494.963 193.567C494.299 192.833 493.488 192.246 492.583 191.845C491.678 191.443 490.699 191.236 489.71 191.236C488.72 191.236 487.741 191.443 486.836 191.845C485.931 192.246 485.12 192.833 484.456 193.567C480.793 197.469 477.489 202.63 474.596 208.12C466.038 224.63 461.61 242.97 461.693 261.568V455.273H517.345V260.767C517.415 242.678 513.202 224.831 505.052 208.685C501.19 201.141 497.672 196.445 494.963 193.567Z" fill="#DDDCE4"/>
<path d="M335.377 193.567C336.042 192.833 336.853 192.246 337.757 191.845C338.662 191.443 339.641 191.236 340.631 191.236C341.621 191.236 342.6 191.443 343.505 191.845C344.41 192.246 345.22 192.833 345.885 193.567C349.548 197.469 352.852 202.63 355.744 208.12C364.303 224.63 368.73 242.97 368.648 261.568V455.273H312.98V260.767C312.91 242.678 317.123 224.831 325.274 208.685C329.127 201.141 332.645 196.445 335.377 193.567Z" fill="#DDDCE4"/>
<path d="M313.293 264.897L326.495 264.958V281.253H313.293V264.897Z" fill="#9B9EC6"/>
<path d="M355.424 264.897L368.625 264.958V281.253H355.424V264.897Z" fill="#9B9EC6"/>
<path d="M461.685 264.897L474.894 264.958V281.253H461.685V264.897Z" fill="#9B9EC6"/>
<path d="M503.815 264.897L517.025 264.958V281.253H503.815V264.897Z" fill="#9B9EC6"/>
<g opacity="0.1">
<path opacity="0.1" d="M355.721 207.868C352.837 202.378 349.525 197.217 345.862 193.315C344.827 192.171 343.446 191.397 341.93 191.112C340.415 190.827 338.848 191.045 337.468 191.734C338.263 192.131 338.981 192.666 339.589 193.315C343.252 197.217 346.556 202.378 349.448 207.868C358.007 224.378 362.435 242.718 362.352 261.316V455.005H368.64V261.339C368.722 242.732 364.288 224.383 355.721 207.868Z" fill="#2B2949"/>
</g>
<g opacity="0.1">
<path opacity="0.1" d="M479.603 208.403C482.487 202.913 485.799 197.751 489.462 193.849C490.148 193.111 490.976 192.519 491.896 192.108C490.536 191.512 489.022 191.36 487.571 191.672C486.119 191.985 484.802 192.746 483.807 193.849C480.144 197.751 476.84 202.913 473.948 208.403C465.39 224.912 460.962 243.253 461.044 261.851V455.54H466.706V261.881C466.617 243.274 471.042 224.922 479.603 208.403Z" fill="#2B2949"/>
</g>
<path d="M349.762 471.261H332.157V519.075H349.762V471.261Z" fill="url(#paint1_linear)"/>
<path d="M406.979 471.261H389.374V519.075H406.979V471.261Z" fill="url(#paint2_linear)"/>
<path d="M442.821 471.261H425.217V519.075H442.821V471.261Z" fill="url(#paint3_linear)"/>
<path d="M500.671 471.261H483.066V519.075H500.671V471.261Z" fill="url(#paint4_linear)"/>
<path d="M422.141 41.6973C421.221 40.6035 420.073 39.7242 418.778 39.121C417.483 38.5177 416.072 38.2052 414.643 38.2052C413.215 38.2052 411.803 38.5177 410.508 39.121C409.213 39.7242 408.066 40.6035 407.146 41.6973C401.919 47.546 397.226 55.2808 393.074 63.5118C380.865 87.8995 374.653 115.578 374.653 143.646V454.478H454.084V142.394C454.084 115.12 448.155 88.182 436.533 64.3517C431.031 53.0436 426.01 46.0189 422.141 41.6973Z" fill="#EEEEEE"/>
<path d="M426.147 76.2249H401.492C396.856 76.2249 393.098 79.9853 393.098 84.6239V86.8306C393.098 91.4692 396.856 95.2296 401.492 95.2296H426.147C430.783 95.2296 434.541 91.4692 434.541 86.8306V84.6239C434.541 79.9853 430.783 76.2249 426.147 76.2249Z" fill="#2945FF"/>
<g opacity="0.7">
<path opacity="0.7" d="M599.408 513.852C596.801 498.127 588.368 483.962 575.79 474.181C563.212 464.4 547.412 459.721 531.539 461.076C515.667 462.432 500.887 469.722 490.147 481.494C479.407 493.266 473.495 508.656 473.589 524.595C473.589 524.908 473.589 525.213 473.589 525.527C471.246 525.882 468.927 526.379 466.645 527.015C463.721 515.367 457.251 504.916 448.129 497.11C439.008 489.304 427.686 484.53 415.732 483.447C403.778 482.364 391.783 485.027 381.409 491.067C371.035 497.106 362.794 506.224 357.827 517.158C352.708 515.182 347.332 513.953 341.863 513.508C340.991 508.554 339.528 503.721 337.506 499.115C336.557 484.582 330.166 470.941 319.61 460.914C309.053 450.887 295.106 445.211 280.552 445.018C265.998 444.825 251.906 450.13 241.087 459.874C230.269 469.618 223.52 483.085 222.187 497.588C219.191 503.937 217.277 510.743 216.525 517.723C203.279 523.238 192.55 533.476 186.419 546.455C180.287 559.433 179.189 574.227 183.338 587.969H646.979C649.396 579.954 650.047 571.509 648.888 563.218C647.73 554.926 644.788 546.984 640.267 539.94C635.745 532.895 629.751 526.915 622.697 522.411C615.644 517.907 607.698 514.987 599.408 513.852Z" fill="url(#paint5_linear)"/>
</g>
<path d="M285.104 559.054C315.798 559.054 340.681 534.157 340.681 503.445C340.681 472.733 315.798 447.836 285.104 447.836C254.411 447.836 229.528 472.733 229.528 503.445C229.528 534.157 254.411 559.054 285.104 559.054Z" fill="url(#paint6_linear)"/>
<path d="M284.829 585.19C318.44 585.19 345.686 557.927 345.686 524.297C345.686 490.667 318.44 463.404 284.829 463.404C251.219 463.404 223.973 490.667 223.973 524.297C223.973 557.927 251.219 585.19 284.829 585.19Z" fill="url(#paint7_linear)"/>
<path d="M532.149 585.19C565.759 585.19 593.006 557.927 593.006 524.297C593.006 490.667 565.759 463.404 532.149 463.404C498.539 463.404 471.292 490.667 471.292 524.297C471.292 557.927 498.539 585.19 532.149 585.19Z" fill="url(#paint8_linear)"/>
<path d="M529.089 585.19C559.783 585.19 584.665 560.293 584.665 529.581C584.665 498.869 559.783 473.972 529.089 473.972C498.395 473.972 473.513 498.869 473.513 529.581C473.513 560.293 498.395 585.19 529.089 585.19Z" fill="url(#paint9_linear)"/>
<path d="M466.286 540.148C466.295 548.942 464.216 557.612 460.22 565.445C456.224 573.277 450.425 580.047 443.301 585.198H378.11C370.394 579.618 364.24 572.148 360.236 563.506C356.232 554.863 354.513 545.336 355.244 535.838C355.975 526.34 359.131 517.189 364.411 509.262C369.69 501.334 376.915 494.896 385.394 490.564C393.873 486.231 403.321 484.15 412.835 484.519C422.348 484.889 431.607 487.696 439.725 492.673C447.843 497.649 454.548 504.628 459.197 512.941C463.847 521.254 466.285 530.622 466.278 540.148H466.286Z" fill="url(#paint10_linear)"/>
<path d="M535.209 580.189C535.209 581.853 535.135 583.5 534.988 585.129C534.993 585.152 534.993 585.175 534.988 585.198H424.278C424.125 583.548 424.049 581.876 424.049 580.197C424.039 566.89 428.804 554.021 437.475 543.932C446.147 533.843 458.149 527.204 471.3 525.221C474.048 524.808 476.823 524.598 479.602 524.595C481.021 524.595 482.433 524.649 483.83 524.748C493.791 525.51 503.363 528.943 511.541 534.685C519.718 540.427 526.199 548.268 530.302 557.382C530.531 557.886 530.752 558.397 530.958 558.909C533.765 565.652 535.209 572.884 535.209 580.189Z" fill="url(#paint11_linear)"/>
<path d="M640.249 569.064C640.255 574.528 639.453 579.962 637.868 585.19H531.493C528.921 576.639 528.432 567.596 530.066 558.817C530.157 558.336 530.249 557.848 530.356 557.374C533.033 544.941 539.888 533.802 549.777 525.812C559.666 517.822 571.993 513.463 584.703 513.463C586.451 513.463 588.168 513.539 589.869 513.707C590.632 513.768 591.396 513.86 592.159 513.959C605.479 515.772 617.691 522.355 626.533 532.486C635.375 542.618 640.248 555.613 640.249 569.064Z" fill="url(#paint12_linear)"/>
<path d="M298.848 585.198C299.031 584.617 299.192 584.037 299.352 583.449C301.882 573.981 301.868 564.013 299.312 554.552C296.755 545.091 291.747 536.474 284.794 529.571C277.84 522.669 269.188 517.726 259.713 515.243C250.238 512.761 240.276 512.826 230.834 515.432C228.623 516.039 226.454 516.789 224.34 517.677C211.612 522.976 201.303 532.814 195.413 545.285C189.522 557.756 188.469 571.971 192.458 585.175H298.848V585.198Z" fill="url(#paint13_linear)"/>
<g opacity="0.7">
<path opacity="0.7" d="M190.069 507.881C196.816 507.881 202.286 502.408 202.286 495.657C202.286 488.905 196.816 483.432 190.069 483.432C183.321 483.432 177.852 488.905 177.852 495.657C177.852 502.408 183.321 507.881 190.069 507.881Z" fill="url(#paint14_linear)"/>
</g>
<path d="M190.068 507.331C196.512 507.331 201.736 502.104 201.736 495.657C201.736 489.209 196.512 483.982 190.068 483.982C183.624 483.982 178.4 489.209 178.4 495.657C178.4 502.104 183.624 507.331 190.068 507.331Z" fill="url(#paint15_linear)"/>
<path opacity="0.25" d="M109.669 369.419C111.819 369.419 113.561 367.676 113.561 365.525C113.561 363.375 111.819 361.631 109.669 361.631C107.52 361.631 105.777 363.375 105.777 365.525C105.777 367.676 107.52 369.419 109.669 369.419Z" fill="#9B9EC6"/>
<path opacity="0.25" d="M297.329 207.043C299.479 207.043 301.221 205.3 301.221 203.149C301.221 200.999 299.479 199.255 297.329 199.255C295.18 199.255 293.438 200.999 293.438 203.149C293.438 205.3 295.18 207.043 297.329 207.043Z" fill="#9B9EC6"/>
<path opacity="0.25" d="M284.547 117.51C286.696 117.51 288.439 115.766 288.439 113.616C288.439 111.465 286.696 109.722 284.547 109.722C282.398 109.722 280.655 111.465 280.655 113.616C280.655 115.766 282.398 117.51 284.547 117.51Z" fill="#9B9EC6"/>
<path opacity="0.25" d="M174.501 294.905C176.651 294.905 178.393 293.161 178.393 291.011C178.393 288.86 176.651 287.117 174.501 287.117C172.352 287.117 170.609 288.86 170.609 291.011C170.609 293.161 172.352 294.905 174.501 294.905Z" fill="#9B9EC6"/>
<path opacity="0.25" d="M536.041 108.737H532.576V105.27H531.165V108.737H527.7V110.149H531.165V113.616H532.576V110.149H536.041V108.737Z" fill="#9B9EC6"/>
<path opacity="0.25" d="M560.49 391.234H557.033V387.775H555.622V391.234H552.157V392.654H555.622V396.113H557.033V392.654H560.49V391.234Z" fill="#9B9EC6"/>
<path opacity="0.25" d="M205.911 153.778H202.446V150.319H201.035V153.778H197.57V155.191H201.035V158.657H202.446V155.191H205.911V153.778Z" fill="#9B9EC6"/>
<path opacity="0.25" d="M85.3416 198.828H81.8772V195.369H80.4654V198.828H77.001V200.24H80.4654V203.707H81.8772V200.24H85.3416V198.828Z" fill="#9B9EC6"/>
<path opacity="0.25" d="M253.703 340.634H250.239V337.167H248.827V340.634H245.37V342.046H248.827V345.513H250.239V342.046H253.703V340.634Z" fill="#9B9EC6"/>
<g opacity="0.4">
<path opacity="0.4" d="M282.243 265.959C280.954 264.252 279.338 262.819 277.489 261.744C275.369 260.509 272.993 259.78 270.545 259.613C268.098 259.445 265.645 259.845 263.377 260.78C261.109 261.715 259.086 263.16 257.467 265.004C255.848 266.848 254.675 269.04 254.039 271.411C253.404 273.782 253.323 276.267 253.803 278.674C254.283 281.082 255.311 283.346 256.807 285.291C258.303 287.236 260.227 288.81 262.429 289.891C264.632 290.972 267.054 291.53 269.507 291.522C269.843 291.522 270.186 291.522 270.514 291.522C273.39 291.338 276.162 290.379 278.537 288.746C280.911 287.113 282.8 284.868 284.003 282.247C285.205 279.627 285.676 276.731 285.367 273.864C285.057 270.998 283.977 268.269 282.243 265.966V265.959Z" fill="url(#paint16_linear)"/>
</g>
<path opacity="0.2" d="M284.586 275.579C284.586 279.418 283.125 283.112 280.499 285.91C277.874 288.709 274.282 290.402 270.454 290.644C270.141 290.644 269.82 290.644 269.5 290.644C267.187 290.642 264.906 290.107 262.832 289.082C260.758 288.057 258.948 286.569 257.541 284.732C256.134 282.895 255.168 280.759 254.718 278.489C254.267 276.219 254.344 273.876 254.943 271.641C255.542 269.406 256.646 267.338 258.171 265.598C259.696 263.858 261.6 262.491 263.736 261.605C265.873 260.719 268.184 260.335 270.492 260.485C272.8 260.635 275.043 261.314 277.047 262.469C278.793 263.485 280.321 264.837 281.541 266.447C283.53 269.075 284.6 272.284 284.586 275.579Z" fill="#6C63FF"/>
<path opacity="0.1" d="M265.783 266.005C264.99 266.338 264.225 266.734 263.494 267.188C263.015 267.45 262.602 267.818 262.288 268.265C262.143 268.493 262.065 268.758 262.065 269.028C262.065 269.299 262.143 269.564 262.288 269.792C262.51 270.01 262.776 270.177 263.068 270.282C263.361 270.388 263.672 270.429 263.982 270.403C264.535 270.516 265.108 270.482 265.644 270.303C266.18 270.125 266.659 269.809 267.034 269.387L268.332 268.211C268.782 267.799 269.278 267.242 269.095 266.684C268.992 266.473 268.838 266.292 268.645 266.159C268.453 266.025 268.229 265.943 267.996 265.921C266.881 265.702 265.725 265.906 264.753 266.493" fill="#F55F44"/>
<path opacity="0.1" d="M260.365 282.329C260.803 282.329 261.159 281.974 261.159 281.535C261.159 281.096 260.803 280.741 260.365 280.741C259.927 280.741 259.571 281.096 259.571 281.535C259.571 281.974 259.927 282.329 260.365 282.329Z" fill="#F55F44"/>
<path opacity="0.1" d="M276.512 279.42C278.122 279.42 279.427 278.114 279.427 276.503C279.427 274.892 278.122 273.587 276.512 273.587C274.902 273.587 273.597 274.892 273.597 276.503C273.597 278.114 274.902 279.42 276.512 279.42Z" fill="#F55F44"/>
<path opacity="0.1" d="M281.54 266.516C281.531 267.277 281.303 268.018 280.884 268.653C280.465 269.288 279.873 269.789 279.178 270.097C278.483 270.404 277.714 270.506 276.963 270.389C276.211 270.272 275.51 269.942 274.941 269.437C274.372 268.933 273.96 268.275 273.753 267.543C273.547 266.811 273.555 266.035 273.777 265.307C273.999 264.58 274.425 263.931 275.004 263.439C275.584 262.947 276.292 262.631 277.046 262.53C278.793 263.548 280.321 264.903 281.54 266.516Z" fill="#F55F44"/>
<path opacity="0.1" d="M281.839 284.276C280.542 286.125 278.845 287.658 276.876 288.761C274.906 289.865 272.714 290.511 270.461 290.652C270.461 290.446 270.461 290.232 270.461 290.018C270.457 288.687 270.824 287.381 271.521 286.247C272.218 285.113 273.217 284.196 274.407 283.6C275.596 283.003 276.928 282.75 278.253 282.87C279.578 282.989 280.844 283.476 281.907 284.276H281.839Z" fill="#F55F44"/>
<g opacity="0.1">
<path opacity="0.1" d="M453.657 154.275H375.059V157.329H453.657V154.275Z" fill="#2B2949"/>
</g>
</g>
<defs>
<linearGradient id="paint0_linear" x1="415.159" y1="529.94" x2="415.159" y2="36.6884" gradientUnits="userSpaceOnUse">
<stop stop-color="#5C5796" stop-opacity="0.25"/>
<stop offset="0.54" stop-color="#5C5796" stop-opacity="0.12"/>
<stop offset="1" stop-color="#5C5796" stop-opacity="0.1"/>
</linearGradient>
<linearGradient id="paint1_linear" x1="340.956" y1="471.261" x2="340.956" y2="519.082" gradientUnits="userSpaceOnUse">
<stop stop-color="#E0E0E0"/>
<stop offset="0.31" stop-color="#FCCC63"/>
<stop offset="0.77" stop-color="#F55F44"/>
</linearGradient>
<linearGradient id="paint2_linear" x1="7798.98" y1="29981.6" x2="7798.98" y2="32976.2" gradientUnits="userSpaceOnUse">
<stop stop-color="#E0E0E0"/>
<stop offset="0.31" stop-color="#FCCC63"/>
<stop offset="0.77" stop-color="#F55F44"/>
</linearGradient>
<linearGradient id="paint3_linear" x1="8661.7" y1="29981.6" x2="8661.7" y2="32976.2" gradientUnits="userSpaceOnUse">
<stop stop-color="#E0E0E0"/>
<stop offset="0.31" stop-color="#FCCC63"/>
<stop offset="0.77" stop-color="#F55F44"/>
</linearGradient>
<linearGradient id="paint4_linear" x1="10054.2" y1="29981.6" x2="10054.2" y2="32976.2" gradientUnits="userSpaceOnUse">
<stop stop-color="#E0E0E0"/>
<stop offset="0.31" stop-color="#FCCC63"/>
<stop offset="0.77" stop-color="#F55F44"/>
</linearGradient>
<linearGradient id="paint5_linear" x1="272216" y1="119821" x2="272216" y2="93050.9" gradientUnits="userSpaceOnUse">
<stop stop-color="#5C5796" stop-opacity="0.25"/>
<stop offset="0.54" stop-color="#5C5796" stop-opacity="0.12"/>
<stop offset="1" stop-color="#5C5796" stop-opacity="0.1"/>
</linearGradient>
<linearGradient id="paint6_linear" x1="285.105" y1="447.836" x2="285.105" y2="559.054" gradientUnits="userSpaceOnUse">
<stop stop-color="#F2F2F2"/>
<stop offset="0.31" stop-color="#E6E6E6"/>
<stop offset="0.77" stop-color="#CCCCCC"/>
</linearGradient>
<linearGradient id="paint7_linear" x1="33372.7" y1="74376.4" x2="33372.7" y2="93801.2" gradientUnits="userSpaceOnUse">
<stop stop-color="#F2F2F2"/>
<stop offset="0.31" stop-color="#E6E6E6"/>
<stop offset="0.77" stop-color="#CCCCCC"/>
</linearGradient>
<linearGradient id="paint8_linear" x1="73067.4" y1="74376.4" x2="73067.4" y2="93801.2" gradientUnits="userSpaceOnUse">
<stop stop-color="#F2F2F2"/>
<stop offset="0.31" stop-color="#E6E6E6"/>
<stop offset="0.77" stop-color="#CCCCCC"/>
</linearGradient>
<linearGradient id="paint9_linear" x1="66324.6" y1="69512.7" x2="66324.6" y2="85712.8" gradientUnits="userSpaceOnUse">
<stop stop-color="#F2F2F2"/>
<stop offset="0.31" stop-color="#E6E6E6"/>
<stop offset="0.77" stop-color="#CCCCCC"/>
</linearGradient>
<linearGradient id="paint10_linear" x1="64267.3" y1="70942.3" x2="64267.3" y2="84220.2" gradientUnits="userSpaceOnUse">
<stop stop-color="#F2F2F2"/>
<stop offset="0.31" stop-color="#E6E6E6"/>
<stop offset="0.77" stop-color="#CCCCCC"/>
</linearGradient>
<linearGradient id="paint11_linear" x1="74348.8" y1="46096.6" x2="74348.8" y2="50907.8" gradientUnits="userSpaceOnUse">
<stop stop-color="#EEEEF7"/>
<stop offset="0.31" stop-color="#E6E6E6"/>
<stop offset="0.77" stop-color="#CCCCCC"/>
</linearGradient>
<linearGradient id="paint12_linear" x1="89731.1" y1="53406.1" x2="89731.1" y2="60145.6" gradientUnits="userSpaceOnUse">
<stop stop-color="#F2F2F2"/>
<stop offset="0.31" stop-color="#E6E6E6"/>
<stop offset="0.77" stop-color="#CCCCCC"/>
</linearGradient>
<linearGradient id="paint13_linear" x1="40031.3" y1="53436.9" x2="40031.3" y2="60180.4" gradientUnits="userSpaceOnUse">
<stop stop-color="#F2F2F2"/>
<stop offset="0.31" stop-color="#E6E6E6"/>
<stop offset="0.77" stop-color="#CCCCCC"/>
</linearGradient>
<linearGradient id="paint14_linear" x1="3798.28" y1="16745.8" x2="3798.28" y2="15962.9" gradientUnits="userSpaceOnUse">
<stop stop-color="#5C5796" stop-opacity="0.25"/>
<stop offset="0.54" stop-color="#5C5796" stop-opacity="0.12"/>
<stop offset="1" stop-color="#5C5796" stop-opacity="0.1"/>
</linearGradient>
<linearGradient id="paint15_linear" x1="3636.01" y1="15284.2" x2="3636.01" y2="15998.4" gradientUnits="userSpaceOnUse">
<stop stop-color="#F2F2F2"/>
<stop offset="0.31" stop-color="#E6E6E6"/>
<stop offset="0.77" stop-color="#CCCCCC"/>
</linearGradient>
<linearGradient id="paint16_linear" x1="12709.3" y1="14533.1" x2="12709.3" y2="13196.4" gradientUnits="userSpaceOnUse">
<stop stop-color="#5C5796" stop-opacity="0.25"/>
<stop offset="0.54" stop-color="#5C5796" stop-opacity="0.12"/>
<stop offset="1" stop-color="#5C5796" stop-opacity="0.1"/>
</linearGradient>
<clipPath id="clip0">
<rect width="706" height="588" fill="white" transform="translate(77.001)"/>
</clipPath>
</defs>
</svg>
