<svg width="24" height="24" viewBox="0 0 24 24" fill="none" xmlns="http://www.w3.org/2000/svg">
<path fill-rule="evenodd" clip-rule="evenodd" d="M0 9.78465C0 15.1886 4.38074 19.5693 9.78465 19.5693C15.1886 19.5693 19.5693 15.1886 19.5693 9.78465C19.5693 4.38074 15.1886 0 9.78465 0C4.38074 0 0 4.38074 0 9.78465ZM17.7232 9.78474C17.7232 14.169 14.169 17.7232 9.78474 17.7232C5.40043 17.7232 1.84625 14.169 1.84625 9.78474C1.84625 5.40043 5.40043 1.84625 9.78474 1.84625C14.169 1.84625 17.7232 5.40043 17.7232 9.78474ZM23.7296 22.4244C24.0901 22.7848 24.0901 23.3693 23.7296 23.7298C23.3691 24.0903 22.7846 24.0903 22.4242 23.7298L17.9934 19.299C17.6329 18.9385 17.6329 18.3541 17.9934 17.9936C18.3539 17.6331 18.9383 17.6331 19.2988 17.9936L23.7296 22.4244ZM4.61518 9.66156C4.95505 9.66156 5.23057 9.38604 5.23057 9.04617C5.23057 6.93899 6.93878 5.23077 9.04597 5.23077C9.38584 5.23077 9.66136 4.95526 9.66136 4.61539C9.66136 4.27552 9.38584 4 9.04597 4C6.25904 4 3.9998 6.25925 3.9998 9.04617C3.9998 9.38604 4.27531 9.66156 4.61518 9.66156Z" fill="#7F7D91"/>
</svg>
