<svg width="32" height="34" viewBox="0 0 32 34" fill="none" xmlns="http://www.w3.org/2000/svg">
<path d="M31.0386 0.136331C30.8144 -0.0317013 30.5211 -0.0449876 30.2845 0.100096L0.611911 18.2888C0.369761 18.4368 0.23173 18.724 0.25935 19.0216C0.286969 19.3191 0.474609 19.5715 0.73888 19.6655L9.59987 22.8337L12.4463 32.3654C12.5491 32.6667 13.0931 33.2093 13.6785 33.3463C14.0163 33.4253 14.8528 33.3801 15.494 32.6923C16.1351 32.0046 19.2584 26.2875 19.2584 26.2875L26.1726 28.7599C26.2457 28.7865 26.3209 28.7991 26.3961 28.7991C26.5231 28.7991 26.6493 28.7621 26.7604 28.6903C26.9377 28.5763 27.0591 28.3846 27.0929 28.1656L31.3319 0.882496C31.3767 0.593679 31.2629 0.303583 31.0386 0.136331ZM14.1049 23.3977C14.0325 23.5036 13.9862 23.6272 13.9718 23.7575C13.9718 23.7575 13.6785 29.3689 13.3336 29.3689C12.9888 29.3689 11.0119 23.284 10.9672 22.4305C10.9225 21.5769 24.3227 7.39918 24.7845 7.9496C25.2463 8.50002 14.1049 23.3977 14.1049 23.3977Z" fill="#EAF0FC"/>
</svg>
