<svg width="25" height="25" viewBox="0 0 25 25" fill="none" xmlns="http://www.w3.org/2000/svg">
<path d="M21.3527 0.524048H2.79812C1.34026 0.524048 0.147461 1.71685 0.147461 3.17471V21.7293C0.147461 23.1872 1.34026 24.38 2.79812 24.38H21.3527C22.8106 24.38 24.0034 23.1872 24.0034 21.7293V3.17471C24.0034 1.71685 22.8106 0.524048 21.3527 0.524048ZM6.77411 19.0787C6.04518 19.0787 5.44878 18.4823 5.44878 17.7533V11.1267C5.44878 10.3978 6.04518 9.80136 6.77411 9.80136C7.50304 9.80136 8.09944 10.3978 8.09944 11.1267V17.7533C8.09944 18.4823 7.50304 19.0787 6.77411 19.0787ZM12.0754 19.0787C11.3465 19.0787 10.7501 18.4823 10.7501 17.7533V7.1507C10.7501 6.42177 11.3465 5.82537 12.0754 5.82537C12.8044 5.82537 13.4008 6.42177 13.4008 7.1507V17.7533C13.4008 18.4823 12.8044 19.0787 12.0754 19.0787ZM17.3768 19.0787C16.6478 19.0787 16.0514 18.4823 16.0514 17.7533V15.1027C16.0514 14.3737 16.6478 13.7774 17.3768 13.7774C18.1057 13.7774 18.7021 14.3737 18.7021 15.1027V17.7533C18.7021 18.4823 18.1057 19.0787 17.3768 19.0787Z" fill="#2B2949"/>
</svg>
