<svg width="33" height="33" viewBox="0 0 33 33" fill="none" xmlns="http://www.w3.org/2000/svg">
<g clip-path="url(#clip0)">
<path d="M10.6992 21.3342H28.1663C28.5988 21.3342 28.9782 21.0482 29.0953 20.6328L32.9627 7.0974C33.0458 6.8056 32.9889 6.49214 32.8059 6.24969C32.6226 6.00799 32.3376 5.86523 32.0335 5.86523H8.46728L7.77617 2.75537C7.67798 2.31251 7.28522 1.99805 6.83203 1.99805H0.966797C0.432541 1.99805 0 2.43059 0 2.96484C0 3.49935 0.432541 3.93164 0.966797 3.93164H6.05608L9.54737 19.6421C8.52015 20.0887 7.79883 21.1112 7.79883 22.301C7.79883 23.9003 9.09998 25.2014 10.6992 25.2014H28.1663C28.7008 25.2014 29.1331 24.7691 29.1331 24.2346C29.1331 23.7004 28.7008 23.2678 28.1663 23.2678H10.6992C10.1667 23.2678 9.73242 22.8345 9.73242 22.301C9.73242 21.7675 10.1667 21.3342 10.6992 21.3342Z" fill="white"/>
<path d="M9.73242 28.1018C9.73242 29.7013 11.0336 31.0022 12.6331 31.0022C14.2323 31.0022 15.5335 29.7013 15.5335 28.1018C15.5335 26.5026 14.2323 25.2014 12.6331 25.2014C11.0336 25.2014 9.73242 26.5026 9.73242 28.1018Z" fill="white"/>
<path d="M23.332 28.1018C23.332 29.7013 24.6332 31.0022 26.2324 31.0022C27.8319 31.0022 29.1328 29.7013 29.1328 28.1018C29.1328 26.5026 27.8319 25.2014 26.2324 25.2014C24.6332 25.2014 23.332 26.5026 23.332 28.1018Z" fill="white"/>
</g>
<defs>
<clipPath id="clip0">
<rect width="33" height="33" fill="white"/>
</clipPath>
</defs>
</svg>
