<svg width="605" height="606" viewBox="0 0 605 606" fill="none" xmlns="http://www.w3.org/2000/svg">
<g style="mix-blend-mode:darken">
<path d="M489.75 146.326C442.879 137.52 400.319 115.43 360.006 92.214C319.693 68.9977 280.05 44.0474 235.408 28.2037C206.69 18.0137 172.982 12.0646 146.729 24.3468C121.481 36.1412 110.028 61.4698 102.317 85.385C96.5124 103.375 91.7986 122.505 97.3771 141.045C101.257 153.906 109.852 165.527 115.11 178.077C133.39 221.748 108.687 268.42 76.3297 303.42C61.1856 319.849 44.1346 335.12 31.6153 353.15C19.096 371.18 11.2752 392.842 16.6102 413.988C21.906 434.955 39.403 452.758 59.2137 466.42C99.4554 494.171 149.746 508.017 199.161 519.039C308.548 543.437 420.18 557.061 531.513 570.633C572.717 575.652 614.099 580.686 655.422 580.463C678.361 580.341 702.344 578.255 720.665 567.189C743.932 553.144 753.478 524.822 742.918 501.144C725.207 461.472 662.391 442.73 652.07 401.472C646.387 378.763 659.177 356.369 675.166 338.546C709.468 300.297 761.803 270.126 771.647 221.948C778.412 188.856 761.058 152.042 728.775 130.989C694.931 108.916 644.203 103.329 613.212 126.627C581.321 150.642 531.133 154.103 489.75 146.326Z" fill="#DDF7FF"/>
</g>
<g clip-path="url(#clip0)">
<path d="M346.623 85.0509H181.458V394.078H346.623V85.0509Z" fill="#EAF0FC"/>
<path d="M386.469 394.72H180.815V51H386.469V394.72ZM182.101 393.436H385.183V52.2849H182.101V393.436Z" fill="#2B2949"/>
<path d="M361.404 231.534H205.879V88.9057H361.404V231.534ZM207.164 230.249H360.119V90.1906H207.164V230.249Z" fill="#2B2949"/>
<path d="M206.976 193.717L206.067 192.809L254.539 144.352L282.999 172.803L359.986 95.8397L360.895 96.7481L282.999 174.62L254.539 146.169L206.976 193.717Z" fill="#2B2949"/>
<path d="M254.721 155.08C260.045 155.08 264.361 150.765 264.361 145.443C264.361 140.12 260.045 135.806 254.721 135.806C249.397 135.806 245.081 140.12 245.081 145.443C245.081 150.765 249.397 155.08 254.721 155.08Z" fill="#2945FF"/>
<path d="M283.642 181.421C288.966 181.421 293.282 177.107 293.282 171.784C293.282 166.462 288.966 162.147 283.642 162.147C278.318 162.147 274.002 166.462 274.002 171.784C274.002 177.107 278.318 181.421 283.642 181.421Z" fill="#2945FF"/>
<path d="M360.762 105.61C366.086 105.61 370.402 101.295 370.402 95.9727C370.402 90.6504 366.086 86.3357 360.762 86.3357C355.438 86.3357 351.122 90.6504 351.122 95.9727C351.122 101.295 355.438 105.61 360.762 105.61Z" fill="#2945FF"/>
<path d="M342.124 271.367H225.159V282.931H342.124V271.367Z" fill="#2B2949"/>
<path d="M310.633 366.452H256.649V312.484H293.281V313.769H257.935V365.167H309.348V339.468H310.633V366.452Z" fill="#2B2949"/>
<path d="M283.365 352.375L271.946 337.155L276.059 334.071L283.921 344.55L320.064 308.419L323.699 312.053L283.365 352.375Z" fill="#2945FF"/>
<path d="M474.092 541.945C541.673 541.945 596.458 537.821 596.458 532.733C596.458 527.646 541.673 523.521 474.092 523.521C406.511 523.521 351.726 527.646 351.726 532.733C351.726 537.821 406.511 541.945 474.092 541.945Z" fill="#2B2949"/>
<path d="M461.326 160.344L435.778 180.482L381.642 161.456C381.642 161.456 363.236 140.752 352.827 156.173C349.263 161.454 372.611 171.21 374.814 172.117C380.321 174.384 433.072 203.324 438.241 199.527C443.411 195.731 472.495 176.527 472.495 176.527L461.326 160.344Z" fill="#FEBDC7"/>
<path d="M548.534 125.993C524.321 116.945 501.287 112.664 482.612 125.993V82.9756C482.612 78.6471 483.465 74.361 485.121 70.362C486.778 66.363 489.206 62.7294 492.266 59.6687C495.327 56.608 498.961 54.1801 502.96 52.5237C506.959 50.8672 511.245 50.0146 515.573 50.0146H515.573C519.902 50.0146 524.188 50.8672 528.187 52.5237C532.186 54.1801 535.82 56.608 538.88 59.6687C541.941 62.7294 544.369 66.363 546.025 70.3621C547.682 74.3611 548.534 78.6472 548.534 82.9757L548.534 125.993Z" fill="#2B2949"/>
<path d="M487.694 219.964L485.715 233.814C485.715 233.814 480.769 248.654 485.715 276.354L406.077 493.503L464.94 510.321L494.124 391.606L535.18 301.086L531.222 403.972L510.447 513.783L571.783 511.31L589.657 323.017C592.547 293.259 587.385 263.271 574.712 236.192C569.753 225.662 564.422 217.363 559.585 216.158C545.072 212.544 487.694 219.964 487.694 219.964Z" fill="#FA0026"/>
<path d="M413.497 492.019L393.216 513.783C393.216 513.783 354.139 534.064 381.84 536.537C409.54 539.01 418.938 528.128 418.938 528.128C418.938 528.128 453.563 525.655 453.069 520.708C452.574 515.762 450.101 499.439 450.101 499.439L413.497 492.019Z" fill="#FFD967"/>
<path d="M523.557 497.267V512.601C523.557 512.601 524.051 519.032 523.557 520.515C523.062 521.999 515.642 540.301 540.375 536.344C565.107 532.387 555.214 517.053 555.214 517.053L549.278 494.794L523.557 497.267Z" fill="#FFD967"/>
<path d="M515.271 113.121C528.999 113.121 540.127 101.992 540.127 88.2646C540.127 74.5371 528.999 63.4087 515.271 63.4087C501.543 63.4087 490.415 74.5371 490.415 88.2646C490.415 101.992 501.543 113.121 515.271 113.121Z" fill="#FEBDC7"/>
<path d="M532.459 101.991C532.459 101.991 528.996 134.638 532.459 140.573C535.921 146.509 497.339 134.638 497.339 134.638C497.339 134.638 505.748 112.379 502.78 103.475C499.812 94.5714 532.459 101.991 532.459 101.991Z" fill="#FEBDC7"/>
<path d="M552.245 195.974L560.159 217.738L486.457 226.147C486.457 226.147 478.543 224.663 478.543 218.233C478.543 211.802 470.134 189.049 470.134 189.049C470.134 189.049 449.539 172.356 439.646 167.904C436.06 166.292 441.424 166.958 444.442 160.112C445.347 158.054 446.43 155.883 447.612 153.682C448.577 151.876 449.616 150.046 450.679 148.24C451.97 146.039 453.301 143.873 454.592 141.81C458.5 135.573 462.066 130.329 463.209 128.207C466.671 121.777 499.224 121.203 499.224 121.203C508.533 127.06 535.427 128.207 535.427 128.207C535.427 128.207 553.927 135.948 561.633 141.81C562.192 142.231 552.245 195.974 552.245 195.974Z" fill="#EAEAEA"/>
<path d="M536.245 58.4265V57.8363L535.544 57.8753C531.559 54.8406 526.935 52.7533 522.023 51.7718C517.111 50.7903 512.04 50.9403 507.195 52.2104C511.84 53.4379 516.158 55.6693 519.847 58.7473L496.022 60.0709L485.966 82.4174H492.771L498.256 72.3615V82.4174H521.273L522.838 74.5961L527.183 82.4174H531.705C531.733 82.975 531.776 83.5287 531.776 84.0933L527.307 127.11L548.536 118.172V84.0933C548.54 79.1678 547.437 74.3044 545.31 69.8619C543.183 65.4195 540.085 61.5115 536.245 58.4265Z" fill="#2B2949"/>
<path d="M569.558 172.231L568.074 211.308L564.117 286.989C564.117 286.989 569.558 319.635 555.708 319.141C541.858 318.646 552.245 280.558 552.245 280.558L548.288 220.706L552.245 178.661L569.558 172.231Z" fill="#FEBDC7"/>
<path d="M573.514 193.501C573.514 197.953 548.535 196.716 548.535 196.716L535.427 128.208C535.427 128.208 553.926 135.949 561.633 141.81C563.447 143.692 564.93 145.866 566.021 148.241C566.609 149.828 567.168 151.669 567.697 153.682C568.222 155.68 568.711 157.852 569.171 160.112C571.33 171.138 572.781 182.29 573.514 193.501Z" fill="#EAEAEA"/>
</g>
<defs>
<clipPath id="clip0">
<rect width="478" height="519" fill="white" transform="translate(118.001 23)"/>
</clipPath>
</defs>
</svg>
