<svg width="238" height="237" viewBox="0 0 238 237" fill="none" xmlns="http://www.w3.org/2000/svg">
<g clip-path="url(#clip0)">
<path d="M137.889 143.346L99.2186 116.253C98.8593 116.001 98.6149 115.616 98.5388 115.183C98.4627 114.751 98.5611 114.306 98.8126 113.946L129.164 70.6539C129.417 70.2948 129.802 70.0504 130.234 69.9743C130.667 69.8982 131.112 69.9967 131.473 70.248L170.142 97.341C170.502 97.5937 170.746 97.9785 170.822 98.411C170.898 98.8436 170.8 99.2886 170.549 99.6488L140.198 142.939C139.945 143.299 139.56 143.544 139.127 143.62C138.695 143.696 138.249 143.598 137.889 143.346Z" fill="#2945FF"/>
<path d="M146.584 113.949L123.893 98.0511C123.631 97.8673 123.407 97.6336 123.235 97.3633C123.063 97.0931 122.946 96.7916 122.89 96.4761C122.835 96.1606 122.842 95.8373 122.912 95.5246C122.981 95.2119 123.111 94.9159 123.295 94.6536C123.479 94.3912 123.713 94.1677 123.983 93.9957C124.254 93.8237 124.555 93.7066 124.871 93.6511C125.187 93.5956 125.51 93.6028 125.823 93.6723C126.136 93.7418 126.432 93.8722 126.694 94.056L149.385 109.954C149.915 110.325 150.276 110.892 150.388 111.529C150.5 112.166 150.354 112.821 149.983 113.351C149.611 113.881 149.045 114.242 148.407 114.354C147.77 114.466 147.114 114.32 146.584 113.949Z" fill="white"/>
<path d="M141.377 121.377L118.686 105.479C118.423 105.295 118.199 105.062 118.027 104.791C117.855 104.521 117.737 104.22 117.682 103.904C117.626 103.588 117.633 103.265 117.702 102.952C117.772 102.639 117.902 102.343 118.086 102.08C118.27 101.818 118.504 101.594 118.775 101.422C119.045 101.25 119.347 101.133 119.663 101.078C119.979 101.022 120.302 101.03 120.615 101.099C120.928 101.169 121.224 101.3 121.487 101.484L144.178 117.382C144.707 117.753 145.067 118.32 145.179 118.957C145.291 119.593 145.145 120.249 144.774 120.778C144.403 121.308 143.836 121.668 143.199 121.78C142.562 121.893 141.907 121.747 141.377 121.377Z" fill="white"/>
<path d="M136.113 128.884L113.422 112.987C113.16 112.803 112.936 112.569 112.764 112.299C112.592 112.029 112.475 111.727 112.42 111.412C112.364 111.096 112.371 110.773 112.441 110.46C112.51 110.147 112.641 109.851 112.825 109.589C113.009 109.327 113.242 109.103 113.513 108.931C113.783 108.759 114.085 108.642 114.4 108.587C114.716 108.531 115.039 108.538 115.352 108.608C115.665 108.677 115.961 108.808 116.223 108.992L138.914 124.889C139.444 125.261 139.805 125.827 139.917 126.464C140.029 127.101 139.883 127.757 139.512 128.287C139.141 128.817 138.574 129.177 137.937 129.289C137.299 129.401 136.643 129.256 136.113 128.884V128.884Z" fill="white"/>
<path d="M146.522 99.2549L137.733 93.0973C137.47 92.9136 137.246 92.6799 137.074 92.4096C136.901 92.1393 136.784 91.8377 136.728 91.5221C136.673 91.2064 136.68 90.8829 136.749 90.57C136.819 90.2571 136.949 89.961 137.133 89.6985C137.317 89.436 137.551 89.2124 137.822 89.0404C138.092 88.8683 138.394 88.7513 138.71 88.6959C139.026 88.6405 139.349 88.6479 139.662 88.7176C139.975 88.7873 140.271 88.918 140.534 89.1021L149.323 95.2598C149.853 95.6311 150.213 96.1976 150.325 96.8348C150.437 97.472 150.292 98.1276 149.92 98.6574C149.549 99.1871 148.982 99.5477 148.345 99.6598C147.707 99.7719 147.052 99.6262 146.522 99.2549Z" fill="white"/>
<path d="M195.215 236.755H115.935L115.92 236.31L112.135 128.082H199.015L195.215 236.755Z" fill="#AFADCD"/>
<path d="M134.848 148.135H128.818V222.731H134.848V148.135Z" fill="#9698B4"/>
<path d="M158.591 148.135H152.561V222.731H158.591V148.135Z" fill="#9698B4"/>
<path d="M182.335 148.135H176.305V222.731H182.335V148.135Z" fill="#9698B4"/>
<path d="M223.468 168.208L223.167 167.859L147.11 79.6538L159.222 69.2178L159.523 69.5664L235.579 157.772L223.468 168.208Z" fill="#AFADCD"/>
<path d="M220.399 96.739C218.189 94.1726 215.289 92.2938 212.043 91.3257C208.797 90.3575 205.341 90.3407 202.086 91.2771C198.83 92.2135 195.912 94.0638 193.677 96.6085C191.442 99.1532 189.984 102.285 189.477 105.634L193.103 109.84C192.773 106.876 193.401 103.884 194.895 101.302C196.389 98.7209 198.67 96.6853 201.405 95.4937C204.14 94.302 207.184 94.0169 210.093 94.6802C213.002 95.3434 215.621 96.92 217.569 99.1793C219.516 101.439 220.689 104.262 220.915 107.235C221.141 110.209 220.409 113.177 218.826 115.705C217.243 118.233 214.892 120.187 212.117 121.283C209.343 122.378 206.29 122.557 203.406 121.792L207.033 125.998C210.42 125.991 213.735 125.013 216.583 123.179C219.431 121.346 221.693 118.734 223.1 115.654C224.508 112.574 225.002 109.154 224.524 105.802C224.046 102.45 222.616 99.3045 220.403 96.7402L220.399 96.739Z" fill="#AFADCD"/>
<path d="M49.8507 230.759H43.1462L39.9551 204.908H49.8526L49.8507 230.759Z" fill="#FEB8B8"/>
<path d="M30.2168 236.982H51.2874V228.844H38.2448C36.1157 228.844 34.0737 229.689 32.5682 231.194C31.0626 232.699 30.2168 234.741 30.2168 236.869V236.982Z" fill="#413E70"/>
<path d="M47.4941 190.701L52.1188 195.554L73.0425 180.033L66.2174 172.871L47.4941 190.701Z" fill="#FEB8B8"/>
<path d="M56.8836 197.778L47.8841 188.338L41.9902 193.953L56.5289 209.203L56.6106 209.125C57.3739 208.398 57.9864 207.528 58.4132 206.564C58.84 205.6 59.0727 204.562 59.0981 203.508C59.1234 202.454 58.9409 201.406 58.5609 200.423C58.1809 199.439 57.611 198.541 56.8836 197.778V197.778Z" fill="#413E70"/>
<path d="M0.828684 119.879C0.404379 119.196 0.134878 118.429 0.0391468 117.631C-0.056584 116.834 0.0237749 116.025 0.274589 115.261C0.525403 114.498 0.940567 113.799 1.49084 113.213C2.04112 112.627 2.71314 112.169 3.45957 111.871L29.7818 44.8086L40.0421 50.9499L10.8017 115.285C11.2195 116.572 11.1505 117.968 10.6077 119.207C10.0649 120.447 9.08597 121.445 7.85655 122.011C6.62713 122.577 5.23263 122.673 3.93731 122.28C2.642 121.887 1.53591 121.033 0.828684 119.879Z" fill="#FEB8B8"/>
<path d="M100.739 124.685C99.9371 124.628 99.1574 124.395 98.455 124.004C97.7526 123.613 97.1445 123.072 96.6737 122.421C96.2029 121.769 95.8807 121.022 95.7299 120.233C95.5791 119.443 95.6034 118.63 95.801 117.851L56.9688 57.1657L67.9669 52.4717L102.878 113.918C104.167 114.335 105.258 115.21 105.945 116.378C106.631 117.546 106.864 118.925 106.6 120.254C106.336 121.582 105.594 122.767 104.513 123.585C103.433 124.402 102.09 124.794 100.739 124.687V124.685Z" fill="#FEB8B8"/>
<path d="M30.041 113.164L36.9145 215.287L53.3406 213.838L56.7223 138.494L65.9016 170.852L85.7095 172.301L77.8693 108.334L30.041 113.164Z" fill="#413E70"/>
<path d="M68.8004 166.022L65.9002 170.852L45.6113 184.858L60.1049 192.585C60.1049 192.585 88.1258 177.131 85.7104 172.301L68.8004 166.022Z" fill="#413E70"/>
<path d="M48.2422 20.0604C48.2422 12.4639 54.4025 6.30566 62.0015 6.30566C69.6006 6.30566 75.7609 12.4639 75.7609 20.0604C75.7609 26.9784 70.6519 32.7036 64 33.6711L62.0015 42L50.5 39.5L53.6598 31C50.3668 28.4869 48.2422 24.5217 48.2422 20.0604Z" fill="#FEB8B8"/>
<path d="M15.6562 71.8453L21.3742 55.7385C22.6464 52.1547 24.6169 48.8587 27.1717 46.0412C29.7265 43.2237 32.8149 40.9407 36.2582 39.3243C43.9975 36.4741 52.4148 36.0135 60.4191 38.0022L62.4999 38.5185C68.0486 39.863 73.2473 42.373 77.7503 45.8816C81.2738 48.6584 84.4438 52.1743 84.726 55.9562C84.7274 55.9642 84.7297 55.9721 84.7329 55.9797C85.7088 60.2558 86.1917 82.4717 86.1917 82.4717H77.5832L78.9449 112.415L78.8349 112.198C78.8349 112.198 29.1836 121.591 29.1836 116.762V85.8513L28.1658 74.6594L15.6562 71.8453Z" fill="#FFD967"/>
<path d="M64.0619 13.8921L74.7457 14.3201C76.0899 14.316 77.5575 14.2686 78.5813 13.3997C80.1234 12.0886 79.8652 9.61463 79.0393 7.76649C76.7376 2.6206 71.6033 0.777066 65.9655 0.92847C60.3276 1.07987 54.4199 2.99013 51.3839 7.73934C48.3479 12.4885 47.5276 18.4858 48.6711 24.0044C49.993 21.1983 52.0282 18.7878 54.5734 17.0137C57.1185 15.2396 60.0847 14.1639 63.1757 13.894L64.0619 13.8921Z" fill="#FF862F"/>
</g>
<defs>
<clipPath id="clip0">
<rect width="238" height="237" fill="white"/>
</clipPath>
</defs>
</svg>
