<svg width="220" height="236" viewBox="0 0 220 236" fill="none" xmlns="http://www.w3.org/2000/svg">
<g clip-path="url(#clip0)">
<path d="M0.0974083 98.3508C0.752819 105.735 4.93434 112.419 7.48607 119.451C11.0956 129.438 11.4361 140.316 8.45827 150.51C7.85092 152.605 7.10156 154.707 7.10156 156.853C7.10156 164.25 15.5192 169.161 23.1679 172.426C42.609 180.689 62.8859 186.823 83.6448 190.72C90.4327 192.004 98.9115 192.558 103.207 187.73C105.269 185.412 105.767 182.385 107.281 179.784C111.141 173.15 120.536 170.574 128.969 169.097C139.135 167.318 149.397 166.136 159.701 165.556C170.074 164.972 181.852 164.462 188.727 157.645C193.096 153.31 194.368 147.328 194.543 141.678C195.113 123.143 186.267 103.086 197.621 87.034C202.381 80.3017 210.154 75.3848 214.88 68.6328C221.72 58.8492 221.13 46.4235 216.499 35.9969C211.867 25.5703 203.664 16.7055 195.578 8.01773C192.904 5.14588 190.051 2.1581 186.035 0.826075C181.856 -0.560637 177.117 0.0758507 172.636 0.732023C152.253 3.71105 131.097 6.95691 114.001 17.1888C105.512 22.2698 98.42 28.86 90.8434 34.9208C74.4822 48.0158 55.5277 60.1113 33.9232 65.2819C16.3713 69.4836 -1.47995 80.8157 0.0974083 98.3508Z" fill="white"/>
<path d="M142.753 221.152C143.256 214.206 143.103 208.88 142.441 208.336C142.16 208.102 141.901 207.258 141.695 206.367C142.404 205.835 142.784 205.213 142.613 204.491C141.783 201.022 128.651 175.477 126.539 175.012C124.426 174.546 124.863 136.692 124.863 136.692L127.946 107.816H127.902C128.153 106.252 128.579 104.721 129.172 103.252C129.291 102.961 129.416 102.68 129.541 102.402C132.093 102.492 134.534 101.358 136.643 98.3727C138.94 95.1218 141.074 92.2304 143.009 89.6953C147.578 86.1319 153.201 80.6304 154.833 74.2506C157.719 62.9726 144.535 51.4321 144.535 51.4321L140.431 48.6657C140.378 48.5094 140.332 48.3532 140.288 48.1969C140.244 48.0406 140.207 47.8843 140.172 47.7405C141.12 47.6286 142.052 47.4126 142.953 47.0966C143.36 47.3767 143.833 47.5461 144.325 47.5883C144.818 47.6305 145.312 47.544 145.761 47.3373L145.818 47.306C145.971 47.2673 146.12 47.215 146.264 47.1497C146.713 46.9048 147.137 46.6169 147.531 46.2901C149.135 45.1085 151.051 44.4552 152.801 43.5112C155.782 41.9077 158.384 39.2664 159.142 35.9561C159.354 34.883 159.468 33.7928 159.483 32.699C159.566 31.9102 159.5 31.1129 159.289 30.3484C159.083 29.7482 158.699 29.2262 158.459 28.6386C157.938 27.3632 158.147 25.9253 158.119 24.5468C158.081 21.9493 157.183 19.3236 155.366 17.4637C153.55 15.6039 150.832 14.6067 148.305 15.1475C147.628 15.3047 146.965 15.5137 146.32 15.7727C146.03 15.8789 145.743 15.9915 145.456 16.0852C144.323 16.501 143.193 16.8167 142.023 16.5447C140.622 16.2165 139.402 15.0381 137.966 15.2069C137.667 15.247 137.376 15.3357 137.105 15.4694C136.59 15.6351 136.107 15.8889 135.679 16.2196C135.03 16.6826 134.416 17.1925 133.841 17.745C133.111 18.4484 132.412 19.2923 132.309 20.302C132.283 20.7198 132.341 21.1384 132.478 21.5338C132.615 21.9292 132.829 22.2935 133.107 22.6057C131.441 23.3823 129.954 24.4992 128.743 25.8848C127.532 27.2704 126.624 28.8941 126.076 30.6519C125.528 32.4097 125.353 34.2627 125.561 36.0923C125.77 37.9219 126.358 39.6876 127.288 41.2763C127.263 41.4201 127.237 41.5659 127.21 41.7139C127.007 42.8187 126.746 43.9121 126.429 44.9898C126.439 44.7891 126.469 44.59 126.52 44.3959C126.311 44.349 126.096 44.3083 125.874 44.2708H125.774C125.579 44.2375 125.381 44.2083 125.181 44.1833H125.131C122.132 43.8051 118.472 44.1395 116.394 45.3305C112.984 47.2974 110.319 50.3382 108.814 53.9796C106.623 56.1942 104.942 58.8612 103.886 61.7942C102.351 61.0676 100.665 60.7183 98.9685 60.7752C96.4408 55.7739 91.6601 49.541 85.394 56.2021C78.8003 63.2133 86.8981 65.267 92.4496 65.8703C92.6332 66.5126 92.9199 67.1207 93.2984 67.6708C93.7002 68.2802 94.1411 68.8629 94.6184 69.415C94.4408 69.4714 94.2516 69.4811 94.0692 69.4431C92.7929 69.0868 92.8865 82.1465 98.594 85.9569C97.6459 88.3389 96.416 90.5983 94.9305 92.6868C92.8284 95.6907 91.1748 98.9856 90.0218 102.467C89.432 104.284 89.0108 106.012 89.1293 107C89.1413 107.113 89.1643 107.225 89.198 107.334C89.2127 107.38 89.2304 107.425 89.251 107.469C89.2707 107.509 89.2937 107.548 89.3197 107.584C89.3438 107.617 89.371 107.648 89.4008 107.675C89.4286 107.701 89.4589 107.724 89.4913 107.744C89.524 107.763 89.5585 107.779 89.5943 107.791C89.6311 107.801 89.6686 107.809 89.7066 107.813H89.7254C89.7669 107.816 89.8086 107.816 89.8502 107.813H89.8752C89.9212 107.809 89.9671 107.803 90.0125 107.794H90.0437L90.1841 107.756H90.2309L90.3744 107.7L90.4369 107.675L90.5929 107.6L90.6615 107.566L90.8394 107.463L90.9049 107.425L91.1265 107.284L91.1702 107.256L91.4542 107.053C91.1796 107.591 90.8613 108.175 90.4961 108.779C88.6925 111.729 85.7279 115.149 81.3591 116.112C73.2456 117.897 52.3659 144.629 52.3659 144.629C52.3659 144.629 45.9282 144.182 48.537 164.737C51.1458 185.293 51.6388 196.449 51.6388 196.449L51.7543 196.52C49.3078 199.309 44.318 204.316 39.9804 204.376C33.964 204.457 30.419 208.421 33.2774 210.899C36.1359 213.378 67.2916 209.474 67.2916 209.474C67.2916 209.474 67.4976 201.319 66.0153 197.571C66.2643 197.351 66.4979 197.114 66.7143 196.861L65.1759 155.635C65.1759 155.635 84.6263 138.933 94.1097 137.314C94.0473 137.28 93.9849 137.249 93.9256 137.217C94.5256 137.123 95.1356 137.112 95.7387 137.183C104.027 138.311 110.318 176.159 110.318 176.159C110.318 176.159 111.844 182.117 116.4 186.709C120.956 191.3 131.067 209.039 131.067 209.039L131.488 208.993L131.544 209.089C131.544 211.778 131.135 215.813 129.048 218.961C125.615 224.143 135.248 226.15 135.248 226.15C135.248 226.15 142.254 228.098 142.753 221.152Z" fill="url(#paint0_linear)"/>
<path d="M54.6625 194.807C54.6625 194.807 47.4134 204.35 41.4157 204.435C35.4179 204.519 31.8823 208.455 34.7345 210.918C37.5867 213.381 68.6676 209.511 68.6676 209.511C68.6676 209.511 68.9609 197.783 66.271 196.07C63.581 194.357 54.6625 194.807 54.6625 194.807Z" fill="#444176"/>
<path d="M132.505 206.264C132.505 206.264 133.616 213.822 130.189 218.976C126.763 224.131 136.374 226.119 136.374 226.119C136.374 226.119 143.355 228.066 143.864 221.161C144.372 214.256 144.207 208.971 143.552 208.408C142.896 207.845 142.35 203.96 142.35 203.96L132.505 206.264Z" fill="#444176"/>
<path d="M132.2 209.124C132.2 209.124 122.102 191.482 117.559 186.931C113.015 182.379 111.489 176.44 111.489 176.44C111.489 176.44 105.204 138.808 96.938 137.68C88.6716 136.552 65.9944 155.966 65.9944 155.966L67.6108 196.939C62.6897 202.653 53.0347 196.577 53.0347 196.577C53.0347 196.577 52.5385 185.461 49.936 165.022C47.3334 144.582 53.7462 145.016 53.7462 145.016C53.7462 145.016 74.551 118.447 82.6457 116.671C87.0145 115.718 89.9541 112.317 91.7547 109.385C92.6669 107.908 93.4161 106.336 93.989 104.696L128.574 108.4L125.51 137.111C125.51 137.111 125.085 174.746 127.195 175.212C129.304 175.678 142.405 201.081 143.235 204.529C144.065 207.977 132.2 209.124 132.2 209.124Z" fill="#413E70"/>
<g opacity="0.1">
<path opacity="0.1" d="M95.3178 137.786C94.9426 137.565 94.5284 137.417 94.0977 137.352C85.8313 136.226 63.1541 155.638 63.1541 155.638L64.7737 196.621C63.2977 198.334 61.3941 198.987 59.4688 199.062C62.3927 199.743 65.7785 199.687 68.1033 196.977L66.4713 155.985C66.4713 155.985 85.8625 139.396 95.3178 137.786Z" fill="black"/>
<path opacity="0.1" d="M143.706 204.586C142.876 201.147 129.776 175.734 127.666 175.268C125.557 174.803 125.981 137.168 125.981 137.168L129.045 108.457L125.728 108.101L122.664 136.811C122.664 136.811 122.239 174.446 124.349 174.912C126.458 175.378 139.559 200.781 140.389 204.229C140.95 206.564 135.708 207.836 132.241 208.415L132.675 209.165C132.675 209.165 144.536 208.033 143.706 204.586Z" fill="black"/>
</g>
<path d="M149.079 59.963C149.079 59.963 116.372 58.8595 122.351 54.4615C126.04 51.7452 127.634 46.4344 128.318 42.7615C128.565 41.4636 128.73 40.1512 128.811 38.8324C128.811 38.8324 146.245 37.1006 141.958 43.5992C140.834 45.3059 140.788 47.2408 141.334 49.1663C142.872 54.5928 149.079 59.963 149.079 59.963Z" fill="#FFBEC7"/>
<path d="M113.502 52.0732C113.502 52.0732 105.588 56.5057 104.028 66.6584C102.467 76.811 101.185 66.3458 101.185 66.3458C101.185 66.3458 96.6505 70.6594 95.2556 70.2718C93.8607 69.8842 94.1072 85.5071 101.562 87.5076C109.017 89.5082 114.906 56.7776 114.906 56.7776L113.502 52.0732Z" fill="#FFD967"/>
<path opacity="0.05" d="M113.502 52.0732C113.502 52.0732 105.588 56.5057 104.028 66.6584C102.467 76.811 101.185 66.3458 101.185 66.3458C101.185 66.3458 96.6505 70.6594 95.2556 70.2718C93.8607 69.8842 94.1072 85.5071 101.562 87.5076C109.017 89.5082 114.906 56.7776 114.906 56.7776L113.502 52.0732Z" fill="#22211D"/>
<path d="M102.155 66.4551C102.155 66.4551 96.0764 47.0749 86.6211 57.112C77.1658 67.149 98.0268 66.9739 98.0268 66.9739L102.155 66.4551Z" fill="#FFBEC7"/>
<path opacity="0.1" d="M141.961 43.6022C140.838 45.3089 140.791 47.2438 141.337 49.1693C138.779 49.5037 136.178 49.0739 133.862 47.934C131.546 46.7941 129.618 44.9947 128.318 42.7614C128.566 41.4635 128.73 40.1511 128.811 38.8322C128.811 38.8322 146.249 37.1005 141.961 43.6022Z" fill="black"/>
<path d="M152.645 37.5449C153.679 30.3704 148.712 23.7142 141.549 22.6778C134.387 21.6414 127.742 26.6173 126.707 33.7917C125.673 40.9662 130.64 47.6224 137.803 48.6588C144.965 49.6952 151.61 44.7194 152.645 37.5449Z" fill="#FFBEC7"/>
<path opacity="0.1" d="M128.573 108.407L128.124 112.605C124.308 111.582 98.1261 104.79 92.584 108.872C92.3213 109.07 92.0437 109.246 91.7539 109.401C92.6661 107.923 93.4153 106.351 93.9882 104.712L128.573 108.407Z" fill="black"/>
<path d="M155.851 75.089C154.107 81.8939 147.794 87.6767 143.1 91.1745C141.374 92.4736 139.57 93.6657 137.699 94.7442C137.699 94.7442 132.84 97.5793 130.269 103.915C129.289 106.341 128.761 108.926 128.708 111.542C128.708 111.542 98.6822 103.287 92.7032 107.685C89.5608 109.998 90.0569 106.729 91.2365 103.109C92.3852 99.6472 94.0326 96.3722 96.1264 93.3876C97.7772 91.0088 99.8493 87.5235 100.473 84.2758C101.3 79.9621 106.914 63.5547 109.523 56.0527C110.921 51.9464 113.763 48.4899 117.518 46.3282C119.939 44.956 124.471 44.7278 127.629 45.4249C127.629 45.4249 126.611 48.8164 131.286 49.4228C131.791 49.4884 132.294 49.5791 132.79 49.6948C134.662 50.1355 139.278 51.0139 141.325 49.5322L145.572 52.3861C145.572 52.3861 158.725 63.8766 155.851 75.089Z" fill="#FFD967"/>
<path opacity="0.1" d="M142.033 29.7896C142.329 29.2332 142.114 28.5142 141.69 28.0454C141.234 27.6063 140.693 27.2649 140.101 27.042L137.252 25.7479C136.293 25.3681 135.4 24.8407 134.603 24.185C133.841 23.491 133.292 22.4876 133.395 21.4655C133.498 20.4434 134.194 19.6213 134.924 18.9242C135.497 18.3749 136.109 17.8682 136.756 17.4082C137.273 16.9908 137.885 16.7093 138.538 16.5892C139.964 16.4204 141.181 17.5926 142.579 17.9208C144.685 18.4147 146.711 16.9549 148.82 16.5048C151.342 15.9672 154.066 16.9612 155.863 18.8086C157.661 20.6559 158.572 23.2691 158.609 25.851C158.631 27.2233 158.432 28.6643 158.95 29.9146C159.187 30.4991 159.574 31.018 159.777 31.6151C159.987 32.3753 160.053 33.1686 159.97 33.9532C159.96 35.0446 159.851 36.1328 159.642 37.204C158.887 40.4955 156.291 43.1181 153.32 44.706C151.573 45.6438 149.663 46.294 148.065 47.4661C147.677 47.7899 147.259 48.0757 146.817 48.3195C146.37 48.5227 145.879 48.6074 145.39 48.5652C144.902 48.5231 144.432 48.3555 144.027 48.0788C143.744 47.8969 143.51 47.6475 143.347 47.3529C143.183 47.0584 143.095 46.7278 143.091 46.3909C143.122 45.7219 143.571 45.1562 143.918 44.5841C144.823 43.0931 145.035 40.98 143.83 39.7141C143.303 39.1608 142.582 38.8357 142.061 38.27C141.225 37.3322 141.125 35.9818 141.097 34.7315C141.016 32.3965 140.956 29.9646 141.93 27.8547" fill="black"/>
<path d="M142.192 27.8569C141.736 27.4178 141.195 27.0764 140.603 26.8535L137.754 25.5594C136.795 25.1796 135.901 24.6523 135.105 23.9965C134.343 23.3026 133.794 22.2992 133.897 21.277C134 20.2549 134.696 19.4328 135.426 18.7357C135.999 18.1864 136.611 17.6797 137.258 17.2197C137.775 16.8023 138.387 16.5208 139.04 16.4007C140.466 16.2319 141.683 17.4041 143.081 17.7323C145.187 18.2262 147.213 16.7665 149.322 16.3163C151.844 15.7787 154.568 16.7727 156.365 18.6201C158.163 20.4674 159.074 23.0806 159.111 25.6626C159.133 27.0348 158.933 28.4758 159.451 29.7261C159.689 30.3107 160.076 30.8296 160.278 31.4266C160.489 32.1869 160.555 32.9801 160.472 33.7647C160.458 34.8522 160.346 35.9362 160.135 37.0031C159.38 40.2946 156.783 42.9171 153.813 44.5051C152.065 45.4428 150.155 46.093 148.558 47.2652C148.17 47.589 147.752 47.8747 147.309 48.1185C146.863 48.3218 146.372 48.4064 145.883 48.3643C145.394 48.3221 144.925 48.1546 144.52 47.8778C144.236 47.6959 144.003 47.4465 143.839 47.152C143.676 46.8574 143.588 46.5268 143.583 46.1899C143.615 45.521 144.064 44.9552 144.41 44.3832C145.315 42.8921 145.528 40.7791 144.323 39.5131C143.796 38.9598 143.075 38.6348 142.554 38.069C141.717 37.1312 141.617 35.7809 141.589 34.5305C141.508 32.1956 141.112 29.995 142.086 27.8725" fill="#88455E"/>
<path opacity="0.1" d="M151.148 81.234C149.229 83.4564 146.468 86.7698 143.11 91.1741C141.384 92.4732 139.58 93.6654 137.708 94.7438C137.708 94.7438 132.849 97.5789 130.278 103.915C120.052 104.453 107.691 84.091 107.691 84.091L115.786 75.5981L129.585 85.4757L134.079 75.8325C135.271 73.2718 137.108 71.0666 139.411 69.4342C141.713 67.8018 144.4 66.7987 147.207 66.5238L147.422 66.5051C150.297 66.2425 151.957 67.9617 152.912 70.1373C153.692 71.9652 153.941 73.9771 153.629 75.9406C153.317 77.9041 152.457 79.7392 151.148 81.234Z" fill="black"/>
<g opacity="0.05">
<path opacity="0.05" d="M125.496 45.1965C125.496 45.1965 124.478 48.588 129.153 49.1945C129.658 49.2601 130.161 49.3507 130.657 49.4664C132.049 49.8005 133.466 50.0148 134.895 50.1072C134.055 49.9759 133.313 49.8196 132.788 49.6946C132.264 49.5696 131.79 49.4883 131.284 49.4226C126.603 48.8162 127.627 45.4247 127.627 45.4247C126.707 45.2292 125.773 45.11 124.834 45.0684C125.062 45.109 125.283 45.1496 125.496 45.1965Z" fill="black"/>
<path opacity="0.05" d="M145.575 52.389L141.328 49.5352C141.009 49.7572 140.657 49.927 140.285 50.0384L143.443 52.1609C143.443 52.1609 156.593 63.6483 153.719 74.8606C151.975 81.6655 145.662 87.4483 140.969 90.9461C139.242 92.2453 137.439 93.4374 135.567 94.5158C135.567 94.5158 130.708 97.3509 128.137 103.687C127.205 106.007 126.685 108.473 126.602 110.973C127.934 111.314 128.717 111.53 128.717 111.53C128.77 108.913 129.298 106.329 130.278 103.903C132.849 97.5666 137.708 94.7315 137.708 94.7315C139.579 93.6531 141.383 92.4609 143.109 91.1618C147.79 87.6671 154.116 81.8812 155.86 75.0763C158.725 63.8765 145.575 52.389 145.575 52.389Z" fill="black"/>
<path opacity="0.05" d="M90.5801 107.457L90.3555 107.614C90.4741 108.601 91.1356 108.845 92.7115 107.685C94.5838 106.316 98.7623 106.173 103.633 106.626C97.8729 105.929 92.7052 105.894 90.5801 107.457Z" fill="black"/>
</g>
<path opacity="0.05" d="M98.9805 88.5762C98.9805 88.5762 101.393 94.8278 104.741 97.094C108.089 99.3603 112.474 103.202 112.474 103.202" fill="black"/>
<path d="M144.595 201.212L139.564 179.45C137.417 175.878 135.211 173.958 133.36 172.936C130.976 171.467 129.079 171.476 128.48 171.53L127.806 170.817C125.241 167.188 123.88 157.688 123.88 157.688C123.746 153.234 120.928 150.218 117.302 148.18C111.192 144.513 102.429 143.804 100.566 143.694L99.0811 140.734L98.6816 140.637L98.588 140.45C98.276 140.365 97.9233 140.293 97.5832 140.224L100.211 86.2133L100.236 85.6913L110.612 86.1976C111.424 86.2065 112.208 85.9 112.8 85.3424C113.391 84.7847 113.744 84.0192 113.784 83.2065C113.825 82.3938 113.549 81.5971 113.016 80.9833C112.483 80.3696 111.733 79.9866 110.924 79.9147L98.7753 79.3208V79.0583L99.9111 55.7208V55.4583C100.452 55.0342 100.896 54.4978 101.21 53.8859C101.525 53.274 101.703 52.6012 101.734 51.9136C101.775 51.3074 101.695 50.6991 101.499 50.1242C101.302 49.5493 100.993 49.0194 100.59 48.5654C100.187 48.1115 99.6976 47.7427 99.1504 47.4805C98.6032 47.2183 98.0093 47.0681 97.4034 47.0386C96.7976 47.0091 96.1919 47.1009 95.6219 47.3086C95.0519 47.5164 94.529 47.8359 94.0837 48.2485C93.6385 48.6611 93.2798 49.1585 93.0287 49.7116C92.7777 50.2647 92.6392 50.8624 92.6215 51.4697C92.5851 52.1568 92.6976 52.8436 92.9513 53.483C93.205 54.1224 93.5939 54.6992 94.0913 55.1738V55.4364L92.9492 78.7769V79.0395L80.7883 78.4643C79.976 78.4555 79.1919 78.762 78.6003 79.3196C78.0088 79.8773 77.6558 80.6428 77.6154 81.4555C77.5751 82.2682 77.8505 83.0649 78.3838 83.6786C78.9172 84.2924 79.6671 84.6754 80.4763 84.7473L90.3466 85.2286L90.3217 85.7507L87.6598 140.453C83.8442 140.933 80.0729 141.718 76.3821 142.8L72.0882 158.07L59.5466 160.345L53.0122 174.724L46.9208 185.424C46.2749 185.661 45.6476 185.915 45.0485 186.174C22.3464 195.77 21.4258 219.602 21.4258 219.602C27.7512 230.405 59.6933 225.669 59.6933 225.669C77.9236 242.039 114.16 232.527 114.16 232.527C122.897 234.684 129.812 235.618 135.267 235.828C150.477 236.409 154.303 231.336 154.303 231.336C159.776 217.432 144.595 201.212 144.595 201.212Z" fill="url(#paint1_linear)"/>
<path d="M94.269 55.0414L91.3516 82.3867L97.1664 83.0092L100.084 55.6638L94.269 55.0414Z" fill="#2945FF"/>
<path d="M88.9122 83.6639L82.375 144.938L92.2329 145.993L98.7701 84.7192L88.9122 83.6639Z" fill="#F0F5FA"/>
<path opacity="0.05" d="M98.7857 84.7183L93.9824 84.2041L87.4452 145.478L92.2485 145.992L98.7857 84.7183Z" fill="black"/>
<path opacity="0.1" d="M88.9148 83.6651L88.6445 86.1982L98.5024 87.2535L98.7727 84.7204L88.9148 83.6651Z" fill="black"/>
<path opacity="0.1" d="M91.6487 79.6038L91.3516 82.3887L97.1664 83.0111L97.4635 80.2263L91.6487 79.6038Z" fill="black"/>
<path d="M109.578 81.773L79.5014 78.5534C77.8255 78.374 76.3217 79.5888 76.1427 81.2667C75.9636 82.9447 77.1772 84.4504 78.8532 84.6298L108.93 87.8494C110.606 88.0288 112.109 86.814 112.288 85.1361C112.467 83.4581 111.254 81.9524 109.578 81.773Z" fill="#2945FF"/>
<path d="M22.9103 220.54C22.9103 220.54 22.6575 196.096 46.8045 186.156L52.3965 175.462L58.2444 161.202L70.7018 158.389L74.2592 143.366C74.2592 143.366 87.9897 138.527 96.8833 140.309L98.662 143.366C98.662 143.366 121.542 143.113 122.556 155.588C122.556 155.588 124.844 167.047 128.148 169.085C128.148 169.085 133.74 167.813 139.332 175.962L145.433 196.843C145.433 196.843 161.448 211.866 156.617 225.616C156.617 225.616 150.008 235.037 116.452 228.673C116.452 228.673 80.6096 239.613 61.5304 224.61C61.5523 224.613 29.7755 230.724 22.9103 220.54Z" fill="#A8A8A8"/>
<path opacity="0.1" d="M38.9258 216.72C38.9258 216.72 44.0092 209.59 43.7564 204.498C43.5036 199.406 44.9547 186.978 44.9547 186.978" stroke="black" stroke-miterlimit="10"/>
<path opacity="0.1" d="M57.4844 197.621C57.4844 197.621 62.5678 188.2 62.0591 183.108C62.0591 183.108 67.3984 173.418 71.4645 174.196" stroke="black" stroke-miterlimit="10"/>
<path opacity="0.1" d="M85.4473 170.886C85.4473 170.886 99.4274 165.794 100.192 161.718" stroke="black" stroke-miterlimit="10"/>
<path opacity="0.1" d="M90.5312 182.599C90.5312 182.599 105.276 175.991 105.276 174.196H112.647C112.647 174.196 123.322 188.2 122.052 194.314" stroke="black" stroke-miterlimit="10"/>
<path opacity="0.1" d="M107.818 192.782C107.818 192.782 93.5822 191.763 88.4988 195.839C83.4154 199.915 74.2628 201.95 74.2628 201.95C74.2628 201.95 68.9235 213.41 66.892 215.448C64.8605 217.486 61.5527 224.616 61.5527 224.616" stroke="black" stroke-miterlimit="10"/>
<path opacity="0.1" d="M107.818 206.279C107.818 206.279 109.332 211.624 111.376 214.682C113.42 217.739 116.459 228.685 116.459 228.685" stroke="black" stroke-miterlimit="10"/>
<path opacity="0.1" d="M131.713 221.812C131.713 221.812 134.94 230.805 137.776 230.876" stroke="black" stroke-miterlimit="10"/>
<path opacity="0.1" d="M110.58 183.211C110.58 183.211 118.962 185.48 122.466 190.979C125.971 196.477 136.687 201.466 136.687 201.466" stroke="black" stroke-miterlimit="10"/>
<path opacity="0.1" d="M114.172 156.116C114.172 156.116 114.172 167.829 117.477 167.829C120.781 167.829 128.155 169.113 128.155 169.113" stroke="black" stroke-miterlimit="10"/>
<path opacity="0.1" d="M97.9848 142.216C97.9848 142.216 97.1392 162.449 92.8203 167.685" stroke="black" stroke-miterlimit="10"/>
<g opacity="0.05">
<path opacity="0.05" d="M144.931 196.602L138.83 175.721C133.238 167.572 127.646 168.844 127.646 168.844C124.342 166.809 122.054 155.359 122.054 155.359C121.037 142.881 98.16 143.137 98.16 143.137L96.3813 140.08C94.1283 139.63 91.5663 139.602 88.998 139.815C89.6222 139.877 90.2119 139.965 90.7892 140.08L92.568 143.137C92.568 143.137 115.448 142.884 116.462 155.359C116.462 155.359 118.75 166.819 122.054 168.857C122.054 168.857 127.646 167.585 133.238 175.734L139.339 196.614C139.339 196.614 155.354 211.624 150.523 225.378C150.523 225.378 147.262 230.026 133.694 230.586C151.984 231.258 156.115 225.378 156.115 225.378C160.946 211.624 144.931 196.602 144.931 196.602Z" fill="black"/>
<path opacity="0.05" d="M55.4483 224.358C50.0666 225.322 44.625 225.912 39.1621 226.125C45.5281 226.368 52.153 225.681 56.422 225.09C56.0953 224.852 55.7708 224.608 55.4483 224.358Z" fill="black"/>
<path opacity="0.05" d="M110.358 228.432C102.531 230.63 94.4741 231.906 86.3516 232.233C98.0693 232.658 109.169 230.213 113.747 229.038C112.649 228.854 111.516 228.654 110.358 228.432Z" fill="black"/>
</g>
<path opacity="0.05" d="M99.9878 55.5241L96.9531 55.1992L94.3059 80.0114L97.3406 80.3363L99.9878 55.5241Z" fill="black"/>
<path opacity="0.1" d="M100.092 55.674L99.88 57.662C98.9903 58.2533 97.9222 58.5144 96.8606 58.4003C95.799 58.2861 94.8106 57.8038 94.0664 57.0369L94.2786 55.0488L100.092 55.674Z" fill="black"/>
<path d="M101.914 54.0707C102.182 51.5542 100.363 49.2962 97.8512 49.0272C95.3389 48.7583 93.0847 50.5803 92.8162 53.0968C92.5477 55.6133 94.3667 57.8713 96.8789 58.1403C99.3912 58.4092 101.645 56.5872 101.914 54.0707Z" fill="#2945FF"/>
<path opacity="0.05" d="M101.923 54.0836C101.793 55.2913 101.189 56.3977 100.245 57.1597C99.3003 57.9216 98.0925 58.2768 96.8867 58.1471L97.8603 49.0322C98.4585 49.0961 99.0381 49.2775 99.5662 49.5661C100.094 49.8546 100.56 50.2447 100.938 50.7139C101.315 51.183 101.596 51.7222 101.765 52.3004C101.935 52.8786 101.988 53.4846 101.923 54.0836Z" fill="black"/>
<path d="M117.602 76.5108L114.412 81.6903L111.36 79.0365L107.179 75.398C107.179 75.398 99.4461 76.0232 94.4969 68.5212C92.3749 65.311 94.0257 63.473 96.6001 62.4259C98.7304 61.5795 101.076 61.4417 103.29 62.0326C105.505 62.6236 107.471 63.9121 108.898 65.708L117.602 76.5108Z" fill="#FFBEC7"/>
<path opacity="0.1" d="M117.601 76.5107L114.415 81.6902L111.363 79.0333L115.848 74.332L117.601 76.5107Z" fill="black"/>
<path d="M135.128 74.9857L130.634 84.6257L116.823 74.7481L108.74 83.241C108.74 83.241 127.283 113.787 137.73 99.0639C144.068 90.1209 149.173 83.8943 152.204 80.384C153.514 78.8902 154.376 77.0554 154.689 75.0917C155.002 73.128 154.754 71.1156 153.973 69.2873C153.018 67.0992 151.358 65.3956 148.484 65.6551L148.268 65.6769C145.459 65.9498 142.769 66.9519 140.465 68.5844C138.16 70.2169 136.321 72.4233 135.128 74.9857Z" fill="#FFD967"/>
</g>
<defs>
<linearGradient id="paint0_linear" x1="86.9037" y1="221.035" x2="109.428" y2="10.6222" gradientUnits="userSpaceOnUse">
<stop stop-color="#808080" stop-opacity="0.25"/>
<stop offset="0.54" stop-color="#808080" stop-opacity="0.12"/>
<stop offset="1" stop-color="#808080" stop-opacity="0.1"/>
</linearGradient>
<linearGradient id="paint1_linear" x1="74955.1" y1="160989" x2="80833.3" y2="47143.1" gradientUnits="userSpaceOnUse">
<stop stop-color="#808080" stop-opacity="0.25"/>
<stop offset="0.54" stop-color="#808080" stop-opacity="0.12"/>
<stop offset="1" stop-color="#808080" stop-opacity="0.1"/>
</linearGradient>
<clipPath id="clip0">
<rect width="220" height="236" fill="white"/>
</clipPath>
</defs>
</svg>
