<svg width="1637" height="893" viewBox="0 0 1637 893" fill="none" xmlns="http://www.w3.org/2000/svg">
<path opacity="0.1" fill-rule="evenodd" clip-rule="evenodd" d="M367.66 427.701V416H355.958H108.648V312.566H318.582H330.284V300.864V230.545V218.843H318.582H108.648V122.639H346.778H358.48V110.937V39.3036V27.6019H346.778H11.7017H0V39.3036V499.335V511.037H11.7017H355.958H367.66V499.335V427.701ZM96.9462 300.864V312.566V416V427.701H108.648H344.257H355.958V439.403V487.633V499.335H344.257H23.4034H11.7017V487.633V51.0053V39.3036H23.4034H335.077H346.778V51.0053V99.2353V110.937H335.077H108.648H96.9462V122.639V218.843V230.545H108.648H306.88H318.582V242.247V289.163V300.864H306.88H108.648H96.9462ZM410.333 0H398.631V11.7017V499.335V511.037H410.333H492.298H504V499.335V11.7017V0H492.298H410.333ZM894.956 361.855H905.725L906.617 351.123C907.5 340.507 907.969 332.021 907.969 325.837C907.969 288.25 899.96 254.702 883.567 225.556C867.671 196.078 845.131 173.233 816.102 157.255C787.498 140.83 755.097 132.752 719.221 132.752C682.889 132.752 649.86 140.837 620.415 157.231C590.992 173.614 567.812 196.621 551.025 226.064L551.01 226.09L550.995 226.117C534.615 255.199 526.539 287.879 526.539 323.866C526.539 360.324 534.848 393.459 551.681 422.982L551.736 423.078L551.792 423.173C569.126 452.284 593.5 475.01 624.615 491.301C640.691 499.717 657.981 505.919 676.441 509.955C642.035 511.254 610.709 519.244 582.682 534.135L582.649 534.153L582.616 534.171C552.374 550.486 528.501 573.207 511.215 602.228C493.857 631.372 485.298 664.366 485.298 700.88C485.298 737.396 493.857 770.575 511.174 800.118L511.194 800.153L511.215 800.188C528.528 829.255 552.655 851.978 583.338 868.281C614.069 884.61 648.567 892.651 686.56 892.651C722.302 892.651 754.235 885.293 782.008 870.201L782.038 870.184L782.068 870.168C810.311 854.604 831.875 832.543 846.51 804.164L851.597 794.299L842.014 788.698L779.046 751.896L769.206 746.145L763.198 755.829C754.118 770.464 742.893 781.228 729.561 788.492C716.506 795.405 702.027 798.928 685.904 798.928C657.627 798.928 635.125 790.074 617.445 772.79C600.343 755.224 591.347 731.665 591.347 700.88C591.347 670.108 600.545 646.834 618.009 629.717L618.055 629.672L618.1 629.626C635.844 611.848 658.144 602.831 685.904 602.831C701.939 602.831 716.353 606.531 729.381 613.826L729.558 613.925L729.738 614.018C742.961 620.832 754.133 631.32 763.198 645.93L769.206 655.615L779.046 649.864L842.014 613.062L851.471 607.534L850.435 605.46H878.121V762.655C878.121 803.317 889.238 836.149 913.202 859.159C937.001 882.01 970.013 892.651 1010.51 892.651C1026.81 892.651 1042.33 890.552 1057.02 886.286C1072.29 881.978 1085.59 875.398 1096.64 866.34L1103.23 860.942L1100.11 853.015L1077.16 794.525L1071.4 779.863L1059.03 789.606C1049.2 797.343 1036.58 801.557 1020.35 801.557C1006.88 801.557 998.349 797.888 992.864 792.166C987.182 785.809 983.514 775.89 983.514 760.684V605.46H1065.61H1077.31V593.758V528.039V516.338H1065.61H983.514V447.863V436.161H971.813H889.823H878.956L837.564 388.485L829.25 378.91L820.372 387.964C797.845 410.937 769.255 422.572 733.647 422.572C705.532 422.572 682.741 415.675 664.566 402.538C650.626 391.876 640.878 378.42 635.285 361.855H894.956ZM878.121 458.334C861.665 476.723 841.34 490.719 817.344 500.339C793.632 509.845 767.371 514.854 738.704 515.552C754.362 519.273 769.018 524.805 782.627 532.196C797.015 539.889 809.618 549.327 820.401 560.484V528.039V516.338H832.102H878.121V458.334ZM810.367 167.455C837.471 182.351 858.454 203.6 873.317 231.202C888.617 258.366 896.267 289.911 896.267 325.837C896.267 331.533 895.83 339.638 894.956 350.153H632.131H620.206C620.956 354.182 621.891 358.082 623.012 361.855C629.084 382.293 640.607 398.984 657.583 411.929C678.129 426.825 703.484 434.273 733.647 434.273C767.844 434.273 796.686 424.233 820.174 404.153C823.109 401.645 825.96 398.979 828.727 396.156L836.422 405.019L872.661 446.76C856.924 465.599 837.033 479.838 812.99 489.477C788.947 499.116 761.843 503.935 731.68 503.935C693.211 503.935 659.331 496.268 630.042 480.934C600.753 465.599 578.021 444.35 561.847 417.186C546.109 389.585 538.24 358.478 538.24 323.866C538.24 289.692 545.891 259.023 561.191 231.86C576.928 204.258 598.567 182.79 626.108 167.455C653.648 152.121 684.686 144.454 719.221 144.454C753.319 144.454 783.701 152.121 810.367 167.455ZM659.944 242.723L659.953 242.715L659.962 242.707C676.016 228.916 695.537 221.874 719.221 221.874C743.399 221.874 762.842 228.946 778.375 242.616C790.854 253.598 799.405 267.241 803.953 283.905H634.012C638.822 266.941 647.518 253.354 659.944 242.723ZM786.105 233.831C801.192 247.108 811.168 263.799 816.034 283.905C816.948 287.685 817.682 291.586 818.236 295.607H806.412H631.4H619.551C620.164 291.579 620.947 287.678 621.899 283.905C627.061 263.467 637.207 246.776 652.337 233.831C670.697 218.059 692.992 210.172 719.221 210.172C745.887 210.172 768.182 218.059 786.105 233.831ZM492.298 11.7017H480.597H422.034H410.333V23.4034V487.633V499.335H422.034H480.597H492.298V487.633V23.4034V11.7017ZM685.904 810.63C703.833 810.63 720.231 806.687 735.098 798.801C750.403 790.476 763.084 778.209 773.141 761.998L836.109 798.801C822.554 825.088 802.658 845.461 776.421 859.919C750.621 873.939 720.668 880.949 686.56 880.949C650.266 880.949 617.689 873.282 588.828 857.948C559.968 842.613 537.448 821.364 521.269 794.2C505.09 766.599 497 735.492 497 700.88C497 666.268 505.09 635.38 521.269 608.216C537.448 581.053 559.749 559.803 588.173 544.469C617.033 529.135 649.829 521.468 686.56 521.468C721.105 521.468 751.277 528.478 777.077 542.497C794.366 551.737 808.808 563.639 820.401 578.206C824.288 583.09 827.855 588.274 831.102 593.758C831.439 594.327 831.772 594.899 832.102 595.474C833.5 597.911 834.836 600.406 836.109 602.959L832.102 605.301L831.83 605.46L773.141 639.761C763.084 623.551 750.403 611.502 735.098 603.616C720.231 595.292 703.833 591.129 685.904 591.129C655.295 591.129 629.933 601.206 609.818 621.36C589.703 641.076 579.646 667.582 579.646 700.88C579.646 734.177 589.484 760.903 609.162 781.057C629.277 800.772 654.857 810.63 685.904 810.63ZM878.121 593.758H844.526H843.804H832.102V582.056V574.213V539.741V528.039H843.804H878.121H889.823V516.338V459.564V447.863H901.525H960.111H971.813V459.564V516.338V528.039H983.514H1053.91H1065.61V539.741V582.056V593.758H1053.91H983.514H971.813V605.46V760.684C971.813 777.771 975.967 790.914 984.275 800.115C992.583 808.878 1004.61 813.259 1020.35 813.259C1034 813.259 1045.96 810.596 1056.23 805.27C1059.78 803.431 1063.12 801.274 1066.26 798.801L1070.7 810.099L1089.22 857.29C1079.6 865.177 1067.8 871.091 1053.8 875.034C1040.25 878.978 1025.82 880.949 1010.51 880.949C972.031 880.949 942.296 870.872 921.307 850.719C900.318 830.565 889.823 801.21 889.823 762.655V605.46V593.758H878.121ZM1123.87 513.709H1112.17V525.411V876.349V888.051H1123.87H1205.86H1217.56V876.349V525.411V513.709H1205.86H1123.87ZM1119.71 462.226L1119.81 462.319L1119.91 462.411C1132.33 473.771 1147.69 479.28 1165.2 479.28C1183.19 479.28 1198.77 473.505 1210.87 461.386C1223.15 449.078 1229.37 433.821 1229.37 416.317C1229.37 399.471 1222.97 385.091 1210.38 374.072C1197.98 362.776 1182.65 357.298 1165.2 357.298C1147.58 357.298 1132.19 363.103 1119.81 374.915C1107.32 386.391 1101.02 401.137 1101.02 418.289C1101.02 435.476 1107.33 450.364 1119.71 462.226ZM1165.2 369C1180.06 369 1192.53 373.6 1202.58 382.801C1212.64 391.563 1217.67 402.736 1217.67 416.317C1217.67 430.776 1212.64 443.043 1202.58 453.12C1192.96 462.759 1180.5 467.578 1165.2 467.578C1150.33 467.578 1137.87 462.978 1127.81 453.777C1117.75 444.138 1112.72 432.309 1112.72 418.289C1112.72 404.269 1117.75 392.659 1127.81 383.458C1137.87 373.819 1150.33 369 1165.2 369ZM1265.27 799.998L1265.32 800.094L1265.38 800.188C1282.66 829.21 1306.54 851.93 1336.78 868.246C1367.07 884.588 1400.93 892.651 1438.1 892.651C1475.68 892.651 1509.76 884.6 1540.07 868.246C1570.33 851.922 1594.01 829.175 1610.87 800.101C1628.18 770.563 1636.74 737.389 1636.74 700.88C1636.74 664.391 1628.19 631.417 1610.85 602.288C1594 573.227 1570.32 550.489 1540.07 534.171C1509.76 517.817 1475.68 509.766 1438.1 509.766C1400.93 509.766 1367.07 517.828 1336.78 534.171C1306.54 550.486 1282.66 573.207 1265.38 602.228L1265.34 602.288L1265.31 602.349C1248.43 631.474 1240.12 664.424 1240.12 700.88C1240.12 737.338 1248.43 770.474 1265.27 799.998ZM1625.03 700.88C1625.03 735.492 1616.94 766.599 1600.77 794.2C1585.02 821.364 1562.94 842.613 1534.52 857.948C1506.09 873.282 1473.96 880.949 1438.1 880.949C1402.68 880.949 1370.76 873.282 1342.33 857.948C1313.91 842.613 1291.61 821.364 1275.43 794.2C1259.69 766.599 1251.82 735.492 1251.82 700.88C1251.82 666.268 1259.69 635.38 1275.43 608.216C1291.61 581.053 1313.91 559.803 1342.33 544.469C1370.76 529.135 1402.68 521.468 1438.1 521.468C1473.96 521.468 1506.09 529.135 1534.52 544.469C1562.94 559.803 1585.02 581.053 1600.77 608.216C1616.94 635.38 1625.03 666.268 1625.03 700.88ZM1504.5 772.225C1487.19 789.951 1465.37 798.928 1438.1 798.928C1410.85 798.928 1389.04 789.966 1371.74 772.27C1354.98 754.683 1346.16 731.278 1346.16 700.88C1346.16 670.481 1354.98 647.076 1371.74 629.489C1389.04 611.793 1410.85 602.831 1438.1 602.831C1465.37 602.831 1487.19 611.809 1504.5 629.535C1521.69 647.14 1530.69 670.528 1530.69 700.88C1530.69 731.232 1521.69 754.62 1504.5 772.225ZM1334.46 700.88C1334.46 733.739 1344.08 760.246 1363.32 780.399C1383 800.553 1407.93 810.63 1438.1 810.63C1468.27 810.63 1493.2 800.553 1512.87 780.399C1532.55 760.246 1542.39 733.739 1542.39 700.88C1542.39 668.02 1532.55 641.514 1512.87 621.36C1493.2 601.206 1468.27 591.129 1438.1 591.129C1407.93 591.129 1383 601.206 1363.32 621.36C1344.08 641.514 1334.46 668.02 1334.46 700.88ZM1205.86 525.411H1194.16H1135.57H1123.87V537.112V864.647V876.349H1135.57H1194.16H1205.86V864.647V537.112V525.411Z" fill="url(#paint0_linear)"/>
<defs>
<linearGradient id="paint0_linear" x1="1447.04" y1="837.521" x2="1067.96" y2="-290.859" gradientUnits="userSpaceOnUse">
<stop stop-color="#C1F0FF"/>
<stop offset="1" stop-color="#030094"/>
</linearGradient>
</defs>
</svg>
