<svg width="1629" height="863" viewBox="0 0 1629 863" fill="none" xmlns="http://www.w3.org/2000/svg">
<g clip-path="url(#clip0)">
<g opacity="0.1">
<mask id="path-1-outside-1" maskUnits="userSpaceOnUse" x="8.99219" y="-12" width="2054" height="536" fill="black">
<rect fill="white" x="8.99219" y="-12" width="2054" height="536"/>
<path d="M365.249 435.715V507.349H20.9922V47.3175H356.069V118.951H106.237V238.559H327.873V308.878H106.237V435.715H365.249Z"/>
<path d="M419.623 19.7156H501.589V507.349H419.623V19.7156Z"/>
<path d="M905.558 333.851C905.558 339.547 905.121 347.652 904.246 358.167H629.497C634.305 384.017 646.764 404.608 666.873 419.943C687.419 434.839 712.774 442.287 742.938 442.287C781.407 442.287 813.1 429.582 838.018 404.17L881.952 454.774C866.214 473.613 846.324 487.852 822.281 497.491C798.237 507.13 771.134 511.949 740.97 511.949C702.501 511.949 668.622 504.282 639.333 488.948C610.044 473.613 587.312 452.364 571.137 425.2C555.4 397.599 547.531 366.492 547.531 331.88C547.531 297.706 555.181 267.037 570.481 239.873C586.219 212.272 607.858 190.803 635.398 175.469C662.939 160.135 693.977 152.467 728.512 152.467C762.609 152.467 792.991 160.135 819.658 175.469C846.761 190.365 867.744 211.614 882.607 239.216C897.908 266.38 905.558 297.925 905.558 333.851ZM728.512 218.186C702.282 218.186 679.988 226.073 661.627 241.845C643.704 257.179 632.775 277.771 628.841 303.621H827.526C824.029 278.209 813.319 257.618 795.396 241.845C777.472 226.073 755.178 218.186 728.512 218.186Z"/>
<path d="M1112.16 511.949C1075.87 511.949 1043.31 504.282 1014.45 488.948C985.603 473.613 963.089 452.364 946.915 425.2C930.74 397.599 922.653 366.492 922.653 331.88C922.653 297.268 930.74 266.38 946.915 239.216C963.089 212.053 985.384 190.803 1013.8 175.469C1042.65 160.135 1075.44 152.467 1112.16 152.467C1146.69 152.467 1176.86 159.478 1202.65 173.498C1228.88 187.518 1248.55 207.671 1261.66 233.959L1198.71 270.761C1188.66 254.551 1175.98 242.502 1160.68 234.616C1145.82 226.292 1129.43 222.129 1111.5 222.129C1080.9 222.129 1055.55 232.206 1035.44 252.36C1015.33 272.076 1005.27 298.582 1005.27 331.88C1005.27 365.177 1015.11 391.903 1034.78 412.057C1054.89 431.772 1080.46 441.63 1111.5 441.63C1129.43 441.63 1145.82 437.687 1160.68 429.801C1175.98 421.476 1188.66 409.209 1198.71 392.998L1261.66 429.801C1248.11 456.088 1228.22 476.461 1201.99 490.919C1176.2 504.939 1146.26 511.949 1112.16 511.949Z"/>
<path d="M1514.7 488.29C1505.09 496.177 1493.28 502.091 1479.29 506.034C1465.74 509.978 1451.32 511.949 1436.02 511.949C1397.55 511.949 1367.82 501.872 1346.84 481.719C1325.85 461.565 1315.36 432.21 1315.36 393.655V224.758H1257.66V159.039H1315.36V78.8625H1397.33V159.039H1491.1V224.758H1397.33V391.684C1397.33 408.771 1401.48 421.914 1409.79 431.115C1418.09 439.878 1430.11 444.259 1445.85 444.259C1464.21 444.259 1479.51 439.439 1491.75 429.801L1514.7 488.29Z"/>
<path d="M1549.34 156.411H1631.31V507.349H1549.34V156.411ZM1590.65 98.5781C1575.79 98.5781 1563.33 93.9778 1553.28 84.7772C1543.22 75.1384 1538.2 63.3091 1538.2 49.2891C1538.2 35.2691 1543.22 23.6587 1553.28 14.4581C1563.33 4.81937 1575.79 0 1590.65 0C1605.52 0 1617.98 4.60031 1628.03 13.8009C1638.09 22.5634 1643.11 33.7356 1643.11 47.3175C1643.11 61.7756 1638.09 74.0431 1628.03 84.12C1618.41 93.7587 1605.95 98.5781 1590.65 98.5781Z"/>
<path d="M1863.48 511.949C1828.07 511.949 1796.16 504.282 1767.74 488.948C1739.33 473.613 1717.03 452.364 1700.86 425.2C1685.12 397.599 1677.25 366.492 1677.25 331.88C1677.25 297.268 1685.12 266.38 1700.86 239.216C1717.03 212.053 1739.33 190.803 1767.74 175.469C1796.16 160.135 1828.07 152.467 1863.48 152.467C1899.32 152.467 1931.45 160.135 1959.87 175.469C1988.28 190.803 2010.36 212.053 2026.1 239.216C2042.27 266.38 2050.36 297.268 2050.36 331.88C2050.36 366.492 2042.27 397.599 2026.1 425.2C2010.36 452.364 1988.28 473.613 1959.87 488.948C1931.45 504.282 1899.32 511.949 1863.48 511.949ZM1863.48 441.63C1893.64 441.63 1918.56 431.553 1938.23 411.399C1957.9 391.246 1967.74 364.739 1967.74 331.88C1967.74 299.02 1957.9 272.514 1938.23 252.36C1918.56 232.206 1893.64 222.129 1863.48 222.129C1833.31 222.129 1808.4 232.206 1788.72 252.36C1769.49 272.514 1759.87 299.02 1759.87 331.88C1759.87 364.739 1769.49 391.246 1788.72 411.399C1808.4 431.553 1833.31 441.63 1863.48 441.63Z"/>
</mask>
<path d="M365.249 435.715V507.349H20.9922V47.3175H356.069V118.951H106.237V238.559H327.873V308.878H106.237V435.715H365.249Z" stroke="url(#paint0_linear)" stroke-width="23.4034" mask="url(#path-1-outside-1)"/>
<path d="M419.623 19.7156H501.589V507.349H419.623V19.7156Z" stroke="url(#paint1_linear)" stroke-width="23.4034" mask="url(#path-1-outside-1)"/>
<path d="M905.558 333.851C905.558 339.547 905.121 347.652 904.246 358.167H629.497C634.305 384.017 646.764 404.608 666.873 419.943C687.419 434.839 712.774 442.287 742.938 442.287C781.407 442.287 813.1 429.582 838.018 404.17L881.952 454.774C866.214 473.613 846.324 487.852 822.281 497.491C798.237 507.13 771.134 511.949 740.97 511.949C702.501 511.949 668.622 504.282 639.333 488.948C610.044 473.613 587.312 452.364 571.137 425.2C555.4 397.599 547.531 366.492 547.531 331.88C547.531 297.706 555.181 267.037 570.481 239.873C586.219 212.272 607.858 190.803 635.398 175.469C662.939 160.135 693.977 152.467 728.512 152.467C762.609 152.467 792.991 160.135 819.658 175.469C846.761 190.365 867.744 211.614 882.607 239.216C897.908 266.38 905.558 297.925 905.558 333.851ZM728.512 218.186C702.282 218.186 679.988 226.073 661.627 241.845C643.704 257.179 632.775 277.771 628.841 303.621H827.526C824.029 278.209 813.319 257.618 795.396 241.845C777.472 226.073 755.178 218.186 728.512 218.186Z" stroke="url(#paint2_linear)" stroke-width="23.4034" mask="url(#path-1-outside-1)"/>
<path d="M1112.16 511.949C1075.87 511.949 1043.31 504.282 1014.45 488.948C985.603 473.613 963.089 452.364 946.915 425.2C930.74 397.599 922.653 366.492 922.653 331.88C922.653 297.268 930.74 266.38 946.915 239.216C963.089 212.053 985.384 190.803 1013.8 175.469C1042.65 160.135 1075.44 152.467 1112.16 152.467C1146.69 152.467 1176.86 159.478 1202.65 173.498C1228.88 187.518 1248.55 207.671 1261.66 233.959L1198.71 270.761C1188.66 254.551 1175.98 242.502 1160.68 234.616C1145.82 226.292 1129.43 222.129 1111.5 222.129C1080.9 222.129 1055.55 232.206 1035.44 252.36C1015.33 272.076 1005.27 298.582 1005.27 331.88C1005.27 365.177 1015.11 391.903 1034.78 412.057C1054.89 431.772 1080.46 441.63 1111.5 441.63C1129.43 441.63 1145.82 437.687 1160.68 429.801C1175.98 421.476 1188.66 409.209 1198.71 392.998L1261.66 429.801C1248.11 456.088 1228.22 476.461 1201.99 490.919C1176.2 504.939 1146.26 511.949 1112.16 511.949Z" stroke="url(#paint3_linear)" stroke-width="23.4034" mask="url(#path-1-outside-1)"/>
<path d="M1514.7 488.29C1505.09 496.177 1493.28 502.091 1479.29 506.034C1465.74 509.978 1451.32 511.949 1436.02 511.949C1397.55 511.949 1367.82 501.872 1346.84 481.719C1325.85 461.565 1315.36 432.21 1315.36 393.655V224.758H1257.66V159.039H1315.36V78.8625H1397.33V159.039H1491.1V224.758H1397.33V391.684C1397.33 408.771 1401.48 421.914 1409.79 431.115C1418.09 439.878 1430.11 444.259 1445.85 444.259C1464.21 444.259 1479.51 439.439 1491.75 429.801L1514.7 488.29Z" stroke="url(#paint4_linear)" stroke-width="23.4034" mask="url(#path-1-outside-1)"/>
<path d="M1549.34 156.411H1631.31V507.349H1549.34V156.411ZM1590.65 98.5781C1575.79 98.5781 1563.33 93.9778 1553.28 84.7772C1543.22 75.1384 1538.2 63.3091 1538.2 49.2891C1538.2 35.2691 1543.22 23.6587 1553.28 14.4581C1563.33 4.81937 1575.79 0 1590.65 0C1605.52 0 1617.98 4.60031 1628.03 13.8009C1638.09 22.5634 1643.11 33.7356 1643.11 47.3175C1643.11 61.7756 1638.09 74.0431 1628.03 84.12C1618.41 93.7587 1605.95 98.5781 1590.65 98.5781Z" stroke="url(#paint5_linear)" stroke-width="23.4034" mask="url(#path-1-outside-1)"/>
<path d="M1863.48 511.949C1828.07 511.949 1796.16 504.282 1767.74 488.948C1739.33 473.613 1717.03 452.364 1700.86 425.2C1685.12 397.599 1677.25 366.492 1677.25 331.88C1677.25 297.268 1685.12 266.38 1700.86 239.216C1717.03 212.053 1739.33 190.803 1767.74 175.469C1796.16 160.135 1828.07 152.467 1863.48 152.467C1899.32 152.467 1931.45 160.135 1959.87 175.469C1988.28 190.803 2010.36 212.053 2026.1 239.216C2042.27 266.38 2050.36 297.268 2050.36 331.88C2050.36 366.492 2042.27 397.599 2026.1 425.2C2010.36 452.364 1988.28 473.613 1959.87 488.948C1931.45 504.282 1899.32 511.949 1863.48 511.949ZM1863.48 441.63C1893.64 441.63 1918.56 431.553 1938.23 411.399C1957.9 391.246 1967.74 364.739 1967.74 331.88C1967.74 299.02 1957.9 272.514 1938.23 252.36C1918.56 232.206 1893.64 222.129 1863.48 222.129C1833.31 222.129 1808.4 232.206 1788.72 252.36C1769.49 272.514 1759.87 299.02 1759.87 331.88C1759.87 364.739 1769.49 391.246 1788.72 411.399C1808.4 431.553 1833.31 441.63 1863.48 441.63Z" stroke="url(#paint6_linear)" stroke-width="23.4034" mask="url(#path-1-outside-1)"/>
</g>
</g>
<g clip-path="url(#clip1)">
<g opacity="0.1">
<mask id="path-2-outside-2" maskUnits="userSpaceOnUse" x="-555.875" y="339.051" width="2054" height="536" fill="black">
<rect fill="white" x="-555.875" y="339.051" width="2054" height="536"/>
<path d="M-199.518 786.766V858.4H-543.875V398.368H-208.701V470.002H-458.606V589.61H-236.906V659.929H-458.606V786.766H-199.518Z"/>
<path d="M-145.128 370.766H-63.1387V858.4H-145.128V370.766Z"/>
<path d="M340.948 684.902C340.948 690.598 340.51 698.703 339.636 709.218H64.8062C69.6163 735.067 82.0787 755.659 102.193 770.994C122.746 785.89 148.108 793.338 178.28 793.338C216.76 793.338 248.463 780.632 273.388 755.221L317.334 805.825C301.592 824.664 281.696 838.903 257.646 848.542C233.596 858.181 206.484 863 176.312 863C137.832 863 103.943 855.333 74.645 839.998C45.3473 824.664 22.6089 803.415 6.42957 776.251C-9.31244 748.649 -17.1835 717.542 -17.1835 682.931C-17.1835 648.757 -9.53113 618.088 5.77362 590.924C21.5156 563.322 43.1609 541.854 70.7095 526.52C98.2581 511.185 129.305 503.518 163.85 503.518C197.957 503.518 228.348 511.185 255.022 526.52C282.134 541.416 303.123 562.665 317.99 590.267C333.295 617.431 340.948 648.976 340.948 684.902ZM163.85 569.237C137.613 569.237 115.312 577.123 96.9462 592.896C79.0177 608.23 68.0858 628.822 64.1503 654.671H262.893C259.395 629.26 248.682 608.668 230.753 592.896C212.825 577.123 190.524 569.237 163.85 569.237Z"/>
<path d="M547.608 863C511.313 863 478.736 855.333 449.876 839.998C421.016 824.664 398.496 803.415 382.316 776.251C366.137 748.649 358.047 717.542 358.047 682.931C358.047 648.319 366.137 617.431 382.316 590.267C398.496 563.103 420.797 541.854 449.22 526.52C478.08 511.185 510.876 503.518 547.608 503.518C582.153 503.518 612.325 510.528 638.124 524.548C664.361 538.568 684.038 558.722 697.157 585.01L634.189 621.812C624.131 605.601 611.45 593.553 596.146 585.667C581.278 577.342 564.88 573.18 546.952 573.18C516.342 573.18 490.98 583.257 470.865 603.411C450.75 623.126 440.693 649.633 440.693 682.931C440.693 716.228 450.532 742.954 470.209 763.107C490.324 782.823 515.905 792.681 546.952 792.681C564.88 792.681 581.278 788.738 596.146 780.851C611.45 772.527 624.131 760.26 634.189 744.049L697.157 780.851C683.601 807.139 663.705 827.512 637.468 841.97C611.669 855.99 581.715 863 547.608 863Z"/>
<path d="M950.269 839.341C940.649 847.227 928.843 853.142 914.85 857.085C901.294 861.028 886.864 863 871.559 863C833.079 863 803.344 852.923 782.354 832.769C761.365 812.616 750.87 783.261 750.87 744.706V575.809H693.15V510.09H750.87V429.913H832.86V510.09H926.656V575.809H832.86V742.735C832.86 759.821 837.014 772.965 845.323 782.166C853.631 790.928 865.656 795.31 881.398 795.31C899.764 795.31 915.068 790.49 927.312 780.851L950.269 839.341Z"/>
<path d="M984.92 507.461H1066.91V858.4H984.92V507.461ZM1026.24 449.629C1011.38 449.629 998.913 445.029 988.856 435.828C978.798 426.189 973.77 414.36 973.77 400.34C973.77 386.32 978.798 374.71 988.856 365.509C998.913 355.87 1011.38 351.051 1026.24 351.051C1041.11 351.051 1053.57 355.651 1063.63 364.852C1073.69 373.614 1078.72 384.786 1078.72 398.368C1078.72 412.826 1073.69 425.094 1063.63 435.171C1054.01 444.81 1041.55 449.629 1026.24 449.629Z"/>
<path d="M1299.15 863C1263.73 863 1231.8 855.333 1203.38 839.998C1174.96 824.664 1152.66 803.415 1136.48 776.251C1120.74 748.649 1112.87 717.542 1112.87 682.931C1112.87 648.319 1120.74 617.431 1136.48 590.267C1152.66 563.103 1174.96 541.854 1203.38 526.52C1231.8 511.185 1263.73 503.518 1299.15 503.518C1335 503.518 1367.14 511.185 1395.57 526.52C1423.99 541.854 1446.07 563.103 1461.81 590.267C1477.99 617.431 1486.08 648.319 1486.08 682.931C1486.08 717.542 1477.99 748.649 1461.81 776.251C1446.07 803.415 1423.99 824.664 1395.57 839.998C1367.14 855.333 1335 863 1299.15 863ZM1299.15 792.681C1329.32 792.681 1354.24 782.604 1373.92 762.45C1393.6 742.296 1403.44 715.79 1403.44 682.931C1403.44 650.071 1393.6 623.565 1373.92 603.411C1354.24 583.257 1329.32 573.18 1299.15 573.18C1268.97 573.18 1244.05 583.257 1224.37 603.411C1205.13 623.565 1195.51 650.071 1195.51 682.931C1195.51 715.79 1205.13 742.296 1224.37 762.45C1244.05 782.604 1268.97 792.681 1299.15 792.681Z"/>
</mask>
<path d="M-199.518 786.766V858.4H-543.875V398.368H-208.701V470.002H-458.606V589.61H-236.906V659.929H-458.606V786.766H-199.518Z" stroke="url(#paint7_linear)" stroke-width="23.4034" mask="url(#path-2-outside-2)"/>
<path d="M-145.128 370.766H-63.1387V858.4H-145.128V370.766Z" stroke="url(#paint8_linear)" stroke-width="23.4034" mask="url(#path-2-outside-2)"/>
<path d="M340.948 684.902C340.948 690.598 340.51 698.703 339.636 709.218H64.8062C69.6163 735.067 82.0787 755.659 102.193 770.994C122.746 785.89 148.108 793.338 178.28 793.338C216.76 793.338 248.463 780.632 273.388 755.221L317.334 805.825C301.592 824.664 281.696 838.903 257.646 848.542C233.596 858.181 206.484 863 176.312 863C137.832 863 103.943 855.333 74.645 839.998C45.3473 824.664 22.6089 803.415 6.42957 776.251C-9.31244 748.649 -17.1835 717.542 -17.1835 682.931C-17.1835 648.757 -9.53113 618.088 5.77362 590.924C21.5156 563.322 43.1609 541.854 70.7095 526.52C98.2581 511.185 129.305 503.518 163.85 503.518C197.957 503.518 228.348 511.185 255.022 526.52C282.134 541.416 303.123 562.665 317.99 590.267C333.295 617.431 340.948 648.976 340.948 684.902ZM163.85 569.237C137.613 569.237 115.312 577.123 96.9462 592.896C79.0177 608.23 68.0858 628.822 64.1503 654.671H262.893C259.395 629.26 248.682 608.668 230.753 592.896C212.825 577.123 190.524 569.237 163.85 569.237Z" stroke="url(#paint9_linear)" stroke-width="23.4034" mask="url(#path-2-outside-2)"/>
<path d="M547.608 863C511.313 863 478.736 855.333 449.876 839.998C421.016 824.664 398.496 803.415 382.316 776.251C366.137 748.649 358.047 717.542 358.047 682.931C358.047 648.319 366.137 617.431 382.316 590.267C398.496 563.103 420.797 541.854 449.22 526.52C478.08 511.185 510.876 503.518 547.608 503.518C582.153 503.518 612.325 510.528 638.124 524.548C664.361 538.568 684.038 558.722 697.157 585.01L634.189 621.812C624.131 605.601 611.45 593.553 596.146 585.667C581.278 577.342 564.88 573.18 546.952 573.18C516.342 573.18 490.98 583.257 470.865 603.411C450.75 623.126 440.693 649.633 440.693 682.931C440.693 716.228 450.532 742.954 470.209 763.107C490.324 782.823 515.905 792.681 546.952 792.681C564.88 792.681 581.278 788.738 596.146 780.851C611.45 772.527 624.131 760.26 634.189 744.049L697.157 780.851C683.601 807.139 663.705 827.512 637.468 841.97C611.669 855.99 581.715 863 547.608 863Z" stroke="url(#paint10_linear)" stroke-width="23.4034" mask="url(#path-2-outside-2)"/>
<path d="M950.269 839.341C940.649 847.227 928.843 853.142 914.85 857.085C901.294 861.028 886.864 863 871.559 863C833.079 863 803.344 852.923 782.354 832.769C761.365 812.616 750.87 783.261 750.87 744.706V575.809H693.15V510.09H750.87V429.913H832.86V510.09H926.656V575.809H832.86V742.735C832.86 759.821 837.014 772.965 845.323 782.166C853.631 790.928 865.656 795.31 881.398 795.31C899.764 795.31 915.068 790.49 927.312 780.851L950.269 839.341Z" stroke="url(#paint11_linear)" stroke-width="23.4034" mask="url(#path-2-outside-2)"/>
<path d="M984.92 507.461H1066.91V858.4H984.92V507.461ZM1026.24 449.629C1011.38 449.629 998.913 445.029 988.856 435.828C978.798 426.189 973.77 414.36 973.77 400.34C973.77 386.32 978.798 374.71 988.856 365.509C998.913 355.87 1011.38 351.051 1026.24 351.051C1041.11 351.051 1053.57 355.651 1063.63 364.852C1073.69 373.614 1078.72 384.786 1078.72 398.368C1078.72 412.826 1073.69 425.094 1063.63 435.171C1054.01 444.81 1041.55 449.629 1026.24 449.629Z" stroke="url(#paint12_linear)" stroke-width="23.4034" mask="url(#path-2-outside-2)"/>
<path d="M1299.15 863C1263.73 863 1231.8 855.333 1203.38 839.998C1174.96 824.664 1152.66 803.415 1136.48 776.251C1120.74 748.649 1112.87 717.542 1112.87 682.931C1112.87 648.319 1120.74 617.431 1136.48 590.267C1152.66 563.103 1174.96 541.854 1203.38 526.52C1231.8 511.185 1263.73 503.518 1299.15 503.518C1335 503.518 1367.14 511.185 1395.57 526.52C1423.99 541.854 1446.07 563.103 1461.81 590.267C1477.99 617.431 1486.08 648.319 1486.08 682.931C1486.08 717.542 1477.99 748.649 1461.81 776.251C1446.07 803.415 1423.99 824.664 1395.57 839.998C1367.14 855.333 1335 863 1299.15 863ZM1299.15 792.681C1329.32 792.681 1354.24 782.604 1373.92 762.45C1393.6 742.296 1403.44 715.79 1403.44 682.931C1403.44 650.071 1393.6 623.565 1373.92 603.411C1354.24 583.257 1329.32 573.18 1299.15 573.18C1268.97 573.18 1244.05 583.257 1224.37 603.411C1205.13 623.565 1195.51 650.071 1195.51 682.931C1195.51 715.79 1205.13 742.296 1224.37 762.45C1244.05 782.604 1268.97 792.681 1299.15 792.681Z" stroke="url(#paint13_linear)" stroke-width="23.4034" mask="url(#path-2-outside-2)"/>
</g>
</g>
<defs>
<linearGradient id="paint0_linear" x1="1815.16" y1="480.331" x2="1705.88" y2="-222.871" gradientUnits="userSpaceOnUse">
<stop stop-color="#C1F0FF"/>
<stop offset="1" stop-color="#030094"/>
</linearGradient>
<linearGradient id="paint1_linear" x1="1815.16" y1="480.331" x2="1705.88" y2="-222.871" gradientUnits="userSpaceOnUse">
<stop stop-color="#C1F0FF"/>
<stop offset="1" stop-color="#030094"/>
</linearGradient>
<linearGradient id="paint2_linear" x1="1815.16" y1="480.331" x2="1705.88" y2="-222.871" gradientUnits="userSpaceOnUse">
<stop stop-color="#C1F0FF"/>
<stop offset="1" stop-color="#030094"/>
</linearGradient>
<linearGradient id="paint3_linear" x1="1815.16" y1="480.331" x2="1705.88" y2="-222.871" gradientUnits="userSpaceOnUse">
<stop stop-color="#C1F0FF"/>
<stop offset="1" stop-color="#030094"/>
</linearGradient>
<linearGradient id="paint4_linear" x1="1815.16" y1="480.331" x2="1705.88" y2="-222.871" gradientUnits="userSpaceOnUse">
<stop stop-color="#C1F0FF"/>
<stop offset="1" stop-color="#030094"/>
</linearGradient>
<linearGradient id="paint5_linear" x1="1815.16" y1="480.331" x2="1705.88" y2="-222.871" gradientUnits="userSpaceOnUse">
<stop stop-color="#C1F0FF"/>
<stop offset="1" stop-color="#030094"/>
</linearGradient>
<linearGradient id="paint6_linear" x1="1815.16" y1="480.331" x2="1705.88" y2="-222.871" gradientUnits="userSpaceOnUse">
<stop stop-color="#C1F0FF"/>
<stop offset="1" stop-color="#030094"/>
</linearGradient>
<linearGradient id="paint7_linear" x1="1250.81" y1="831.382" x2="1141.56" y2="128.17" gradientUnits="userSpaceOnUse">
<stop stop-color="#C1F0FF"/>
<stop offset="1" stop-color="#030094"/>
</linearGradient>
<linearGradient id="paint8_linear" x1="1250.81" y1="831.382" x2="1141.56" y2="128.17" gradientUnits="userSpaceOnUse">
<stop stop-color="#C1F0FF"/>
<stop offset="1" stop-color="#030094"/>
</linearGradient>
<linearGradient id="paint9_linear" x1="1250.81" y1="831.382" x2="1141.56" y2="128.17" gradientUnits="userSpaceOnUse">
<stop stop-color="#C1F0FF"/>
<stop offset="1" stop-color="#030094"/>
</linearGradient>
<linearGradient id="paint10_linear" x1="1250.81" y1="831.382" x2="1141.56" y2="128.17" gradientUnits="userSpaceOnUse">
<stop stop-color="#C1F0FF"/>
<stop offset="1" stop-color="#030094"/>
</linearGradient>
<linearGradient id="paint11_linear" x1="1250.81" y1="831.382" x2="1141.56" y2="128.17" gradientUnits="userSpaceOnUse">
<stop stop-color="#C1F0FF"/>
<stop offset="1" stop-color="#030094"/>
</linearGradient>
<linearGradient id="paint12_linear" x1="1250.81" y1="831.382" x2="1141.56" y2="128.17" gradientUnits="userSpaceOnUse">
<stop stop-color="#C1F0FF"/>
<stop offset="1" stop-color="#030094"/>
</linearGradient>
<linearGradient id="paint13_linear" x1="1250.81" y1="831.382" x2="1141.56" y2="128.17" gradientUnits="userSpaceOnUse">
<stop stop-color="#C1F0FF"/>
<stop offset="1" stop-color="#030094"/>
</linearGradient>
<clipPath id="clip0">
<rect width="915" height="533" fill="white"/>
</clipPath>
<clipPath id="clip1">
<rect width="1279.76" height="511.949" fill="white" transform="translate(349.241 351.051)"/>
</clipPath>
</defs>
</svg>
