<svg width="72" height="43" viewBox="0 0 72 43" fill="none" xmlns="http://www.w3.org/2000/svg">
<rect width="71.25" height="43" rx="21.5" fill="#2945FF"/>
<path d="M47.7972 27.9305C47.7972 27.8318 47.6976 27.8318 47.6976 27.7331C47.2993 26.9434 46.403 25.9564 45.208 24.8706C44.6104 24.3771 44.3117 23.9822 44.1125 23.7848C43.8137 23.39 43.8137 23.0939 43.9133 22.6991C44.0129 22.4029 44.4113 21.9094 45.1084 21.0211C45.5067 20.5275 45.7059 20.2314 46.0046 19.9353C47.4984 17.9612 48.1956 16.678 47.9964 16.0858L47.8968 15.9871C47.7972 15.8884 47.6976 15.7897 47.4984 15.7897C47.2993 15.6909 47.0005 15.6909 46.7018 15.7897H42.9175C42.8179 15.7897 42.8179 15.7897 42.6187 15.7897C42.5191 15.7897 42.4195 15.7897 42.4195 15.7897H42.3199H42.2203L42.1207 15.8883C42.0212 15.9871 42.0212 15.987 42.0212 16.0858C41.6228 17.1715 41.1249 18.0599 40.6269 19.0469C40.3282 19.5405 40.0294 20.034 39.7307 20.4288C39.4319 20.8236 39.2327 21.1198 39.0335 21.3172C38.8344 21.5146 38.6352 21.6133 38.5356 21.8107C38.436 21.9094 38.2368 22.0081 38.2368 21.9094C38.1373 21.9094 38.0377 21.9094 38.0377 21.8107C37.9381 21.712 37.8385 21.6133 37.7389 21.5146C37.6393 21.4159 37.6393 21.2185 37.5397 21.0211C37.5397 20.8236 37.5397 20.6262 37.5397 20.5275C37.5397 20.4288 37.5397 20.1327 37.5397 19.9353C37.5397 19.6392 37.5397 19.4418 37.5397 19.3431C37.5397 19.0469 37.5397 18.6521 37.5397 18.2573C37.5397 17.8625 37.5397 17.5663 37.5397 17.3689C37.5397 17.1715 37.5397 16.8754 37.5397 16.678C37.5397 16.3819 37.5397 16.1845 37.5397 16.0858C37.5397 15.987 37.4402 15.7896 37.4402 15.6909C37.3406 15.5922 37.241 15.4935 37.1414 15.3948C37.0418 15.2961 36.8426 15.2961 36.743 15.1974C36.2451 15.0987 35.6476 15 34.9505 15C33.3571 15 32.2616 15.0987 31.8633 15.2961C31.6641 15.3948 31.4649 15.4935 31.3653 15.6909C31.1662 15.8884 31.1662 15.9871 31.2657 15.9871C31.7637 16.0858 32.162 16.2832 32.3612 16.5793L32.4608 16.7767C32.5604 16.8754 32.5604 17.0728 32.66 17.3689C32.7595 17.6651 32.7596 17.9612 32.7596 18.356C32.7596 18.9482 32.7596 19.5405 32.7596 19.9353C32.7596 20.4288 32.66 20.7249 32.66 21.0211C32.66 21.3172 32.5604 21.5146 32.4608 21.6133C32.3612 21.8107 32.3612 21.9094 32.2616 21.9094C32.2616 21.9094 32.2616 22.0081 32.162 22.0081C32.0624 22.0081 31.9629 22.1068 31.7637 22.1068C31.6641 22.1068 31.4649 22.0081 31.3653 21.9094C31.1662 21.8107 30.967 21.6133 30.8674 21.4159C30.6682 21.2185 30.469 20.9223 30.2699 20.5275C30.0707 20.1327 29.7719 19.7379 29.5727 19.1456L29.3736 18.7508C29.274 18.5534 29.0748 18.1586 28.8757 17.6651C28.6765 17.1715 28.4773 16.7767 28.2781 16.2832C28.1785 16.0858 28.079 15.9871 27.9794 15.8883H27.8798C27.8798 15.8883 27.7802 15.7897 27.6806 15.7897C27.581 15.7897 27.4814 15.6909 27.3818 15.6909H23.7967C23.3984 15.6909 23.1992 15.7896 23.0996 15.8883L23 15.9871C23 15.9871 23 16.0858 23 16.1845C23 16.2832 23 16.3819 23.0996 16.5793C23.5975 17.7638 24.195 18.9482 24.7926 20.1327C25.3901 21.2185 25.9876 22.2055 26.386 22.8965C26.8839 23.5874 27.2823 24.2784 27.7802 24.8706C28.2781 25.4628 28.5769 25.8576 28.6765 26.0551C28.8756 26.2525 28.9752 26.3512 29.0748 26.4499L29.3736 26.746C29.5728 26.9434 29.8715 27.2395 30.2699 27.5356C30.6682 27.8318 31.1662 28.1279 31.6641 28.424C32.162 28.7201 32.7596 28.9175 33.3571 29.1149C34.0542 29.3124 34.6517 29.4111 35.2492 29.3124H36.743C37.0418 29.3124 37.241 29.2136 37.4402 29.0162L37.5397 28.9175C37.5397 28.8188 37.6393 28.8188 37.6393 28.7201C37.6393 28.6214 37.6393 28.5227 37.6393 28.3253C37.6393 27.9305 37.6393 27.6344 37.7389 27.3382C37.8385 27.0421 37.8385 26.8447 37.9381 26.6473C38.0377 26.4499 38.1373 26.3512 38.2368 26.2525C38.3364 26.1538 38.436 26.0551 38.436 26.0551H38.5356C38.7348 25.9564 39.0335 26.0551 39.2327 26.2525C39.5315 26.4499 39.8302 26.746 40.0294 27.0421C40.2286 27.3382 40.5274 27.6344 40.9257 28.0292C41.3241 28.424 41.6228 28.7201 41.822 28.8188L42.1207 29.0162C42.3199 29.1149 42.5191 29.2136 42.8179 29.3124C43.1166 29.4111 43.3158 29.4111 43.515 29.4111L46.901 29.3124C47.1997 29.3124 47.4985 29.2137 47.6976 29.1149C47.8968 29.0162 47.9964 28.9175 47.9964 28.7201C47.9964 28.6214 47.9964 28.424 47.9964 28.3253C47.7972 28.1279 47.7972 28.0292 47.7972 27.9305Z" fill="white"/>
</svg>
