<svg width="156" height="156" viewBox="0 0 156 156" fill="none" xmlns="http://www.w3.org/2000/svg">
<circle cx="78" cy="78" r="78" fill="white" fill-opacity="0.6"/>
<path d="M55.2458 90.1534C45.5966 80.2946 45.5968 64.253 55.2458 54.3941C64.8951 44.5353 80.5956 44.5353 90.2447 54.3941C98.4309 62.758 99.6707 75.1972 93.9675 84.9109C93.9675 84.9109 93.035 86.3037 93.5883 86.8686C96.7447 90.0934 106.737 99.0786 106.737 99.0786C109.251 101.646 109.849 105.236 107.62 107.514L107.237 107.906C105.008 110.183 101.494 109.572 98.9806 107.004C98.9806 107.004 90.1801 96.7874 87.0301 93.5693C86.4503 92.9769 85.1139 93.957 85.1139 93.957C75.6068 99.7838 63.4319 98.5173 55.2458 90.1534ZM85.6758 85.4851C92.8057 78.2004 92.8055 66.3476 85.6756 59.0629C78.5457 51.7784 66.9448 51.7782 59.8151 59.0629C52.6853 66.3474 52.6853 78.2004 59.8151 85.4851C66.945 92.7694 78.5457 92.7694 85.6758 85.4851Z" fill="white"/>
</svg>
